<?xml version="1.0" encoding="UTF-8"?>
<svg version="1.1" xmlns="http://www.w3.org/2000/svg" width="256" height="256">
<path d="M0 0 C17.16 0 34.32 0 52 0 C57.23245652 9.15679891 62.42045155 18.3222645 67.5 27.5625 C68.19259097 28.82037713 68.88530232 30.07818798 69.578125 31.3359375 C71.00957463 33.93480564 72.44051953 36.53395067 73.87109375 39.13330078 C76.91257018 44.65870737 79.96041999 50.18059584 83.00805664 55.7026062 C84.67232411 58.71824615 86.33613814 61.73413625 88 64.75 C88.66666452 65.95833452 89.33333118 67.16666785 90 68.375 C94.00000001 75.62500001 94.00000001 75.62500001 94.99993896 77.43739319 C95.66680478 78.64608493 96.3336749 79.8547743 97.00054932 81.0634613 C98.66420427 84.0787915 100.32778512 87.09416253 101.99121094 90.10961914 C105.71739646 96.86422935 109.44555913 103.61774171 113.17590332 110.37005615 C116.16140759 115.77503118 119.14037521 121.18359413 122.11914062 126.59228516 C123.96342499 129.93373391 125.81686712 133.26996403 127.671875 136.60546875 C128.78145345 138.61186667 129.89083992 140.61837077 131 142.625 C131.51079102 143.53757568 132.02158203 144.45015137 132.54785156 145.39038086 C133.00643555 146.2231958 133.46501953 147.05601074 133.9375 147.9140625 C134.33839844 148.6354541 134.73929688 149.3568457 135.15234375 150.10009766 C136 152 136 152 136 155 C134.57885742 156.3503418 134.57885742 156.3503418 132.60546875 157.69921875 C131.89712891 158.18583984 131.18878906 158.67246094 130.45898438 159.17382812 C129.70939453 159.67333984 128.95980469 160.17285156 128.1875 160.6875 C127.44951172 161.19861328 126.71152344 161.70972656 125.95117188 162.23632812 C120.39862525 166 120.39862525 166 117 166 C116.67427002 165.39341553 116.34854004 164.78683105 116.01293945 164.16186523 C109.9694136 152.92130773 103.88024586 141.71416306 97.5625 130.625 C92.23695271 121.27132003 87.10155807 111.82495751 82.01757812 102.33813477 C77.55870795 94.0212483 73.01494029 85.75720058 68.40917969 77.52099609 C65.49583242 72.30907235 62.59068095 67.09259211 59.6875 61.875 C59.04651367 60.72314209 58.40552734 59.57128418 57.74511719 58.38452148 C53.00742565 49.85393473 48.35364789 41.28063289 43.73242188 32.68652344 C39.50049454 24.84718109 35.10430559 17.10916972 30.60473633 9.42041016 C29.89353638 8.19523682 29.89353638 8.19523682 29.16796875 6.9453125 C28.74797607 6.22875488 28.3279834 5.51219727 27.89526367 4.77392578 C27 3 27 3 27 1 C26.34 1 25.68 1 25 1 C24.59164917 2.07145264 24.59164917 2.07145264 24.17504883 3.16455078 C22.99729729 6.00652178 21.65674239 8.65875961 20.19921875 11.3671875 C19.64105469 12.40552734 19.08289063 13.44386719 18.5078125 14.51367188 C17.90710938 15.62291016 17.30640625 16.73214844 16.6875 17.875 C16.06230469 19.03322266 15.43710938 20.19144531 14.79296875 21.38476562 C10.26489085 29.75335146 5.60891684 38.04554393 0.8972168 46.31201172 C-3.17773734 53.48427577 -7.10972422 60.72612895 -11 68 C-15.90991622 77.18035109 -20.94984317 86.2721093 -26.10546875 95.31640625 C-30.79172657 103.56558164 -35.28018673 111.91430879 -39.75415039 120.2800293 C-44.24171663 128.6484293 -48.87312149 136.92702557 -53.5690918 145.17993164 C-57.48500585 152.06594881 -61.3021953 158.99434092 -65 166 C-68.01883061 165.39098881 -70.13219085 164.44445623 -72.671875 162.71484375 C-73.33574219 162.26689453 -73.99960938 161.81894531 -74.68359375 161.35742188 C-75.70646484 160.65456055 -75.70646484 160.65456055 -76.75 159.9375 C-77.44738281 159.46505859 -78.14476562 158.99261719 -78.86328125 158.50585938 C-80.57904993 157.34242719 -82.29000398 156.17190026 -84 155 C-83.40569887 151.16686496 -82.27609734 148.28608853 -80.41015625 144.89453125 C-79.61291138 143.43430542 -79.61291138 143.43430542 -78.79956055 141.94458008 C-78.22633057 140.91099365 -77.65310059 139.87740723 -77.0625 138.8125 C-76.47057861 137.73315186 -75.87865723 136.65380371 -75.26879883 135.54174805 C-73.51976366 132.35711048 -71.76159741 129.17770244 -70 126 C-69.55946289 125.20335937 -69.11892578 124.40671875 -68.66503906 123.5859375 C-66.70663652 120.04568639 -64.74045506 116.50985607 -62.76953125 112.9765625 C-59.2850096 106.72442414 -55.83116546 100.45533916 -52.375 94.1875 C-51.68514232 92.93660352 -50.99528228 91.68570835 -50.30541992 90.43481445 C-48.90240637 87.89068021 -47.49951517 85.34647853 -46.09667969 82.80224609 C-44.05720582 79.10352924 -42.0170123 75.40520979 -39.9765625 71.70703125 C-39.4835112 70.81337105 -39.4835112 70.81337105 -38.98049927 69.9016571 C-37.32402938 66.89937213 -35.66732138 63.89721886 -34.01025391 60.89526367 C-30.96922153 55.38555133 -27.92994706 49.87490172 -24.89880371 44.35974121 C-23.51511663 41.84245447 -22.13015379 39.32587059 -20.74511719 36.80932617 C-19.8054215 35.1007676 -18.86749873 33.39123428 -17.9296875 31.68164062 C-12.0750495 21.04655249 -6.02620003 10.54585005 0 0 Z " fill="#FF1B08" transform="translate(102,32)"/>
<path d="M0 0 C2.65965367 1.26325386 5.00993639 2.6314606 7.36328125 4.3984375 C7.99516357 4.87168457 8.6270459 5.34493164 9.27807617 5.83251953 C9.94943604 6.34153809 10.6207959 6.85055664 11.3125 7.375 C12.01673096 7.90593262 12.72096191 8.43686523 13.4465332 8.98388672 C18.89511571 13.11276231 24.24804289 17.35274049 29.5703125 21.64257812 C33.96448424 25.18284044 38.40515691 28.6503054 42.88671875 32.07958984 C47.50457666 35.61392025 52.09880306 39.17790162 56.6875 42.75 C57.44184326 43.33700684 58.19618652 43.92401367 58.97338867 44.52880859 C62.9405417 47.61655998 66.90617499 50.70625537 70.87109375 53.796875 C71.66749268 54.41723633 72.4638916 55.03759766 73.28442383 55.67675781 C74.79386145 56.85256673 76.30284749 58.0289557 77.8112793 59.20605469 C82.50091293 62.85844786 87.23264382 66.44967101 92 70 C90.48784431 74.53646708 87.03257524 76.1193361 83.1875 78.75 C82.46240234 79.26949219 81.73730469 79.78898437 80.99023438 80.32421875 C79.93352539 81.05318359 79.93352539 81.05318359 78.85546875 81.796875 C78.21246826 82.24385742 77.56946777 82.69083984 76.90698242 83.15136719 C75 84 75 84 72.96923828 83.78149414 C70.90900893 82.9638901 69.39927358 82.03927317 67.63671875 80.69921875 C66.68937866 79.98487671 66.68937866 79.98487671 65.72290039 79.25610352 C65.05121826 78.73846436 64.37953613 78.2208252 63.6875 77.6875 C62.98036865 77.14988037 62.2732373 76.61226074 61.54467773 76.05834961 C56.20147843 71.97615248 50.94387746 67.79069735 45.7109375 63.56860352 C40.4015542 59.29275251 35.00346245 55.14174619 29.57348633 51.02050781 C25.72062468 48.09294837 21.89352344 45.1379455 18.09765625 42.13671875 C17.2878833 41.49847168 16.47811035 40.86022461 15.64379883 40.20263672 C14.08378674 38.97085563 12.52743654 37.73441821 10.9753418 36.49267578 C5.96360177 32.25352993 5.96360177 32.25352993 0 30 C-2.87207481 31.48518143 -2.87207481 31.48518143 -5.6875 34 C-6.843211 34.94336904 -7.99949313 35.8860387 -9.15625 36.828125 C-9.775 37.34181641 -10.39375 37.85550781 -11.03125 38.38476562 C-14.52329157 41.24976402 -18.11308512 43.98904068 -21.6875 46.75 C-23.22710676 47.94721709 -24.76616256 49.14514301 -26.3046875 50.34375 C-27.07780273 50.94574219 -27.85091797 51.54773438 -28.64746094 52.16796875 C-29.42379883 52.77253906 -30.20013672 53.37710938 -31 54 C-51.95311104 70.31715912 -51.95311104 70.31715912 -59.22265625 75.86328125 C-60.977214 77.21313089 -62.71658924 78.58316332 -64.43359375 79.98046875 C-65.13613281 80.54378906 -65.83867188 81.10710937 -66.5625 81.6875 C-67.14128906 82.16574219 -67.72007813 82.64398438 -68.31640625 83.13671875 C-70 84 -70 84 -71.86206055 83.71044922 C-74.20688951 82.93124946 -75.87019415 81.9136541 -77.890625 80.49609375 C-78.59960938 80.00302734 -79.30859375 79.50996094 -80.0390625 79.00195312 C-81.13347656 78.22754883 -81.13347656 78.22754883 -82.25 77.4375 C-82.99507812 76.91736328 -83.74015625 76.39722656 -84.5078125 75.86132812 C-86.3423467 74.57950615 -88.17283032 73.29228766 -90 72 C-88.9199984 68.7599952 -88.43404625 68.29885196 -85.81640625 66.35546875 C-85.14552979 65.85088135 -84.47465332 65.34629395 -83.78344727 64.82641602 C-83.05053467 64.28557373 -82.31762207 63.74473145 -81.5625 63.1875 C-79.99940499 62.01381284 -78.43692443 60.839307 -76.875 59.6640625 C-76.06675781 59.05852539 -75.25851563 58.45298828 -74.42578125 57.82910156 C-70.60551348 54.94852124 -66.8336795 52.00688105 -63.0625 49.0625 C-61.55342324 47.88667021 -60.04430845 46.71088922 -58.53515625 45.53515625 C-57.78637207 44.95137207 -57.03758789 44.36758789 -56.26611328 43.76611328 C-52.51303766 40.84112416 -48.75634634 37.92078673 -45 35 C-43.49998247 33.83335587 -41.99998247 32.6666892 -40.5 31.5 C-37.5 29.16666667 -34.5 26.83333333 -31.5 24.5 C-30.38407471 23.63205811 -30.38407471 23.63205811 -29.24560547 22.74658203 C-24.78735352 19.27905273 -24.78735352 19.27905273 -20.32910156 15.81152344 C-19.17619629 14.91481934 -19.17619629 14.91481934 -18 14 C-15.43359375 12.00390625 -15.43359375 12.00390625 -12.8671875 10.0078125 C-12.031875 9.358125 -11.1965625 8.7084375 -10.3359375 8.0390625 C-7.9921875 6.21614583 -5.6484375 4.39322917 -3.3046875 2.5703125 C-2.66515137 2.07289551 -2.02561523 1.57547852 -1.36669922 1.06298828 C-0.91568848 0.71220215 -0.46467773 0.36141602 0 0 Z " fill="#FF3C13" transform="translate(127,128)"/>
<path d="M0 0 C8.25 0 16.5 0 25 0 C24.06339477 3.74642094 22.89173175 6.33206807 21.078125 9.70703125 C20.16824829 11.40496826 20.16824829 11.40496826 19.23999023 13.13720703 C18.57691388 14.36244203 17.91357728 15.58753622 17.25 16.8125 C16.56638385 18.0818126 15.88287272 19.35118177 15.19946289 20.62060547 C10.52522812 29.28136677 5.72371925 37.86503835 0.84667969 46.41333008 C-3.21401527 53.55051556 -7.12769029 60.75909566 -11 68 C-15.90987924 77.18037016 -20.94984376 86.27211035 -26.10546875 95.31640625 C-30.79172657 103.56558164 -35.28018673 111.91430879 -39.75415039 120.2800293 C-44.24171663 128.6484293 -48.87312149 136.92702557 -53.5690918 145.17993164 C-57.48500585 152.06594881 -61.3021953 158.99434092 -65 166 C-68.01883061 165.39098881 -70.13219085 164.44445623 -72.671875 162.71484375 C-73.33574219 162.26689453 -73.99960938 161.81894531 -74.68359375 161.35742188 C-75.70646484 160.65456055 -75.70646484 160.65456055 -76.75 159.9375 C-77.44738281 159.46505859 -78.14476562 158.99261719 -78.86328125 158.50585938 C-80.57904993 157.34242719 -82.29000398 156.17190026 -84 155 C-83.40569887 151.16686496 -82.27609734 148.28608853 -80.41015625 144.89453125 C-79.61291138 143.43430542 -79.61291138 143.43430542 -78.79956055 141.94458008 C-78.22633057 140.91099365 -77.65310059 139.87740723 -77.0625 138.8125 C-76.47057861 137.73315186 -75.87865723 136.65380371 -75.26879883 135.54174805 C-73.51976366 132.35711048 -71.76159741 129.17770244 -70 126 C-69.55946289 125.20335937 -69.11892578 124.40671875 -68.66503906 123.5859375 C-66.70663652 120.04568639 -64.74045506 116.50985607 -62.76953125 112.9765625 C-59.2850096 106.72442414 -55.83116546 100.45533916 -52.375 94.1875 C-51.68514232 92.93660352 -50.99528228 91.68570835 -50.30541992 90.43481445 C-48.90240637 87.89068021 -47.49951517 85.34647853 -46.09667969 82.80224609 C-44.05720582 79.10352924 -42.0170123 75.40520979 -39.9765625 71.70703125 C-39.4835112 70.81337105 -39.4835112 70.81337105 -38.98049927 69.9016571 C-37.32402938 66.89937213 -35.66732138 63.89721886 -34.01025391 60.89526367 C-30.96882739 55.38483722 -27.92924258 49.87342766 -24.89758301 44.35762024 C-16.72854322 29.49522655 -8.46020049 14.69959835 0 0 Z " fill="#FF310F" transform="translate(102,32)"/>
</svg>
