<svg width="280" height="60" viewBox="0 0 280 60" fill="none" xmlns="http://www.w3.org/2000/svg">
<path d="M87.6906 31.9107V31.2127C87.6906 29.4587 87.0903 28.1163 85.8897 27.1856C84.7255 26.2191 83.1975 25.7359 81.3056 25.7359C79.8504 25.7359 78.7044 25.9864 77.8676 26.4876C77.0672 26.9529 76.3032 27.6689 75.5756 28.6354C75.3573 28.9217 75.1208 29.1186 74.8661 29.226C74.6114 29.3334 74.2658 29.3871 73.8292 29.3871H72.1921C71.7919 29.3871 71.4281 29.2439 71.1006 28.9575C70.8096 28.6712 70.6822 28.3311 70.7186 27.9373C70.8278 26.8634 71.3553 25.8075 72.3012 24.7694C73.2835 23.6955 74.5751 22.8185 76.1759 22.1383C77.7766 21.4582 79.4866 21.1181 81.3056 21.1181C84.6891 21.1181 87.4177 22.0488 89.4915 23.9102C91.6016 25.7717 92.6567 28.3848 92.6567 31.7496V48.1265C92.6567 48.5202 92.5111 48.8603 92.2201 49.1467C91.929 49.433 91.5834 49.5762 91.1832 49.5762H89.1641C88.7639 49.5762 88.4182 49.433 88.1272 49.1467C87.8361 48.8603 87.6906 48.5202 87.6906 48.1265V45.925C87.1085 47.2137 85.8715 48.2339 83.9797 48.9856C82.0878 49.7373 80.196 50.1132 78.3042 50.1132C76.4487 50.1132 74.7934 49.791 73.3381 49.1467C71.8828 48.4665 70.755 47.5537 69.9546 46.4082C69.1906 45.2628 68.8086 43.9741 68.8086 42.5422C68.8086 39.8575 69.8273 37.7634 71.8646 36.26C73.902 34.7207 76.6124 33.6826 79.9959 33.1457L87.6906 31.9107ZM87.6906 36.2063L81.2511 37.2265C78.8863 37.5844 77.049 38.1751 75.7393 38.9984C74.4295 39.7859 73.7747 40.7882 73.7747 42.0053C73.7747 42.9002 74.1931 43.7056 75.0298 44.4215C75.8666 45.1375 77.14 45.4954 78.8499 45.4954C81.4694 45.4954 83.5977 44.7616 85.2348 43.294C86.872 41.8263 87.6906 39.9112 87.6906 37.5486V36.2063Z" fill="#0C0C0E"/>
<path d="M105.585 48.1265C105.585 48.5202 105.439 48.8603 105.148 49.1467C104.857 49.433 104.512 49.5762 104.111 49.5762H102.092C101.692 49.5762 101.346 49.433 101.055 49.1467C100.764 48.8603 100.619 48.5202 100.619 48.1265V12.9029C100.619 12.5091 100.764 12.1691 101.055 11.8827C101.346 11.5963 101.692 11.4531 102.092 11.4531H104.111C104.512 11.4531 104.857 11.5963 105.148 11.8827C105.439 12.1691 105.585 12.5091 105.585 12.9029V48.1265Z" fill="#0C0C0E"/>
<path d="M125.242 45.4954C128.88 45.4954 131.336 44.0994 132.61 41.3073C132.864 40.7703 133.119 40.3945 133.374 40.1797C133.628 39.9649 133.974 39.8575 134.41 39.8575H136.048C136.448 39.8575 136.793 40.0007 137.084 40.2871C137.376 40.5376 137.521 40.8419 137.521 41.1999C137.521 42.4169 137.03 43.7235 136.048 45.1196C135.065 46.5156 133.646 47.6969 131.791 48.6634C129.936 49.6299 127.753 50.1132 125.242 50.1132C122.659 50.1132 120.422 49.5762 118.53 48.5023C116.638 47.4284 115.183 45.9608 114.164 44.0994C113.145 42.2022 112.582 40.0902 112.472 37.7634C112.436 37.3339 112.418 36.5106 112.418 35.2935C112.418 34.4344 112.436 33.8258 112.472 33.4679C112.8 29.8166 114.055 26.8455 116.238 24.5546C118.421 22.2636 121.422 21.1181 125.242 21.1181C127.753 21.1181 129.917 21.6014 131.736 22.5679C133.592 23.4986 134.993 24.662 135.938 26.058C136.921 27.4183 137.448 28.707 137.521 29.924C137.557 30.3178 137.412 30.6579 137.084 30.9442C136.793 31.2306 136.448 31.3738 136.048 31.3738H134.41C133.974 31.3738 133.628 31.2664 133.374 31.0516C133.119 30.8368 132.864 30.461 132.61 29.924C131.336 27.1319 128.88 25.7359 125.242 25.7359C123.241 25.7359 121.495 26.3981 120.003 27.7226C118.512 29.047 117.657 31.0516 117.438 33.7363C117.402 34.1301 117.384 34.7744 117.384 35.6693C117.384 36.4927 117.402 37.1012 117.438 37.495C117.693 40.1797 118.548 42.1843 120.003 43.5087C121.495 44.8332 123.241 45.4954 125.242 45.4954Z" fill="#0C0C0E"/>
<path d="M169.265 48.1265C169.265 48.5202 169.12 48.8603 168.828 49.1467C168.537 49.433 168.192 49.5762 167.792 49.5762H165.772C165.372 49.5762 165.027 49.433 164.736 49.1467C164.444 48.8603 164.299 48.5202 164.299 48.1265V33.9511C164.299 31.2664 163.626 29.226 162.28 27.8299C160.934 26.4339 159.06 25.7359 156.659 25.7359C154.294 25.7359 152.42 26.4339 151.038 27.8299C149.692 29.226 149.019 31.2664 149.019 33.9511V48.1265C149.019 48.5202 148.873 48.8603 148.582 49.1467C148.291 49.433 147.945 49.5762 147.545 49.5762H145.526C145.126 49.5762 144.78 49.433 144.489 49.1467C144.198 48.8603 144.053 48.5202 144.053 48.1265V12.9029C144.053 12.5091 144.198 12.1691 144.489 11.8827C144.78 11.5963 145.126 11.4531 145.526 11.4531H147.545C147.945 11.4531 148.291 11.5963 148.582 11.8827C148.873 12.1691 149.019 12.5091 149.019 12.9029V24.7694C149.819 23.7313 150.911 22.8722 152.293 22.192C153.712 21.4761 155.44 21.1181 157.477 21.1181C159.769 21.1181 161.807 21.6014 163.59 22.5679C165.372 23.5344 166.755 24.9304 167.737 26.7561C168.756 28.5459 169.265 30.6758 169.265 33.1457V48.1265Z" fill="#0C0C0E"/>
<path d="M188.388 21.1181C192.281 21.1181 195.355 22.3352 197.611 24.7694C199.867 27.2035 200.995 30.5147 200.995 34.7028V36.1526C200.995 36.5464 200.849 36.8864 200.558 37.1728C200.267 37.4592 199.921 37.6023 199.521 37.6023H180.748V37.9245C180.821 40.2871 181.549 42.1485 182.931 43.5087C184.35 44.8332 186.169 45.4954 188.388 45.4954C190.207 45.4954 191.608 45.2628 192.59 44.7974C193.609 44.332 194.519 43.6698 195.319 42.8107C195.61 42.5243 195.865 42.3275 196.083 42.2201C196.338 42.1127 196.665 42.059 197.065 42.059H198.703C199.139 42.059 199.503 42.2022 199.794 42.4885C200.085 42.7749 200.212 43.115 200.176 43.5087C200.03 44.4752 199.485 45.4775 198.539 46.5156C197.629 47.5179 196.301 48.377 194.555 49.093C192.845 49.7731 190.79 50.1132 188.388 50.1132C186.06 50.1132 183.986 49.5941 182.167 48.556C180.348 47.4821 178.893 46.0145 177.801 44.1531C176.746 42.2917 176.11 40.1976 175.891 37.8708C175.819 36.7969 175.782 35.9736 175.782 35.4009C175.782 34.8281 175.819 34.0048 175.891 32.9309C176.11 30.7115 176.746 28.707 177.801 26.9171C178.893 25.1273 180.33 23.7134 182.113 22.6753C183.932 21.6372 186.024 21.1181 188.388 21.1181ZM196.083 33.092V32.9309C196.083 30.7473 195.374 29.0112 193.955 27.7226C192.572 26.3981 190.717 25.7359 188.388 25.7359C186.278 25.7359 184.477 26.3981 182.986 27.7226C181.53 29.047 180.785 30.7831 180.748 32.9309V33.092H196.083Z" fill="#0C0C0E"/>
<path d="M212.544 24.7694C213.417 23.6597 214.4 22.7827 215.491 22.1383C216.583 21.4582 218.038 21.1181 219.857 21.1181C224.114 21.1181 227.097 22.6753 228.807 25.7896C229.862 24.2861 231.062 23.1406 232.409 22.3531C233.755 21.5298 235.519 21.1181 237.702 21.1181C241.267 21.1181 243.905 22.1741 245.615 24.2861C247.361 26.3981 248.235 29.3871 248.235 33.2531V48.1265C248.235 48.5202 248.089 48.8603 247.798 49.1467C247.507 49.433 247.161 49.5762 246.761 49.5762H244.742C244.342 49.5762 243.996 49.433 243.705 49.1467C243.414 48.8603 243.268 48.5202 243.268 48.1265V33.79C243.268 28.4206 241.122 25.7359 236.829 25.7359C234.864 25.7359 233.3 26.3802 232.136 27.6689C230.971 28.9575 230.389 30.8726 230.389 33.4142V48.1265C230.389 48.5202 230.244 48.8603 229.953 49.1467C229.662 49.433 229.316 49.5762 228.916 49.5762H226.897C226.497 49.5762 226.151 49.433 225.86 49.1467C225.569 48.8603 225.423 48.5202 225.423 48.1265V33.79C225.423 28.4206 223.277 25.7359 218.984 25.7359C217.019 25.7359 215.455 26.3802 214.291 27.6689C213.126 28.9575 212.544 30.8726 212.544 33.4142V48.1265C212.544 48.5202 212.399 48.8603 212.108 49.1467C211.817 49.433 211.471 49.5762 211.071 49.5762H209.052C208.651 49.5762 208.306 49.433 208.015 49.1467C207.724 48.8603 207.578 48.5202 207.578 48.1265V23.1048C207.578 22.7111 207.724 22.371 208.015 22.0846C208.306 21.7983 208.651 21.6551 209.052 21.6551H211.071C211.471 21.6551 211.817 21.7983 212.108 22.0846C212.399 22.371 212.544 22.7111 212.544 23.1048V24.7694Z" fill="#0C0C0E"/>
<path d="M263.519 58.4895C263.191 59.3486 262.664 59.7782 261.936 59.7782H259.699C259.335 59.7782 259.025 59.6529 258.771 59.4023C258.516 59.1517 258.389 58.8475 258.389 58.4895C258.389 58.3463 258.407 58.221 258.443 58.1136L263.682 46.8915L252.877 23.3196C252.841 23.2122 252.822 23.0869 252.822 22.9437C252.822 22.5858 252.95 22.2815 253.204 22.0309C253.459 21.7804 253.768 21.6551 254.132 21.6551H256.37C257.097 21.6551 257.625 22.0846 257.952 22.9437L266.356 41.1999L274.87 22.9437C275.197 22.0846 275.725 21.6551 276.452 21.6551H278.69C279.054 21.6551 279.363 21.7804 279.617 22.0309C279.872 22.2815 279.999 22.5858 279.999 22.9437C279.999 23.0869 279.981 23.2122 279.945 23.3196L263.519 58.4895Z" fill="#0C0C0E"/>
<path d="M48.1742 31.8131L29.8499 0.731377C29.7612 0.5779 29.6327 0.450054 29.4774 0.360741C29.3221 0.271427 29.1455 0.223804 28.9654 0.222677C28.7853 0.22155 28.6081 0.266959 28.4517 0.354322C28.2953 0.441684 28.1652 0.567912 28.0745 0.720266L22.5865 10.0337C22.4068 10.3385 22.3122 10.6844 22.3122 11.0364C22.3122 11.3884 22.4068 11.7343 22.5865 12.0391L34.5351 32.3159C34.715 32.621 34.9739 32.8744 35.2856 33.0504C35.5973 33.2265 35.9508 33.319 36.3106 33.3186H47.2865C47.4662 33.3181 47.6426 33.2714 47.7981 33.1832C47.9535 33.095 48.0827 32.9683 48.1725 32.8159C48.2624 32.6636 48.3098 32.4907 48.3101 32.3148C48.3104 32.1388 48.2635 31.9658 48.1742 31.8131Z" fill="#363FF9"/>
<path d="M0.1413 48.0576L18.4656 16.9759C18.5555 16.8236 18.6848 16.6972 18.8404 16.6093C18.9959 16.5214 19.1723 16.4751 19.3519 16.4751C19.5315 16.4751 19.708 16.5214 19.8635 16.6093C20.0191 16.6972 20.1483 16.8236 20.2382 16.9759L25.729 26.2809C25.9087 26.5863 26.0033 26.9326 26.0033 27.285C26.0033 27.6375 25.9087 27.9838 25.729 28.2892L13.7803 48.5659C13.6011 48.871 13.3428 49.1245 13.0316 49.3005C12.7204 49.4766 12.3672 49.5691 12.0077 49.5686H1.02901C0.848158 49.5695 0.670298 49.5235 0.513509 49.4352C0.35672 49.3469 0.226614 49.2195 0.136418 49.066C0.0462218 48.9125 -0.000849128 48.7383 1.15957e-05 48.5612C0.00087232 48.384 0.0496154 48.2103 0.1413 48.0576Z" fill="#363FF9"/>
<path d="M20.2356 49.562H56.8843C57.064 49.5618 57.2406 49.5153 57.3962 49.4271C57.5518 49.3389 57.6809 49.2121 57.7706 49.0595C57.8603 48.9069 57.9074 48.7339 57.9072 48.5578C57.9069 48.3817 57.8593 48.2088 57.7692 48.0565L52.2869 38.7459C52.107 38.4407 51.8482 38.1873 51.5365 38.0113C51.2248 37.8353 50.8712 37.7428 50.5114 37.7431H26.6141C26.2543 37.7428 25.9008 37.8353 25.5891 38.0113C25.2774 38.1873 25.0186 38.4407 24.8387 38.7459L19.3508 48.0565C19.2606 48.2088 19.213 48.3817 19.2128 48.5578C19.2125 48.7339 19.2595 48.9069 19.3492 49.0595C19.4389 49.2121 19.5681 49.3389 19.7237 49.4271C19.8793 49.5153 20.0558 49.5618 20.2356 49.562Z" fill="#363FF9"/>
</svg>
