<?xml version="1.0" encoding="utf-8"?>
<!-- Generator: Adobe Illustrator 24.0.3, SVG Export Plug-In . SVG Version: 6.00 Build 0)  -->
<svg version="1.1" id="Layer_1" xmlns="http://www.w3.org/2000/svg" xmlns:xlink="http://www.w3.org/1999/xlink" x="0px" y="0px"
	 viewBox="0 0 300 300" style="enable-background:new 0 0 300 300;" xml:space="preserve">
<style type="text/css">
	.st0{fill:#686868;}
	.st1{fill:#FFFFFF;}
	.st2{fill:#FF5C00;}
</style>
<rect x="0.5" y="0.5" class="st0" width="299" height="299"/>
<g id="Layer">
	<path class="st1" d="M128.5,174.6v105.6h39.3V174.6H128.5z"/>
	<path class="st0" d="M228.6,63.2c-10-0.8-153.8-11.8-154.2-10.6c-0.3,0.9,0,122.7,0,122.7H116h149.2
		C265.2,175.3,288,67.9,228.6,63.2L228.6,63.2z"/>
	<path class="st1" d="M225.9,65.6c-9.5-0.8-146.4-11.2-146.8-10.1c-0.3,0.9,0,116.8,0,116.8h39.5h142.1
		C260.7,172.3,282.4,70.1,225.9,65.6L225.9,65.6z"/>
	<path class="st0" d="M74.3,52.5c-58.8,0.2-41.4,122.7-41.4,122.7H116C116,175.3,133.1,52.3,74.3,52.5L74.3,52.5z"/>
	<path class="st1" d="M74.3,55.7c-55.7,0.2-39.3,116.3-39.3,116.3h78.7C113.8,172.1,130,55.5,74.3,55.7L74.3,55.7z"/>
	<path class="st0" d="M61.4,122.3l-1.3-5.9h-7.4l-1.3,5.9h-7.4l8-32.6h9.3l8,32.6H61.4z M56.5,96.9h-0.2l-2.8,13.8h5.6L56.5,96.9z
		 M94.8,122.3L95,100h-0.2l-5.5,22.3h-5.3L78.7,100h-0.1l0.2,22.3h-6.7V89.8h9.4l5.3,21h0.2l5.2-21h9.9v32.6H94.8z"/>
	<path class="st0" d="M135.7,19.8l36,5l-0.1,23.7l-16.4,5.9l0,36.8L136.5,90L135.7,19.8z"/>
	<path class="st2" d="M137.6,23l32.1,3.6v20.1l-17.1,5.8v35.8l-13.9-0.6L137.6,23z"/>
	<path class="st0" d="M53.8,145.7c-0.5,0.8-1.1,1.5-1.9,1.9c-0.8,0.4-1.6,0.7-2.6,0.7c-1,0-1.9-0.2-2.7-0.7c-0.8-0.5-1.5-1.2-2-2
		c-0.5-0.9-1-1.9-1.3-3.1c-0.3-1.2-0.4-2.5-0.4-3.9c0-1.4,0.1-2.7,0.4-3.9c0.3-1.2,0.7-2.2,1.3-3.1c0.6-0.9,1.2-1.5,2-2
		c0.8-0.5,1.7-0.7,2.7-0.7c0.9,0,1.7,0.2,2.5,0.6c0.8,0.4,1.4,0.9,1.9,1.7l-1.2,1.2c-0.4-0.6-0.9-1.1-1.4-1.4
		c-0.5-0.3-1.1-0.4-1.7-0.4c-0.8,0-1.5,0.2-2,0.6c-0.6,0.4-1.1,1-1.4,1.7c-0.4,0.7-0.7,1.6-0.8,2.6c-0.2,1-0.3,2-0.3,3.1
		s0.1,2.1,0.3,3.1c0.2,1,0.5,1.8,0.9,2.6c0.4,0.7,0.9,1.3,1.4,1.7c0.6,0.4,1.3,0.6,2,0.6c0.7,0,1.3-0.2,1.8-0.6
		c0.5-0.4,1-0.9,1.4-1.5L53.8,145.7z M64.1,147.8l-1.1-4.6h-5.8l-1.2,4.6h-1.9l4.8-18.6h2.5l4.6,18.6H64.1z M60.2,130.9h-0.1
		l-2.6,10.8h5.3L60.2,130.9z M76.1,147.8l-3.4-8.6h-2.4v8.6h-1.8v-18.6h4.5c0.6,0,1.2,0.1,1.8,0.2c0.6,0.2,1.1,0.4,1.5,0.8
		c0.5,0.4,0.8,0.9,1.1,1.5c0.3,0.6,0.4,1.4,0.4,2.3c0,0.8-0.1,1.5-0.3,2c-0.2,0.6-0.5,1-0.8,1.4c-0.3,0.4-0.7,0.7-1.1,0.9
		c-0.4,0.2-0.8,0.3-1.2,0.4l3.7,8.9H76.1z M75.9,134.2c0-0.7-0.1-1.2-0.3-1.7c-0.2-0.4-0.4-0.8-0.7-1.1c-0.3-0.3-0.7-0.4-1.1-0.6
		c-0.4-0.1-0.8-0.2-1.2-0.2h-2.4v7h2.5c1,0,1.8-0.3,2.4-0.9C75.7,136.2,75.9,135.3,75.9,134.2L75.9,134.2z M91.9,138.5
		c0,1.5-0.2,2.9-0.5,4s-0.8,2.1-1.4,2.9c-0.6,0.8-1.3,1.4-2.2,1.8c-0.8,0.4-1.8,0.6-2.8,0.6h-4v-18.6h4.1c1,0,2,0.2,2.8,0.6
		c0.8,0.4,1.6,1,2.1,1.8c0.6,0.8,1,1.8,1.4,2.9C91.7,135.7,91.9,137,91.9,138.5L91.9,138.5z M90.1,138.5c0-1.3-0.1-2.5-0.4-3.4
		c-0.3-1-0.6-1.8-1.1-2.4c-0.5-0.6-1-1.1-1.6-1.4c-0.6-0.3-1.3-0.5-2-0.5h-2.2v15.4H85c0.7,0,1.4-0.2,2-0.5c0.6-0.3,1.1-0.8,1.6-1.4
		c0.5-0.6,0.8-1.4,1.1-2.4C89.9,141,90.1,139.8,90.1,138.5L90.1,138.5z M103.5,143c0,0.8-0.1,1.6-0.4,2.2c-0.2,0.6-0.6,1.2-1,1.6
		c-0.4,0.4-0.9,0.8-1.5,1c-0.6,0.2-1.2,0.4-1.9,0.4c-1,0-1.8-0.2-2.6-0.6c-0.8-0.4-1.5-0.9-2-1.6l1.1-1.3c0.4,0.6,0.9,1,1.5,1.3
		c0.6,0.3,1.2,0.5,1.9,0.5c0.8,0,1.6-0.3,2.1-0.9c0.6-0.6,0.9-1.4,0.9-2.5c0-0.5-0.1-1-0.3-1.4c-0.2-0.4-0.4-0.8-0.7-1.1
		c-0.3-0.3-0.6-0.6-1-0.8c-0.4-0.2-0.8-0.5-1.2-0.7c-0.5-0.2-1-0.5-1.5-0.8c-0.5-0.3-0.9-0.7-1.2-1.1c-0.3-0.4-0.6-0.9-0.8-1.4
		c-0.2-0.6-0.3-1.2-0.3-1.9c0-0.9,0.1-1.6,0.4-2.2c0.3-0.6,0.6-1.2,1.1-1.6c0.5-0.4,1-0.7,1.5-1c0.6-0.2,1.2-0.3,1.8-0.3
		c0.8,0,1.6,0.1,2.3,0.4c0.7,0.3,1.3,0.7,1.7,1.4l-1.1,1.3c-0.4-0.5-0.8-0.9-1.2-1.1c-0.5-0.2-1-0.3-1.6-0.3c-0.4,0-0.7,0.1-1.1,0.2
		c-0.4,0.1-0.7,0.3-1,0.6c-0.3,0.3-0.5,0.6-0.7,1.1c-0.2,0.4-0.3,1-0.3,1.5c0,0.5,0.1,1,0.2,1.4c0.2,0.4,0.4,0.7,0.7,1
		c0.3,0.3,0.6,0.6,1,0.8c0.4,0.2,0.7,0.4,1.1,0.6c0.5,0.2,1,0.5,1.5,0.8c0.5,0.3,0.9,0.7,1.3,1.1c0.4,0.4,0.7,0.9,0.9,1.5
		C103.4,141.6,103.5,142.3,103.5,143L103.5,143z"/>
</g>
</svg>
