<?xml version="1.0" encoding="UTF-8"?>
<!-- Generator: visioncortex VTracer 0.6.3 -->
<svg version="1.1" xmlns="http://www.w3.org/2000/svg" width="195" height="210">
<path d="M0 0 C64.35 0 128.7 0 195 0 C195 69.3 195 138.6 195 210 C130.65 210 66.3 210 0 210 C0 140.7 0 71.4 0 0 Z " fill="transparent" transform="translate(0,0)"/>
<path d="M0 0 C3.23 1.28 4.53 2.45 6.75 5.06 C7.97 7.92 8.19 9.64 8.38 12.69 C8.92 19.41 11.03 25.16 15.98 29.89 C20.73 33.36 25.24 34.84 31.03 35.68 C33 36 33 36 34 37 C34.1 38.5 34.13 40 34.12 41.5 C34.13 42.72 34.13 42.72 34.13 43.97 C34 46 34 46 33 47 C29.9 47.1 26.82 47.14 23.72 47.13 C22.75 47.13 21.77 47.13 20.77 47.13 C17.54 47.14 14.3 47.14 11.06 47.13 C8.82 47.13 6.59 47.13 4.35 47.14 C-0.35 47.14 -5.05 47.14 -9.75 47.13 C-15.78 47.12 -21.82 47.13 -27.85 47.13 C-32.48 47.14 -37.1 47.14 -41.73 47.13 C-43.95 47.13 -46.18 47.13 -48.41 47.14 C-51.51 47.14 -54.62 47.13 -57.72 47.13 C-58.65 47.13 -59.58 47.13 -60.54 47.14 C-66.89 47.11 -66.89 47.11 -68 46 C-68.1 44.5 -68.13 43 -68.12 41.5 C-68.13 40.69 -68.13 39.87 -68.13 39.03 C-68 37 -68 37 -67 36 C-64.3 35.93 -61.63 35.91 -58.94 35.94 C-57.8 35.94 -57.8 35.94 -56.64 35.95 C-54.76 35.96 -52.88 35.98 -51 36 C-51.02 35.2 -51.04 34.39 -51.06 33.56 C-51 31 -51 31 -50 30 C-48.16 29.9 -46.31 29.87 -44.47 29.87 C-43.35 29.87 -42.23 29.86 -41.07 29.86 C-39.89 29.87 -38.72 29.87 -37.5 29.88 C-35.73 29.87 -35.73 29.87 -33.93 29.86 C-32.25 29.87 -32.25 29.87 -30.53 29.87 C-29.5 29.87 -28.46 29.87 -27.39 29.87 C-25 30 -25 30 -24 31 C-23.96 32.67 -23.96 34.33 -24 36 C-22.02 36 -20.04 36 -18 36 C-18 29.73 -18 23.46 -18 17 C-20.73 17.01 -23.46 17.02 -26.28 17.04 C-28.91 17.04 -31.55 17.05 -34.18 17.05 C-36.02 17.06 -37.85 17.07 -39.69 17.08 C-42.32 17.09 -44.96 17.09 -47.59 17.1 C-48.83 17.11 -48.83 17.11 -50.09 17.11 C-52.06 17.11 -54.03 17.06 -56 17 C-57 16 -57 16 -57.12 12.5 C-57 9 -57 9 -56 8 C-53.12 7.91 -50.26 7.88 -47.37 7.9 C-46.07 7.9 -46.07 7.9 -44.75 7.91 C-41.98 7.91 -39.21 7.92 -36.44 7.94 C-34.56 7.94 -32.69 7.95 -30.81 7.95 C-26.21 7.96 -21.6 7.98 -17 8 C-16.7 7.39 -16.4 6.77 -16.09 6.14 C-12.44 -1.04 -7.44 -0.91 0 0 Z " fill="#4C4C4C" transform="translate(115,93)"/>
<path d="M0 0 C7.92 2.46 15.42 5.67 23 9 C22.67 11.97 22.34 14.94 22 18 C22.98 18.64 22.98 18.64 23.98 19.29 C34.07 26.06 40.11 33.34 44 45 C44.83 56.83 43.84 66.89 37 77 C36.34 77 35.68 77 35 77 C34.41 75.17 34.41 75.17 33.81 73.31 C31.76 67.87 28.79 64.98 23.69 62.19 C22.8 61.8 21.91 61.4 21 61 C21.03 60.2 21.07 59.41 21.11 58.59 C21.42 50.33 21.42 50.33 18 43 C15.45 40.66 15.45 40.66 13 39 C12.34 39.99 11.68 40.98 11 42 C10.34 42.99 9.68 43.98 9 45 C3.73 44.4 -0.54 42.66 -5.31 40.5 C-6.4 40.02 -6.4 40.02 -7.52 39.53 C-12.85 37.15 -12.85 37.15 -14 36 C-13.57 31.17 -12.47 27.18 -10.57 22.73 C-10.08 21.6 -9.6 20.46 -9.1 19.29 C-8.59 18.12 -8.09 16.95 -7.56 15.75 C-7.06 14.57 -6.56 13.38 -6.04 12.16 C-2.3 3.45 -2.3 3.45 0 0 Z " fill="#4D4D4D" transform="translate(94,26)"/>
<path d="M0 0 C0.94 0 1.88 0.01 2.85 0.01 C4.33 0.01 4.33 0.01 5.84 0.01 C9.11 0.01 12.38 0.02 15.66 0.03 C17.92 0.03 20.18 0.03 22.45 0.03 C28.42 0.03 34.39 0.04 40.35 0.06 C46.44 0.07 52.53 0.07 58.61 0.08 C70.56 0.09 82.51 0.1 94.47 0.12 C94.47 3.42 94.47 6.72 94.47 10.12 C93.67 10.29 92.87 10.46 92.05 10.64 C83.5 12.6 77.69 14.74 72.47 22.12 C71.48 23.77 70.49 25.42 69.47 27.12 C60.56 26.79 51.65 26.46 42.47 26.12 C42.47 20.84 42.47 15.56 42.47 10.12 C40.16 10.12 37.85 10.12 35.47 10.12 C35.47 12.43 35.47 14.74 35.47 17.12 C27.22 17.12 18.97 17.12 10.47 17.12 C10.47 14.81 10.47 12.5 10.47 10.12 C4.53 10.12 -1.41 10.12 -7.53 10.12 C-7.53 0.01 -7.53 0.01 0 0 Z " fill="#D1D1D1" transform="translate(54.53401184082031,146.87557983398438)"/>
<path d="M0 0 C8.58 0 17.16 0 26 0 C27.45 5.81 26.99 10.06 24.31 15.31 C20.78 19.41 17.8 20.81 12.44 21.38 C7.78 20.87 5.26 19.26 2 16 C2 15.01 2 14.02 2 13 C0.24 13.01 0.24 13.01 -1.55 13.02 C-5.88 13.03 -10.22 13.05 -14.55 13.05 C-16.43 13.06 -18.31 13.07 -20.19 13.08 C-22.88 13.09 -25.58 13.09 -28.27 13.1 C-29.12 13.1 -29.96 13.11 -30.83 13.11 C-36.77 13.11 -36.77 13.11 -39 12 C-39 9.36 -39 6.72 -39 4 C-26.13 4 -13.26 4 0 4 C0 2.68 0 1.36 0 0 Z " fill="#E7E7E7" transform="translate(97,173)"/>
<path d="M0 0 C3.95 0.63 7.2 1.86 10.81 3.56 C12.28 4.25 12.28 4.25 13.77 4.94 C14.51 5.29 15.24 5.64 16 6 C15.52 7.46 15.04 8.92 14.56 10.38 C14.3 11.19 14.03 12 13.75 12.84 C13 15 13 15 12 17 C6.03 16.49 1.36 14.61 -4 12 C-3.46 7.44 -2.21 4.03 0 0 Z " fill="#4E4E4E" transform="translate(80,70)"/>
<path d="M0 0 C3.66 0.63 6.88 1.64 10.31 3.06 C11.2 3.42 12.08 3.79 12.99 4.16 C13.98 4.58 13.98 4.58 15 5 C14.52 9.71 14.03 13.67 12 18 C6.53 16.25 1.24 14.34 -4 12 C-3.46 7.44 -2.21 4.03 0 0 Z " fill="#4E4E4E" transform="translate(105,10)"/>
<path d="M0 0 C0.99 0.99 1.98 1.98 3 3 C2.34 4.98 1.68 6.96 1 9 C-1.47 8.01 -1.47 8.01 -4 7 C-4.12 7.78 -4.25 8.57 -4.38 9.38 C-5 12 -5 12 -7 14 C-11.56 13.44 -11.56 13.44 -13 12 C-13.19 9.56 -13.19 9.56 -13 7 C-12.34 6.34 -11.68 5.68 -11 5 C-10.01 5 -9.02 5 -8 5 C-8 4.34 -8 3.68 -8 3 C-7.34 3 -6.68 3 -6 3 C-6 2.34 -6 1.68 -6 1 C-4.79 1.03 -4.79 1.03 -3.56 1.06 C-1.07 1.3 -1.07 1.3 0 0 Z " fill="#4F4F4F" transform="translate(119,96)"/>
<path d="M0 0 C4.56 0.56 4.56 0.56 6 2 C6.19 4.44 6.19 4.44 6 7 C5.34 7.66 4.68 8.32 4 9 C-0.56 8.44 -0.56 8.44 -2 7 C-2.19 4.56 -2.19 4.56 -2 2 C-1.34 1.34 -0.68 0.68 0 0 Z " fill="#F1F1F1" transform="translate(108,101)"/>
<path d="M0 0 C2.62 0.38 2.62 0.38 5 1 C6.12 5.75 6.12 5.75 5 8 C3.02 8 1.04 8 -1 8 C-1.62 5.12 -1.62 5.12 -2 2 C-1.34 1.34 -0.68 0.68 0 0 Z " fill="#FDFDFD" transform="translate(108,177)"/>
</svg>