<?xml version="1.0" encoding="UTF-8"?>
<svg version="1.1" xmlns="http://www.w3.org/2000/svg" width="350" height="210">
<path d="M0 0 C115.5 0 231 0 350 0 C350 69.3 350 138.6 350 210 C234.5 210 119 210 0 210 C0 140.7 0 71.4 0 0 Z " fill="#FEFDFE" transform="translate(0,0)"/>
<path d="M0 0 C4.21191453 4.76129469 7.0629859 10.22045019 10.125 15.75 C11.29178925 17.83659749 12.45976681 19.92253093 13.62890625 22.0078125 C14.2027002 23.03165039 14.77649414 24.05548828 15.36767578 25.11035156 C17.5519625 28.97712058 19.79592715 32.80604996 22.0625 36.625 C25.623318 42.6330294 29.11105121 48.67849858 32.5625 54.75 C37.80289281 63.96414224 43.16046053 73.10703796 48.53640747 82.24237061 C53.98403964 91.50463387 59.32431035 100.82075821 64.58056641 110.19335938 C68.09678459 116.44891757 71.7121967 122.63350356 75.46289062 128.75146484 C78 132.90386719 78 132.90386719 78 134 C39.06 134 0.12 134 -40 134 C-35.68231585 125.3646317 -31.4123224 117.01104467 -26.5 108.75 C-25.28312203 106.68532717 -24.06700495 104.62020573 -22.8515625 102.5546875 C-22.22540039 101.49217773 -21.59923828 100.42966797 -20.95410156 99.33496094 C-18.91831816 95.86059796 -16.90390886 92.37471999 -14.8984375 88.8828125 C-14.56076355 88.29516113 -14.2230896 87.70750977 -13.87518311 87.10205078 C-12.23929778 84.25394991 -10.60579178 81.40450813 -8.97460938 78.55371094 C-6.124407 73.59299418 -3.26757011 68.69814807 0 64 C3.19146552 67.80382346 5.81572676 71.72764213 8.3125 76 C8.68439453 76.60328125 9.05628906 77.2065625 9.43945312 77.828125 C12.05740315 82.31325353 12.05740315 82.31325353 11.80566406 85.32495117 C10.82016721 88.59709935 9.34975051 91.22689618 7.62109375 94.17578125 C7.01450928 95.21903564 6.4079248 96.26229004 5.78295898 97.3371582 C5.00895752 98.649021 4.23495605 99.96088379 3.4375 101.3125 C0.983125 105.499375 -1.47125 109.68625 -4 114 C11.18 114.33 26.36 114.66 42 115 C34.4958259 101.5231159 26.94169301 88.09951685 19.14135742 74.79248047 C15.11730992 67.92554801 11.13466666 61.03641844 7.1875 54.125 C6.67751465 53.23264648 6.1675293 52.34029297 5.64208984 51.42089844 C2.13682848 45.27365695 2.13682848 45.27365695 1 43 C-3.33751396 44.44583799 -4.29362672 47.71842799 -6.3125 51.5625 C-7.20844659 53.2213998 -8.10702299 54.87888118 -9.0078125 56.53515625 C-9.49024414 57.42348145 -9.97267578 58.31180664 -10.46972656 59.22705078 C-13.12291075 64.03478307 -15.90757042 68.76478848 -18.6875 73.5 C-25.52918942 85.18018149 -32.30017921 96.89996205 -39.05615234 108.62988281 C-40.74267868 111.55387296 -42.43247002 114.47591784 -44.12464905 117.39663696 C-45.50249503 119.7748599 -46.87908785 122.1538072 -48.25564575 124.53277588 C-49.22450333 126.20596792 -50.19511391 127.8781445 -51.16577148 129.55029297 C-51.75559814 130.57010254 -52.3454248 131.58991211 -52.953125 132.640625 C-53.47036133 133.53297852 -53.98759766 134.42533203 -54.52050781 135.34472656 C-56.10170245 138.18252736 -57.54718963 141.09437926 -59 144 C-7.85 144 43.3 144 96 144 C88.21642004 130.10075007 80.46839319 116.31224048 72.3359375 102.63671875 C64.72322842 89.81257945 57.33312043 76.85533482 49.94921875 63.8984375 C49.44368973 63.01187721 49.44368973 63.01187721 48.927948 62.10740662 C47.24196756 59.15032486 45.55814047 56.19205347 43.87792969 53.23168945 C40.6797211 47.61427241 37.43758321 42.03515837 34.06640625 36.51953125 C33.45361816 35.51116211 32.84083008 34.50279297 32.20947266 33.46386719 C31.05914696 31.5803634 29.89670877 29.7041842 28.72021484 27.83691406 C28.21312988 27.00514648 27.70604492 26.17337891 27.18359375 25.31640625 C26.51154907 24.24048218 26.51154907 24.24048218 25.82592773 23.14282227 C24.74993784 20.35122803 25.12760084 18.82968677 26 16 C27.27960237 13.72208717 28.57578811 11.55613569 30 9.375 C32.90683659 4.89917129 32.90683659 4.89917129 35 0 C35.66 0 36.32 0 37 0 C37.6084375 1.13050781 38.216875 2.26101562 38.84375 3.42578125 C44.61184066 14.0641047 50.63447269 24.52188513 56.84170532 34.90991211 C61.75516576 43.13925898 66.53506382 51.43197865 71.1875 59.8125 C75.98434427 68.45207539 80.91030445 76.99676105 85.96777344 85.48608398 C90.37558719 92.90121558 94.67026324 100.37842719 98.9375 107.875 C104.05388472 116.86313568 109.21151792 125.82492774 114.4375 134.75 C118.45861489 141.62239945 122.4606347 148.50361723 126.375 155.4375 C126.75068115 156.10040039 127.1263623 156.76330078 127.51342773 157.44628906 C130 161.8772803 130 161.8772803 130 163 C56.41 163 -17.18 163 -93 163 C-91.57181199 158.71543596 -90.48701477 155.8089992 -88.26953125 152.078125 C-87.44787476 150.68424561 -87.44787476 150.68424561 -86.60961914 149.26220703 C-86.01656982 148.26817871 -85.42352051 147.27415039 -84.8125 146.25 C-83.53580222 144.08632451 -82.25978329 141.92224834 -80.984375 139.7578125 C-80.32501953 138.64180664 -79.66566406 137.52580078 -78.98632812 136.37597656 C-75.81074644 130.9787367 -72.6862344 125.55236 -69.5625 120.125 C-68.30341652 117.94008624 -67.04430177 115.75519051 -65.78515625 113.5703125 C-65.16012207 112.48524414 -64.53508789 111.40017578 -63.89111328 110.28222656 C-60.76319852 104.85340058 -57.63141552 99.42680719 -54.5 94 C-53.24998121 91.83334417 -51.99998122 89.6666775 -50.75 87.5 C-43.25 74.5 -35.75 61.5 -28.25 48.5 C-27.63020264 47.42564697 -27.01040527 46.35129395 -26.37182617 45.24438477 C-25.13253733 43.09635954 -23.89311859 40.94840925 -22.65356445 38.80053711 C-19.71797433 33.71344451 -16.78374328 28.62558153 -13.85409546 23.5350647 C-12.46671905 21.12456252 -11.07860376 18.71448624 -9.69042969 16.30444336 C-8.70826185 14.59856032 -7.72716615 12.89206014 -6.74609375 11.18554688 C-6.153125 10.15623047 -5.56015625 9.12691406 -4.94921875 8.06640625 C-4.42674561 7.15834229 -3.90427246 6.25027832 -3.3659668 5.31469727 C-2.30022034 3.50873799 -1.16319248 1.74478871 0 0 Z " fill="#E44B7F" transform="translate(156,21)"/>
<path d="M0 0 C2.76390737 2.40339772 3.04065919 3.16263678 4 7 C-47.15 7 -98.3 7 -151 7 C-150.67 5.35 -150.34 3.7 -150 2 C-149.01 3.485 -149.01 3.485 -148 5 C-145.32855379 5.44884961 -145.32855379 5.44884961 -142.14083862 5.36076355 C-140.26877243 5.36694954 -140.26877243 5.36694954 -138.35888672 5.3732605 C-136.96825958 5.36264236 -135.5776346 5.35173792 -134.18701172 5.34057617 C-132.72860736 5.33973033 -131.27020171 5.34020421 -129.8117981 5.34190369 C-125.84498971 5.34276674 -121.8784518 5.32509115 -117.91170645 5.30418181 C-113.7690425 5.28546642 -109.6263728 5.28366864 -105.4836731 5.28010559 C-97.63550135 5.27076997 -89.78745452 5.24613576 -81.93933785 5.21605712 C-73.00598449 5.1825602 -64.07262526 5.16603897 -55.13922477 5.15097082 C-36.75941228 5.11958746 -18.37971617 5.0667976 0 5 C0 3.35 0 1.7 0 0 Z " fill="#FEDCF5" transform="translate(248,158)"/>
<path d="M0 0 C0.75 1.6875 0.75 1.6875 1 4 C-0.28062485 5.7074998 -1.62631655 7.36643049 -3 9 C-3.65724586 10.23335026 -4.28029311 11.48530687 -4.875 12.75 C-7.12947561 17.47538087 -10.01901197 21.70737724 -13 26 C-13.33 25.34 -13.66 24.68 -14 24 C-12.93603516 21.67749023 -12.93603516 21.67749023 -11.2890625 18.80859375 C-10.70382813 17.78185547 -10.11859375 16.75511719 -9.515625 15.69726562 C-8.89171875 14.62154297 -8.2678125 13.54582031 -7.625 12.4375 C-7.00882813 11.35791016 -6.39265625 10.27832031 -5.7578125 9.16601562 C-1.1800787 1.1800787 -1.1800787 1.1800787 0 0 Z " fill="#D55A84" transform="translate(148,35)"/>
<path d="M0 0 C0.66 0 1.32 0 2 0 C3.03046722 1.78614318 4.04913236 3.57910018 5.0625 5.375 C5.63097656 6.37273438 6.19945312 7.37046875 6.78515625 8.3984375 C7.38650391 9.68621094 7.38650391 9.68621094 8 11 C7.67 11.66 7.34 12.32 7 13 C6.16094435 11.87926138 5.32892169 10.75325453 4.5 9.625 C4.0359375 8.99851562 3.571875 8.37203125 3.09375 7.7265625 C2 6 2 6 2 4 C1.566875 4.433125 1.13375 4.86625 0.6875 5.3125 C-0.875 6.875 -2.4375 8.4375 -4 10 C-2.8905928 6.51329166 -1.73662334 3.22515763 0 0 Z " fill="#D25E86" transform="translate(191,21)"/>
<path d="M0 0 C0.33 0.66 0.66 1.32 1 2 C0.328125 3.875 0.328125 3.875 -0.75 6 C-1.26820313 7.051875 -1.26820313 7.051875 -1.796875 8.125 C-3 10 -3 10 -6 12 C-4.68139111 7.38486888 -2.78644563 3.90102388 0 0 Z " fill="#D55B84" transform="translate(133,61)"/>
<path d="M0 0 C0.99 0.99 1.98 1.98 3 3 C1.60804085 5.7839183 -0.15575779 5.97898997 -3 7 C-1.125 1.125 -1.125 1.125 0 0 Z " fill="#D25D85" transform="translate(156,21)"/>
</svg>
