<?xml version="1.0" encoding="utf-8"?>
<!-- Generator: Adobe Illustrator 24.2.0, SVG Export Plug-In . SVG Version: 6.00 Build 0)  -->
<svg version="1.1" id="Layer_1" xmlns="http://www.w3.org/2000/svg" xmlns:xlink="http://www.w3.org/1999/xlink" x="0px" y="0px"
	 viewBox="0 0 1000 1000" style="enable-background:new 0 0 1000 1000;" xml:space="preserve">
<style type="text/css">
	.st0{fill:#283443;}
	.st1{fill:url(#SVGID_1_);}
</style>
<g>
	<path class="st0" d="M204.3,715.1c-24,0-43.4-19.9-43.4-44.4c0-24.5,19.5-44.4,43.5-44.4c24,0,43.4,19.9,43.4,44.4
		C247.7,695.2,228.3,715.1,204.3,715.1L204.3,715.1z M247.9,720.7c0,4.1,7,15.5,15.5,15.5h5.5c2.1,0,3.9-1.8,3.9-3.9V610.8h0
		c-0.1-2.1-1.8-3.7-3.9-3.7h-17.1c-2.1,0-3.8,1.6-3.9,3.7h0v9.9c-10.5-12.9-27.1-18.3-43.7-18.3c-37.7,0-68.3,30.6-68.3,68.3
		c0,37.7,30.6,68.3,68.3,68.3C220.8,739,238.9,732.6,247.9,720.7L247.9,720.7L247.9,720.7z M313.7,703.3
		c11.4,7.9,23.9,11.8,35.9,11.8c11.4,0,23.2-5.9,23.2-16.2c0-13.8-25.8-15.9-41.9-21.4c-16.2-5.5-30.1-16.9-30.1-35.3
		c0-28.2,25.1-39.8,48.5-39.8c14.8,0,30.2,4.9,40.1,11.9c3.4,2.6,1.3,5.6,1.3,5.6l-9.5,13.5c-1.1,1.5-3.3,2.7-5.6,1.2
		c-6.4-4.2-13.5-8.3-26.3-8.3c-15.9,0-22.9,6.6-22.9,14.8c0,9.8,11.2,12.9,24.3,16.2c22.8,6.2,47.8,13.6,47.8,41.6
		c0,24.8-23.2,40.2-48.9,40.2c-19.4,0-36-5.5-49.9-15.7c-2.9-2.9-0.9-5.6-0.9-5.6l9.4-13.5C310.3,701.7,312.7,702.6,313.7,703.3
		L313.7,703.3z M527.1,720.7c0,4.1,7,15.5,15.5,15.5h5.5c2.1,0,3.9-1.8,3.9-3.9V610.8h0c-0.1-2.1-1.8-3.7-3.9-3.7H531
		c-2.1,0-3.8,1.6-3.9,3.7h0v9.9c-10.5-12.9-27.1-18.3-43.7-18.3c-37.7,0-68.3,30.6-68.3,68.3c0,37.7,30.6,68.3,68.3,68.3
		C500,739,518.1,732.6,527.1,720.7L527.1,720.7L527.1,720.7z M483.5,715.1c-24,0-43.5-19.9-43.5-44.4c0-24.5,19.5-44.4,43.5-44.4
		c24,0,43.4,19.9,43.4,44.4C526.9,695.2,507.5,715.1,483.5,715.1L483.5,715.1z M705.5,724.9l0-62.9c0-35.5-22.4-59.4-58-59.4
		c-17,0-30.9,9.8-35.9,18.3v-0.1l0,0.1c0-8.6-7-13.5-15.5-13.5h-5.5c-2.1,0-3.9,1.8-3.9,3.9v121.5h0c0.1,2,1.8,3.7,3.9,3.7h17.1
		c0.3,0,0.5,0,0.8-0.1c0.1,0,0.2-0.1,0.3-0.1c0.1,0,0.3-0.1,0.4-0.1c0.2-0.1,0.3-0.1,0.4-0.2c0.1,0,0.1-0.1,0.2-0.1
		c0.2-0.1,0.3-0.2,0.5-0.4c0,0,0.1,0,0.1-0.1c0.7-0.7,1.1-1.6,1.2-2.6h0V661c0-19,15.4-34.5,34.5-34.5c19,0,34.5,15.4,34.5,34.5
		l0,60l0,0c0,0.1,0,0.1,0,0.2v11.6h0c0.1,2,1.8,3.7,3.9,3.7h17.1c0.3,0,0.5,0,0.8-0.1c0.1,0,0.2-0.1,0.3-0.1c0.1,0,0.3-0.1,0.4-0.1
		c0.1-0.1,0.3-0.1,0.4-0.2c0.1,0,0.2-0.1,0.2-0.1c0.2-0.1,0.3-0.2,0.4-0.4c0,0,0.1-0.1,0.1-0.1c0.2-0.2,0.3-0.3,0.4-0.5
		c0.5-0.6,0.7-1.3,0.8-2.1l0,0h0L705.5,724.9L705.5,724.9z M839.2,720.7c0,4.1,7,15.5,15.5,15.5h5.5c2.1,0,3.9-1.8,3.9-3.9V610.8h0
		c-0.1-2.1-1.8-3.7-3.9-3.7h-17.1c-2.1,0-3.8,1.6-3.9,3.7h0v9.9c-10.5-12.9-27.1-18.3-43.7-18.3c-37.7,0-68.3,30.6-68.3,68.3
		c0,37.7,30.6,68.3,68.3,68.3C812.1,739,830.2,732.6,839.2,720.7L839.2,720.7L839.2,720.7z M795.6,715.1c-24,0-43.5-19.9-43.5-44.4
		c0-24.5,19.5-44.4,43.5-44.4c24,0,43.4,19.9,43.4,44.4C839,695.2,819.6,715.1,795.6,715.1L795.6,715.1z"/>
	
		<radialGradient id="SVGID_1_" cx="-99.1918" cy="1100.4286" r="0.1931" gradientTransform="matrix(944.8934 0 0 -873.3772 94226.8125 961489.3125)" gradientUnits="userSpaceOnUse">
		<stop  offset="0" style="stop-color:#FDB813"/>
		<stop  offset="0.6" style="stop-color:#F05E8F"/>
		<stop  offset="0.9991" style="stop-color:#F15756"/>
	</radialGradient>
	<path class="st1" d="M578.9,395.7c-33.1,0-59.9,26.8-59.9,59.9c0,33.1,26.8,59.9,59.9,59.9c33.1,0,59.9-26.8,59.9-59.9
		C638.8,422.5,612,395.7,578.9,395.7L578.9,395.7z M423.3,395.7c-33.1,0-59.9,26.8-59.9,59.9c0,33.1,26.8,59.9,59.9,59.9
		c33.1,0,59.9-26.8,59.9-59.9C483.2,422.5,456.4,395.7,423.3,395.7L423.3,395.7z M561,320.9c0,33.1-26.8,59.9-59.9,59.9
		c-33.1,0-59.9-26.8-59.9-59.9S468,261,501.1,261C534.2,261,561,287.8,561,320.9L561,320.9z"/>
</g>
</svg>
