<?xml version="1.0" encoding="UTF-8"?><svg id="a" xmlns="http://www.w3.org/2000/svg" xmlns:xlink="http://www.w3.org/1999/xlink" viewBox="0 0 512 512"><defs><clipPath id="b"><path d="m232,416c-101.458,0-184-82.542-184-184S130.542,48,232,48s184,82.542,184,184-82.542,184-184,184Zm0-336c-83.813,0-152,68.187-152,152s68.187,152,152,152,152-68.187,152-152-68.187-152-152-152Z" fill="none" stroke-width="0"/></clipPath></defs><path d="m304,399.833c-8.836,0-16-7.164-16-16v-127.833c0-8.836,7.164-16,16-16s16,7.164,16,16v127.833c0,8.836-7.164,16-16,16Z" fill="#34a853" stroke-width="0"/><path d="m160,399.833c-8.836,0-16-7.164-16-16v-175.833c0-8.836,7.164-16,16-16s16,7.164,16,16v175.833c0,8.836-7.164,16-16,16Z" fill="#34a853" stroke-width="0"/><path d="m232,416c-8.836,0-16-7.164-16-16v-240c0-8.836,7.164-16,16-16s16,7.164,16,16v240c0,8.836-7.164,16-16,16Z" fill="#34a853" stroke-width="0"/><path d="m232,416c-101.458,0-184-82.542-184-184h32c0,83.813,68.187,152,152,152s152-68.187,152-152h32c0,101.458-82.542,184-184,184Z" fill="#fbbc04" stroke-width="0"/><path d="m416,232h-32c0-83.813-68.187-152-152-152S80,148.187,80,232h-32c0-101.458,82.542-184,184-184s184,82.542,184,184Z" fill="#ea4335" stroke-width="0"/><path d="m448,464c-4.095,0-8.189-1.562-11.313-4.686l-97.206-97.206c-6.249-6.248-6.249-16.379,0-22.627s16.379-6.249,22.627,0l97.206,97.206c6.249,6.249,6.249,16.379,0,22.627-3.125,3.125-7.219,4.687-11.314,4.687Z" fill="#4285f4" stroke-width="0"/><path d="m362.107,362.107l-22.627-22.627c59.265-59.265,59.265-155.695,0-214.96l22.627-22.627c34.753,34.753,53.893,80.959,53.893,130.107s-19.14,95.354-53.893,130.107Z" fill="#4285f4" stroke-width="0"/><g clip-path="url(#b)"><path d="m448,464c-4.095,0-8.189-1.562-11.313-4.687l-144-143.999c-6.249-6.249-6.249-16.379,0-22.627,6.248-6.249,16.379-6.249,22.627,0l144,144c6.249,6.248,6.249,16.379,0,22.627-3.124,3.125-7.219,4.687-11.313,4.687Z" fill="#4285f4" stroke-width="0"/></g></svg>