<svg xmlns="http://www.w3.org/2000/svg" id="Layer_1" data-name="Layer 1" viewBox="0 0 513.18 520.4"><defs><style>.cls-2{fill:#4b3e58}</style></defs><g id="Group_107" data-name="Group 107"><path id="Path_37" d="M257.84 19.2c133.31 0 241.38 108.07 241.38 241.38S391.15 502 257.84 502 16.47 393.89 16.47 260.58 124.53 19.2 257.84 19.2Z" data-name="Path 37" style="fill:#fff"/><g id="Group_14" data-name="Group 14"><path id="Path_17" d="M325.68 142.09c16.51-1 33.73-1.4 49.33 5 17.51 6.9 34.2 18.72 42.8 35.91 16.06 29.44 22.7 64.19 17.17 97.34-3.74 15.26-10 31.36-23.22 40.83-10 7.19-22.3 11.59-34.71 11.18-16.9.5-33.63-1.95-50.35-3.86-23.8-1.36-47.46-5.8-71.37-4.33-27.23 1.58-54.46 2.95-81.58 5.9-14.45 1.54-29 2.58-43.56 1.61a56.31 56.31 0 0 1-33.93-20.24c-16.9-24.23-19.35-55.4-15.49-83.93 4.47-26 15.22-53.46 38-68.62 18.31-11.24 40.29-14.85 61.43-15.72 32-1.6 63.51 8.26 95.45 4.13 16.53-2.85 33.27-4.06 50-5.23m-7 43.37a22.6 22.6 0 0 0-11.22 8.25c-10.62 14.95-7.35 38.31 7.57 49.22 7.28 5.85 19 4.85 25.2-2.11 11.57-12.63 11.34-33.75.36-46.68-5-6.58-13.61-11.07-21.91-8.68m-141.44 1.33c-21.1 5.22-27.5 33.08-17.61 50.43 4.77 9.2 17.35 14.74 26.7 8.93 18.53-10.61 20.62-39.42 6.22-54.34-4.09-3.51-9.83-6.28-15.31-5Z" class="cls-2" data-name="Path 17"/><path id="Ellipse_2" d="M256.59 36.14c-121.75 0-220.44 100.31-220.44 224.06s98.7 224.06 220.44 224.06S477 383.94 477 260.2 378.34 36.14 256.59 36.14m0-36.14a251.8 251.8 0 0 1 100.08 20.55 255.28 255.28 0 0 1 81.56 55.87 263.29 263.29 0 0 1 54.85 284.88 259.66 259.66 0 0 1-54.85 82.7A254.1 254.1 0 0 1 75 444a263.31 263.31 0 0 1-54.89-284.9A259.46 259.46 0 0 1 75 76.42a255.28 255.28 0 0 1 81.56-55.87A251.8 251.8 0 0 1 256.59 0Z" class="cls-2" data-name="Ellipse 2"/></g></g></svg>