<?xml version="1.0" encoding="UTF-8"?>
<svg id="Layer_1" data-name="Layer 1" xmlns="http://www.w3.org/2000/svg" xmlns:xlink="http://www.w3.org/1999/xlink" viewBox="0 0 800 800">
  <defs>
    <style>
      .cls-1 {
        fill: url(#linear-gradient);
      }

      .cls-2 {
        fill: #101c37;
      }
    </style>
    <linearGradient id="linear-gradient" x1="247.15" y1="800" x2="247.15" y2="0" gradientUnits="userSpaceOnUse">
      <stop offset="0" stop-color="#0093ff"/>
      <stop offset="1" stop-color="#00eccd"/>
    </linearGradient>
  </defs>
  <path class="cls-1" d="M494.3,400c0-29.23-13.35-55.29-34.27-72.52-23.62-19.45-36.35-49.17-36.35-79.76v-1.24c0-30.63,12.73-60.38,36.37-79.86,22.3-18.38,35.98-46.79,34.06-78.37-2.74-45.1-38.26-82.66-83.19-87.65-56.83-6.31-104.94,37.98-104.94,93.52,0,29.23,13.35,55.29,34.27,72.52,23.62,19.45,36.35,49.17,36.35,79.76v1.91c0,19.33-5.54,38.47-15.71,54.89-11.49,18.55-30.68,37.25-47.8,50.72-18.36,14.43-41.32,22.56-64.7,22.56h-1.83c-30.64,0-60.4-12.73-79.89-36.36-18.38-22.29-46.81-35.97-78.4-34.05-45.12,2.74-82.69,38.24-87.68,83.15-6.32,56.81,38,104.9,93.55,104.9,29.24,0,55.31-13.34,72.55-34.26,19.46-23.61,49.19-36.33,79.79-36.33h1.91c19.54,0,38.88,5.65,55.42,16.03,18.54,11.63,36.56,30.43,50.21,47.45,14.56,18.14,22.58,41.47,22.58,64.69v1.83c0,30.63-12.73,60.38-36.37,79.86-22.3,18.38-35.98,46.79-34.06,78.37,2.74,45.1,38.26,82.66,83.19,87.65,56.83,6.31,104.94-37.99,104.94-93.52,0-29.23-13.35-55.29-34.27-72.52-23.62-19.45-36.35-49.17-36.35-79.76v-1.32c0-30.59,12.73-60.31,36.35-79.76,20.92-17.23,34.27-43.3,34.27-72.52Z"/>
  <path class="cls-2" d="M556.39,327.35h-34.68c10.05,21.17,15.44,44.54,15.44,68.66,0,20.57-4.12,40.5-11.5,59.08h30.75c63.87,0,115.82,48.7,115.82,108.58s-51.95,108.58-115.82,108.58h-23.13c2.56,11.41,3.88,23.18,3.88,35.13,0,33.69-10.45,65.71-29.6,92.62h48.84c134.33,0,243.61-106.02,243.61-236.33s-109.29-236.32-243.61-236.32Z"/>
</svg>