<?xml version="1.0" encoding="UTF-8"?>
<svg version="1.1" xmlns="http://www.w3.org/2000/svg" width="160" height="160">
<path d="M0 0 C52.8 0 105.6 0 160 0 C160 52.8 160 105.6 160 160 C107.2 160 54.4 160 0 160 C0 107.2 0 54.4 0 0 Z " fill="#FECE1B" transform="translate(0,0)"/>
<path d="M0 0 C4.95 0 9.9 0 15 0 C15 2.64 15 5.28 15 8 C30.18 8 45.36 8 61 8 C61 5.36 61 2.72 61 0 C65.95 0 70.9 0 76 0 C76 4.95 76 9.9 76 15 C71.05 15 66.1 15 61 15 C61 17.64 61 20.28 61 23 C45.82 23 30.64 23 15 23 C15 20.36 15 17.72 15 15 C10.05 15 5.1 15 0 15 C0 10.05 0 5.1 0 0 Z " fill="#441E53" transform="translate(42,82)"/>
<path d="M0 0 C4.95 0 9.9 0 15 0 C15 5.28 15 10.56 15 16 C19.95 16 24.9 16 30 16 C30 25.9 30 35.8 30 46 C20.1 46 10.2 46 0 46 C0 30.82 0 15.64 0 0 Z " fill="#441D4F" transform="translate(42,28)"/>
<path d="M0 0 C4.95 0 9.9 0 15 0 C15 5.28 15 10.56 15 16 C19.95 16 24.9 16 30 16 C30 25.9 30 35.8 30 46 C20.1 46 10.2 46 0 46 C0 30.82 0 15.64 0 0 Z " fill="#451D52" transform="translate(88,28)"/>
<path d="M0 0 C1.16499023 -0.01836914 1.16499023 -0.01836914 2.35351562 -0.03710938 C6.27482309 -0.04724195 8.22868745 -0.0350417 11.5625 2.1875 C11.98070365 6.21340716 11.69195079 10.13137531 11.5625 14.1875 C18.4925 14.6825 18.4925 14.6825 25.5625 15.1875 C26.52748276 19.04743104 26.6025583 21.76385274 26.44140625 25.703125 C26.39306641 26.95351563 26.34472656 28.20390625 26.29492188 29.4921875 C26.23884766 30.79414062 26.18277344 32.09609375 26.125 33.4375 C26.07279297 34.75492188 26.02058594 36.07234375 25.96679688 37.4296875 C25.83715443 40.68253428 25.70218844 43.93507167 25.5625 47.1875 C24.5725 47.5175 23.5825 47.8475 22.5625 48.1875 C22.5625 49.1775 22.5625 50.1675 22.5625 51.1875 C14.6425 51.6825 14.6425 51.6825 6.5625 52.1875 C7.8825 52.8475 9.2025 53.5075 10.5625 54.1875 C10.2325 56.8275 9.9025 59.4675 9.5625 62.1875 C23.4225 62.1875 37.2825 62.1875 51.5625 62.1875 C51.5625 60.2075 51.5625 58.2275 51.5625 56.1875 C53.5625 54.1875 53.5625 54.1875 57.0390625 53.9921875 C58.42200968 54.00548507 59.80488654 54.02933768 61.1875 54.0625 C61.89390625 54.07152344 62.6003125 54.08054688 63.328125 54.08984375 C65.07306098 54.11342397 66.81782295 54.14929539 68.5625 54.1875 C68.5625 54.8475 68.5625 55.5075 68.5625 56.1875 C69.5525 56.1875 70.5425 56.1875 71.5625 56.1875 C71.5625 61.4675 71.5625 66.7475 71.5625 72.1875 C68.55936252 73.68906874 65.77182478 73.28031204 62.4375 73.25 C61.15617187 73.24097656 59.87484375 73.23195313 58.5546875 73.22265625 C57.56726563 73.21105469 56.57984375 73.19945313 55.5625 73.1875 C55.583125 74.156875 55.60375 75.12625 55.625 76.125 C55.5625 79.1875 55.5625 79.1875 54.5625 80.1875 C53.06379952 80.28581146 51.56051461 80.31548456 50.05859375 80.31689453 C48.62205444 80.32162277 48.62205444 80.32162277 47.15649414 80.32644653 C46.11485107 80.3244223 45.07320801 80.32239807 44 80.3203125 C42.93837646 80.32126923 41.87675293 80.32222595 40.78295898 80.32321167 C38.53336528 80.32389364 36.28376963 80.32203819 34.03417969 80.31787109 C30.57742929 80.3125231 27.12080883 80.31781554 23.6640625 80.32421875 C21.48437471 80.32355797 19.304687 80.32227682 17.125 80.3203125 C16.08335693 80.32233673 15.04171387 80.32436096 13.96850586 80.32644653 C13.01081299 80.32329437 12.05312012 80.32014221 11.06640625 80.31689453 C10.21892822 80.31609894 9.3714502 80.31530334 8.49829102 80.31448364 C6.5625 80.1875 6.5625 80.1875 5.5625 79.1875 C5.52169217 77.18791636 5.51995644 75.18704746 5.5625 73.1875 C4.56347656 73.19910156 3.56445312 73.21070312 2.53515625 73.22265625 C1.24480469 73.23167969 -0.04554687 73.24070312 -1.375 73.25 C-2.66277344 73.26160156 -3.95054688 73.27320312 -5.27734375 73.28515625 C-8.4375 73.1875 -8.4375 73.1875 -9.4375 72.1875 C-9.52419432 70.6987814 -9.54453494 69.206055 -9.53515625 67.71484375 C-9.53193359 66.81572266 -9.52871094 65.91660156 -9.52539062 64.99023438 C-9.51701172 64.04470703 -9.50863281 63.09917969 -9.5 62.125 C-9.49548828 61.17560547 -9.49097656 60.22621094 -9.48632812 59.24804688 C-9.4745011 56.89446935 -9.45802025 54.54101523 -9.4375 52.1875 C-8.7775 52.1875 -8.1175 52.1875 -7.4375 52.1875 C-7.4375 51.5275 -7.4375 50.8675 -7.4375 50.1875 C-8.0975 50.1875 -8.7575 50.1875 -9.4375 50.1875 C-10.63541173 47.79167654 -10.5581744 46.31972462 -10.55102539 43.64599609 C-10.55094986 42.70517181 -10.55087433 41.76434753 -10.55079651 40.79501343 C-10.54305458 39.26839584 -10.54305458 39.26839584 -10.53515625 37.7109375 C-10.5337413 36.67055328 -10.53232635 35.63016907 -10.53086853 34.55825806 C-10.52525866 31.22630979 -10.51270447 27.89442805 -10.5 24.5625 C-10.49498627 22.30729264 -10.49042314 20.05208422 -10.48632812 17.796875 C-10.47528603 12.26039386 -10.45853827 6.72395168 -10.4375 1.1875 C-7.16938198 -0.44655901 -3.58750593 0.00296243 0 0 Z M-7.4375 2.1875 C-7.4375 17.3675 -7.4375 32.5475 -7.4375 48.1875 C2.4625 48.1875 12.3625 48.1875 22.5625 48.1875 C22.5625 38.2875 22.5625 28.3875 22.5625 18.1875 C17.6125 18.1875 12.6625 18.1875 7.5625 18.1875 C7.5625 12.9075 7.5625 7.6275 7.5625 2.1875 C2.6125 2.1875 -2.3375 2.1875 -7.4375 2.1875 Z M-7.4375 56.1875 C-7.4375 61.1375 -7.4375 66.0875 -7.4375 71.1875 C-2.4875 71.1875 2.4625 71.1875 7.5625 71.1875 C7.5625 73.8275 7.5625 76.4675 7.5625 79.1875 C22.7425 79.1875 37.9225 79.1875 53.5625 79.1875 C53.5625 76.5475 53.5625 73.9075 53.5625 71.1875 C58.5125 71.1875 63.4625 71.1875 68.5625 71.1875 C68.5625 66.2375 68.5625 61.2875 68.5625 56.1875 C63.6125 56.1875 58.6625 56.1875 53.5625 56.1875 C53.5625 58.8275 53.5625 61.4675 53.5625 64.1875 C38.3825 64.1875 23.2025 64.1875 7.5625 64.1875 C7.5625 61.5475 7.5625 58.9075 7.5625 56.1875 C2.6125 56.1875 -2.3375 56.1875 -7.4375 56.1875 Z " fill="#F2CF49" transform="translate(49.4375,25.8125)"/>
<path d="M0 0 C4.95 0 9.9 0 15 0 C15 2.31 15 4.62 15 7 C14.34 6.67 13.68 6.34 13 6 C13 4.68 13 3.36 13 2 C9.37 2 5.74 2 2 2 C1.67 5.96 1.34 9.92 1 14 C2.60681641 13.98259766 2.60681641 13.98259766 4.24609375 13.96484375 C5.64322743 13.95546701 7.04036299 13.94636669 8.4375 13.9375 C9.14455078 13.92912109 9.85160156 13.92074219 10.58007812 13.91210938 C12.38693559 13.90346412 14.19387603 13.94779989 16 14 C17 15 17 15 17 21 C30.86 21 44.72 21 59 21 C58.34 18.36 57.68 15.72 57 13 C57.33 12.67 57.66 12.34 58 12 C54.2666668 10.80249363 50.7535601 10.91773274 46.85546875 10.97265625 C45.44205978 10.98530747 44.02864819 10.99766806 42.61523438 11.00976562 C40.40347971 11.03450671 38.19186438 11.06243387 35.98022461 11.09594727 C33.83446433 11.12639208 31.68887784 11.14399996 29.54296875 11.16015625 C27.6252063 11.18541382 27.6252063 11.18541382 25.66870117 11.21118164 C21.74557284 10.9853544 18.71536411 10.21449427 15 9 C15 8.67 15 8.34 15 8 C30.18 8 45.36 8 61 8 C61 5.36 61 2.72 61 0 C65.95 0 70.9 0 76 0 C76 4.95 76 9.9 76 15 C71.05 15 66.1 15 61 15 C61 17.64 61 20.28 61 23 C45.82 23 30.64 23 15 23 C15 20.36 15 17.72 15 15 C10.05 15 5.1 15 0 15 C0 10.05 0 5.1 0 0 Z " fill="#461E50" transform="translate(42,82)"/>
<path d="M0 0 C1.2065625 0.0309375 1.2065625 0.0309375 2.4375 0.0625 C2.9325 2.0425 2.9325 2.0425 3.4375 4.0625 C5.9125 4.5575 5.9125 4.5575 8.4375 5.0625 C8.4375 8.6925 8.4375 12.3225 8.4375 16.0625 C4.8075 16.0625 1.1775 16.0625 -2.5625 16.0625 C-2.5625 16.7225 -2.5625 17.3825 -2.5625 18.0625 C-3.85483607 19.43560707 -5.18687146 20.77284824 -6.5625 22.0625 C-8.0460001 21.63992724 -9.52426424 21.19893678 -11 20.75 C-11.82371094 20.50636719 -12.64742187 20.26273438 -13.49609375 20.01171875 C-14.17800781 19.69847656 -14.85992187 19.38523438 -15.5625 19.0625 C-15.8925 18.0725 -16.2225 17.0825 -16.5625 16.0625 C-17.408125 16.248125 -18.25375 16.43375 -19.125 16.625 C-22.85831018 17.10014857 -25.88096403 16.7843698 -29.5625 16.0625 C-29.8925 15.7325 -30.2225 15.4025 -30.5625 15.0625 C-30.47312197 13.53730724 -30.31712854 12.01568071 -30.125 10.5 C-30.02316406 9.67371094 -29.92132813 8.84742187 -29.81640625 7.99609375 C-29.73261719 7.35800781 -29.64882813 6.71992187 -29.5625 6.0625 C-28.2425 6.0625 -26.9225 6.0625 -25.5625 6.0625 C-25.5625 8.0425 -25.5625 10.0225 -25.5625 12.0625 C-24.5725 12.0625 -23.5825 12.0625 -22.5625 12.0625 C-22.5625 10.0825 -22.5625 8.1025 -22.5625 6.0625 C-21.9025 6.0625 -21.2425 6.0625 -20.5625 6.0625 C-20.5625 8.7025 -20.5625 11.3425 -20.5625 14.0625 C-20.2325 14.0625 -19.9025 14.0625 -19.5625 14.0625 C-19.2325 11.4225 -18.9025 8.7825 -18.5625 6.0625 C-15.88606043 5.17035348 -14.30865622 4.92709789 -11.5625 4.9375 C-10.881875 4.93492188 -10.20125 4.93234375 -9.5 4.9296875 C-7.5625 5.0625 -7.5625 5.0625 -4.5625 6.0625 C-4.2325 8.3725 -3.9025 10.6825 -3.5625 13.0625 C-3.57410156 12.20785156 -3.58570312 11.35320312 -3.59765625 10.47265625 C-3.60667969 9.36792969 -3.61570312 8.26320313 -3.625 7.125 C-3.63660156 6.02285156 -3.64820312 4.92070313 -3.66015625 3.78515625 C-3.52747618 0.086036 -3.52747618 0.086036 0 0 Z " fill="#F9D450" transform="translate(83.5625,113.9375)"/>
<path d="M0 0 C1.03447266 0.01160156 1.03447266 0.01160156 2.08984375 0.0234375 C2.77949219 0.01570313 3.46914063 0.00796875 4.1796875 0 C9.33651082 0.02010457 9.33651082 0.02010457 11.58984375 2.2734375 C11.58984375 4.2534375 11.58984375 6.2334375 11.58984375 8.2734375 C25.44984375 8.2734375 39.30984375 8.2734375 53.58984375 8.2734375 C53.58984375 6.2934375 53.58984375 4.3134375 53.58984375 2.2734375 C55.58984375 0.2734375 55.58984375 0.2734375 59.06640625 0.078125 C60.44935343 0.09142257 61.83223029 0.11527518 63.21484375 0.1484375 C63.92125 0.15746094 64.62765625 0.16648437 65.35546875 0.17578125 C67.10040473 0.19936147 68.8451667 0.23523289 70.58984375 0.2734375 C70.58984375 0.9334375 70.58984375 1.5934375 70.58984375 2.2734375 C71.57984375 2.2734375 72.56984375 2.2734375 73.58984375 2.2734375 C73.58984375 7.5534375 73.58984375 12.8334375 73.58984375 18.2734375 C70.58670627 19.77500624 67.79916853 19.36624954 64.46484375 19.3359375 C63.18351562 19.32691406 61.9021875 19.31789063 60.58203125 19.30859375 C59.10089844 19.29119141 59.10089844 19.29119141 57.58984375 19.2734375 C57.61046875 20.2428125 57.63109375 21.2121875 57.65234375 22.2109375 C57.58984375 25.2734375 57.58984375 25.2734375 56.58984375 26.2734375 C55.09114327 26.37174896 53.58785836 26.40142206 52.0859375 26.40283203 C50.64939819 26.40756027 50.64939819 26.40756027 49.18383789 26.41238403 C48.14219482 26.4103598 47.10055176 26.40833557 46.02734375 26.40625 C44.96572021 26.40720673 43.90409668 26.40816345 42.81030273 26.40914917 C40.56070903 26.40983114 38.31111338 26.40797569 36.06152344 26.40380859 C32.60477304 26.3984606 29.14815258 26.40375304 25.69140625 26.41015625 C23.51171846 26.40949547 21.33203075 26.40821432 19.15234375 26.40625 C18.11070068 26.40827423 17.06905762 26.41029846 15.99584961 26.41238403 C15.03815674 26.40923187 14.08046387 26.40607971 13.09375 26.40283203 C12.24627197 26.40203644 11.39879395 26.40124084 10.52563477 26.40042114 C8.58984375 26.2734375 8.58984375 26.2734375 7.58984375 25.2734375 C7.54903592 23.27385386 7.54730019 21.27298496 7.58984375 19.2734375 C6.59082031 19.28503906 5.59179688 19.29664062 4.5625 19.30859375 C3.27214844 19.31761719 1.98179688 19.32664062 0.65234375 19.3359375 C-0.63542969 19.34753906 -1.92320313 19.35914062 -3.25 19.37109375 C-6.41015625 19.2734375 -6.41015625 19.2734375 -7.41015625 18.2734375 C-7.53673847 15.61521093 -7.59535839 12.99456326 -7.59765625 10.3359375 C-7.60990234 9.59408203 -7.62214844 8.85222656 -7.63476562 8.08789062 C-7.64004103 6.14830121 -7.53204527 4.2092004 -7.41015625 2.2734375 C-4.91805186 -0.21866689 -3.40654837 0.01328089 0 0 Z M-5.41015625 2.2734375 C-5.41015625 7.2234375 -5.41015625 12.1734375 -5.41015625 17.2734375 C-0.46015625 17.2734375 4.48984375 17.2734375 9.58984375 17.2734375 C9.58984375 19.9134375 9.58984375 22.5534375 9.58984375 25.2734375 C24.76984375 25.2734375 39.94984375 25.2734375 55.58984375 25.2734375 C55.58984375 22.6334375 55.58984375 19.9934375 55.58984375 17.2734375 C60.53984375 17.2734375 65.48984375 17.2734375 70.58984375 17.2734375 C70.58984375 12.3234375 70.58984375 7.3734375 70.58984375 2.2734375 C65.63984375 2.2734375 60.68984375 2.2734375 55.58984375 2.2734375 C55.58984375 4.9134375 55.58984375 7.5534375 55.58984375 10.2734375 C40.40984375 10.2734375 25.22984375 10.2734375 9.58984375 10.2734375 C9.58984375 7.6334375 9.58984375 4.9934375 9.58984375 2.2734375 C4.63984375 2.2734375 -0.31015625 2.2734375 -5.41015625 2.2734375 Z " fill="#E5C75F" transform="translate(47.41015625,79.7265625)"/>
<path d="M0 0 C0.79792969 0.00386719 1.59585938 0.00773437 2.41796875 0.01171875 C3.21589844 0.00785156 4.01382813 0.00398438 4.8359375 0 C10.79136108 0.01011108 10.79136108 0.01011108 11.91796875 1.13671875 C11.99068616 3.4898543 12.00167743 5.84505543 11.98046875 8.19921875 C11.97144531 9.48957031 11.96242188 10.77992187 11.953125 12.109375 C11.94152344 13.10839844 11.92992188 14.10742188 11.91796875 15.13671875 C12.91699219 15.12511719 13.91601562 15.11351562 14.9453125 15.1015625 C16.23566406 15.09253906 17.52601562 15.08351563 18.85546875 15.07421875 C20.14324219 15.06261719 21.43101563 15.05101562 22.7578125 15.0390625 C25.91796875 15.13671875 25.91796875 15.13671875 26.91796875 16.13671875 C27.0058785 18.42823292 27.02490913 20.72244399 27.015625 23.015625 C27.01421005 23.70228745 27.0127951 24.38894989 27.01133728 25.09642029 C27.00572354 27.29739676 26.99316882 29.49827284 26.98046875 31.69921875 C26.97545551 33.18814958 26.9708923 34.67708199 26.96679688 36.16601562 C26.95574968 39.8229495 26.93847588 43.47982433 26.91796875 47.13671875 C26.25796875 47.13671875 25.59796875 47.13671875 24.91796875 47.13671875 C24.91796875 48.12671875 24.91796875 49.11671875 24.91796875 50.13671875 C20.39733485 50.21078392 15.87705275 50.2652792 11.35595703 50.30151367 C9.81748301 50.31661586 8.27905214 50.33709921 6.74072266 50.36303711 C4.53146734 50.39935949 2.32278027 50.41642994 0.11328125 50.4296875 C-0.9211763 50.45291328 -0.9211763 50.45291328 -1.97653198 50.47660828 C-3.91748047 50.47729492 -3.91748047 50.47729492 -7.08203125 50.13671875 C-7.74203125 49.14671875 -8.40203125 48.15671875 -9.08203125 47.13671875 C-8.42203125 47.13671875 -7.76203125 47.13671875 -7.08203125 47.13671875 C-7.08425186 46.56264786 -7.08647247 45.98857697 -7.08876038 45.39710999 C-7.11081382 39.44418965 -7.12593809 33.49128085 -7.13696289 27.53833008 C-7.14200442 25.31404143 -7.14883748 23.08975612 -7.1574707 20.86547852 C-7.16954423 17.67593566 -7.17526121 14.48643646 -7.1796875 11.296875 C-7.18484879 10.29584244 -7.19001007 9.29480988 -7.19532776 8.26344299 C-7.19540329 7.34256393 -7.19547882 6.42168488 -7.19555664 5.47290039 C-7.19777725 4.65793594 -7.19999786 3.8429715 -7.20228577 3.00331116 C-6.92854066 -1.24576444 -3.47328153 0.00589691 0 0 Z M-5.08203125 1.13671875 C-5.08203125 16.31671875 -5.08203125 31.49671875 -5.08203125 47.13671875 C4.81796875 47.13671875 14.71796875 47.13671875 24.91796875 47.13671875 C24.91796875 37.23671875 24.91796875 27.33671875 24.91796875 17.13671875 C19.96796875 17.13671875 15.01796875 17.13671875 9.91796875 17.13671875 C9.91796875 11.85671875 9.91796875 6.57671875 9.91796875 1.13671875 C4.96796875 1.13671875 0.01796875 1.13671875 -5.08203125 1.13671875 Z " fill="#E0C05F" transform="translate(93.08203125,26.86328125)"/>
<path d="M0 0 C4.95 0 9.9 0 15 0 C15 5.28 15 10.56 15 16 C19.95 16 24.9 16 30 16 C30 25.9 30 35.8 30 46 C20.1 46 10.2 46 0 46 C0 30.82 0 15.64 0 0 Z M3 4 C1.51626712 12.42648296 1.88760626 21.03443634 1.9375 29.5625 C1.9425254 31.06314955 1.94708647 32.56380072 1.95117188 34.06445312 C1.96123608 37.70970938 1.98082561 41.35473527 2 45 C10.91 45 19.82 45 29 45 C29.020625 40.75125 29.04125 36.5025 29.0625 32.125 C29.071604 30.7858252 29.08070801 29.44665039 29.09008789 28.06689453 C29.09258545 27.01614746 29.09508301 25.96540039 29.09765625 24.8828125 C29.10289307 23.80402832 29.10812988 22.72524414 29.11352539 21.61376953 C29.17883106 19.01767814 29.17883106 19.01767814 28 17 C23.38 17 18.76 17 14 17 C13.67 12.38 13.34 7.76 13 3 C11.081875 2.9690625 11.081875 2.9690625 9.125 2.9375 C8.40570313 2.92589844 7.68640625 2.91429687 6.9453125 2.90234375 C4.91814596 2.87350758 4.91814596 2.87350758 3 4 Z " fill="#300B16" transform="translate(88,28)"/>
<path d="M0 0 C1.32 0 2.64 0 4 0 C4 3.96 4 7.92 4 12 C10.93 12.495 10.93 12.495 18 13 C18.96498276 16.85993104 19.0400583 19.57635274 18.87890625 23.515625 C18.83056641 24.76601563 18.78222656 26.01640625 18.73242188 27.3046875 C18.67634766 28.60664062 18.62027344 29.90859375 18.5625 31.25 C18.51029297 32.56742188 18.45808594 33.88484375 18.40429688 35.2421875 C18.27465443 38.49503428 18.13968844 41.74757167 18 45 C16.515 45.495 16.515 45.495 15 46 C15 36.1 15 26.2 15 16 C10.05 16 5.1 16 0 16 C0 10.72 0 5.44 0 0 Z " fill="#DDB840" transform="translate(57,28)"/>
<path d="M0 0 C4.95 0 9.9 0 15 0 C15 5.28 15 10.56 15 16 C19.95 16 24.9 16 30 16 C30 25.9 30 35.8 30 46 C20.1 46 10.2 46 0 46 C0 30.82 0 15.64 0 0 Z M1 2 C1 16.19 1 30.38 1 45 C10.24 45 19.48 45 29 45 C29 35.76 29 26.52 29 17 C24.05 16.67 19.1 16.34 14 16 C13.67 11.38 13.34 6.76 13 2 C9.04 2 5.08 2 1 2 Z " fill="#290203" transform="translate(42,28)"/>
<path d="M0 0 C4.95 0 9.9 0 15 0 C15 2.31 15 4.62 15 7 C14.34 6.67 13.68 6.34 13 6 C13 4.68 13 3.36 13 2 C9.37 2 5.74 2 2 2 C1.67 5.96 1.34 9.92 1 14 C2.60681641 13.98259766 2.60681641 13.98259766 4.24609375 13.96484375 C5.64322743 13.95546701 7.04036299 13.94636669 8.4375 13.9375 C9.14455078 13.92912109 9.85160156 13.92074219 10.58007812 13.91210938 C12.38693559 13.90346412 14.19387603 13.94779989 16 14 C17 15 17 15 17 21 C30.86 21 44.72 21 59 21 C59 19.35 59 17.7 59 16 C59.66 16 60.32 16 61 16 C61 18.31 61 20.62 61 23 C45.82 23 30.64 23 15 23 C15 20.36 15 17.72 15 15 C10.05 15 5.1 15 0 15 C0 10.05 0 5.1 0 0 Z " fill="#320906" transform="translate(42,82)"/>
<path d="M0 0 C0.99 0 1.98 0 3 0 C3 5.28 3 10.56 3 16 C-0.00313748 17.50156874 -2.79067522 17.09281204 -6.125 17.0625 C-7.40632813 17.05347656 -8.68765625 17.04445313 -10.0078125 17.03515625 C-11.48894531 17.01775391 -11.48894531 17.01775391 -13 17 C-12.979375 17.969375 -12.95875 18.93875 -12.9375 19.9375 C-13 23 -13 23 -14 24 C-15.49870048 24.09831146 -17.00198539 24.12798456 -18.50390625 24.12939453 C-19.94044556 24.13412277 -19.94044556 24.13412277 -21.40600586 24.13894653 C-22.44764893 24.1369223 -23.48929199 24.13489807 -24.5625 24.1328125 C-25.62412354 24.13376923 -26.68574707 24.13472595 -27.77954102 24.13571167 C-30.02913472 24.13639364 -32.27873037 24.13453819 -34.52832031 24.13037109 C-37.98507071 24.1250231 -41.44169117 24.13031554 -44.8984375 24.13671875 C-47.07812529 24.13605797 -49.257813 24.13477682 -51.4375 24.1328125 C-52.47914307 24.13483673 -53.52078613 24.13686096 -54.59399414 24.13894653 C-55.55168701 24.13579437 -56.50937988 24.13264221 -57.49609375 24.12939453 C-58.34357178 24.12859894 -59.1910498 24.12780334 -60.06420898 24.12698364 C-62 24 -62 24 -63 23 C-63.04080783 21.00041636 -63.04254356 18.99954746 -63 17 C-65.31 17 -67.62 17 -70 17 C-70 16.67 -70 16.34 -70 16 C-67.03 16 -64.06 16 -61 16 C-61 18.31 -61 20.62 -61 23 C-45.82 23 -30.64 23 -15 23 C-15 20.36 -15 17.72 -15 15 C-10.05 15 -5.1 15 0 15 C0 10.05 0 5.1 0 0 Z " fill="#F8D668" transform="translate(118,82)"/>
<path d="M0 0 C15.18 0 30.36 0 46 0 C46 0.33 46 0.66 46 1 C41.02970761 2.61038753 36.83904663 3.25617366 31.5625 3.265625 C30.87873291 3.26753845 30.19496582 3.2694519 29.49047852 3.27142334 C28.055172 3.27277493 26.61985283 3.26915078 25.18457031 3.26074219 C23.00557623 3.25002742 20.82740638 3.26067202 18.6484375 3.2734375 C17.24478987 3.27211572 15.84114275 3.26955295 14.4375 3.265625 C13.17808594 3.26336914 11.91867188 3.26111328 10.62109375 3.25878906 C6.75045981 2.98216609 3.67515525 2.19075976 0 1 C0 0.67 0 0.34 0 0 Z " fill="#3E132A" transform="translate(57,90)"/>
<path d="M0 0 C1.23556641 0.01740234 1.23556641 0.01740234 2.49609375 0.03515625 C3.32238281 0.04417969 4.14867187 0.05320312 5 0.0625 C5.63808594 0.07410156 6.27617188 0.08570312 6.93359375 0.09765625 C7.26359375 1.74765625 7.59359375 3.39765625 7.93359375 5.09765625 C6.94359375 5.75765625 5.95359375 6.41765625 4.93359375 7.09765625 C4.20976908 9.15690764 4.20976908 9.15690764 3.93359375 11.09765625 C6.90359375 11.59265625 6.90359375 11.59265625 9.93359375 12.09765625 C9.93359375 12.42765625 9.93359375 12.75765625 9.93359375 13.09765625 C5.64359375 13.09765625 1.35359375 13.09765625 -3.06640625 13.09765625 C-3.1640625 3.8203125 -3.1640625 3.8203125 -3.06640625 1.09765625 C-2.06640625 0.09765625 -2.06640625 0.09765625 0 0 Z " fill="#411A44" transform="translate(46.06640625,82.90234375)"/>
<path d="M0 0 C0.33 0 0.66 0 1 0 C1 15.51 1 31.02 1 47 C11.23 47 21.46 47 32 47 C32 47.66 32 48.32 32 49 C27.4793661 49.07406517 22.959084 49.12856045 18.43798828 49.16479492 C16.89951426 49.17989711 15.36108339 49.20038046 13.82275391 49.22631836 C11.61349859 49.26264074 9.40481152 49.27971119 7.1953125 49.29296875 C6.16085495 49.31619453 6.16085495 49.31619453 5.10549927 49.33988953 C3.16455078 49.34057617 3.16455078 49.34057617 0 49 C-0.66 48.01 -1.32 47.02 -2 46 C-1.34 46 -0.68 46 0 46 C0 30.82 0 15.64 0 0 Z " fill="#FCDD55" transform="translate(86,28)"/>
<path d="M0 0 C1.32 0 2.64 0 4 0 C4 1.98 4 3.96 4 6 C4.99 6 5.98 6 7 6 C7 4.02 7 2.04 7 0 C7.66 0 8.32 0 9 0 C9 2.64 9 5.28 9 8 C9.33 8 9.66 8 10 8 C10.33 5.36 10.66 2.72 11 0 C11.99 0 12.98 0 14 0 C14 3.96 14 7.92 14 12 C13.67 11.34 13.34 10.68 13 10 C12.154375 10.185625 11.30875 10.37125 10.4375 10.5625 C6.70418982 11.03764857 3.68153597 10.7218698 0 10 C-0.33 9.67 -0.66 9.34 -1 9 C-0.91062197 7.47480724 -0.75462854 5.95318071 -0.5625 4.4375 C-0.46066406 3.61121094 -0.35882813 2.78492187 -0.25390625 1.93359375 C-0.17011719 1.29550781 -0.08632813 0.65742187 0 0 Z " fill="#F5D02C" transform="translate(54,120)"/>
<path d="M0 0 C0 5.61 0 11.22 0 17 C-6 19 -6 19 -8.375 18.125 C-8.91125 17.75375 -9.4475 17.3825 -10 17 C-10 16.34 -10 15.68 -10 15 C-10.66 14.67 -11.32 14.34 -12 14 C-11.67 10.37 -11.34 6.74 -11 3 C-10.67 3 -10.34 3 -10 3 C-10 5.64 -10 8.28 -10 11 C-8.02 11 -6.04 11 -4 11 C-4 11.66 -4 12.32 -4 13 C-5.65 13.33 -7.3 13.66 -9 14 C-6.69 14.33 -4.38 14.66 -2 15 C-2 11.04 -2 7.08 -2 3 C-4.31 3 -6.62 3 -9 3 C-8.67 2.34 -8.34 1.68 -8 1 C-2.4 0 -2.4 0 0 0 Z " fill="#F6D556" transform="translate(120,117)"/>
<path d="M0 0 C14.52 0 29.04 0 44 0 C40.29329628 2.47113581 37.34807819 2.34788589 33.05078125 2.4140625 C32.27816452 2.43342865 31.50554779 2.4527948 30.70951843 2.4727478 C28.2439576 2.53248479 25.77834993 2.57890486 23.3125 2.625 C21.6399537 2.66318525 19.96742695 2.70223731 18.29492188 2.7421875 C14.19677353 2.83818133 10.09853312 2.92223377 6 3 C5.67 3.99 5.34 4.98 5 6 C4.34 6 3.68 6 3 6 C2.01 4.02 1.02 2.04 0 0 Z " fill="#FDCF3A" transform="translate(59,106)"/>
<path d="M0 0 C4.95 0 9.9 0 15 0 C15 4.95 15 9.9 15 15 C10.05 15 5.1 15 0 15 C0.33 14.34 0.66 13.68 1 13 C4.96 13 8.92 13 13 13 C13 9.37 13 5.74 13 2 C9.37 2 5.74 2 2 2 C2 3.65 2 5.3 2 7 C1.01 7.495 1.01 7.495 0 8 C0 5.36 0 2.72 0 0 Z " fill="#340911" transform="translate(103,82)"/>
<path d="M0 0 C2.64 0 5.28 0 8 0 C8 3.96 8 7.92 8 12 C5.36 12 2.72 12 0 12 C0 11.34 0 10.68 0 10 C1.98 10 3.96 10 6 10 C6 9.34 6 8.68 6 8 C4.02 8 2.04 8 0 8 C0 5.36 0 2.72 0 0 Z " fill="#3F1500" transform="translate(69,120)"/>
<path d="M0 0 C0 0.66 0 1.32 0 2 C1.98 2.66 3.96 3.32 6 4 C5.67 7.3 5.34 10.6 5 14 C4.67 14 4.34 14 4 14 C4 11.36 4 8.72 4 6 C2.02 6 0.04 6 -2 6 C-2 4.68 -2 3.36 -2 2 C-2.66 2 -3.32 2 -4 2 C-4 5.96 -4 9.92 -4 14 C-1.69 14 0.62 14 3 14 C3 14.33 3 14.66 3 15 C0.03 15 -2.94 15 -6 15 C-6 10.38 -6 5.76 -6 1 C-4 0 -4 0 0 0 Z " fill="#F7D74D" transform="translate(46,114)"/>
<path d="M0 0 C-0.33 3.3 -0.66 6.6 -1 10 C-3.64 10 -6.28 10 -9 10 C-9 7.03 -9 4.06 -9 1 C-5.94152152 0.45627049 -3.11227195 0 0 0 Z " fill="#C7A430" transform="translate(106,118)"/>
<path d="M0 0 C2.31 0 4.62 0 7 0 C7 3.96 7 7.92 7 12 C4.69 12 2.38 12 0 12 C-0.33 11.34 -0.66 10.68 -1 10 C0.98 10 2.96 10 5 10 C5 9.34 5 8.68 5 8 C3.35 8 1.7 8 0 8 C0 5.36 0 2.72 0 0 Z " fill="#7D5232" transform="translate(111,120)"/>
<path d="M0 0 C0.66 0 1.32 0 2 0 C2 1.32 2 2.64 2 4 C3.98 4 5.96 4 8 4 C8 6.64 8 9.28 8 12 C5.36 12 2.72 12 0 12 C0 8.04 0 4.08 0 0 Z " fill="#946A3F" transform="translate(83,116)"/>
<path d="M0 0 C1.2065625 0.0309375 1.2065625 0.0309375 2.4375 0.0625 C2.7675 1.3825 3.0975 2.7025 3.4375 4.0625 C5.0875 4.3925 6.7375 4.7225 8.4375 5.0625 C8.4375 8.3625 8.4375 11.6625 8.4375 15.0625 C1.6015625 15.35546875 1.6015625 15.35546875 -0.5625 15.0625 C-2.7319867 11.80826996 -2.94271471 10.25589748 -3.25 6.4375 C-3.33636719 5.45523438 -3.42273438 4.47296875 -3.51171875 3.4609375 C-3.52847656 2.66945313 -3.54523438 1.87796875 -3.5625 1.0625 C-2.5625 0.0625 -2.5625 0.0625 0 0 Z M-0.5625 2.0625 C-0.5625 6.0225 -0.5625 9.9825 -0.5625 14.0625 C2.0775 14.0625 4.7175 14.0625 7.4375 14.0625 C7.4375 11.4225 7.4375 8.7825 7.4375 6.0625 C5.4575 6.0625 3.4775 6.0625 1.4375 6.0625 C1.4375 4.7425 1.4375 3.4225 1.4375 2.0625 C0.7775 2.0625 0.1175 2.0625 -0.5625 2.0625 Z " fill="#FDDA58" transform="translate(83.5625,113.9375)"/>
<path d="M0 0 C0.66 0 1.32 0 2 0 C2 1.32 2 2.64 2 4 C3.65 4 5.3 4 7 4 C7 6.64 7 9.28 7 12 C4.69 12 2.38 12 0 12 C0 8.04 0 4.08 0 0 Z " fill="#8C633D" transform="translate(42,116)"/>
<path d="M0 0 C2.24711309 3.57390683 2.16564667 6.35577322 1.9765625 10.515625 C1.89921875 12.39121094 1.89921875 12.39121094 1.8203125 14.3046875 C1.75585938 15.60664062 1.69140625 16.90859375 1.625 18.25 C1.56828125 19.56742188 1.5115625 20.88484375 1.453125 22.2421875 C1.31168341 25.49534406 1.16026986 28.74772552 1 32 C0.01 32.495 0.01 32.495 -1 33 C-1.02469081 28.6217488 -1.04285557 24.24353433 -1.05493164 19.86523438 C-1.05996514 18.37531834 -1.06679242 16.88540726 -1.07543945 15.39550781 C-1.08754805 13.25584696 -1.09323807 11.11625132 -1.09765625 8.9765625 C-1.10289307 7.68830566 -1.10812988 6.40004883 -1.11352539 5.07275391 C-1 2 -1 2 0 0 Z " fill="#FBDA4E" transform="translate(74,41)"/>
<path d="M0 0 C4.95 0 9.9 0 15 0 C15.33 5.61 15.66 11.22 16 17 C15.34 17 14.68 17 14 17 C12.55792059 14.11584117 12.90605113 11.58278472 12.9375 8.375 C12.94652344 7.18648437 12.95554687 5.99796875 12.96484375 4.7734375 C12.97644531 3.85820312 12.98804687 2.94296875 13 2 C9.04 2 5.08 2 1 2 C0.67 2.66 0.34 3.32 0 4 C0 2.68 0 1.36 0 0 Z " fill="#40170C" transform="translate(88,28)"/>
<path d="M0 0 C0.66 0 1.32 0 2 0 C2 4.62 2 9.24 2 14 C6.29 14 10.58 14 15 14 C15 14.66 15 15.32 15 16 C10.05 16 5.1 16 0 16 C0 10.72 0 5.44 0 0 Z " fill="#EAC666" transform="translate(57,28)"/>
<path d="M0 0 C0.66 0 1.32 0 2 0 C2 4.95 2 9.9 2 15 C6.95 15 11.9 15 17 15 C17 15.33 17 15.66 17 16 C14.35448944 16.19386492 11.70882217 16.38038267 9.0625 16.5625 C8.30775391 16.61857422 7.55300781 16.67464844 6.77539062 16.73242188 C4.85254042 16.86176157 2.92610452 16.93516912 1 17 C0 16 0 16 -0.09765625 12.40234375 C-0.0909822 10.91403133 -0.07902183 9.42573568 -0.0625 7.9375 C-0.05798828 7.17888672 -0.05347656 6.42027344 -0.04882812 5.63867188 C-0.0370068 3.75908129 -0.01907078 1.87953101 0 0 Z " fill="#E9C765" transform="translate(40,82)"/>
<path d="M0 0 C1.32 0 2.64 0 4 0 C4.05422947 1.4370809 4.09289723 2.87475462 4.125 4.3125 C4.14820312 5.11300781 4.17140625 5.91351563 4.1953125 6.73828125 C4 9 4 9 2 12 C1.01 11.67 0.02 11.34 -1 11 C-1.02688151 9.35425434 -1.04634123 7.70838587 -1.0625 6.0625 C-1.07410156 5.14597656 -1.08570312 4.22945313 -1.09765625 3.28515625 C-1 1 -1 1 0 0 Z M-10 11 C-7.03 11 -4.06 11 -1 11 C-1 11.33 -1 11.66 -1 12 C-3.97 12 -6.94 12 -10 12 C-10 11.67 -10 11.34 -10 11 Z " fill="#ECC529" transform="translate(107,119)"/>
<path d="M0 0 C1.47906892 -0.02689216 2.95827483 -0.04634621 4.4375 -0.0625 C5.26121094 -0.07410156 6.08492187 -0.08570312 6.93359375 -0.09765625 C9 0 9 0 10 1 C10.1328125 2.8125 10.1328125 2.8125 10.125 5 C10.12757812 5.721875 10.13015625 6.44375 10.1328125 7.1875 C10 9 10 9 9 10 C6.32941149 10.14115161 3.67567762 10.04247107 1 10 C1 9.67 1 9.34 1 9 C3.31 9 5.62 9 8 9 C8 6.36 8 3.72 8 1 C7.34 1 6.68 1 6 1 C6 2.98 6 4.96 6 7 C5.01 7 4.02 7 3 7 C3 5.02 3 3.04 3 1 C2.01 0.67 1.02 0.34 0 0 Z " fill="#F9D662" transform="translate(55,119)"/>
<path d="M0 0 C0.99 0 1.98 0 3 0 C3 1.98 3 3.96 3 6 C3.99 6 4.98 6 6 6 C6 4.02 6 2.04 6 0 C6.66 0 7.32 0 8 0 C8 2.64 8 5.28 8 8 C5.36 8 2.72 8 0 8 C0 5.36 0 2.72 0 0 Z " fill="#61320B" transform="translate(55,120)"/>
<path d="M0 0 C4.95 0 9.9 0 15 0 C15 0.66 15 1.32 15 2 C10.71 2 6.42 2 2 2 C2 3.98 2 5.96 2 8 C1.01 8.495 1.01 8.495 0 9 C0 6.03 0 3.06 0 0 Z " fill="#EFCB6C" transform="translate(103,97)"/>
<path d="M0 0 C2.64 0 5.28 0 8 0 C8 1.65 8 3.3 8 5 C6.02 5.33 4.04 5.66 2 6 C1.67 4.35 1.34 2.7 1 1 C1 3.31 1 5.62 1 8 C0.67 8 0.34 8 0 8 C0 5.36 0 2.72 0 0 Z " fill="#876035" transform="translate(69,120)"/>
<path d="M0 0 C0.66 0 1.32 0 2 0 C2 3.3 2 6.6 2 10 C3.32 10 4.64 10 6 10 C6 8.35 6 6.7 6 5 C6.33 5 6.66 5 7 5 C7 7.31 7 9.62 7 12 C4.69 12 2.38 12 0 12 C0 8.04 0 4.08 0 0 Z " fill="#3E0F00" transform="translate(83,116)"/>
<path d="M0 0 C2.31 0 4.62 0 7 0 C7 1.98 7 3.96 7 6 C4.69 6 2.38 6 0 6 C-0.33 5.34 -0.66 4.68 -1 4 C0.98 4 2.96 4 5 4 C5 3.34 5 2.68 5 2 C3.35 2 1.7 2 0 2 C0 1.34 0 0.68 0 0 Z " fill="#491B05" transform="translate(111,126)"/>
<path d="M0 0 C0.66 0 1.32 0 2 0 C2 1.98 2 3.96 2 6 C3.32 6 4.64 6 6 6 C6 4.02 6 2.04 6 0 C6.33 0 6.66 0 7 0 C7 2.64 7 5.28 7 8 C4.69 8 2.38 8 0 8 C0 5.36 0 2.72 0 0 Z " fill="#431701" transform="translate(97,120)"/>
<path d="M0 0 C4.95 0 9.9 0 15 0 C15 4.95 15 9.9 15 15 C14.67 15 14.34 15 14 15 C13.93941406 14.14535156 13.87882812 13.29070313 13.81640625 12.41015625 C13.73261719 11.30542969 13.64882813 10.20070313 13.5625 9.0625 C13.48128906 7.96035156 13.40007813 6.85820313 13.31640625 5.72265625 C13.29581916 3.08890097 13.29581916 3.08890097 12 2 C9.98405418 1.76572222 7.961526 1.58663876 5.9375 1.4375 C4.83277344 1.35371094 3.72804687 1.26992188 2.58984375 1.18359375 C1.73519531 1.12300781 0.88054688 1.06242187 0 1 C0 0.67 0 0.34 0 0 Z " fill="#52280A" transform="translate(42,28)"/>
<path d="M0 0 C0.99 0.495 0.99 0.495 2 1 C2 2.65 2 4.3 2 6 C3.32 6 4.64 6 6 6 C6.33 4.68 6.66 3.36 7 2 C7 3.98 7 5.96 7 8 C4.69 8 2.38 8 0 8 C0 5.36 0 2.72 0 0 Z " fill="#3F1205" transform="translate(42,120)"/>
<path d="M0 0 C0.99 0.33 1.98 0.66 3 1 C3 3.64 3 6.28 3 9 C2.01 9.33 1.02 9.66 0 10 C0 6.7 0 3.4 0 0 Z " fill="#F6D133" transform="translate(92,119)"/>
<path d="M0 0 C0.33 0.66 0.66 1.32 1 2 C0.34 2 -0.32 2 -1 2 C-1.33 2.66 -1.66 3.32 -2 4 C-2.33 3.67 -2.66 3.34 -3 3 C-5.67058851 2.85884839 -8.32432238 2.95752893 -11 3 C-11.33 3.66 -11.66 4.32 -12 5 C-12.66 5 -13.32 5 -14 5 C-14 3.68 -14 2.36 -14 1 C-9.38 0.67 -4.76 0.34 0 0 Z " fill="#F2CE27" transform="translate(119,98)"/>
<path d="M0 0 C0.33 0 0.66 0 1 0 C1.33 2.64 1.66 5.28 2 8 C4.31 8.33 6.62 8.66 9 9 C9 9.33 9 9.66 9 10 C7.52093108 10.02689216 6.04172517 10.04634621 4.5625 10.0625 C3.32693359 10.07990234 3.32693359 10.07990234 2.06640625 10.09765625 C0 10 0 10 -1 9 C-0.91062197 7.47480724 -0.75462854 5.95318071 -0.5625 4.4375 C-0.46066406 3.61121094 -0.35882813 2.78492187 -0.25390625 1.93359375 C-0.17011719 1.29550781 -0.08632813 0.65742187 0 0 Z " fill="#FDDA44" transform="translate(54,120)"/>
<path d="M0 0 C1.98 0.495 1.98 0.495 4 1 C4 1.66 4 2.32 4 3 C4.99 3.33 5.98 3.66 7 4 C4.13822943 5.43088528 2.06624227 4.59991697 -1 4 C-0.67 2.68 -0.34 1.36 0 0 Z " fill="#FBCF33" transform="translate(71,115)"/>
<path d="M0 0 C0.99 0 1.98 0 3 0 C3 1.98 3 3.96 3 6 C2.01 6 1.02 6 0 6 C0 4.02 0 2.04 0 0 Z " fill="#F9DA7A" transform="translate(99,120)"/>
</svg>
