<?xml version="1.0" encoding="UTF-8"?>
<svg version="1.1" xmlns="http://www.w3.org/2000/svg" width="512" height="512">
<path d="M0 0 C2.05778403 1.5879203 2.88971519 2.49293093 3.44677734 5.05419922 C3.49092332 12.46006659 1.38439944 18.31834607 -1.375 25.125 C-2.3033147 27.52877295 -3.22492707 29.93514254 -4.140625 32.34375 C-4.49636093 33.27823471 -4.49636093 33.27823471 -4.85928345 34.2315979 C-14.93998709 60.930375 -21.87463772 88.78829458 -27.33032227 116.76269531 C-32.0692654 140.95200559 -40.52058192 159.49613518 -58 177 C-58.82886719 177.84046875 -59.65773438 178.6809375 -60.51171875 179.546875 C-72.75136192 191.3179254 -87.58219888 200.0650245 -103 207 C-103.65226563 207.29712891 -104.30453125 207.59425781 -104.9765625 207.90039062 C-142.16872343 224.63686304 -182.81478239 229.73947391 -223.25 227.51171875 C-224.08937607 227.46602753 -224.92875214 227.4203363 -225.79356384 227.3732605 C-230.02324466 227.14087447 -234.25136909 226.89493738 -238.47875977 226.62402344 C-252.86420771 225.75012628 -267.37458127 225.8285586 -281.625 228.25 C-282.39803467 228.37858398 -283.17106934 228.50716797 -283.9675293 228.63964844 C-301.45187277 231.72564486 -318.27890923 237.04333348 -331 250 C-331.66 249.67 -332.32 249.34 -333 249 C-317.13429495 195.62758487 -296.06078995 134.51123303 -244.21875 105.76220703 C-242.48684356 104.82711107 -240.74351458 103.91326954 -239 103 C-237.98679687 102.46632813 -236.97359375 101.93265625 -235.9296875 101.3828125 C-213.09784001 90.11287244 -187.24770888 87.44639931 -162.3671875 83.6875 C-120.65259592 77.97015213 -120.65259592 77.97015213 -85 57 C-84.34 56.01 -83.68 55.02 -83 54 C-82.34 54.33 -81.68 54.66 -81 55 C-83.94397887 71.19188377 -91.29475913 83.70807978 -103 95 C-103.76828125 95.78761719 -104.5365625 96.57523437 -105.328125 97.38671875 C-118.87095143 110.58406492 -136.55080631 116.92539628 -153.81982422 123.73339844 C-174.33703059 131.4112646 -174.33703059 131.4112646 -191 145 C-191.62936459 147.0837149 -191.62936459 147.0837149 -192 149 C-171.64973558 151.27152086 -149.75035461 152.01270876 -130 146 C-128.7934375 145.649375 -127.586875 145.29875 -126.34375 144.9375 C-102.35059409 137.15593592 -81.83049666 122.59784335 -70 100 C-65.52397354 91.01942223 -62.16836758 81.57947074 -58.88671875 72.11328125 C-58.60927322 71.31453583 -58.3318277 70.51579041 -58.04597473 69.69284058 C-56.65118977 65.66796911 -55.27241035 61.63864642 -53.91918945 57.59960938 C-48.95486141 42.96328949 -42.94745269 29.01164741 -33 17 C-32.11441406 15.92685547 -32.11441406 15.92685547 -31.2109375 14.83203125 C-24.35365021 7.28901523 -10.45957247 -2.95596613 0 0 Z " fill="#00B9C5" transform="translate(433,168)"/>
<path d="M0 0 C7.65956214 6.48536479 16.83192485 14.57986533 21.37744141 23.67089844 C23.29414867 23.52559966 25.21080438 23.37962075 27.12744141 23.23339844 C28.91021484 23.09804687 28.91021484 23.09804687 30.72900391 22.95996094 C33.98978236 22.70161232 37.24523895 22.40761651 40.50244141 22.10839844 C65.76871553 20.06334753 90.2570066 24.96880995 110.03759766 41.63964844 C110.80974609 42.30996094 111.58189453 42.98027344 112.37744141 43.67089844 C113.55113281 44.64542969 113.55113281 44.64542969 114.74853516 45.63964844 C119.81297018 49.94399119 125.30503782 54.68723132 128.37744141 60.67089844 C128.36123422 65.54926279 125.33449651 68.75423979 122.37744141 72.35839844 C121.88630859 72.9676416 121.39517578 73.57688477 120.88916016 74.20458984 C119.39914908 76.03870877 117.89264905 77.85755966 116.37744141 79.67089844 C115.93142578 80.20634277 115.48541016 80.74178711 115.02587891 81.29345703 C109.89373381 87.39575073 109.89373381 87.39575073 107.37744141 89.67089844 C106.38744141 89.67089844 105.39744141 89.67089844 104.37744141 89.67089844 C102.79931641 87.51074219 102.79931641 87.51074219 101.12744141 84.60839844 C92.49435608 70.61314831 78.4491589 61.81611002 62.56884766 57.99511719 C42.04396157 53.81043168 22.44275601 60.30082014 5.29541016 71.60449219 C3.37744141 72.67089844 3.37744141 72.67089844 0.37744141 72.67089844 C0.10931641 71.76210937 -0.15880859 70.85332031 -0.43505859 69.91699219 C-4.79287738 55.94043524 -10.77053338 43.65117194 -20.62255859 32.67089844 C-21.13947266 32.06117188 -21.65638672 31.45144531 -22.18896484 30.82324219 C-34.19588874 17.61261665 -52.8013259 9.90215198 -70.35302734 8.70996094 C-89.38824947 8.48253893 -107.38520106 16.78147846 -121.01708984 29.82324219 C-133.3998215 43.35699238 -138.90661289 59.1906742 -138.09912109 77.46777344 C-135.74879865 108.86052249 -118.86453845 143.80792865 -101.62255859 169.67089844 C-101.62255859 170.66089844 -101.62255859 171.65089844 -101.62255859 172.67089844 C-103.96630859 174.65136719 -103.96630859 174.65136719 -107.12255859 176.85839844 C-120.09644021 186.2545244 -129.06312574 198.0687439 -135.62255859 212.67089844 C-136.28255859 212.67089844 -136.94255859 212.67089844 -137.62255859 212.67089844 C-137.70892578 211.36121094 -137.79529297 210.05152344 -137.88427734 208.70214844 C-139.82019412 182.44916889 -146.53069029 157.4397277 -154.56396484 132.45214844 C-154.82334839 131.64513489 -155.08273193 130.83812134 -155.34997559 130.00665283 C-155.61217896 129.19105896 -155.87438232 128.37546509 -156.14453125 127.53515625 C-156.67901854 125.87211686 -157.21336076 124.20903083 -157.74755859 122.54589844 C-158.01091003 121.72617554 -158.27426147 120.90645264 -158.54559326 120.06188965 C-168.53878242 88.84061066 -176.94577293 53.66857557 -161.62255859 22.67089844 C-160.99414062 21.30578125 -160.99414062 21.30578125 -160.35302734 19.91308594 C-149.62467936 -1.79094946 -127.25624599 -15.42215739 -105.23974609 -23.58300781 C-67.89699371 -35.77564142 -29.71552346 -24.34115404 0 0 Z " fill="#77787A" transform="translate(263.62255859375,103.3291015625)"/>
</svg>
