<?xml version="1.0" encoding="utf-8"?>
<!-- Generator: Adobe Illustrator 19.2.0, SVG Export Plug-In . SVG Version: 6.00 Build 0)  -->
<svg version="1.1" id="Layer_1" xmlns="http://www.w3.org/2000/svg" xmlns:xlink="http://www.w3.org/1999/xlink" x="0px" y="0px"
	 viewBox="0 0 752 217" style="enable-background:new 0 0 752 217;" xml:space="preserve">
<style type="text/css">
	.st0{clip-path:url(#SVGID_2_);fill:url(#SVGID_3_);}
	.st1{clip-path:url(#SVGID_5_);fill:url(#SVGID_6_);}
	.st2{clip-path:url(#SVGID_8_);fill:url(#SVGID_9_);}
	.st3{clip-path:url(#SVGID_11_);fill:url(#SVGID_12_);}
	.st4{clip-path:url(#SVGID_14_);fill:url(#SVGID_15_);}
	.st5{clip-path:url(#SVGID_17_);fill:url(#SVGID_18_);}
	.st6{clip-path:url(#SVGID_20_);fill:url(#SVGID_21_);}
	.st7{clip-path:url(#SVGID_23_);fill:url(#SVGID_24_);}
</style>
<g>
	<defs>
		<path id="SVGID_1_" d="M6.3,110.7c0,35.8,23.5,58.4,60.2,58.4c13.5,0,25.4-2.6,31.6-5.3L94,137.5c-5.3,2.3-11.9,3.7-20.2,3.7
			c-17.2,0-31.2-10.9-31.2-31.9c-0.2-18.6,11.9-31.9,30.5-31.9c9.3,0,15.6,1.6,19.8,3.5l5.6-26.3c-7.4-2.8-17.7-4.4-27-4.4
			C29.1,50.3,6.3,77.5,6.3,110.7"/>
	</defs>
	<clipPath id="SVGID_2_">
		<use href="#SVGID_1_"  style="overflow:visible;"/>
	</clipPath>
	
		<linearGradient id="SVGID_3_" gradientUnits="userSpaceOnUse" x1="-135" y1="492" x2="-134" y2="492" gradientTransform="matrix(-7.000000e-06 159.5997 159.5997 7.000000e-06 -78470.6797 21573.332)">
		<stop  offset="0" style="stop-color:#008BD5"/>
		<stop  offset="1" style="stop-color:#006FB1"/>
	</linearGradient>
	<rect x="6.3" y="50.3" class="st0" width="92.1" height="118.8"/>
</g>
<g>
	<defs>
		<path id="SVGID_4_" d="M113.1,166.6h35.3V52.8h-35.3V166.6z M112.1,21.2c-0.2,9.8,7.2,17.7,18.4,17.7c11.6,0,19.1-7.9,19.1-17.7
			c-0.2-10.2-7.4-17.9-18.8-17.9C119.3,3.3,111.9,11,112.1,21.2"/>
	</defs>
	<clipPath id="SVGID_5_">
		<use href="#SVGID_4_"  style="overflow:visible;"/>
	</clipPath>
	
		<linearGradient id="SVGID_6_" gradientUnits="userSpaceOnUse" x1="-135" y1="491.9993" x2="-134" y2="491.9993" gradientTransform="matrix(-7.000000e-06 159.5972 159.5972 7.000000e-06 -78390.9609 21572.9961)">
		<stop  offset="0" style="stop-color:#008BD5"/>
		<stop  offset="1" style="stop-color:#006FB1"/>
	</linearGradient>
	<rect x="111.9" y="3.3" class="st1" width="37.7" height="163.3"/>
</g>
<g>
	<defs>
		<path id="SVGID_7_" d="M204.2,68.4h-0.7l-1.6-15.6h-30.7c0.5,10,0.9,22.1,0.9,36.3v77.4h35.4V101c0-3.3,0.5-6.5,1.4-8.8
			c2.3-6.5,8.1-13.3,17.9-13.3c12.8,0,17.9,10,17.9,24.7v63H280V99.1c0-33.5-17.4-48.8-40.7-48.8C220.5,50.3,208.9,61.2,204.2,68.4"
			/>
	</defs>
	<clipPath id="SVGID_8_">
		<use href="#SVGID_7_"  style="overflow:visible;"/>
	</clipPath>
	
		<linearGradient id="SVGID_9_" gradientUnits="userSpaceOnUse" x1="-135" y1="492" x2="-134" y2="492" gradientTransform="matrix(-7.000000e-06 159.5985 159.5985 7.000000e-06 -78296.8281 21573.1699)">
		<stop  offset="0" style="stop-color:#008BD5"/>
		<stop  offset="1" style="stop-color:#006FB1"/>
	</linearGradient>
	<rect x="171.2" y="50.3" class="st2" width="108.8" height="116.3"/>
</g>
<g>
	<defs>
		<path id="SVGID_10_" d="M292.7,110.7c0,35.8,23.5,58.4,60.2,58.4c13.5,0,25.3-2.6,31.6-5.3l-4.2-26.3c-5.3,2.3-11.9,3.7-20.2,3.7
			c-17.2,0-31.2-10.9-31.2-31.9c-0.2-18.6,11.9-31.9,30.5-31.9c9.3,0,15.6,1.6,19.8,3.5l5.6-26.3c-7.4-2.8-17.7-4.4-27-4.4
			C315.5,50.3,292.7,77.5,292.7,110.7"/>
	</defs>
	<clipPath id="SVGID_11_">
		<use href="#SVGID_10_"  style="overflow:visible;"/>
	</clipPath>
	
		<linearGradient id="SVGID_12_" gradientUnits="userSpaceOnUse" x1="-135" y1="492" x2="-134" y2="492" gradientTransform="matrix(-7.000000e-06 159.5997 159.5997 7.000000e-06 -78184.3125 21573.332)">
		<stop  offset="0" style="stop-color:#008BD5"/>
		<stop  offset="1" style="stop-color:#006FB1"/>
	</linearGradient>
	<rect x="292.7" y="50.3" class="st3" width="92.1" height="118.8"/>
</g>
<g>
	<defs>
		<path id="SVGID_13_" d="M555.7,125.2c-0.5-2.1-0.7-4.6-0.7-7.4v-15.6c0-2.1,0.2-4.4,0.7-6.3c2.3-10.5,11.2-17.9,21.2-17.9
			c15.8,0,23.9,13.7,23.9,31.9c0,19.3-9.1,32.1-24.4,32.1C566.2,141.9,558.1,134.7,555.7,125.2 M551.5,68.6h-0.5l-1.6-15.8h-30.7
			c0.5,10.5,0.9,23.3,0.9,38.1v121.6H555v-56.5h0.5c5.1,7.4,15.8,13,29.5,13c25.3,0,51.6-19.5,51.6-60.9c0-36.3-22.3-57.9-47.2-57.9
			C572.9,50.3,559.9,56.6,551.5,68.6"/>
	</defs>
	<clipPath id="SVGID_14_">
		<use href="#SVGID_13_"  style="overflow:visible;"/>
	</clipPath>
	
		<linearGradient id="SVGID_15_" gradientUnits="userSpaceOnUse" x1="-135" y1="492" x2="-134" y2="492" gradientTransform="matrix(-6.500000e-06 147.85 147.85 6.500000e-06 -72164.5234 19994.0645)">
		<stop  offset="0" style="stop-color:#696A6D"/>
		<stop  offset="1" style="stop-color:#3C3A3C"/>
	</linearGradient>
	<rect x="518.7" y="50.3" class="st4" width="117.9" height="162.3"/>
</g>
<g>
	<defs>
		<path id="SVGID_16_" d="M676.9,130.7c0-13.7,14.4-18.1,33-17.9v12.3c0,2.1-0.2,4.2-0.7,6.1c-2.3,7.2-9.5,13-18.4,13
			C682.9,144.2,676.9,139.8,676.9,130.7 M650.1,60.3l6.5,22.8c7.4-4.6,19.8-8.6,31.4-8.6c17.4,0,20.7,8.6,20.7,14.7v1.6
			c-40.2-0.2-66.7,14-66.7,43.5c0,18.1,13.7,34.9,36.7,34.9c13.5,0,25.1-4.9,32.6-14h0.7l2.1,11.4H746c-1.2-6.3-1.6-16.7-1.6-27.7
			V99.3c0-26.7-12.1-49.1-50-49.1C673.6,50.3,658,55.9,650.1,60.3"/>
	</defs>
	<clipPath id="SVGID_17_">
		<use href="#SVGID_16_"  style="overflow:visible;"/>
	</clipPath>
	
		<linearGradient id="SVGID_18_" gradientUnits="userSpaceOnUse" x1="-135" y1="492" x2="-134" y2="492" gradientTransform="matrix(-6.500000e-06 147.8503 147.8503 6.500000e-06 -72048.3828 19994.1035)">
		<stop  offset="0" style="stop-color:#696A6D"/>
		<stop  offset="1" style="stop-color:#3C3A3C"/>
	</linearGradient>
	<rect x="642" y="50.3" class="st5" width="103.9" height="118.8"/>
</g>
<g>
	<defs>
		<path id="SVGID_19_" d="M391.7,113.7c0,12.3,3.7,24,10.6,34.1c9.9,14.6,28.3,21.1,45.6,16.6c10.9-2.9,20.8-14.2,20.5-26
			c-0.3-15.8-15.3-21.2-27.7-25.9c-10.3-3.9-19.9-16.7-18.8-28c1.9-19.9,24.3-26.4,43-30.2c-4-0.8-8.2-1.3-12.5-1.3
			C418.9,53,391.7,80.2,391.7,113.7"/>
	</defs>
	<clipPath id="SVGID_20_">
		<use href="#SVGID_19_"  style="overflow:visible;"/>
	</clipPath>
	
		<linearGradient id="SVGID_21_" gradientUnits="userSpaceOnUse" x1="-135" y1="492.0007" x2="-134" y2="492.0007" gradientTransform="matrix(-7.000000e-06 159.5981 159.5981 7.000000e-06 -78092.1641 21573.123)">
		<stop  offset="0" style="stop-color:#008BD5"/>
		<stop  offset="1" style="stop-color:#006FB1"/>
	</linearGradient>
	<rect x="391.7" y="53" class="st6" width="76.9" height="115.9"/>
</g>
<g>
	<defs>
		<path id="SVGID_22_" d="M461.8,67.6c-7.8,0.8-17.8,4.2-23.6,9.8c-3,2.9-8.2,9-6,13.4c1.9,4,9.1,5.4,12.8,6.4
			c10.7,3,22.9,5.6,31.1,13.8c9.7,9.6,10.4,24.3,4.7,36.3c-3.8,8-9.8,16.1-16.2,22.2c-1.6,1.5-3.2,3-4.9,4.5
			c30-3.7,53.3-29.2,53.3-60.2c0-12-3.1-26.7-11.6-35.7c-7.6-8-20.8-10.8-32.4-10.8C466.6,67.2,464.1,67.3,461.8,67.6"/>
	</defs>
	<clipPath id="SVGID_23_">
		<use href="#SVGID_22_"  style="overflow:visible;"/>
	</clipPath>
	
		<linearGradient id="SVGID_24_" gradientUnits="userSpaceOnUse" x1="-135" y1="491.9944" x2="-134" y2="491.9944" gradientTransform="matrix(-6.500000e-06 147.8479 147.8479 6.500000e-06 -72268.7031 19993.7734)">
		<stop  offset="0" style="stop-color:#696A6D"/>
		<stop  offset="1" style="stop-color:#3C3A3C"/>
	</linearGradient>
	<rect x="430.1" y="67.2" class="st7" width="83.1" height="106.7"/>
</g>
</svg>
