<svg version="1.1" id="Layer_1" xmlns:x="ns_extend;" xmlns:i="ns_ai;" xmlns:graph="ns_graphs;" xmlns="http://www.w3.org/2000/svg" xmlns:xlink="http://www.w3.org/1999/xlink" x="0px" y="0px" viewBox="0 0 267.2 56" style="enable-background:new 0 0 267.2 56;" xml:space="preserve">
 <style type="text/css">
  .st0{fill-rule:evenodd;clip-rule:evenodd;fill:#FFFFFF;}
 </style>
 <metadata>
  <sfw xmlns="ns_sfw;">
   <slices>
   </slices>
   <sliceSourceBounds bottomLeftOrigin="true" height="56" width="267.2" x="-118.1" y="-212.2">
   </sliceSourceBounds>
  </sfw>
 </metadata>
 <g>
  <path class="st0" d="M236.8,45.2c8,0,14.8-5.5,16.7-13c0-0.1,0-0.1,0-0.2c0-0.5-0.4-0.8-0.8-0.8h-6.9c-0.3,0-0.6,0.2-0.7,0.5l0,0
		c-1.4,3.1-4.6,5.3-8.2,5.3c-5,0-9-4-9-9c0-5,4-9,9-9c3.6,0,6.8,2.2,8.2,5.3l0,0c0.1,0.3,0.4,0.5,0.7,0.5h6.9c0.5,0,0.8-0.4,0.8-0.8
		c0-0.1,0-0.1,0-0.2c-1.9-7.5-8.6-13-16.7-13c-9.5,0-17.2,7.7-17.2,17.2C219.6,37.5,227.3,45.2,236.8,45.2z M266.4,11.6v32
		c0,0.5-0.4,0.8-0.8,0.8H259c-0.5,0-0.8-0.4-0.8-0.8v-32H266.4z M262.3,0.1c-2.7,0-4.9,2.2-4.9,4.9c0,2.7,2.2,4.9,4.9,4.9
		s4.9-2.2,4.9-4.9C267.2,2.3,265,0.1,262.3,0.1z M185.7,24.7c1.4-5.2,6.2-9,11.8-9c5.6,0,10.4,3.8,11.8,9H185.7z M197.5,10.8
		c-9.5,0-17.2,7.7-17.2,17.2c0,9.5,7.7,17.2,17.2,17.2c6.7,0,12.5-3.9,15.4-9.5c0.1-0.1,0.1-0.2,0.1-0.4c0-0.5-0.4-0.8-0.8-0.8h-3.8
		c-0.3,0-0.5,0.1-0.7,0.3c-2.2,3.3-5.9,5.4-10.2,5.4c-6.2,0-11.4-4.6-12.2-10.7h28.5c0.4,0,0.8-0.3,0.8-0.8c0-0.3,0-0.6,0-0.9
		C214.7,18.5,207,10.8,197.5,10.8z M174.6,0.9h-3.3c-0.5,0-0.8,0.4-0.8,0.8v41.8c0,0.5,0.4,0.8,0.8,0.8h3.3c0.5,0,0.8-0.4,0.8-0.8
		V1.7C175.4,1.3,175,0.9,174.6,0.9z M164.8,34.6H161c-0.3,0-0.5,0.1-0.6,0.3c-2.2,3.3-5.9,5.4-10.2,5.4c-6.8,0-12.3-5.5-12.3-12.3
		c0-6.8,5.5-12.3,12.3-12.3c4.2,0,8,2.2,10.2,5.4c0.1,0.2,0.4,0.3,0.6,0.3h3.8c0.5,0,0.8-0.4,0.8-0.8c0-0.1,0-0.3-0.1-0.4
		c-2.8-5.6-8.6-9.5-15.4-9.5c-9.5,0-17.2,7.7-17.2,17.2c0,9.5,7.7,17.2,17.2,17.2c6.7,0,12.5-3.9,15.4-9.5c0.1-0.1,0.1-0.2,0.1-0.4
		C165.6,34.9,165.2,34.6,164.8,34.6z M132.1,10.8c-5,0.2-8.9,2.6-11.5,6.2v-4.6c0-0.5-0.4-0.8-0.8-0.8h-3.3c-0.5,0-0.8,0.4-0.8,0.8
		v31.2c0,0.5,0.4,0.8,0.8,0.8h3.3c0.5,0,0.8-0.4,0.8-0.8V28c0-6.5,5.1-11.9,11.5-12.3c0.5,0,0.8-0.4,0.8-0.8v-3.3
		C132.9,11.2,132.6,10.8,132.1,10.8z M110.8,43.6v-32h-4.9v32c0,0.5,0.4,0.8,0.8,0.8h3.3C110.5,44.4,110.8,44,110.8,43.6z M111.6,5
		c0,1.8-1.5,3.3-3.3,3.3c-1.8,0-3.3-1.5-3.3-3.3s1.5-3.3,3.3-3.3C110.2,1.7,111.6,3.2,111.6,5z M100.2,34.6h-3.8
		c-0.3,0-0.5,0.1-0.6,0.3c-2.2,3.3-5.9,5.4-10.2,5.4c-6.8,0-12.3-5.5-12.3-12.3c0-6.8,5.5-12.3,12.3-12.3c4.2,0,8,2.2,10.2,5.4
		c0.1,0.2,0.4,0.3,0.6,0.3h3.8c0.5,0,0.8-0.4,0.8-0.8c0-0.1,0-0.3-0.1-0.4c-2.8-5.6-8.6-9.5-15.4-9.5c-9.5,0-17.2,7.7-17.2,17.2
		c0,9.5,7.7,17.2,17.2,17.2c6.7,0,12.5-3.9,15.4-9.5c0.1-0.1,0.1-0.2,0.1-0.4C101,34.9,100.6,34.6,100.2,34.6z M27.1,0
		C14.1,0,3.1,9,0,21.1c0,0.1,0,0.2,0,0.3c0,0.7,0.6,1.3,1.3,1.3h11.3c0.5,0,1-0.3,1.2-0.8l0,0c2.3-5,7.4-8.6,13.3-8.6
		c8.1,0,14.6,6.6,14.6,14.7c0,8.1-6.6,14.7-14.6,14.7c-5.9,0-11-3.5-13.3-8.6l0,0c-0.2-0.5-0.7-0.8-1.2-0.8H1.3
		c-0.7,0-1.3,0.6-1.3,1.3c0,0.1,0,0.2,0,0.3C3.1,47,14.1,56,27.1,56c15.4,0,27.9-12.5,27.9-28C55.1,12.5,42.5,0,27.1,0z M20.5,28
		c0-3.7,3-6.7,6.7-6.7c3.7,0,6.7,3,6.7,6.7c0,3.7-3,6.7-6.7,6.7C23.4,34.7,20.5,31.7,20.5,28z">
  </path>
 </g>
</svg>