<?xml version="1.0" encoding="utf-8"?>
<svg version="1.1" id="cm-logo-white" xmlns="http://www.w3.org/2000/svg" xmlns:xlink="http://www.w3.org/1999/xlink" x="0px"
	 y="0px" viewBox="0 0 200 35" style="enable-background:new 0 0 200 35;" xml:space="preserve">
<style type="text/css">
	.st0{fill:#FFFFFF;}
	.st1{fill:#6EBE3B;}
</style>
<g>
	<g>
		<path class="st0" d="M35.1,33.8c0,0-4.7-1.2-6.2-6.6c1-1,2-2.3,2.7-4c0.1-0.2,0.1-0.3,0.1-0.3l-14.4-6.5V26l0,5.2h0v1.2
			c0,0,2.3,0.1,5-0.8C23.8,32.5,28.8,35.4,35.1,33.8z"/>
		<path class="st1" d="M17.3,6.8c5.3,0,9.7,4.3,9.7,9.7c0,0.8-0.1,1.6-0.3,2.4l5.6,2.5c0.5-1.6,0.8-3.2,0.8-4.9
			C33,7.8,26,0.7,17.3,0.7C8.6,0.7,1.5,7.8,1.5,16.5c0,8.2,6.2,14.9,14.2,15.7V26c-4.6-0.8-8-4.7-8-9.5C7.6,11.2,11.9,6.8,17.3,6.8z
			"/>
	</g>
	<g>
		<path class="st0" d="M42,23.6c1.8,1.8,4.3,2.8,7.1,2.8c2.5,0,4.8-0.8,6.6-2.3c1.6-1.4,2.8-3.3,3.3-5.7h-4.2
			c-0.4,1.3-1.1,2.3-2.1,3c-1,0.7-2.3,1.1-3.5,1.1h0l-0.1,0c-1.5,0-3-0.5-4.1-1.5c-1.1-1-1.9-2.6-1.9-4.6c0-2,0.7-3.6,1.9-4.6
			c1.1-1,2.6-1.5,4.1-1.5l0.1,0c1.2,0,2.4,0.4,3.5,1.1c0.9,0.7,1.7,1.6,2.1,2.9h4.2c-0.4-2.3-1.6-4.2-3.2-5.6
			c-1.8-1.5-4.1-2.3-6.6-2.3c-5.6,0-10,4.3-10,10C39.1,19.3,40.2,21.8,42,23.6z"/>
		<rect x="60.4" y="6.7" class="st0" width="3.8" height="19.4"/>
		<g>
			<path class="st0" d="M69.4,5.8c-0.4-0.4-1-0.6-1.6-0.6l-0.1,0c-0.6,0-1.1,0.2-1.6,0.6c-0.4,0.4-0.7,0.9-0.7,1.7
				c0,0.7,0.3,1.2,0.7,1.6c0.4,0.4,1,0.5,1.6,0.5l0.1,0c0.6,0,1.2-0.2,1.6-0.6c0.4-0.4,0.7-0.9,0.7-1.6C70.1,6.7,69.8,6.2,69.4,5.8z
				"/>
			<rect x="65.9" y="11.3" class="st0" width="3.8" height="14.8"/>
		</g>
		<path class="st0" d="M83.3,12.8c-1.3-1.1-3.1-1.6-4.8-1.6c-1.9,0-3.8,0.6-5.2,1.9C72,14.3,71,16.2,71,18.7c0,2.5,0.9,4.4,2.3,5.7
			c1.4,1.3,3.3,1.9,5.2,1.9c1.7,0,3.4-0.5,4.8-1.6c1.3-1,2.2-2.4,2.6-4.4h-3.8c-0.3,0.8-0.8,1.4-1.4,1.8c-0.7,0.5-1.4,0.7-2.2,0.7
			c-1,0-1.9-0.4-2.7-1.1c-0.7-0.7-1.2-1.8-1.2-3.1c0-1.3,0.5-2.4,1.2-3.1c0.7-0.7,1.7-1.1,2.7-1.1c0.8,0,1.6,0.2,2.2,0.7
			c0.6,0.4,1.1,1.1,1.4,1.9h3.8C85.5,15.2,84.6,13.8,83.3,12.8z"/>
		<polygon class="st0" points="100.3,26.2 94.7,18.7 99.8,11.4 95.7,11.4 91.5,17.3 90.8,18.4 90.8,17.1 90.8,16.6 90.8,6.8 87,6.8
			87,26.2 90.8,26.2 90.8,20.9 90.8,19.3 95.8,26.2 		"/>
		<polygon class="st0" points="118.7,26.2 118.7,6.8 115.5,6.8 110,14.9 104.5,6.8 101.1,6.8 101.1,26.2 105.3,26.2 105.3,15.2
			108.8,20.5 111.1,20.5 114.6,15.3 114.6,26.2 		"/>
		<path class="st0" d="M133,13.1c-1.4-1.3-3.3-1.9-5.2-1.9l-0.1,0c-1.9,0-3.9,0.6-5.3,1.9c-1.4,1.3-2.4,3.1-2.4,5.7
			c0,2.5,0.9,4.4,2.3,5.7c1.4,1.3,3.3,1.9,5.2,2h0l0.2,0c1.5,0,3.1-0.4,4.4-1.2c1.1-0.7,2.1-1.7,2.7-3.1h-4.2
			c-0.7,0.7-1.7,1.1-2.8,1.1h0h0c-0.8,0-1.5-0.2-2.2-0.6c-0.7-0.4-1.2-1-1.5-1.8l-0.2-0.5h11.4c0.1-0.4,0.1-0.9,0.1-1.4
			C135.4,16.2,134.4,14.3,133,13.1z M124.1,17.4l0.2-0.5c0.3-0.8,0.7-1.5,1.3-1.9c0.6-0.4,1.3-0.6,2.1-0.6c0.8,0,1.6,0.2,2.2,0.6
			c0.6,0.4,1.1,1.1,1.4,1.9l0.1,0.5H124.1z"/>
		<path class="st0" d="M149.5,13c-1.4-1.3-3.3-1.9-5.2-1.9l-0.1,0c-1.9,0-3.9,0.6-5.3,1.9c-1.4,1.3-2.4,3.1-2.4,5.7
			c0,2.5,0.9,4.4,2.3,5.7c1.4,1.3,3.3,1.9,5.2,2h0l0.2,0c1.5,0,3.1-0.4,4.4-1.2c1.1-0.7,2.1-1.7,2.7-3.1H147
			c-0.7,0.7-1.7,1.1-2.8,1.1h0h0c-0.8,0-1.5-0.2-2.2-0.6c-0.7-0.4-1.2-1-1.5-1.8l-0.2-0.5h11.4c0.1-0.4,0.1-0.9,0.1-1.4
			C151.8,16.1,150.9,14.3,149.5,13z M140.5,17.3l0.2-0.5c0.3-0.8,0.7-1.5,1.3-1.9c0.6-0.4,1.3-0.6,2.1-0.6c0.8,0,1.6,0.2,2.2,0.6
			c0.6,0.4,1.1,1.1,1.4,1.9l0.1,0.5H140.5z"/>
		<path class="st0" d="M155.3,25.2c0.8,0.8,2.1,1.2,3.8,1.2l0.1,0h0c0.6,0,1.3-0.1,2.1-0.2l-0.1-2.9c-0.3,0-0.6,0.1-0.9,0.1
			c-0.6,0-1.2-0.1-1.7-0.5c-0.5-0.4-0.8-1-0.8-1.8v-6.5h3.3v-3.1h-3.3V8.2L154,8.5v3h-2v3.1h2v6.5C154,23.1,154.5,24.4,155.3,25.2z"
			/>
		<g>
			<rect x="162.3" y="11.3" class="st0" width="3.8" height="14.8"/>
			<path class="st0" d="M165.8,5.8c-0.4-0.4-1-0.6-1.6-0.6l-0.1,0c-0.6,0-1.1,0.2-1.6,0.6c-0.4,0.4-0.7,0.9-0.7,1.7
				c0,0.7,0.3,1.2,0.7,1.6c0.4,0.4,1,0.5,1.6,0.5l0.1,0c0.6,0,1.2-0.2,1.6-0.6c0.4-0.4,0.7-0.9,0.7-1.6
				C166.5,6.7,166.2,6.2,165.8,5.8z"/>
		</g>
		<path class="st0" d="M175.3,14.5c0.7,0,1.4,0.3,2,0.9c0.5,0.6,0.8,1.5,0.8,2.6v8.2h3.8v-8.2v-0.1c0-1.4-0.2-2.7-0.6-3.8
			c-0.4-1.1-1.1-1.9-2.1-2.4c-0.7-0.3-1.5-0.5-2.6-0.6c-0.8,0-1.6,0.1-2.4,0.4c-0.8,0.3-1.4,0.7-1.9,1.3l-0.7,0.9v-2.3h-3.8v14.8h4
			V18c0-1.1,0.5-2,1.1-2.6C173.7,14.8,174.5,14.5,175.3,14.5z"/>
		<path class="st0" d="M185.9,31.8c1.4,1,3.2,1.6,5.1,1.6c1.9,0,3.8-0.6,5.2-1.8c1.4-1.2,2.3-3.1,2.3-5.9V11.3h-3.7v2.3l-0.7-0.9
			c-0.5-0.6-1-1-1.7-1.2c-0.6-0.2-1.3-0.3-2.1-0.3h0l-0.1,0c-2.4,0-4.1,0.9-5.3,2.2c-1.2,1.4-1.8,3.3-1.8,5.5c0,2.1,0.6,3.9,1.8,5.1
			c1.2,1.3,2.9,2.1,5.4,2.1c0.7,0,1.5-0.1,2.1-0.3c0.6-0.2,1.2-0.6,1.6-1.1l0.7-0.8v1.9l0,0c-0.1,1.5-0.6,2.5-1.4,3.1
			c-0.8,0.6-1.7,0.9-2.6,0.9l-0.1,0c-0.6,0-1.1-0.1-1.6-0.3c-0.5-0.2-0.9-0.5-1.2-0.9c-0.1-0.1-0.2-0.3-0.2-0.5h-4
			C183.8,29.6,184.6,30.8,185.9,31.8z M193.5,21.6c-0.7,0.6-1.7,0.9-2.7,1h0h0c-0.9,0-1.9-0.3-2.6-0.9c-0.7-0.6-1.2-1.6-1.3-2.8l0,0
			l0-0.1c0-1,0.3-2,1-2.8c0.6-0.8,1.7-1.3,2.9-1.3c1.1,0,2.1,0.5,2.8,1.2c0.7,0.8,1.1,1.8,1.1,2.9C194.8,20,194.3,21,193.5,21.6z"/>
	</g>
</g>
</svg>
