<svg width="4224" height="912" viewBox="0 0 4224 912" fill="none" xmlns="http://www.w3.org/2000/svg">
<path d="M1126.79 736C1111.95 736 1099.75 732.555 1090.21 725.665C1080.67 718.775 1075.91 711.09 1075.91 702.61V169.96C1075.91 160.42 1080.67 152.735 1090.21 146.905C1099.75 141.075 1111.95 138.16 1126.79 138.16C1141.1 138.16 1153.28 141.075 1163.35 146.905C1173.42 152.735 1178.46 160.42 1178.46 169.96V702.61C1178.46 711.09 1173.42 718.775 1163.35 725.665C1153.28 732.555 1141.1 736 1126.79 736Z" fill="black"/>
<path d="M1422.58 743.155C1391.84 743.155 1363.49 735.735 1337.52 720.895C1311.55 705.525 1290.61 685.385 1274.71 660.475C1258.81 635.565 1250.86 608.8 1250.86 580.18V514.99C1250.86 486.37 1258.55 459.87 1273.92 435.49C1289.29 410.58 1309.96 390.705 1335.93 375.865C1362.43 361.025 1391.31 353.605 1422.58 353.605C1453.85 353.605 1482.47 361.025 1508.44 375.865C1534.94 390.175 1555.88 409.52 1571.25 433.9C1587.15 458.28 1595.1 485.31 1595.1 514.99V580.18C1595.1 608.27 1587.15 634.77 1571.25 659.68C1555.35 684.59 1534.15 704.73 1507.65 720.1C1481.68 735.47 1453.32 743.155 1422.58 743.155ZM1422.58 653.32C1435.3 653.32 1446.96 649.875 1457.56 642.985C1468.16 636.095 1476.64 627.085 1483 615.955C1489.36 604.295 1492.54 592.37 1492.54 580.18V514.99C1492.54 502.8 1489.36 491.405 1483 480.805C1476.64 470.205 1468.16 461.46 1457.56 454.57C1447.49 447.15 1435.83 443.44 1422.58 443.44C1409.86 443.44 1398.2 446.885 1387.6 453.775C1377 460.665 1368.52 469.675 1362.16 480.805C1356.33 491.405 1353.42 502.8 1353.42 514.99V580.18C1353.42 592.37 1356.33 604.295 1362.16 615.955C1368.52 627.085 1377 636.095 1387.6 642.985C1398.2 649.875 1409.86 653.32 1422.58 653.32Z" fill="black"/>
<path d="M1829.68 743.155C1797.88 743.155 1768.73 735.735 1742.23 720.895C1716.26 705.525 1695.32 685.65 1679.42 661.27C1664.05 636.36 1656.37 609.86 1656.37 581.77V390.97C1656.37 383.02 1661.4 375.6 1671.47 368.71C1682.07 361.82 1694.26 358.375 1708.04 358.375C1721.82 358.375 1733.75 361.82 1743.82 368.71C1753.89 375.6 1758.92 383.02 1758.92 390.97V581.77C1758.92 593.96 1762.1 605.355 1768.46 615.955C1774.82 626.555 1783.3 635.565 1793.9 642.985C1804.5 649.875 1816.16 653.32 1828.88 653.32C1842.13 653.32 1853.79 649.875 1863.86 642.985C1874.46 636.095 1882.94 627.085 1889.3 615.955C1895.66 604.825 1898.84 593.43 1898.84 581.77V390.175C1898.84 381.695 1903.88 374.275 1913.95 367.915C1924.55 361.555 1936.47 358.375 1949.72 358.375C1965.09 358.375 1977.55 361.555 1987.09 367.915C1996.63 374.275 2001.4 381.695 2001.4 390.175V581.77C2001.4 610.39 1993.45 637.155 1977.55 662.065C1962.18 686.445 1941.24 706.055 1914.74 720.895C1888.77 735.735 1860.42 743.155 1829.68 743.155Z" fill="black"/>
<path d="M2202.86 743.155C2177.95 743.155 2154.9 735.47 2133.7 720.1C2112.5 704.73 2095.54 684.59 2082.82 659.68C2070.1 634.77 2063.74 608.27 2063.74 580.18V514.99C2063.74 485.31 2070.1 458.28 2082.82 433.9C2095.54 409.52 2112.5 390.175 2133.7 375.865C2154.9 361.025 2178.48 353.605 2204.45 353.605C2229.36 353.605 2250.56 359.965 2268.05 372.685C2285.54 384.875 2298.53 398.655 2307.01 414.025V169.96C2307.01 160.42 2312.04 152.735 2322.11 146.905C2332.18 141.075 2344.64 138.16 2359.48 138.16C2373.79 138.16 2385.71 141.075 2395.25 146.905C2404.79 152.735 2409.56 160.42 2409.56 169.96V702.61C2409.56 711.09 2404.79 718.775 2395.25 725.665C2385.71 732.555 2373.79 736 2359.48 736C2346.76 736 2335.89 732.555 2326.88 725.665C2317.87 718.775 2313.37 711.09 2313.37 702.61V680.35C2305.42 696.78 2291.11 711.355 2270.44 724.075C2250.3 736.795 2227.77 743.155 2202.86 743.155ZM2235.46 653.32C2249.24 653.32 2261.43 649.61 2272.03 642.19C2282.63 634.24 2291.11 625.76 2297.47 616.75C2303.83 607.21 2307.01 599.79 2307.01 594.49V514.99C2307.01 500.15 2303.3 487.43 2295.88 476.83C2288.99 466.23 2279.98 458.015 2268.85 452.185C2258.25 446.355 2247.38 443.44 2236.25 443.44C2223.53 443.44 2211.61 447.15 2200.48 454.57C2189.88 461.46 2181.4 470.205 2175.04 480.805C2169.21 491.405 2166.29 502.8 2166.29 514.99V580.18C2166.29 592.37 2169.21 604.03 2175.04 615.16C2181.4 626.29 2189.88 635.565 2200.48 642.985C2211.08 649.875 2222.74 653.32 2235.46 653.32Z" fill="black"/>
<path d="M2540.38 911.695C2526.07 911.695 2514.15 908.25 2504.61 901.36C2495.07 894.47 2490.3 887.05 2490.3 879.1V390.175C2490.3 380.635 2495.07 372.95 2504.61 367.12C2514.15 361.29 2525.81 358.375 2539.59 358.375C2553.37 358.375 2564.5 361.29 2572.98 367.12C2581.99 372.95 2586.49 380.635 2586.49 390.175V414.025C2595.5 398.655 2609.28 384.875 2627.83 372.685C2646.38 359.965 2668.38 353.605 2693.82 353.605C2720.85 353.605 2744.96 361.025 2766.16 375.865C2787.89 390.175 2804.85 409.52 2817.04 433.9C2829.76 458.28 2836.12 485.31 2836.12 514.99V580.18C2836.12 608.27 2829.76 634.77 2817.04 659.68C2804.32 684.59 2787.36 704.73 2766.16 720.1C2745.49 735.47 2722.44 743.155 2697 743.155C2673.68 743.155 2652.48 736.795 2633.4 724.075C2614.32 711.355 2600.8 696.78 2592.85 680.35V879.1C2592.85 887.05 2587.82 894.47 2577.75 901.36C2567.68 908.25 2555.22 911.695 2540.38 911.695ZM2663.61 653.32C2676.33 653.32 2687.72 649.875 2697.79 642.985C2708.39 635.565 2716.87 626.29 2723.23 615.16C2730.12 604.03 2733.57 592.37 2733.57 580.18V514.99C2733.57 502.8 2730.39 491.405 2724.03 480.805C2717.67 470.205 2708.92 461.46 2697.79 454.57C2687.19 447.15 2675.27 443.44 2662.02 443.44C2650.36 443.44 2639.23 446.355 2628.63 452.185C2618.56 458.015 2610.08 466.23 2603.19 476.83C2596.3 487.43 2592.85 500.15 2592.85 514.99V594.49C2592.85 599.79 2595.77 607.21 2601.6 616.75C2607.96 625.76 2616.44 634.24 2627.04 642.19C2637.64 649.61 2649.83 653.32 2663.61 653.32Z" fill="black"/>
<path d="M2951.84 736C2937.53 736 2925.6 732.555 2916.06 725.665C2906.52 718.775 2901.75 711.09 2901.75 702.61V390.175C2901.75 380.635 2906.52 372.95 2916.06 367.12C2925.6 361.29 2937.53 358.375 2951.84 358.375C2965.09 358.375 2975.95 361.29 2984.43 367.12C2993.44 372.95 2997.95 380.635 2997.95 390.175V422.77C3003.78 411.11 3011.46 400.245 3021 390.175C3031.07 379.575 3042.47 370.83 3055.19 363.94C3067.91 357.05 3081.42 353.605 3095.73 353.605H3120.38C3130.45 353.605 3139.19 358.11 3146.61 367.12C3154.03 375.6 3157.74 385.935 3157.74 398.125C3157.74 410.845 3154.03 421.71 3146.61 430.72C3139.19 439.2 3130.45 443.44 3120.38 443.44H3095.73C3080.89 443.44 3066.32 448.475 3052.01 458.545C3038.23 468.085 3026.83 481.6 3017.82 499.09C3008.81 516.05 3004.31 536.72 3004.31 561.1V702.61C3004.31 711.09 2999.27 718.775 2989.2 725.665C2979.13 732.555 2966.68 736 2951.84 736Z" fill="black"/>
<path d="M3368.64 743.155C3331.01 743.155 3297.62 736.53 3268.47 723.28C3239.85 709.5 3217.33 690.42 3200.9 666.04C3184.47 641.13 3176.25 612.51 3176.25 580.18V512.605C3176.25 483.985 3183.94 457.75 3199.31 433.9C3215.21 409.52 3236.14 390.175 3262.11 375.865C3288.61 361.025 3318.03 353.605 3350.36 353.605C3380.04 353.605 3407.07 359.965 3431.45 372.685C3456.36 385.405 3476.5 402.895 3491.87 425.155C3507.24 447.415 3514.92 473.385 3514.92 503.065C3514.92 525.855 3511.21 542.285 3503.79 552.355C3496.37 561.895 3486.83 567.99 3475.17 570.64C3464.04 572.76 3452.38 573.82 3440.19 573.82H3278.81V585.745C3278.81 608.535 3287.29 627.085 3304.25 641.395C3321.74 655.175 3344.26 662.065 3371.82 662.065C3389.31 662.065 3403.89 659.415 3415.55 654.115C3427.21 648.815 3437.28 643.78 3445.76 639.01C3454.24 634.24 3462.19 631.855 3469.61 631.855C3477.56 631.855 3484.45 634.505 3490.28 639.805C3496.11 645.105 3500.61 651.465 3503.79 658.885C3506.97 665.775 3508.56 671.87 3508.56 677.17C3508.56 686.18 3502.73 695.985 3491.07 706.585C3479.94 716.655 3463.78 725.4 3442.58 732.82C3421.91 739.71 3397.26 743.155 3368.64 743.155ZM3278.81 513.4H3394.88C3403.89 513.4 3409.98 512.075 3413.16 509.425C3416.87 506.245 3418.73 500.415 3418.73 491.935C3418.73 479.745 3415.28 468.88 3408.39 459.34C3402.03 449.8 3393.55 442.38 3382.95 437.08C3372.88 431.78 3361.49 429.13 3348.77 429.13C3336.58 429.13 3325.18 431.78 3314.58 437.08C3303.98 441.85 3295.24 449.005 3288.35 458.545C3281.99 467.555 3278.81 478.42 3278.81 491.14V513.4Z" fill="black"/>
<path d="M3699.64 743.155C3673.14 743.155 3648.76 739.975 3626.5 733.615C3604.77 726.725 3587.55 717.98 3574.83 707.38C3562.64 696.78 3556.54 685.915 3556.54 674.785C3556.54 668.955 3557.87 662.595 3560.52 655.705C3563.7 648.815 3567.67 642.72 3572.44 637.42C3577.74 632.12 3583.84 629.47 3590.73 629.47C3598.15 629.47 3605.83 632.65 3613.78 639.01C3622.26 644.84 3632.6 650.67 3644.79 656.5C3657.51 662.33 3675 665.245 3697.26 665.245C3721.11 665.245 3736.74 661.535 3744.16 654.115C3752.11 646.695 3756.09 639.01 3756.09 631.06C3756.09 619.4 3751.32 610.39 3741.78 604.03C3732.77 597.67 3721.11 592.635 3706.8 588.925C3692.49 584.685 3677.12 580.18 3660.69 575.41C3644.79 570.64 3629.68 564.545 3615.37 557.125C3601.06 549.175 3589.4 538.575 3580.39 525.325C3571.38 511.545 3566.88 493.79 3566.88 472.06C3566.88 452.98 3571.38 434.43 3580.39 416.41C3589.4 398.39 3604.24 383.55 3624.91 371.89C3645.58 359.7 3673.67 353.605 3709.18 353.605C3730.91 353.605 3751.32 355.99 3770.4 360.76C3790.01 365 3805.91 371.095 3818.1 379.045C3830.29 386.995 3836.38 395.74 3836.38 405.28C3836.38 410.05 3834.79 416.41 3831.61 424.36C3828.43 431.78 3823.93 438.67 3818.1 445.03C3812.8 451.39 3806.17 454.57 3798.22 454.57C3792.39 454.57 3785.24 452.715 3776.76 449.005C3768.81 444.765 3759.53 440.79 3748.93 437.08C3738.33 433.37 3725.61 431.515 3710.77 431.515C3697.52 431.515 3686.92 433.37 3678.97 437.08C3671.02 440.79 3665.19 445.295 3661.48 450.595C3657.77 455.895 3655.92 461.46 3655.92 467.29C3655.92 476.83 3660.42 484.25 3669.43 489.55C3678.44 494.85 3690.1 499.355 3704.41 503.065C3719.25 506.775 3734.62 511.015 3750.52 515.785C3766.95 520.025 3782.32 526.385 3796.63 534.865C3811.47 543.345 3823.4 555.005 3832.41 569.845C3841.42 584.155 3845.92 602.97 3845.92 626.29C3845.92 661.8 3833.2 690.155 3807.76 711.355C3782.85 732.555 3746.81 743.155 3699.64 743.155Z" fill="black"/>
<path d="M4031.15 743.155C4004.65 743.155 3980.27 739.975 3958.01 733.615C3936.28 726.725 3919.05 717.98 3906.33 707.38C3894.14 696.78 3888.05 685.915 3888.05 674.785C3888.05 668.955 3889.37 662.595 3892.02 655.705C3895.2 648.815 3899.18 642.72 3903.95 637.42C3909.25 632.12 3915.34 629.47 3922.23 629.47C3929.65 629.47 3937.34 632.65 3945.29 639.01C3953.77 644.84 3964.1 650.67 3976.29 656.5C3989.01 662.33 4006.5 665.245 4028.76 665.245C4052.61 665.245 4068.25 661.535 4075.67 654.115C4083.62 646.695 4087.59 639.01 4087.59 631.06C4087.59 619.4 4082.82 610.39 4073.28 604.03C4064.27 597.67 4052.61 592.635 4038.3 588.925C4023.99 584.685 4008.62 580.18 3992.19 575.41C3976.29 570.64 3961.19 564.545 3946.88 557.125C3932.57 549.175 3920.91 538.575 3911.9 525.325C3902.89 511.545 3898.38 493.79 3898.38 472.06C3898.38 452.98 3902.89 434.43 3911.9 416.41C3920.91 398.39 3935.75 383.55 3956.42 371.89C3977.09 359.7 4005.18 353.605 4040.69 353.605C4062.42 353.605 4082.82 355.99 4101.9 360.76C4121.51 365 4137.41 371.095 4149.6 379.045C4161.79 386.995 4167.89 395.74 4167.89 405.28C4167.89 410.05 4166.3 416.41 4163.12 424.36C4159.94 431.78 4155.43 438.67 4149.6 445.03C4144.3 451.39 4137.68 454.57 4129.73 454.57C4123.9 454.57 4116.74 452.715 4108.26 449.005C4100.31 444.765 4091.04 440.79 4080.44 437.08C4069.84 433.37 4057.12 431.515 4042.28 431.515C4029.03 431.515 4018.43 433.37 4010.48 437.08C4002.53 440.79 3996.7 445.295 3992.99 450.595C3989.28 455.895 3987.42 461.46 3987.42 467.29C3987.42 476.83 3991.93 484.25 4000.94 489.55C4009.95 494.85 4021.61 499.355 4035.92 503.065C4050.76 506.775 4066.13 511.015 4082.03 515.785C4098.46 520.025 4113.83 526.385 4128.14 534.865C4142.98 543.345 4154.91 555.005 4163.92 569.845C4172.93 584.155 4177.43 602.97 4177.43 626.29C4177.43 661.8 4164.71 690.155 4139.27 711.355C4114.36 732.555 4078.32 743.155 4031.15 743.155Z" fill="black"/>
<path d="M408.474 681.406H289.356C274.334 681.406 262.146 693.609 262.146 708.631C262.146 723.653 274.334 735.817 289.356 735.817H408.474C423.496 735.817 435.684 723.653 435.684 708.631C435.684 693.609 423.496 681.406 408.474 681.406Z" fill="black"/>
<path d="M204.818 629.273H352.333C367.355 629.273 379.56 617.085 379.56 602.046C379.56 587.024 367.355 574.836 352.333 574.836H204.818C189.779 574.836 177.591 587.024 177.591 602.046C177.591 617.085 189.779 629.273 204.818 629.273Z" fill="black"/>
<path d="M228.414 383.148C228.414 398.17 240.602 410.349 255.624 410.349H375.441C390.489 410.349 402.668 398.17 402.668 383.148C402.668 368.099 390.489 355.92 375.441 355.92H255.624C240.602 355.92 228.414 368.099 228.414 383.148Z" fill="black"/>
<path d="M153.445 410.349C168.493 410.349 180.655 398.17 180.655 383.148C180.655 368.099 168.493 355.92 153.445 355.92H123.862C108.814 355.92 96.6349 368.099 96.6349 383.148C96.6349 398.17 108.814 410.349 123.862 410.349H153.445Z" fill="black"/>
<path d="M86.7891 137.009H81.0709C66.0402 137.009 53.861 149.171 53.861 164.193C53.861 179.241 66.0402 191.42 81.0709 191.42H86.7891C101.837 191.42 113.999 179.241 113.999 164.193C113.999 149.171 101.837 137.009 86.7891 137.009Z" fill="black"/>
<path d="M113.53 574.848C100.684 575.189 90.7661 586.481 90.7661 599.318V604.798C90.7661 617.668 100.684 628.936 113.53 629.259C126.734 629.618 137.556 619.001 137.556 605.873V598.252C137.556 585.116 126.734 574.523 113.53 574.848Z" fill="black"/>
<path d="M50.2099 519.809H185.799C200.821 519.809 212.984 507.63 212.984 492.608C212.984 477.562 200.821 465.38 185.799 465.38H50.2099C35.1705 465.38 23 477.562 23 492.608C23 507.63 35.1705 519.809 50.2099 519.809Z" fill="black"/>
<path d="M312.975 164.201C312.975 149.179 300.813 137 285.773 137H194.599C179.56 137 167.372 149.179 167.372 164.201C167.372 179.249 179.56 191.429 194.599 191.429H285.773C300.813 191.429 312.975 179.249 312.975 164.201Z" fill="black"/>
<path d="M346.374 300.881C361.44 300.881 373.601 288.693 373.601 273.695C373.601 258.623 361.44 246.468 346.374 246.468H297.211C282.18 246.468 269.992 258.623 269.992 273.695C269.992 288.693 282.18 300.881 297.211 300.881H346.374Z" fill="black"/>
<path d="M988.766 587.874C979.591 577.565 968.173 572.153 954.558 571.557C940.884 571.034 929.08 575.345 919.034 584.52C883.272 617.134 841.278 634.349 793.099 636.167C790.282 636.27 787.466 636.303 784.579 636.303C729.725 636.303 682.797 616.826 643.834 577.838C604.853 538.867 585.352 491.974 585.352 437.135C585.352 381.981 604.853 334.926 643.834 295.972C682.797 256.991 729.725 237.497 784.579 237.497C787.466 237.497 790.282 237.532 793.099 237.65C835.049 239.297 872.688 253.056 906.079 278.859C916.96 286.915 929.192 290.125 942.848 288.443C956.223 286.771 967.062 280.507 975.409 269.64C983.773 258.827 987.103 246.551 985.438 232.921C983.492 219.564 977.245 208.674 966.661 200.334C915.151 160.877 857.368 140.273 793.099 138.667V138.54H387.753C372.508 138.54 360.202 151.104 360.56 166.449C360.936 181.447 374.037 192.951 389.016 192.951H616.292C616.377 192.951 616.462 193.036 616.462 193.121C631.441 193.121 643.604 205.259 643.604 220.24C643.604 235.235 631.441 247.406 616.462 247.406H470.825C453.867 247.406 440.492 262.924 444.281 280.539C446.962 293.232 458.833 301.81 471.782 301.81H522.122C522.19 301.81 522.275 301.896 522.275 301.955C537.256 301.955 549.435 314.125 549.435 329.079C549.435 344.11 537.256 356.248 522.275 356.248H468.64C453.353 356.248 441.021 368.812 441.414 384.166C441.797 399.12 454.898 410.668 469.87 410.668H501.758C501.834 410.668 501.911 410.762 501.911 410.812C516.898 410.812 529.062 422.95 529.062 437.928C529.062 452.95 516.898 465.079 501.911 465.079H298.961C281.994 465.079 268.626 480.63 272.417 498.23C275.096 510.923 286.969 519.525 299.909 519.525H533.969C549.009 519.525 561.171 531.704 561.171 546.735C561.171 561.748 549.009 573.954 533.969 573.954H464.637C449.35 573.954 437.018 586.502 437.411 601.865C437.794 616.826 450.895 628.367 465.858 628.367H625.082C625.167 628.367 625.211 628.391 625.253 628.485C626.874 628.485 628.454 628.664 630.136 628.972C640.25 630.884 648.427 639.043 650.321 649.175C653.59 666.382 639.72 681.277 622.794 679.824H622.65C622.454 679.868 622.309 679.911 622.069 679.911H521.388C506.375 679.911 494.196 692.115 494.196 707.137C494.196 722.158 506.375 734.322 521.388 734.322H540.072V735.303H792.943C793.013 735.303 793.072 735.262 793.099 735.175C866.672 733.341 930.872 707.497 985.865 657.607C995.868 648.414 1001.16 637.03 1001.71 623.357C1002.3 609.718 997.959 597.886 988.766 587.874Z" fill="black"/>
</svg>
