<svg viewBox="0 0 40 40" fill="none" xmlns="http://www.w3.org/2000/svg">
<path d="M12.2962 3.67209L4.05396 11.1375C-1.35132 16.0337 -1.35132 23.972 4.05396 28.868L12.2962 36.3335C14.9946 38.7779 18.539 40 22.0835 40C25.628 40 29.1724 38.7779 31.8708 36.3335L39.9201 29.0427C40.0266 28.9464 40.0266 28.7899 39.9201 28.6934L37.2154 26.2435C37.1089 26.147 36.9362 26.147 36.8296 26.2435L28.7802 33.5343C25.0877 36.8786 19.0794 36.8786 15.3864 33.5343L7.14454 26.0687C3.45199 22.7239 3.45199 17.2817 7.14454 13.9367L15.3864 6.47133C19.0794 3.127 25.0877 3.127 28.7802 6.47133L36.8296 13.7622C36.9362 13.8586 37.1089 13.8586 37.2154 13.7622L39.9201 11.3124C40.0266 11.2158 40.0266 11.0594 39.9201 10.9629L31.8708 3.67209C29.1681 1.22392 25.6257 -2.68854e-07 22.0835 -2.68854e-07C18.5411 -2.68854e-07 14.9989 1.22392 12.2962 3.67209" fill="url(#paint0_linear_589_830)"/>
<path d="M17.4486 10.2015L11.4596 15.6261C11.3533 15.7225 11.3533 15.8789 11.4596 15.9754L14.1646 18.4253C14.271 18.5218 14.4437 18.5218 14.5502 18.4253L20.539 13.0008C20.952 12.6272 21.501 12.4213 22.0846 12.4213C22.6682 12.4213 23.2171 12.6272 23.6301 13.0008L29.8116 18.6C30.6637 19.3721 30.6637 20.6279 29.8116 21.4001L23.6301 26.9992C23.2171 27.3728 22.6682 27.5789 22.0846 27.5789C21.501 27.5789 20.952 27.3728 20.539 26.9992L14.5502 21.5748C14.4437 21.4782 14.271 21.4782 14.1646 21.5748L11.4596 24.0246C11.3533 24.121 11.3533 24.2775 11.4596 24.3739L17.4486 29.7984C18.7269 30.9565 20.4055 31.5352 22.0846 31.5352C23.7636 31.5352 25.4424 30.9565 26.7205 29.7984L32.902 24.1993C35.459 21.8836 35.459 18.1162 32.902 15.8008L26.7205 10.2015C25.4424 9.0435 23.7634 8.46448 22.0846 8.46448C20.4057 8.46448 18.7267 9.0435 17.4486 10.2015" fill="url(#paint1_linear_589_830)"/>
<defs>
<linearGradient id="paint0_linear_589_830" x1="-1.77467e-06" y1="20" x2="40" y2="20" gradientUnits="userSpaceOnUse">
<stop stop-color="#3B82F6"/>
<stop offset="1" stop-color="#CF41FD"/>
</linearGradient>
<linearGradient id="paint1_linear_589_830" x1="11.3799" y1="19.9998" x2="34.8198" y2="19.9998" gradientUnits="userSpaceOnUse">
<stop stop-color="#3B82F6"/>
<stop offset="1" stop-color="#CF41FD"/>
</linearGradient>
</defs>
</svg>
