<svg version="1.1" id="Contentful_dark_" xmlns:x="ns_extend;" xmlns:i="ns_ai;" xmlns:graph="ns_graphs;" xmlns="http://www.w3.org/2000/svg" xmlns:xlink="http://www.w3.org/1999/xlink" x="0px" y="0px" viewBox="0 0 800 163.5" style="enable-background:new 0 0 800 163.5;" xml:space="preserve">
 <style type="text/css">
  .st0{fill:#FFDA00;}
	.st1{fill:#67B3FF;}
	.st2{fill:#EB5A68;}
	.st3{fill:#47A1FF;}
	.st4{fill:#D5465F;}
	.st5{fill-rule:evenodd;clip-rule:evenodd;fill:#FFFFFF;}
 </style>
 <metadata>
  <sfw xmlns="ns_sfw;">
   <slices>
   </slices>
   <sliceSourceBounds bottomLeftOrigin="true" height="163.5" width="800" x="0.1" y="0.1">
   </sliceSourceBounds>
  </sfw>
 </metadata>
 <g>
  <path class="st0" d="M49.1,114c-8.5-8.6-13.3-20.3-13.2-32.4c0-12.1,4.8-23.8,13.5-32.3c7.4-6.6,8.1-18,1.5-25.4s-18-8.1-25.4-1.5
		c-0.5,0.5-1,0.9-1.4,1.4c-32,31.8-32.1,83.5-0.4,115.5c6.6,7.4,18,8,25.4,1.4s8-18,1.4-25.4C50,114.9,49.6,114.4,49.1,114z">
  </path>
  <path class="st1" d="M49.4,49.3c17.9-17.8,46.9-17.7,64.7,0.2c6.6,7.5,18,8.2,25.4,1.6s8.2-18,1.6-25.4c-0.5-0.5-1-1.1-1.5-1.5
		c-31.7-32-83.2-32.3-115.2-0.7c-0.1,0.1-0.2,0.2-0.3,0.3c-7.5,6.6-8.2,17.9-1.6,25.4s17.9,8.2,25.4,1.6
		C48.4,50.3,48.9,49.8,49.4,49.3z">
  </path>
  <path class="st2" d="M113.9,114.2c-8.6,8.6-20.3,13.3-32.4,13.3s-23.8-4.8-32.3-13.5c-6.6-7.4-18-8.1-25.4-1.5s-8.1,18-1.5,25.4
		c0.5,0.5,0.9,1,1.4,1.4c31.7,32,83.3,32.3,115.3,0.6c0.1-0.1,0.1-0.1,0.2-0.2c7.1-7,7.1-18.4,0.1-25.5
		C132.4,107.3,121,107.2,113.9,114.2z">
  </path>
  <path class="st3" d="M48.5,50.4c-7,7-18.4,7-25.5,0S16,32,23,24.9s18.4-7,25.5,0l0.1,0.1C55.5,32.1,55.5,43.4,48.5,50.4z">
  </path>
  <path class="st4" d="M48.5,138.7c-7,7-18.4,7-25.5,0s-7-18.4,0-25.5c7-7,18.4-7,25.5,0l0.1,0.1C55.5,120.4,55.5,131.7,48.5,138.7z">
  </path>
  <path class="st5" d="M219.6,99.3c5.2-3.9,5.9-1.7,10.3,2.7c2.2,2.2,8.2,6,4.3,9.2c-8.2,6.7-15.6,9.7-26,9.7
		c-23.6-0.1-40.3-17.8-39-41.2c0.6-10.5,4.7-20.4,12.9-27.2c7.5-6.3,16.8-9.1,26.6-8.9c4.8,0,9.6,0.9,14,2.8c3,1.1,5.8,2.6,8.4,4.5
		c5.2,4,2.8,6.3-1.3,10.4c-0.9,0.9-1.8,1.8-2.6,2.8c-2.1,2.1-3.5,3.6-6.2,1.6c-5.3-3.7-12-5.7-18.3-4c-20.4,5.2-19.5,41.5,5.5,41.6
		C212.3,103.1,216.3,101.8,219.6,99.3z M786.7,121.3c-3.4,0-6.2-2.7-6.2-6.2c0,0,0,0,0-0.1l0.3-80.4c0-3.4,2.7-6.2,6.2-6.2
		c0,0,0,0,0.1,0h6.7c3.4,0,6.2,2.8,6.2,6.2c0,0,0,0,0,0.1l-0.3,80.4c0,3.4-2.7,6.2-6.2,6.2c0,0,0,0-0.1,0H786.7z M751.7,111.9
		c-7.3,6.8-14.2,10.4-24.4,10.4c-20.7-0.1-30.7-17.3-30.7-36.5l0.1-32.7c0-3.4,2.8-6.2,6.2-6.2c0,0,0,0,0.1,0h6.7
		c3.4,0,6.2,2.7,6.2,6.2c0,0,0,0,0,0.1l-0.1,32.7c0,10.7,5.8,19.1,17.1,19.1s18.2-9.4,18.3-20V73.2c-0.1-0.5-0.1-0.9-0.1-1.4
		l0.1-18.6c0-3.4,2.7-6.2,6.2-6.2c0,0,0,0,0.1,0h6.6c3.4,0,6.2,2.7,6.2,6.2c0,0,0,0,0,0.1l-0.2,61.8c0,3.4-2.8,6.1-6.2,6.1h-5.7
		c-3.3-0.1-6-2.8-6.1-6.1L751.7,111.9z M672.1,47H685c3.4,0,6.2,2.9,6.1,6.3c0,0,0,0,0,0.1v4.3c0,3.4-2.8,6.2-6.2,6.2H672l-0.2,50.8
		c0,3.4-2.7,6.2-6.2,6.2c0,0,0,0-0.1,0h-6.7c-3.4,0-6.2-2.8-6.2-6.2l0,0l0.2-70.3c0-15.3,8.8-27.4,24.4-28.8c0.5,0,0.8-0.1,1.3-0.1
		c0.9-0.1,1.8-0.1,2.8,0h6c3.4,0,6.2,2.9,6.1,6.3l0,0v3.9c0,3.4-2.8,6.2-6.2,6.2h-4.8c-7.4,0-10.5,5.6-10.6,12.6L672.1,47z
		 M625.7,46.8h14.2c3.4,0,6.1,2.8,6.1,6.2v4.3c0,3.4-2.8,6.1-6.2,6.1h-14.2l-0.1,31.1c0,6,2.9,9.4,8.9,9.4h2.9
		c3.4,0,6.1,2.8,6.1,6.2v4.3c0,3.4-2.8,6.1-6.2,6.1h-5.4c-1,0-2,0-3-0.1c-15.3-1-22.1-10.9-22.1-25.9c0.1-20.2,0.1-40.2,0.2-60.4
		c0-3.4,2.8-6.1,6.2-6.1l0,0h6.6c3.4,0,6.1,2.8,6.1,6.2L625.7,46.8L625.7,46.8z M420.7,46h14.2c3.4,0,6.1,2.8,6.1,6.2v4.3
		c0,3.4-2.8,6.1-6.2,6.1h-14.2v31.1c0,6,2.9,9.4,8.9,9.4h2.9c3.4,0,6.1,2.8,6.1,6.2l0,0v4.3c0,3.4-2.8,6.1-6.2,6.1H428
		c-16.7-0.1-26.4-7.3-26.4-26c0.1-20.2,0.1-40.2,0.2-60.4c0-3.4,2.8-6.1,6.2-6.1h6.6c3.4,0,6.1,2.8,6.1,6.2L420.7,46z M337.5,54.8
		c6.8-6.3,14.2-10.4,23.7-10.4c20.8,0.1,31.5,17,31.4,36.5l-0.1,32.7c0,3.4-2.8,6.2-6.2,6.2l0,0h-6.7c-3.4,0-6.2-2.8-6.2-6.2l0,0
		l0.1-32.5c0-10.7-5.8-19.1-17.1-19.1s-18.2,9.3-18.3,19.9l-0.1,31.7c0,3.4-2.8,6.1-6.2,6.1h-6.6c-3.4,0-6.1-2.8-6.1-6.2
		c0.1-19.7,0.1-39.5,0.2-59.2v-2.6c0-3.4,2.8-6.2,6.2-6.2h5.6c3.3,0.1,6,2.8,6.1,6.1L337.5,54.8z M542.9,55.6
		c6.8-6.3,14.2-10.4,23.7-10.4c20.8,0.1,31.5,17.1,31.3,36.5v32.8c0,3.4-2.7,6.2-6.2,6.2c0,0,0,0-0.1,0h-6.7c-3.4,0-6.2-2.8-6.2-6.2
		l0,0l0.1-32.5c0-10.7-5.8-19.1-17.1-19.1s-18.2,9.3-18.3,19.9l-0.2,31.7c0,3.4-2.8,6.1-6.2,6.1h-6.6c-3.4,0-6.1-2.8-6.1-6.2
		l0.2-61.9c0-3.4,2.8-6.2,6.2-6.2l0,0h5.7c3.3,0.1,6,2.8,6.1,6.2L542.9,55.6z M274.8,43.8c-22.5-0.1-38.4,16.1-38.5,38.5
		c-0.1,22.6,15.6,38.6,38.3,38.7s38.6-15.8,38.7-38.5C313.4,60.3,297.1,43.9,274.8,43.8z M461.4,90c1.6,10.4,11.5,14.6,21.2,14.8
		c4.9,0,9.6-1.1,14.1-3.1c0.7-0.3,1.4-0.6,2.1-1c2.3-1.3,4.4-2.1,6.5,0c1.1,1.2,2.2,2.3,3.3,3.3c1.1,1,2.1,2.2,3,3.3
		c3.1,3.9,0.9,4.8-2.6,7.3c-7.6,5.1-17.5,7.6-26.6,7.6c-24.4-0.1-40.6-15-40.6-39.6c0.1-23.3,16.2-38.7,39.5-38.6
		c23.8,0.1,37.2,14.1,37.6,37.8c0.1,6.4,0.3,8.5-6.3,8.5L461.4,90z M274.8,61.2c11.6,0,19.4,10.2,19.4,21.3c0,11.6-7.3,21-19.5,21
		s-19.4-9.4-19.4-21.1S262.7,61.2,274.8,61.2z M461.9,74l38.3,0.1c-1.4-9.6-9.3-13.4-18.4-13.4S464.7,65,461.9,74z">
  </path>
 </g>
</svg>