<svg width="857" height="190" viewBox="0 0 857 190" fill="none" xmlns="http://www.w3.org/2000/svg">
<path fill-rule="evenodd" clip-rule="evenodd" d="M190.157 94.8644C190.157 147.238 147.699 189.696 95.3253 189.696C42.9515 189.696 0.494141 147.238 0.494141 94.8644C0.494141 42.4906 42.9515 0.0332031 95.3253 0.0332031C147.699 0.0332031 190.157 42.4906 190.157 94.8644ZM105.841 84.6608L105.822 84.6609H105.821C102.413 84.6846 98.7036 84.7104 95.7309 84.7813C94.3047 84.837 90.5395 85.3383 90.4254 89.2933V93.2482V96.8132C90.932 101.705 94.1601 101.824 95.6708 101.88L95.7309 101.882H110.963C117.865 101.882 121.631 106.84 121.745 111.686C121.802 116.421 118.607 120.766 111.134 120.654C106.755 120.592 101.9 120.617 97.0691 120.641H97.065C93.2114 120.66 89.3732 120.679 85.8046 120.654C71.3144 120.487 68.4621 109.792 68.405 99.487C68.3702 93.2306 68.3779 92.3083 68.3891 90.9557C68.3963 90.0923 68.405 89.0537 68.405 86.341C68.405 71.301 71.5997 65.2851 85.6334 65.3964C92.1878 65.4457 99.277 65.3644 107.688 65.2679L111.077 65.2294C117.922 64.9508 121.631 69.8527 121.631 74.7546C121.745 79.6008 118.379 84.447 111.191 84.6141C109.637 84.6344 107.789 84.6473 105.841 84.6608ZM72.6265 49.9109C65.0392 49.9666 51.9752 54.0886 51.9752 74.0305V135.36L112.56 135.416C114.02 135.401 115.349 135.395 116.57 135.39L116.596 135.389C124.613 135.354 127.934 135.339 132.584 133.02C134.923 131.628 138.003 128.676 139.658 125.723C144.621 117.368 143.309 109.402 141.94 105.057C139.004 97.2019 133.738 93.6959 130.879 91.7925C130.738 91.6983 130.602 91.608 130.473 91.5214C132.241 90.6858 138.231 84.2242 139.144 79.4337C141.198 70.744 138.403 62.4999 130.701 56.3725C123.228 50.4122 116.097 50.0223 106.741 49.8552C99.8665 49.7789 92.5106 49.8071 85.9002 49.8325H85.8933C82.8516 49.8441 79.9678 49.8552 77.3615 49.8552L72.6265 49.9109ZM856.95 46.7496H851.454V52.9222H856.95V46.7496ZM856.95 60.1487H851.454V100.798H856.95V60.1487ZM833.784 100.798H838.753V75.7309C838.753 69.9095 837.122 65.6188 833.86 62.8586C830.949 60.2993 827.411 59.0196 823.246 59.0196C816.32 59.0196 810.926 61.328 807.061 65.945L810.675 69.7088C813.585 66.1457 817.55 64.3642 822.568 64.3642C825.73 64.3642 828.264 65.1671 830.171 66.773C832.078 68.3789 833.057 70.7626 833.107 73.9242C831.953 74.125 829.92 74.4261 827.01 74.8275C824.099 75.229 821.991 75.5552 820.686 75.8061C819.432 76.0069 817.876 76.3582 816.019 76.86C814.213 77.3117 812.732 77.8386 811.578 78.4408C806.811 80.8496 804.427 84.5883 804.427 89.6569C804.427 93.3705 805.656 96.3565 808.115 98.6147C810.624 100.823 813.836 101.927 817.751 101.927C825.128 101.927 830.472 99.3675 833.784 94.2488V100.798ZM832.956 85.592C832.756 87.1477 832.304 88.6281 831.601 90.0333C829.192 94.6502 824.877 96.9587 818.654 96.9587C816.094 96.9587 814.012 96.2561 812.406 94.851C810.8 93.3956 809.997 91.4886 809.997 89.13C809.997 87.0724 810.85 85.3411 812.557 83.9359C814.263 82.5308 816.471 81.5522 819.181 81.0002C821.038 80.5485 825.73 79.7456 833.257 78.5914C833.257 81.6526 833.157 83.9861 832.956 85.592ZM786.517 94.3993H792.915V100.798H786.517V94.3993ZM762.276 48.8879V141.101H771.435V48.8879H762.276ZM735.577 141.101V48.8879H744.735V141.101H735.577ZM710.995 141.101H719.275V99.3228C719.275 89.6206 716.557 82.4694 711.12 77.8692C706.269 73.6036 700.372 71.4707 693.43 71.4707C681.888 71.4707 672.897 75.3182 666.456 83.0131L672.478 89.2861C677.33 83.3476 683.937 80.3784 692.301 80.3784C697.57 80.3784 701.794 81.7166 704.972 84.3931C708.151 87.0696 709.782 91.0425 709.865 96.3118C707.942 96.6464 704.554 97.1482 699.703 97.8173C694.852 98.4865 691.339 99.0301 689.164 99.4483C687.074 99.7829 684.481 100.368 681.386 101.205C678.375 101.958 675.908 102.836 673.984 103.839C666.038 107.854 662.065 114.085 662.065 122.533C662.065 128.722 664.114 133.699 668.213 137.463C672.395 141.143 677.748 142.983 684.272 142.983C696.567 142.983 705.474 138.717 710.995 130.186V141.101ZM709.614 115.758C709.28 118.351 708.527 120.818 707.356 123.16C703.341 130.855 696.148 134.703 685.777 134.703C681.511 134.703 678.04 133.532 675.364 131.19C672.687 128.764 671.349 125.586 671.349 121.655C671.349 118.225 672.771 115.34 675.615 112.998C678.459 110.656 682.139 109.025 686.655 108.105C689.75 107.352 697.57 106.014 710.116 104.09C710.116 109.192 709.949 113.082 709.614 115.758ZM653.471 88.4078L644.814 92.0462C644.396 91.1261 643.602 89.8297 642.431 88.1569C638.5 82.8876 632.812 80.2529 625.368 80.2529C617.924 80.2529 612.278 82.8876 608.431 88.1569C605.085 92.4226 603.329 98.7792 603.162 107.227C603.329 115.674 605.085 122.031 608.431 126.297C612.362 131.482 618.008 134.075 625.368 134.075C632.812 134.075 638.5 131.482 642.431 126.297C643.1 125.377 643.853 124.122 644.689 122.533L653.471 126.297C652.384 128.555 651.171 130.437 649.833 131.942C644.062 139.303 635.907 142.983 625.368 142.983C614.913 142.983 606.8 139.303 601.029 131.942C596.094 125.669 593.543 117.431 593.376 107.227C593.543 97.0227 596.094 88.7424 601.029 82.3857C606.884 75.1091 614.997 71.4707 625.368 71.4707C635.823 71.4707 643.978 75.1091 649.833 82.3857C651.422 84.3931 652.635 86.4005 653.471 88.4078ZM562.779 83.8913H582.978V73.3526H562.779V54.5336H549.731V73.3526H536.684V83.8913H549.731V114.504C549.731 122.784 550.651 128.68 552.492 132.193C554.833 136.794 559.266 139.93 565.79 141.603C571.311 142.774 577.04 142.607 582.978 141.101V129.684C579.298 130.186 575.576 130.311 571.812 130.061C568.383 129.81 565.916 128.262 564.41 125.419C563.323 123.662 562.779 119.731 562.779 113.625V83.8913ZM518.994 77.8692C522.758 81.1311 525.183 85.2713 526.27 90.2897C527.441 95.2245 527.985 101.205 527.901 108.23V141.101H514.603V108.732C514.603 98.2773 512.512 91.2516 508.33 87.6551C505.402 84.9786 501.471 83.724 496.536 83.8912C492.605 84.1422 489.302 85.355 486.625 87.5296C483.781 89.7879 481.941 93.1335 481.105 97.5664C480.519 100.076 480.227 104.676 480.227 111.367V141.101H467.053V50.7698H478.721V81.633L480.854 79.1238C484.952 74.5236 490.682 72.0144 498.042 71.5962C506.573 71.0107 513.557 73.1017 518.994 77.8692ZM370.332 49.8916H357.158V62.6885H370.332V49.8916ZM370.332 73.3526H357.158V141.101H370.332V73.3526ZM333.791 71.5962C337.304 71.3453 340.692 71.8471 343.954 73.1017V85.3968C340.524 84.1422 336.761 83.6404 332.662 83.8913C327.393 84.1422 323.336 85.7732 320.493 88.7842C318.318 90.8752 316.854 93.3844 316.102 96.3118C315.349 99.1556 314.972 102.71 314.972 106.976V141.101H301.799V73.3526H313.467V83.1385C314.972 80.462 317.105 78.1201 319.865 76.1127C323.796 73.269 328.438 71.7635 333.791 71.5962ZM288.336 114.754C288.503 108.649 286.788 103.254 283.192 98.5701C281.352 96.0609 279.261 94.0117 276.919 92.4226C277.922 91.2516 278.633 90.3734 279.052 89.7879C282.732 85.2713 284.446 80.3366 284.195 74.9836C283.945 69.2961 282.146 64.4031 278.801 60.3048C275.706 56.2064 271.524 53.4045 266.255 51.899C264.247 51.1462 261.027 50.7698 256.594 50.7698H223.347V141.101H258.476C262.24 141.101 265.795 140.683 269.14 139.846C274.744 138.09 279.303 135.037 282.815 130.688C286.328 126.004 288.168 120.693 288.336 114.754ZM236.646 63.0649H258.727C262.324 63.0649 265.251 64.4031 267.509 67.0796C269.517 69.2543 270.604 71.8889 270.771 74.9836C270.771 77.911 269.893 80.462 268.137 82.6367C267.133 84.1422 265.711 85.355 263.871 86.275C262.031 87.195 260.316 87.6551 258.727 87.6551H236.646V63.0649ZM271.65 105.094C274.075 107.854 275.204 111.074 275.037 114.754C274.87 118.685 273.49 121.906 270.897 124.415C268.137 127.259 263.955 128.68 258.351 128.68H236.646V99.9501H260.86C265.209 99.9501 268.806 101.665 271.65 105.094ZM439.693 73.5154H451.236V143.146C451.236 149.251 450.358 154.228 448.601 158.075C446.845 161.923 443.959 165.143 439.944 167.736C434.424 171.332 427.649 173.131 419.62 173.131C412.678 173.131 406.865 171.249 402.181 167.485C398.166 165.31 395.03 162.299 392.771 158.452L404.941 152.555C405.61 153.81 406.656 155.023 408.078 156.194C411.005 159.205 414.894 160.71 419.745 160.71C425.266 160.71 429.698 159.33 433.044 156.57C435.051 154.981 436.39 153.141 437.059 151.05C437.812 149.042 438.146 146.324 438.062 142.895V136.371C432.793 140.887 426.186 143.146 418.24 143.146C408.454 143.146 400.634 139.507 394.779 132.231C389.677 125.874 387.126 117.594 387.126 107.39C387.126 97.2692 389.677 88.947 394.779 82.4231C400.55 75.2301 408.454 71.6335 418.491 71.6335C426.938 71.6335 434.006 74.3937 439.693 79.9139V73.5154ZM419.996 131.227C426.186 131.227 431.037 129.178 434.55 125.079C437.979 120.981 439.693 115.084 439.693 107.39C439.693 99.6948 437.979 93.7981 434.55 89.6998C431.455 85.6014 426.771 83.5522 420.498 83.5522C413.64 83.5522 408.621 85.8523 405.443 90.4525C402.515 94.4673 401.052 100.113 401.052 107.39C401.052 114.75 402.474 120.354 405.317 124.201C408.579 128.885 413.472 131.227 419.996 131.227Z" fill="#0074FF"/>
</svg>
