<?xml version="1.0" encoding="UTF-8"?>
<svg version="1.1" xmlns="http://www.w3.org/2000/svg" width="407" height="407">
<path d="M0 0 C1.27820114 -0.00860046 2.55640228 -0.01720093 3.87333679 -0.02606201 C5.27239949 -0.03049612 6.67146263 -0.03479458 8.07052612 -0.03897095 C9.55783779 -0.04688289 11.04514759 -0.05515249 12.53245544 -0.06375122 C17.39913126 -0.08984355 22.26581513 -0.10526533 27.13253784 -0.11953735 C28.81469603 -0.12490216 30.49685419 -0.13027968 32.1790123 -0.13566971 C39.18091909 -0.15727903 46.18282369 -0.17601241 53.18475533 -0.1872921 C63.1847739 -0.20351365 73.18440298 -0.23667009 83.18427479 -0.29369295 C90.23509145 -0.33251506 97.28580445 -0.3519392 104.33672512 -0.35721266 C108.53856626 -0.36084914 112.73999077 -0.37268755 116.94171524 -0.4053154 C120.89982043 -0.43561364 124.85726156 -0.44163156 128.8154583 -0.42993164 C130.25810549 -0.42971271 131.70078552 -0.43786571 133.1433239 -0.45558548 C147.59034709 -0.62321353 159.65499297 3.29682032 170.43722534 13.15390015 C180.21946259 24.02305264 184.8139193 36.41867564 184.65206909 50.9312439 C183.71075372 65.05097442 177.48596194 75.4998766 167.43722534 85.15390015 C154.68158785 95.58626916 139.918291 97.46378588 123.94210815 97.40927124 C121.94037469 97.41482891 119.93864124 97.4203909 117.93690825 97.42611527 C115.8066003 97.43042722 113.67633928 97.42999298 111.54602814 97.42829514 C107.07990681 97.42543463 102.61394018 97.43991582 98.14785767 97.45727539 C85.4552745 97.50404107 72.76270349 97.52822451 60.07003784 97.53475952 C53.04316122 97.53852984 46.0164617 97.55671277 38.98966098 97.58985388 C35.28421267 97.6066243 31.57908621 97.61597861 27.87360382 97.60691452 C6.7733161 97.25579087 6.7733161 97.25579087 -13.56277466 102.15390015 C-14.3074147 102.4340799 -15.05205475 102.71425964 -15.81925964 103.00292969 C-25.83802201 107.13507277 -33.99498946 113.53769219 -41.56277466 121.15390015 C-40.64616436 121.15721029 -39.72955406 121.16052044 -38.78516769 121.16393089 C-16.44914607 121.24526413 5.88680851 121.33739025 28.22273636 121.44142723 C39.02436161 121.49148098 49.82597955 121.53792459 60.62765503 121.57577515 C70.04588789 121.60878719 79.46406275 121.64866894 88.88223147 121.6966902 C93.86588443 121.72186381 98.84949937 121.74367177 103.83319855 121.75724411 C108.53142468 121.77014778 113.22951982 121.79229038 117.92767334 121.82128334 C119.64482958 121.83029458 121.36200687 121.83603411 123.07918549 121.83811378 C140.71971415 121.86328714 157.3004551 123.32531599 170.69894409 136.1499939 C181.06290199 148.09765772 185.46357542 161.51156463 184.43722534 177.15390015 C182.4969909 190.02850668 176.3996193 202.0920464 165.93331909 210.06015015 C154.7959061 217.53790112 143.93452396 220.29291542 130.64169312 220.31211853 C129.89981829 220.31705651 129.15794347 220.32199448 128.39358759 220.3270821 C125.93092203 220.34232575 123.46828225 220.3507817 121.00558472 220.35922241 C119.23102597 220.36881129 117.45646946 220.37882195 115.68191528 220.38922119 C110.88090361 220.41616695 106.0798822 220.43723219 101.2788372 220.45722318 C96.25532145 220.47914672 91.23183532 220.50650415 86.20834351 220.53327942 C76.70298055 220.58312041 67.19760107 220.628091 57.69220591 220.67130178 C46.86753929 220.72074776 36.04290241 220.77563852 25.21826458 220.83098137 C2.9579459 220.94466944 -19.3024012 221.05153699 -41.56277466 221.15390015 C-40.46724228 222.27153825 -39.368458 223.38598928 -38.26834106 224.49911499 C-37.65681183 225.1200705 -37.04528259 225.741026 -36.41522217 226.38079834 C-22.52799674 239.6731936 -3.93133943 244.46425726 14.72116089 244.42514038 C16.72492982 244.4331639 18.72869874 244.44118981 20.73246729 244.44930565 C22.87083158 244.45612917 25.00915312 244.45815864 27.14752769 244.4588604 C31.62581959 244.46081551 36.10395972 244.47894853 40.5821991 244.49961853 C51.70678527 244.54861653 62.83141245 244.57961491 73.95608521 244.60092163 C82.60330893 244.61750945 91.25040137 244.64050579 99.89753753 244.68394238 C104.33524753 244.70553451 108.77270698 244.71379399 113.21046579 244.71154964 C116.6424856 244.71363061 120.07434631 244.73503813 123.50631714 244.75326538 C124.71354431 244.7486882 125.92077148 244.74411102 127.1645813 244.73939514 C144.06177498 244.88108324 158.85898195 248.92787523 171.24972534 260.80233765 C180.84054098 271.11246446 184.82035968 283.00833228 184.64816284 296.9390564 C183.79656988 309.91796398 178.12956665 322.37312261 168.43722534 331.15390015 C156.80974616 340.00602158 145.94184341 342.76184285 131.49264526 342.67147827 C130.01934115 342.67691109 128.54604248 342.68404021 127.07275391 342.69271851 C123.09877689 342.71083489 119.12521896 342.70392847 115.15123534 342.69120216 C110.96150539 342.68099242 106.77180857 342.69049171 102.58207703 342.69674683 C95.53706517 342.70400906 88.49222138 342.69448235 81.44723511 342.67538452 C73.36015887 342.6537116 65.27348765 342.66060275 57.18642157 342.68269014 C50.19819332 342.70099701 43.21008524 342.70332601 36.22184068 342.69293547 C32.06850831 342.68677153 27.91536436 342.68566264 23.76204491 342.69908142 C-28.02510881 342.84336437 -71.8262575 328.39129539 -109.56277466 292.15390015 C-110.11819946 291.62328979 -110.67362427 291.09267944 -111.24588013 290.54598999 C-140.1043705 262.43583012 -157.93169482 220.09484883 -158.76589966 179.9781189 C-158.79203996 177.26535546 -158.81044951 174.55413748 -158.81277466 171.84140015 C-158.8134494 171.13214386 -158.81412415 170.42288757 -158.81481934 169.69213867 C-158.79714091 157.95548197 -158.08038728 146.6417467 -155.56277466 135.15390015 C-155.3964856 134.3733728 -155.23019653 133.59284546 -155.05886841 132.78866577 C-145.63979408 89.91443485 -118.45354682 51.10376274 -81.69314575 27.23348999 C-57.61443775 12.01940495 -28.87439912 0.14561622 0 0 Z " fill="#347FFE" transform="translate(186.56277465820313,32.846099853515625)"/>
<path d="M0 0 C0.69414147 0.00446144 1.38828294 0.00892289 2.103459 0.01351953 C2.83990759 0.01039954 3.57635618 0.00727956 4.33512139 0.00406504 C6.81613707 -0.00394605 9.29691026 0.00242095 11.77792799 0.00869775 C13.5518349 0.00598903 15.32574067 0.00242877 17.0996443 -0.00192237 C21.93078389 -0.01106946 26.7618384 -0.00749085 31.59297955 -0.0011642 C36.65093878 0.00389171 41.70889061 -0.00079525 46.76685011 -0.00393653 C55.27283469 -0.0075807 63.77878461 -0.00276876 72.28476393 0.00674462 C82.09914264 0.0175951 91.91343804 0.01413028 101.72781467 0.00309181 C110.15940251 -0.00601006 118.59096537 -0.00725114 127.02255654 -0.00203085 C132.05538073 0.00107745 137.0881659 0.00153038 142.12098753 -0.00510383 C146.86353338 -0.01091761 151.60597304 -0.00680716 156.34850752 0.00468469 C158.08180372 0.00731134 159.81510898 0.00660065 161.54840147 0.00215936 C179.2405926 -0.03896305 195.85565877 1.39884817 209.2959944 14.26358056 C219.6599523 26.21124439 224.06062573 39.62515129 223.03427565 55.26748681 C221.09404121 68.14209334 214.99666961 80.20563306 204.5303694 88.17373681 C193.37801602 95.66151888 182.50672517 98.41166448 169.19646132 98.42138696 C168.07669017 98.42796034 168.07669017 98.42796034 166.93429738 98.43466651 C164.45565779 98.44792416 161.97705362 98.4542034 159.49838698 98.4603579 C157.71223733 98.46826846 155.92608923 98.47653799 154.13994277 98.48513818 C148.29874606 98.51122296 142.45754262 98.52664075 136.6163069 98.54092431 C134.60181292 98.54628741 132.58731898 98.55166492 130.57282507 98.55705667 C122.19746485 98.57865523 113.82210646 98.59739498 105.44672549 98.60867906 C93.45390328 98.62494692 81.46140344 98.65822787 69.46870273 98.7150799 C61.0269195 98.75373529 52.58522272 98.77330585 44.14335328 98.77859962 C39.10344253 98.78225579 34.0638767 98.79430765 29.0240618 98.82670236 C24.28872431 98.85670965 19.55394193 98.8631212 14.81852973 98.8513186 C13.08065279 98.85109733 11.34275057 98.85944664 9.60496199 98.87697244 C7.23301549 98.89959403 4.8630948 98.89140429 2.49113905 98.87548852 C1.80300763 98.88937061 1.1148762 98.90325269 0.40589231 98.91755545 C-3.35424823 98.85534574 -4.86386917 98.35164701 -7.8006748 95.92504334 C-14.65240705 87.51467426 -19.18274415 77.69633893 -21.96572435 67.26748681 C-22.19002122 66.47342431 -22.4143181 65.67936181 -22.64541185 64.86123681 C-27.09330428 46.58222682 -22.83216363 27.51887297 -13.96572435 11.26748681 C-6.56472206 0.05429822 -6.56472206 0.05429822 0 0 Z " fill="#0D52D3" transform="translate(147.9657243490219,154.7325131893158)"/>
<path d="M0 0 C15.52521258 -0.55010596 29.11789532 2.36095563 41.4375 12.25 C51.45302674 21.83659626 56.82546312 34.96906384 57.25 48.625 C57.08399386 62.05489651 52.22610885 74.29870083 43.03515625 84.15625 C34.14150979 92.21344987 22.9715156 97.23990377 11 98 C10.19691406 98.0515625 9.39382813 98.103125 8.56640625 98.15625 C2.6518207 98.37230792 -1.6761635 97.50980864 -7 95 C-7.928125 94.5978125 -8.85625 94.195625 -9.8125 93.78125 C-21.14729278 88.57649821 -29.60670491 81.36332982 -35 70 C-35.3412793 69.28755127 -35.68255859 68.57510254 -36.03417969 67.84106445 C-38.86543254 61.4657122 -39.6400698 56.00171553 -39.5 49.0625 C-39.48718994 48.09538086 -39.47437988 47.12826172 -39.46118164 46.13183594 C-39.05999629 32.02249237 -33.37451866 21.91025204 -23.25 12.1875 C-16.49322879 6.37688244 -8.9505264 2.59670176 0 2 C0 1.34 0 0.68 0 0 Z " fill="#4099FE" transform="translate(314,155)"/>
</svg>
