<svg version="1.1" id="Layer_1" xmlns:x="ns_extend;" xmlns:i="ns_ai;" xmlns:graph="ns_graphs;" xmlns="http://www.w3.org/2000/svg" xmlns:xlink="http://www.w3.org/1999/xlink" x="0px" y="0px" viewBox="0 0 286.1 48" style="enable-background:new 0 0 286.1 48;" xml:space="preserve">
 <style type="text/css">
  .st0{fill-rule:evenodd;clip-rule:evenodd;fill:#FFFFFF;}
 </style>
 <metadata>
  <sfw xmlns="ns_sfw;">
   <slices>
   </slices>
   <sliceSourceBounds bottomLeftOrigin="true" height="48" width="286.1" x="-120.2" y="16.2">
   </sliceSourceBounds>
  </sfw>
 </metadata>
 <desc>
  Created with Sketch.
 </desc>
 <g id="Symbols">
  <g id="header-logo-desktop-regions-standard">
   <g id="Regions-Logo">
    <path id="pyramid" class="st0" d="M0,47.2l17.9-24.1l10.9,24.1H0z M18.5,22.3l9-12.2L32,47.2L18.5,22.3z M34.8,0l6.8,9.2l-6.8,38
				L28.1,9.1L34.8,0z M37.8,47.2L42.2,10l9,12.2L37.8,47.2z M41.1,47.2L51.9,23l17.9,24.2H41.1z">
    </path>
    <g id="regions" transform="translate(47.000000, 7.000000)">
     <path id="R" class="st0" d="M47.4,22.2c6.6,0.5,9.6-1.6,9.6-7.2c0-4.3-2.5-6.7-7.2-6.7h-2.4V22.2 M39.8,12
					c0-2.8-0.7-3.9-4.4-4.6v-1h16.5c9.6,0,13.4,3.8,13.4,8.5c0,3.5-2,6.7-7,8.1v0.1C62.2,24,65.9,34.8,69,37.9
					c0.9,0.9,1.7,1.2,3.1,1.5v1h-10c-3.8-4.4-6.3-12-8.9-14.6c-1.5-1.5-2.7-1.6-5.8-1.6v10.4c0,3,1.2,4.3,4.4,4.8v1H35.4v-1
					c2.8-0.2,4.4-1.6,4.4-4.3V12">
     </path>
     <path id="E" class="st0" d="M94.9,31.3H94c-0.3-2.3-1.5-3.4-3.7-3.4h-4.7v7.7c0,2.4,1,3.2,3.7,3.2h1.6c3.3,0,4.8-2.4,5.6-4.9
					h0.8l-0.5,6.4H76.3v-0.8c3-0.6,3.4-1.5,3.4-4.2V18.5c0-2.3-0.6-3.1-3.4-3.6v-0.8h20.1v5.8h-0.8c-0.9-3.4-1.9-4.3-4.8-4.3h-5.2
					v10.8h4.7c2.1,0,3.2-0.9,3.7-3.3h0.9V31.3">
     </path>
     <path id="G" class="st0" d="M127.3,39.1c-2.6,1.2-6.4,1.9-10.4,1.9c-9.7,0-14.6-6.9-14.6-13.6c0-8,6.2-14,14.6-14
					c4.1,0,5.9,1.6,7.6,1.6c0.7,0,1.2-0.2,1.9-0.9h0.8v7.3h-0.8c-1.6-4-5.2-6.5-9.2-6.5c-5.5,0-8.5,4.8-8.5,13
					c0,8.4,3.7,11.7,8.6,11.7c2.4,0,4-0.6,4-2.8v-3.9c0-1.7-0.7-2.8-2.7-3.2v-0.8h11.3v0.8c-2,0.5-2.6,1.5-2.6,3.9V39.1">
     </path>
     <path id="I" class="st0" d="M144.5,35.9c0,2.3,0.6,3,3.4,3.7v0.8h-12.7v-0.8c3.3-0.8,3.4-1.7,3.4-4.3V18.5c0-2.3-0.6-3-3.4-3.7
					v-0.8h12.7v0.8c-3.2,0.7-3.4,1.7-3.4,4.2V35.9">
     </path>
     <path id="O" class="st0" d="M168.6,14.9c-5.3,0-8.1,4.3-8.1,12.5c0,6.3,2.1,12.1,8.1,12.1c4.5,0,8.2-3.4,8.2-12.1
					C176.8,20.1,174.4,14.9,168.6,14.9 M168.6,41c-8.5,0-14.6-5.7-14.6-13.8c0-8,6.1-13.8,14.6-13.8c8.5,0,14.6,5.8,14.6,13.8
					C183.2,35.3,177.1,41,168.6,41">
     </path>
     <path id="N" class="st0" d="M213.3,40.6h-0.9l-19.3-21.3v16c0,2.9,0.9,3.7,3.9,4.2v0.8h-9.2v-0.8c2.9-0.4,3.6-2,3.5-4.5V17.5
					c-2.1-2.1-2.5-2.4-3.6-2.6v-0.8h8.1l15.7,17.6V19.9c0-3.2-0.6-4.4-3.4-5v-0.8h9.1v0.8c-3.1,0.2-3.9,2-3.9,4.3V40.6">
     </path>
     <path id="S" class="st0" d="M237.5,20.3h-0.8c-1-3.1-3.9-5.4-6.6-5.4c-2.4,0-4.4,1.6-4.4,3.5c0,1,0.5,2,1.3,2.8
					c1.3,1.3,7.5,4.5,9.1,6.1c2,2,2.9,3.8,2.9,6.1c0,5.8-5.3,7.6-8.6,7.6c-3.2,0-5.2-1-6.5-1c-0.6,0-1.1,0.3-1.4,0.9h-0.8v-7.9h0.8
					c0.8,3.9,3.3,6.6,7.2,6.6c2.9,0,4.9-1.6,4.9-3.7c0-0.9-0.4-2-1.4-3c-2.1-2-6.8-4-9-6.1c-1.6-1.6-2.4-3.5-2.4-5.6
					c0-4.5,3.5-7.7,8.4-7.7c1,0,1.9,0.2,2.7,0.4c0.8,0.2,1.6,0.4,2.3,0.4c0.4,0,0.9-0.2,1.4-0.7h0.8V20.3">
     </path>
    </g>
   </g>
  </g>
 </g>
</svg>