<svg xmlns="http://www.w3.org/2000/svg" width="182" height="20" viewBox="0 0 182 20" fill="none"><path d="M181.998 0H175.032L165.344 9.84867L175.032 19.5372H181.998L172.15 9.84867L181.998 0Z" fill="#EC1F27"></path><path d="M160.463 0L156.059 4.40388H147.571C144.608 4.40388 142.207 6.80575 142.207 9.7686C142.207 12.7315 144.608 15.1333 147.571 15.1333H156.059L160.463 19.4571H146.65C141.278 19.4571 136.922 15.1015 136.922 9.72856C136.922 4.35563 141.278 0 146.65 0H160.463Z" fill="black"></path><path d="M123.787 0H118.263L106.492 19.5372H112.337L121.065 5.12451L129.552 19.5372H135.398L123.787 0Z" fill="black"></path><path d="M80.6328 4.48395L83.2751 0H98.7287C102.134 0 104.894 2.76036 104.894 6.16543V6.48571C104.894 9.71389 102.277 12.3309 99.049 12.3309L105.214 19.4571H98.7287L93.2039 12.3309H86.6381V19.4571H81.1132V8.16719H97.6878C98.7049 8.16719 99.5294 7.34267 99.5294 6.32557C99.5294 5.30847 98.7049 4.48395 97.6878 4.48395H80.6328Z" fill="black"></path><path d="M53.7263 0H30.7461V4.48395H51.2441L53.7263 0Z" fill="#EC1F27"></path><path d="M3.76331 4.40379L0 -0.000106812H18.6964C24.1136 -0.000106812 28.5051 4.39137 28.5051 9.80854C28.5051 15.2257 24.1136 19.6172 18.6964 19.6172H3.60317V7.44647H9.04796V14.893H18.0926C20.7477 14.893 22.9002 12.7406 22.9002 10.0855C22.9002 6.94756 20.3564 4.40379 17.2185 4.40379H3.76331Z" fill="#EC1F27"></path><path d="M49.4025 7.44653H30.7461V19.5372H52.205V14.9732H36.1909V11.7703H46.6801L49.4025 7.44653Z" fill="#EC1F27"></path><path d="M53.5664 4.48395L56.1287 0H81.0306L78.3883 4.48395H69.5004V19.4571H64.0556V4.48395H53.5664Z" fill="black"></path><path d="M161.9 9.68853H155.094L164.622 0H171.588L161.9 9.68853Z" fill="black"></path></svg>