<?xml version="1.0" encoding="UTF-8"?>
<svg version="1.1" xmlns="http://www.w3.org/2000/svg" width="400" height="400">
<path d="M0 0 C132 0 264 0 400 0 C400 132 400 264 400 400 C268 400 136 400 0 400 C0 268 0 136 0 0 Z " fill="#0174C3" transform="translate(0,0)"/>
<path d="M0 0 C2.58550279 1.05540132 3.91715784 2.09568717 6 4 C6.33 3.01 6.66 2.02 7 1 C9.64 1 12.28 1 15 1 C15.10181508 7.68932017 15.17163915 14.37843887 15.21972656 21.06835938 C15.23978317 23.34187284 15.26703538 25.6153351 15.30175781 27.88867188 C15.35053712 31.16549349 15.37302897 34.44163025 15.390625 37.71875 C15.41127014 38.72740112 15.43191528 39.73605225 15.45318604 40.77526855 C15.45515782 47.04318219 14.61180727 51.77634789 11 57 C8.96484375 58.83984375 8.96484375 58.83984375 6.9375 59.9375 C5.93009766 60.50791016 5.93009766 60.50791016 4.90234375 61.08984375 C-1.52815078 64.16644586 -10.66431582 64.14552639 -17.54296875 62.328125 C-19.4375 61.5 -19.4375 61.5 -22 60 C-21.34 57.69 -20.68 55.38 -20 53 C-16 54 -16 54 -14.1640625 54.515625 C-8.60969997 55.75883972 -3.58073511 55.81859497 1.5 53.1875 C4.93797594 50.19273343 4.93797594 50.19273343 6.1953125 45.95703125 C6.17210937 45.24933594 6.14890625 44.54164063 6.125 43.8125 C6.08375 42.554375 6.0425 41.29625 6 40 C5.278125 40.66 4.55625 41.32 3.8125 42 C-1.17684524 45.33416866 -7.27515075 44.72928016 -13 44 C-16.5625 42.25 -16.5625 42.25 -19 40 C-19.721875 39.46375 -20.44375 38.9275 -21.1875 38.375 C-26.15960317 31.85983033 -27.04716158 22.93700881 -26 15 C-24.17188803 8.69954267 -20.25540329 4.74091515 -15 1 C-10.59444115 -1.20277942 -4.79471309 -0.44750656 0 0 Z " fill="#F8FBFD" transform="translate(149,177)"/>
<path d="M0 0 C2.97 0 5.94 0 9 0 C9 20.13 9 40.26 9 61 C6.03 61 3.06 61 0 61 C-0.495 59.02 -0.495 59.02 -1 57 C-1.763125 57.639375 -2.52625 58.27875 -3.3125 58.9375 C-8.609268 63.00246149 -14.57406903 62.61280401 -21 62 C-26.28558348 59.45159368 -29.84689919 55.81406551 -32.08203125 50.359375 C-34.02765553 43.23921807 -34.47852693 34.29505965 -32.0546875 27.25390625 C-28.95666366 22.10027539 -24.53024077 18.35863263 -19 16 C-13.02659562 15.24100307 -8.14330434 15.65685218 -3 19 C-2.34 19.66 -1.68 20.32 -1 21 C-0.67 14.07 -0.34 7.14 0 0 Z " fill="#F3F8FC" transform="translate(93,161)"/>
<path d="M0 0 C3.83815552 3.22753987 6.33106067 6.25669875 8 11 C8 14.63 8 18.26 8 22 C-2.56 22 -13.12 22 -24 22 C-21.00417394 30.21285135 -21.00417394 30.21285135 -14.9140625 34.41015625 C-7.69838993 36.63376147 -2.39062278 34.31365625 4 31 C5.5625 32.75 5.5625 32.75 7 35 C6.81640625 37 6.81640625 37 6 39 C0.2754004 43.70753876 -7.42601014 43.65973119 -14.46875 43.44140625 C-21.50761137 42.56154858 -25.12817492 39.34944582 -29.4375 33.9375 C-33.86496831 27.84520709 -33.48859507 21.30073783 -33 14 C-31.80803402 6.93164171 -27.6801114 3.06849249 -22 -1 C-15.32497021 -5.04014961 -6.48814402 -3.6893368 0 0 Z " fill="#F5F9FC" transform="translate(261,180)"/>
<path d="M0 0 C4.125 2.25 4.125 2.25 5.3125 4.625 C3.875 7.25 3.875 7.25 2.3125 9.625 C0.09355868 9.13190193 -1.77039367 8.58355317 -3.8125 7.5625 C-9.0512012 5.85422787 -14.49732951 5.73961193 -19.625 7.8125 C-22.81884124 10.61920897 -24.48840206 13.2922994 -25.12109375 17.52734375 C-25.12921401 23.83678864 -25.12420636 27.94180995 -20.6875 32.625 C-15.83264228 35.70473353 -10.22522593 35.26169041 -4.6875 34.625 C-2.24165323 33.5514413 -0.75501334 32.36606387 1.3125 30.625 C1.9725 30.625 2.6325 30.625 3.3125 30.625 C4.62751363 32.79090481 5.34272952 34.12621292 5.1875 36.6875 C3.70945733 39.96030877 1.24876009 41.17585936 -1.90234375 42.6875 C-8.39498366 44.87296084 -16.88138061 44.90452286 -23.1875 42.0625 C-29.28388674 38.36018788 -32.82713711 33.4603605 -34.6875 26.625 C-35.52417989 19.52643168 -35.63791847 13.22464005 -31.24609375 7.33984375 C-22.64567861 -2.12276839 -12.17752202 -5.93129305 0 0 Z " fill="#F4F9FC" transform="translate(220.6875,179.375)"/>
<path d="M0 0 C2.64 0 5.28 0 8 0 C8 4.29 8 8.58 8 13 C11.63 13 15.26 13 19 13 C19 15.31 19 17.62 19 20 C15.37 20 11.74 20 8 20 C8.03302264 23.73155806 8.10022724 27.45714905 8.1875 31.1875 C8.19330078 32.24259766 8.19910156 33.29769531 8.20507812 34.38476562 C8.34682468 40.73589229 8.34682468 40.73589229 11.375 46.1875 C14.0360333 48.02488014 15.80009154 48.72572213 19 49 C19 51.64 19 54.28 19 57 C12.67814387 56.75012426 7.89392721 56.4164709 3 52 C-1.19832323 46.12035775 -0.33329926 39.52616486 -0.1875 32.625 C-0.17396484 31.41199219 -0.16042969 30.19898438 -0.14648438 28.94921875 C-0.11124582 25.96568794 -0.06197525 22.98307542 0 20 C-1.98 20 -3.96 20 -6 20 C-6 17.69 -6 15.38 -6 13 C-4.02 13 -2.04 13 0 13 C0 8.71 0 4.42 0 0 Z " fill="#FBFCFE" transform="translate(310,166)"/>
<path d="M0 0 C3.40121449 2.55091087 5.42140366 5.08782645 7 9 C7.64976949 14.8479254 7.8009249 20.21332138 5.375 25.625 C1.88039472 29.11960528 -1.12918422 30.68819737 -6 31.5 C-10.15933048 30.80677825 -12.05394582 28.94605418 -15 26 C-18.44862347 20.76841474 -17.57593781 13.98142639 -17 8 C-14.13432685 0.12292799 -7.55348335 -1.19456047 0 0 Z " fill="#0576C4" transform="translate(86,185)"/>
<path d="M0 0 C4.16581706 2.3432721 5.51831214 4.56137855 7 9 C7.89695608 16.07135138 7.36680209 21.29889727 3 27 C0.08918497 29.39102663 -3.24867847 29.47997855 -6.96875 29.3828125 C-10.7246102 28.67497731 -12.41063007 26.77432493 -15 24 C-17.6983589 18.52910051 -17.81589213 12.97782356 -17 7 C-13.29911137 -0.31922957 -7.46916322 -0.84689725 0 0 Z " fill="#0576C4" transform="translate(149,185)"/>
<path d="M0 0 C2.64 0 5.28 0 8 0 C8.33 2.31 8.66 4.62 9 7 C9.598125 6.21625 10.19625 5.4325 10.8125 4.625 C14.55124654 0.13850416 14.55124654 0.13850416 18.04296875 -0.1953125 C18.75066406 -0.17210937 19.45835937 -0.14890625 20.1875 -0.125 C22.0746875 -0.063125 22.0746875 -0.063125 24 0 C24 2.64 24 5.28 24 8 C22.205625 8.2784375 22.205625 8.2784375 20.375 8.5625 C15.34182627 9.79620866 12.74734618 12.73163172 10 17 C8.98412022 20.04763934 8.80195594 22.34718967 8.68359375 25.54296875 C8.64169922 26.61611328 8.59980469 27.68925781 8.55664062 28.79492188 C8.49766602 30.47424805 8.49766602 30.47424805 8.4375 32.1875 C8.39431641 33.31865234 8.35113281 34.44980469 8.30664062 35.61523438 C8.20050901 38.41003354 8.09845615 41.20492162 8 44 C5.36 44 2.72 44 0 44 C0 29.48 0 14.96 0 0 Z " fill="#FCFDFE" transform="translate(275,178)"/>
<path d="M0 0 C2.97 0 5.94 0 9 0 C9 14.52 9 29.04 9 44 C6.03 44 3.06 44 0 44 C0 29.48 0 14.96 0 0 Z " fill="#F8FBFD" transform="translate(171,178)"/>
<path d="M0 0 C2.97 0 5.94 0 9 0 C9 14.52 9 29.04 9 44 C6.03 44 3.06 44 0 44 C0 29.48 0 14.96 0 0 Z " fill="#F0F7FB" transform="translate(108,178)"/>
<path d="M0 0 C2.31079149 1.84863319 3.25837108 2.96261325 4.1875 5.75 C4.1875 7.07 4.1875 8.39 4.1875 9.75 C-3.4025 9.75 -10.9925 9.75 -18.8125 9.75 C-17.73180212 4.34651059 -16.8436625 3.20528214 -12.8125 -0.25 C-8.26187587 -1.76687471 -4.43015604 -1.96895824 0 0 Z " fill="#0777C4" transform="translate(255.8125,185.25)"/>
<path d="M0 0 C2.83171242 2.01200619 3.84987863 3.12071767 4.4375 6.5625 C4 9 4 9 3 10.8125 C-0.36126578 12.80825156 -3.13835515 12.3677757 -7 12 C-9.31282587 8.53076119 -9.42478586 7.07794425 -9 3 C-6.79244709 -0.67925486 -4.01747809 -0.57392544 0 0 Z " fill="#BAD9EE" transform="translate(337,161)"/>
<path d="M0 0 C2.97 0 5.94 0 9 0 C9 2.64 9 5.28 9 8 C6.03 8 3.06 8 0 8 C0 5.36 0 2.72 0 0 Z " fill="#F8FBFD" transform="translate(171,161)"/>
<path d="M0 0 C2.64 0 5.28 0 8 0 C8 2.64 8 5.28 8 8 C5.36 8 2.72 8 0 8 C0 5.36 0 2.72 0 0 Z " fill="#FFFFFF" transform="translate(109,161)"/>
<path d="M0 0 C2.475 0.495 2.475 0.495 5 1 C5.33 3.31 5.66 5.62 6 8 C5.01 8.495 5.01 8.495 4 9 C3.06576355 5.98968256 2.95550089 5.13349732 4 2 C2.68 1.34 1.36 0.68 0 0 Z " fill="#2788CC" transform="translate(333,162)"/>
<path d="M0 0 C0.33 0 0.66 0 1 0 C1 2.64 1 5.28 1 8 C0.01 7.34 -0.98 6.68 -2 6 C-1.125 1.125 -1.125 1.125 0 0 Z " fill="#1780C8" transform="translate(331,163)"/>
</svg>
