<svg id="Layer_1" data-name="Layer 1" xmlns="http://www.w3.org/2000/svg" viewBox="0 0 1000 1000"><defs><style>.cls-1{fill:#5865f2;}</style></defs><path class="cls-1" d="M744.68,277.27c79.44,116.81,118.68,248.56,104,400.24a2.31,2.31,0,0,1-.92,1.62c-60.16,44.18-118.45,71-175.92,88.77a2.25,2.25,0,0,1-2.47-.84,467.72,467.72,0,0,1-35.91-58.4,2.24,2.24,0,0,1,1.19-3.13,358.74,358.74,0,0,0,54.9-26.12,2.26,2.26,0,0,0,.2-3.74c-3.72-2.76-7.41-5.66-10.93-8.56a2.15,2.15,0,0,0-2.3-.28c-113.77,52.54-238.4,52.54-353.52,0a2.2,2.2,0,0,0-2.28.31c-3.51,2.9-7.21,5.77-10.89,8.53a2.26,2.26,0,0,0,.22,3.74,382.63,382.63,0,0,0,54.88,26.15,2.22,2.22,0,0,1,1.21,3.1,417.27,417.27,0,0,1-35.93,58.43,2.3,2.3,0,0,1-2.47.81c-57.2-17.78-115.49-44.59-175.65-88.77a2.37,2.37,0,0,1-.91-1.64c-12.26-131.2,12.72-264,103.91-400.24a2.11,2.11,0,0,1,.94-.81A579.46,579.46,0,0,1,399.23,232a2.28,2.28,0,0,1,2.3,1.09,372.4,372.4,0,0,1,18.11,36.61,535.77,535.77,0,0,1,160.81,0,407,407,0,0,1,17.83-36.61,2.2,2.2,0,0,1,2.31-1.09,580,580,0,0,1,143.17,44.4,1.78,1.78,0,0,1,.92.83ZM446.56,526.73c.56-38.78-27.72-70.88-63.22-70.88-35.21,0-63.21,31.81-63.21,70.88s28.56,70.87,63.21,70.87C418.56,597.6,446.56,565.79,446.56,526.73Zm233.74,0c.55-38.78-27.73-70.88-63.22-70.88-35.21,0-63.22,31.81-63.22,70.88s28.56,70.87,63.22,70.87C652.57,597.6,680.3,565.79,680.3,526.73Z"/></svg>