<svg width="176" height="32" viewBox="0 0 176 32" fill="none" xmlns="http://www.w3.org/2000/svg">
<g id="Draftable-logo">
<path id="Vector" d="M40.5869 1.83179H49.5744C57.188 1.83179 63.3132 5.83894 63.3132 15.9713C63.3132 26.2182 57.3597 30.6833 49.7461 30.6833H40.5869V1.83179ZM49.5171 28.3362C55.7569 28.3362 60.5082 25.3595 60.5082 16.0858C60.5082 7.38456 55.6996 4.17883 49.6316 4.17883H43.2774V28.3362H49.5171Z" fill="white"/>
<path id="Vector_2" d="M65.8887 10.8766H68.3502V14.9982H68.4075C69.2661 12.7084 71.6704 10.5331 74.6472 10.5331H74.9906V13.1091H74.4754C71.3842 13.1091 68.5219 15.1699 68.5219 19.8068V30.6261H65.8887V10.8766Z" fill="white"/>
<path id="Vector_3" d="M76.0786 16.1434C76.1359 13.0522 78.7692 10.4189 83.2343 10.4189C88.7298 10.4189 90.2754 13.4529 90.2754 17.689V26.2758C90.2754 28.1076 90.7906 28.7373 92.2218 28.7373V30.7981H91.8783C89.0733 30.7981 88.0429 29.5387 87.8711 26.9055H87.8139C86.6117 29.4815 84.2074 30.9126 81.1735 30.9126C77.4525 30.9126 75.1055 28.8518 75.1055 25.3599C75.1055 23.07 76.0786 21.4672 77.796 20.5513C79.7423 19.4636 83.0053 19.1201 87.8139 18.8339V17.5745C87.8139 14.4833 86.7262 12.308 83.2343 12.308C80.2003 12.308 78.7692 14.0253 78.6547 16.0289H76.0786V16.1434ZM87.6994 21.7534V20.952C82.7763 21.2382 80.3148 21.5817 79.0554 22.4404C78.1395 23.0701 77.6815 24.0432 77.6815 25.3026C77.6815 27.6497 79.2271 28.8518 81.6314 28.8518C84.4937 28.8518 87.6994 26.6192 87.6994 21.7534Z" fill="white"/>
<path id="Vector_4" d="M116.321 16.1434C116.378 13.0522 119.011 10.4189 123.476 10.4189C128.972 10.4189 130.518 13.4529 130.518 17.689V26.2758C130.518 28.1076 131.033 28.7373 132.464 28.7373V30.7981H132.12C129.315 30.7981 128.285 29.5387 128.113 26.9055H128.056C126.854 29.4815 124.45 30.9126 121.416 30.9126C117.695 30.9126 115.348 28.8518 115.348 25.3599C115.348 23.07 116.321 21.4672 118.038 20.5513C119.985 19.4636 123.247 19.1201 128.056 18.8339V17.5745C128.056 14.4833 126.968 12.308 123.476 12.308C120.442 12.308 119.011 14.0253 118.897 16.0289H116.321V16.1434ZM127.999 21.7534V20.952C123.076 21.2382 120.614 21.5817 119.355 22.4404C118.439 23.0701 117.981 24.0432 117.981 25.3026C117.981 27.6497 119.527 28.8518 121.931 28.8518C124.736 28.8518 127.999 26.6192 127.999 21.7534Z" fill="white"/>
<path id="Vector_5" d="M134.582 0.915894H137.215V14.3112H137.273C138.417 11.9069 140.707 10.4186 143.741 10.4186C147.863 10.4186 151.698 13.0518 151.698 20.6654C151.698 27.8211 147.863 31.1413 143.341 31.1413C140.135 31.1413 138.017 29.2522 137.101 27.2486H137.044V30.6261H134.582V0.915894ZM149.008 20.6654C149.008 16.2003 147.577 12.5366 143.226 12.5366C139.219 12.5366 137.158 15.7424 137.158 19.0626V22.1538C137.158 25.6458 139.047 29.0805 143.169 29.0805C147.061 29.0232 149.008 25.8747 149.008 20.6654Z" fill="white"/>
<path id="Vector_6" d="M156.793 0.915894H154.16V30.6261H156.793V0.915894Z" fill="white"/>
<path id="Vector_7" d="M168.072 31.1413C162.061 31.1413 159.313 27.0769 159.313 20.8944C159.313 14.8837 162.347 10.3613 168.015 10.3613C173.854 10.3613 175.915 15.0554 175.915 19.6923V21.2951H161.947C162.118 26.1037 164.008 28.966 168.129 28.966C171.621 28.966 172.766 26.6762 173.11 25.5885H175.571C174.827 28.737 171.907 31.1413 168.072 31.1413ZM173.224 19.1771C173.167 16.0858 172.136 12.4222 167.957 12.4222C164.237 12.4222 162.29 15.2844 161.947 19.3488H173.224V19.1771Z" fill="white"/>
<path id="Vector_8" d="M100.809 3.03371C101.667 3.03371 102.24 3.09096 102.698 3.20545V1.03013C102.011 0.858398 101.324 0.858398 100.694 0.858398C97.3168 0.858398 95.1987 2.57575 95.1987 5.95321V10.8763H91.3633V12.9371H95.1987V30.6831H97.832V12.9371H101.725V10.8763H97.832V6.35392C97.832 3.94963 98.7479 3.03371 100.809 3.03371Z" fill="white"/>
<path id="Vector_9" d="M108.938 4.98029V10.8765H113.975V12.9374H108.938V25.703C108.938 27.8211 109.854 28.737 112.086 28.737C113.231 28.737 114.376 28.508 114.376 28.508V30.6833C114.376 30.6833 113.231 30.9696 111.457 30.9696C107.621 30.9696 106.305 28.9087 106.305 25.9892V12.9374H102.526V10.8765H103.385C105.904 10.8765 106.419 10.3613 106.419 6.75488V4.98029H108.938Z" fill="white"/>
<path id="Vector_10" d="M5.61002 23.127H0.858677C0.400716 23.127 0 22.7263 0 22.2683C0 21.8104 0.400716 21.4097 0.858677 21.4097H5.61002C11.907 21.4097 17.059 17.0018 17.059 11.5635C17.059 6.12522 11.907 1.71735 5.61002 1.71735H0.858677C0.400716 1.71735 0 1.37388 0 0.858676C0 0.400716 0.400716 0 0.858677 0H5.61002C12.8801 0 18.7764 5.2093 18.7764 11.5635C18.7764 17.975 12.8801 23.127 5.61002 23.127Z" fill="#69B2F9"/>
<path id="Vector_11" d="M6.18247 26.1037H0.858676C0.400716 26.1037 0 25.703 0 25.2451C0 24.7871 0.400716 24.3864 0.858676 24.3864H6.18247C17.288 24.3864 26.0465 16.8873 26.0465 7.27011C26.0465 6.64042 25.9893 6.06797 25.932 5.43827C25.8748 4.98031 26.2182 4.52235 26.6762 4.4651C27.1342 4.40786 27.5921 4.75133 27.6494 5.20929C27.7066 5.89623 27.7639 6.52593 27.7639 7.21287C27.7639 17.8032 18.3184 26.1037 6.18247 26.1037Z" fill="#69B2F9"/>
<path id="Vector_12" d="M6.18247 29.0235H0.858676C0.400716 29.0235 0 28.6228 0 28.1648C0 27.7068 0.400716 27.3061 0.858676 27.3061H6.18247C14.941 27.3061 23.4132 24.9591 30.6261 20.5512C31.0268 20.3222 31.5993 20.4367 31.8283 20.8374C32.0573 21.2382 31.9428 21.8106 31.542 22.0396C24.0429 26.6192 15.2844 29.0235 6.18247 29.0235Z" fill="#69B2F9"/>
<path id="Vector_13" d="M31.2558 31.9998H0.858676C0.400716 31.9998 0 31.5991 0 31.1411C0 30.6832 0.400716 30.2825 0.858676 30.2825H31.2558C31.7138 30.2825 32.1145 30.6832 32.1145 31.1411C32.1145 31.5991 31.7138 31.9998 31.2558 31.9998Z" fill="#69B2F9"/>
</g>
</svg>
