<?xml version="1.0" encoding="UTF-8"?>
<svg version="1.1" xmlns="http://www.w3.org/2000/svg" width="500" height="500">
<path d="M0 0 C165 0 330 0 500 0 C500 165 500 330 500 500 C335 500 170 500 0 500 C0 335 0 170 0 0 Z " fill="#FEFEFE" transform="translate(0,0)"/>
<path d="M0 0 C165 0 330 0 500 0 C500 165 500 330 500 500 C335 500 170 500 0 500 C0 335 0 170 0 0 Z M15 110 C15 202.4 15 294.8 15 390 C170.1 390 325.2 390 485 390 C485 297.6 485 205.2 485 110 C329.9 110 174.8 110 15 110 Z " fill="#FFFFFF" transform="translate(0,0)"/>
<path d="M0 0 C155.1 0 310.2 0 470 0 C470 92.4 470 184.8 470 280 C314.9 280 159.8 280 0 280 C0 187.6 0 95.2 0 0 Z M15 15 C15 97.5 15 180 15 265 C160.2 265 305.4 265 455 265 C455 248.83 455 232.66 455 216 C402.53 216 350.06 216 296 216 C296 214.68 296 213.36 296 212 C348.47 212 400.94 212 455 212 C455 206.39 455 200.78 455 195 C402.53 195 350.06 195 296 195 C296 193.68 296 192.36 296 191 C348.47 191 400.94 191 455 191 C455 185.72 455 180.44 455 175 C402.53 175 350.06 175 296 175 C296 173.68 296 172.36 296 171 C348.47 171 400.94 171 455 171 C455 164.4 455 157.8 455 151 C402.53 151 350.06 151 296 151 C296 147.37 296 143.74 296 140 C348.47 140 400.94 140 455 140 C455 134.39 455 128.78 455 123 C402.53 123 350.06 123 296 123 C296 121.68 296 120.36 296 119 C348.47 119 400.94 119 455 119 C455 112.73 455 106.46 455 100 C402.53 100 350.06 100 296 100 C296 98.68 296 97.36 296 96 C348.47 96 400.94 96 455 96 C455 69.27 455 42.54 455 15 C309.8 15 164.6 15 15 15 Z " fill="#020202" transform="translate(15,110)"/>
</svg>
