<svg viewBox="0 0 426.52 85.72" xmlns="http://www.w3.org/2000/svg" xmlns:xlink="http://www.w3.org/1999/xlink"><defs><style>.cls-1,.cls-2,.cls-3,.cls-4{fill-rule:evenodd}.cls-1{fill:url(#GradientFill_2)}.cls-2{fill:url(#linear-gradient)}.cls-3,.cls-5{fill:#232830}.cls-4{fill:url(#linear-gradient-2)}.cls-6{fill:#00b7d8}</style><linearGradient gradientUnits="userSpaceOnUse" id="GradientFill_2" x1="-16.44" x2="32.77" y1="102.16" y2="52.95"><stop offset="0" stop-color="#e73056"></stop><stop offset="1" stop-color="#ffd951"></stop></linearGradient><linearGradient gradientUnits="userSpaceOnUse" id="linear-gradient" x1="-18.09" x2="86.78" y1="91.08" y2="6.15"><stop offset="0" stop-color="#00b2d8"></stop><stop offset="0.03" stop-color="#05b3d8"></stop><stop offset="0.5" stop-color="#4cc4da"></stop><stop offset="0.83" stop-color="#78cedc"></stop><stop offset="1" stop-color="#89d2dc"></stop></linearGradient><linearGradient id="linear-gradient-2" x1="279.87" x2="390.65" href="#linear-gradient" y1="78.88" y2="-10.82"></linearGradient></defs><g data-name="Layer 2" id="Layer_2"><g id="body"><path class="cls-1" d="M8.8,76.92l8.68-15.29C10.32,61.79-.6,65.32,0,85.69c20.37.63,23.9-10.29,24.06-17.45Z"></path><path class="cls-2" d="M19.31,54.92,30.8,66.41l4.64-1.93-14.2-14.2-1.93,4.64ZM37.42,31.46V7.28L13.3,31.4l-.06.06ZM41.7,5.1V38.91A5.11,5.11,0,0,0,46.8,44H80.62a5.1,5.1,0,0,0,5.1-5.1V5.1A5.12,5.12,0,0,0,80.62,0H46.8a5.07,5.07,0,0,0-3.6,1.5l0,0A5.09,5.09,0,0,0,41.7,5.1ZM37.42,35.74v3.92a8.67,8.67,0,0,0,8.64,8.64H50V72.52l-.11-.1L13.3,35.85l-.11-.11Zm41,12.56H54.26V72.48l.06-.06Z"></path><path class="cls-3" d="M116.41,36a15.92,15.92,0,0,1,1-5.86A12.69,12.69,0,0,1,120,26a10.8,10.8,0,0,1,3.69-2.54,11.21,11.21,0,0,1,4.29-.86,10.45,10.45,0,0,1,8.12,3.28q3,3.28,3,9.64c0,.42,0,.87-.05,1.37s-.06.93-.09,1.31H123.43a4.78,4.78,0,0,0,2,3.5A7.69,7.69,0,0,0,130.08,43a19,19,0,0,0,3.7-.36,13.58,13.58,0,0,0,2.95-.88l.92,5.79a8.91,8.91,0,0,1-1.46.57,18.68,18.68,0,0,1-2.05.5c-.75.15-1.55.27-2.41.36a22,22,0,0,1-2.57.15,14.6,14.6,0,0,1-5.66-1,10.67,10.67,0,0,1-6.34-6.89,17.23,17.23,0,0,1-.75-5.17Zm16.06-2.73a7.63,7.63,0,0,0-.3-1.77,4.62,4.62,0,0,0-.78-1.53,4.11,4.11,0,0,0-1.33-1.1,4.17,4.17,0,0,0-2-.43,4.31,4.31,0,0,0-2,.41A4.2,4.2,0,0,0,124.71,30a5.11,5.11,0,0,0-.85,1.56,11.36,11.36,0,0,0-.43,1.79Zm12.3-9.19a39,39,0,0,1,4.5-1,35.83,35.83,0,0,1,5.78-.45,13.5,13.5,0,0,1,5.12.84,7.61,7.61,0,0,1,3.24,2.37,9.52,9.52,0,0,1,1.7,3.63,20.57,20.57,0,0,1,.5,4.69V48.44h-6.84V35.08a10,10,0,0,0-.87-4.88,3.49,3.49,0,0,0-3.26-1.43c-.49,0-1,0-1.56.07s-1,.1-1.47.17V48.44h-6.84V24.12ZM178.05,35c0,4,1.55,6,4.64,6a6.61,6.61,0,0,0,2-.29,7.1,7.1,0,0,0,1.56-.67V28.67c-.33-.06-.73-.12-1.19-.17a15.14,15.14,0,0,0-1.61-.07,4.63,4.63,0,0,0-4,1.87A8,8,0,0,0,178.05,35Zm15,10.24q0,6.16-3,9.16t-9.29,3a24.17,24.17,0,0,1-4.4-.4A27.38,27.38,0,0,1,172.27,56l1.2-6A19.17,19.17,0,0,0,176.84,51a18.71,18.71,0,0,0,4,.38c2,0,3.35-.44,4.15-1.34a4.88,4.88,0,0,0,1.22-3.44v-.91a10.91,10.91,0,0,1-2.27.79,12,12,0,0,1-2.55.26c-3.33,0-5.89-1-7.66-3.08s-2.66-4.94-2.66-8.64A14.7,14.7,0,0,1,171.9,30a10.93,10.93,0,0,1,2.41-3.9,10.69,10.69,0,0,1,3.88-2.52,14.34,14.34,0,0,1,5.19-.88c.82,0,1.67,0,2.54.12s1.74.18,2.6.31,1.67.28,2.45.45,1.48.36,2.09.55V45.28Zm13.68,3.16h-6.83V23.26h6.83V48.44ZM207.39,16a4,4,0,0,1-1.22,3.09,4.24,4.24,0,0,1-5.74,0A4,4,0,0,1,199.22,16a4,4,0,0,1,1.21-3.09,4.24,4.24,0,0,1,5.74,0A4,4,0,0,1,207.39,16Zm6.2,8.13a38.07,38.07,0,0,1,4.5-1,35.74,35.74,0,0,1,5.78-.45,13.45,13.45,0,0,1,5.11.84,7.49,7.49,0,0,1,3.24,2.37,9.52,9.52,0,0,1,1.7,3.63,20,20,0,0,1,.5,4.69V48.44h-6.84V35.08a9.89,9.89,0,0,0-.87-4.88,3.48,3.48,0,0,0-3.25-1.43c-.49,0-1,0-1.56.07s-1,.1-1.47.17V48.44h-6.84V24.12ZM239.89,36a15.91,15.91,0,0,1,1-5.86A12.68,12.68,0,0,1,243.47,26a10.74,10.74,0,0,1,3.7-2.54,11.21,11.21,0,0,1,4.29-.86,10.46,10.46,0,0,1,8.12,3.28q3,3.28,3,9.64c0,.42,0,.87,0,1.37s-.06.93-.1,1.31H246.91a4.79,4.79,0,0,0,2,3.5A7.69,7.69,0,0,0,253.57,43a18.92,18.92,0,0,0,3.69-.36,13.52,13.52,0,0,0,3-.88l.92,5.79a9.46,9.46,0,0,1-1.47.57,17.94,17.94,0,0,1-2,.5c-.75.15-1.55.27-2.41.36a22.15,22.15,0,0,1-2.57.15,14.69,14.69,0,0,1-5.67-1,11.15,11.15,0,0,1-4-2.75,11,11,0,0,1-2.34-4.14,16.92,16.92,0,0,1-.76-5.17ZM256,33.31a7.61,7.61,0,0,0-.29-1.77,4.46,4.46,0,0,0-.79-1.53,4,4,0,0,0-3.32-1.53,4.35,4.35,0,0,0-2,.41A4.27,4.27,0,0,0,248.2,30a4.9,4.9,0,0,0-.85,1.56,11.4,11.4,0,0,0-.44,1.79Z"></path><path class="cls-4" d="M281.52,35.08a10.17,10.17,0,0,0-.85-4.88,3.08,3.08,0,0,0-2.91-1.43,12.23,12.23,0,0,0-1.33.07c-.46.05-.9.1-1.33.17V48.44h-6.84V24.12c.58-.16,1.26-.32,2-.5s1.61-.33,2.48-.48,1.77-.25,2.69-.33,1.82-.12,2.7-.12a11,11,0,0,1,4.25.69A9.63,9.63,0,0,1,285.1,25a12.19,12.19,0,0,1,11.64-1.5,7.1,7.1,0,0,1,3,2.37,9.27,9.27,0,0,1,1.51,3.63,24.16,24.16,0,0,1,.41,4.69V48.44h-6.83V35.08a10.29,10.29,0,0,0-.85-4.88A3.11,3.11,0,0,0,291,28.77a5.87,5.87,0,0,0-1.53.28,5.62,5.62,0,0,0-1.63.72,11.6,11.6,0,0,1,.41,2.32q.09,1.23.09,2.61V48.44h-6.84V35.08Zm36,8.38c.67,0,1.31,0,1.92-.05a13.12,13.12,0,0,0,1.47-.14V37.86a16.11,16.11,0,0,0-2.75-.29,12.89,12.89,0,0,0-1.81.12,4.47,4.47,0,0,0-1.5.46,2.54,2.54,0,0,0-1,.91,2.64,2.64,0,0,0-.36,1.43,2.49,2.49,0,0,0,1.07,2.32,5.79,5.79,0,0,0,3,.65Zm-.56-20.87a15.17,15.17,0,0,1,5,.72,7.34,7.34,0,0,1,5,5.31,17.05,17.05,0,0,1,.5,4.26V47.72c-1,.22-2.34.48-4.08.79A38.17,38.17,0,0,1,317,49a19.13,19.13,0,0,1-4.24-.43,9,9,0,0,1-3.28-1.41,6.37,6.37,0,0,1-2.11-2.56,9.14,9.14,0,0,1-.73-3.88,7.67,7.67,0,0,1,.84-3.73,6.69,6.69,0,0,1,2.28-2.44A9.83,9.83,0,0,1,313,33.19a17.72,17.72,0,0,1,3.81-.4,20.79,20.79,0,0,1,2.37.12,10.05,10.05,0,0,1,1.67.31v-.67a4.05,4.05,0,0,0-1.05-2.92c-.71-.74-1.93-1.1-3.68-1.1a21.86,21.86,0,0,0-3.44.26,14.36,14.36,0,0,0-2.93.74l-.88-5.74c.4-.13.9-.26,1.49-.41s1.25-.27,1.95-.38,1.45-.21,2.23-.29a23.16,23.16,0,0,1,2.36-.12Zm24,25.85H334V23.26h6.84V48.44ZM341.52,16a4,4,0,0,1-1.22,3.09,4.22,4.22,0,0,1-5.73,0A4,4,0,0,1,333.35,16a4,4,0,0,1,1.22-3.09,4.22,4.22,0,0,1,5.73,0A4,4,0,0,1,341.52,16Zm15.84,32.92a16.55,16.55,0,0,1-4.84-.66,7.18,7.18,0,0,1-2.94-1.75,5.86,5.86,0,0,1-1.47-2.73,15.3,15.3,0,0,1-.39-3.61V12.45l6.84-1.15V38.72a9.89,9.89,0,0,0,.14,1.72,3.1,3.1,0,0,0,.52,1.3,2.88,2.88,0,0,0,1.13.86,6.22,6.22,0,0,0,2,.43l-1,5.88ZM361.5,36a15.71,15.71,0,0,1,1-5.86A12.51,12.51,0,0,1,365.08,26a10.8,10.8,0,0,1,3.69-2.54,11.21,11.21,0,0,1,4.29-.86,10.45,10.45,0,0,1,8.12,3.28q3,3.28,3,9.64c0,.42,0,.87,0,1.37s-.06.93-.09,1.31H368.52a4.78,4.78,0,0,0,2,3.5A7.71,7.71,0,0,0,375.17,43a19,19,0,0,0,3.7-.36,13.58,13.58,0,0,0,2.95-.88l.92,5.79a8.91,8.91,0,0,1-1.46.57,18.68,18.68,0,0,1-2,.5c-.75.15-1.55.27-2.41.36a22,22,0,0,1-2.57.15,14.6,14.6,0,0,1-5.66-1,10.67,10.67,0,0,1-6.34-6.89A17.23,17.23,0,0,1,361.5,36Zm16.06-2.73a7.63,7.63,0,0,0-.3-1.77,4.62,4.62,0,0,0-.78-1.53,4.22,4.22,0,0,0-1.33-1.1,4.17,4.17,0,0,0-2-.43,4.31,4.31,0,0,0-2,.41A4.2,4.2,0,0,0,369.8,30a5.11,5.11,0,0,0-.85,1.56,11.36,11.36,0,0,0-.43,1.79Zm26.85-3.73c-.61-.16-1.33-.33-2.15-.5a12.56,12.56,0,0,0-2.66-.27,13.79,13.79,0,0,0-1.54.12,8.24,8.24,0,0,0-1.36.27V48.44h-6.83V24.6a39.5,39.5,0,0,1,4.33-1.26,23.46,23.46,0,0,1,5.58-.6c.36,0,.81,0,1.33.07s1,.11,1.56.19,1,.18,1.56.29a7,7,0,0,1,1.33.4Z"></path><path class="cls-5" d="M120.09,77.42c0,1.54,1.13,2.14,2.53,2.14s2.11-.75,2.11-1.51a1.19,1.19,0,0,0-.82-1.23c-.7-.26-1.61-.44-3-.82a2.54,2.54,0,0,1-2.21-2.53c0-2,1.85-2.93,3.65-2.93,2.08,0,3.83,1.1,3.83,3.18h-1.75c-.08-1.28-1-1.76-2.15-1.76-.81,0-1.83.3-1.83,1.3,0,.7.47,1.09,1.19,1.29.15,0,2.36.61,2.87.76a2.64,2.64,0,0,1,1.94,2.55c0,2.23-2,3.12-4,3.12-2.28,0-4.12-1.08-4.16-3.56Z"></path><path class="cls-5" d="M138.19,70.78h7.18v1.5h-5.44V74.9h5v1.42h-5v2.92h5.54v1.51h-7.28Z"></path><path class="cls-5" d="M157.11,70.78H159l4.56,7.34h0V70.78h1.66v10h-1.84l-4.54-7.33h0v7.33h-1.66Z"></path><path class="cls-5" d="M177.45,70.78h4.14c3.07,0,4.39,2.23,4.39,5s-1.32,5-4.39,5h-4.14Zm1.75,8.54h1.72c2.73,0,3.32-1.56,3.32-3.56s-.59-3.56-3.32-3.56H179.2Z"></path><path class="cls-5" d="M211.8,70.78h1.74v10H211.8Z"></path><path class="cls-5" d="M224.92,70.78H233v1.5h-3.17v8.47h-1.75V72.28h-3.16Z"></path><path class="cls-5" d="M261,76.84l-3.74-6.06h2l2.64,4.47,2.6-4.47h1.95l-3.73,6.06v3.91H261Z"></path><path class="cls-5" d="M286.68,75.76c0,2.85-1.78,5.22-4.77,5.22s-4.78-2.37-4.78-5.22,1.79-5.22,4.78-5.22S286.68,72.91,286.68,75.76Zm-7.8,0c0,1.91.89,3.8,3,3.8s3-1.89,3-3.8-.9-3.8-3-3.8S278.88,73.85,278.88,75.76Z"></path><path class="cls-5" d="M298.35,70.78h1.75v5.81c0,1.34.08,2.89,2.35,2.89s2.34-1.55,2.34-2.89V70.78h1.75v6.38c0,2.55-1.64,3.82-4.09,3.82s-4.1-1.27-4.1-3.82Z"></path><path class="cls-5" d="M318.74,70.78h4.76c2.18,0,3.3,1,3.3,2.69A2.45,2.45,0,0,1,325.15,76v0c.6.09,1.48.53,1.48,2.11a4.53,4.53,0,0,0,.55,2.63H325.3a2.86,2.86,0,0,1-.26-1.47c0-1.83-.38-2.64-2-2.64h-2.57v4.11h-1.75Zm1.75,4.53h2.86c1.1,0,1.7-.54,1.7-1.59,0-1.27-.82-1.52-1.73-1.52h-2.83Z"></path><path class="cls-5" d="M351.86,70.78h1.77l1.8,7.62h0l2-7.62h1.79l2,7.62h0l1.86-7.62h1.77l-2.75,10h-1.77l-2-7.63h0l-2,7.63h-1.8Z"></path><path class="cls-5" d="M378.53,70.78h1.86l3.84,10h-1.87l-.94-2.64h-4l-.94,2.64h-1.8Zm-.62,6h3l-1.5-4.29h0Z"></path><path class="cls-5" d="M396.93,76.84l-3.74-6.06h2l2.64,4.47,2.6-4.47h2l-3.73,6.06v3.91h-1.75Z"></path><path class="cls-6" d="M418.12,1.81a8.54,8.54,0,0,1,4.13,1.09A7.65,7.65,0,0,1,425.39,6a8.42,8.42,0,0,1,0,8.39,7.82,7.82,0,0,1-3.11,3.11,8.44,8.44,0,0,1-8.37,0,7.82,7.82,0,0,1-3.11-3.11,8.52,8.52,0,0,1-1.11-4.18A8.42,8.42,0,0,1,410.84,6,7.67,7.67,0,0,1,414,2.9,8.54,8.54,0,0,1,418.12,1.81Zm0,1.39a7.24,7.24,0,0,0-3.45.91,6.49,6.49,0,0,0-2.62,2.6,7,7,0,0,0,0,7,6.63,6.63,0,0,0,2.6,2.6,7,7,0,0,0,7,0,6.61,6.61,0,0,0,2.59-2.6,7,7,0,0,0,0-7,6.43,6.43,0,0,0-2.62-2.6A7.23,7.23,0,0,0,418.12,3.2Zm-3.69,11.67v-9h3.11a7.78,7.78,0,0,1,2.3.25A2.22,2.22,0,0,1,421,7a2.3,2.3,0,0,1,.42,1.32,2.42,2.42,0,0,1-.7,1.73,2.82,2.82,0,0,1-1.88.82,2.68,2.68,0,0,1,.77.48,10.9,10.9,0,0,1,1.34,1.8l1.1,1.77h-1.78l-.81-1.43a7.34,7.34,0,0,0-1.52-2.1,1.87,1.87,0,0,0-1.17-.32h-.86v3.85Zm1.46-5.09h1.77a2.84,2.84,0,0,0,1.73-.38,1.23,1.23,0,0,0,.47-1,1.21,1.21,0,0,0-.23-.72A1.37,1.37,0,0,0,419,7.2a4.72,4.72,0,0,0-1.46-.15h-1.66Z"></path></g></g></svg>