<svg width="246" height="112" viewBox="0 0 246 112" fill="none" xmlns="http://www.w3.org/2000/svg">
    <path d="M57 1.00903C26.5935 1.00903 2 25.6026 2 56.009C2 86.4156 26.5935 111.009 57 111.009C87.4065 111.009 112 86.4156 112 56.009C112 25.6026 87.3568 1.00903 57 1.00903ZM42.1445 47.3641H38.6667V99.0353H35.3378V47.3641H31.8601V29.4778H35.3378V23.2177H38.6667V29.5275H42.1445V47.3641ZM62.4652 93.421H58.8383V102.016H55.1617V93.421H51.5348V43.7371H55.1617V9.95213H58.7885V43.7371H62.4156V93.421H62.4652ZM82.0903 56.009H78.6125V68.579H75.6315V56.009H72.1536V23.2177H75.6315V16.9079H78.6125V23.2177H82.0903V56.009Z" fill="white"/>
    <path d="M137.689 31.355V36.041H145.246V40.397H137.689V45.479H146.236V50H132.046V26.834H146.236V31.355H137.689ZM160.856 50.231C158.678 50.231 156.676 49.725 154.85 48.713C153.046 47.701 151.605 46.293 150.527 44.489C149.471 42.663 148.943 40.617 148.943 38.351C148.943 36.085 149.471 34.05 150.527 32.246C151.605 30.442 153.046 29.034 154.85 28.022C156.676 27.01 158.678 26.504 160.856 26.504C163.034 26.504 165.025 27.01 166.829 28.022C168.655 29.034 170.085 30.442 171.119 32.246C172.175 34.05 172.703 36.085 172.703 38.351C172.703 40.617 172.175 42.663 171.119 44.489C170.063 46.293 168.633 47.701 166.829 48.713C165.025 49.725 163.034 50.231 160.856 50.231ZM160.856 45.083C162.704 45.083 164.178 44.467 165.278 43.235C166.4 42.003 166.961 40.375 166.961 38.351C166.961 36.305 166.4 34.677 165.278 33.467C164.178 32.235 162.704 31.619 160.856 31.619C158.986 31.619 157.49 32.224 156.368 33.434C155.268 34.644 154.718 36.283 154.718 38.351C154.718 40.397 155.268 42.036 156.368 43.268C157.49 44.478 158.986 45.083 160.856 45.083ZM184.521 26.834C186.963 26.834 189.097 27.318 190.923 28.286C192.749 29.254 194.157 30.618 195.147 32.378C196.159 34.116 196.665 36.129 196.665 38.417C196.665 40.683 196.159 42.696 195.147 44.456C194.157 46.216 192.738 47.58 190.89 48.548C189.064 49.516 186.941 50 184.521 50H175.842V26.834H184.521ZM184.158 45.116C186.292 45.116 187.953 44.533 189.141 43.367C190.329 42.201 190.923 40.551 190.923 38.417C190.923 36.283 190.329 34.622 189.141 33.434C187.953 32.246 186.292 31.652 184.158 31.652H181.485V45.116H184.158ZM219.882 26.834V50H214.239V40.463H205.461V50H199.818V26.834H205.461V35.909H214.239V26.834H219.882ZM232.635 26.834C235.077 26.834 237.211 27.318 239.037 28.286C240.863 29.254 242.271 30.618 243.261 32.378C244.273 34.116 244.779 36.129 244.779 38.417C244.779 40.683 244.273 42.696 243.261 44.456C242.271 46.216 240.852 47.58 239.004 48.548C237.178 49.516 235.055 50 232.635 50H223.956V26.834H232.635ZM232.272 45.116C234.406 45.116 236.067 44.533 237.255 43.367C238.443 42.201 239.037 40.551 239.037 38.417C239.037 36.283 238.443 34.622 237.255 33.434C236.067 32.246 234.406 31.652 232.272 31.652H229.599V45.116H232.272Z" fill="white"/>
    <path d="M146.467 83.908H137.821L136.435 88H130.528L138.91 64.834H145.444L153.826 88H147.853L146.467 83.908ZM145.015 79.552L142.144 71.071L139.306 79.552H145.015ZM174.032 72.292C174.032 73.634 173.724 74.866 173.108 75.988C172.492 77.088 171.546 77.979 170.27 78.661C168.994 79.343 167.41 79.684 165.518 79.684H162.02V88H156.377V64.834H165.518C167.366 64.834 168.928 65.153 170.204 65.791C171.48 66.429 172.437 67.309 173.075 68.431C173.713 69.553 174.032 70.84 174.032 72.292ZM165.089 75.196C166.167 75.196 166.97 74.943 167.498 74.437C168.026 73.931 168.29 73.216 168.29 72.292C168.29 71.368 168.026 70.653 167.498 70.147C166.97 69.641 166.167 69.388 165.089 69.388H162.02V75.196H165.089ZM182.613 64.834V88H176.97V64.834H182.613ZM194.193 88.264C192.587 88.264 191.157 87.989 189.903 87.439C188.649 86.889 187.659 86.141 186.933 85.195C186.207 84.227 185.8 83.149 185.712 81.961H191.289C191.355 82.599 191.652 83.116 192.18 83.512C192.708 83.908 193.357 84.106 194.127 84.106C194.831 84.106 195.37 83.974 195.744 83.71C196.14 83.424 196.338 83.061 196.338 82.621C196.338 82.093 196.063 81.708 195.513 81.466C194.963 81.202 194.072 80.916 192.84 80.608C191.52 80.3 190.42 79.981 189.54 79.651C188.66 79.299 187.901 78.76 187.263 78.034C186.625 77.286 186.306 76.285 186.306 75.031C186.306 73.975 186.592 73.018 187.164 72.16C187.758 71.28 188.616 70.587 189.738 70.081C190.882 69.575 192.235 69.322 193.797 69.322C196.107 69.322 197.922 69.894 199.242 71.038C200.584 72.182 201.354 73.7 201.552 75.592H196.338C196.25 74.954 195.964 74.448 195.48 74.074C195.018 73.7 194.402 73.513 193.632 73.513C192.972 73.513 192.466 73.645 192.114 73.909C191.762 74.151 191.586 74.492 191.586 74.932C191.586 75.46 191.861 75.856 192.411 76.12C192.983 76.384 193.863 76.648 195.051 76.912C196.415 77.264 197.526 77.616 198.384 77.968C199.242 78.298 199.99 78.848 200.628 79.618C201.288 80.366 201.629 81.378 201.651 82.654C201.651 83.732 201.343 84.7 200.727 85.558C200.133 86.394 199.264 87.054 198.12 87.538C196.998 88.022 195.689 88.264 194.193 88.264Z" fill="white"/>
</svg>
