<svg xmlns="http://www.w3.org/2000/svg" id="Calque_2" viewBox="0 0 728 256.99"><defs><style>.cls-1{fill:#fff;}</style></defs><g id="Layer_1"><polygon class="cls-1" points="80 194.73 80 176.73 0 176.73 0 256.73 78.05 256.73 80.05 238.73 20 238.73 20 226.73 58 226.73 58 206.73 20 206.73 20 194.73 80 194.73"></polygon><polygon class="cls-1" points="312 194.73 312 176.73 232 176.73 232 256.73 310.05 256.73 312.05 238.73 252 238.73 252 226.73 290 226.73 290 206.73 252 206.73 252 194.73 312 194.73"></polygon><polygon class="cls-1" points="112.05 176.73 142.05 256.73 170.05 256.73 200.05 176.73 176.05 176.73 156.05 238.73 136.05 176.73 112.05 176.73"></polygon><polygon class="cls-1" points="412 176.73 412 228.99 366.05 176.73 344 176.73 344 256.73 364 256.73 364 202.99 410.05 256.73 432 256.73 432 176.73 412 176.73"></polygon><rect class="cls-1" x="464.05" y="176.99" width="24" height="80"></rect><path class="cls-1" d="m588,176.73v51.94c-1,6.92-6.52,12.06-13.63,12.06h-20.63c-7.11,0-12.74-5.14-13.74-12.06v-51.94h-20v52.26c0,13.7,10.79,25.74,23.88,27.74h40.35c13.09-3,23.77-14.03,23.77-27.74v-52.26h-20Z"></path><polygon class="cls-1" points="700.05 176.73 684.05 234.73 668.05 176.73 640 176.73 640 256.73 658 256.73 658 196.99 674.05 256.73 694.05 256.73 710 196.99 710 256.73 728 256.73 728 176.73 700.05 176.73"></polygon><path class="cls-1" d="m523.23,125.05c-1.67-13.83,45.51-62.01,45.51-62.01l-3.03-3.06s-51.76,46.13-59.75,46.21c-27.24.3-24.58-106.19-24.58-106.19l-4.62.04-4.59-.04s2.65,106.49-24.6,106.19c-7.99-.09-59.74-46.21-59.74-46.21l-3.05,3.06s47.21,48.18,45.53,62.01c-3.06,25.07-130.25,23.5-130.25,23.5v3.75s100.12.7,104.67.7,37.8-6.12,37.8-22.21c.13-9.29-3.25-15.4-3.25-15.4,0,0,7.4,5.42,12.64,5.42,17.66,0,24.37-35.6,24.84-38.33.5,2.73,7.2,38.33,24.88,38.33,5.22,0,12.64-5.42,12.64-5.42,0,0-3.37,6.11-3.28,15.4,0,16.09,33.29,22.21,37.84,22.21s104.66-.7,104.66-.7v-3.75s-127.18,1.57-130.25-23.5Z"></path></g></svg>