<svg width="97" height="54" viewBox="0 0 97 54" fill="none" xmlns="http://www.w3.org/2000/svg">
<path d="M0 52.8001C1.1252 52.264 2.08562 51.4422 2.78273 50.4189C3.52 49.3602 3.88872 47.9046 3.88889 46.0518V10.3216C3.88889 8.7337 3.56479 7.34424 2.9166 6.15325C2.28635 4.97816 1.25239 4.06317 0.000258789 3.57245V3.37391H26.9531C28.3125 3.39367 29.6642 3.16947 30.9424 2.71223C32.0714 2.31128 33.0602 1.59949 33.792 0.661133H34.0602L36.8762 17.6L36.608 17.7323C35.0593 15.5283 33.392 13.4079 31.613 11.3803C29.9367 9.48426 28.1933 7.96249 26.3826 6.81493C24.6395 5.68787 22.5998 5.08978 20.5159 5.09461C19.1298 5.09461 18.1018 5.53569 17.4316 6.41784C16.7615 7.3 16.4263 8.68949 16.426 10.5863V24.8119H17.4886C19.7232 24.8119 21.7458 24.3597 23.5565 23.4554C25.3672 22.5511 26.9429 20.9301 28.2836 18.5924H28.4844V33.4137H28.2836C26.8974 31.3854 25.2994 29.8085 23.4895 28.6831C21.7173 27.5689 19.6569 26.983 17.5557 26.9957H16.426V46.0515C16.426 47.9043 16.7947 49.3599 17.5322 50.4185C18.2288 51.4423 19.1892 52.2645 20.3147 52.8004V52.9989H0V52.8001Z" fill="white"/>
<path d="M59.0152 31.6363C59.0152 28.8575 58.4231 26.4202 57.239 24.3245C56.1176 22.2957 54.4611 20.6041 52.4449 19.4287C50.433 18.2609 48.1755 17.6766 45.6725 17.6758C43.4694 17.6575 41.2949 18.1683 39.3364 19.1642C37.3715 20.1736 35.646 21.5833 34.2743 23.2999C32.8058 25.1346 31.692 27.2203 30.9885 29.4529C30.2164 31.8713 29.832 34.394 29.8492 36.9295C29.8492 39.7531 30.2626 42.2231 31.0893 44.3397C31.9167 46.458 33.0453 48.2446 34.475 49.6994C35.8244 51.1006 37.4579 52.2055 39.269 52.942C41.1352 53.6975 43.1421 54.0556 45.1583 53.9929C47.1745 53.9301 49.1545 53.4479 50.9688 52.5778C52.9672 51.6039 54.7023 50.175 56.0309 48.409C57.4395 46.5794 58.4118 44.3849 58.9477 41.8254L58.5463 41.6273C57.8043 43.0638 56.634 44.2414 55.1931 45.0016C53.7569 45.786 52.1416 46.1958 50.5 46.1923C48.7866 46.2169 47.1131 45.6819 45.7397 44.6706C44.3531 43.6562 43.2578 42.0792 42.4538 39.9396C41.7508 38.0705 41.3551 35.7218 41.2665 32.8935H59.0152V31.6363ZM41.2511 30.8417C41.2835 26.9756 41.5614 24.1635 42.0849 22.4055C42.6442 20.5313 43.4153 19.5939 44.3984 19.5935C45.0691 19.5935 45.5944 19.9908 45.9742 20.7855C46.3539 21.5789 46.6444 22.8029 46.8455 24.4574C47.0466 26.1119 47.1471 28.24 47.1471 30.8417H41.2511Z" fill="white"/>
<path d="M96.6318 47.5735C95.2537 49.4198 93.5226 50.9819 91.5361 52.1717C89.5251 53.3841 87.1788 53.9906 84.4971 53.991C83.0651 53.9997 81.6478 53.7065 80.3399 53.1311C79.0855 52.593 78.0065 51.7227 77.2224 50.6168C76.4391 49.5142 76.0477 48.191 76.048 46.6472V21.2392H73.1998V46.7124C73.1998 48.1254 73.4457 49.3605 73.9377 50.4175C74.4297 51.4766 75.1003 52.2709 75.9495 52.8002V52.9983H58.4498V52.8002C59.361 52.2067 60.0818 51.369 60.5276 50.3855C61.0196 49.3494 61.2656 48.125 61.2656 46.7124V12.1744C61.2708 10.8753 60.9967 9.58985 60.4615 8.40291C59.9244 7.21217 59.142 6.32976 58.1143 5.75568V5.55765C61.8552 5.41382 65.5228 4.48939 68.8755 2.84526C70.552 2.00714 71.9041 1.05872 72.9316 0H73.1996V20.0433C75.9129 18.3804 78.4507 16.4535 80.7748 14.2915C83.5223 11.7359 85.9838 8.89645 88.1168 5.82212H88.3175V16.1478H95.4933V21.2392H88.3183V44.4625C88.3183 45.7427 88.6311 46.7575 89.2569 47.5071C89.8826 48.2566 90.8217 48.6314 92.0741 48.6314C92.7791 48.6192 93.4788 48.5078 94.152 48.3005C94.9693 48.0565 95.7565 47.7235 96.4992 47.3077L96.6318 47.5735Z" fill="white"/>
</svg>
