<svg xmlns="http://www.w3.org/2000/svg" xml:space="preserve" style="fill-rule:evenodd;clip-rule:evenodd;stroke-linejoin:round;stroke-miterlimit:2" viewBox="0 0 245 56"><path d="M92.74 132.42h-4.02v18.2h-7.48v-18.2h-2.71v-6.21h2.71v-.7c0-3 .86-5.28 2.58-6.85 1.72-1.56 4.24-2.34 7.57-2.34.55 0 .96.02 1.23.04v6.34c-1.43-.09-2.44.12-3.02.61q-.87.75-.87 2.67v.22h4.02v6.21zm8.16 17.01c-1.91-1.02-3.41-2.48-4.5-4.37s-1.64-4.11-1.64-6.65.55-4.72 1.66-6.63 2.62-3.37 4.55-4.4 4.08-1.53 6.47-1.53 4.55.51 6.47 1.53 3.44 2.49 4.55 4.4 1.66 4.12 1.66 6.63q0 3.765-1.68 6.63c-1.12 1.91-2.65 3.38-4.59 4.4s-4.1 1.53-6.5 1.53-4.54-.51-6.45-1.53zm10.11-6.52c1.01-1.05 1.51-2.55 1.51-4.51q0-2.94-1.47-4.5c-.98-1.05-2.18-1.58-3.61-1.58s-2.67.52-3.63 1.55c-.96 1.04-1.44 2.54-1.44 4.53s.47 3.46 1.42 4.51 2.14 1.57 3.56 1.57 2.65-.52 3.65-1.57zm23.86-15.81c1.31-.77 2.77-1.16 4.37-1.16v7.92h-2.06q-2.805 0-4.2 1.2c-.93.8-1.4 2.21-1.4 4.22v11.33h-7.48V126.2h7.48v4.07c.87-1.34 1.97-2.4 3.28-3.17zm46.34 1.6c1.79 1.84 2.69 4.39 2.69 7.65v14.26h-7.44v-13.25c0-1.57-.42-2.79-1.25-3.65s-1.98-1.29-3.43-1.29-2.6.43-3.43 1.29-1.25 2.08-1.25 3.65v13.25h-7.44v-13.25c0-1.57-.42-2.79-1.25-3.65s-1.98-1.29-3.43-1.29-2.6.43-3.43 1.29-1.25 2.08-1.25 3.65v13.25h-7.48V126.2h7.48v3.06q1.14-1.53 2.97-2.43c1.23-.6 2.61-.9 4.16-.9 1.84 0 3.48.39 4.92 1.18a8.5 8.5 0 0 1 3.39 3.37c.85-1.34 2-2.43 3.46-3.28s3.05-1.27 4.77-1.27c3.03 0 5.45.92 7.24 2.76zm19.53 3.06c.95-1.9 2.24-3.35 3.87-4.37s3.46-1.53 5.47-1.53c1.6 0 3.07.34 4.4 1.01s2.37 1.58 3.13 2.71v-11.33h7.48v32.37h-7.48v-3.5c-.7 1.17-1.7 2.1-3 2.8q-1.95 1.05-4.53 1.05c-2.01 0-3.83-.52-5.47-1.55-1.63-1.03-2.92-2.51-3.87-4.42s-1.42-4.12-1.42-6.63.47-4.71 1.42-6.6zm15.31 2.23q-1.56-1.62-3.78-1.62c-1.48 0-2.75.53-3.78 1.6-1.04 1.07-1.55 2.53-1.55 4.4s.52 3.35 1.55 4.44 2.3 1.64 3.78 1.64 2.75-.54 3.78-1.62 1.55-2.55 1.55-4.42-.52-3.34-1.55-4.42m36.46 6.21h-16.93c.12 1.52.6 2.68 1.47 3.48.86.8 1.92 1.2 3.17 1.2 1.87 0 3.16-.79 3.89-2.36h7.96a10.9 10.9 0 0 1-2.21 4.33c-1.07 1.28-2.4 2.29-4 3.02s-3.4 1.09-5.38 1.09q-3.585 0-6.39-1.53c-1.87-1.02-3.32-2.48-4.37-4.37s-1.57-4.11-1.57-6.65.52-4.75 1.55-6.65 2.49-3.35 4.35-4.37c1.87-1.02 4.01-1.53 6.43-1.53s4.46.5 6.3 1.49 3.27 2.41 4.31 4.24c1.03 1.84 1.55 3.98 1.55 6.43 0 .7-.04 1.43-.13 2.19zm-7.53-4.15c0-1.28-.44-2.3-1.31-3.06s-1.97-1.14-3.28-1.14-2.31.36-3.17 1.09-1.39 1.76-1.6 3.11zm14.96 13.82c-1.66-.73-2.97-1.73-3.94-3a7.93 7.93 0 0 1-1.62-4.26h7.39c.09.85.48 1.53 1.18 2.06.7.52 1.56.79 2.58.79.93 0 1.65-.18 2.17-.55.51-.36.77-.84.77-1.42 0-.7-.36-1.22-1.09-1.55s-1.91-.71-3.54-1.12c-1.75-.41-3.21-.84-4.37-1.29-1.17-.45-2.17-1.17-3.02-2.14-.85-.98-1.27-2.3-1.27-3.96 0-1.4.39-2.67 1.16-3.83.77-1.15 1.91-2.06 3.41-2.73s3.29-1.01 5.36-1.01c3.06 0 5.47.76 7.24 2.27 1.76 1.52 2.78 3.53 3.04 6.04h-6.91c-.12-.85-.49-1.52-1.12-2.01-.63-.5-1.45-.74-2.47-.74-.87 0-1.55.17-2.01.5-.47.34-.7.79-.7 1.38 0 .7.37 1.22 1.12 1.57q1.11.525 3.48 1.05c1.81.47 3.28.93 4.42 1.38q1.71.675 3 2.19c.86 1.01 1.31 2.35 1.33 4.05 0 1.43-.4 2.7-1.2 3.83-.8 1.12-1.95 2.01-3.46 2.65-1.5.64-3.24.96-5.23.96-2.13 0-4.02-.36-5.69-1.09zm34.21.74-7.44-10.24v10.24h-7.48v-32.37h7.48v17.89l7.39-9.93h9.23l-10.15 12.25 10.24 12.16z" style="fill:#612e7f;fill-rule:nonzero" transform="translate(-78.53 -105.69)"/><path d="M314.11 161.59H198.58c-4.82 0-8.75-3.92-8.75-8.75v-38.4c0-4.82 3.92-8.75 8.75-8.75h115.53c4.82 0 8.75 3.92 8.75 8.75v38.4c0 4.82-3.92 8.75-8.75 8.75m-115.53-52.4c-2.89 0-5.25 2.35-5.25 5.25v38.4c0 2.89 2.35 5.25 5.25 5.25h115.53c2.89 0 5.25-2.35 5.25-5.25v-38.4c0-2.89-2.35-5.25-5.25-5.25z" style="fill:#f1843d;fill-rule:nonzero" transform="translate(-78.53 -105.69)"/><circle cx="309.04" cy="145.93" r="5.03" style="fill:#f1843d" transform="translate(-78.53 -105.69)"/></svg>