<?xml version="1.0" encoding="utf-8"?>
<!-- Generator: Adobe Illustrator 26.0.3, SVG Export Plug-In . SVG Version: 6.00 Build 0)  -->
<svg version="1.0" id="katman_1" xmlns="http://www.w3.org/2000/svg" xmlns:xlink="http://www.w3.org/1999/xlink" x="0px" y="0px"
	 viewBox="0 0 73 51" style="enable-background:new 0 0 73 51;" xml:space="preserve">
<style type="text/css">
	.st0{fill:#148FCC;}
	.st1{fill:#FFFFFF;}
</style>
<path class="st0" d="M36.1,12.3h9.7c1.8,0,3.3,1.4,3.3,3.3v9.7c0,7.1-5.8,12.9-12.9,12.9h-0.1c-7.1,0-12.9-5.8-12.9-12.9
	C23.2,18.1,29,12.4,36.1,12.3z"/>
<path class="st1" d="M36,31.6c0.2,0.2,0.4,0.1,0.5-0.1l4.1-5.7l0.9-1.3c0.2-0.2,0.1-0.5-0.1-0.7c-0.1-0.1-0.2-0.1-0.3-0.1H35
	l1.5-4.6c0.1-0.2,0-0.4-0.2-0.5c-0.2-0.1-0.4,0-0.5,0.2l-4.1,5.7l-1,1.2c-0.2,0.2-0.1,0.5,0.1,0.7c0.1,0.1,0.2,0.1,0.3,0.1h6.1
	l-1.5,4.6C35.7,31.3,35.8,31.6,36,31.6z"/>
</svg>
