<svg width="102" height="30" viewBox="0 0 102 30" fill="none" xmlns="http://www.w3.org/2000/svg">
<mask id="mask0_1090_2142" style="mask-type:luminance" maskUnits="userSpaceOnUse" x="0" y="4" width="22" height="22">
<path d="M22 4H0V26H22V4Z" fill="white"/>
</mask>
<g mask="url(#mask0_1090_2142)">
<path fill-rule="evenodd" clip-rule="evenodd" d="M10.2259 24.4271C10.2125 24.4206 10.199 24.4142 10.1855 24.4077L2.4057 20.6786C1.93069 20.4509 1.50483 20.2469 1.18372 20.0557C0.883115 19.8767 0.431098 19.5762 0.194886 19.0504C-0.087662 18.4215 -0.061763 17.6925 0.264657 17.0863C0.53755 16.5796 1.00969 16.3135 1.32218 16.1574C1.65605 15.9906 2.09525 15.8188 2.58516 15.6272L5.1076 14.6402C5.711 14.4041 6.3869 14.714 6.6173 15.3323C6.8477 15.9507 6.5453 16.6433 5.9419 16.8794L3.46678 17.8479C3.13753 17.9767 2.88403 18.0763 2.68461 18.16C2.87759 18.2582 3.12334 18.3765 3.44258 18.5295L11.1765 22.2366C11.3948 22.3412 11.5584 22.4192 11.6876 22.4776C11.6908 22.3329 11.6911 22.1479 11.6911 21.901V13.4719C11.6911 12.81 12.2147 12.2734 12.8605 12.2734C13.5064 12.2734 14.0301 12.81 14.0301 13.4719V21.901C14.0301 21.9163 14.0301 21.9315 14.0301 21.9467C14.0301 22.3168 14.0302 22.6717 14.0042 22.9634C13.9771 23.2671 13.9109 23.6802 13.6557 24.0605C13.3286 24.5479 12.8223 24.878 12.2529 24.9751C11.8086 25.0509 11.4154 24.9373 11.1355 24.8337C10.8667 24.7343 10.5531 24.5839 10.2259 24.4271Z" fill="black"/>
<path fill-rule="evenodd" clip-rule="evenodd" d="M11.7741 5.57271C11.7876 5.57916 11.8011 5.58561 11.8146 5.59211L19.5944 9.32121C20.0694 9.54886 20.4952 9.75291 20.8163 9.94411C21.1169 10.1231 21.569 10.4236 21.8052 10.9494C22.0877 11.5783 22.0618 12.3073 21.7354 12.9135C21.4625 13.4202 20.9904 13.6863 20.6779 13.8424C20.344 14.0092 19.9048 14.181 19.4149 14.3726L16.8925 15.3596C16.2891 15.5957 15.6132 15.2858 15.3828 14.6675C15.1524 14.0491 15.4548 13.3565 16.0582 13.1204L18.5333 12.1519C18.8625 12.0231 19.116 11.9235 19.3154 11.8398C19.1225 11.7416 18.8767 11.6233 18.5575 11.4703L10.8236 7.76321C10.6053 7.65861 10.4417 7.58061 10.3125 7.52216C10.3093 7.66686 10.309 7.85186 10.309 8.09876V16.5279C10.309 17.1898 9.78537 17.7264 9.13947 17.7264C8.49362 17.7264 7.96997 17.1898 7.96997 16.5279V8.09876C7.96997 8.08351 7.96997 8.06826 7.96997 8.05306C7.96997 7.68296 7.96992 7.32806 7.99587 7.03636C8.02297 6.73271 8.08912 6.31961 8.34437 5.93926C8.67147 5.45191 9.17777 5.12181 9.74712 5.02466C10.1915 4.94888 10.5847 5.06251 10.8645 5.16606C11.1334 5.26546 11.447 5.41586 11.7741 5.57271Z" fill="#623EF4"/>
</g>
<mask id="mask1_1090_2142" style="mask-type:luminance" maskUnits="userSpaceOnUse" x="26" y="7" width="76" height="19">
<path d="M101.942 7H26V25.0008H101.942V7Z" fill="white"/>
</mask>
<g mask="url(#mask1_1090_2142)">
<path d="M99.0675 24.75V7.25H101.943V24.75H99.0675Z" fill="black"/>
<path d="M80.4089 24.75L87.6089 7.25H89.6089L96.7589 24.75H93.6589L88.0589 10.575H89.1089L83.4589 24.75H80.4089ZM83.9589 21.375V18.875H93.2339V21.375H83.9589Z" fill="black"/>
<path d="M76.183 25.0008C75.6495 25.0008 75.208 24.8258 74.858 24.4758C74.5245 24.1091 74.358 23.6674 74.358 23.1508C74.358 22.6174 74.5245 22.1758 74.858 21.8258C75.208 21.4758 75.6495 21.3008 76.183 21.3008C76.7165 21.3008 77.1495 21.4758 77.483 21.8258C77.833 22.1758 78.008 22.6174 78.008 23.1508C78.008 23.6674 77.833 24.1091 77.483 24.4758C77.1495 24.8258 76.7165 25.0008 76.183 25.0008Z" fill="black"/>
<path d="M68.5385 24.75V17.825C68.5385 17.025 68.28 16.3667 67.7635 15.85C67.2635 15.3334 66.6135 15.075 65.8135 15.075C65.28 15.075 64.805 15.1917 64.3885 15.425C63.972 15.6584 63.647 15.9833 63.4135 16.4C63.18 16.8166 63.0635 17.2917 63.0635 17.825L61.9885 17.225C61.9885 16.3084 62.1885 15.5 62.5885 14.8C62.9885 14.0834 63.5385 13.525 64.2385 13.125C64.955 12.7084 65.755 12.5 66.6385 12.5C67.5385 12.5 68.3385 12.7333 69.0385 13.2C69.7385 13.65 70.2885 14.2417 70.6885 14.975C71.0885 15.6917 71.2885 16.4417 71.2885 17.225V24.75H68.5385ZM60.3135 24.75V12.75H63.0635V24.75H60.3135Z" fill="black"/>
<path d="M50.8365 25C49.7532 25 48.7699 24.725 47.8865 24.175C47.0199 23.625 46.3282 22.8834 45.8115 21.95C45.3115 21 45.0615 19.9416 45.0615 18.775C45.0615 17.5916 45.3115 16.5334 45.8115 15.6C46.3282 14.65 47.0199 13.9 47.8865 13.35C48.7699 12.7834 49.7532 12.5 50.8365 12.5C51.753 12.5 52.5615 12.7 53.2615 13.1C53.978 13.4834 54.545 14.0166 54.9615 14.7C55.378 15.3833 55.5865 16.1583 55.5865 17.025V20.475C55.5865 21.3417 55.378 22.1166 54.9615 22.8C54.5615 23.4833 54.003 24.025 53.2865 24.425C52.57 24.8083 51.753 25 50.8365 25ZM51.2865 22.4C52.303 22.4 53.12 22.0583 53.7365 21.375C54.37 20.6917 54.6865 19.8166 54.6865 18.75C54.6865 18.0333 54.545 17.4 54.2615 16.85C53.978 16.3 53.578 15.875 53.0615 15.575C52.5615 15.2583 51.97 15.1 51.2865 15.1C50.62 15.1 50.028 15.2583 49.5115 15.575C49.0115 15.875 48.6115 16.3 48.3115 16.85C48.0282 17.4 47.8865 18.0333 47.8865 18.75C47.8865 19.4667 48.0282 20.1 48.3115 20.65C48.6115 21.2 49.0115 21.6334 49.5115 21.95C50.028 22.25 50.62 22.4 51.2865 22.4ZM54.5115 24.75V21.525L54.9865 18.6L54.5115 15.7V12.75H57.2615V24.75H54.5115Z" fill="black"/>
<path d="M34.775 25C33.575 25 32.4416 24.7666 31.375 24.3C30.3084 23.8333 29.375 23.1917 28.575 22.375C27.775 21.5416 27.1416 20.5834 26.675 19.5C26.225 18.4 26 17.225 26 15.975C26 14.725 26.225 13.5584 26.675 12.475C27.1416 11.3917 27.775 10.4416 28.575 9.625C29.3917 8.79165 30.3416 8.15 31.425 7.7C32.525 7.23335 33.7083 7 34.975 7C36.3583 7 37.6417 7.26665 38.825 7.8C40.0084 8.33335 41 9.09165 41.8 10.075L39.85 12.025C39.3333 11.2916 38.6417 10.7334 37.775 10.35C36.9084 9.95 35.975 9.75 34.975 9.75C33.775 9.75 32.7166 10.0167 31.8 10.55C30.9 11.0667 30.2 11.7917 29.7 12.725C29.2 13.6584 28.95 14.7417 28.95 15.975C28.95 17.2084 29.2 18.3 29.7 19.25C30.2167 20.1833 30.9083 20.9167 31.775 21.45C32.6416 21.9834 33.625 22.25 34.725 22.25C35.8916 22.25 36.8916 22.0416 37.725 21.625C38.575 21.1917 39.225 20.5584 39.675 19.725C40.125 18.875 40.35 17.8334 40.35 16.6L42.15 17.9H34.675V15.275H43.325V15.675C43.325 17.7584 42.95 19.4916 42.2 20.875C41.4667 22.2584 40.4583 23.2917 39.175 23.975C37.8916 24.6583 36.425 25 34.775 25Z" fill="black"/>
</g>
</svg>
