<svg xmlns="http://www.w3.org/2000/svg" viewBox="0 0 896.53 161.68"><defs><style>.a{isolation:isolate;}.b{fill:#2390e5;}.c{fill:#4ea9f1;}.d{fill:none;}</style></defs><title>logo</title><g class="a"><path class="b" d="M299.29,89.06v46.85A58.33,58.33,0,0,1,283.83,141a95.6,95.6,0,0,1-19,1.88q-14.72,0-25.48-6.06a39.81,39.81,0,0,1-16.42-17.5q-5.65-11.43-5.66-27.33,0-15.61,5.66-27a40.16,40.16,0,0,1,16.21-17.5q10.56-6.06,24.87-6.07a55,55,0,0,1,18.87,3.14,41.71,41.71,0,0,1,14.79,9l-5,10.74A47.73,47.73,0,0,0,279,55.87a42,42,0,0,0-14.85-2.51q-15.81,0-24,9.9T231.84,92q0,19.38,8.45,29.35t24.94,10A67.55,67.55,0,0,0,286.48,128V100.08H263.86v-11Z" transform="translate(-5.15 -4.8)"/><path class="b" d="M378.18,106.91H329.13q.67,24.68,21.94,24.68a33.61,33.61,0,0,0,21.66-8l4.23,10a33.34,33.34,0,0,1-11.79,6.62,44.18,44.18,0,0,1-14.37,2.44q-16.5,0-25.89-9.69t-9.4-26.56a42.34,42.34,0,0,1,4.15-19.1,31,31,0,0,1,11.65-13,31.87,31.87,0,0,1,17-4.6q13.91,0,21.87,9.2t8,25.52ZM335.94,85q-4.9,4.74-6.26,13.52h36.38q-.82-8.92-5.32-13.59c-3-3.12-7-4.67-12.12-4.67S339.21,81.86,335.94,85Z" transform="translate(-5.15 -4.8)"/><path class="b" d="M455.17,98v43.79H441.41v-43c0-6.13-1.16-10.6-3.48-13.38s-6-4.19-11.1-4.19q-8.73,0-14,5.58t-5.25,14.92v40H394V91.29a163.46,163.46,0,0,0-1.09-19.8h12.81l1.22,12.13a23.3,23.3,0,0,1,9.47-10.25,27.88,27.88,0,0,1,14.11-3.55Q455.17,69.82,455.17,98Z" transform="translate(-5.15 -4.8)"/><path class="b" d="M537.6,39.14V141.77H524v-12a21.36,21.36,0,0,1-8.93,9.62,27.66,27.66,0,0,1-13.83,3.34,27.94,27.94,0,0,1-15.8-4.6,30.51,30.51,0,0,1-10.84-12.89,45,45,0,0,1-3.88-19.18A44.88,44.88,0,0,1,474.52,87a29.45,29.45,0,0,1,10.69-12.69,28.82,28.82,0,0,1,16-4.46,27.32,27.32,0,0,1,13.7,3.35,21.46,21.46,0,0,1,8.92,9.48V39.14ZM518.87,125q5.11-6.63,5.11-18.62t-5.11-18.61q-5.11-6.63-14.38-6.63t-14.64,6.56q-5.25,6.56-5.25,18.4,0,12,5.25,18.76t14.51,6.76Q513.75,131.59,518.87,125Z" transform="translate(-5.15 -4.8)"/><path class="b" d="M616.36,106.91H567.31q.68,24.68,21.94,24.68a33.61,33.61,0,0,0,21.66-8l4.22,10a33.29,33.29,0,0,1-11.78,6.62A44.2,44.2,0,0,1,589,142.74q-16.49,0-25.89-9.69t-9.4-26.56a42.35,42.35,0,0,1,4.16-19.1,31,31,0,0,1,11.65-13,31.84,31.84,0,0,1,17-4.6q13.9,0,21.87,9.2t8,25.52ZM574.12,85q-4.9,4.74-6.27,13.52h36.38q-.81-8.92-5.31-13.59t-12.13-4.67Q579,80.28,574.12,85Z" transform="translate(-5.15 -4.8)"/><path class="b" d="M672.91,70.79l-.28,12.83a22.46,22.46,0,0,0-8-1.39q-9.4,0-14.11,5.79t-4.7,14.57v39.18H632.17V91.29a163.46,163.46,0,0,0-1.09-19.8h12.8l1.23,12.69a21.67,21.67,0,0,1,8.45-10.67,23.11,23.11,0,0,1,12.81-3.69A24.17,24.17,0,0,1,672.91,70.79Z" transform="translate(-5.15 -4.8)"/></g><g class="a"><path class="c" d="M773.75,141.78,763.6,117.3H715.52l-10.15,24.48h-14l42.33-99H745.3l42.47,99ZM720.19,105.9h38.73L739.56,58.75Z" transform="translate(-5.15 -4.8)"/><path class="c" d="M800.05,42.76h39.53q15,0,23.31,7.58T871.23,71q0,13.08-8.48,20.65t-23.17,7.58H813.81v42.56H800.05ZM838,87.82q9.88,0,14.89-4.31t5-12.52q0-8.07-5-12.38T838,54.3H813.81V87.82Z" transform="translate(-5.15 -4.8)"/><path class="c" d="M887.92,141.78v-99h13.76v99Z" transform="translate(-5.15 -4.8)"/></g><path class="b" d="M44.6,61.7" transform="translate(-5.15 -4.8)"/><ellipse class="b" cx="126.4" cy="42.39" rx="38.4" ry="36.7" transform="translate(2.9 98.97) rotate(-45.95)"/><ellipse class="b" cx="42.83" cy="128.74" rx="38.7" ry="36.7" transform="translate(-84.62 65.21) rotate(-45.95)"/><path class="b" d="M80.5,124.6Q62.8,107.8,45.2,91c2.4.2,19.1,1.3,32.1-11.7C90.8,65.8,89.2,48.3,89,46.1q17.7,16.95,35.4,33.8A46.31,46.31,0,0,0,92.9,94.3,45.36,45.36,0,0,0,80.5,124.6Z" transform="translate(-5.15 -4.8)"/><path class="d" d="M104.9,107" transform="translate(-5.15 -4.8)"/></svg>