<?xml version="1.0" encoding="UTF-8" standalone="no"?>
<!-- Generator: Adobe Illustrator 16.0.4, SVG Export Plug-In . SVG Version: 6.00 Build 0)  -->

<svg
   xmlns:dc="http://purl.org/dc/elements/1.1/"
   xmlns:cc="http://creativecommons.org/ns#"
   xmlns:rdf="http://www.w3.org/1999/02/22-rdf-syntax-ns#"
   xmlns:svg="http://www.w3.org/2000/svg"
   xmlns="http://www.w3.org/2000/svg"
   xmlns:sodipodi="http://sodipodi.sourceforge.net/DTD/sodipodi-0.dtd"
   xmlns:inkscape="http://www.inkscape.org/namespaces/inkscape"
   version="1.1"
   id="Ebene_1"
   x="0px"
   y="0px"
   width="226.44901"
   height="57.758999"
   viewBox="0 869 226.44901 57.758999"
   enable-background="new 0 869 297.641 99.21"
   xml:space="preserve"
   sodipodi:docname="CFG_Karlsruhe2.svg"
   inkscape:version="0.92.4 (unknown)"><metadata
   id="metadata65"><rdf:RDF><cc:Work
       rdf:about=""><dc:format>image/svg+xml</dc:format><dc:type
         rdf:resource="http://purl.org/dc/dcmitype/StillImage" /><dc:title /></cc:Work></rdf:RDF></metadata><defs
   id="defs63" /><sodipodi:namedview
   pagecolor="#ffffff"
   bordercolor="#666666"
   borderopacity="1"
   objecttolerance="10"
   gridtolerance="10"
   guidetolerance="10"
   inkscape:pageopacity="0"
   inkscape:pageshadow="2"
   inkscape:window-width="1920"
   inkscape:window-height="1024"
   id="namedview61"
   showgrid="false"
   fit-margin-top="0"
   fit-margin-left="0"
   fit-margin-right="0"
   fit-margin-bottom="0"
   inkscape:zoom="3.6519655"
   inkscape:cx="125.73148"
   inkscape:cy="-15.77376"
   inkscape:window-x="0"
   inkscape:window-y="0"
   inkscape:window-maximized="1"
   inkscape:current-layer="Ebene_1" />



<polygon
   points="66.909,941.337 70.595,941.337 71.625,941.337 72.504,941.337 72.504,896.572 66.909,896.572 66.909,897.267 "
   id="polygon8"
   style="fill:#d57a75"
   transform="translate(-36.832,-22.673)" />
<g
   id="g12"
   transform="translate(-36.832,-22.673)">
	<path
   d="m 89.102,945.535 c 0.384,0 0.89,-0.348 0.89,-0.729 v -52.43 c 0,-0.383 -0.506,-0.699 -0.89,-0.699 H 71.625 c -0.384,0 -0.52,0.158 -0.52,0.35 v 1.049 3.494 c 0,0.385 0.136,0.703 0.52,0.703 h 11.884 c 0.385,0 0.888,0.311 0.888,0.695 v 41.248 c 0,0.383 -0.503,0.725 -0.888,0.725 H 71.625 c -0.384,0 -0.52,0.131 -0.52,0.324 v 1.047 3.496 c 0,0.383 0.136,0.73 0.52,0.73 h 17.478 z"
   id="path10"
   inkscape:connector-curvature="0"
   style="fill:#ce5a4e" />
</g>
<polygon
   points="96.986,941.337 101.684,941.337 102.582,941.337 102.582,896.572 96.986,896.572 96.986,897.267 "
   id="polygon14"
   style="fill:#8bbd97"
   transform="translate(-36.832,-22.673)" />
<g
   id="g36"
   transform="translate(-36.832,-22.673)">
	<path
   d="m 101.882,945.503 v -5.592 c 7.694,0 13.062,-9.566 13.062,-21.322 0,-11.758 -5.368,-21.322 -13.062,-21.322 v -5.594 c 10.492,0 18.656,12.074 18.656,26.916 0,14.84 -8.164,26.914 -18.656,26.914"
   id="path16"
   inkscape:connector-curvature="0"
   style="fill:#4ea15a" />
	<path
   d="m 43.827,928.306 v 7.713 2.48 c 0,4.186 2.678,7.035 6.908,7.035 h 1.189 3.426 4.04 c 0.192,0 0.523,-0.348 0.523,-0.729 v -4.197 c 0,-0.383 -0.489,-0.672 -0.873,-0.672 h -4.018 -2.05 -1.271 c -1.811,0 -2.282,-0.77 -2.282,-2.838 v -1.229 -6.729 -4.104 c 0,-4.219 -1.715,-5.771 -3.803,-6.537 2.088,-0.762 3.803,-2.314 3.803,-6.529 v -2.914 -7.395 -1.754 c 0,-2.033 0.405,-2.641 2.282,-2.641 h 1.58 2.004 4.103 c 0.192,0 0.523,-0.316 0.523,-0.701 v -4.195 c 0,-0.383 -0.489,-0.697 -0.873,-0.697 h -3.36 -3.17 -1.773 c -4.23,0 -6.908,2.74 -6.908,6.834 v 2.195 9.146 c 0,0 -0.14,2.1 -0.24,2.814 -0.266,1.891 -2.582,3.51 -4.018,3.49 h -2.198 c -0.386,0 -0.539,0.301 -0.539,0.686 v 4.195 c 0,0.383 0.153,0.715 0.539,0.715 h 2.008 c 1.832,-0.025 4.146,1.518 4.321,3.818 0.053,0.674 0.127,2.74 0.127,2.74"
   id="path18"
   inkscape:connector-curvature="0"
   style="fill:#33a1df" />
	<path
   d="M 71.625,891.675 H 69.644 67.43 c -0.385,0 -0.521,0.316 -0.521,0.699 v 1.291 2.902 0.703 h 0.521 4.194 0.88 v -0.703 -4.193 -0.699 z"
   id="path20"
   inkscape:connector-curvature="0"
   style="fill:#bd3c38" />
	<path
   d="m 66.909,940.611 v 1.98 2.213 c 0,0.385 0.137,0.73 0.521,0.73 h 1.292 2.902 0.879 v -0.73 -4.193 -0.672 H 71.624 67.43 66.909 Z"
   id="path22"
   inkscape:connector-curvature="0"
   style="fill:#bd3c38" />
	<path
   d="m 101.684,891.675 h -1.98 -2.214 c -0.385,0 -0.505,0.316 -0.505,0.699 v 1.291 2.902 0.703 h 0.505 4.193 0.897 v -0.703 -4.193 -0.699 z"
   id="path24"
   inkscape:connector-curvature="0"
   style="fill:#27954e" />
	<path
   d="m 96.986,940.611 v 1.98 2.213 c 0,0.385 0.12,0.73 0.505,0.73 h 1.29 2.903 0.897 v -0.73 -4.193 -0.672 h -0.897 -4.194 -0.505 v 0.672 z"
   id="path26"
   inkscape:connector-curvature="0"
   style="fill:#27954e" />
	<path
   d="m 131.959,928.306 v 7.713 2.48 c 0,4.186 2.627,7.035 6.858,7.035 h 1.189 3.426 4.04 c 0.192,0 0.572,-0.348 0.572,-0.729 v -4.197 c 0,-0.383 -0.538,-0.672 -0.922,-0.672 h -4.019 -2.05 -1.269 c -1.811,0 -2.232,-0.77 -2.232,-2.838 v -1.229 -6.729 -4.104 c 0,-1.357 -0.398,-2.586 -0.708,-3.287 h -9.388 c 2.579,0.701 3.682,1.623 4.207,3.869 0.266,1.122 0.296,2.688 0.296,2.688"
   id="path28"
   inkscape:connector-curvature="0"
   style="fill:#7bbbb7" />
	<path
   d="m 131.562,912.666 c -0.542,1.832 -1.751,2.793 -3.91,3.492 h 8.808 c 0.547,-1.398 1.097,-2.332 1.097,-4.184 v -2.914 -7.393 -1.756 c 0,-2.033 0.354,-2.641 2.232,-2.641 h 1.579 2.003 4.104 c 0.192,0 0.572,-0.316 0.572,-0.701 v -4.195 c 0,-0.383 -0.538,-0.699 -0.922,-0.699 h -3.359 -3.172 -1.774 c -4.231,0 -6.858,2.742 -6.858,6.836 v 2.195 9.146 c -0.003,10e-4 -0.129,1.899 -0.4,2.814"
   id="path30"
   inkscape:connector-curvature="0"
   style="fill:#7bbbb7" />
	<path
   d="m 132.924,919 c 1.416,0.52 2.97,1.354 3.924,2.752 h 10.275 c 0.385,0 0.923,-0.332 0.923,-0.715 v -4.195 c 0,-0.385 -0.538,-0.686 -0.923,-0.686 h -10.664 c -0.7,1.4 -2.363,2.414 -3.535,2.844"
   id="path32"
   inkscape:connector-curvature="0"
   style="fill:#9ac9c6" />
	<path
   d="m 125.453,916.158 c -0.386,0 -0.489,0.301 -0.489,0.686 v 4.195 c 0,0.385 0.104,0.717 0.489,0.717 h 2.007 9.388 c -0.631,-1.4 -2.196,-2.357 -3.313,-2.793 1.172,-0.43 2.226,-1.404 2.926,-2.803 h -8.809 z"
   id="path34"
   inkscape:connector-curvature="0"
   style="fill:#42a5a5" />
</g>


<g
   aria-label="for"
   transform="scale(0.91197208,1.0965248)"
   style="font-style:normal;font-weight:normal;font-size:36.47888184px;line-height:1.25;font-family:sans-serif;letter-spacing:0px;word-spacing:0px;fill:#000000;fill-opacity:1;stroke:none;stroke-width:0.91197211"
   id="text916"><path
     d="m 142.90222,802.88299 h -2.11577 v -1.99418 c 0,-0.85117 0.46206,-1.28892 1.41051,-1.28892 0.17024,0 0.2432,0 0.70526,0.0243 v -1.67803 c -0.46206,-0.0973 -0.72958,-0.12159 -1.143,-0.12159 -1.87259,0 -2.99127,1.07005 -2.99127,2.89399 v 2.16441 h -1.70235 v 1.65371 h 1.70235 v 11.08958 h 2.0185 V 804.5367 h 2.11577 z"
     style="font-style:normal;font-variant:normal;font-weight:normal;font-stretch:normal;font-size:24.31925392px;font-family:'Nimbus Sans';-inkscape-font-specification:'Nimbus Sans, Normal';font-variant-ligatures:normal;font-variant-caps:normal;font-variant-numeric:normal;font-feature-settings:normal;text-align:start;writing-mode:lr-tb;text-anchor:start;stroke-width:0.91197211"
     id="path904"
     inkscape:connector-curvature="0" /><path
     d="m 149.74999,802.5182 c -3.59925,0 -5.73934,2.55353 -5.73934,6.83371 0,4.30451 2.14009,6.83371 5.76366,6.83371 3.59925,0 5.76366,-2.55352 5.76366,-6.73643 0,-4.4261 -2.09145,-6.93099 -5.78798,-6.93099 z m 0.0243,1.87259 c 2.28601,0 3.64789,1.87258 3.64789,5.03408 0,3.01559 -1.41052,4.88817 -3.64789,4.88817 -2.26169,0 -3.64789,-1.87258 -3.64789,-4.96113 0,-3.08854 1.3862,-4.96112 3.64789,-4.96112 z"
     style="font-style:normal;font-variant:normal;font-weight:normal;font-stretch:normal;font-size:24.31925392px;font-family:'Nimbus Sans';-inkscape-font-specification:'Nimbus Sans, Normal';font-variant-ligatures:normal;font-variant-caps:normal;font-variant-numeric:normal;font-feature-settings:normal;text-align:start;writing-mode:lr-tb;text-anchor:start;stroke-width:0.91197211"
     id="path906"
     inkscape:connector-curvature="0" /><path
     d="m 158.35027,802.88299 v 12.74329 h 2.04281 v -6.61484 c 0.0243,-3.06422 1.28892,-4.4261 4.08564,-4.35314 v -2.06714 c -0.34047,-0.0486 -0.53503,-0.073 -0.77822,-0.073 -1.31324,0 -2.31033,0.77822 -3.47765,2.67512 v -2.31033 z"
     style="font-style:normal;font-variant:normal;font-weight:normal;font-stretch:normal;font-size:24.31925392px;font-family:'Nimbus Sans';-inkscape-font-specification:'Nimbus Sans, Normal';font-variant-ligatures:normal;font-variant-caps:normal;font-variant-numeric:normal;font-feature-settings:normal;text-align:start;writing-mode:lr-tb;text-anchor:start;stroke-width:0.91197211"
     id="path908"
     inkscape:connector-curvature="0" /></g><g
   aria-label="Karlsruhe"
   transform="scale(0.92621005,1.0796687)"
   style="font-style:normal;font-weight:normal;font-size:37.04838181px;line-height:1.25;font-family:sans-serif;letter-spacing:0px;word-spacing:0px;fill:#000000;fill-opacity:1;stroke:none;stroke-width:0.92621005"
   id="text916-0"><path
     d="m 139.41486,844.63384 2.93917,-2.93918 6.34763,9.23741 h 2.71688 l -7.40968,-10.66994 7.33559,-7.33559 h -2.96388 l -8.96571,9.11391 v -9.11391 h -2.297 v 18.00553 h 2.297 z"
     style="font-style:normal;font-variant:normal;font-weight:normal;font-stretch:normal;font-size:24.69894028px;font-family:'Nimbus Sans';-inkscape-font-specification:'Nimbus Sans, Normal';font-variant-ligatures:normal;font-variant-caps:normal;font-variant-numeric:normal;font-feature-settings:normal;text-align:start;writing-mode:lr-tb;text-anchor:start;stroke-width:0.92621005"
     id="path885"
     inkscape:connector-curvature="0" /><path
     d="m 164.58925,849.72182 c -0.22229,0.0494 -0.32108,0.0494 -0.44458,0.0494 -0.71627,0 -1.11145,-0.37049 -1.11145,-1.01266 v -7.60727 c 0,-2.297 -1.67953,-3.53195 -4.86569,-3.53195 -1.90182,0 -3.40845,0.54338 -4.29762,1.50663 -0.59277,0.66688 -0.83976,1.40784 -0.88916,2.69219 h 2.07471 c 0.1729,-1.58073 1.11145,-2.297 3.03797,-2.297 1.87712,0 2.88978,0.69157 2.88978,1.92651 v 0.54338 c -0.0247,0.88916 -0.46928,1.21025 -2.14881,1.43254 -2.91447,0.37048 -3.35906,0.46928 -4.14942,0.79037 -1.50664,0.64217 -2.2723,1.77832 -2.2723,3.45785 0,2.3464 1.63013,3.82833 4.24821,3.82833 1.63013,0 2.93918,-0.56807 4.39642,-1.90181 0.14819,1.33374 0.79036,1.90181 2.1241,1.90181 0.44458,0 0.71627,-0.0494 1.40784,-0.22229 z m -3.60604,-2.86508 c 0,0.69157 -0.19759,1.11146 -0.81507,1.67953 -0.83976,0.76567 -1.85242,1.16085 -3.06267,1.16085 -1.60543,0 -2.54399,-0.76567 -2.54399,-2.07471 0,-1.35844 0.88917,-2.05001 3.11207,-2.3711 2.19821,-0.29639 2.61809,-0.39518 3.30966,-0.71627 z"
     style="font-style:normal;font-variant:normal;font-weight:normal;font-stretch:normal;font-size:24.69894028px;font-family:'Nimbus Sans';-inkscape-font-specification:'Nimbus Sans, Normal';font-variant-ligatures:normal;font-variant-caps:normal;font-variant-numeric:normal;font-feature-settings:normal;text-align:start;writing-mode:lr-tb;text-anchor:start;stroke-width:0.92621005"
     id="path887"
     inkscape:connector-curvature="0" /><path
     d="m 166.82798,837.98982 v 12.94225 h 2.07471 v -6.71811 c 0.0247,-3.11207 1.30904,-4.49521 4.14942,-4.42111 v -2.09941 c -0.34578,-0.0494 -0.54337,-0.0741 -0.79036,-0.0741 -1.33375,0 -2.3464,0.79037 -3.53195,2.71688 v -2.3464 z"
     style="font-style:normal;font-variant:normal;font-weight:normal;font-stretch:normal;font-size:24.69894028px;font-family:'Nimbus Sans';-inkscape-font-specification:'Nimbus Sans, Normal';font-variant-ligatures:normal;font-variant-caps:normal;font-variant-numeric:normal;font-feature-settings:normal;text-align:start;writing-mode:lr-tb;text-anchor:start;stroke-width:0.92621005"
     id="path889"
     inkscape:connector-curvature="0" /><path
     d="m 177.12705,832.92654 h -2.07471 v 18.00553 h 2.07471 z"
     style="font-style:normal;font-variant:normal;font-weight:normal;font-stretch:normal;font-size:24.69894028px;font-family:'Nimbus Sans';-inkscape-font-specification:'Nimbus Sans, Normal';font-variant-ligatures:normal;font-variant-caps:normal;font-variant-numeric:normal;font-feature-settings:normal;text-align:start;writing-mode:lr-tb;text-anchor:start;stroke-width:0.92621005"
     id="path891"
     inkscape:connector-curvature="0" /><path
     d="m 189.69032,841.59587 c -0.0247,-2.54399 -1.70423,-3.97653 -4.6928,-3.97653 -3.01327,0 -4.96449,1.55603 -4.96449,3.95183 0,2.02531 1.03736,2.98857 4.10003,3.72954 l 1.92652,0.46928 c 1.43253,0.34578 2.00061,0.86446 2.00061,1.77832 0,1.23495 -1.21025,2.05002 -3.01327,2.05002 -1.11145,0 -2.05001,-0.32109 -2.56869,-0.86447 -0.32109,-0.37048 -0.46928,-0.74097 -0.59277,-1.65483 h -2.17351 c 0.0988,2.98857 1.77832,4.42111 5.16208,4.42111 3.26026,0 5.33497,-1.60543 5.33497,-4.10002 0,-1.92652 -1.08676,-2.98857 -3.65544,-3.60605 l -1.97592,-0.46928 c -1.67953,-0.39518 -2.3958,-0.93856 -2.3958,-1.85242 0,-1.21024 1.06206,-1.95121 2.74159,-1.95121 1.65482,0 2.54399,0.71627 2.59338,2.07471 z"
     style="font-style:normal;font-variant:normal;font-weight:normal;font-stretch:normal;font-size:24.69894028px;font-family:'Nimbus Sans';-inkscape-font-specification:'Nimbus Sans, Normal';font-variant-ligatures:normal;font-variant-caps:normal;font-variant-numeric:normal;font-feature-settings:normal;text-align:start;writing-mode:lr-tb;text-anchor:start;stroke-width:0.92621005"
     id="path893"
     inkscape:connector-curvature="0" /><path
     d="m 192.92588,837.98982 v 12.94225 h 2.07471 v -6.71811 c 0.0247,-3.11207 1.30905,-4.49521 4.14943,-4.42111 v -2.09941 c -0.34579,-0.0494 -0.54338,-0.0741 -0.79037,-0.0741 -1.33374,0 -2.3464,0.79037 -3.53195,2.71688 v -2.3464 z"
     style="font-style:normal;font-variant:normal;font-weight:normal;font-stretch:normal;font-size:24.69894028px;font-family:'Nimbus Sans';-inkscape-font-specification:'Nimbus Sans, Normal';font-variant-ligatures:normal;font-variant-caps:normal;font-variant-numeric:normal;font-feature-settings:normal;text-align:start;writing-mode:lr-tb;text-anchor:start;stroke-width:0.92621005"
     id="path895"
     inkscape:connector-curvature="0" /><path
     d="m 211.42385,850.93207 v -12.94225 h -2.05001 v 7.33559 c 0,2.64279 -1.38314,4.37171 -3.53195,4.37171 -1.63013,0 -2.66749,-0.98796 -2.66749,-2.54399 v -9.16331 h -2.05001 v 9.97838 c 0,2.1488 1.60543,3.53194 4.12472,3.53194 1.90182,0 3.11207,-0.66687 4.32232,-2.37109 v 1.80302 z"
     style="font-style:normal;font-variant:normal;font-weight:normal;font-stretch:normal;font-size:24.69894028px;font-family:'Nimbus Sans';-inkscape-font-specification:'Nimbus Sans, Normal';font-variant-ligatures:normal;font-variant-caps:normal;font-variant-numeric:normal;font-feature-settings:normal;text-align:start;writing-mode:lr-tb;text-anchor:start;stroke-width:0.92621005"
     id="path897"
     inkscape:connector-curvature="0" /><path
     d="m 214.99631,832.92654 v 18.00553 h 2.05002 v -7.138 c 0,-2.64278 1.38314,-4.37171 3.50724,-4.37171 0.69158,0 1.33375,0.19759 1.82773,0.56808 0.59277,0.44458 0.83976,1.06205 0.83976,1.97591 v 8.96572 h 2.05001 v -9.78078 c 0,-2.17351 -1.55603,-3.53195 -4.07532,-3.53195 -1.82772,0 -2.93918,0.56807 -4.14942,2.14881 v -6.84161 z"
     style="font-style:normal;font-variant:normal;font-weight:normal;font-stretch:normal;font-size:24.69894028px;font-family:'Nimbus Sans';-inkscape-font-specification:'Nimbus Sans, Normal';font-variant-ligatures:normal;font-variant-caps:normal;font-variant-numeric:normal;font-feature-settings:normal;text-align:start;writing-mode:lr-tb;text-anchor:start;stroke-width:0.92621005"
     id="path899"
     inkscape:connector-curvature="0" /><path
     d="m 239.68638,845.15252 c 0,-1.97592 -0.14819,-3.16147 -0.51868,-4.12473 -0.83976,-2.12411 -2.81568,-3.40845 -5.23617,-3.40845 -3.60605,0 -5.92775,2.74158 -5.92775,7.0145 0,4.27291 2.22291,6.8663 5.87835,6.8663 2.96387,0 5.01388,-1.67952 5.53256,-4.4952 h -2.07471 c -0.56808,1.70422 -1.72893,2.59339 -3.38375,2.59339 -1.30905,0 -2.4205,-0.59278 -3.11207,-1.67953 -0.49398,-0.74097 -0.66687,-1.48194 -0.69157,-2.76628 z m -9.48439,-1.67953 c 0.17289,-2.3958 1.63013,-3.95183 3.70484,-3.95183 2.09941,0 3.55665,1.63013 3.55665,3.95183 z"
     style="font-style:normal;font-variant:normal;font-weight:normal;font-stretch:normal;font-size:24.69894028px;font-family:'Nimbus Sans';-inkscape-font-specification:'Nimbus Sans, Normal';font-variant-ligatures:normal;font-variant-caps:normal;font-variant-numeric:normal;font-feature-settings:normal;text-align:start;writing-mode:lr-tb;text-anchor:start;stroke-width:0.92621005"
     id="path901"
     inkscape:connector-curvature="0" /></g></svg>