<?xml version="1.0" encoding="UTF-8"?>
<svg version="1.1" xmlns="http://www.w3.org/2000/svg" width="320" height="320">
<path d="M0 0 C105.6 0 211.2 0 320 0 C320 105.6 320 211.2 320 320 C214.4 320 108.8 320 0 320 C0 214.4 0 108.8 0 0 Z " fill="#F123F1" transform="translate(0,0)"/>
<path d="M0 0 C7.59 0 15.18 0 23 0 C23.33 2.990625 23.66 5.98125 24 9.0625 C25.55723454 20.75469606 29.49635734 30.629524 38 39 C38 39.66 38 40.32 38 41 C38.56332031 41.26039063 39.12664062 41.52078125 39.70703125 41.7890625 C42.22533574 43.11900184 44.39605062 44.68500996 46.6875 46.375 C58.68087707 54.86588642 70.59383433 56.30599828 85 55 C99.52818045 52.46251053 110.95698341 43.96941965 119.515625 32.234375 C126.49382345 21.73034996 127.85288634 12.61825026 129 0 C136.59 0 144.18 0 152 0 C153.04649003 20.92980052 145.27398259 39.26412351 131.8125 55.0625 C122.46869221 65.0984417 111.75022844 71.36857697 99 76 C98.24452881 76.27884033 97.48905762 76.55768066 96.71069336 76.8449707 C90.04061143 79.09368019 83.82071257 79.50634507 76.8125 79.4375 C75.71115723 79.42847656 74.60981445 79.41945313 73.47509766 79.41015625 C52.41239373 78.96445024 35.49681878 70.19544856 20.5703125 55.62890625 C5.97889043 40.27597899 -0.48558997 20.88036855 0 0 Z " fill="#030003" transform="translate(84,182)"/>
<path d="M0 0 C3.39118893 1.46972191 5.62114133 3.36371716 8.23046875 5.96484375 C9.02904297 6.75938965 9.82761719 7.55393555 10.65039062 8.37255859 C11.48763672 9.21898926 12.32488281 10.06541992 13.1875 10.9375 C14.47624023 12.23421631 14.47624023 12.23421631 15.79101562 13.55712891 C20.79728841 18.63870549 25.56480246 23.73913194 29.94140625 29.375 C31.55191884 31.42863276 33.19301445 33.40571135 34.90234375 35.375 C35.40572266 35.95652832 35.90910156 36.53805664 36.42773438 37.13720703 C37.40491677 38.2619781 38.3864217 39.38301445 39.37304688 40.49951172 C42.00229233 43.54687226 43.61096507 46.24711325 45 50 C18.49970846 51.90563295 18.49970846 51.90563295 13.34765625 47.83203125 C11.11583958 44.98832812 9.55344669 42.25667475 8 39 C6.8450531 37.45430018 5.66054895 35.92989456 4.4375 34.4375 C2 31.2601626 2 31.2601626 2 29 C1.34 29 0.68 29 0 29 C-0.27255615 29.58048096 -0.5451123 30.16096191 -0.82592773 30.7590332 C-1.98776103 32.97663931 -3.27731944 34.86010387 -4.78515625 36.85546875 C-5.31560547 37.55994141 -5.84605469 38.26441406 -6.39257812 38.99023438 C-6.94365234 39.71533203 -7.49472656 40.44042969 -8.0625 41.1875 C-8.61744141 41.92419922 -9.17238281 42.66089844 -9.74414062 43.41992188 C-13.83129699 48.83129699 -13.83129699 48.83129699 -15 50 C-17.07262076 50.08767112 -19.14820294 50.10695873 -21.22265625 50.09765625 C-22.48271484 50.09443359 -23.74277344 50.09121094 -25.04101562 50.08789062 C-26.38151109 50.07953403 -27.72200588 50.07106907 -29.0625 50.0625 C-30.40689942 50.0574866 -31.7513006 50.05292342 -33.09570312 50.04882812 C-36.39717941 50.03699488 -39.69856803 50.02050971 -43 50 C-41.22052605 46.28141327 -38.95831653 43.12096329 -36.4375 39.875 C-35.99494873 39.30241455 -35.55239746 38.7298291 -35.09643555 38.13989258 C-31.60133702 33.66683919 -27.90651982 29.41688719 -24.05859375 25.2421875 C-22.27777629 23.30254951 -20.57208176 21.32481577 -18.875 19.3125 C-12.98071828 12.5178984 -6.39658408 6.31639547 0 0 Z " fill="#020002" transform="translate(159,59)"/>
<path d="M0 0 C5.67507225 2.00296668 9.30675089 5.61350179 12 11 C12.61658401 16.96031213 11.88480505 20.39060728 8.40234375 25.30078125 C5.70232874 28.57238718 3.69600368 29.79481732 -0.55078125 30.30859375 C-5.04928919 30.50947435 -8.27861875 30.31478455 -12.4375 28.5 C-16.7027117 24.33881785 -18.68673669 20.271159 -19.5 14.375 C-18.71639852 9.08569002 -16.32571885 6.16789518 -12.375 2.6875 C-8.28551432 -0.2181872 -4.9348306 -0.49809505 0 0 Z " fill="#050005" transform="translate(209,131)"/>
<path d="M0 0 C5.67507225 2.00296668 9.30675089 5.61350179 12 11 C12.59842057 16.98420569 11.36685471 21.13442 8 26 C4.36420505 29.54711702 1.43370215 30.28578227 -3.5 30.5 C-8.4207651 30.29969749 -11.30010527 29.42917072 -15 26 C-18.6734615 21.8431883 -19.65020633 18.58181949 -19.38671875 13.17578125 C-18.38510738 7.54045264 -14.46747817 4.1742608 -10 1 C-6.79610447 -0.60194777 -3.48419843 -0.3516761 0 0 Z " fill="#050005" transform="translate(118,131)"/>
<path d="M0 0 C4.05781679 1.71893628 7.07997421 3.96497098 10 7.25 C11.88723672 12.43990098 11.66505481 17.14484711 9.8125 22.3125 C7.4417781 25.82770834 4.78719238 28.10640381 1 30 C-3.55897843 30.5972791 -8.07410452 31.04461115 -12.2109375 28.80078125 C-15.97486845 25.64829056 -18.62787223 22.62220266 -19.3359375 17.6328125 C-19.42531743 11.89462069 -19.01244424 8.43480679 -15 4 C-10.28961424 -0.16266649 -6.07856179 -1.19106954 0 0 Z " fill="#040004" transform="translate(164,131)"/>
<path d="M0 0 C0.66 0 1.32 0 2 0 C2.33 0.99 2.66 1.98 3 3 C0.03 5.475 0.03 5.475 -3 8 C-3.66 7.67 -4.32 7.34 -5 7 C-4.21654285 5.82780457 -3.42297164 4.66236332 -2.625 3.5 C-2.18414062 2.8503125 -1.74328125 2.200625 -1.2890625 1.53125 C-0.65097656 0.77328125 -0.65097656 0.77328125 0 0 Z " fill="#E121E1" transform="translate(159,88)"/>
</svg>
