<svg version="1.1" id="Layer_1" xmlns:x="ns_extend;" xmlns:i="ns_ai;" xmlns:graph="ns_graphs;" xmlns="http://www.w3.org/2000/svg" xmlns:xlink="http://www.w3.org/1999/xlink" x="0px" y="0px" viewBox="0 0 42.4 43" style="enable-background:new 0 0 42.4 43;" xml:space="preserve">
 <style type="text/css">
  .st0{fill-rule:evenodd;clip-rule:evenodd;fill:#FFFFFF;}
	.st1{fill:#FFFFFF;}
 </style>
 <metadata>
  <sfw xmlns="ns_sfw;">
   <slices>
   </slices>
   <sliceSourceBounds bottomLeftOrigin="true" height="43" width="42.4" x="33.3" y="34.3">
   </sliceSourceBounds>
  </sfw>
 </metadata>
 <g>
  <path class="st0" d="M9.2,10.8c-2.4,2.9-3.4,6.9-3.4,10.7c0,3.8,1,7.7,3.4,10.7c2.3,2.8,6.1,5,12.3,5c6.5,0,9.8-2.9,11.5-5.6
		c1.2-1.9,1.6-3.3,1.8-4.3c0.1-0.6,0.6-1.2,1.2-1.2h3.5c0.6,0,1.2,0.5,1.1,1.2c-0.1,1.7-0.7,4.1-2.7,7.4C35.2,39,30.2,43,21.5,43
		c-7.8,0-13.3-2.8-16.8-7.2C1.3,31.6,0,26.2,0,21.5c0-4.7,1.3-10.1,4.7-14.3C8.1,3,13.2,0.3,20.3,0c0.6,0,1.2,0.5,1.2,1.1v3.5
		c0,0.6-0.5,1.2-1.2,1.2C14.8,6.1,11.4,8.2,9.2,10.8z">
  </path>
  <path class="st1" d="M42.4,14.5c0,2.6-2.1,4.7-4.7,4.7c-2.6,0-4.7-2.1-4.7-4.7c0-2.6,2.1-4.7,4.7-4.7C40.4,9.9,42.4,11.9,42.4,14.5
		z">
  </path>
 </g>
</svg>