<?xml version="1.0" encoding="utf-8"?>
<!-- Generator: Adobe Illustrator 24.2.0, SVG Export Plug-In . SVG Version: 6.00 Build 0)  -->
<svg version="1.1" id="Layer_1" xmlns="http://www.w3.org/2000/svg" xmlns:xlink="http://www.w3.org/1999/xlink" x="0px" y="0px"
	 viewBox="0 0 1000 1000" style="enable-background:new 0 0 1000 1000;" xml:space="preserve">
<style type="text/css">
	.st0{fill:#EF463D;}
	.st1{fill:#427CBF;}
	.st2{fill:#00AF59;}
	.st3{fill:#DC2226;}
	.st4{fill:#FDB716;}
</style>
<g>
	<g>
		<path class="st0" d="M284.1,263.2c34.7,25.9,69.5,51.7,104.2,77.7c33.4,25,66.8,49.9,100,75.2c5,3.8,8.1,4,13.3,0.1
			c65.7-49.6,131.6-98.9,197.5-148.3c2.2-1.6,4.5-3,6.8-4.6c0.1,4.4,0.2,8.8,0.2,13.2c0.1,71.4,0.1,142.8,0.2,214.2
			c-0.2,0.5-0.3,0.9-0.5,1.4c-27.7,20.6-55.5,41.1-83.1,61.8c-40.4,30.2-80.8,60.5-121,91c-5.1,3.8-8.2,3.8-13.2-0.1
			c-66.3-50.1-132.8-99.8-199.3-149.7c-1.5-1.1-3.2-2.1-4.8-3.1c-0.2-0.5-0.3-1-0.4-1.5C284,414.7,284.1,338.9,284.1,263.2"/>
		<path class="st1" d="M284,490.5c0.1,0.5,0.2,1,0.4,1.5c-0.1,31-0.2,62.1-0.3,93.1c0,65.6-0.1,131.3,0.1,196.9c0,6.2-1.2,8.5-8,8.4
			c-37.9-0.4-75.8-0.1-113.7-0.2c-30.9-0.1-54.3-22.9-54.4-53.2c-0.1-124.4,0-248.9,0-373.3c0-1.4,0.2-2.7,0.3-4.1
			c2.9,2,5.9,4,8.7,6.1C172.8,407.3,228.4,448.9,284,490.5"/>
		<path class="st2" d="M705.8,492.1c0.2-0.5,0.3-0.9,0.5-1.4c13.6-10.1,27.3-20.2,40.9-30.4c44.8-33.5,89.6-67,134.4-100.4
			c0.1,3.3,0.4,6.6,0.4,9.9c0,121.1,0,242.2,0,363.3c0,35.1-21.9,57.2-56.9,57.2c-36.5,0-73-0.3-109.6,0.2
			c-8.3,0.1-9.7-2.4-9.6-10.1c0.3-92.8,0.2-185.6,0.2-278.5C706.1,498.6,705.9,495.4,705.8,492.1"/>
		<path class="st3" d="M284,490.5c-55.6-41.6-111.2-83.2-166.8-124.8c-2.8-2.1-5.8-4.1-8.7-6.1c0-26.8-2.1-53.8,0.8-80.5
			c6.3-57.5,71.9-88.5,120.4-56.7c18.9,12.4,36.4,27.1,54.5,40.7C284.1,338.9,284,414.7,284,490.5"/>
		<path class="st4" d="M881.5,359.8c-44.8,33.5-89.6,67-134.4,100.4c-13.6,10.2-27.3,20.3-40.9,30.4c-0.1-71.4-0.1-142.8-0.2-214.2
			c0-4.4-0.1-8.8-0.2-13.2c18.1-13.7,35.6-28.4,54.5-40.9c50.5-33.3,117.9,1.5,121.3,62.6C883.1,309.9,881.7,334.9,881.5,359.8"/>
	</g>
</g>
</svg>
