<svg id="Layer_1" data-name="Layer 1" xmlns="http://www.w3.org/2000/svg" viewBox="0 0 1000 1000"><defs><style>.cls-1{fill:#d7282a;}.cls-1,.cls-2,.cls-3,.cls-4{fill-rule:evenodd;}.cls-2{fill:#45ac43;}.cls-3{fill:#5d7fbe;}.cls-4{fill:#f4c300;}</style></defs><path class="cls-1" d="M201.76,346.65c14-30.68,33.66-57.46,56.78-81.68C310.85,210.14,374.18,175,449.15,163.05c104.94-16.76,198.85,8,280,77.87,5.13,4.41,6.39,7,.82,12.45-28.65,28.05-56.84,56.56-85.2,84.91-2.91,2.9-4.87,6.45-10,1.72-71.45-65.47-188.08-64.73-264,5.88-26.06,24.25-44.6,53.3-56.73,86.6-1.77-1.16-3.63-2.2-5.3-3.48Q255.21,387.86,201.76,346.65Z"/><path class="cls-2" d="M313.16,566.19c10.24,26,23,50.61,41.88,71.5q72.15,79.68,179.16,68.62c33.19-3.45,63.43-14.69,91.69-32,2.71,2.42,5.29,5,8.15,7.24q49.61,38.73,99.28,77.37c-36.5,34.66-79.6,57.74-128.07,70C491,857.84,385.59,839.58,292,765.75a317.46,317.46,0,0,1-90.55-112.86Z"/><path class="cls-3" d="M733.32,759Q683.67,720.29,634,681.59c-2.86-2.23-5.44-4.82-8.15-7.24,22.41-17.11,41.11-37.34,53.39-63,4.9-10.24,8.34-21,11.59-31.81,2.25-7.48,1.55-10.39-7.7-10.31-55.09.47-110.18.23-165.27.23-11.67,0-11.68,0-11.68-12.07,0-37.35.18-74.69-.16-112-.06-7.2,1.2-10,9.31-9.94q152.42.45,304.84.09c5.48,0,8.93.4,9.88,7.08,12.65,88.87,2.51,173.78-44,252.22C771.85,718.78,754.74,740.71,733.32,759Z"/><path class="cls-4" d="M313.16,566.19l-111.68,86.7c-18.18-33.8-28.67-70.1-33.56-107.92-8.48-65.53.84-128.57,28.63-188.69,1.53-3.3,3.47-6.42,5.21-9.62Q255.22,387.84,308.7,429c1.67,1.28,3.53,2.32,5.3,3.48C299.06,477,299.81,521.53,313.16,566.19Z"/></svg>