<?xml version="1.0" encoding="utf-8"?>
<!-- Generator: Adobe Illustrator 24.2.0, SVG Export Plug-In . SVG Version: 6.00 Build 0)  -->
<svg version="1.0" id="Layer_1" xmlns="http://www.w3.org/2000/svg" xmlns:xlink="http://www.w3.org/1999/xlink" x="0px" y="0px"
	 viewBox="0 0 300 280" enable-background="new 0 0 300 280" xml:space="preserve">
<g>
	<path fill="#557EBF" d="M170.86,25.24H82.18c-8.34,0-15.64,7.3-15.64,15.65V239.1c0,8.34,7.3,15.65,15.65,15.65h135.62
		c8.34,0,15.65-7.3,15.65-15.65V87.83l-36.51-26.08L170.86,25.24z"/>
	<path fill="#F2F2F2" d="M108.26,192.16h83.46v-10.43h-83.45L108.26,192.16L108.26,192.16z M108.26,213.02h62.59V202.6h-62.59
		V213.02z M108.26,140v10.43h83.46V140H108.26z M108.26,171.29h83.46v-10.43h-83.45L108.26,171.29L108.26,171.29z"/>
	<path fill="#A6C0E4" d="M170.86,25.24v46.95c0,8.34,7.3,15.64,15.64,15.64h46.95L170.86,25.24z"/>
</g>
</svg>
