<?xml version="1.0" encoding="utf-8"?>
<!-- Generator: Adobe Illustrator 24.2.0, SVG Export Plug-In . SVG Version: 6.00 Build 0)  -->
<svg version="1.0" id="Layer_1" xmlns="http://www.w3.org/2000/svg" xmlns:xlink="http://www.w3.org/1999/xlink" x="0px" y="0px"
	 viewBox="0 0 300 280" enable-background="new 0 0 300 280" xml:space="preserve">
<g>
	<path fill="#36A852" d="M170.86,25.24H82.18c-8.34,0-15.64,7.3-15.64,15.65V239.1c0,8.34,7.3,15.65,15.65,15.65h135.62
		c8.34,0,15.65-7.3,15.65-15.65V87.83l-36.51-26.08L170.86,25.24z"/>
	<rect x="108.26" y="140" fill="#F2F2F2" width="83.46" height="10.43"/>
	<rect x="108.26" y="188.86" fill="#F2F2F2" width="83.46" height="10.43"/>
	<rect x="108.26" y="164.43" fill="#F2F2F2" width="83.46" height="10.43"/>
	<rect x="144.78" y="140" fill="#F2F2F2" width="10.43" height="59.29"/>
	<rect x="108.26" y="140" fill="#F2F2F2" width="10.43" height="59.29"/>
	<rect x="181.29" y="140" fill="#F2F2F2" width="10.43" height="59.29"/>
	<path fill="#1C8140" d="M170.86,25.24v46.95c0,8.34,7.3,15.64,15.64,15.64h46.95L170.86,25.24z"/>
</g>
</svg>
