<svg xmlns:dc="http://purl.org/dc/elements/1.1/" xmlns:cc="http://creativecommons.org/ns#" xmlns:rdf="http://www.w3.org/1999/02/22-rdf-syntax-ns#" xmlns:svg="http://www.w3.org/2000/svg" xmlns="http://www.w3.org/2000/svg" viewBox="0 0 480 480" height="480" width="480" xml:space="preserve" id="svg2" version="1.1" xmlns:xlink="http://www.w3.org/1999/xlink">
 <metadata id="metadata8">
  <rdf:RDF>
   <cc:Work rdf:about="">
    <dc:format>
     image/svg+xml
    </dc:format>
    <dc:type rdf:resource="http://purl.org/dc/dcmitype/StillImage">
    </dc:type>
   </cc:Work>
  </rdf:RDF>
 </metadata>
 <defs id="defs6">
 </defs>
 <g transform="matrix(1.3333333,0,0,-1.3333333,0,480)" id="g10">
  <g transform="scale(0.1)" id="g12">
   <path id="path14" style="fill:#ffffff;fill-opacity:1;fill-rule:nonzero;stroke:none" d="m 1994.17,2130.78 c -37.87,-28.32 -90.96,-29.33 -131.03,-4.81 -38.93,23.82 -61.26,69.96 -52.56,114.94 0.96,4.94 2.34,9.78 3.99,14.53 -4.98,-13.28 -9.23,-24.53 0.72,2.22 10.18,27 5.9,15.48 0.89,2.1 17,42.21 60.12,69.06 105.69,68.25 47.62,-0.84 91.83,-31.32 108.18,-75.89 15.97,-43.54 1.48,-93.4 -35.88,-121.34 z m 1256.59,161.11 c -36.04,86.65 -93.84,163.27 -168.53,220.81 -78.38,60.4 -172.98,98.53 -271.19,111.68 -57.3,7.67 -115.42,6.5 -172.47,-2.66 -59.66,-9.58 -115.96,-28.86 -171.31,-52.49 -27.11,-11.58 -53.98,-23.69 -81.03,-35.42 -82.52,-48.67 -175.6,-76.37 -271.78,-77.63 -49.82,-0.65 -99.53,4.9 -148.19,15.51 -25.62,5.58 -50.93,12.54 -75.87,20.59 -24.19,7.82 -48.67,12.81 -74.04,14.96 -57.63,4.89 -115.69,-2.84 -172.92,-8.93 l -138.13,-14.84 c -0.19,0.27 -0.34,0.45 -0.49,0.72 l -4.05,-0.41 c -35.1,38.74 -78.53,69.21 -121.07,99.26 -12.13,8.57 -23.93,16.06 -39.17,17.45 -43.11,0.4 -53.35,-50.92 -55.84,-84.18 -3.04,-40.59 1.82,-82.32 11.14,-121.87 3.57,-15.15 7.52,-31.2 15.07,-44.97 0,0 6.65,-29.4 18.3,-56.88 -14.98,-18.21 -27.01,-38.91 -35.37,-60.91 -2.93,-7.74 -5.91,-14.51 -10.48,-21.46 -13.43,-20.45 -29.68,-39.18 -45.65,-57.67 -54,-62.53 -111.55,-122.09 -169.14,-181.34 C 1041.58,1943.46 809.156,1866.75 675.305,1824.19 688.188,2437.1 1189.01,2930 1805,2930 c 291.66,0 557.49,-110.52 757.96,-291.93 25.91,7.51 50.91,13.25 75.61,17.21 33.74,5.42 67.85,8.17 101.36,8.17 3.37,0 6.73,-0.11 10.09,-0.17 C 2515.97,2919.35 2179.26,3080 1805,3080 1098.08,3080 525,2506.92 525,1800 525,1093.08 1098.08,520 1805,520 c 649.79,0 1186.43,484.2 1268.94,1111.46 -4.95,-3 -9.81,-6.13 -14.88,-8.99 -32.18,-18.17 -65.6,-31.7 -97.92,-44.77 -11.16,-4.53 -21.69,-8.78 -32.18,-13.22 -6.76,-2.85 -13.66,-5.89 -20.56,-8.93 -108.45,-491.72 -537.14,-863.191 -1056.22,-884.519 112.19,167.117 337.37,495.569 403.37,540.749 90.36,61.86 181.8,122.21 274.99,179.8 85.3,52.72 172.07,103.37 261.55,148.84 38.8,19.71 78.13,38.43 118.24,55.38 42.7,18.03 86.16,33.43 126.63,56.27 72.91,41.14 135.98,98.99 180.81,169.51 42.89,67.47 68.25,145.16 74.17,224.69 6.24,83.71 -8.96,168.16 -41.18,245.62">
   </path>
  </g>
 </g>
</svg>