<svg fill="none" height="16" viewBox="0 0 100 16" width="100" xmlns="http://www.w3.org/2000/svg">
<path d="M15.3808 5.923C15.4937 5.923 15.6067 6.00721 15.6632 6.11949C15.7196 6.23177 15.6914 6.37212 15.6067 6.45633L8.54804 13.4739C6.59985 15.4107 3.40933 15.4107 1.46114 13.4739C-0.487047 11.537 -0.487047 8.3651 1.46114 6.42826L5.52693 2.38615C6.68455 1.23528 8.26569 0.786152 9.76212 0.982644C9.87506 1.01071 9.95976 1.06685 10.0162 1.17913C10.0445 1.29141 10.0162 1.4037 9.93153 1.48791L9.02802 2.38615C8.88685 2.5265 8.71744 2.61071 8.54804 2.63878C7.8704 2.75106 7.22101 3.05984 6.71278 3.5651L2.647 7.60721C1.3482 8.89843 1.3482 11.0037 2.647 12.2949C3.94579 13.5862 6.06339 13.5862 7.36218 12.2949L12.4162 7.27036L11.5974 6.45633C11.5127 6.37212 11.4844 6.23177 11.5409 6.11949C11.5974 6.00721 11.7103 5.923 11.8233 5.923H15.3808ZM8.09628 9.99317C8.20922 9.99317 8.32216 9.90896 8.37863 9.79668C8.4351 9.6844 8.40686 9.54405 8.32216 9.45984L7.50335 8.6458L12.5573 3.62124C13.8561 2.33001 15.9737 2.33001 17.2725 3.62124C18.5713 4.91247 18.5713 7.01773 17.2725 8.30896L13.1785 12.3511C12.6703 12.8563 12.0209 13.1651 11.3433 13.2774C11.1456 13.3055 10.9762 13.3897 10.8633 13.53L9.95977 14.4283C9.87506 14.5125 9.84682 14.6247 9.87506 14.737C9.90329 14.8493 10.0162 14.9335 10.1292 14.9335C11.6256 15.13 13.2068 14.6809 14.3644 13.53L18.4302 9.48791C20.3783 7.55107 20.3783 4.37913 18.4302 2.44229C16.482 0.50545 13.2915 0.50545 11.3433 2.44229L4.28461 9.45984C4.1999 9.54405 4.17167 9.6844 4.22814 9.79668C4.28461 9.90896 4.39754 9.99317 4.51048 9.99317H8.09628Z" fill="#0044CC" id="Symbol_-_Blue"></path>
<path d="M32.4075 13.4738V2.27381H34.6123V13.4738H32.4075ZM24.9883 13.4738V2.25781H27.1931V13.4738H24.9883ZM26.6298 8.75381V6.73781H33.4536V8.75381H26.6298Z"></path>
<path d="M40.6958 13.6658C39.8804 13.6658 39.1508 13.4898 38.507 13.1378C37.874 12.7751 37.3751 12.2791 37.0103 11.6498C36.6562 11.0205 36.4792 10.2951 36.4792 9.47381C36.4792 8.65248 36.6562 7.92715 37.0103 7.29781C37.3644 6.66848 37.8579 6.17781 38.4909 5.82581C39.1239 5.46315 39.8482 5.28181 40.6636 5.28181C41.4897 5.28181 42.2193 5.46315 42.8523 5.82581C43.4854 6.17781 43.9789 6.66848 44.333 7.29781C44.687 7.92715 44.864 8.65248 44.864 9.47381C44.864 10.2951 44.687 11.0205 44.333 11.6498C43.9789 12.2791 43.4854 12.7751 42.8523 13.1378C42.23 13.4898 41.5112 13.6658 40.6958 13.6658ZM40.6958 11.7138C41.0928 11.7138 41.4414 11.6178 41.7419 11.4258C42.0423 11.2338 42.273 10.9725 42.4339 10.6418C42.6056 10.3005 42.6914 9.91115 42.6914 9.47381C42.6914 9.03648 42.6056 8.65248 42.4339 8.32181C42.2622 7.98048 42.0208 7.71381 41.7097 7.52181C41.4093 7.32981 41.0606 7.23381 40.6636 7.23381C40.2773 7.23381 39.9286 7.32981 39.6175 7.52181C39.3171 7.71381 39.081 7.98048 38.9094 8.32181C38.7377 8.65248 38.6519 9.03648 38.6519 9.47381C38.6519 9.91115 38.7377 10.3005 38.9094 10.6418C39.081 10.9725 39.3224 11.2338 39.6336 11.4258C39.9447 11.6178 40.2988 11.7138 40.6958 11.7138Z"></path>
<path d="M50.2081 13.6658C49.3926 13.6658 48.6631 13.4898 48.0193 13.1378C47.3863 12.7751 46.8874 12.2791 46.5226 11.6498C46.1685 11.0205 45.9915 10.2951 45.9915 9.47381C45.9915 8.65248 46.1685 7.92715 46.5226 7.29781C46.8766 6.66848 47.3702 6.17781 48.0032 5.82581C48.6362 5.46315 49.3604 5.28181 50.1759 5.28181C51.002 5.28181 51.7316 5.46315 52.3646 5.82581C52.9976 6.17781 53.4912 6.66848 53.8452 7.29781C54.1993 7.92715 54.3763 8.65248 54.3763 9.47381C54.3763 10.2951 54.1993 11.0205 53.8452 11.6498C53.4912 12.2791 52.9976 12.7751 52.3646 13.1378C51.7423 13.4898 51.0235 13.6658 50.2081 13.6658ZM50.2081 11.7138C50.605 11.7138 50.9537 11.6178 51.2541 11.4258C51.5546 11.2338 51.7852 10.9725 51.9462 10.6418C52.1178 10.3005 52.2037 9.91115 52.2037 9.47381C52.2037 9.03648 52.1178 8.65248 51.9462 8.32181C51.7745 7.98048 51.5331 7.71381 51.222 7.52181C50.9215 7.32981 50.5728 7.23381 50.1759 7.23381C49.7896 7.23381 49.4409 7.32981 49.1298 7.52181C48.8294 7.71381 48.5933 7.98048 48.4216 8.32181C48.25 8.65248 48.1641 9.03648 48.1641 9.47381C48.1641 9.91115 48.25 10.3005 48.4216 10.6418C48.5933 10.9725 48.8347 11.2338 49.1459 11.4258C49.457 11.6178 49.8111 11.7138 50.2081 11.7138Z"></path>
<path d="M57.9661 11.4418L56.6947 9.98581L60.8147 5.47381H63.3414L57.9661 11.4418ZM55.9383 13.4738V2.27381H58.0627V13.4738H55.9383ZM61.0883 13.4738L58.4167 9.60181L59.8008 8.14581L63.5828 13.4738H61.0883Z"></path>
<path d="M70.0641 13.4738L69.9514 11.9858V2.27381H72.0758V13.4738H70.0641ZM67.5374 13.6658C66.7971 13.6658 66.1533 13.4951 65.6061 13.1538C65.0697 12.8125 64.6512 12.3271 64.3508 11.6978C64.0504 11.0685 63.9002 10.3271 63.9002 9.47381C63.9002 8.60981 64.0504 7.86848 64.3508 7.24981C64.6512 6.62048 65.0697 6.13515 65.6061 5.79381C66.1533 5.45248 66.7971 5.28181 67.5374 5.28181C68.2133 5.28181 68.7819 5.45248 69.2433 5.79381C69.7154 6.13515 70.0748 6.62048 70.3216 7.24981C70.5684 7.86848 70.6917 8.60981 70.6917 9.47381C70.6917 10.3271 70.5684 11.0685 70.3216 11.6978C70.0748 12.3271 69.7154 12.8125 69.2433 13.1538C68.7819 13.4951 68.2133 13.6658 67.5374 13.6658ZM68.0845 11.7298C68.4493 11.7298 68.7712 11.6338 69.0502 11.4418C69.3399 11.2498 69.5652 10.9831 69.7261 10.6418C69.887 10.3005 69.9675 9.91115 69.9675 9.47381C69.9675 9.03648 69.887 8.64715 69.7261 8.30581C69.5652 7.96448 69.3399 7.70315 69.0502 7.52181C68.7712 7.32981 68.444 7.23381 68.0685 7.23381C67.6822 7.23381 67.3442 7.32981 67.0546 7.52181C66.7649 7.70315 66.5342 7.96448 66.3625 8.30581C66.1909 8.64715 66.105 9.03648 66.105 9.47381C66.105 9.91115 66.1909 10.3005 66.3625 10.6418C66.5342 10.9831 66.7649 11.2498 67.0546 11.4418C67.355 11.6338 67.6983 11.7298 68.0845 11.7298Z"></path>
<path d="M77.7042 13.6658C76.9102 13.6658 76.2075 13.4898 75.5959 13.1378C74.9844 12.7751 74.5016 12.2791 74.1475 11.6498C73.8042 11.0205 73.6325 10.2951 73.6325 9.47381C73.6325 8.65248 73.8095 7.92715 74.1636 7.29781C74.5284 6.66848 75.0219 6.17781 75.6442 5.82581C76.2772 5.46315 77.0014 5.28181 77.8169 5.28181C78.525 5.28181 79.1741 5.46848 79.7642 5.84181C80.365 6.20448 80.8425 6.74315 81.1965 7.45781C81.5613 8.16181 81.7437 9.02048 81.7437 10.0338H75.6442L75.8373 9.84181C75.8373 10.2365 75.9339 10.5831 76.127 10.8818C76.3309 11.1698 76.5884 11.3938 76.8995 11.5538C77.2214 11.7031 77.5647 11.7778 77.9295 11.7778C78.3694 11.7778 78.7288 11.6871 79.0078 11.5058C79.2868 11.3138 79.5013 11.0685 79.6516 10.7698L81.5506 11.5058C81.3253 11.9538 81.0302 12.3431 80.6655 12.6738C80.3114 12.9938 79.8876 13.2391 79.3941 13.4098C78.9005 13.5805 78.3372 13.6658 77.7042 13.6658ZM75.95 8.65781L75.7569 8.46581H79.6355L79.4584 8.65781C79.4584 8.27381 79.3672 7.96981 79.1848 7.74581C79.0024 7.51115 78.7771 7.34048 78.5089 7.23381C78.2514 7.12715 77.9993 7.07381 77.7525 7.07381C77.5057 7.07381 77.2429 7.12715 76.9639 7.23381C76.6849 7.34048 76.4435 7.51115 76.2397 7.74581C76.0466 7.96981 75.95 8.27381 75.95 8.65781Z"></path>
<path d="M87.0178 13.6658C86.181 13.6658 85.4353 13.4898 84.7808 13.1378C84.1263 12.7751 83.6167 12.2791 83.2519 11.6498C82.8871 11.0098 82.7047 10.2845 82.7047 9.47381C82.7047 8.65248 82.8871 7.92715 83.2519 7.29781C83.6167 6.66848 84.121 6.17781 84.7647 5.82581C85.4085 5.46315 86.1488 5.28181 86.9856 5.28181C87.7903 5.28181 88.5253 5.47915 89.1905 5.87381C89.8557 6.26848 90.3385 6.83915 90.6389 7.58581L88.6433 8.28981C88.4931 7.98048 88.257 7.73515 87.9352 7.55381C87.624 7.36181 87.2753 7.26581 86.8891 7.26581C86.4921 7.26581 86.1434 7.36181 85.843 7.55381C85.5426 7.73515 85.3065 7.99115 85.1349 8.32181C84.9632 8.65248 84.8774 9.03648 84.8774 9.47381C84.8774 9.91115 84.9632 10.2951 85.1349 10.6258C85.3065 10.9458 85.5479 11.2018 85.8591 11.3938C86.1702 11.5858 86.5243 11.6818 86.9213 11.6818C87.3075 11.6818 87.6562 11.5805 87.9674 11.3778C88.2892 11.1751 88.5253 10.9085 88.6755 10.5778L90.6872 11.2818C90.3761 12.0391 89.8879 12.6258 89.2227 13.0418C88.5682 13.4578 87.8332 13.6658 87.0178 13.6658Z"></path>
<path d="M94.1135 11.4418L92.8421 9.98581L96.9621 5.47381H99.4888L94.1135 11.4418ZM92.0857 13.4738V2.27381H94.2101V13.4738H92.0857ZM97.2357 13.4738L94.5642 9.60181L95.9482 8.14581L99.7302 13.4738H97.2357Z"></path>
</svg>