<svg id="Layer_1" data-name="Layer 1" xmlns="http://www.w3.org/2000/svg" viewBox="0 0 280 300"><defs><style>.cls-1{fill:#46545f;}.cls-2{fill:#f47622;}</style></defs><title>HubSpot Academy Logo</title><path class="cls-1" d="M59.55,135.37h5.61v12.47H77V135.37h5.61V166H77V153.24H65.16V166H59.55v-30.6Z"/><path class="cls-1" d="M100.39,156a4.65,4.65,0,0,1-9.3,0V142.83H85.77V156a10,10,0,0,0,19.94,0V142.83h-5.32V156"/><path class="cls-1" d="M120.56,143a8.17,8.17,0,0,0-6.26,2.52V135.37H109v18.76c0,7,5.08,11.84,10.78,11.84a11.69,11.69,0,0,0,11.9-11.49A11.29,11.29,0,0,0,120.56,143Zm.13,18.05a6.56,6.56,0,0,1,0-13.11c3.06,0,5.83,3,5.83,6.56s-2.77,6.55-5.83,6.55Z"/><path class="cls-1" d="M140.61,144.33c0-2.69,1.78-3.54,3.74-3.54a8,8,0,0,1,5,2.64l3.49-4.08a11,11,0,0,0-8.17-4c-5.79,0-10,3.36-10,8.94,0,10.34,12.73,7.06,12.73,12.85a3.66,3.66,0,0,1-3.75,3.36c-3.15,0-4.17-1.53-5.62-3.15l-3.87,4a11.43,11.43,0,0,0,9.2,4.56c5.49,0,9.91-3.41,9.91-8.73,0-11.49-12.72-7.91-12.72-12.89"/><path class="cls-1" d="M167.38,142.68c-5.7,0-10.78,4.81-10.78,11.84v18.81h5.34V163.15a8.17,8.17,0,0,0,6.26,2.52,11.29,11.29,0,0,0,11.08-11.5,11.69,11.69,0,0,0-11.9-11.49Zm1,18a6.56,6.56,0,0,1,0-13.11c3.07,0,5.83,3,5.83,6.55s-2.76,6.56-5.83,6.56Z"/><path class="cls-1" d="M218.57,161c-3.15,0-4-1.36-4-3.45v-9.23h4.89v-4.69h-4.89v-6.17l-5.4,2.43v18.81c0,4.81,3.31,7.24,7.87,7.24a11.42,11.42,0,0,0,2.13-.17l1.32-4.85c-.6,0-1.28.08-1.88.08"/><path class="cls-2" d="M204.5,148.62a11.89,11.89,0,0,0-4.27-4.24,11.41,11.41,0,0,0-4.31-1.49V137.3a4.14,4.14,0,0,0,2.55-3.87,4.25,4.25,0,1,0-8.49,0,4.09,4.09,0,0,0,2.49,3.87v5.59a12.3,12.3,0,0,0-3.75,1.18l-15.07-11.44a4.7,4.7,0,1,0-9.22-1.25,4.69,4.69,0,0,0,7.12,4l1,.74,13.52,9.75a11.15,11.15,0,0,0-1.91,2.24,10.44,10.44,0,0,0-1.74,5.63v.43a11.76,11.76,0,0,0,.74,4.08,10.84,10.84,0,0,0,1.75,3l-4.49,4.5a3.47,3.47,0,0,0-1.25-.23,3.61,3.61,0,1,0,3.48,2.55l4.64-4.64a11.67,11.67,0,0,0,2.06,1.13,12,12,0,0,0,4.82,1h.32a11.54,11.54,0,0,0,9.82-5.45,10.67,10.67,0,0,0,1.68-5.74v-.11a11.3,11.3,0,0,0-1.48-5.72Zm-5.67,9.73a5.91,5.91,0,0,1-4.35,2.26h-.27a5.89,5.89,0,0,1-2.74-.73,6.29,6.29,0,0,1-2.4-2.18,5.11,5.11,0,0,1-1-3v-.33a6.12,6.12,0,0,1,.7-3A6.37,6.37,0,0,1,191,149a5.46,5.46,0,0,1,3.1-.94h.1a6.41,6.41,0,0,1,2.92.67,6.21,6.21,0,0,1,2.29,2.09,6.7,6.7,0,0,1,1,2.92c0,.22,0,.45,0,.66a5.8,5.8,0,0,1-1.64,4Z"/></svg>