<svg version="1.1" id="Layer_1" xmlns:x="ns_extend;" xmlns:i="ns_ai;" xmlns:graph="ns_graphs;" xmlns="http://www.w3.org/2000/svg" xmlns:xlink="http://www.w3.org/1999/xlink" x="0px" y="0px" viewBox="0 0 836 126" style="enable-background:new 0 0 836 126;" xml:space="preserve">
 <style type="text/css">
  .st0{fill:#FFD700;}
	.st1{fill:#00D1FF;}
	.st2{fill:#6559FF;}
	.st3{fill:#FFFFFF;}
 </style>
 <metadata>
  <sfw xmlns="ns_sfw;">
   <slices>
   </slices>
   <sliceSourceBounds bottomLeftOrigin="true" height="124.3" width="834.8" x="0.6" y="0.8">
   </sliceSourceBounds>
  </sfw>
 </metadata>
 <g>
  <path class="st0" d="M823.8,107.2H679.3c-1.6,5.2-5.1,9.6-9.9,12.2l145.8-3c4.7-0.1,8.6-3.4,9.5-8
		C824.9,107.8,824.4,107.2,823.8,107.2z">
  </path>
  <path class="st1" d="M679.3,107.2H534.8c0,0,0,0,0,0.1c-1.6,7.2-9.3,12.4-13.6,15.2l81.1-1.7l67.1-1.4
		C674.1,116.8,677.7,112.5,679.3,107.2z">
  </path>
  <path class="st2" d="M410.3,107.2c-7.1,0-13.5,3.6-17.3,9.2c-1,1.4-1.7,3-2.3,4.6c-0.3,0.9-0.6,1.9-0.8,2.9
		c-0.1,0.5,0.2,1.1,0.8,1.2c0.1,0,0.1,0,0.2,0l99.2-2.1l31.2-0.7c6.7-2.3,12-8,13.6-15.2c0,0,0,0,0-0.1L410.3,107.2L410.3,107.2z">
  </path>
  <path class="st3" d="M827.1,32.5c-5.6-5.4-12.8-8.1-21.7-8.1c-5.8,0-11.2,1-16.2,3.1s-9.3,4.8-12.8,8.4c-3.5,3.5-6.2,7.7-8.3,12.6
		c-2,4.9-3,10.1-3,15.6c0,5.4,1.2,10.4,3.6,14.8s5.9,8,10.4,10.6s9.6,3.9,15.2,3.9c8.4,0,15.9-2.1,22.6-6.4
		c5.8-3.7,9.7-7.3,12.8-13.1c0.7-1.3-0.2-3-1.8-3h-16.7c-1.1,0-2.1,0.5-2.9,1.2c-1,1-2,1.5-3.8,2.3c-2.3,1.1-4.8,1.2-7.5,1.2
		c-3.8,0-6.8-1-8.8-2.9c-2-1.9-3.1-4.8-3.1-8.7h40.1c5.3,0,9.8-4.1,10-9.4c0-0.6,0-1.2,0-1.7C835.4,44.7,832.6,37.9,827.1,32.5z
		 M814.1,51.7h-24.4c-0.8,0-1.3-0.9-0.9-1.5c1.4-2.4,3.2-4.4,5.4-5.9c2.6-1.8,5.6-2.8,9-2.8c3.5,0,6.2,0.9,8.3,2.6
		c1.8,1.5,3,3.6,3.5,6.4C815.2,51.1,814.7,51.7,814.1,51.7L814.1,51.7z M240.1,24.3c-5.8,0-11.2,1-16.2,3.1s-9.3,4.8-12.8,8.4
		c-3.5,3.5-6.2,7.7-8.3,12.6c-2,4.9-3,10.1-3,15.6c0,5.4,1.2,10.4,3.6,14.8s5.9,8,10.4,10.6c4.5,2.6,9.6,3.9,15.2,3.9
		c8.4,0,15.9-2.1,22.6-6.4c5.8-3.7,9.7-7.3,12.8-13.1c0.7-1.3-0.2-3-1.8-3H246c-1.1,0-2.1,0.5-2.9,1.2c-1,1-2.1,1.5-3.8,2.3
		c-2.3,1.1-4.8,1.2-7.5,1.2c-3.8,0-6.8-1-8.8-2.9c-1.8-1.8-2.9-4.3-3.1-7.6c0-0.6,0.4-1,0.9-1.1c0,0,0,0,0.1,0h39.1
		c5.3,0,9.8-4.1,10-9.4c0-0.6,0-1.2,0-1.7c0-8.2-2.8-15-8.4-20.5C256.2,27,249,24.3,240.1,24.3L240.1,24.3z M248.8,51.7h-24.4
		c-0.8,0-1.3-0.9-0.9-1.5c1.4-2.4,3.2-4.4,5.4-5.9c2.6-1.8,5.6-2.8,9-2.8c3.5,0,6.2,0.9,8.3,2.6c1.8,1.5,3,3.6,3.5,6.4
		C249.9,51.1,249.4,51.7,248.8,51.7L248.8,51.7z M202.8,36.6l1.4-6.9c0.2-1.2-0.7-2.4-2-2.4h-11.8c-0.6,0-1.1-0.6-1-1.2l0.6-3.1
		c0.3-1.7,1.1-3,2.2-4c1.2-1,2.6-1.5,4.3-1.5h1.7c4.8,0,8.9-3.4,9.8-8l1.3-6.3c0.2-1.2-0.7-2.4-2-2.4h-13.1
		c-6.8,0-12.2,1.7-16.4,5.2c-4.1,3.5-6.8,8.4-8.1,14.9l-1.1,5.6c-0.1,0.5-0.5,0.8-1,0.8h-5.3c-2.9,0-5.3,2-5.9,4.8l-2,10.1
		c-0.2,1.2,0.7,2.4,2,2.4h7.1c0.6,0,1.1,0.6,1,1.2l-8.6,43c-0.2,1.2,0.7,2.4,2,2.4H169c4.8,0,8.9-3.4,9.8-8l7.6-37.7
		c0.1-0.5,0.5-0.8,1-0.8h5.8C197.8,44.7,201.9,41.3,202.8,36.6L202.8,36.6z M598.9,3.1h-10.8c-4.8,0-8.9,3.4-9.8,8l-14.6,73
		c-0.7,3.7,2.1,7.2,5.9,7.2H582c1,0,1.8-0.7,2-1.6l16.8-84.2C601.1,4.2,600.2,3.1,598.9,3.1z M648.5,26.4h-13c-0.6,0-1-0.4-1-1
		c0-0.1,0-0.1,0-0.2l3-15.3c0.2-1.2-0.7-2.4-2-2.4h-1.2c-0.5,0-1,0.2-1.3,0.5l-34.7,31.5l-0.5,2.6c-0.2,1.2,0.7,2.4,2,2.4h8.5
		c0.6,0,1.1,0.6,1,1.2c-0.4,1.8-0.8,4-1.3,6.7c-1.4,7.1-2.3,11.7-2.7,13.8c-0.4,2.1-0.6,3.9-0.6,5.4c0,6.1,1.9,10.8,5.7,14.4
		c3.8,3.5,9,5.3,15.7,5.3h3.9c4.8,0,8.9-3.4,9.8-8l1.8-8.9c0.2-1.2-0.7-2.4-2-2.4h-5.5c-2.3,0-4.1-0.5-5.4-1.6s-1.9-2.6-1.9-4.7
		c0-1,1.3-7.7,3.9-20.3c0.1-0.5,0.5-0.8,1-0.8h7.5c4.8,0,8.9-3.4,9.8-8.1l1.5-7.6C650.7,27.6,649.8,26.4,648.5,26.4L648.5,26.4z
		 M323.5,26.4h-13c-0.6,0-1-0.4-1-1c0-0.1,0-0.1,0-0.2l3-15.3c0.2-1.2-0.7-2.4-2-2.4h-1.2c-0.5,0-1,0.2-1.3,0.5l-34.7,31.5l-0.5,2.6
		c-0.2,1.2,0.7,2.4,2,2.4h8.5c0.6,0,1.1,0.6,1,1.2c-0.4,1.8-0.8,4-1.3,6.7c-1.4,7.1-2.3,11.7-2.7,13.8c-0.4,2.1-0.6,3.9-0.6,5.4
		c0,6.1,1.9,10.8,5.7,14.4c3.8,3.5,9,5.3,15.7,5.3h3.9c4.8,0,8.9-3.4,9.8-8l1.8-8.9c0.2-1.2-0.7-2.4-2-2.4H309
		c-2.3,0-4.1-0.5-5.4-1.6s-1.9-2.6-1.9-4.7c0-1,1.3-7.7,3.9-20.3c0.1-0.5,0.5-0.8,1-0.8h7.5c4.8,0,8.9-3.4,9.8-8.1l1.5-7.6
		C325.7,27.6,324.7,26.4,323.5,26.4z M718.8,26.4h-10.9c-4.8,0-8.9,3.4-9.8,8.1l-5.4,27c-0.7,3.7-2.3,6.7-4.5,8.9
		c-2.3,2.3-5,3.4-8.1,3.4c-5.5,0-8.3-2.5-8.3-7.4c0-0.6,0.1-1.4,0.2-2.3c0.2-1.2,2.5-13,7-35.3c0.2-1.2-0.7-2.4-2-2.4h-10.8
		c-4.7,0-8.8,3.3-9.8,8c-0.5,2.2-0.9,4.6-1.5,7.2c-2.3,11-3.6,17.8-4.1,20.3c-0.5,2.5-0.7,4.7-0.7,6.7c0,7.3,2.5,13.3,7.4,17.8
		c5,4.6,11.6,6.8,19.8,6.8c9.5,0,17.5-2.5,23.9-7.5s10.5-11.9,12.3-20.9l7.2-36.1c0.2-1.1-0.5-2.1-1.6-2.4
		C719,26.5,718.9,26.4,718.8,26.4z M565.5,26.4h-10.9c-4.8,0-8.9,3.4-9.8,8.1l-5.4,27c-0.7,3.7-2.3,6.7-4.5,8.9
		c-2.3,2.3-5,3.4-8.1,3.4c-5.5,0-8.3-2.5-8.3-7.4c0-0.6,0.1-1.4,0.2-2.3c0.2-1.2,2.5-13,7-35.3c0.2-1.2-0.7-2.4-2-2.4h-10.8
		c-4.7,0-8.8,3.3-9.8,8c-0.5,2.2-0.9,4.6-1.5,7.2c-2.3,11-3.6,17.8-4.1,20.3c-0.5,2.5-0.7,4.7-0.7,6.7c0,7.3,2.5,13.3,7.4,17.8
		c5,4.6,11.6,6.8,19.8,6.8c9.5,0,17.5-2.5,23.9-7.5s10.5-11.9,12.3-20.9l7.2-36.1c0.2-1.1-0.5-2.1-1.6-2.4
		C565.7,26.5,565.6,26.4,565.5,26.4z M768.2,37.8l1.8-9.3c0.2-1.2-0.7-2.4-2-2.4h-3.8c-7,0-13.1,2-18.1,6c-0.5,0.4-1.4,0.2-1.6-0.5
		l-1-3.7c-0.2-0.9-1-1.5-1.9-1.5h-4.5c-4.8,0-8.9,3.4-9.8,8l-9.9,49.6c-0.7,3.7,2.1,7.2,5.9,7.2h12.5c1,0,1.8-0.7,2-1.6l6.5-32.5
		c0.9-4,2.4-6.8,4.6-8.5c2.2-1.8,5.3-2.6,9.3-2.6h0.2C763.2,45.9,767.3,42.5,768.2,37.8z M44.7,5.5c-7.2,0-13.5,1.1-18.9,3.3
		s-9.6,5.7-12.7,10.3C9.9,23.8,8.4,29.4,8.4,36c0,8.1,5,14,12.3,17.1c5.5,2.3,11.4,3.2,17.1,5.2c4.7,1.6,8.5,5,6,10.2
		c-1.9,3.9-6.5,5.7-10.6,5.7c-6.1,0-8.7-5.2-9.7-7.9c-0.3-0.9-1.3-1.5-2.3-1.3L3,68.6c-1.5,0.3-2.6,1.7-2.4,3.3
		c0.6,5.7,3.2,11.9,7.6,15.5c5.2,4.2,12.4,6.3,21.4,6.3c7.5,0,14-1.2,19.8-3.6c10.1-4.3,17.2-13.7,18.4-24.6c0.5-4.9-0.4-9.9-2.9-14
		c-1.3-2.2-3.1-4.1-5.2-5.6c-6.6-4.5-14.9-5.1-22.2-7.9c-2.2-0.9-5-2-5.9-4.5c-1.1-3.1,1-6.4,3.8-7.9c2.4-1.2,5.9-1.5,8.5-0.9
		c3.2,0.7,5,3.1,5.4,6.1c0.1,1.1,1.2,1.9,2.4,1.7L69.3,29c1.5-0.3,2.6-1.7,2.4-3.3C70,8.8,52.8,5.5,44.7,5.5z M395.1,26.4h-10.7
		c-3.5,0-6.8,1.9-8.6,4.9L359,59.4c-0.1,0.1-0.1,0.2-0.2,0.3c-0.5,0.4-1.4,0.2-1.6-0.6l-5-24.7c-0.9-4.7-5-8-9.8-8h-9
		c-2.6,0-4.5,2.5-3.9,5l13.7,54.4l-2.7,4.5l-4.7,7.8c-1.2,1.9-2,4-2.4,6.2c-0.1,0.6-0.2,1.1-0.3,1.7c-0.4,3.1,0,6.2,1,9.2
		c0.3,0.8,0.6,1.6,1,2.3l1.2,2.4l2.1,4.2c0.5,0.9,1.7,1.1,2.3,0.4c0.1-0.1,0.2-0.2,0.2-0.3l2.6-4.1l2.9-4.6l5.9-9.4l1-1.7l0.7-1.1
		l5.1-8.1l16.1-25.7l23.1-36.9C400.2,29.9,398.3,26.4,395.1,26.4L395.1,26.4z M464.9,29.8c2.5,2.1,4.1,5,5.1,8.4
		c0.3,1,1.3,1.7,2.3,1.5l16.6-3.2c1.5-0.3,2.6-1.7,2.4-3.3c-0.6-5-3.3-15.6-15.8-23.5C470.1,6.3,463.6,5,456.7,5
		c-7.1,0-14,1.3-20.4,4c-6.4,2.6-12,6.2-16.6,10.7c-4.6,4.5-8.3,9.9-11.1,16.3c-2.7,6.3-4.1,13.1-4.1,20.2c0,7,1.5,13.2,4.7,18.8
		c8.8,15.8,29.1,21.5,45.8,17.5c14.3-3.4,33.4-15.1,35.9-37.7c0.3-2.8-2.7-3.4-4-1.1c-10.2,17.3-38.2,30.2-53.4,15.1
		c-10.3-10.2-6.6-23.9,0.2-32.6C440.4,27.6,455.7,21.7,464.9,29.8z M144.6,26.4h-6.9c-1.4,0-2.7,0.7-3.4,1.9l-2.1,3.3
		c-0.4,0.6-1.1,0.6-1.6,0.2c-4.9-4.9-11.3-7.4-19-7.4c-5.2,0-10.2,1-14.9,3c-4.8,2-8.9,4.8-12.5,8.2c-3.6,3.5-6.4,7.7-8.5,12.7
		s-3.2,10.3-3.2,16c0,8.6,2.7,15.6,8.1,21c5.4,5.3,12.2,8,20.5,8c7.3,0,14-2.1,20.2-6.2c0.6-0.4,1.4-0.1,1.6,0.6l0.4,1.9
		c0.2,0.9,1,1.6,2,1.6h5.5c4.8,0,8.9-3.4,9.8-8l9.9-49.6C151.3,29.9,148.4,26.4,144.6,26.4z M119.2,68.4c-3.5,3.7-7.7,5.5-12.4,5.5
		c-3.8,0-6.7-1.1-9-3.3c-2.2-2.2-3.3-5.1-3.3-8.7c0-5,1.8-9.3,5.2-12.9c3.5-3.7,7.6-5.5,12.3-5.5c3.8,0,6.8,1.1,9.1,3.3
		c2.3,2.2,3.4,5.1,3.4,8.7C124.6,60.5,122.8,64.8,119.2,68.4z">
  </path>
 </g>
</svg>