<svg xmlns="http://www.w3.org/2000/svg" width="77" height="29" viewBox="0 0 77 29">
    <g fill="none" fill-rule="evenodd">
        <path d="M0 28.988h76.999V0H0z"/>
        <path fill="#4e8abe" d="M25.789 19.005c0 2.573.218 2.646 1.36 2.792l.534.073c.17.17.146.608-.049.703a74.045 74.045 0 0 0-6.506 0c-.194-.095-.219-.533-.048-.703l.533-.073c1.142-.146 1.36-.22 1.36-2.792v-9.03c0-2.574-.218-2.647-1.36-2.794l-.533-.072c-.171-.17-.146-.607.048-.704a71.547 71.547 0 0 0 6.507-.001c.194.098.218.535.048.705l-.534.072c-1.142.147-1.36.22-1.36 2.794v9.03zM51.372 16.35h4.257l-.78-6.33h-.044l-3.433 6.33zm2.318-9.763h3.589L59.93 22.5h-3.476l-.514-3.543h-5.95L47.985 22.5h-3.7L53.69 6.587zM66.995 9.195h-3.187l.58-2.607h3.186l-.579 2.607zm-3.543 1.783h3.187l-2.452 11.523H61l2.452-11.523zM69.18 10.978h3.009l-.47 2.072.046.045c.714-1.583 2.274-2.429 3.967-2.429.335 0 .647.023.98.067l-.645 3.075c-.446-.089-.892-.2-1.338-.2-2.43 0-3.298 1.827-3.722 3.79l-1.07 5.102h-3.164l2.407-11.522z"/>
        <path fill="#4e8abe" d="M31.508 14.004c0 3.35 1.433 7.915 5.584 7.915 2.767 0 5.002-2.064 5.002-6.943 0-3.666-1.65-7.915-5.512-7.915-2.428 0-5.074 1.772-5.074 6.943m13.887.534c0 3.787-2.282 6.822-5.487 7.843-.145.097-.049.29.22.509 1.383 1.214 3.543 3.132 5.364 3.666.583.17 1.165.267 1.748.267a3.36 3.36 0 0 0 1.214-.243c.146.073.22.34.146.486-.729.557-1.99.752-3.035.752-3.253 0-6.604-1.942-8.983-4.467-.437-.437-.606-.51-.898-.534-4.418-.365-7.477-3.958-7.477-8.11 0-4.952 3.592-8.618 8.691-8.618 5.608 0 8.497 4.079 8.497 8.449"/>
        <path fill="#D9272E" d="M15.984 21.264a1.22 1.22 0 0 1-1.22 1.221H1.218A1.22 1.22 0 0 1 0 21.265V7.72c0-.674.546-1.219 1.22-1.219h13.543a1.22 1.22 0 0 1 1.221 1.22v13.543z"/>
        <path fill="#FFF" d="M9.735 12.91V9.418H6.369v3.494l-3.495-.006v3.36h3.495v3.496h3.366v-3.497h3.494V12.91z"/>
    </g>
</svg>
