<svg width="154" height="40" viewBox="0 0 154 40" fill="none" xmlns="http://www.w3.org/2000/svg">
<path fill-rule="evenodd" clip-rule="evenodd" d="M57.2635 30.9303L50.6419 23.0249V30.9303H47.1284V7.1465H50.6419V21.8425L56.7568 14.3087H61.2838L54.3919 22.2141L61.8243 30.8965H57.2635V30.9303ZM69.7973 23.4979C68.9189 23.4979 66.0811 23.6668 66.0811 26.0316C66.0811 26.5046 66.2838 28.0249 69.0541 28.0249C69.4595 28.0249 73.0406 27.9573 74.3581 25.7952V25.7614V24.4438L74.3243 24.41C72.6689 23.8019 70.8446 23.4979 69.7973 23.4979ZM68.9189 31.2681C65.0338 31.2681 62.6014 29.2749 62.6014 26.0316C62.6014 22.6533 65.2027 20.7276 69.7297 20.7276C71.25 20.7276 72.7703 21.0992 74.2906 21.8087L74.3919 21.8425V20.9641C74.3919 18.633 72.7027 17.1127 70.1014 17.1127C68.3108 17.1127 66.4189 18.0249 65.3716 19.3762L63.3446 17.2141C65.4054 14.3425 68.6149 13.937 70.3378 13.937C75.2027 13.937 77.9054 16.437 77.9054 20.9641V30.8965H74.3919V28.937L74.2568 29.106C72.7703 30.9979 70.2703 31.2681 68.9189 31.2681ZM81.9257 30.9303V7.1465H85.473V30.9303H81.9257ZM97.2297 17.0452C94.527 17.0452 92.5676 18.7006 92.196 21.2343V21.3019H102.095V21.2343C101.689 18.633 99.8649 17.0452 97.2297 17.0452ZM97.2297 31.2681C92.2973 31.2681 88.6824 27.6195 88.6824 22.5519C88.6824 20.0181 89.5608 17.856 91.1824 16.2681C92.7365 14.7816 94.8649 13.937 97.2297 13.937C102.128 13.937 105.541 17.4843 105.541 22.5519C105.541 22.9235 105.541 23.4979 105.507 23.8357H92.196V23.9033C92.5676 26.5046 94.5946 28.16 97.3987 28.16C99.3581 28.16 101.149 27.2141 101.993 25.7952C102.534 26.0654 103.176 26.3357 103.784 26.5722C104.155 26.7411 104.527 26.91 104.899 27.0452C103.514 29.7141 100.676 31.2681 97.2297 31.2681ZM108.581 30.9303V14.3087H112.095V30.8965H108.581V30.9303ZM123.919 17.4168C120.98 17.4168 118.818 19.5789 118.818 22.5857C118.818 25.6262 120.946 27.856 123.919 27.856C126.487 27.856 129.122 26.0316 129.122 22.5857C129.122 19.2073 126.453 17.4168 123.919 17.4168ZM123.446 31.2681C118.716 31.2681 115.169 27.5519 115.169 22.6195C115.169 17.5857 118.649 13.937 123.446 13.937C125.946 13.937 128.108 14.9843 129.054 16.6735L129.189 16.91V7.11272H132.703V30.8965H129.189V28.2614L129.054 28.4979C128.074 30.187 125.878 31.2681 123.446 31.2681ZM144.662 17.4506C141.689 17.4506 139.527 19.6127 139.527 22.5857C139.527 25.6262 141.689 27.856 144.662 27.856C147.669 27.856 149.831 25.6262 149.831 22.5857C149.831 19.5789 147.669 17.4506 144.662 17.4506ZM144.662 31.2681C142.331 31.2681 140.169 30.4235 138.581 28.9033C136.926 27.3154 136.014 25.0519 136.014 22.5857C136.014 17.5857 139.662 13.9708 144.662 13.9708C149.696 13.9708 153.378 17.5857 153.378 22.5857C153.378 25.0857 152.466 27.3154 150.811 28.9033C149.189 30.4235 147.027 31.2681 144.662 31.2681ZM110.338 11.1668C109.02 11.1668 107.939 10.1533 107.939 8.90326C107.939 7.65326 109.02 6.63975 110.338 6.63975C111.655 6.63975 112.703 7.61948 112.703 8.90326C112.703 10.187 111.689 11.1668 110.338 11.1668Z" fill="#462DE0"/>
<path fill-rule="evenodd" clip-rule="evenodd" d="M33.5473 13.2432V17.6014L20.9122 10.3378L26.5203 7.09459L31.723 10.1014C32.8378 10.7432 33.5473 11.9595 33.5473 13.2432ZM2.83784 22.3986L15.473 29.6959L9.86486 32.9392L4.66216 29.9324C3.5473 29.2905 2.83784 28.0743 2.83784 26.7905V22.3986ZM11.1824 24.0878V17.5L23.8851 24.8311L18.2095 28.1081L11.1824 24.0878ZM18.2095 11.8919L25.2365 15.9459V22.5L12.5338 15.1689L18.2095 11.8919ZM18.2095 2.87162C18.8514 2.87162 19.4932 3.04054 20.0338 3.34459L23.8176 5.54054L11.1824 12.8378V6.38514L16.4189 3.37838C16.9257 3.04054 17.5676 2.87162 18.2095 2.87162ZM4.66216 10.1014L8.44595 7.90541V22.5L2.83784 19.2905V13.2432C2.83784 11.9595 3.5473 10.7432 4.66216 10.1014ZM25.2365 33.6486L20 36.6554C19.4595 36.9595 18.8176 37.1284 18.1757 37.1284C17.5338 37.1284 16.8919 36.9595 16.3514 36.6554L12.5676 34.4595L25.2027 27.1622L25.2365 33.6486ZM31.723 29.9324L27.9392 32.0946V17.5L33.5473 20.7095V26.7568C33.5473 28.0743 32.8378 29.2905 31.723 29.9324ZM33.1419 7.63514L21.4527 0.878378C20.473 0.304054 19.3243 0 18.2095 0C17.0608 0 15.9459 0.304054 14.9662 0.878378L3.27703 7.63514C1.25 8.78378 0 10.9459 0 13.2432V26.7568C0 29.0541 1.25 31.2162 3.24324 32.3649L14.9324 39.1216C15.9122 39.6959 17.027 40 18.1757 40C19.3243 40 20.4392 39.6959 21.4189 39.1216L33.1081 32.3649C35.1013 31.2162 36.3513 29.0541 36.3513 26.7568V13.2432C36.3851 10.9459 35.1689 8.78378 33.1419 7.63514Z" fill="#462DE0"/>
</svg>
