<?xml version="1.0" standalone="no"?>
<!DOCTYPE svg PUBLIC "-//W3C//DTD SVG 20010904//EN"
 "http://www.w3.org/TR/2001/REC-SVG-20010904/DTD/svg10.dtd">
<svg version="1.0" xmlns="http://www.w3.org/2000/svg"
 width="500.000000pt" height="500.000000pt" viewBox="0 0 500.000000 500.000000"
 preserveAspectRatio="xMidYMid meet">

<g transform="translate(0.000000,500.000000) scale(0.100000,-0.100000)"
fill="#000000" stroke="none">
<path d="M898 2972 l-67 -17 24 -22 25 -21 0 -316 0 -315 -26 -20 -27 -21 109
1 c60 0 103 3 96 6 -24 10 -42 62 -42 126 0 55 3 67 25 87 14 13 26 22 28 19
2 -2 30 -47 62 -99 93 -153 63 -140 309 -139 116 1 201 4 188 6 -49 10 -52 35
-52 404 l0 341 -22 -5 c-13 -3 -49 -11 -80 -18 -53 -11 -79 -29 -43 -29 31 0
35 -39 35 -342 0 -344 -1 -348 -68 -348 -49 1 -70 19 -137 122 -62 96 -78 109
-145 118 l-45 5 90 91 c50 51 109 101 133 113 23 12 42 24 42 26 0 3 -41 5
-92 5 -88 0 -90 -1 -75 -18 10 -10 17 -26 17 -35 0 -25 -40 -83 -109 -157
l-60 -65 -1 268 c0 207 -3 267 -12 266 -7 0 -43 -8 -80 -17z"/>
<path d="M3790 2860 l0 -130 190 0 c105 0 190 2 190 5 0 3 -16 31 -35 61 -39
60 -41 71 -22 99 7 11 24 37 36 58 l23 37 -191 0 -191 0 0 -130z"/>
<path d="M2692 2913 c-31 -28 -35 -56 -11 -86 45 -59 135 -12 109 57 -17 45
-64 58 -98 29z"/>
<path d="M3508 2740 c-63 -11 -136 -68 -170 -134 -26 -51 -34 -143 -18 -201
15 -54 78 -128 131 -156 167 -85 364 43 362 236 -1 167 -140 282 -305 255z
m117 -43 c59 -59 84 -206 55 -326 -16 -69 -70 -131 -114 -131 -43 0 -78 28
-107 87 -20 42 -23 63 -23 158 0 95 3 116 23 158 45 92 108 112 166 54z"/>
<path d="M1761 2719 c-93 -48 -113 -169 -27 -169 47 0 58 17 50 83 -6 47 -4
57 15 76 38 38 109 22 136 -30 9 -17 17 -59 18 -92 l2 -61 -35 -9 c-118 -31
-193 -61 -224 -91 -81 -76 -41 -188 71 -203 54 -7 107 12 154 54 32 29 39 32
39 17 1 -51 77 -90 134 -68 20 8 21 24 2 24 -8 0 -18 6 -23 13 -4 6 -10 91
-13 187 -5 191 -13 219 -73 264 -43 32 -167 35 -226 5z m199 -278 c0 -87 -12
-120 -53 -148 -41 -29 -77 -29 -111 -2 -21 17 -26 29 -26 68 0 39 5 52 28 74
23 22 126 73 155 76 4 1 7 -30 7 -68z"/>
<path d="M2100 2703 c32 -30 76 -129 152 -345 l41 -118 37 0 c43 0 33 -20 114
213 62 176 73 200 111 240 31 33 83 37 109 8 15 -17 17 -41 14 -216 l-3 -197
-28 -24 -28 -24 112 0 112 0 -27 21 -26 20 0 225 0 224 -176 0 -177 0 27 -21
c40 -32 40 -36 -64 -314 -10 -27 -21 -57 -23 -65 -6 -19 -2 -27 -71 172 -56
164 -60 198 -23 216 17 8 -7 11 -96 11 l-117 1 30 -27z"/>
<path d="M2860 2703 c23 -21 46 -68 91 -183 137 -353 137 -355 115 -415 -20
-50 -53 -78 -87 -73 -34 5 -46 31 -31 72 10 26 10 41 2 56 -23 43 -110 11
-110 -40 0 -29 26 -76 52 -94 29 -21 107 -21 136 0 33 23 63 89 127 284 99
299 134 378 183 405 25 13 21 14 -63 14 -71 0 -84 -3 -63 -10 47 -18 45 -51
-15 -229 -30 -89 -57 -163 -59 -166 -9 -9 -118 312 -118 347 0 27 5 39 23 47
17 8 -4 11 -96 11 l-117 1 30 -27z"/>
</g>
</svg>
