<?xml version="1.0" standalone="no"?>
<!DOCTYPE svg PUBLIC "-//W3C//DTD SVG 20010904//EN"
 "http://www.w3.org/TR/2001/REC-SVG-20010904/DTD/svg10.dtd">
<svg version="1.0" xmlns="http://www.w3.org/2000/svg"
 width="400.000000pt" height="400.000000pt" viewBox="0 0 400.000000 400.000000"
 preserveAspectRatio="xMidYMid meet">

<g transform="translate(0.000000,400.000000) scale(0.100000,-0.100000)"
fill="#000000" stroke="none">
<path d="M0 2000 l0 -2000 2000 0 2000 0 0 2000 0 2000 -2000 0 -2000 0 0
-2000z m830 185 c0 -118 4 -215 8 -215 13 0 113 121 123 149 7 17 5 28 -6 41
-8 9 -15 20 -15 23 0 4 34 7 75 7 41 0 75 -4 75 -9 0 -5 -19 -20 -42 -34 -24
-14 -70 -53 -103 -88 l-60 -63 30 -6 c52 -11 68 -25 125 -111 67 -100 99 -118
137 -75 23 27 23 30 23 272 l0 245 -24 24 -25 25 27 6 c15 3 43 10 62 15 19 5
38 9 43 9 4 0 7 -129 7 -286 0 -183 4 -292 11 -305 6 -11 20 -24 32 -29 14 -6
-39 -9 -146 -9 -93 -1 -176 3 -186 8 -10 6 -42 50 -71 98 -29 48 -55 90 -57
92 -1 2 -12 -4 -24 -15 -18 -16 -20 -28 -17 -83 3 -47 9 -67 23 -77 10 -8 16
-16 13 -19 -3 -3 -42 -5 -88 -3 l-82 3 21 24 c20 23 21 35 21 277 l0 253 -26
20 -26 20 29 7 c15 3 42 10 58 14 17 5 36 9 43 9 9 1 12 -48 12 -214z m2590
209 c0 -4 -12 -28 -27 -55 l-26 -49 27 -50 27 -50 -155 0 -156 0 0 105 0 105
155 0 c85 0 155 -3 155 -6z m-1142 -60 c32 -22 27 -73 -10 -93 -24 -14 -28
-14 -47 3 -30 27 -29 84 2 96 30 12 30 12 55 -6z m-638 -163 c54 -39 65 -74
69 -229 3 -126 5 -144 22 -156 26 -18 14 -26 -37 -26 -46 0 -74 24 -74 64 0
16 -3 15 -22 -9 -27 -34 -75 -55 -128 -55 -83 0 -129 91 -80 160 22 30 92 64
169 81 l51 11 0 59 c0 50 -4 64 -25 84 -30 30 -68 32 -96 4 -20 -20 -21 -37
-4 -81 9 -22 -19 -50 -49 -50 -33 0 -46 15 -46 56 0 33 63 101 102 109 41 9
122 -3 148 -22z m1345 18 c56 -16 129 -91 145 -149 35 -129 -53 -266 -179
-278 -61 -6 -112 11 -158 51 -106 94 -94 275 23 348 63 38 105 45 169 28z
m-1085 -9 c0 -5 -6 -10 -14 -10 -21 0 -29 -34 -17 -72 13 -46 90 -254 91 -248
0 3 19 57 41 120 53 149 57 175 30 192 -12 7 -21 16 -21 20 0 5 63 8 139 8
l140 0 3 -186 c3 -179 4 -186 26 -204 12 -10 22 -21 22 -24 0 -3 -40 -6 -90
-6 -49 0 -90 2 -90 5 0 2 11 15 25 29 24 25 25 28 25 176 0 85 -5 160 -10 171
-15 28 -70 25 -98 -4 -25 -26 -59 -110 -98 -236 -37 -122 -48 -141 -83 -141
-27 0 -31 5 -47 53 -42 130 -117 307 -139 331 -14 15 -25 29 -25 32 0 2 43 4
95 4 57 0 95 -4 95 -10z m613 3 c4 -3 0 -11 -9 -17 -8 -7 -16 -25 -16 -41 -1
-29 82 -275 92 -275 10 0 90 248 90 278 0 22 -6 32 -20 37 -40 13 -18 25 45
25 67 0 79 -7 46 -27 -28 -18 -71 -114 -140 -315 -33 -97 -67 -190 -75 -207
-32 -61 -85 -77 -143 -41 -36 22 -50 60 -37 99 8 21 16 26 43 26 42 0 62 -25
43 -55 -17 -28 -15 -48 8 -60 28 -15 58 3 76 45 20 50 18 70 -20 170 -19 50
-52 137 -72 195 -24 66 -48 115 -66 133 -15 16 -28 30 -28 33 0 7 176 5 183
-3z"/>
<path d="M1554 1974 c-57 -20 -88 -56 -88 -101 0 -25 7 -41 23 -54 32 -26 56
-24 90 9 30 27 35 48 32 135 -1 31 -1 31 -57 11z"/>
<path d="M2876 2151 c-52 -55 -70 -170 -41 -268 21 -71 49 -103 89 -103 92 0
142 187 86 318 -37 86 -85 105 -134 53z"/>
</g>
</svg>
