<svg version="1.1" id="Layer_1" xmlns:x="ns_extend;" xmlns:i="ns_ai;" xmlns:graph="ns_graphs;" xmlns="http://www.w3.org/2000/svg" xmlns:xlink="http://www.w3.org/1999/xlink" x="0px" y="0px" viewBox="0 0 635 200" style="enable-background:new 0 0 635 200;" xml:space="preserve">
 <style type="text/css">
  .st0{fill:#FFFFFF;}
 </style>
 <metadata>
  <sfw xmlns="ns_sfw;">
   <slices>
   </slices>
   <sliceSourceBounds bottomLeftOrigin="true" height="200" width="634.7" x="0" y="0">
   </sliceSourceBounds>
  </sfw>
 </metadata>
 <g>
  <path class="st0" d="M255.9,101l18.9-23.4H290L272.1,99l18.9,31.4h-15.6l-13.1-22.6l-6.4,7.8v14.9h-13.8V77.6h13.8L255.9,101
		L255.9,101z">
  </path>
  <path class="st0" d="M333.4,110.4c0,13.1-8.6,20.8-21.2,20.8s-21.1-7.7-21.1-20.8s8.6-20.8,21.1-20.8S333.4,97.3,333.4,110.4z
		 M304.7,110.4c0,7.8,2.7,11.1,7.4,11.1s7.5-3.3,7.5-11.1s-2.8-11.1-7.5-11.1S304.7,102.5,304.7,110.4z">
  </path>
  <path class="st0" d="M339.8,90.4h12.2l0.4,8.1c2.4-5.8,7.3-8.9,13.7-8.9c8.2,0,13.8,4.9,13.8,14.2v26.6h-13.6v-23
		c0-5.5-2.3-7.4-5.7-7.4c-3.9,0-7.2,2.6-7.2,9.2v21.2h-13.6L339.8,90.4L339.8,90.4z">
  </path>
  <path class="st0" d="M416.7,100.1h-11.9v16.1c0,3.8,1.9,5.4,5.3,5.4c2.6,0,4.2-0.6,5.8-1.8l1.4,8.4c-2.6,1.8-7.1,3-11.3,3
		c-9.1,0-14.8-3.5-14.9-12.8v-18.3h-6.9v-9.7h6.9v-9l13.6-3.8v12.7h11.9V100.1L416.7,100.1z">
  </path>
  <path class="st0" d="M419.8,110.4c0-13.2,8.6-20.8,21-20.8s19.8,7.9,19.8,19c0,2-0.2,4-0.3,5.3H433c0.8,5.6,3.8,7.8,8.4,7.8
		c4,0,6.3-1.7,7.5-4.6l10.9,3.6c-2.3,6.9-10,10.6-18.4,10.6C428.2,131.2,419.8,123.6,419.8,110.4L419.8,110.4z M433.1,106.6h14.6
		c-0.6-4.8-2.9-7.4-7-7.4S434,101.4,433.1,106.6L433.1,106.6z">
  </path>
  <path class="st0" d="M467.3,90.4h12.2l0.4,8.1c2.4-5.8,7.3-8.9,13.7-8.9c8.2,0,13.8,4.9,13.8,14.2v26.6h-13.6v-23
		c0-5.5-2.3-7.4-5.7-7.4c-3.9,0-7.2,2.6-7.2,9.2v21.2h-13.6L467.3,90.4L467.3,90.4z">
  </path>
  <path class="st0" d="M544.2,100.1h-11.9v16.1c0,3.8,1.9,5.4,5.3,5.4c2.6,0,4.2-0.6,5.8-1.8l1.4,8.4c-2.6,1.8-7.1,3-11.3,3
		c-9.1,0-14.8-3.5-14.9-12.8v-18.3h-6.9v-9.7h6.9v-9l13.6-3.8v12.7h11.9V100.1L544.2,100.1z">
  </path>
  <path class="st0" d="M566.1,123.9c0,4.5-3,7.2-8,7.2s-8-2.7-8-7.2s3-7.3,8-7.3S566.1,119.4,566.1,123.9z">
  </path>
  <path class="st0" d="M591.1,98.9c-3.5,0-6.2,1.5-7.1,6l-11.5-2.7c1.4-7.7,7.8-12.6,19.4-12.6s18.5,5.3,18.5,15.2v14.6
		c0,2.2,1,3.1,2.8,3.1c0.9,0,1.7-0.1,2.3-0.3l-0.8,7.8c-1.5,0.7-3.4,1.1-5.8,1.1c-5,0-8.9-1.9-10.2-6c-2.2,4.1-7.6,6.1-13,6.1
		c-8.2,0-13.4-3.8-13.4-11c0-5.8,3.4-9.6,10.8-11.1l13.8-2.9V105C596.9,101.3,594.7,98.9,591.1,98.9L591.1,98.9z M590,122.4
		c3.6,0,6.9-2.1,6.9-6.8v-2.2l-6.5,1.4c-3.2,0.6-4.7,1.8-4.7,4.2S587.6,122.4,590,122.4L590,122.4z">
  </path>
  <path class="st0" d="M618.8,79.3c0-4.6,2.4-6.6,7.9-6.6s7.9,2,7.9,6.6s-2.4,6.5-7.9,6.5S618.8,83.7,618.8,79.3z M633.5,130.4h-13.6
		v-40h13.6V130.4z">
  </path>
 </g>
 <path class="st0" d="M100,0C44.8,0,0,44.8,0,100s44.8,100,100,100s100-44.8,100-100S155.2,0,100,0z M71.5,55.2v44.3
	c0,0.8-0.6,1.6-1.4,1.7c-5.7,1.1-27,4-27-14.2V55.2c0-7.9,6.4-14.2,14.2-14.2C65.2,41,71.5,47.4,71.5,55.2v-0.3V55.2z M114.2,83.7
	v44.4c-0.1,0.8-0.6,1.4-1.4,1.6c-5.7,1.1-27,4-27-14.2V83.7c0-7.9,6.4-14.2,14.2-14.2S114.2,75.8,114.2,83.7v-0.3V83.7z
	 M156.9,112.2v44.4c-0.1,0.8-0.6,1.4-1.4,1.6c-5.7,1.1-27,4-27-14.2v-31.7c0-7.9,6.4-14.2,14.2-14.2S156.9,104.3,156.9,112.2v-0.3
	V112.2z">
 </path>
</svg>