<svg width="163" height="49" viewBox="0 0 163 49" fill="none" xmlns="http://www.w3.org/2000/svg">
<path d="M23.2003 34.5391C22.4841 33.8065 21.426 33.5298 20.433 33.8065L20.612 33.774C22.1259 33.4647 23.591 34.4251 23.9166 35.939C24.2259 37.4529 23.2491 38.9343 21.7515 39.2435L20.3027 39.5366L28.5071 47.9037C29.5815 49.0107 31.3558 49.0269 32.4628 47.9363C33.5697 46.8619 33.586 45.0875 32.4953 43.9806L23.2003 34.5391Z" fill="#0EAD58"/>
<path d="M19.2453 34.506C19.5708 34.1804 19.9778 33.9362 20.4336 33.8223L13.4339 35.2711C11.9199 35.5803 10.9595 37.0617 11.2688 38.5756C11.5781 40.0895 13.0594 41.0499 14.5733 40.7406L20.3034 39.5523L19.229 38.4616C18.1221 37.3547 18.1383 35.5803 19.2453 34.506Z" fill="#20A149"/>
<path d="M23.8991 35.9553C23.5898 34.4414 22.1085 33.481 20.5946 33.7903L20.4155 33.8228C19.976 33.9531 19.569 34.181 19.2272 34.5065C18.1203 35.5809 18.104 37.3553 19.1946 38.4622L20.269 39.5529L21.7178 39.2599C23.2317 38.9343 24.2084 37.4692 23.8991 35.9553Z" fill="#20A149"/>
<path d="M23.8991 35.9553C23.5898 34.4414 22.1085 33.481 20.5946 33.7903L20.4155 33.8228C19.976 33.9531 19.569 34.181 19.2272 34.5065C18.1203 35.5809 18.104 37.3553 19.1946 38.4622L20.269 39.5529L21.7178 39.2599C23.2317 38.9343 24.2084 37.4692 23.8991 35.9553Z" fill="#007C00"/>
<path d="M12.652 25.5859L12.7496 25.7487C13.4984 27.0836 13.0426 28.7765 11.7078 29.5416C10.373 30.3067 8.66373 29.8346 7.89864 28.4998L7.16611 27.2138L1.74536 37.5995C1.02911 38.9669 1.5663 40.6598 2.9337 41.3598C4.30109 42.0761 5.99405 41.5389 6.69403 40.1715L12.8147 28.4347C13.2868 27.5394 13.2217 26.4324 12.652 25.5859Z" fill="#FFCA17"/>
<path d="M11.6413 24.6737C12.0483 24.8854 12.4064 25.1946 12.6669 25.5853L9.11817 19.3832C8.35308 18.0484 6.64384 17.5763 5.309 18.3414C3.97417 19.1065 3.50209 20.8157 4.26718 22.1506L7.16475 27.2295L7.88101 25.8621C8.58098 24.4947 10.2577 23.9575 11.6413 24.6737C11.6251 24.6737 11.6251 24.6737 11.6413 24.6737Z" fill="#FF9F23"/>
<path d="M11.6908 29.5415C13.0256 28.7764 13.4977 27.0672 12.7326 25.7324L12.6349 25.5696C11.7722 24.2998 10.0304 23.958 8.76066 24.8208C8.36998 25.0812 8.06069 25.4393 7.84907 25.8463L7.13281 27.2137L7.86535 28.4997C8.64671 29.8345 10.356 30.3066 11.6908 29.5415Z" fill="#FF9F23"/>
<path d="M11.6908 29.5415C13.0256 28.7764 13.4977 27.0672 12.7326 25.7324L12.6349 25.5696C11.7722 24.2998 10.0304 23.958 8.76066 24.8208C8.36998 25.0812 8.06069 25.4393 7.84907 25.8463L7.13281 27.2137L7.86535 28.4997C8.64671 29.8345 10.356 30.3066 11.6908 29.5415Z" fill="#FF8400"/>
<path d="M15.4029 16.6816C16.4121 16.8443 17.4377 16.4537 18.0725 15.6397L17.9423 15.77C16.8842 16.8932 15.1261 16.9583 13.9866 15.9165C12.8797 14.8746 12.7983 13.1491 13.8076 12.0096L14.8006 10.919L3.25909 8.98182C1.74519 8.72136 0.296401 9.74691 0.0359453 11.2771C-0.208232 12.791 0.817314 14.2398 2.33122 14.484L15.4029 16.6816Z" fill="#FF8400"/>
<path d="M18.6256 14.4023C18.5442 14.8581 18.3651 15.2976 18.0721 15.6557L22.8905 10.3652C23.9161 9.20942 23.8184 7.45135 22.6626 6.4258C21.5232 5.41653 19.7976 5.49792 18.7558 6.60486L14.8164 10.9187L16.3303 11.1791C17.8442 11.4396 18.8698 12.8721 18.6256 14.4023Z" fill="#FF6400"/>
<path d="M14.0022 15.9663C15.1417 17.0081 16.9161 16.9267 17.9416 15.7872L18.0719 15.657C19.016 14.4361 18.8044 12.678 17.5835 11.7338C17.2254 11.4571 16.7859 11.2618 16.3301 11.1804L14.8162 10.9199L13.8232 12.0106C12.7813 13.1664 12.8627 14.9244 14.0022 15.9663Z" fill="#FF6400"/>
<path d="M14.0022 15.9663C15.1417 17.0081 16.9161 16.9267 17.9416 15.7872L18.0719 15.657C19.016 14.4361 18.8044 12.678 17.5835 11.7338C17.2254 11.4571 16.7859 11.2618 16.3301 11.1804L14.8162 10.9199L13.8232 12.0106C12.7813 13.1664 12.8627 14.9244 14.0022 15.9663Z" fill="#FF2000"/>
<path d="M27.9206 16.7962L27.9043 16.7637L27.9206 16.7962Z" fill="#6360E6"/>
<path d="M28.832 17.5762C28.9623 17.6413 29.0925 17.7064 29.2227 17.7552L29.0762 17.7064C28.9948 17.6576 28.9134 17.6087 28.832 17.5762Z" fill="#6360E6"/>
<path d="M28.3119 17.2201C28.2793 17.2038 28.263 17.1712 28.2305 17.1387L28.3119 17.2201Z" fill="#6360E6"/>
<path d="M28.1181 17.0087C28.1015 16.9921 28.0849 16.9756 28.0684 16.959C28.0849 16.9921 28.1015 17.0087 28.1181 17.0087Z" fill="#6360E6"/>
<path d="M28.5724 17.3991C28.5233 17.3663 28.4742 17.3335 28.4414 17.3008C28.4578 17.3335 28.5069 17.3663 28.5724 17.3991Z" fill="#6360E6"/>
<path d="M28.8327 17.5775C28.7676 17.5449 28.6862 17.4961 28.6211 17.4473C28.6862 17.4961 28.7513 17.5287 28.8327 17.5775Z" fill="#6360E6"/>
<path d="M27.3517 15.3307C27.3191 14.8912 27.3843 14.4516 27.547 14.0447C28.1331 12.6122 29.7609 11.9285 31.1772 12.4982L32.6585 13.1005L31.0469 2.29159C30.8027 0.793966 29.354 -0.23158 27.8401 0.0451547C26.375 0.305611 25.382 1.65673 25.5448 3.12179L27.3517 15.3307Z" fill="#8B5DFC"/>
<path d="M28.2463 17.1545C28.1971 17.1217 28.1644 17.0726 28.1152 17.0234C28.148 17.0562 28.1971 17.1053 28.2463 17.1545Z" fill="#8B5DFC"/>
<path d="M28.4264 17.3006C28.3936 17.2679 28.3609 17.2515 28.3281 17.2188L28.4264 17.3006Z" fill="#8B5DFC"/>
<path d="M30.5594 17.8705C30.1199 17.9356 29.6479 17.8868 29.2246 17.7403L35.443 20.2635C36.8755 20.8495 38.5034 20.1495 39.0731 18.717C39.6591 17.2845 38.9592 15.6566 37.5429 15.0869L32.6757 13.1172L32.9198 14.6962C33.1315 16.2264 32.0896 17.6426 30.5594 17.8705Z" fill="#6360E6"/>
<path d="M27.3516 15.332C27.3841 15.7716 27.5306 16.1948 27.7585 16.5692C27.5632 16.2436 27.433 15.9018 27.3841 15.5274L27.3516 15.332Z" fill="#8B5DFC"/>
<path d="M27.9043 16.78C27.8555 16.7149 27.8066 16.6498 27.7578 16.5684C27.8066 16.6335 27.8555 16.7149 27.9043 16.78Z" fill="#8B5DFC"/>
<path d="M28.6198 17.4473L28.5547 17.3984L28.6198 17.4473Z" fill="#8B5DFC"/>
<path d="M28.0685 16.9763C28.0194 16.9271 27.9703 16.8616 27.9375 16.8125C27.9703 16.8616 28.0194 16.9108 28.0685 16.9763Z" fill="#8B5DFC"/>
<path d="M27.5453 14.061C27.3825 14.468 27.3174 14.9075 27.3499 15.347L27.3825 15.5424C27.4313 15.9168 27.5616 16.2586 27.7569 16.5842C27.8057 16.6493 27.8546 16.7307 27.9034 16.7958L27.9197 16.8284C27.9685 16.8935 28.0011 16.9423 28.0499 16.9912C28.0662 17.0074 28.0825 17.0237 28.0987 17.04C28.1313 17.0888 28.1801 17.1214 28.229 17.1702C28.2778 17.2191 28.2778 17.2191 28.3104 17.2516C28.3429 17.2842 28.3755 17.3167 28.408 17.333C28.4406 17.3493 28.4894 17.3981 28.5383 17.4307L28.6034 17.4795C28.6685 17.5284 28.7336 17.5609 28.815 17.6098C28.8964 17.6586 28.9778 17.6911 29.0755 17.7237L29.222 17.7725C29.6452 17.919 30.101 17.9679 30.5568 17.9028C32.087 17.6749 33.1451 16.2586 32.9172 14.7447L32.673 13.1657L31.1917 12.5634C29.7592 11.9286 28.1313 12.6285 27.5453 14.061Z" fill="#6360E6"/>
<path d="M27.5453 14.061C27.3825 14.468 27.3174 14.9075 27.3499 15.347L27.3825 15.5424C27.4313 15.9168 27.5616 16.2586 27.7569 16.5842C27.8057 16.6493 27.8546 16.7307 27.9034 16.7958L27.9197 16.8284C27.9685 16.8935 28.0011 16.9423 28.0499 16.9912C28.0662 17.0074 28.0825 17.0237 28.0987 17.04C28.1313 17.0888 28.1801 17.1214 28.229 17.1702C28.2778 17.2191 28.2778 17.2191 28.3104 17.2516C28.3429 17.2842 28.3755 17.3167 28.408 17.333C28.4406 17.3493 28.4894 17.3981 28.5383 17.4307L28.6034 17.4795C28.6685 17.5284 28.7336 17.5609 28.815 17.6098C28.8964 17.6586 28.9778 17.6911 29.0755 17.7237L29.222 17.7725C29.6452 17.919 30.101 17.9679 30.5568 17.9028C32.087 17.6749 33.1451 16.2586 32.9172 14.7447L32.673 13.1657L31.1917 12.5634C29.7592 11.9286 28.1313 12.6285 27.5453 14.061Z" fill="#4D04F1"/>
<path d="M47.7962 21.9074C47.1125 20.5237 45.4358 19.9702 44.0522 20.6539L32.1851 26.5468C31.2735 27.0026 30.6712 27.9304 30.6387 28.956L30.655 28.7769C30.8177 27.2467 32.2014 26.1398 33.7316 26.3026C35.2618 26.4816 36.3687 27.849 36.1896 29.3792L36.0269 30.8606L46.5102 25.6352C47.9265 24.9677 48.4799 23.2911 47.7962 21.9074Z" fill="#359DFF"/>
<path d="M30.9479 30.3075C30.7363 29.9005 30.6386 29.4285 30.6549 28.9727L29.8735 36.0701C29.7107 37.6003 30.8014 38.9839 32.3316 39.163C33.8617 39.3421 35.2454 38.2351 35.4082 36.7049L36.0593 30.8935L34.6919 31.5772C33.3083 32.2446 31.6316 31.6912 30.9479 30.3075Z" fill="#2F72ED"/>
<path d="M33.749 26.3198C32.2188 26.1407 30.8351 27.2477 30.6723 28.7778L30.656 28.9569C30.6398 29.4127 30.7374 29.8848 30.9491 30.2917C31.6328 31.6754 33.3094 32.2289 34.6931 31.5452L36.0605 30.8615L36.2233 29.3801C36.3861 27.8662 35.2791 26.4826 33.749 26.3198Z" fill="#2F72ED"/>
<path d="M33.749 26.3198C32.2188 26.1407 30.8351 27.2477 30.6723 28.7778L30.656 28.9569C30.6398 29.4127 30.7374 29.8848 30.9491 30.2917C31.6328 31.6754 33.3094 32.2289 34.6931 31.5452L36.0605 30.8615L36.2233 29.3801C36.3861 27.8662 35.2791 26.4826 33.749 26.3198Z" fill="#1C48FA"/>
<path d="M134.951 20.5232C133.03 18.7488 130.816 17.8535 128.375 17.8535C125.477 17.8535 122.954 18.9442 120.854 21.0929C116.736 25.3905 116.67 32.1298 120.691 36.5087C122.677 38.6412 125.2 39.7318 128.147 39.7318C129.628 39.7318 131.077 39.4225 132.428 38.8365C133.34 38.4458 134.17 37.9086 134.919 37.2575C134.837 38.5598 134.642 39.569 134.3 40.269C133.893 41.1481 133.144 41.848 132.119 42.3852C130.979 42.955 129.71 43.248 128.424 43.2154C125.428 43.2154 123.345 42.0434 122.075 39.6342L121.912 39.3086H117.533L117.859 40.1551C119.633 44.8921 123.231 47.3013 128.521 47.3013C129.986 47.3176 131.451 47.0734 132.835 46.5688C134.121 46.0967 135.293 45.3642 136.253 44.3875C137.23 43.3945 137.963 42.1736 138.402 40.8388C138.874 39.4551 139.102 37.4203 139.102 34.6367V18.3744H134.951V20.5232ZM133.568 24.0231C134.821 25.3091 135.44 26.9044 135.44 28.9066C135.44 30.8763 134.837 32.4391 133.616 33.6925C132.395 34.9459 130.833 35.5483 128.863 35.5483C126.893 35.5483 125.331 34.9297 124.077 33.6437C122.824 32.3577 122.221 30.8438 122.221 29.0043C122.221 27.1648 122.856 25.5858 124.175 24.1696C125.493 22.7533 127.056 22.0859 129.01 22.0859C130.719 22.0696 132.379 22.7696 133.568 24.0231Z" fill="white"/>
<path d="M159.029 18.3582V20.4418C157.238 18.7163 155.089 17.8535 152.647 17.8535C149.734 17.8535 147.227 18.9442 145.208 21.0767C143.19 23.2091 142.164 25.8137 142.164 28.809C142.164 31.8042 143.173 34.425 145.192 36.5738C147.21 38.7226 149.668 39.8458 152.501 39.8458C154.91 39.8458 157.108 38.9342 159.029 37.1598V39.7969C159.029 39.8295 159.045 39.8458 159.077 39.8458H162.952C162.984 39.8458 163.001 39.8295 163.001 39.7969V18.3582H159.029ZM153.087 35.8738C151.296 35.8738 149.799 35.2064 148.513 33.8065C145.957 31.0391 145.957 26.7904 148.48 24.0068C149.75 22.6231 151.247 21.9394 153.071 21.9394C154.829 21.9069 156.505 22.6394 157.677 23.9417C158.947 25.2928 159.566 26.9206 159.566 28.9229C159.566 30.9252 158.947 32.553 157.645 33.8878C156.343 35.2227 154.861 35.8738 153.087 35.8738Z" fill="white"/>
<path d="M102.915 27.5711C102.915 24.5108 102.117 22.1178 100.555 20.4249C98.9919 18.7319 96.7292 17.8691 93.8479 17.8691C90.755 17.8691 88.2318 18.911 86.3273 20.9621C84.4227 23.0131 83.4785 25.7642 83.4785 29.199C83.4785 32.6826 84.4878 35.4011 86.4575 37.322C88.4272 39.2428 91.1945 40.187 94.6781 40.187C95.9967 40.187 97.3152 40.0242 98.585 39.6823C99.8059 39.3568 100.994 38.9335 102.15 38.4452L102.834 38.1359V33.4965C102.834 33.4965 99.9035 34.7988 98.585 35.3197C97.3315 35.8243 95.9967 36.0848 94.6619 36.1011C93.7665 36.1173 92.8549 35.9708 92.0085 35.6941C91.2596 35.4499 90.5597 35.043 89.9899 34.5221C89.3713 33.9523 88.8993 33.2523 88.6062 32.471C88.297 31.6896 88.1342 30.8594 88.1016 30.0129H102.931L102.915 27.5711ZM93.6851 21.7923C95.313 21.7923 96.5339 22.2155 97.299 23.062C97.9827 23.8271 98.3896 24.8852 98.471 26.2363H88.183C88.3784 25.0968 88.9318 24.0387 89.762 23.2248C90.7225 22.2643 92.0085 21.7923 93.6851 21.7923Z" fill="white"/>
<path d="M110.404 39.9285C109.069 39.9285 107.979 38.8867 107.979 37.5844L107.93 20.2804C107.946 18.9618 109.037 17.92 110.355 17.9363C111.674 17.9037 112.764 18.9618 112.781 20.2641L112.813 37.5682C112.83 38.8704 111.739 39.9123 110.404 39.9285Z" fill="white"/>
<path d="M110.371 11.375C111.723 11.375 112.813 12.4657 112.813 13.8168C112.813 15.1679 111.723 16.2586 110.371 16.2586C109.02 16.2586 107.93 15.1679 107.93 13.8168C107.93 12.4819 109.037 11.375 110.371 11.375Z" fill="white"/>
<path d="M68.6817 35.2562V13.7035C68.6817 13.6384 68.6817 13.5733 68.6654 13.5244V11.3594H63.9772V13.4593C63.9609 13.5407 63.9609 13.6384 63.9609 13.7198C63.9609 13.7523 63.9609 13.8012 63.9609 13.8337V39.57H82.0789V35.2562H68.6817Z" fill="white"/>
</svg>
