<svg fill="none" viewBox="0 0 433 58" xmlns="http://www.w3.org/2000/svg"><g fill="#32284d"><path d="m117.91 43.5106c-2.622 0-4.945-.4495-6.968-1.3486-2.023-.899-3.727-2.1165-5.113-3.6524s-2.454-3.2591-3.203-5.1696c-.712-1.9105-1.068-3.8771-1.068-5.9v-1.1238c0-2.0978.356-4.102 1.068-6.0125.749-1.9479 1.798-3.6711 3.147-5.1695 1.386-1.4984 3.071-2.6785 5.057-3.5401 1.985-.899 4.233-1.3485 6.743-1.3485 3.334 0 6.162.7492 8.484 2.2476 2.323 1.4984 4.102 3.4838 5.339 5.9562 1.236 2.435 1.854 5.0947 1.854 7.9791v3.2591h-27.421v-5.5067h21.521l-3.54 2.4724c0-1.7606-.244-3.2403-.731-4.4391-.449-1.2362-1.142-2.1727-2.079-2.8095-.899-.6368-2.041-.9553-3.427-.9553-1.349 0-2.529.3185-3.54.9553-.974.5994-1.724 1.5359-2.248 2.8095-.524 1.2362-.787 2.8096-.787 4.7201 0 1.7232.244 3.2216.731 4.4952.487 1.2362 1.236 2.1915 2.247 2.8658 1.012.6743 2.323 1.0114 3.934 1.0114 1.423 0 2.585-.2435 3.484-.7305.936-.487 1.592-1.1425 1.966-1.9666h9.328c-.45 2.0977-1.349 3.9708-2.697 5.619-1.311 1.6483-2.997 2.9407-5.057 3.8772-2.023.9365-4.365 1.4048-7.024 1.4048z"/><path d="m149.306 43.3982c-4.495 0-8.035-.9178-10.62-2.7533-2.584-1.8731-3.97-4.4953-4.158-7.8668h8.991c.15.9365.73 1.7419 1.742 2.4162 1.011.6743 2.435 1.0115 4.27 1.0115 1.311 0 2.435-.1873 3.372-.5619.974-.4121 1.461-1.0677 1.461-1.9667 0-.7867-.375-1.4235-1.124-1.9105-.749-.5245-2.117-.8803-4.102-1.0676l-2.135-.2248c-3.971-.4121-6.893-1.4984-8.766-3.2591-1.873-1.7606-2.81-3.9708-2.81-6.6305 0-2.2851.562-4.1581 1.686-5.6191 1.124-1.4984 2.678-2.6222 4.664-3.3715 1.985-.7492 4.252-1.1238 6.799-1.1238 4.158 0 7.511.9178 10.058 2.7534 2.547 1.7981 3.896 4.4016 4.046 7.8105h-8.991c-.15-.9365-.655-1.7232-1.517-2.36-.861-.6743-2.098-1.0114-3.708-1.0114-1.162 0-2.117.206-2.866.6181-.712.412-1.068.9927-1.068 1.7419 0 .7867.337 1.3673 1.012 1.7419.711.3746 1.835.6556 3.371.8429l2.135.2247c3.971.4121 7.024 1.5172 9.159 3.3153 2.173 1.7606 3.26 4.0832 3.26 6.9677 0 2.1352-.581 3.9708-1.742 5.5067-1.124 1.5359-2.754 2.7159-4.889 3.54-2.098.8241-4.608 1.2362-7.53 1.2362z"/><path d="m179.295 43.3982c-4.495 0-8.035-.9178-10.62-2.7533-2.585-1.8731-3.971-4.4953-4.158-7.8668h8.991c.149.9365.73 1.7419 1.742 2.4162 1.011.6743 2.434 1.0115 4.27 1.0115 1.311 0 2.435-.1873 3.371-.5619.974-.4121 1.461-1.0677 1.461-1.9667 0-.7867-.374-1.4235-1.123-1.9105-.75-.5245-2.117-.8803-4.102-1.0676l-2.136-.2248c-3.97-.4121-6.892-1.4984-8.765-3.2591-1.873-1.7606-2.81-3.9708-2.81-6.6305 0-2.2851.562-4.1581 1.686-5.6191 1.124-1.4984 2.678-2.6222 4.664-3.3715 1.985-.7492 4.251-1.1238 6.799-1.1238 4.158 0 7.511.9178 10.058 2.7534 2.547 1.7981 3.896 4.4016 4.046 7.8105h-8.991c-.15-.9365-.655-1.7232-1.517-2.36-.862-.6743-2.098-1.0114-3.709-1.0114-1.161 0-2.116.206-2.865.6181-.712.412-1.068.9927-1.068 1.7419 0 .7867.337 1.3673 1.011 1.7419.712.3746 1.836.6556 3.372.8429l2.135.2247c3.971.4121 7.024 1.5172 9.159 3.3153 2.173 1.7606 3.259 4.0832 3.259 6.9677 0 2.1352-.58 3.9708-1.742 5.5067-1.123 1.5359-2.753 2.7159-4.888 3.54-2.098.8241-4.608 1.2362-7.53 1.2362z"/><path d="m212.633 43.5106c-2.735 0-5.17-.4121-7.305-1.2362s-3.952-1.9667-5.45-3.4277c-1.461-1.4609-2.585-3.1466-3.372-5.0571-.749-1.9105-1.124-3.9521-1.124-6.1249v-1.3485c0-2.2477.394-4.3455 1.18-6.2934.824-1.948 1.986-3.6524 3.484-5.1134 1.499-1.461 3.315-2.6035 5.451-3.4276 2.135-.8242 4.514-1.2362 7.136-1.2362 2.66 0 5.038.412 7.136 1.2362 2.135.8241 3.952 1.9666 5.451 3.4276 1.498 1.461 2.641 3.1654 3.427 5.1134.824 1.9479 1.236 4.0457 1.236 6.2934v1.3485c0 2.1728-.393 4.2144-1.18 6.1249-.749 1.9105-1.873 3.5962-3.371 5.0571-1.461 1.461-3.259 2.6036-5.394 3.4277-2.136.8241-4.57 1.2362-7.305 1.2362zm0-8.541c1.573 0 2.866-.3372 3.877-1.0115 1.049-.6743 1.836-1.6108 2.36-2.8095.525-1.2362.787-2.6223.787-4.1581 0-1.6108-.281-3.0156-.843-4.2144-.525-1.2362-1.311-2.2101-2.36-2.9219-1.049-.7117-2.323-1.0676-3.821-1.0676-1.499 0-2.772.3559-3.821 1.0676-1.049.7118-1.854 1.6857-2.416 2.9219-.525 1.1988-.787 2.6036-.787 4.2144 0 1.5358.262 2.9219.787 4.1581.524 1.1987 1.311 2.1352 2.36 2.8095s2.341 1.0115 3.877 1.0115z"/><path d="m232.349 42.3868v-31.0174h8.091v13.3172h-.449c0-3.2216.412-5.8813 1.236-7.9791.824-2.1352 2.041-3.7273 3.652-4.7762 1.649-1.0489 3.634-1.5734 5.957-1.5734h.449c3.521 0 6.237 1.1801 8.148 3.5401 1.948 2.3225 2.922 5.9 2.922 10.7324v17.7564h-10.227v-18.0373c0-1.4235-.431-2.5848-1.292-3.4838-.825-.9366-1.967-1.4048-3.428-1.4048s-2.641.4682-3.54 1.4048c-.862.899-1.293 2.0977-1.293 3.5962v17.9249z"/><path d="m279.518 43.3982c-4.496 0-8.036-.9178-10.62-2.7533-2.585-1.8731-3.971-4.4953-4.159-7.8668h8.991c.15.9365.73 1.7419 1.742 2.4162 1.011.6743 2.435 1.0115 4.27 1.0115 1.312 0 2.435-.1873 3.372-.5619.974-.4121 1.461-1.0677 1.461-1.9667 0-.7867-.375-1.4235-1.124-1.9105-.749-.5245-2.116-.8803-4.102-1.0676l-2.135-.2248c-3.971-.4121-6.893-1.4984-8.766-3.2591-1.873-1.7606-2.809-3.9708-2.809-6.6305 0-2.2851.561-4.1581 1.685-5.6191 1.124-1.4984 2.679-2.6222 4.664-3.3715 1.985-.7492 4.252-1.1238 6.799-1.1238 4.158 0 7.511.9178 10.058 2.7534 2.548 1.7981 3.896 4.4016 4.046 7.8105h-8.99c-.15-.9365-.656-1.7232-1.518-2.36-.861-.6743-2.097-1.0114-3.708-1.0114-1.161 0-2.117.206-2.866.6181-.712.412-1.068.9927-1.068 1.7419 0 .7867.338 1.3673 1.012 1.7419.712.3746 1.835.6556 3.371.8429l2.136.2247c3.97.4121 7.023 1.5172 9.159 3.3153 2.172 1.7606 3.259 4.0832 3.259 6.9677 0 2.1352-.581 3.9708-1.742 5.5067-1.124 1.5359-2.754 2.7159-4.889 3.54-2.098.8241-4.607 1.2362-7.529 1.2362z"/><path d="m296.281 53.625v-42.2556h8.092v13.3734h-.899c.112-3.0343.711-5.6191 1.798-7.7543 1.124-2.1353 2.641-3.7461 4.551-4.8324 1.911-1.1239 4.102-1.6858 6.575-1.6858 2.135 0 4.064.3934 5.787 1.18 1.723.7493 3.203 1.8356 4.439 3.2591 1.237 1.3861 2.173 3.0343 2.81 4.9448.674 1.9105 1.011 4.0083 1.011 6.2934v1.3486c0 2.2851-.299 4.4016-.899 6.3496-.599 1.9104-1.498 3.5962-2.697 5.0571-1.199 1.4235-2.678 2.5286-4.439 3.3153-1.723.7867-3.709 1.18-5.956 1.18-2.398 0-4.514-.4682-6.35-1.4048-1.835-.9739-3.296-2.4162-4.383-4.3267-1.049-1.9479-1.61-4.3829-1.685-7.3048l2.472 3.0343v20.2288zm17.082-18.6554c1.349 0 2.529-.3372 3.54-1.0115 1.049-.7117 1.855-1.6857 2.417-2.9219.599-1.2362.899-2.641.899-4.2143 0-1.6108-.3-2.9969-.899-4.1581-.562-1.1988-1.349-2.1166-2.36-2.7534-1.012-.6743-2.211-1.0114-3.597-1.0114-1.236 0-2.397.2809-3.484.8428-1.048.5619-1.91 1.3861-2.584 2.4724-.675 1.0864-1.012 2.3975-1.012 3.9334v1.9105c0 1.4609.356 2.7159 1.068 3.7648.712 1.0114 1.611 1.7981 2.697 2.36 1.086.5244 2.191.7867 3.315.7867z"/><path d="m384.861 43.5106c-2.697 0-5.038-.4308-7.023-1.2924-1.986-.8991-3.653-2.0978-5.001-3.5962-1.312-1.4984-2.304-3.2029-2.979-5.1134-.636-1.9105-.955-3.8959-.955-5.9562v-1.1239c0-2.1727.337-4.233 1.012-6.1809.711-1.948 1.742-3.6712 3.09-5.1696 1.349-1.4984 3.016-2.6784 5.001-3.54 1.986-.8616 4.271-1.2924 6.855-1.2924 2.847 0 5.357.5619 7.53 1.6857s3.896 2.6784 5.17 4.6638c1.311 1.948 2.041 4.1956 2.191 6.743h-10.002c-.112-1.2362-.581-2.2851-1.405-3.1467-.786-.8616-1.948-1.2924-3.484-1.2924-1.311 0-2.397.3371-3.259 1.0114-.824.6743-1.442 1.6108-1.854 2.8095-.412 1.1988-.618 2.6223-.618 4.2706 0 1.5358.168 2.9032.506 4.1019.374 1.1987.974 2.1352 1.798 2.8095.861.6369 2.004.9553 3.427.9553 1.049 0 1.93-.1873 2.641-.5619.712-.3746 1.274-.8991 1.686-1.5734.412-.7117.674-1.5359.787-2.4724h10.002c-.15 2.6223-.899 4.9261-2.248 6.9115-1.311 1.9854-3.072 3.54-5.282 4.6639-2.21 1.1238-4.739 1.6857-7.586 1.6857z"/><path d="m417.468 43.5106c-2.622 0-4.945-.4495-6.968-1.3486-2.023-.899-3.727-2.1165-5.113-3.6524s-2.454-3.2591-3.203-5.1696c-.712-1.9105-1.068-3.8771-1.068-5.9v-1.1238c0-2.0978.356-4.102 1.068-6.0125.749-1.9479 1.798-3.6711 3.147-5.1695 1.386-1.4984 3.071-2.6785 5.057-3.5401 1.985-.899 4.233-1.3485 6.743-1.3485 3.334 0 6.162.7492 8.485 2.2476 2.322 1.4984 4.102 3.4838 5.338 5.9562 1.236 2.435 1.854 5.0947 1.854 7.9791v3.2591h-27.421v-5.5067h21.521l-3.54 2.4724c0-1.7606-.244-3.2403-.731-4.4391-.449-1.2362-1.142-2.1727-2.079-2.8095-.899-.6368-2.041-.9553-3.427-.9553-1.349 0-2.529.3185-3.54.9553-.974.5994-1.723 1.5359-2.248 2.8095-.524 1.2362-.787 2.8096-.787 4.7201 0 1.7232.244 3.2216.731 4.4952.487 1.2362 1.236 2.1915 2.248 2.8658 1.011.6743 2.322 1.0114 3.933 1.0114 1.423 0 2.585-.2435 3.484-.7305.936-.487 1.592-1.1425 1.966-1.9666h9.328c-.449 2.0977-1.348 3.9708-2.697 5.619-1.311 1.6483-2.997 2.9407-5.057 3.8772-2.023.9365-4.364 1.4048-7.024 1.4048z"/><path d="m75.051 9.94812h10.415v32.43888h-10.415z"/><path d="m75.051 33.1873h25.889v9.1996l-25.889.0001z"/><path d="m366.575 10.8472v15.5552h-10.002v-.777c0-1.5359-.337-2.847-1.011-3.9334-.674-1.0863-1.536-1.9105-2.585-2.4724-1.086-.5619-2.247-.8428-3.484-.8428-1.386 0-2.584.3371-3.596 1.0114-1.011.6368-1.798 1.5546-2.36 2.7534-.599 1.1612-.899 2.5473-.899 4.1581 0 .0343 0 .0685.001.1027h-10.228v-.777c0-2.2851.338-4.3829 1.012-6.2934.637-1.9105 1.573-3.5588 2.809-4.9448 1.237-1.4235 2.716-2.5099 4.439-3.2591 1.724-.7866 3.653-1.17998 5.788-1.17998 2.472 0 4.664.56188 6.574 1.68568 1.911 1.0864 3.428 2.6972 4.552 4.8325.35.6885.65 1.4239.899 2.2059v-7.825z"/><path d="m366.575 41.9576v-15.5552h-10.002v.777c0 1.5358-.337 2.847-1.011 3.9333-.674 1.0864-1.536 1.9105-2.585 2.4724-1.086.5619-2.247.8429-3.484.8429-1.386 0-2.584-.3372-3.596-1.0115-1.011-.6368-1.798-1.5546-2.36-2.7533-.599-1.1613-.899-2.5473-.899-4.1581 0-.0343 0-.0686.001-.1027h-10.228v.777c0 2.2851.338 4.3829 1.012 6.2933.637 1.9105 1.573 3.5588 2.809 4.9448 1.237 1.4235 2.716 2.5099 4.439 3.2591 1.724.7867 3.653 1.18 5.788 1.18 2.472 0 4.664-.5619 6.574-1.6857 1.911-1.0864 3.428-2.6972 4.552-4.8324.35-.6886.65-1.4239.899-2.206v7.8251z"/><path d="m366.575 42.6546v-31.7794h-8.091v13.3734h.899c-.112-3.0343-.712-5.6191-1.798-7.7543-1.124-2.1353-2.641-3.7461-4.552-4.8325-1.91-1.1238-4.102-1.68568-6.574-1.68568-2.135 0-4.064.39338-5.788 1.17998-1.723.7492-3.202 1.8356-4.439 3.2591-1.236 1.386-2.172 3.0343-2.809 4.9448-.674 1.9105-1.012 4.0083-1.012 6.2934v1.3486c0 2.2851.3 4.4016.899 6.3495.6 1.9105 1.499 3.5963 2.698 5.0572 1.198 1.4235 2.678 2.5286 4.439 3.3153 1.723.7867 3.708 1.18 5.956 1.18 2.397 0 4.514-.4683 6.349-1.4048 1.836-.974 3.297-2.4162 4.383-4.3267 1.049-1.9479 1.611-4.3829 1.686-7.3048l-2.472 3.0343v9.7526zm-17.082-8.1792c-1.348 0-2.528-.3372-3.54-1.0115-1.049-.7117-1.854-1.6857-2.416-2.9219-.599-1.2362-.899-2.641-.899-4.2143 0-1.6108.3-2.9969.899-4.1582.562-1.1987 1.349-2.1165 2.36-2.7533 1.012-.6743 2.21-1.0114 3.596-1.0114 1.237 0 2.398.2809 3.484.8428 1.049.5619 1.911 1.3861 2.585 2.4724.674 1.0864 1.011 2.3975 1.011 3.9334v1.9105c0 1.4609-.355 2.7159-1.067 3.7648-.712 1.0114-1.611 1.7981-2.697 2.36-1.087.5244-2.192.7867-3.316.7867z"/></g><path clip-rule="evenodd" d="m37.8851.743286h18.8209c.7889 0 1.5455.313374 2.1033.871194.5578.55781.8712 1.31437.8712 2.10323v44.61639c0 .7889-.3134 1.5454-.8712 2.1032s-1.3144.8712-2.1033.8712h-17.1267c-1.577.0036-3.0886.6301-4.2058 1.743l-3.3344 3.3344c-.0134.0134-.029.0223-.0446.0312s-.0312.0178-.0446.0312c-.2558.235-.5413.4462-.8745.583h-.0059c-.7257.3004-1.5409.3004-2.2665 0h-.006c-.3331-.1368-.6187-.345-.8745-.583-.0134-.0134-.029-.0223-.0446-.0312s-.0312-.0178-.0446-.0312l-3.3343-3.3344c-1.1172-1.1129-2.6289-1.7394-4.2059-1.743h-17.12672c-.78887 0-1.54542-.3134-2.10324-.8712-.557809-.5578-.871184-1.3143-.871184-2.1032v-44.61639c0-.78886.313375-1.54542.871184-2.10323.55782-.55782 1.31437-.871194 2.10324-.871194h18.82102c2.2023.007459 6.3229 1.834524 7.9488 3.320054 1.6259-1.48553 5.7465-3.312595 7.9489-3.320054zm-6.4596 13.508814c-.6017-1.2461-2.3767-1.2461-2.9784 0l-3.3246 6.8847c-.4059.8407-1.0845 1.5193-1.9252 1.9252l-6.8847 3.3246c-1.2462.6017-1.2462 2.3767 0 2.9784l6.8847 3.3246c.8407.4059 1.5193 1.0845 1.9252 1.9252l3.3246 6.8847c.6017 1.2462 2.3767 1.2462 2.9784 0l3.3246-6.8847c.4059-.8407 1.0845-1.5193 1.9252-1.9252l6.8847-3.3246c1.2462-.6017 1.2462-2.3767 0-2.9784l-6.8847-3.3246c-.8407-.4059-1.5193-1.0845-1.9252-1.9252z" fill="#5864fb" fill-rule="evenodd"/></svg>