<svg xmlns="http://www.w3.org/2000/svg" width="595.563" height="92.291" viewBox="0 0 595.563 92.291">
  <g id="Group_65" data-name="Group 65" transform="translate(21289.258 8252.672)">
    <path id="Path_147" data-name="Path 147" d="M34.017-118.981H21.742v-78.837l12.275-2.84Zm27.161,0H48.9V-174.69l12.275-2.834ZM47.33-194.835a7.415,7.415,0,0,1,2.282-5.429,7.6,7.6,0,0,1,5.586-2.282,7.414,7.414,0,0,1,5.429,2.282,7.415,7.415,0,0,1,2.282,5.429,7.6,7.6,0,0,1-2.282,5.587,7.414,7.414,0,0,1-5.429,2.282,7.221,7.221,0,0,1-5.508-2.361A7.222,7.222,0,0,1,47.33-194.835Zm44.157,75.854-22.457-55.8,11.756-2.748L98.568-133.3l17.94-44.222,11.684,2.748-22.542,55.8Zm98.92-23.921H144.456a13.483,13.483,0,0,0,5.823,10.229,20.423,20.423,0,0,0,12.432,3.934q11.173,0,16.681-6.924l7.081,7.711q-9.442,9.915-24.706,9.915a28.914,28.914,0,0,1-21.087-8.341q-8.5-8.341-8.5-22.032,0-13.377,8.655-21.718a29.063,29.063,0,0,1,20.93-8.341q12.274,0,20.458,7.4t8.183,19.672Zm-12.275-9.757q0-7.082-4.485-11.174a16.5,16.5,0,0,0-11.566-4.092,19.1,19.1,0,0,0-12.353,4.249,13.5,13.5,0,0,0-5.272,11.016Zm43.055,34.622a40.464,40.464,0,0,1-25.493-8.813l5.98-9.6q10.071,7.711,19.828,7.711a10.1,10.1,0,0,0,6.531-1.967,6.11,6.11,0,0,0,2.439-4.957q0-4.406-11.645-7.869-.315-.157-.708-.315a1.8,1.8,0,0,0-.551-.157q-18.254-4.879-18.254-16.524a15.754,15.754,0,0,1,6.216-13.062q6.216-4.879,16.445-4.879a34.483,34.483,0,0,1,19.2,5.98l-4.564,9.128a27.5,27.5,0,0,0-15.579-4.721q-9.914,0-9.914,6.295a4.148,4.148,0,0,0,1.967,3.856,25.041,25.041,0,0,0,6.531,2.282,109.535,109.535,0,0,1,11.645,3.777,38.2,38.2,0,0,1,5.508,2.99q5.98,4.092,5.98,12.433a16.582,16.582,0,0,1-6.059,13.3Q230.629-118.037,221.187-118.037Zm86.96-24.865H262.2a13.484,13.484,0,0,0,5.823,10.229,20.423,20.423,0,0,0,12.432,3.934q11.173,0,16.681-6.924l7.081,7.711q-9.442,9.915-24.706,9.915a28.914,28.914,0,0,1-21.087-8.341q-8.5-8.341-8.5-22.032,0-13.377,8.655-21.718a29.063,29.063,0,0,1,20.93-8.341q12.274,0,20.458,7.4t8.183,19.672Zm-12.275-9.757q0-7.082-4.485-11.174a16.5,16.5,0,0,0-11.566-4.092,19.1,19.1,0,0,0-12.353,4.249,13.5,13.5,0,0,0-5.272,11.016Zm43.055,34.622a40.464,40.464,0,0,1-25.493-8.813l5.98-9.6q10.071,7.711,19.828,7.711a10.1,10.1,0,0,0,6.531-1.967,6.11,6.11,0,0,0,2.439-4.957q0-4.406-11.645-7.869-.315-.157-.708-.315a1.8,1.8,0,0,0-.551-.157q-18.254-4.879-18.254-16.524a15.754,15.754,0,0,1,6.216-13.062q6.216-4.879,16.445-4.879a34.483,34.483,0,0,1,19.2,5.98l-4.564,9.128a27.5,27.5,0,0,0-15.579-4.721q-9.914,0-9.914,6.295a4.148,4.148,0,0,0,1.967,3.856,25.041,25.041,0,0,0,6.531,2.282A109.538,109.538,0,0,1,349-151.872a38.205,38.205,0,0,1,5.508,2.99q5.98,4.092,5.98,12.433a16.582,16.582,0,0,1-6.059,13.3Q348.37-118.037,338.928-118.037Zm52.655,0a40.465,40.465,0,0,1-25.493-8.813l5.98-9.6q10.071,7.711,19.828,7.711a10.1,10.1,0,0,0,6.531-1.967,6.11,6.11,0,0,0,2.439-4.957q0-4.406-11.645-7.869-.315-.157-.708-.315a1.8,1.8,0,0,0-.551-.157q-18.254-4.879-18.254-16.524a15.754,15.754,0,0,1,6.216-13.062q6.216-4.879,16.445-4.879a34.483,34.483,0,0,1,19.2,5.98L407-163.36a27.5,27.5,0,0,0-15.579-4.721q-9.914,0-9.914,6.295a4.148,4.148,0,0,0,1.967,3.856,25.04,25.04,0,0,0,6.531,2.282,109.535,109.535,0,0,1,11.645,3.777,38.2,38.2,0,0,1,5.508,2.99q5.98,4.092,5.98,12.433a16.582,16.582,0,0,1-6.059,13.3Q401.025-118.037,391.583-118.037Zm44.786-.944H424.095v-55.575l12.274-2.968Zm-13.848-75.854a7.415,7.415,0,0,1,2.282-5.429,7.6,7.6,0,0,1,5.586-2.282,7.415,7.415,0,0,1,5.429,2.282,7.415,7.415,0,0,1,2.282,5.429,7.6,7.6,0,0,1-2.282,5.587,7.415,7.415,0,0,1-5.429,2.282,7.221,7.221,0,0,1-5.508-2.361A7.222,7.222,0,0,1,422.521-194.835Zm55.644,65.782a17.887,17.887,0,0,0,13.3-5.351q5.272-5.351,5.272-13.849T491.463-162.1a17.887,17.887,0,0,0-13.3-5.351,17.629,17.629,0,0,0-13.219,5.351q-5.193,5.351-5.193,13.849t5.193,13.692A17.375,17.375,0,0,0,478.165-129.053Zm0,11.016q-13.219,0-22.031-8.734a29.066,29.066,0,0,1-8.812-21.482,29.066,29.066,0,0,1,8.813-21.481q8.813-8.734,22.031-8.734t22.031,8.734a29.066,29.066,0,0,1,8.812,21.481,29.824,29.824,0,0,1-8.812,21.4Q491.384-118.037,478.165-118.037Zm54.071-.944H519.962V-174.7l12.274-2.824v10.544A21.963,21.963,0,0,1,540.5-175.4a22,22,0,0,1,11.252-3.069q10.229,0,16.209,6.138t5.98,17.468v35.881H561.506v-32.1q0-16.209-13.376-16.209a15.829,15.829,0,0,0-11.33,4.328q-4.564,4.328-4.564,12.2Z" transform="translate(-21311 -8042.345)" fill="#fff"/>
    <path id="Exclusion_3" data-name="Exclusion 3" d="M17.667,35.334A17.667,17.667,0,0,1,5.175,5.175,17.667,17.667,0,0,1,30.16,30.16,17.552,17.552,0,0,1,17.667,35.334ZM12.884,10.327a1,1,0,0,0-1,1V24.256a1,1,0,0,0,1,1,.986.986,0,0,0,.481-.126l11.752-6.463a1,1,0,0,0,0-1.752L13.365,10.453A.987.987,0,0,0,12.884,10.327Z" transform="translate(-20729.029 -8252.672)" fill="#196cff"/>
  </g>
</svg>
