<svg class="svg replaced-svg" height="20px" version="1.1" viewBox="0 0 94 20" width="94px" xmlns="http://www.w3.org/2000/svg" xmlns:xlink="http://www.w3.org/1999/xlink">
<g fill="none" fill-rule="evenodd" id="Header" stroke="none" stroke-width="1">
<g id="Header/Knowledge-base" transform="translate(-20.000000, -20.000000)">
<g id="Lodgify-Logo" transform="translate(20.000000, 20.000000)">
<g class="logo-text" fill="#333333" fill-rule="nonzero" transform="translate(30.000000, 4.000000)">
<path d="M0,1.19230769 L2.71000855,1.19230769 L2.71000855,8.6510989 L7.28143713,8.6510989 L7.28143713,10.8076923 L0,10.8076923 L0,1.19230769 Z M13.1804962,11 C12.1676596,11 11.2574891,10.7848007 10.4499572,10.3543956 C9.64242539,9.92399052 9.00827148,9.32875838 8.54747648,8.56868132 C8.08668147,7.80860426 7.85628743,6.95238571 7.85628743,6 C7.85628743,5.04761429 8.08668147,4.19139574 8.54747648,3.43131868 C9.00827148,2.67124162 9.64242539,2.07600948 10.4499572,1.6456044 C11.2574891,1.21519931 12.1676596,1 13.1804962,1 C14.1933327,1 15.1035032,1.21519931 15.9110351,1.6456044 C16.7185669,2.07600948 17.3527208,2.67124162 17.8135158,3.43131868 C18.2743108,4.19139574 18.5047049,5.04761429 18.5047049,6 C18.5047049,6.95238571 18.2743108,7.80860426 17.8135158,8.56868132 C17.3527208,9.32875838 16.7185669,9.92399052 15.9110351,10.3543956 C15.1035032,10.7848007 14.1933327,11 13.1804962,11 Z M13.1804962,8.74725275 C13.6641028,8.74725275 14.1020796,8.63278503 14.4944397,8.40384615 C14.8867998,8.17490728 15.1970334,7.85210831 15.4251497,7.43543956 C15.653266,7.01877081 15.7673225,6.54029574 15.7673225,6 C15.7673225,5.45970426 15.653266,4.98122919 15.4251497,4.56456044 C15.1970334,4.14789169 14.8867998,3.82509272 14.4944397,3.59615385 C14.1020796,3.36721497 13.6641028,3.25274725 13.1804962,3.25274725 C12.6968895,3.25274725 12.2589127,3.36721497 11.8665526,3.59615385 C11.4741925,3.82509272 11.1639589,4.14789169 10.9358426,4.56456044 C10.7077263,4.98122919 10.5936698,5.45970426 10.5936698,6 C10.5936698,6.54029574 10.7077263,7.01877081 10.9358426,7.43543956 C11.1639589,7.85210831 11.4741925,8.17490728 11.8665526,8.40384615 C12.2589127,8.63278503 12.6968895,8.74725275 13.1804962,8.74725275 Z M19.9281437,1.19230769 L24.4585115,1.19230769 C25.5078467,1.19230769 26.4385474,1.38919217 27.2506416,1.78296703 C28.0627357,2.1767419 28.6923274,2.73534437 29.1394354,3.45879121 C29.5865434,4.18223805 29.8100941,5.02929918 29.8100941,6 C29.8100941,6.97070082 29.5865434,7.81776195 29.1394354,8.54120879 C28.6923274,9.26465563 28.0627357,9.8232581 27.2506416,10.217033 C26.4385474,10.6108078 25.5078467,10.8076923 24.4585115,10.8076923 L19.9281437,10.8076923 L19.9281437,1.19230769 Z M24.3490163,8.63736264 C25.1702351,8.63736264 25.8294814,8.40384849 26.326775,7.93681319 C26.8240686,7.46977788 27.0727117,6.82417995 27.0727117,6 C27.0727117,5.17582005 26.8240686,4.53022212 26.326775,4.06318681 C25.8294814,3.59615151 25.1702351,3.36263736 24.3490163,3.36263736 L22.6381523,3.36263736 L22.6381523,8.63736264 L24.3490163,8.63736264 Z M37.6526946,5.79395604 L40.0479042,5.79395604 L40.0479042,9.77747253 C39.500425,10.1712474 38.8708333,10.4734422 38.1591104,10.6840659 C37.4473874,10.8946897 36.7356751,11 36.0239521,11 C35.0202402,11 34.1169131,10.78709 33.3139435,10.3612637 C32.510974,9.93543743 31.8813824,9.34249464 31.4251497,8.58241758 C30.968917,7.82234052 30.7408041,6.96154327 30.7408041,6 C30.7408041,5.03845673 30.968917,4.17765948 31.4251497,3.41758242 C31.8813824,2.65750536 32.5155363,2.06456257 33.3276305,1.63873626 C34.1397246,1.21290996 35.0567385,1 36.0786997,1 C36.9729158,1 37.7758733,1.15109739 38.4875962,1.4532967 C39.1993192,1.75549602 39.7924128,2.19047335 40.2668948,2.75824176 L38.5423439,4.32417582 C37.8944935,3.60988654 37.1189096,3.25274725 36.2155689,3.25274725 C35.39435,3.25274725 34.7328226,3.50228688 34.2309666,4.00137363 C33.7291107,4.50046037 33.4781865,5.1666625 33.4781865,6 C33.4781865,6.53113819 33.5922429,7.00503455 33.8203593,7.4217033 C34.0484756,7.83837205 34.3678337,8.16346037 34.7784431,8.39697802 C35.1890525,8.63049567 35.6589651,8.74725275 36.188195,8.74725275 C36.7083003,8.74725275 37.1964619,8.64194245 37.6526946,8.43131868 L37.6526946,5.79395604 Z M41.7724551,1.19230769 L44.4824636,1.19230769 L44.4824636,10.8076923 L41.7724551,10.8076923 L41.7724551,1.19230769 Z M49.1223268,3.29395604 L49.1223268,5.40934066 L53.3515825,5.40934066 L53.3515825,7.51098901 L49.1223268,7.51098901 L49.1223268,10.8076923 L46.4123182,10.8076923 L46.4123182,1.19230769 L53.9264328,1.19230769 L53.9264328,3.29395604 L49.1223268,3.29395604 Z M60.3319076,7.35989011 L60.3319076,10.8076923 L57.6218991,10.8076923 L57.6218991,7.31868132 L53.9674936,1.19230769 L56.8280582,1.19230769 L59.1000855,5.01098901 L61.3721129,1.19230769 L64,1.19230769 L60.3319076,7.35989011 Z" id="LODGIFY"></path>
</g>
<g class="logo-img-sqb" fill-rule="evenodd">
<polygon fill="#FF3B59" id="Fill-1" points="0 0 0 20 20 20 20 10 10 10 10 0"></polygon>
<polygon fill="#03EBC3" id="Fill-2" points="14 6 20 6 20 0 14 0"></polygon>
</g>
</g>
</g>
</g>
</svg>