<?xml version="1.0" encoding="utf-8"?>
<!-- Generator: Adobe Illustrator 24.2.0, SVG Export Plug-In . SVG Version: 6.00 Build 0)  -->
<svg version="1.1" id="Layer_1" xmlns="http://www.w3.org/2000/svg" xmlns:xlink="http://www.w3.org/1999/xlink" x="0px" y="0px"
	 viewBox="0 0 1000 1000" style="enable-background:new 0 0 1000 1000;" xml:space="preserve">
<style type="text/css">
	.st0{fill:#010101;}
</style>
<g>
	<g>
		<path class="st0" d="M253,494.1c1.6-0.2,3.1-0.2,4.4,0c0.8-1.8,0.9-5,0.2-8.4c-1.1-5.1-2.5-8.2-5.5-7.7s-3.1,4.2-2,9.3
			C250.7,490.1,251.8,492.6,253,494.1L253,494.1z"/>
		<path class="st0" d="M227.4,498.1c2.1,0.9,3.4,1.6,4,1c0.3-0.3,0.2-1-0.3-1.8c-1.1-1.7-3.2-3.5-5.5-4.4c-4.7-2-10.3-1.4-14.6,1.8
			c-1.4,1-2.8,2.5-2.6,3.4c0.1,0.3,0.3,0.5,0.8,0.6c1.2,0.1,5.3-1.9,10-2.2C222.5,496.2,225.2,497.2,227.4,498.1L227.4,498.1z"/>
		<path class="st0" d="M223.1,500.6c-2.8,0.4-4.3,1.4-5.3,2.2c-0.8,0.7-1.4,1.5-1.4,2.1l0.2,0.5l0.5,0.2c0.6,0,2-0.6,2-0.6
			c3.9-1.4,6.4-1.2,9-0.9c1.4,0.2,2.1,0.2,2.4-0.2c0.1-0.1,0.2-0.4-0.1-0.9C229.7,501.9,226.9,500.2,223.1,500.6L223.1,500.6z"/>
		<path class="st0" d="M224.2,504.4c0.8-1.8,0.9-6.2,0.1-9.6c-1.1-5.1-2.7-8-5.7-7.5c-3,0.5-3.1,4.6-2.1,9.7
			c0.6,3.2,1.8,5.4,2.5,6.6C221.5,507.1,223.1,506.1,224.2,504.4L224.2,504.4z"/>
		<path class="st0" d="M244.3,509.6c1.9,0.9,4,0.6,4.6-0.8c0.7-1.4-0.3-3.2-2.2-4.2c-1.9-0.9-4-0.6-4.6,0.8
			C241.5,506.8,242.4,508.7,244.3,509.6"/>
		<path class="st0" d="M256.5,499c-1.5,0-2.8,1.7-2.8,3.8c0,2.1,1.2,3.8,2.7,3.9c1.5,0,2.8-1.7,2.8-3.8
			C259.2,500.7,258,499,256.5,499"/>
		<path class="st0" d="M153.4,536.9c-0.4-0.5-1-0.3-1.6-0.2c-0.4,0.1-0.9,0.2-1.4,0.2c-1.1,0-2.1-0.5-2.6-1.3
			c-0.7-1.1-0.7-2.7,0.1-4.5l0.4-0.8c1.2-2.8,3.3-7.4,1-11.8c-1.7-3.3-4.6-5.4-8-5.8c-3.3-0.4-6.7,0.8-8.8,3.2
			c-3.4,3.7-3.9,8.8-3.3,10.6c0.2,0.7,0.6,0.8,0.9,0.9c0.6,0.1,1.4-0.3,2-1.8l0.2-0.5c0.2-0.8,0.7-2.2,1.4-3.3
			c0.9-1.4,2.2-2.3,3.8-2.7c1.6-0.3,3.3,0,4.7,0.9c2.4,1.6,3.3,4.5,2.3,7.3c-0.5,1.4-1.4,4.2-1.2,6.4c0.4,4.6,3.2,6.4,5.7,6.6
			c2.5,0.1,4.2-1.3,4.6-2.3C153.8,537.4,153.5,537.1,153.4,536.9L153.4,536.9z"/>
		<path class="st0" d="M295.2,528.6c-0.1-0.3-0.7-2.6-1.5-5.2l-1.7-4.6c3.4-5,3.4-9.5,3-12.1c-0.5-3.2-1.8-5.8-4.4-8.6
			c-2.6-2.8-8.1-5.6-15.7-7.8l-4-1.1c0-0.2-0.2-9.4-0.4-13.4c-0.1-2.9-0.4-7.3-1.8-11.8c-1.7-6-4.5-11.2-8.1-14.5
			c9.9-10.3,16.2-21.7,16.1-31.4c0-18.7-23-24.4-51.4-12.7l-6,2.5c0,0-10.9-10.7-11-10.8C175.9,369,74.8,481.3,107.1,508.6l7.1,6
			c-1.8,4.7-2.5,10.2-2,16c0.8,7.5,4.6,14.7,10.9,20.3c6,5.3,13.8,8.6,21.4,8.6c12.6,29,41.3,46.8,75,47.8
			c36.1,1.1,66.5-15.9,79.2-46.3c0.8-2.1,4.4-11.8,4.4-20.3C303.1,532.1,298.3,528.6,295.2,528.6L295.2,528.6z M147.3,551.4
			c-1.1,0.2-2.2,0.3-3.3,0.2c-10.9-0.3-22.7-10.1-23.9-21.8c-1.3-12.9,5.3-22.8,16.9-25.1c1.4-0.3,3.1-0.4,4.9-0.3
			c6.5,0.4,16.2,5.4,18.3,19.6C162.2,536.5,159.1,549.4,147.3,551.4 M135.1,497c-7.3,1.4-13.6,5.5-17.6,11.2
			c-2.3-1.9-6.7-5.7-7.5-7.2c-6.2-11.9,6.8-34.9,15.9-47.9c22.5-32.2,57.8-56.5,74.2-52.1c2.7,0.8,11.5,11,11.5,11
			s-16.3,9.1-31.5,21.7C159.8,449.4,144.4,472.2,135.1,497 M249.7,546.6c0.2-0.1,0.4-0.4,0.4-0.6c0-0.3-0.3-0.6-0.7-0.5
			c0,0-17.1,2.5-33.3-3.4c1.8-5.7,6.4-3.7,13.5-3.1c12.7,0.8,24.2-1.1,32.6-3.5c7.3-2.1,16.9-6.2,24.4-12.1
			c2.5,5.5,3.4,11.6,3.4,11.6s1.9-0.3,3.6,0.7c1.5,0.9,2.7,2.9,1.9,8c-1.6,9.5-5.6,17.2-12.4,24.3c-4.1,4.5-9.2,8.3-14.9,11.1
			c-3,1.6-6.3,3-9.7,4.1c-25.6,8.4-51.8-0.8-60.3-20.6c-0.7-1.5-1.2-3-1.7-4.7c-3.6-13-0.5-28.6,9-38.4v0c0.6-0.6,1.2-1.4,1.2-2.3
			c0-0.8-0.5-1.6-0.9-2.2c-3.3-4.8-14.9-13.1-12.6-29.1c1.7-11.5,11.7-19.6,21.1-19.1l2.4,0.1c4.1,0.2,7.6,0.8,10.9,0.9
			c5.6,0.2,10.6-0.6,16.6-5.5c2-1.7,3.6-3.1,6.3-3.6c0.3,0,1-0.3,2.4-0.2c1.5,0.1,2.8,0.5,4.1,1.3c4.8,3.2,5.5,10.9,5.7,16.5
			c0.1,3.2,0.5,11,0.7,13.2c0.3,5.1,1.6,5.8,4.4,6.7c1.5,0.5,2.9,0.9,5,1.5c6.3,1.8,10.1,3.6,12.4,5.9c1.4,1.4,2.1,3,2.3,4.4
			c0.7,5.4-4.2,12.2-17.4,18.3c-14.4,6.7-31.8,8.4-43.9,7l-4.2-0.5c-9.6-1.3-15.1,11.2-9.4,19.7c3.7,5.5,13.9,9.1,24,9.1
			c23.3,0,41.2-9.9,47.9-18.5l0.5-0.8c0.3-0.5,0.1-0.8-0.4-0.5c-5.4,3.7-29.6,18.5-55.5,14.1c0,0-3.1-0.5-6-1.6
			c-2.3-0.9-7-3.1-7.6-8C236.6,552.7,249.7,546.6,249.7,546.6L249.7,546.6z M216.7,542.7L216.7,542.7L216.7,542.7L216.7,542.7
			L216.7,542.7z M176.8,453c8-9.3,17.9-17.3,26.7-21.8c0.3-0.2,0.6,0.2,0.5,0.5c-0.7,1.3-2.1,4-2.5,6.1c-0.1,0.3,0.3,0.6,0.6,0.4
			c5.5-3.7,15.1-7.8,23.4-8.3c0.4,0,0.5,0.4,0.2,0.7c-1.3,1-2.7,2.3-3.7,3.7c-0.2,0.2,0,0.6,0.3,0.6c5.9,0,14.2,2.1,19.6,5.1
			c0.4,0.2,0.1,0.9-0.3,0.8c-8.2-1.9-21.6-3.3-35.5,0.1c-12.4,3-21.9,7.7-28.8,12.7C176.9,453.7,176.5,453.3,176.8,453L176.8,453z"
			/>
		<path class="st0" d="M873.5,474.7c-12,0-17.5,9-19.9,14.1c-1.6,3.4-1.5,4.4-2.6,4.4c-1.7,0-0.3-2.7,0.5-5.9
			c1.5-6.3,0.4-11.1,0.4-11.1h-17.1v81.9h23.3v-26c2.8,4.7,7.9,9.7,15.7,9.7c16.8,0,25.3-14.3,25.3-33.5
			C899.2,486.5,889,474.7,873.5,474.7L873.5,474.7z M867.1,526.6c-5.3,0-9.3-6.8-9.3-16.2c0-9.2,4-16.2,9.1-16.2
			c6.5,0,9.2,5.9,9.2,16.2C876.2,521.1,873.7,526.6,867.1,526.6"/>
		<path class="st0" d="M410.4,474.7c-10.2,0-15.3,8.1-17.6,13.3c-1.3,2.9-1.7,5.2-2.7,5.2c-1.5,0-0.4-2-1.6-6.4
			c-1.6-5.8-6.4-12-16.7-12c-10.8,0-15.4,9.1-17.6,14.1c-1.5,3.4-1.5,4.4-2.6,4.4c-1.7,0-0.3-2.7,0.5-5.9c1.5-6.3,0.4-11.1,0.4-11.1
			h-17.1v64.2h23.3v-31.9c0-6.3,2.6-14.3,7.2-14.3c5.2,0,6.3,4,6.3,11.4v34.8h23.4v-32c0-5.6,2.3-14.3,7.2-14.3
			c5.3,0,6.2,5.6,6.2,11.4v34.8h23v-37.7C431.8,485.9,425.9,474.7,410.4,474.7L410.4,474.7z M805.9,474.7
			c-10.2,0-15.3,8.1-17.6,13.3c-1.3,2.9-1.7,5.2-2.7,5.2c-1.5,0-0.5-2.5-1.6-6.4c-1.7-5.8-6-12-16.7-12c-10.8,0-15.4,9.1-17.6,14.1
			c-1.5,3.4-1.5,4.4-2.6,4.4c-1.7,0-0.3-2.7,0.5-5.9c1.5-6.3,0.4-11.1,0.4-11.1h-17.1v64.2h23.3v-31.9c0-6.3,2.6-14.3,7.2-14.3
			c5.2,0,6.3,4,6.3,11.4v34.8h23.4v-32c0-5.6,2.3-14.3,7.2-14.3c5.3,0,6.2,5.6,6.2,11.4v34.8h23v-37.7
			C827.3,485.9,821.4,474.7,805.9,474.7L805.9,474.7z M471.6,474.7c-17.8,0-30.7,6.6-30.7,6.6v19.3c0,0,14.1-8.1,25.6-8.1
			c9.2,0,10.3,4.9,9.9,9c0,0-2.6-0.7-10.7-0.7c-19,0-28.6,8.6-28.6,22.5c0,13.1,10.8,18.6,19.9,18.6c13.2,0,19.1-8.9,20.9-13.1
			c1.2-2.9,1.5-4.9,2.6-4.9c1.3,0,0.8,1.4,0.8,4.3c-0.1,5.1,0.1,9,0.9,12.2h17.6v-31.6C499.7,489.1,492.7,474.7,471.6,474.7
			L471.6,474.7z M465.9,525.4c-5.6,1.3-8.5-0.4-8.5-4.1c0-5.1,5.2-7.1,12.7-7.1c3.3,0,6.4,0.3,6.4,0.3
			C476.5,516.6,471.8,524,465.9,525.4 M538.1,456.8h23.3v83.6h-23.3V456.8z M587,508.3c0-5.8,5.4-11,15.2-11
			c10.7,0,19.3,5.2,21.3,6.3v-22.3c0,0-6.8-6.6-23.6-6.6c-17.7,0-32.4,10.3-32.4,32.6c0,22.2,13.3,34.6,32.3,34.6
			c14.8,0,23.7-8.1,23.7-8.1v-21.2c-2.8,1.6-10.6,7-21.2,7C591.1,519.5,587,514.3,587,508.3L587,508.3z M670.7,474.7
			c-13.5,0-18.6,12.8-19.7,15c-1,2.2-1.6,3.5-2.4,3.5c-1.5,0-0.4-2.7,0.1-4.5c1.1-3.3,3.4-11.9,3.4-22.4c0-7.2-1-9.6-1-9.6h-20.1
			v83.6h23.3v-31.9c0-5.2,2.1-14.3,7.9-14.3c4.9,0,6.4,3.6,6.4,10.9v35.4H692v-34C692,490,689.3,474.7,670.7,474.7L670.7,474.7z
			 M699.6,476.3v64.1h23.3v-64.1c0,0-3.9,2.3-11.6,2.3C703.5,478.6,699.6,476.3,699.6,476.3"/>
		<path class="st0" d="M711.2,456.1c7.9,0,14.3,4.2,14.3,9.3c0,5.1-6.4,9.3-14.3,9.3c-7.9,0-14.3-4.2-14.3-9.3
			C696.9,460.3,703.3,456.1,711.2,456.1"/>
		<path class="st0" d="M507.2,476.3v64.1h23.3v-64.1c0,0-3.9,2.3-11.6,2.3L507.2,476.3z"/>
		<path class="st0" d="M518.8,456.1c7.9,0,14.3,4.2,14.3,9.3c0,5.1-6.4,9.3-14.3,9.3c-7.9,0-14.3-4.2-14.3-9.3
			C504.6,460.3,510.9,456.1,518.8,456.1"/>
	</g>
</g>
</svg>
