<?xml version="1.0" encoding="UTF-8"?>
<svg version="1.1" xmlns="http://www.w3.org/2000/svg" width="170" height="170">
<path d="M0 0 C56.1 0 112.2 0 170 0 C170 56.1 170 112.2 170 170 C113.9 170 57.8 170 0 170 C0 113.9 0 57.8 0 0 Z " fill="#FDFEFE" transform="translate(0,0)"/>
<path d="M0 0 C1.87229524 -0.04152398 3.74426648 -0.10276055 5.61523438 -0.18457031 C21.09473976 -0.85037025 21.09473976 -0.85037025 26.4753418 2.7019043 C28.77353543 5.22513381 30.57079813 7.70603899 32.32910156 10.62475586 C33.12445313 11.66889648 33.91980469 12.71303711 34.73925781 13.78881836 C35.28453125 14.60092773 35.82980469 15.41303711 36.39160156 16.24975586 C36.96007812 17.08764648 37.52855469 17.92553711 38.11425781 18.78881836 C38.51515625 19.39467773 38.91605469 20.00053711 39.32910156 20.62475586 C43.61158247 19.08821757 45.73974207 15.8471239 48.32910156 12.31225586 C49.18286337 11.17002605 50.03702479 10.02809481 50.89160156 8.88647461 C51.26414062 8.38075928 51.63667969 7.87504395 52.02050781 7.35400391 C52.45234375 6.78335205 52.88417969 6.2127002 53.32910156 5.62475586 C53.84633789 4.74255371 54.36357422 3.86035156 54.89648438 2.95141602 C58.03590004 -0.05125673 59.81939951 0.05633384 64.03338623 0.05827332 C64.90956604 0.08407974 65.78574585 0.10988617 66.68847656 0.13647461 C67.59285461 0.14354935 68.49723267 0.15062408 69.42901611 0.15791321 C72.31322485 0.18586821 75.19548122 0.24860773 78.07910156 0.31225586 C80.03610474 0.33733735 81.9931384 0.36015078 83.95019531 0.38061523 C88.74391456 0.43569847 93.53617724 0.52197805 98.32910156 0.62475586 C97.65376997 5.57747054 96.78930221 7.77350442 93.26660156 11.37475586 C89.5079247 15.35175461 86.02836078 19.41188479 82.64160156 23.70678711 C79.6535635 27.47716622 76.61665759 31.20673092 73.57910156 34.93725586 C71.16028248 37.90844425 71.16028248 37.90844425 68.75292969 40.88891602 C67.50265809 42.41316688 66.19351539 43.88872837 64.87597656 45.35522461 C63.14130281 47.44513033 63.14130281 47.44513033 63.32128906 49.64428711 C64.6691091 52.29291021 66.4071148 54.15771555 68.45410156 56.31225586 C71.92991549 60.06591698 75.15103471 63.87353688 78.24707031 67.94116211 C81.59493672 72.25632951 85.0702691 76.46821711 88.53515625 80.68969727 C90.1447471 82.6589814 91.73890311 84.63978955 93.32910156 86.62475586 C93.9141748 87.34131348 94.49924805 88.05787109 95.10205078 88.79614258 C95.66037598 89.5014209 96.21870117 90.20669922 96.79394531 90.93334961 C97.3043335 91.56942139 97.81472168 92.20549316 98.34057617 92.86083984 C98.66678955 93.44293213 98.99300293 94.02502441 99.32910156 94.62475586 C98.83410156 96.10975586 98.83410156 96.10975586 98.32910156 97.62475586 C92.79761111 97.87349116 87.26942563 98.05409431 81.73364258 98.17407227 C79.85448469 98.22411427 77.97571139 98.29217671 76.09790039 98.37915039 C60.53113214 99.08165918 60.53113214 99.08165918 55.16967773 95.53442383 C52.87233941 93.00521385 51.09888143 90.54056699 49.32910156 87.62475586 C48.06777066 85.90939453 46.79830461 84.19994921 45.51660156 82.49975586 C44.99453125 81.75467773 44.47246094 81.00959961 43.93457031 80.24194336 C43.40476563 79.70827148 42.87496094 79.17459961 42.32910156 78.62475586 C41.00910156 78.62475586 39.68910156 78.62475586 38.32910156 78.62475586 C36.31393005 80.81477313 34.57884523 82.92602506 32.82910156 85.31225586 C31.88122415 86.56619178 30.93330814 87.82009853 29.98535156 89.07397461 C29.57091797 89.63431396 29.15648437 90.19465332 28.72949219 90.77197266 C28.03629883 91.68910034 28.03629883 91.68910034 27.32910156 92.62475586 C26.8028418 93.51291992 26.27658203 94.40108398 25.734375 95.31616211 C22.64703476 98.27940706 20.92654409 98.19319585 16.77728271 98.1912384 C15.92297668 98.16543198 15.06867065 98.13962555 14.18847656 98.11303711 C13.30629456 98.10596237 12.42411255 98.09888763 11.51519775 98.09159851 C8.70229675 98.06364764 5.89139905 98.00090967 3.07910156 97.93725586 C1.17027618 97.9121738 -0.73858046 97.88936047 -2.64746094 97.86889648 C-7.32270996 97.81381885 -11.99646477 97.7275428 -16.67089844 97.62475586 C-17.23123169 95.73480225 -17.23123169 95.73480225 -17.67089844 93.62475586 C-16.70556641 91.86401367 -16.70556641 91.86401367 -15.16308594 90.07788086 C-14.59477051 89.40571533 -14.02645508 88.7335498 -13.44091797 88.04101562 C-12.81556152 87.3261499 -12.19020508 86.61128418 -11.54589844 85.87475586 C-10.24834913 84.34798492 -8.95149029 82.82062696 -7.65527344 81.29272461 C-6.99076172 80.51719238 -6.32625 79.74166016 -5.64160156 78.94262695 C-2.07765298 74.75083708 1.36784581 70.46345942 4.82226562 66.18139648 C7.16961161 63.27460214 9.52325513 60.38027035 11.95410156 57.54272461 C12.69660156 56.66229492 13.43910156 55.78186523 14.20410156 54.87475586 C15.15929688 53.76874023 15.15929688 53.76874023 16.13378906 52.64038086 C17.48750423 50.74821188 17.48750423 50.74821188 17.32910156 48.76147461 C15.82776516 45.55354098 13.67122437 42.92019908 11.45410156 40.18725586 C10.96232422 39.57108398 10.47054687 38.95491211 9.96386719 38.32006836 C6.65394874 34.19637378 3.26031309 30.14768391 -0.17089844 26.12475586 C-4.11957487 21.49512547 -8.00002913 16.81828608 -11.79589844 12.06225586 C-12.26962891 11.47831055 -12.74335937 10.89436523 -13.23144531 10.29272461 C-17.39902005 5.02323573 -17.39902005 5.02323573 -17.67089844 1.62475586 C-14.69654503 -1.34959755 -4.18848478 0.07257998 0 0 Z " fill="#032040" transform="translate(45.6708984375,36.375244140625)"/>
<path d="M0 0 C0.905793 0.00565979 1.811586 0.01131958 2.74482727 0.01715088 C5.63901536 0.03954884 8.53196715 0.08975108 11.42578125 0.140625 C13.38735192 0.1606856 15.34894198 0.17893714 17.31054688 0.1953125 C22.12026831 0.23942482 26.92906515 0.30847559 31.73828125 0.390625 C31.06294965 5.34333968 30.1984819 7.53937356 26.67578125 11.140625 C22.91710439 15.11762375 19.43754047 19.17775393 16.05078125 23.47265625 C13.06274318 27.24303536 10.02583728 30.97260006 6.98828125 34.703125 C4.56946216 37.67431339 4.56946216 37.67431339 2.16210938 40.65478516 C0.91183778 42.17903602 -0.39730493 43.65459751 -1.71484375 45.12109375 C-3.44951751 47.21099947 -3.44951751 47.21099947 -3.26953125 49.41015625 C-1.92171121 52.05877935 -0.18370552 53.92358469 1.86328125 56.078125 C5.33909518 59.83178612 8.5602144 63.63940602 11.65625 67.70703125 C15.00411641 72.02219865 18.47944879 76.23408625 21.94433594 80.45556641 C23.55392679 82.42485054 25.1480828 84.40565869 26.73828125 86.390625 C27.32335449 87.10718262 27.90842773 87.82374023 28.51123047 88.56201172 C29.34871826 89.6199292 29.34871826 89.6199292 30.203125 90.69921875 C30.71351318 91.33529053 31.22390137 91.9713623 31.74975586 92.62670898 C32.07596924 93.20880127 32.40218262 93.79089355 32.73828125 94.390625 C32.24328125 95.875625 32.24328125 95.875625 31.73828125 97.390625 C26.2067908 97.6393603 20.67860532 97.81996345 15.14282227 97.93994141 C13.26366438 97.98998341 11.38489107 98.05804585 9.50708008 98.14501953 C-6.06902934 98.84794987 -6.06902934 98.84794987 -11.41674805 95.29370117 C-13.7031274 92.7680305 -15.4786104 90.28637373 -17.26171875 87.390625 C-18.55804404 85.73202187 -19.86824442 84.08405447 -21.19921875 82.453125 C-22.97772557 80.13644117 -24.63992306 77.82331853 -26.26171875 75.390625 C-25.17838542 74.03645833 -24.09505208 72.68229167 -23.01171875 71.328125 C-22.29628906 70.42578125 -21.58085938 69.5234375 -20.84375 68.59375 C-18.9439946 66.21431962 -16.99334689 63.88411705 -15.0234375 61.5625 C-14.47397461 60.90386963 -13.92451172 60.24523926 -13.35839844 59.56665039 C-12.26290761 58.25370561 -11.15562362 56.95050085 -10.03613281 55.65795898 C-7.01933659 52.13612619 -7.01933659 52.13612619 -6.21875 47.72265625 C-7.38607808 45.11256312 -8.71145832 43.11355527 -10.51171875 40.890625 C-11.14464844 40.10816406 -11.77757813 39.32570312 -12.4296875 38.51953125 C-14.32468291 36.26381952 -14.32468291 36.26381952 -16.82421875 33.828125 C-20.0009782 30.65136555 -22.92031586 27.23664075 -25.26171875 23.390625 C-25.26171875 19.8714276 -24.71016296 19.35611647 -22.5234375 16.73828125 C-21.95044922 16.04412109 -21.37746094 15.34996094 -20.78710938 14.63476562 C-20.18060547 13.91482422 -19.57410156 13.19488281 -18.94921875 12.453125 C-17.7650799 11.02779644 -16.58146944 9.60202869 -15.3984375 8.17578125 C-14.86951904 7.54551025 -14.34060059 6.91523926 -13.7956543 6.26586914 C-12.18222504 4.43134662 -12.18222504 4.43134662 -11.14453125 2.1784668 C-7.97418775 -0.83196182 -4.19309363 -0.09822192 0 0 Z " fill="#1B87F8" transform="translate(112.26171875,36.609375)"/>
<path d="M0 0 C13.53 0 27.06 0 41 0 C40.67 1.98 40.34 3.96 40 6 C39.01 6.66 38.02 7.32 37 8 C37.33 6.35 37.66 4.7 38 3 C25.13 3 12.26 3 -1 3 C-0.67 2.01 -0.34 1.02 0 0 Z " fill="#3A8EE6" transform="translate(103,37)"/>
<path d="M0 0 C0.66 0.33 1.32 0.66 2 1 C2 5 2 5 0.125 7 C-0.57625 7.66 -1.2775 8.32 -2 9 C-2.68268138 10.32520503 -3.3507041 11.65812182 -4 13 C-5 14 -6 15 -7 16 C-7.33 16.70125 -7.66 17.4025 -8 18.125 C-9 20 -9 20 -12 21 C-12.33 21.99 -12.66 22.98 -13 24 C-13.99 24 -14.98 24 -16 24 C-14.64521204 21.05505665 -13.08708928 18.72178589 -10.99609375 16.25 C-10.42052734 15.5590625 -9.84496094 14.868125 -9.25195312 14.15625 C-8.04069683 12.71682379 -6.827146 11.27932533 -5.61132812 9.84375 C-5.03705078 9.1528125 -4.46277344 8.461875 -3.87109375 7.75 C-3.34443115 7.12609375 -2.81776855 6.5021875 -2.27514648 5.859375 C-0.9276559 3.89451031 -0.42272433 2.32836434 0 0 Z " fill="#1E7CE0" transform="translate(107,83)"/>
<path d="M0 0 C1 2 1 2 0.4375 4.1875 C-1.80372973 8.57251469 -5.04760392 12.10116092 -8.56640625 15.5234375 C-10.2283351 17.14574986 -10.2283351 17.14574986 -12 20 C-12.66 19.67 -13.32 19.34 -14 19 C-12.66895994 16.13909231 -11.16444643 13.77740198 -9.1796875 11.328125 C-8.37724609 10.33232422 -8.37724609 10.33232422 -7.55859375 9.31640625 C-7.00300781 8.63449219 -6.44742188 7.95257813 -5.875 7.25 C-5.03001953 6.20392578 -5.03001953 6.20392578 -4.16796875 5.13671875 C-2.78192264 3.42178035 -1.39252792 1.709676 0 0 Z " fill="#D6F1FE" transform="translate(134,52)"/>
<path d="M0 0 C1.6874269 0.00015917 3.37485866 0.00585622 5.06225586 0.01586914 C6.39189613 0.01799156 6.39189613 0.01799156 7.74839783 0.02015686 C10.59133215 0.02577324 13.43418892 0.03832848 16.27709961 0.05102539 C18.19962452 0.05603828 20.12215065 0.06060155 22.04467773 0.06469727 C26.7680151 0.07574798 31.49129419 0.09302356 36.21459961 0.11352539 C36.21459961 0.44352539 36.21459961 0.77352539 36.21459961 1.11352539 C35.07394043 1.12810791 33.93328125 1.14269043 32.75805664 1.15771484 C28.53475244 1.21559266 24.31198736 1.29282516 20.08911133 1.37597656 C18.25977311 1.40927565 16.43033091 1.43729196 14.60083008 1.45996094 C11.97423904 1.49341616 9.3486052 1.54572502 6.72241211 1.60180664 C5.90153107 1.60819656 5.08065002 1.61458649 4.2348938 1.62117004 C1.68845587 1.65294756 1.68845587 1.65294756 -1.78540039 2.11352539 C-2.77540039 3.59852539 -2.77540039 3.59852539 -3.78540039 5.11352539 C-4.34790039 3.17602539 -4.34790039 3.17602539 -4.78540039 1.11352539 C-3.78540039 0.11352539 -3.78540039 0.11352539 0 0 Z " fill="#303E56" transform="translate(32.785400390625,36.886474609375)"/>
<path d="M0 0 C1.35439668 2.70879335 1.06501451 5.00933268 1 8 C1.99 8 2.98 8 4 8 C4.144375 8.763125 4.28875 9.52625 4.4375 10.3125 C4.9632594 13.08172908 4.9632594 13.08172908 6 16 C6.66 16.33 7.32 16.66 8 17 C7.01 17 6.02 17 5 17 C3.24609375 15.13671875 3.24609375 15.13671875 1.4375 12.6875 C0.83808594 11.88699219 0.23867187 11.08648437 -0.37890625 10.26171875 C-1.61925218 8.53121202 -2.81898198 6.77152703 -4 5 C-2.68 3.35 -1.36 1.7 0 0 Z " fill="#3286E4" transform="translate(90,107)"/>
<path d="M0 0 C0.8214856 2.75197675 1.04631835 3.83402593 0.25 6.6875 C-1 9 -1 9 -4 10 C-4.33 10.99 -4.66 11.98 -5 13 C-7.0625 13.6875 -7.0625 13.6875 -9 14 C-8.41827275 10.0479482 -6.44842259 7.77904947 -3.9375 4.75 C-3.20402344 3.85796875 -2.47054687 2.9659375 -1.71484375 2.046875 C-1.14894531 1.37140625 -0.58304688 0.6959375 0 0 Z " fill="#1A2A48" transform="translate(37,119)"/>
<path d="M0 0 C0.66 0.33 1.32 0.66 2 1 C2 5 2 5 0.125 7 C-0.57625 7.66 -1.2775 8.32 -2 9 C-2.4640625 10.051875 -2.4640625 10.051875 -2.9375 11.125 C-4.42234691 13.74531808 -6.2056545 14.11757511 -9 15 C-7.03524454 11.98269697 -5.11997814 9.14397377 -2.8125 6.375 C-1.09513684 4.12466206 -0.40863658 2.75829694 0 0 Z " fill="#2575CB" transform="translate(107,83)"/>
<path d="M0 0 C1 2 1 2 0.4375 4.3125 C-1.47539467 7.88878134 -3.78248866 9.55189355 -7 12 C-7.66 11.67 -8.32 11.34 -9 11 C-6.03 7.37 -3.06 3.74 0 0 Z " fill="#3B93EA" transform="translate(99,42)"/>
<path d="M0 0 C4 0 4 0 6.3125 2.25 C8 5 8 5 7.75 7.3125 C7.5025 7.869375 7.255 8.42625 7 9 C4.03595495 6.19195732 1.55500981 3.81684226 0 0 Z " fill="#12293D" transform="translate(52,69)"/>
<path d="M0 0 C1 3 1 3 1 5 C0.34 5 -0.32 5 -1 5 C-1.33 5.99 -1.66 6.98 -2 8 C-3.65 8.33 -5.3 8.66 -7 9 C-6.02180976 7.68677212 -5.0424189 6.37443848 -4.0625 5.0625 C-3.51722656 4.33160156 -2.97195312 3.60070313 -2.41015625 2.84765625 C-1 1 -1 1 0 0 Z " fill="#DBF4FE" transform="translate(142,43)"/>
<path d="M0 0 C0.99 0.33 1.98 0.66 3 1 C0.69 3.64 -1.62 6.28 -4 9 C-4.33 7.68 -4.66 6.36 -5 5 C-4.34 5 -3.68 5 -3 5 C-2.5359375 4.0409375 -2.5359375 4.0409375 -2.0625 3.0625 C-1 1 -1 1 0 0 Z " fill="#DDEDF3" transform="translate(45,106)"/>
<path d="M0 0 C1.66666667 1.66666667 3.33333333 3.33333333 5 5 C5.8971875 5.8353125 5.8971875 5.8353125 6.8125 6.6875 C8 8 8 8 8 10 C6.1875 9.8125 6.1875 9.8125 4 9 C1.90241288 6.12552877 0.64758408 3.49695404 0 0 Z " fill="#D4F1FE" transform="translate(92,120)"/>
<path d="M0 0 C0.66 0 1.32 0 2 0 C1.67 1.98 1.34 3.96 1 6 C-0.32 6.33 -1.64 6.66 -3 7 C-2.38722388 4.03824877 -1.74627478 2.61941217 0 0 Z " fill="#233242" transform="translate(31,126)"/>
<path d="M0 0 C0.99 0.33 1.98 0.66 3 1 C0.525 4.465 0.525 4.465 -2 8 C-3 4 -3 4 -2 2 C-1.34 2 -0.68 2 0 2 C0 1.34 0 0.68 0 0 Z " fill="#01255B" transform="translate(102,88)"/>
<path d="M0 0 C0.33 0.99 0.66 1.98 1 3 C-0.40445835 5.2636564 -2.1967913 7.0208685 -4 9 C-4.33 7.68 -4.66 6.36 -5 5 C-4.01 4.67 -3.02 4.34 -2 4 C-2 3.34 -2 2.68 -2 2 C-1.34 2 -0.68 2 0 2 C0 1.34 0 0.68 0 0 Z " fill="#0F253D" transform="translate(74,124)"/>
<path d="M0 0 C1.32 0.66 2.64 1.32 4 2 C4 2.33 4 2.66 4 3 C2.35 3 0.7 3 -1 3 C-1.33 3.99 -1.66 4.98 -2 6 C-2.66 5.67 -3.32 5.34 -4 5 C-2.68 3.35 -1.36 1.7 0 0 Z " fill="#CFE3F0" transform="translate(85,113)"/>
</svg>
