<svg fill="none" height="25" viewBox="0 0 101 25" width="101" xmlns="http://www.w3.org/2000/svg">
<g clip-path="url(#clip0_1_8197)">
<path d="M36.0316 6.03027C34.2857 6.03027 33.0296 6.67085 32.2195 7.92375V6.35056H29.563V18.6503H32.2195V12.0592C32.2195 9.67277 33.4755 8.51722 35.3439 8.51722C37.0427 8.51722 38.0977 9.52519 38.0977 11.3716V18.6534H40.7543V11.1015C40.7543 7.95201 38.8608 6.03341 36.0316 6.03341V6.03027Z" fill="black"></path>
<path d="M53.3459 8.09645C52.338 6.71795 50.9124 6.03027 49.0409 6.03027C47.3452 6.03027 45.9165 6.64573 44.7107 7.89862C43.5049 9.15152 42.9146 10.6776 42.9146 12.4989C42.9146 14.3201 43.5049 15.843 44.7107 17.0991C45.9165 18.3551 47.3421 18.9674 49.0409 18.9674C50.9092 18.9674 52.338 18.2798 53.3459 16.8761V18.6471H56.0024V6.35056H53.3459V8.09645ZM52.2375 15.3281C51.4995 16.066 50.5638 16.4365 49.4585 16.4365C48.3532 16.4365 47.4174 16.066 46.6795 15.3281C45.9416 14.565 45.5742 13.6324 45.5742 12.4989C45.5742 11.3653 45.9416 10.4327 46.6795 9.69476C47.4174 8.93171 48.3532 8.56432 49.4585 8.56432C50.5638 8.56432 51.4995 8.93171 52.2375 9.69476C52.9754 10.4327 53.3428 11.3684 53.3428 12.4989C53.3428 13.6293 52.9754 14.565 52.2375 15.3281Z" fill="black"></path>
<path d="M65.5677 6.03027C63.8218 6.03027 62.5658 6.67085 61.7556 7.92375V6.35056H59.0991V18.6503H61.7556V12.0592C61.7556 9.67277 63.0117 8.51722 64.88 8.51722C66.5788 8.51722 67.6339 9.52519 67.6339 11.3716V18.6534H70.2904V11.1015C70.2904 7.95201 68.3969 6.03341 65.5677 6.03341V6.03027Z" fill="black"></path>
<path d="M82.9292 8.17185C81.9212 6.74625 80.4924 6.03345 78.6492 6.03345C76.9033 6.03345 75.4526 6.6489 74.2468 7.9018C73.041 9.13271 72.4507 10.6337 72.4507 12.3796C72.4507 14.1255 73.041 15.6264 74.2468 16.8824C75.4526 18.1134 76.9033 18.7288 78.6492 18.7288C80.4956 18.7288 81.9212 18.016 82.9292 16.5904V18.0914C82.9292 20.2298 81.5507 21.4858 79.2647 21.4858C77.5188 21.4858 76.313 20.8452 75.6724 19.5923L73.3833 20.9206C74.4415 22.9114 76.3852 23.8974 79.2144 23.8974C80.9603 23.8974 82.4613 23.4044 83.6922 22.3964C84.9231 21.3885 85.5386 19.9597 85.5386 18.0914V6.3506H82.9323V8.17185H82.9292ZM81.7987 15.1334C81.0608 15.8713 80.1251 16.2387 79.0197 16.2387C77.9144 16.2387 76.9787 15.8682 76.2156 15.1334C75.4777 14.3955 75.1103 13.4849 75.1103 12.3796C75.1103 11.2743 75.4777 10.3636 76.2156 9.62571C76.9787 8.88779 77.9144 8.5204 79.0197 8.5204C80.1251 8.5204 81.0608 8.88779 81.7987 9.62571C82.5618 10.3636 82.9292 11.2743 82.9292 12.3796C82.9292 13.4849 82.5618 14.3955 81.7987 15.1334Z" fill="black"></path>
<path d="M99.0378 7.9018C97.7849 6.6489 96.2588 6.03345 94.4375 6.03345C92.6163 6.03345 91.0934 6.6489 89.8373 7.9018C88.5844 9.15469 87.9438 10.6808 87.9438 12.502C87.9438 14.3233 88.5844 15.8462 89.8373 17.1023C91.0902 18.3583 92.6414 18.9706 94.4375 18.9706C96.2337 18.9706 97.7817 18.3551 99.0378 17.1023C100.291 15.8494 100.931 14.3233 100.931 12.502C100.931 10.6808 100.291 9.15783 99.0378 7.9018ZM97.1694 15.281C96.4315 16.0189 95.5209 16.3863 94.4375 16.3863C93.3542 16.3863 92.4467 16.0189 91.7057 15.281C90.9646 14.5431 90.6004 13.6073 90.6004 12.502C90.6004 11.3967 90.9677 10.461 91.7057 9.72305C92.4436 8.98513 93.3542 8.6146 94.4375 8.6146C95.5209 8.6146 96.4284 8.98513 97.1694 9.72305C97.9105 10.461 98.2747 11.3967 98.2747 12.502C98.2747 13.6073 97.9042 14.5431 97.1694 15.281Z" fill="black"></path>
<path d="M11.9973 0.500732C5.37171 0.500732 -0.000976562 5.87342 -0.000976562 12.499C-0.000976562 13.7833 0.199989 15.0236 0.573659 16.1823C2.09032 15.5983 3.87075 14.9169 3.93983 14.8949C4.06544 14.8541 4.01519 14.7693 3.91785 14.7661C3.82051 14.763 1.68839 14.6657 1.62245 14.6594C1.55651 14.6531 1.48114 14.606 1.60047 14.5306C2.21907 14.1319 4.235 12.8507 5.21785 12.4833C5.31833 12.4456 5.28693 12.3797 5.20529 12.3734C5.12679 12.364 3.29612 12.1724 3.18621 12.1599C3.07631 12.1473 3.05119 12.0939 3.18307 12.0217C3.76085 11.6983 5.44393 10.7908 6.69055 10.4736C6.81301 10.4422 6.90094 10.3355 6.90722 10.2099C7.04852 7.34926 7.8618 5.78864 8.52436 4.89371C8.55576 4.84975 8.61856 4.84661 8.65624 4.88429C9.42557 5.65048 10.1698 6.70869 10.7475 7.8297C10.7789 7.88936 10.8574 7.88936 10.87 7.8297C11.0082 7.03525 11.2719 6.36328 11.6173 5.67874C11.6425 5.6285 11.7084 5.60965 11.7524 5.64734C12.4055 6.19685 13.2125 7.36182 13.6207 8.8251C13.6553 8.94443 13.7557 9.02921 13.8782 9.03549L14.8485 9.08259C15.2253 9.10143 15.577 9.27414 15.8219 9.56302L16.3212 10.1502C16.3746 10.213 16.4562 10.2507 16.5379 10.2507L21.3893 10.257C21.4929 10.257 21.5808 10.3386 21.5965 10.4485C21.7441 11.8678 20.8052 14.8352 18.2147 14.8352C13.2219 14.8352 10.1321 19.7306 11.9879 24.5036C18.6166 24.5036 23.9862 19.1309 23.9862 12.5053C23.9862 5.8797 18.626 0.500732 11.9973 0.500732Z" fill="black"></path>
<path d="M15.304 11.149C15.304 10.3074 14.5692 10.0186 12.7637 10.0186C12.7637 11.2306 14.8832 11.5698 15.304 11.149Z" fill="black"></path>
<path d="M18.2269 14.8322C20.8175 14.8322 21.7533 11.868 21.6088 10.4455C21.5931 10.3356 21.5052 10.254 21.4016 10.254L16.5501 10.2477C16.4654 10.2477 16.3869 10.21 16.3335 10.1472L15.8342 9.56004C15.5893 9.27115 15.2376 9.09845 14.8608 9.07961L13.8905 9.03251C13.768 9.02623 13.6644 8.94144 13.633 8.82212C13.2216 7.35884 12.4178 6.19387 11.7646 5.64435C11.7207 5.60667 11.6547 5.62551 11.6296 5.67575C11.2842 6.35715 11.0204 7.03227 10.8823 7.82671C10.8729 7.88637 10.7912 7.88637 10.7598 7.82671C10.182 6.7057 9.43784 5.65063 8.66852 4.88131C8.63084 4.84363 8.56804 4.84677 8.53664 4.89073C7.87408 5.7888 7.0608 7.34628 6.91949 10.2069C6.91321 10.3325 6.82529 10.4393 6.70283 10.4707C5.45621 10.7878 3.77627 11.6953 3.19535 12.0187C3.06347 12.091 3.08859 12.1443 3.19849 12.1569C3.30839 12.1695 5.13906 12.361 5.21757 12.3704C5.29607 12.3798 5.33061 12.4426 5.23013 12.4803C4.24414 12.8477 2.23134 14.1257 1.61275 14.5277C1.49342 14.603 1.56878 14.6533 1.63473 14.6564C1.70067 14.6595 3.83279 14.7569 3.93013 14.7632C4.02747 14.7663 4.07771 14.8511 3.95211 14.8919C3.87989 14.917 2.1026 15.5984 0.585938 16.1793C2.14028 21.0025 6.66829 24.4943 12.0096 24.4943C10.1569 19.7214 13.2436 14.826 18.2364 14.826L18.2269 14.8322ZM15.3035 11.1489C14.8828 11.5697 12.7632 11.2306 12.7632 10.0185C14.5687 10.0185 15.3035 10.3074 15.3035 11.1489Z" fill="white"></path>
</g>
<defs>
<clipPath id="clip0_1_8197">
<rect fill="white" height="23.9997" transform="translate(0 0.500488)" width="100.932"></rect>
</clipPath>
</defs>
</svg>