<?xml version="1.0" encoding="utf-8"?>
<!-- Generator: Adobe Illustrator 23.0.1, SVG Export Plug-In . SVG Version: 6.00 Build 0)  -->
<svg version="1.1" id="Layer_1" xmlns="http://www.w3.org/2000/svg" xmlns:xlink="http://www.w3.org/1999/xlink" x="0px" y="0px"
	 viewBox="0 0 1000 1000" style="enable-background:new 0 0 1000 1000;" xml:space="preserve">
<style type="text/css">
	.st0{fill:#010101;}
</style>
<g>
	<path class="st0" d="M378.58,75.03c-138.8,10.27-256.8,19.72-262.35,20.82c-15.56,2.77-29.71,13.33-36.36,27.21l-5.83,12.22
		l0.56,291.23l0.83,291.23l8.88,18.05c5,9.99,38.87,56.64,75.79,104.65c73.02,94.67,78.28,99.95,106.04,102.72
		c8.06,0.83,68.58-1.95,134.1-5.83c65.8-4.16,171.28-10.55,234.59-14.15c270.39-16.42,256.5-15.03,272.04-28.35
		c19.44-16.1,18.05,10.27,18.87-343.69c0.56-300.11,0.28-319.81-4.16-328.98c-5.27-10.27-14.71-17.49-137.98-104.11
		c-82.45-57.74-88.27-60.8-125.21-61.36C643.14,56.16,517.1,64.48,378.58,75.03L378.58,75.03z M690.61,113.06
		c11.66,5.27,96.89,64.68,109.38,76.07c3.34,3.34,4.44,6.11,2.77,7.78c-3.88,3.34-531.37,34.71-546.63,32.48
		c-6.93-1.11-17.21-5.27-23.03-9.16c-24.16-16.38-84.11-65.52-84.11-69.12c0-9.45-1.95-9.45,233.2-26.37
		c44.98-3.05,118.82-8.6,163.8-12.22C643.42,104.74,672.58,105.02,690.61,113.06L690.61,113.06z M858.29,264.93
		c3.88,3.88,7.22,11.38,8.32,18.59c0.83,6.67,1.39,131.04,0.83,275.95c-0.83,248.74-1.11,264.3-5.83,271.51
		c-2.77,4.44-8.32,9.16-12.5,10.55c-11.64,4.72-564.37,36.1-575.75,32.76c-5.27-1.39-12.5-5.83-16.38-9.71l-6.67-7.22l-0.83-268.18
		c-0.56-188.22,0-271.51,2.23-279.01c1.67-5.55,5.83-12.22,9.45-14.43c5-3.34,37.76-6.11,150.48-12.76
		c79.13-4.44,201.55-11.94,271.79-16.1C850.52,256.61,849.97,256.61,858.29,264.93L858.29,264.93z"/>
	<path class="st0" d="M709.77,356.82c-29.99,1.95-56.64,4.72-59.69,6.39c-9.16,4.72-14.71,12.5-15.82,21.38
		c-0.83,9.16,1.95,10.27,31.92,13.89l13.04,1.67v118.54c0,70.51-1.11,117.16-2.49,115.77c-1.39-1.67-40.8-61.62-87.73-133.25
		c-46.91-71.89-85.78-131.04-86.34-131.59c-0.56-0.56-31.09,1.11-67.73,3.62c-44.98,3.05-69.68,5.83-74.69,8.6
		c-8.06,4.16-16.94,18.87-16.94,28.6c0,5.83,10.55,8.88,32.76,8.88h11.66v340.91l-18.87,5.83c-14.71,4.44-19.72,7.22-22.21,12.76
		c-4.44,9.45-4.16,18.05,0.28,18.05c1.67,0,33.04-1.95,69.12-4.16c71.35-4.16,79.39-6.11,86.89-20.82
		c2.23-4.44,4.16-9.16,4.16-10.55c0-1.11-9.71-4.44-21.38-7.22c-11.94-2.77-23.88-5.55-26.37-6.11c-4.72-1.39-5-9.99-5-129.37
		V490.65l84.39,132.43c88.56,138.8,99.67,154.64,113.28,161.57c16.94,8.88,59.97,2.77,81.62-11.38l6.67-4.16l0.56-189.33
		l0.83-189.61l14.71-2.77c17.49-3.34,25.54-11.38,25.54-25.26c0-8.88-0.56-9.45-8.88-9.16C768.07,353.2,739.47,354.87,709.77,356.82
		L709.77,356.82z"/>
</g>
</svg>
