<?xml version="1.0" encoding="UTF-8"?>
<svg version="1.1" xmlns="http://www.w3.org/2000/svg" width="1000" height="1000">
<path d="M0 0 C330 0 660 0 1000 0 C1000 330 1000 660 1000 1000 C670 1000 340 1000 0 1000 C0 670 0 340 0 0 Z " fill="#F3E7D3" transform="translate(0,0)"/>
<path d="M0 0 C1.470237 -0.00490033 2.94047014 -0.01109536 4.41069686 -0.01845789 C8.41506447 -0.03473633 12.41923364 -0.03256439 16.42362261 -0.02708292 C20.75647376 -0.02439761 25.0892738 -0.03897264 29.42210388 -0.05117798 C37.89772216 -0.07217226 46.37327194 -0.07677624 54.84891315 -0.07499009 C61.7439481 -0.07367925 68.63896181 -0.07750302 75.53399277 -0.08491516 C77.52486956 -0.08701451 79.51574635 -0.08911211 81.50662315 -0.09120798 C82.49774694 -0.09225151 83.48887074 -0.09329504 84.51002859 -0.09437019 C103.23110783 -0.11324891 121.95214784 -0.11222985 140.67323266 -0.10540086 C157.76682789 -0.09982916 174.86027306 -0.12063916 191.95383324 -0.15376133 C209.5384724 -0.18756843 227.12303982 -0.2026578 244.70771205 -0.1980443 C254.56685586 -0.19580644 264.42586106 -0.2009421 274.28497696 -0.22593689 C282.68045479 -0.24704109 291.07571803 -0.25045231 299.47120495 -0.2316373 C303.74710545 -0.2225347 308.02260685 -0.2211661 312.29847527 -0.24199295 C345.1233975 -0.39141622 345.1233975 -0.39141622 361.01144409 5.39440918 C362.17518114 5.80369911 363.33891819 6.21298904 364.53792 6.6346817 C385.04123086 14.18673644 401.90293168 31.41889297 411.19151556 50.90840578 C419.63023121 69.69787176 419.74429464 88.26692036 419.66506743 108.50298142 C419.65363603 112.83165183 419.67127433 117.16022586 419.68496704 121.48887634 C419.70707965 129.94367573 419.70245208 138.39825189 419.68790384 146.85305965 C419.67656409 153.73079868 419.67510106 160.6084756 419.68052292 167.48622131 C419.68128908 168.46896523 419.68205525 169.45170915 419.68284463 170.46423319 C419.68444342 172.46130417 419.6860645 174.45837512 419.68770759 176.45544606 C419.70193 195.13652936 419.68562761 213.81748953 419.65870576 232.49855262 C419.63637019 248.49173177 419.64025131 264.4847294 419.66329956 280.47790527 C419.69011975 299.0968669 419.70055703 317.7157209 419.68523824 336.33469915 C419.68364567 338.32399843 419.68207381 340.31329773 419.68052292 342.30259705 C419.67975154 343.28110611 419.67898016 344.25961518 419.67818541 345.26777604 C419.67388703 352.12898841 419.68111457 358.99013192 419.69292068 365.85133362 C419.70701356 374.22472565 419.70300421 382.59788365 419.67651697 390.97124922 C419.66346938 395.23502694 419.65806941 399.49841593 419.67476273 403.76218987 C419.79230724 436.49140911 419.79230724 436.49140911 414.01144409 452.39440918 C413.60219507 453.55826897 413.19294605 454.72212875 412.77129555 455.92125702 C405.05530723 476.86453821 387.61184646 493.34507954 367.81613159 502.82409668 C358.20633046 506.97899744 347.09016946 510.52505085 336.58876038 510.5146637 C335.51328949 510.51603836 334.4378186 510.51741302 333.32975769 510.51882935 C332.16019028 510.51523407 330.99062286 510.51163879 329.78561401 510.50793457 C327.92646362 510.50815361 327.92646362 510.50815361 326.02975464 510.50837708 C322.63963897 510.50780055 319.2495845 510.50279165 315.85947967 510.49580312 C312.31340068 510.48954398 308.76732084 510.48896375 305.22123718 510.48777771 C298.51007006 510.48467194 291.79891926 510.47646872 285.08775932 510.46642822 C277.44571122 510.45524366 269.80366234 510.44975073 262.1616081 510.44473279 C246.44487732 510.43428548 230.72816281 510.41670065 215.01144409 510.39440918 C215.00997753 509.79330763 215.00851097 509.19220608 215.00699997 508.57288933 C214.96957687 493.79122818 214.91010626 479.00977131 214.82754135 464.22830009 C214.7881149 457.07940279 214.7555414 449.93060976 214.740448 442.78161621 C214.72723873 436.53398414 214.6998018 430.28658508 214.65683103 424.03908455 C214.63463716 420.74604406 214.62063662 417.45333727 214.61956024 414.16021347 C214.58568799 362.39465315 204.65506499 310.17228101 166.93722534 272.31237793 C147.90092265 254.47244176 123.21729512 245.89251535 98.01144409 241.39440918 C94.71144409 240.73440918 91.41144409 240.07440918 88.01144409 239.39440918 C88.01144409 258.53440918 88.01144409 277.67440918 88.01144409 297.39440918 C92.96144409 298.87940918 92.96144409 298.87940918 98.01144409 300.39440918 C117.23829691 308.79376885 130.1956736 324.58508587 137.80831909 343.74987793 C142.38672615 355.96400622 144.96701713 368.22480395 146.63644409 381.14440918 C146.82146484 382.57152222 146.82146484 382.57152222 147.01022339 384.02746582 C149.0219247 400.64314411 149.15102191 417.21997443 149.10910034 433.92956543 C149.10723045 436.14729276 149.10580925 438.36502052 149.10481262 440.58274841 C149.10103236 446.36114687 149.09124157 452.13951937 149.08010864 457.91790771 C149.06979683 463.83780567 149.06529427 469.75770791 149.06027222 475.6776123 C149.04961432 487.24988921 149.0325933 498.82214702 149.01144409 510.39440918 C127.956712 510.51165063 106.90203439 510.59959604 85.84704113 510.65347004 C76.06896687 510.679159 66.29109643 510.71412961 56.51315308 510.77160645 C47.98227724 510.82172848 39.45154915 510.85376767 30.92053014 510.86485165 C26.41098264 510.87132211 21.90185749 510.88633066 17.39244652 510.92305946 C-10.63039319 511.14219811 -36.88758296 509.90998529 -58.98855591 490.39440918 C-59.79550903 489.72925293 -60.60246216 489.06409668 -61.43386841 488.37878418 C-78.02368152 474.27490636 -87.3866975 454.64120817 -90.98855591 433.39440918 C-91.08053637 431.35011184 -91.12112246 429.30320238 -91.1255703 427.25684166 C-91.13064484 426.01503147 -91.13571938 424.77322129 -91.1409477 423.49378049 C-91.14154932 422.1184835 -91.14204842 420.74318647 -91.14245605 419.3678894 C-91.14647279 417.90456038 -91.15091137 416.44123246 -91.15573561 414.97790587 C-91.16768428 410.95552322 -91.17334565 406.93315255 -91.17791677 402.91075563 C-91.18387967 398.57232664 -91.19548811 394.23391191 -91.20620728 389.89549255 C-91.23072053 379.41463747 -91.24535944 368.93377766 -91.25826734 358.45290273 C-91.26198089 355.49033527 -91.26595401 352.52776828 -91.27002001 349.56520128 C-91.29526463 331.15251349 -91.31730929 312.73982492 -91.32974815 294.32712364 C-91.33267768 290.06276827 -91.33563936 285.79841293 -91.33865356 281.53405762 C-91.33939962 280.47421955 -91.34014567 279.41438148 -91.34091432 278.32242711 C-91.35355172 261.17660188 -91.3867531 244.03088074 -91.4284554 226.8851041 C-91.47095931 209.26457003 -91.49445317 191.64408909 -91.49966872 174.0235039 C-91.50307389 164.1373977 -91.51472274 154.25145397 -91.54777145 144.36539841 C-91.57588993 135.94046607 -91.58672 127.5157295 -91.57557599 119.0907539 C-91.5704188 114.79869405 -91.57308231 110.50704337 -91.59804153 106.21504402 C-91.76932101 75.03531219 -87.62739361 48.68844237 -65.21121216 25.46081543 C-47.56972853 7.9930215 -24.60348482 -0.10286825 0 0 Z " fill="#000000" transform="translate(335.9885559082031,244.6055908203125)"/>
<path d="M0 0 C11.03355256 7.42092962 19.18864943 18.08917695 22.05078125 31.23828125 C23.36785814 45.35934617 22.39393751 58.44661392 13.67578125 70.17578125 C12.48532515 71.5456904 11.27787854 72.90109426 10.05078125 74.23828125 C9.57511719 74.83898437 9.09945312 75.4396875 8.609375 76.05859375 C2.27823192 83.43115201 -9.29222311 89.30010162 -18.94921875 90.23828125 C-28.97822524 90.84822083 -37.78471102 90.87104815 -46.94921875 86.23828125 C-47.79871094 85.81417969 -48.64820313 85.39007813 -49.5234375 84.953125 C-62.45923738 77.84140653 -69.36621491 67.57849366 -74.11328125 53.87890625 C-77.23481248 40.28420014 -75.30575976 27.22919377 -68.1875 15.28125 C-52.8065672 -7.5249607 -23.59696397 -14.09566987 0 0 Z " fill="#F2E6D2" transform="translate(528.94921875,338.76171875)"/>
</svg>
