<svg xmlns="http://www.w3.org/2000/svg" width="433" height="83" viewBox="0 0 433 83" fill="none"><path d="M265.194 34.2261C269.694 27.2261 275.294 21.726 283.494 19.326C290.194 17.226 296.995 16.826 303.795 18.626C311.595 20.726 316.695 25.626 318.395 33.626C318.495 34.126 318.694 34.7261 319.094 36.0261C322.494 27.1261 328.394 21.726 336.794 19.226C344.194 16.926 351.794 16.8261 359.194 19.4261C367.294 22.2261 371.894 29.6261 371.094 38.0261C370.894 39.7261 370.394 40.426 368.694 40.426C364.894 40.326 360.894 40.426 357.094 40.426C355.494 40.426 354.795 39.626 354.395 38.126C353.695 34.826 351.094 33.4261 348.094 33.0261C344.394 32.6261 340.594 32.7261 337.994 35.5261C335.994 37.5261 337.795 39.326 339.895 39.826C343.695 40.926 347.694 41.526 351.494 42.326C352.594 42.626 353.594 42.7261 354.694 43.0261C361.294 44.5261 366.595 47.626 369.395 54.626C370.195 49.526 371.095 44.526 371.895 39.426C373.795 27.726 375.695 16.126 377.395 4.52605C377.695 2.52605 378.395 1.82605 380.395 1.92605C382.895 2.12605 385.494 1.92605 387.994 1.92605C393.094 2.02605 395.594 5.22605 394.694 10.326C393.394 18.226 392.095 26.026 390.895 33.826C390.695 34.926 390.794 35.926 390.694 37.426C392.794 36.426 394.194 34.9261 395.694 33.5261C399.494 29.8261 403.694 26.4261 407.294 22.5261C409.794 19.8261 412.395 19.026 415.895 19.226C421.295 19.526 426.794 19.326 432.694 19.326C431.094 22.126 428.694 23.726 426.694 25.626C420.494 31.426 414.294 37.1261 407.994 42.7261C406.494 44.0261 406.394 45.226 407.194 47.126C411.794 57.726 416.094 68.5261 420.694 79.1261C421.894 81.8261 421.294 82.526 418.494 82.426C413.694 82.226 408.895 82.226 403.895 82.426C401.495 82.526 400.194 81.826 399.294 79.426C396.694 72.426 393.695 65.6261 390.895 58.6261C390.495 57.4261 390.194 56.1261 388.594 56.2261C386.794 56.3261 387.194 57.826 386.994 59.026C385.794 66.026 384.594 73.026 383.494 80.026C383.194 82.026 382.294 82.426 380.594 82.426C376.394 82.326 372.094 82.326 367.994 82.426C365.694 82.526 364.995 81.726 365.395 79.526C365.995 76.226 366.494 72.926 367.094 68.526C364.894 71.026 363.494 72.926 361.794 74.426C356.094 79.626 349.194 81.826 341.594 82.526C336.994 82.926 332.394 83.026 327.794 82.026C318.194 79.826 314.295 75.626 312.895 65.526C308.895 73.526 302.894 78.826 294.594 81.326C287.494 83.426 280.294 83.426 273.194 81.526C264.394 79.126 259.394 72.226 259.094 63.026C259.094 61.726 259.094 60.426 258.694 59.026C255.794 63.326 252.994 67.6261 249.194 71.1261C241.294 78.4261 232.094 82.4261 221.494 82.6261C211.594 82.9261 201.694 82.6261 191.794 82.7261C189.194 82.7261 188.394 82.126 188.894 79.526C192.394 58.026 195.694 36.4261 199.294 14.9261C200.694 6.02605 205.694 1.92605 214.794 2.02605C222.994 2.12605 231.195 1.62605 239.395 2.62605C255.995 4.72605 264.495 14.726 264.795 31.926C264.995 32.426 265.194 33.3261 265.194 34.2261C264.794 34.3261 264.695 34.626 264.795 34.926C264.795 35.026 264.994 35.1261 264.994 35.2261C264.994 34.9261 265.094 34.6261 265.194 34.2261ZM217.094 64.826C231.794 64.826 240.494 58.526 244.094 45.126C245.294 40.826 245.894 36.326 245.694 31.926C245.394 25.926 242.494 21.726 236.794 19.626C231.594 17.726 226.194 17.726 220.794 17.626C218.694 17.526 218.195 18.226 217.895 20.226C215.995 32.926 213.994 45.626 211.794 58.326C210.694 64.826 210.594 64.826 217.094 64.826ZM318.395 46.826C317.895 48.926 317.094 50.6261 317.094 52.2261C316.894 55.7261 314.994 56.126 312.094 56.026C301.594 55.826 291.295 56.026 280.895 55.926C278.995 55.926 277.795 56.326 277.795 58.326C277.695 61.926 279.994 64.8261 283.494 65.7261C288.394 67.0261 292.795 65.4261 295.895 61.2261C296.695 60.0261 297.394 59.2261 298.994 59.2261C308.894 59.3261 318.794 59.2261 328.694 59.2261C329.794 59.2261 330.694 59.1261 331.194 60.6261C333.294 66.8261 342.194 69.4261 347.494 65.6261C350.294 63.6261 350.194 60.826 346.994 59.526C344.194 58.426 341.194 57.9261 338.294 57.2261C330.894 55.5261 322.895 54.726 318.395 46.826ZM281.594 42.426C286.794 42.426 291.994 42.426 297.094 42.426C301.094 42.426 301.895 41.0261 299.795 37.5261C299.295 36.6261 298.494 35.8261 297.594 35.2261C291.694 31.5261 283.094 35.426 281.594 42.426Z" fill="#3486AA"></path><path d="M31.8945 82.326C28.6945 82.526 24.3945 82.026 20.0945 80.926C9.39449 78.026 2.39448 71.226 0.794483 60.326C-1.40552 44.726 0.694488 29.626 10.4945 16.626C18.3945 6.12605 29.1945 1.02605 42.2945 0.226046C47.4945 -0.173954 52.7945 -0.173953 57.7945 1.32605C69.3945 4.62605 76.5945 12.026 78.3945 24.026C81.0945 41.726 77.3945 57.7261 64.4945 70.6261C55.7945 79.1261 44.9945 82.426 31.8945 82.326ZM36.6945 66.026C44.7945 65.626 52.1945 61.826 55.9945 52.826C58.7945 46.426 60.2945 39.526 60.2945 32.426C60.2945 25.526 56.6945 20.326 51.1945 18.126C39.3945 13.626 25.8945 20.126 21.9945 32.126C20.5945 36.726 19.6945 41.426 18.8945 46.226C16.8945 58.526 23.1945 66.126 36.6945 66.026Z" fill="#3486AA"></path><path d="M169.794 56.0261C164.294 56.0261 158.594 56.1261 153.094 56.0261C150.994 55.9261 150.294 56.8261 150.494 58.8261C150.794 62.3261 152.194 64.7261 155.794 65.7261C160.894 67.0261 165.694 65.7261 168.494 61.3261C169.594 59.6261 170.794 59.1261 172.594 59.2261C176.694 59.3261 180.794 59.3261 184.894 59.2261C187.294 59.1261 187.794 59.7261 186.994 62.1261C183.194 73.3261 172.594 81.6261 160.594 82.1261C156.494 82.3261 152.394 82.4261 148.294 81.6261C136.094 79.1261 131.194 70.2261 131.994 58.8261C132.494 51.9261 134.194 45.3261 136.294 38.7261C140.094 26.9261 150.994 18.5261 163.594 17.8261C166.694 17.6261 169.894 17.4261 172.894 18.0261C186.294 20.2261 192.994 29.5261 191.394 43.2261C189.894 56.2261 189.894 56.2261 176.794 56.2261C174.594 56.0261 172.194 56.0261 169.794 56.0261ZM163.794 42.4261C165.894 42.4261 168.194 42.2261 170.294 42.4261C173.194 42.7261 173.494 41.1261 172.994 38.9261C172.494 36.9261 171.094 35.5261 169.294 34.7261C164.394 32.4261 157.494 34.9261 154.894 39.7261C153.694 41.9261 154.494 42.5261 156.694 42.4261C158.994 42.3261 161.394 42.4261 163.794 42.4261Z" fill="#3486AA"></path><path d="M119.894 82.026C118.294 82.026 116.794 82.126 115.194 82.026C111.194 81.626 108.994 78.626 109.694 74.826C111.494 63.826 113.294 53.026 114.994 42.026C115.494 38.426 113.694 35.226 110.594 34.126C106.394 32.626 101.494 34.326 99.1945 38.026C96.8945 41.826 96.9945 46.126 96.2945 50.226C94.6945 59.826 93.2945 69.526 91.6945 79.126C91.3945 81.026 90.6945 82.326 88.1945 82.126C84.1945 81.826 80.2945 81.926 76.2945 82.126C73.9945 82.226 73.1945 81.726 73.5945 79.126C75.6945 66.926 77.3945 54.626 79.5945 42.326C82.7945 24.526 102.194 13.226 119.494 19.026C128.094 21.926 132.894 28.826 133.294 38.326C133.694 45.326 131.694 51.926 130.894 58.726C130.094 65.126 128.494 71.426 127.894 78.026C127.494 81.526 126.294 82.726 122.994 82.126C121.794 81.926 120.794 82.026 119.894 82.026Z" fill="#3486AA"></path><path d="M265.194 34.226C265.094 34.626 264.995 34.826 264.895 35.226C264.795 35.126 264.694 35.026 264.694 34.926C264.594 34.626 264.794 34.326 265.194 34.226Z" fill="#FCFDFD"></path></svg>