<svg width="2001" height="2001" viewBox="0 0 2001 2001" fill="none" xmlns="http://www.w3.org/2000/svg">
<path d="M1.34961 549.043C1.34961 245.905 247.091 0.163574 550.228 0.163574H1451.03C1754.17 0.163574 1999.91 245.905 1999.91 549.042V1232.94C1999.91 1278.35 1981.98 1321.92 1950.01 1354.17L1351.34 1958.24C1325.65 1984.15 1290.68 1998.73 1254.2 1998.73H550.228C247.091 1998.73 1.34961 1752.99 1.34961 1449.85V549.043Z" fill="#F5C140"/>
<path d="M0.621094 471.243C0.621094 211.073 211.531 0.163574 471.701 0.163574H1529.54C1789.71 0.163574 2000.62 211.073 2000.62 471.243V1238.99C2000.62 1300.05 1953.48 1350.75 1892.58 1355.18L1641.67 1373.45C1498.1 1383.91 1384.17 1498.52 1374.56 1642.15L1358.84 1877.25C1354.21 1946.42 1296.76 2000.16 1227.43 2000.16H471.7C211.53 2000.16 0.621094 1789.25 0.621094 1529.08V471.243Z" fill="black"/>
<g filter="url(#filter0_d_167_2)">
<path d="M875.633 651.744C875.633 566.057 945.095 496.595 1030.78 496.595C1116.47 496.595 1185.93 566.057 1185.93 651.744V1347.33C1185.93 1433.02 1116.47 1502.48 1030.78 1502.48C945.095 1502.48 875.633 1433.02 875.633 1347.33V651.744Z" fill="#F0F0F0"/>
</g>
<path d="M929.767 533.541C994.923 477.892 1092.86 485.6 1148.5 550.756C1204.15 615.913 1196.45 713.845 1131.29 769.494L919.212 950.625C854.056 1006.27 756.123 998.566 700.475 933.41C644.826 868.253 652.533 770.321 717.689 714.672L929.767 533.541Z" fill="white"/>
<defs>
<filter id="filter0_d_167_2" x="857.926" y="496.595" width="345.713" height="1041.3" filterUnits="userSpaceOnUse" color-interpolation-filters="sRGB">
<feFlood flood-opacity="0" result="BackgroundImageFix"/>
<feColorMatrix in="SourceAlpha" type="matrix" values="0 0 0 0 0 0 0 0 0 0 0 0 0 0 0 0 0 0 127 0" result="hardAlpha"/>
<feOffset dy="17.707"/>
<feGaussianBlur stdDeviation="8.85349"/>
<feComposite in2="hardAlpha" operator="out"/>
<feColorMatrix type="matrix" values="0 0 0 0 0 0 0 0 0 0 0 0 0 0 0 0 0 0 0.25 0"/>
<feBlend mode="normal" in2="BackgroundImageFix" result="effect1_dropShadow_167_2"/>
<feBlend mode="normal" in="SourceGraphic" in2="effect1_dropShadow_167_2" result="shape"/>
</filter>
</defs>
</svg>
