<svg version="1.1" id="Layer_1" xmlns:x="ns_extend;" xmlns:i="ns_ai;" xmlns:graph="ns_graphs;" xmlns="http://www.w3.org/2000/svg" xmlns:xlink="http://www.w3.org/1999/xlink" x="0px" y="0px" viewBox="0 0 395.1 87" style="enable-background:new 0 0 395.1 87;" xml:space="preserve">
 <style type="text/css">
  .st0{fill:#E54B4D;}
	.st1{fill:#FFFFFF;}
 </style>
 <metadata>
  <sfw xmlns="ns_sfw;">
   <slices>
   </slices>
   <sliceSourceBounds bottomLeftOrigin="true" height="87" width="395.1" x="0" y="0">
   </sliceSourceBounds>
  </sfw>
 </metadata>
 <g>
  <path class="st0" d="M43.5,0C19.5,0-0.1,19.8,0,43.9C0.1,66.1,17,84.7,39.2,87c0.2,0,0.4-0.1,0.5-0.3c0-0.1,0-0.1,0-0.2V43.6h-3.4
		c-0.3,0-0.5-0.2-0.5-0.5l0,0v-6.8c0-0.3,0.2-0.5,0.5-0.5l0,0H47c0.3,0,0.5,0.2,0.5,0.5l0,0v50.2c0,0.3,0.2,0.5,0.5,0.5
		c0,0,0,0,0.1,0c24-2.4,41.4-23.8,39-47.8C84.7,16.9,65.9,0,43.5,0L43.5,0z M55.9,77.3c-0.3,0.1-0.5,0-0.6-0.3c0-0.1,0-0.1,0-0.2
		v-7.2c0-0.3,0.2-0.6,0.4-0.7c14-6.7,20-23.4,13.3-37.4c-4.7-9.9-14.8-16.2-25.8-16C28.3,15.8,16,27.8,15.5,42.7
		c-0.4,11.2,5.9,21.5,16,26.3c0.3,0.1,0.4,0.4,0.4,0.7v7.2c0,0.3-0.2,0.5-0.5,0.5c-0.1,0-0.1,0-0.2,0C17,72.2,7.5,58.6,7.7,43.4
		C7.9,23.8,23.9,7.9,43.3,7.8c19.9-0.2,36.1,16,36.1,35.8C79.5,59.1,69.6,72.2,55.9,77.3z">
  </path>
  <path class="st1" d="M147.1,59c-4.2,4.2-9.4,6.3-15.5,6.3c-6.1,0-11.3-2.1-15.5-6.3s-6.3-9.4-6.3-15.6c0-6.1,2.1-11.3,6.3-15.5
		c4.2-4.2,9.4-6.4,15.5-6.4c6.1,0,11.3,2.1,15.5,6.3s6.4,9.4,6.4,15.5C153.5,49.6,151.3,54.8,147.1,59z M121.9,53.3
		c2.6,2.6,5.8,3.9,9.7,3.9c3.9,0,7.1-1.3,9.7-3.9c2.6-2.6,3.9-5.9,3.9-9.9s-1.3-7.3-3.9-9.9c-2.6-2.6-5.8-3.9-9.7-3.9
		c-3.9,0-7.1,1.3-9.7,3.9s-3.9,5.9-3.9,9.9C118,47.5,119.3,50.8,121.9,53.3L121.9,53.3z M175.7,33.6c3.3,0,6,1.1,8.2,3.3
		s3.2,5.3,3.2,9.1v18c0,0.3-0.2,0.5-0.5,0.5l0,0h-6.8c-0.3,0-0.5-0.2-0.5-0.5V47c0-2-0.5-3.5-1.6-4.6s-2.5-1.6-4.3-1.6
		c-2,0-3.6,0.6-4.8,1.9c-1.2,1.2-1.8,3.1-1.8,5.6V64c0,0.3-0.2,0.5-0.5,0.5h-6.8c-0.3,0-0.5-0.2-0.5-0.5l0,0V34.9
		c0-0.3,0.2-0.5,0.5-0.5l0,0h6.8c0.3,0,0.5,0.2,0.5,0.5l0,0v2.9C168.6,35,171.6,33.6,175.7,33.6L175.7,33.6z M200.2,52.7
		c1,3.8,3.9,5.7,8.5,5.7c2.8,0,5-0.9,6.5-2.7c0.2-0.2,0.4-0.2,0.6-0.1l5.4,3.1c0.2,0.1,0.3,0.4,0.2,0.7l0,0c-3,4-7.2,6-12.8,6
		c-5,0-9-1.5-12-4.5s-4.5-6.8-4.5-11.4c0-4.5,1.5-8.3,4.5-11.3s6.8-4.5,11.4-4.5c4.4,0,8.1,1.5,10.9,4.6c2.9,3,4.3,6.8,4.3,11.3
		c0,0.9-0.1,1.8-0.2,2.8c0,0.2-0.3,0.4-0.5,0.4C222.5,52.6,200.2,52.7,200.2,52.7z M200.1,46.6h15.3c-0.4-2-1.4-3.6-2.7-4.6
		c-1.4-1-3-1.5-4.7-1.5c-2.1,0-3.8,0.5-5.2,1.6C201.4,43.2,200.5,44.7,200.1,46.6L200.1,46.6z M242.1,65.3c-4.2,0-7.7-0.9-10.5-2.8
		c-2.7-1.7-4.7-4.2-5.9-7.2c-0.1-0.2,0-0.5,0.2-0.6l6.2-3.6c0.1-0.1,0.3-0.1,0.4,0c0.1,0,0.2,0.1,0.3,0.3c1.7,3.9,4.9,5.9,9.5,5.9
		c2.3,0,4-0.4,5.1-1.3c1-0.7,1.6-1.9,1.6-3.2c0-1.5-0.7-2.6-2-3.5c-1.3-0.8-3.7-1.7-7.1-2.7c-1.6-0.5-3.2-1-4.8-1.7
		c-1.4-0.6-2.7-1.4-3.9-2.3c-1.3-0.9-2.3-2.1-3-3.6c-0.7-1.6-1.1-3.3-1-5.1c0-3.8,1.4-6.8,4.1-9.1c2.7-2.3,6-3.4,9.8-3.4
		c3.4,0,6.4,0.8,9,2.5c2.5,1.6,4.5,3.9,5.8,6.5c0.1,0.1,0.1,0.2,0,0.4c0,0.1-0.1,0.2-0.2,0.3l-6.1,3.5c-0.2,0.1-0.4,0.1-0.6,0
		c-0.1,0-0.1-0.1-0.1-0.2c-1.7-3.3-4.3-4.9-7.8-4.9c-1.7,0-3.1,0.4-4.1,1.2c-0.9,0.7-1.5,1.8-1.5,3c0,0.6,0.1,1.3,0.4,1.8
		c0.3,0.6,0.7,1,1.2,1.4c1.1,0.8,3.2,1.7,6.3,2.7c1.3,0.4,2.3,0.7,2.9,0.9c0.7,0.2,1.6,0.6,2.7,1c0.9,0.4,1.8,0.8,2.6,1.3
		c0.7,0.5,1.5,1,2.1,1.6c0.7,0.6,1.3,1.3,1.8,2.1c1,1.8,1.5,3.9,1.5,6c0,3.9-1.4,7-4.2,9.3C250.4,64.2,246.7,65.4,242.1,65.3
		L242.1,65.3z M266.3,30.8c-2.6,0-4.7-2.1-4.8-4.8c0-1.3,0.5-2.5,1.4-3.4s2.1-1.5,3.3-1.4c1.3,0,2.5,0.5,3.4,1.4s1.4,2.1,1.4,3.4
		s-0.5,2.5-1.4,3.3C268.8,30.3,267.6,30.8,266.3,30.8z M262.5,64V34.9c0-0.3,0.2-0.5,0.5-0.5l0,0h6.8c0.3,0,0.5,0.2,0.5,0.5V64
		c0,0.3-0.2,0.5-0.5,0.5l0,0H263c-0.1,0-0.3-0.1-0.4-0.1C262.5,64.3,262.5,64.1,262.5,64L262.5,64z M300.9,34.4h6.6
		c0.3,0,0.5,0.2,0.5,0.5V63c0,4.7-1.5,8.2-4.6,10.6s-6.8,3.7-11.1,3.7c-3.2,0-6.1-0.6-8.6-1.9c-2.3-1.1-4.2-2.9-5.4-5
		c-0.1-0.2-0.1-0.5,0.2-0.7l5.7-3.3c0.2-0.1,0.5-0.1,0.7,0.2c1.6,2.5,4.1,3.8,7.6,3.8c2.4,0,4.4-0.6,5.8-1.9s2.1-3.1,2.1-5.5v-3.3
		c-2.3,3.1-5.5,4.6-9.6,4.6c-4.2,0-7.8-1.5-10.7-4.5c-2.9-3-4.3-6.6-4.3-10.9c0-4.2,1.4-7.9,4.3-10.9s6.4-4.5,10.6-4.5
		c4.1,0,7.3,1.5,9.6,4.6v-3.2c0-0.1,0.1-0.3,0.1-0.4C300.6,34.5,300.7,34.4,300.9,34.4z M285.9,54.9c1.6,1.5,3.6,2.3,6,2.3
		s4.5-0.8,6-2.3c1.6-1.5,2.4-3.5,2.4-5.9s-0.8-4.3-2.4-5.9c-1.6-1.5-3.6-2.3-6-2.3s-4.5,0.8-6,2.3c-1.6,1.5-2.4,3.5-2.4,5.9
		S284.3,53.4,285.9,54.9z M331.7,33.6c3.3,0,6,1.1,8.2,3.3c2.1,2.2,3.2,5.3,3.2,9.1v18c0,0.3-0.2,0.5-0.5,0.5l0,0h-6.8
		c-0.3,0-0.5-0.2-0.5-0.5V47c0-2-0.5-3.5-1.6-4.6s-2.5-1.6-4.3-1.6c-2,0-3.6,0.6-4.8,1.9c-1.2,1.2-1.8,3.1-1.8,5.6V64
		c0,0.1-0.1,0.3-0.1,0.4c-0.1,0.1-0.2,0.1-0.4,0.1h-6.8c-0.3,0-0.5-0.2-0.5-0.5V34.9c0-0.3,0.2-0.5,0.5-0.5l0,0h6.8
		c0.1,0,0.3,0.1,0.4,0.1c0.1,0.1,0.1,0.2,0.1,0.4v2.9C324.6,35,327.6,33.6,331.7,33.6z M373.1,34.4h6.8c0.1,0,0.3,0.1,0.4,0.1
		c0.1,0.1,0.1,0.2,0.1,0.4V64c0,0.1-0.1,0.3-0.1,0.4c-0.1,0.1-0.2,0.1-0.4,0.1h-6.8c-0.3,0-0.5-0.2-0.5-0.5l0,0v-3
		c-2.3,2.9-5.6,4.4-9.8,4.4c-4,0-7.4-1.5-10.3-4.6s-4.3-6.8-4.3-11.3c0-4.4,1.4-8.2,4.3-11.3s6.3-4.6,10.3-4.6
		c4.2,0,7.5,1.5,9.8,4.4v-3C372.5,34.7,372.8,34.4,373.1,34.4L373.1,34.4L373.1,34.4z M358.2,55.6c1.6,1.6,3.5,2.4,6,2.4
		c2.4,0,4.4-0.8,6-2.4c1.6-1.6,2.4-3.6,2.4-6.1s-0.8-4.5-2.4-6.1s-3.6-2.4-6-2.4s-4.4,0.8-6,2.4c-1.6,1.6-2.3,3.6-2.3,6.1
		C355.9,51.9,356.7,54,358.2,55.6z M387.3,64V21.1c0-0.3,0.2-0.5,0.5-0.5l0,0h6.8c0.3,0,0.5,0.2,0.5,0.5V64c0,0.3-0.2,0.5-0.5,0.5
		l0,0h-6.8C387.6,64.5,387.3,64.3,387.3,64L387.3,64z">
  </path>
 </g>
</svg>