<svg xmlns="http://www.w3.org/2000/svg" viewBox="0 0 180 32" x="0px" y="0px"> <path d="M21.3,24.96c-3.27,1.93-7.33,1.93-10.6,0c-0.52-0.31-1.18-0.22-1.61,0.2L4.16,30.1l1.87,1.87 l4.24-4.23c3.63,1.77,7.84,1.77,11.47,0l4.24,4.24l1.87-1.87l-4.94-4.93C22.48,24.74,21.82,24.66,21.3,24.96 M7.01,21.28 c-1.93-3.27-1.93-7.32,0-10.59c0.31-0.52,0.22-1.18-0.2-1.61L1.87,4.15L0,6.02l4.24,4.24c-1.78,3.62-1.78,7.83,0,11.46L0,25.95 l1.87,1.87l4.93-4.93C7.23,22.46,7.32,21.8,7.01,21.28 M21.73,4.25c-3.62-1.77-7.83-1.77-11.46,0L6.02,0L4.15,1.87L9.1,6.81 c0.43,0.43,1.09,0.51,1.61,0.2c3.27-1.93,7.33-1.92,10.59,0c0.52,0.31,1.18,0.22,1.61-0.2l4.94-4.94L25.97,0L21.73,4.25z M19.21,19.21c-1.76,1.76-4.63,1.77-6.4,0.04l-0.07-0.07c-1.74-1.77-1.73-4.65,0.03-6.4c1.78-1.77,4.66-1.77,6.44,0 C20.99,14.55,20.99,17.43,19.21,19.21 M21.09,10.9c-2.81-2.8-7.37-2.8-10.18,0c-2.78,2.78-2.8,7.32-0.04,10.13l0.08,0.08 c2.81,2.75,7.35,2.73,10.13-0.04C23.89,18.27,23.89,13.71,21.09,10.9 M24.98,10.7c1.93,3.26,1.93,7.32,0,10.58 c-0.31,0.52-0.22,1.18,0.2,1.61l4.94,4.94L32,25.95l-4.25-4.24c1.77-3.62,1.77-7.82,0-11.44L32,6.02l-1.87-1.87l-4.94,4.94 C24.76,9.52,24.67,10.18,24.98,10.7"></path> <path d="M40.48,16.04c0,3.04,2.18,5.12,5.18,5.12c3.01,0,5.18-2.08,5.18-5.12s-2.17-5.12-5.18-5.12 C42.66,10.91,40.48,12.99,40.48,16.04 M54.26,16.04c0,4.68-3.56,8.12-8.59,8.12c-5.03,0-8.58-3.45-8.58-8.12s3.55-8.12,8.58-8.12 C50.7,7.91,54.26,11.36,54.26,16.04"></path> <path d="M59.15,18.44c0,1.71,1.18,2.99,2.91,2.99c1.8,0,2.92-1.33,2.92-2.99c0-1.66-1.12-2.99-2.92-2.99 C60.32,15.45,59.15,16.73,59.15,18.44 M68.1,18.44c0,3.26-2.36,5.71-5.48,5.71c-1.52,0-2.59-0.57-3.33-1.41v5.61h-3.04V13.03h2.98 v1.2c0.74-0.88,1.82-1.49,3.37-1.49C65.74,12.74,68.1,15.19,68.1,18.44"></path> <path d="M77.9,15.62h-4.1v3.96c0,1.35,0.75,1.85,1.69,1.85c0.72,0,1.51-0.35,2.13-0.7l1.12,2.28 c-0.99,0.65-2.14,1.14-3.75,1.14c-2.8,0-4.24-1.52-4.24-4.33v-4.2h-2.18v-2.6h2.18V9.8h3.05v3.22h4.1V15.62z"></path> <path d="M79.77,23.87h3.05V13.03h-3.05V23.87z M83.22,9.48c0,1.05-0.85,1.86-1.95,1.86 c-1.1,0-1.94-0.81-1.94-1.86c0-1.05,0.84-1.88,1.94-1.88C82.37,7.6,83.22,8.43,83.22,9.48L83.22,9.48z"></path> <path d="M103.47,16.97v6.9h-3.04v-5.96c0-1.57-0.83-2.43-2.21-2.43c-1.31,0-2.39,0.82-2.39,2.45v5.94h-3.05 v-5.96c0-1.57-0.82-2.43-2.21-2.43c-1.31,0-2.39,0.82-2.39,2.45v5.94h-3.05V13.03h2.97v1.28c0.81-1.15,2.04-1.57,3.33-1.57 c1.63,0,2.98,0.7,3.74,1.86c0.88-1.38,2.36-1.86,3.84-1.86C101.67,12.74,103.47,14.45,103.47,16.97"></path> <path d="M108.17,18.44c0,1.76,1.28,2.99,3,2.99c1.72,0,3.01-1.23,3.01-2.99c0-1.76-1.3-2.99-3.01-2.99 C109.46,15.45,108.17,16.69,108.17,18.44 M117.3,18.44c0,3.27-2.6,5.71-6.13,5.71c-3.51,0-6.11-2.44-6.11-5.71s2.59-5.71,6.11-5.71 C114.7,12.74,117.3,15.17,117.3,18.44"></path> <path d="M122.56,11.08v3.84h3.6c1.77,0,2.7-0.63,2.7-1.95c0-1.3-0.97-1.89-2.7-1.89H122.56z M126.21,8.2 c3.9,0,5.99,1.77,5.99,4.77c0,2.57-1.87,4.33-5.01,4.62l5.03,6.28h-3.95l-4.76-6.23h-0.96v6.23h-3.26V8.2H126.21z"></path> <path d="M136.09,18.44c0,1.76,1.28,2.99,3,2.99c1.72,0,3.01-1.23,3.01-2.99c0-1.76-1.3-2.99-3.01-2.99 C137.38,15.45,136.09,16.69,136.09,18.44 M145.22,18.44c0,3.27-2.6,5.71-6.13,5.71c-3.51,0-6.11-2.44-6.11-5.71s2.59-5.71,6.11-5.71 C142.62,12.74,145.22,15.17,145.22,18.44"></path> <path d="M157.45,19.25c0,3.42-2.52,4.9-5.35,4.9c-2.84,0-5.36-1.48-5.36-4.9v-6.22h3.05v5.96 c0,1.73,0.99,2.44,2.31,2.44c1.31,0,2.31-0.71,2.31-2.44v-5.96h3.04V19.25z"></path> <path d="M167.83,15.62h-4.1v3.96c0,1.35,0.75,1.85,1.69,1.85c0.72,0,1.51-0.35,2.13-0.7l1.12,2.28 c-0.99,0.65-2.14,1.14-3.75,1.14c-2.8,0-4.24-1.52-4.24-4.33v-4.2h-2.18v-2.6h2.18V9.8h3.05v3.22h4.1V15.62z"></path> <path d="M171.93,17.42h5.01c-0.28-1.39-1.16-2.17-2.46-2.17C173.04,15.25,172.2,16.08,171.93,17.42 M180,18.43c0,0.34-0.02,0.74-0.06,0.98h-8.02c0.33,1.57,1.47,2.25,2.91,2.25c0.98,0,2.04-0.38,2.86-1.04l1.79,1.88 c-1.28,1.13-2.92,1.64-4.82,1.64c-3.47,0-5.87-2.26-5.87-5.67c0-3.41,2.34-5.74,5.72-5.74C177.76,12.74,179.99,15.05,180,18.43"></path> </svg>