<svg version="1.1" id="Layer_1" xmlns:x="ns_extend;" xmlns:i="ns_ai;" xmlns:graph="ns_graphs;" xmlns="http://www.w3.org/2000/svg" xmlns:xlink="http://www.w3.org/1999/xlink" x="0px" y="0px" viewBox="0 0 243.7 50" style="enable-background:new 0 0 243.7 50;" xml:space="preserve">
 <style type="text/css">
  .st0{fill:#FFFFFF;}
 </style>
 <metadata>
  <sfw xmlns="ns_sfw;">
   <slices>
   </slices>
   <sliceSourceBounds bottomLeftOrigin="true" height="50" width="243.7" x="-214.6" y="-225">
   </sliceSourceBounds>
  </sfw>
 </metadata>
 <g>
  <rect y="28.9" class="st0" width="5.8" height="10.5">
  </rect>
  <path class="st0" d="M21.8,1.9C18.6,0.3,16.5,0,11.4,0H0v23.9h11.4c4.5,0,7.9-0.3,10.9-2.2c3.2-2.1,4.9-5.7,4.9-9.9
		C27.2,7.3,25.1,3.8,21.8,1.9z M12.7,18.9H5.8V5.1l6.5-0.1c5.9-0.1,8.9,2,8.9,6.8C21.2,17,17.5,18.9,12.7,18.9z">
  </path>
  <g>
   <path class="st0" d="M237.6,10.5l-5.5,15.6c-1,2.8-1.5,4.4-2.4,7.1h-0.1c-0.7-2.3-1.4-4.2-2.3-7l-5.3-15.8h-6.4l11.1,29
			c-0.2,0.6-0.5,1.3-0.8,2c-0.9,2.2-3.1,3.7-5.6,3.7h-2.8V50h2.8c4.6,0,8.7-2.8,10.4-7c3.5-8.8,9.5-23.9,12.9-32.5L237.6,10.5z">
   </path>
   <path class="st0" d="M84.1,33.8c0,10.5-4.8,16.2-14.5,16.2c-7.2,0-11.6-3.8-13.1-9.5h5.8c1,2.7,3.1,5,7.4,5c6.6,0,9-4.1,9-12
			c-0.1,0-0.1,0-0.1,0c-1.4,2.5-4.6,4.7-9.7,4.7c-8.2,0-13.3-5.9-13.3-14.2c0-8.6,5.6-14.4,13.4-14.4c5,0,8.1,2.1,9.7,4.5
			c-0.1-0.6-0.1-1.2-0.1-1.8v-1.8H84L84.1,33.8L84.1,33.8z M61.5,23.9c0,5.6,3.1,9.6,8.5,9.6c4.8,0,8.6-3.4,8.6-9.8
			c0-5.7-3.3-9.5-8.6-9.5S61.5,18.1,61.5,23.9L61.5,23.9z">
   </path>
   <path class="st0" d="M93.2,26.4c0.2,5.1,3.5,9.1,9.1,9.1c4,0,5.9-1.9,7.4-4.4h5.6c-1.7,5.2-6.2,9-13.2,9c-8.9,0-14.5-6-14.5-15
			S93.3,9.7,102,9.7c9.4,0,13.8,7.2,13.8,14.9v1.8L93.2,26.4z M110,22c-0.5-4.6-3.4-7.8-8.1-7.8c-4.5,0-8,3-8.6,7.8H110z">
   </path>
   <path class="st0" d="M124.8,10.5v3.7c0.9-2.7,3.8-4.4,7-4.4c0.5,0,0.9,0,1.4,0.1v5.1c-0.6-0.1-1.3-0.2-1.9-0.2
			c-5.2,0-6.2,3.9-6.2,9.6v15h-5.6V15.7c0-1.8,0-3.4-0.1-5.2L124.8,10.5z">
   </path>
   <path class="st0" d="M190.4,35.3c-1.5,2.5-4.3,4.8-9.2,4.8c-6.7,0-10-4.1-10-11.6v-18h5.5v15.9c0,5.7,1.9,9.1,6.4,9.1
			c5.9,0,7-5.4,7-11.8V10.5h5.6v24.6c0,1.5,0,2.9,0.1,4.3h-5.4L190.4,35.3L190.4,35.3z">
   </path>
   <path class="st0" d="M208.2,10.5h5.4v4.3h-5.4v17.4c0,2.8,1.4,3.6,3.5,3.6c0.4,0,0.9,0,1.4-0.1v4.1c-0.7,0.1-1.4,0.2-2.1,0.2
			c-5.1,0-8.4-1.7-8.4-7.5V14.8h-4.4v-4.3h4.4V2.7h5.6V10.5z">
   </path>
   <path class="st0" d="M136.6,0h9.6c14.4,0.1,21.4,7.2,21.4,19.8c0.1,10.8-5.5,19.5-20.5,19.6h-10.6L136.6,0L136.6,0z M142.4,34.5
			h3.4c10.5,0,15.9-4,15.9-14.7c0-9.4-5.4-14.8-15.4-14.8c-1.9,0-3.9,0.1-3.9,0.1V34.5z">
   </path>
   <path class="st0" d="M47.4,39.4c-0.2-1.2-0.2-1.9-0.3-4C44.9,38.6,42,40,37.4,40c-6.1,0-10.5-3-10.5-8.4c0-6.2,5.9-8.3,13.7-9.3
			c1.9-0.3,4.1-0.5,6-0.6c0-5.7-3.2-7.4-6.5-7.4s-5.8,2.3-5.8,5.4h-5.4c0-5.9,4.6-9.8,11.3-9.8s11.8,2.8,11.8,13.3v5.6
			c0,4.7,0.2,8.1,0.7,10.8L47.4,39.4L47.4,39.4z M32.9,31.5c0,2.7,2.2,4.4,5.7,4.4c5.2,0,8-3.2,8-8.8c0-0.5,0-1,0-1.5
			C37.2,26.6,32.9,27.5,32.9,31.5L32.9,31.5z">
   </path>
  </g>
 </g>
</svg>