<svg width="35" height="42" viewBox="0 0 35 42" fill="none" xmlns="http://www.w3.org/2000/svg">
<path d="M33.1035 14.3192C32.8599 14.5083 28.5587 16.9319 28.5587 22.321C28.5587 28.5545 34.0318 30.7597 34.1956 30.8143C34.1704 30.9487 33.3261 33.8344 31.3099 36.7747C29.5122 39.3621 27.6346 41.9454 24.7783 41.9454C21.922 41.9454 21.1869 40.2862 17.8896 40.2862C14.6763 40.2862 13.5338 42 10.9211 42C8.30843 42 6.48545 39.6058 4.38944 36.6655C1.9616 33.2127 0 27.8488 0 22.7579C0 14.5923 5.30933 10.2616 10.5347 10.2616C13.3111 10.2616 15.6256 12.0846 17.3687 12.0846C19.0279 12.0846 21.6154 10.1524 24.7741 10.1524C25.9712 10.1524 30.2724 10.2616 33.1035 14.3192ZM23.2745 6.69547C24.5809 5.14551 25.505 2.9949 25.505 0.844284C25.505 0.546055 25.4798 0.243624 25.4252 0C23.2997 0.079808 20.7711 1.41554 19.2463 3.18392C18.0492 4.54485 16.9319 6.69547 16.9319 8.87549C16.9319 9.20312 16.9865 9.53075 17.0117 9.63576C17.1461 9.66097 17.3645 9.69037 17.583 9.69037C19.49 9.69037 21.8884 8.41344 23.2745 6.69547Z" fill="white"/>
</svg>
