<?xml version="1.0" encoding="utf-8"?>
<!-- Generator: Adobe Illustrator 25.1.0, SVG Export Plug-In . SVG Version: 6.00 Build 0)  -->
<svg version="1.1" id="Logo" xmlns="http://www.w3.org/2000/svg" xmlns:xlink="http://www.w3.org/1999/xlink" x="0px" y="0px"
	 viewBox="0 0 1332.9 477.3" style="enable-background:new 0 0 1332.9 477.3;" xml:space="preserve">
<style type="text/css">
	.st0{fill:#FF550D;}
	.st1{fill:#FF911D;}
	.st2{fill:#333333;}
</style>
<polygon class="st0" points="243.2,393.8 80.9,350 80.9,84 0,63.3 0,410.9 243.2,477.3 "/>
<polygon class="st1" points="276.1,50.1 80.9,0 80.9,84 206,115.8 243.2,172.7 243.2,393.8 325,415.9 325,123.6 "/>
<path class="st2" d="M590.6,234c-4.8,8.9-12.3,16-22.6,21.5s-23.2,8.2-38.8,8.2h-31.8v72.9h-38.1V146.7h69.9
	c14.7,0,27.2,2.5,37.5,7.6c10.3,5.1,18.1,12.1,23.3,20.9c5.2,8.9,7.8,19,7.8,30.2C597.8,215.6,595.4,225.1,590.6,234L590.6,234z
	 M551.1,225.7c5.1-4.8,7.6-11.6,7.6-20.3c0-18.5-10.3-27.7-31-27.7h-30.2v55.2h30.2C538.2,232.9,546,230.5,551.1,225.7L551.1,225.7z
	"/>
<path class="st2" d="M743.8,158.4c15.1,7.8,26.8,18.9,35.1,33.3c8.2,14.4,12.4,31.1,12.4,50.2s-4.1,35.7-12.4,49.9
	c-8.2,14.2-19.9,25.2-35.1,33s-32.7,11.7-52.6,11.7h-66.4V146.7h66.4C711.1,146.7,728.6,150.6,743.8,158.4L743.8,158.4z M736,287.9
	c10.9-10.9,16.3-26.2,16.3-46s-5.4-35.2-16.3-46.4c-10.9-11.1-26.3-16.7-46.2-16.7h-26.9v125.4h26.9
	C709.7,304.2,725.1,298.7,736,287.9L736,287.9z"/>
<path class="st2" d="M937,146.7v30.7h-79.2v48.7h60.7v30.2h-60.7v80.2h-38.1V146.7L937,146.7L937,146.7z"/>
<path class="st2" d="M952.8,332.1c-4.4-4.3-6.7-9.6-6.7-15.9s2.2-11.7,6.7-15.9c4.4-4.3,10.1-6.4,17-6.4s12.2,2.1,16.6,6.4
	s6.5,9.6,6.5,15.9s-2.2,11.7-6.5,15.9c-4.3,4.3-9.9,6.4-16.6,6.4S957.2,336.3,952.8,332.1z"/>
<path class="st2" d="M1023.4,220.3c6.3-11.7,15.1-20.8,26.4-27.2c11.2-6.4,24.1-9.7,38.6-9.7c18.7,0,34.1,4.7,46.4,14
	c12.2,9.3,20.4,22.4,24.6,39.3h-41.1c-2.2-6.5-5.8-11.7-11-15.4c-5.2-3.7-11.6-5.6-19.2-5.6c-10.9,0-19.5,3.9-25.8,11.8
	s-9.5,19.1-9.5,33.6s3.2,25.4,9.5,33.3s15,11.8,25.8,11.8c15.4,0,25.5-6.9,30.2-20.7h41.1c-4.2,16.3-12.4,29.3-24.8,38.9
	c-12.3,9.6-27.7,14.4-46.2,14.4c-14.5,0-27.4-3.2-38.6-9.7c-11.2-6.4-20-15.5-26.4-27.2c-6.3-11.7-9.5-25.3-9.5-40.9
	S1017,232,1023.4,220.3L1023.4,220.3z"/>
<path class="st2" d="M1215.2,329.4c-11.6-6.4-20.7-15.5-27.3-27.3c-6.6-11.8-9.9-25.4-9.9-40.8s3.4-29,10.2-40.8
	c6.8-11.8,16.1-20.9,27.9-27.3c11.8-6.4,24.9-9.7,39.4-9.7s27.7,3.2,39.4,9.7c11.8,6.4,21.1,15.6,27.9,27.3s10.2,25.4,10.2,40.8
	s-3.5,29-10.5,40.8c-7,11.8-16.4,20.9-28.3,27.3s-25.2,9.7-39.8,9.7S1226.7,335.8,1215.2,329.4L1215.2,329.4z M1273.8,300.8
	c6.1-3.3,10.9-8.4,14.6-15.1c3.6-6.7,5.4-14.9,5.4-24.5c0-14.3-3.8-25.3-11.3-33c-7.5-7.7-16.7-11.6-27.6-11.6s-20,3.8-27.3,11.6
	c-7.3,7.7-11,18.7-11,33s3.6,25.3,10.7,33c7.2,7.7,16.2,11.6,27.1,11.6C1261.2,305.8,1267.7,304.2,1273.8,300.8L1273.8,300.8z"/>
</svg>
