<svg enable-background="new 0 0 128 28" viewBox="0 0 128 28" x="0px" xml:space="preserve" xmlns="http://www.w3.org/2000/svg" y="0px">
<path d="M0,13.5c0-0.1,0.1-0.3,0.1-0.5c0.2-2,0.8-3.9,1.7-5.6c0,0,0,0,0-0.1c0.6,0.9,1.5,1.5,2.5,1.8
	c-1.5,2.8-1.8,5.7-0.7,8.6c0.8,2.3,2.3,4.2,4.3,5.5c5,3.2,11.6,1.8,14.8-3.1s1.8-11.6-3.1-14.8c-2.7-1.7-5.9-2.2-9-1.3
	C10.5,3,10,2,9.3,1.2c0.6-0.2,1.2-0.4,1.8-0.5c0.6-0.1,1.2-0.2,1.8-0.2c0,0,0.1,0,0.1,0h1.7c0.1,0,0.3,0.1,0.4,0.1
	c2.2,0.2,4.4,0.9,6.2,2.1c5,3.2,7.4,9.2,6,14.9c-1.5,5.7-6.4,9.9-12.3,10.4c-0.2,0-0.3,0-0.5,0.1h-0.2c0,0,0,0-0.1,0h-0.8
	c0,0-0.1,0-0.1,0H13c0-0.1-0.1,0-0.1,0C6.1,27.5,0.6,22.1,0.1,15.3c0-0.1,0-0.3-0.1-0.4v-0.3c0.1-0.1,0-0.2,0-0.4c0-0.1,0-0.3,0-0.4
	L0,13.5z" fill="#040B1B"></path>
<path d="M13.4,28C13.4,27.9,13.4,27.9,13.4,28l0.9,0c0,0,0.1,0,0.1,0H13.4z" fill="#040B1B"></path>
<path d="M0,13.8c0.1,0.1,0,0.3,0,0.4c0,0.1,0,0.2,0,0.4L0,13.8z" fill="#040B1B"></path>
<path d="M21.1,14.1c0,4.1-3.3,7.3-7.4,7.3c-4,0-7.3-3.3-7.3-7.4c0.1-4.1,3.4-7.3,7.5-7.3C17.8,6.9,21,10.2,21.1,14.1
	L21.1,14.1z" fill="#040B1B"></path>
<path d="M5.8,8.5c-2.2,0-3.9-1.7-4-3.8c0-2.2,1.7-3.9,3.8-4c0,0,0.1,0,0.1,0c2.2,0,3.9,1.8,3.9,3.9S8,8.5,5.8,8.5z" fill="#040B1B"></path>
<path d="M31.3,28V5.9H34v1.4c0.2-0.2,0.4-0.4,0.6-0.5c0.9-0.7,1.9-1.1,3.1-1.2c1.3-0.1,2.6,0,3.8,0.6
	c1.6,0.7,2.6,2,3.3,3.6c0.6,1.4,0.8,2.9,0.7,4.5c0,1.2-0.3,2.4-0.9,3.6c-0.8,1.6-1.9,2.8-3.7,3.4c-2,0.7-3.9,0.6-5.8-0.5
	c-0.3-0.2-0.6-0.4-0.8-0.6V28L31.3,28z M42.3,13.9c0-1.3-0.1-2.2-0.5-3.1c-0.9-2.2-3.2-3.2-5.4-2.3c-1,0.4-1.7,1.2-2,2.2
	c-0.6,1.8-0.6,3.6-0.1,5.3c0.2,0.8,0.6,1.5,1.2,2c1,0.8,2.1,1,3.3,0.8c1.3-0.2,2.2-1,2.8-2.1C42.1,15.8,42.3,14.9,42.3,13.9
	L42.3,13.9z" fill="#040B1B"></path>
<path d="M59.3,0.4L59.3,0.4l-3,0v0H59.3z" fill="#040B1B"></path>
<path d="M128,8.7L128,8.7c0-0.9,0-1.8,0-2.8h0L128,8.7z" fill="#040B1B"></path>
<path d="M105.7,14.4H94.3c0.2,1.5,0.6,2.9,2,3.8c0.7,0.5,1.6,0.6,2.5,0.6c1,0,1.9-0.3,2.7-0.9
	c0.5-0.4,0.9-0.9,1.1-1.4l0.1-0.2l2.9,0.9c0,0.1-0.1,0.2-0.1,0.3c-1,2.1-2.7,3.3-4.9,3.8c-1.8,0.4-3.6,0.2-5.2-0.6
	c-2-0.9-3.2-2.5-3.8-4.6c-0.3-1.2-0.4-2.4-0.3-3.6c0.1-1.1,0.4-2.3,0.8-3.3c1.1-2.2,2.8-3.4,5.2-3.8c1.4-0.3,2.8-0.1,4.1,0.3
	c1.8,0.6,3,1.9,3.7,3.6c0.4,1.1,0.7,2.2,0.7,3.3C105.8,13.3,105.8,13.8,105.7,14.4z M102.7,12C102.7,11.9,102.7,11.9,102.7,12
	c-0.1-0.6-0.2-1-0.3-1.4c-0.4-1.1-1.1-1.9-2.2-2.2c-0.6-0.2-1.3-0.2-2-0.2c-1,0.1-1.9,0.4-2.6,1.1c-0.5,0.5-0.8,1.1-1,1.7
	c-0.1,0.3-0.2,0.7-0.2,1H102.7z" fill="#040B1B"></path>
<path d="M77.7,13.6c0,1.5-0.3,2.9-1,4.3c-1.1,2-2.8,3.2-5.1,3.6c-1.5,0.3-3,0.1-4.4-0.4c-1.9-0.7-3.2-2.1-3.9-4
	c-0.5-1.3-0.7-2.6-0.6-4c0.1-1.3,0.3-2.6,0.9-3.7c1.1-2.1,2.8-3.4,5.1-3.8c1.5-0.3,3-0.1,4.4,0.4c1.9,0.8,3.2,2.2,4,4.1
	C77.5,11.2,77.7,12.4,77.7,13.6z M74.5,13.5c0-0.9-0.1-1.7-0.4-2.5c-0.4-1.1-1-1.9-2.1-2.4c-0.7-0.3-1.5-0.4-2.3-0.3
	c-1.6,0.1-2.7,0.8-3.4,2.3c-0.3,0.8-0.5,1.6-0.5,2.4c-0.1,1.1,0,2.1,0.4,3.1c0.4,1.1,1.1,1.9,2.1,2.4c0.7,0.3,1.4,0.4,2.2,0.3
	c1.6-0.1,2.7-0.9,3.4-2.3C74.4,15.5,74.5,14.6,74.5,13.5z" fill="#040B1B"></path>
<path d="M89.5,18.7v2.5c-0.3,0.1-0.6,0.1-0.9,0.2c-0.9,0.1-1.8,0.1-2.7,0c-0.8-0.1-1.6-0.3-2.2-0.8
	c-0.8-0.7-1.4-1.6-1.5-2.7C81.9,17,82,16.1,82,15.2c0-2.3,0-4.6,0-6.8c0,0,0-0.1,0-0.1h-2.9V5.9H82V1.7h2.9v4.2h4.5v2.4H85
	c0,0,0,0.1,0,0.1c0,2.6,0,5.2,0,7.8c0,0.4,0,0.7,0.1,1.1c0.2,0.9,0.8,1.4,1.7,1.5s1.7,0.1,2.6,0L89.5,18.7z" fill="#040B1B"></path>
<path d="M56.4,0.4h3c0,0.1,0,0.1,0,0.2v20.6h-3c0,0,0-0.1,0-0.1c0-6.8,0-13.7,0-20.5C56.4,0.5,56.4,0.5,56.4,0.4z" fill="#040B1B"></path>
<path d="M108.9,5.9h2.6v2.4c0.6-0.9,1.4-1.7,2.4-2.1c1-0.4,2.1-0.5,3.2-0.3v2.8c-0.2,0-0.4-0.1-0.7-0.1
	c-2.1-0.2-3.8,1-4.3,3c-0.2,0.7-0.3,1.5-0.2,2.3v7.3h-3V5.9z" fill="#040B1B"></path>
<path d="M128,5.9c0,0.9,0,1.8,0,2.8c-0.3-0.1-0.6-0.1-0.9-0.1c-2,0-3.6,1.1-4.1,3.1c-0.2,0.7-0.3,1.5-0.2,2.3v7.3h-3
	V5.9h2.6v2.5c0-0.1,0.1-0.1,0.1-0.2c0.8-1.3,1.9-2,3.4-2.3C126.6,5.8,127.3,5.8,128,5.9z" fill="#040B1B"></path>
<path d="M51.8,21.2h-3V5.9h3V21.2z" fill="#040B1B"></path>
<path d="M51.8,3.3h-2.9V0.5h2.9V3.3z" fill="#040B1B"></path>
</svg>