<svg width="400" height="400" viewBox="0 0 400 400" fill="none" xmlns="http://www.w3.org/2000/svg">
<path fill-rule="evenodd" clip-rule="evenodd" d="M200 350C282.843 350 350 282.843 350 200C350 117.157 282.843 50 200 50C117.157 50 50 117.157 50 200C50 282.843 117.157 350 200 350ZM175.355 121.469C181.234 114.945 193.418 105.5 214.488 105.5C250.669 105.5 275 133.875 275 176.101C275 217.667 249.375 246.689 212.724 246.689C195.25 246.689 184.063 239.289 178.207 233.916C178.246 235.189 178.275 236.611 178.275 238.132V294.5H140.777V144.317C140.777 142.14 140.076 141.445 137.893 141.445H125V108.555H156.458C170.945 108.555 174.657 115.848 175.355 121.469ZM177.512 176.866C177.512 194.755 186.684 214.062 206.871 214.062C221.844 214.062 236.978 202.499 236.978 176.603C236.978 153.893 225.073 138.648 207.37 138.648C192.939 138.648 177.512 148.69 177.512 176.866Z" fill="#017737"/>
</svg>
