<svg xmlns="http://www.w3.org/2000/svg" xmlns:xlink="http://www.w3.org/1999/xlink" height="800" width="1200" id="svg18587" xml:space="preserve" version="1.1" viewBox="-131.74875 -47.9105 1141.8225 287.463"><style id="style18549" type="text/css">.st0{clip-path:url(#SVGID_2_);fill:#203232}</style><g id="g18585" transform="translate(-110.898 -86.746) scale(1.4291)"><defs id="defs18552"><path id="SVGID_1_" d="M0 0h755.8v253.2H0z"/></defs><clipPath id="SVGID_2_"><use y="0" x="0" id="use18554" xlink:href="#SVGID_1_" height="100%" width="100%"/></clipPath><g id="g18583" fill="#203232"><path id="path18557" clip-path="url(#SVGID_2_)" d="M128.3 87.8c-11.9 0-18.8 5.4-22.1 9-.4-3.2-2.5-7.3-10.7-7.3H77.6v18.6h7.3c1.2 0 1.6.4 1.6 1.6v85.1h21.2v-34.2c3.3 3 9.6 7.2 19.5 7.2 20.7 0 35.2-16.4 35.2-40 .1-23.9-13.7-40-34.1-40m-4.3 61.5c-11.4 0-16.6-10.9-16.6-21.1 0-16 8.7-21.7 16.9-21.7 10 0 16.8 8.6 16.8 21.5-.1 14.8-8.7 21.3-17.1 21.3" class="st0"/><path id="path18559" clip-path="url(#SVGID_2_)" d="M191 146v-45.1c0-7.6-3.7-11.3-11.2-11.3h-19v18.6h7.3c1.2 0 1.6.4 1.6 1.6v44.9c0 7.7 3.6 11.3 11.2 11.3h19v-18.5h-7.3c-1.1.1-1.6-.4-1.6-1.5" class="st0"/><path id="path18561" clip-path="url(#SVGID_2_)" d="M246.4 87.8c-11.9 0-18.8 5.4-22.2 9-.4-3.2-2.5-7.3-10.7-7.3h-17.8v18.6h7.3c1.2 0 1.6.4 1.6 1.6v85.1H226v-34.2c3.3 3 9.7 7.2 19.5 7.2 20.7 0 35.2-16.4 35.2-40 0-23.9-13.8-40-34.3-40m-4.3 61.5c-11.4 0-16.6-10.9-16.6-21.1 0-16 8.7-21.7 16.9-21.7 10 0 16.8 8.6 16.8 21.5 0 14.8-8.6 21.3-17.1 21.3" class="st0"/><path id="path18563" clip-path="url(#SVGID_2_)" d="M320.6 87.8c-22.9 0-38.8 16.5-38.8 40 0 23.2 17.2 40 41 40 18.7 0 30.1-11.1 30.6-11.5l.9-.8-9.2-15.3-1.4 1.3c-.1.1-8.5 7.8-19.6 7.8-10.6 0-18.4-6.5-20.3-16.7h50.3l.1-1.4c0-.2.5-4.7.5-6.9 0-21.8-13.7-36.5-34.1-36.5m-16 29c2.3-7.5 8.1-11.8 16-11.8 6.4 0 11.3 4.9 12.2 11.8z" class="st0"/><path id="path18565" clip-path="url(#SVGID_2_)" d="M431.9 146V72.1c0-7.6-3.7-11.3-11.3-11.3h-19v18.6h7.3c1.2 0 1.6.4 1.6 1.6v13.4c-3.1-2.8-9.2-6.5-19.8-6.5-20.6 0-35 16.5-35 40 0 23.9 13.8 40 34.2 40 11.7 0 18.5-5.4 21.8-9.2.4 3.3 2.6 7.5 10.5 7.5h18.4v-18.5h-7.1c-1.2-.1-1.6-.6-1.6-1.7m-37.9 3.3c-10.1 0-16.6-8.4-16.6-21.5 0-12.7 6.8-21.2 16.9-21.2 11.5 0 16.6 10.6 16.6 21.1 0 16-8.7 21.6-16.9 21.6" class="st0"/><path id="path18567" clip-path="url(#SVGID_2_)" d="M487.9 88.5c-8.8 0-17 5.1-21.8 13.2V100c0-6.9-3.8-10.5-11.3-10.5h-18.2v18.6h7.3c1.2 0 1.6.4 1.6 1.6V166h21.2v-30.6c0-4 .5-7.9 1.5-11.5 3.2-10.6 11.7-14.3 18.5-14.3 2.4 0 4.2.3 4.2.3l1.8.3V89.1l-1.3-.2c0-.1-1.8-.4-3.5-.4" class="st0"/><path id="path18569" clip-path="url(#SVGID_2_)" d="M522.9 146v-45.1c0-7.6-3.7-11.3-11.2-11.3h-17.2v18.6h5.5c1.2 0 1.6.4 1.6 1.6v44.9c0 7.7 3.6 11.3 11.2 11.3h19v-18.5h-7.3c-1.1.1-1.6-.4-1.6-1.5" class="st0"/><path id="path18571" clip-path="url(#SVGID_2_)" d="M603 89.6h-11.3c-6.6 0-10.2 2.3-12.3 7.9l-13.8 38.6c-.5 1.4-.9 3-1.3 4.6-.4-1.5-.9-3.2-1.4-4.6l-13.8-38.6c-2.1-5.7-5.5-7.9-12.3-7.9h-12v18.6h3.1c1.7 0 2.2.6 2.6 1.6l21.4 56.3h23.9l21.4-56.3c.4-1 .9-1.6 2.6-1.6h3.3V89.6z" class="st0"/><path id="path18573" clip-path="url(#SVGID_2_)" d="M639.6 87.8c-22.9 0-38.8 16.5-38.8 40 0 23.2 17.2 40 41 40 18.7 0 30.1-11.1 30.6-11.5l.9-.8-9.2-15.3-1.4 1.3c-.1.1-8.5 7.8-19.5 7.8-10.6 0-18.4-6.5-20.3-16.7h50.3l.1-1.4c0-.2.4-4.7.4-6.9 0-21.8-13.7-36.5-34.1-36.5m-16 29c2.3-7.5 8.1-11.8 16-11.8 6.4 0 11.3 4.9 12.2 11.8z" class="st0"/><path id="rect18575" clip-path="url(#SVGID_2_)" class="st0" d="M170.6 60.7h18.9v19.9h-18.9z"/><path id="rect18577" clip-path="url(#SVGID_2_)" class="st0" d="M502.6 60.7h18.9v19.9h-18.9z"/><path id="polygon18579" clip-path="url(#SVGID_2_)" class="st0" d="M676.1 97.2h2.1v-7.6h2.8v-1.8h-7.7v1.8h2.8z"/><path id="polygon18581" clip-path="url(#SVGID_2_)" class="st0" d="M685 87.8h-2.9v9.4h1.9v-6.6h.1l2.3 6.6h1.6l2.3-6.6v6.6h1.9v-9.4h-2.9l-2.1 6.5z"/></g></g></svg>