<svg width="500" height="500" viewBox="0 0 500 500" fill="none" xmlns="http://www.w3.org/2000/svg">
<path d="M102.8 342C102.8 260.695 168.695 194.8 250 194.8C331.305 194.8 397.2 260.695 397.2 342H434C434 240.378 351.622 158 250 158C148.378 158 66 240.378 66 342H102.8Z" fill="url(#paint0_linear_3731_287529)"/>
<path d="M102.8 342C102.8 260.695 168.695 194.8 250 194.8C331.305 194.8 397.2 260.695 397.2 342H434C434 240.378 351.622 158 250 158C148.378 158 66 240.378 66 342H102.8Z" fill="url(#paint1_linear_3731_287529)" fill-opacity="0.6"/>
<path d="M342 342C342 291.189 300.811 250 250 250C199.189 250 158 291.189 158 342H121.2C121.2 270.872 178.873 213.2 250 213.2C321.128 213.2 378.8 270.872 378.8 342H342Z" fill="url(#paint2_linear_3731_287529)"/>
<path d="M342 342C342 291.189 300.811 250 250 250C199.189 250 158 291.189 158 342H121.2C121.2 270.872 178.873 213.2 250 213.2C321.128 213.2 378.8 270.872 378.8 342H342Z" fill="url(#paint3_linear_3731_287529)" fill-opacity="0.6"/>
<path d="M213.2 342C213.2 321.683 229.684 305.2 250 305.2C270.317 305.2 286.8 321.683 286.8 342H323.6C323.6 301.348 290.653 268.4 250 268.4C209.348 268.4 176.4 301.348 176.4 342H213.2Z" fill="url(#paint4_linear_3731_287529)"/>
<path d="M213.2 342C213.2 321.683 229.684 305.2 250 305.2C270.317 305.2 286.8 321.683 286.8 342H323.6C323.6 301.348 290.653 268.4 250 268.4C209.348 268.4 176.4 301.348 176.4 342H213.2Z" fill="url(#paint5_linear_3731_287529)" fill-opacity="0.6"/>
<defs>
<linearGradient id="paint0_linear_3731_287529" x1="66" y1="342" x2="434" y2="342" gradientUnits="userSpaceOnUse">
<stop offset="0.21875" stop-color="#FF2991"/>
<stop offset="0.791667" stop-color="#9429FF"/>
</linearGradient>
<linearGradient id="paint1_linear_3731_287529" x1="250" y1="434.096" x2="250" y2="196.333" gradientUnits="userSpaceOnUse">
<stop stop-color="white"/>
<stop offset="0.22" stop-color="white" stop-opacity="0.76"/>
<stop offset="0.6" stop-color="white" stop-opacity="0.36"/>
<stop offset="0.87" stop-color="white" stop-opacity="0.1"/>
<stop offset="1" stop-color="white" stop-opacity="0"/>
</linearGradient>
<linearGradient id="paint2_linear_3731_287529" x1="66" y1="342" x2="434" y2="342" gradientUnits="userSpaceOnUse">
<stop offset="0.21875" stop-color="#FF2991"/>
<stop offset="0.791667" stop-color="#9429FF"/>
</linearGradient>
<linearGradient id="paint3_linear_3731_287529" x1="250" y1="434.096" x2="250" y2="196.333" gradientUnits="userSpaceOnUse">
<stop stop-color="white"/>
<stop offset="0.22" stop-color="white" stop-opacity="0.76"/>
<stop offset="0.6" stop-color="white" stop-opacity="0.36"/>
<stop offset="0.87" stop-color="white" stop-opacity="0.1"/>
<stop offset="1" stop-color="white" stop-opacity="0"/>
</linearGradient>
<linearGradient id="paint4_linear_3731_287529" x1="66" y1="342" x2="434" y2="342" gradientUnits="userSpaceOnUse">
<stop offset="0.21875" stop-color="#FF2991"/>
<stop offset="0.791667" stop-color="#9429FF"/>
</linearGradient>
<linearGradient id="paint5_linear_3731_287529" x1="250" y1="434.096" x2="250" y2="196.333" gradientUnits="userSpaceOnUse">
<stop stop-color="white"/>
<stop offset="0.22" stop-color="white" stop-opacity="0.76"/>
<stop offset="0.6" stop-color="white" stop-opacity="0.36"/>
<stop offset="0.87" stop-color="white" stop-opacity="0.1"/>
<stop offset="1" stop-color="white" stop-opacity="0"/>
</linearGradient>
</defs>
</svg>
