<svg width="500" height="500" viewBox="0 0 500 500" fill="none" xmlns="http://www.w3.org/2000/svg">
<g clip-path="url(#clip0_1324_2176)">
<circle cx="250" cy="250" r="250" fill="#FFDE00"/>
<path d="M173 344.234H186.19C192.963 344.234 197.242 339.862 197.242 332.942V178.523C197.242 171.603 192.963 167.233 186.19 167.233H173.002V133H268.534C319.864 133 360.502 159.587 360.502 210.208C360.502 261.197 319.864 287.783 268.534 287.783H235.738V332.942C235.738 339.862 240.018 344.234 247.145 344.234H273.881V378.833H173.002L173 344.234ZM265.681 252.092C299.547 252.092 319.15 237.523 319.15 210.937C319.15 183.623 299.547 169.784 265.681 169.784H235.738V252.455H265.681V252.092Z" fill="black"/>
</g>
<defs>
<clipPath id="clip0_1324_2176">
<rect width="500" height="500" fill="white"/>
</clipPath>
</defs>
</svg>
