<svg xmlns="http://www.w3.org/2000/svg" width="172" height="27" viewBox="0 0 172 27" fill="none"><path d="M14.1368 2.558L9.1522 8.07405L8.12685 6.93938C7.67865 6.44339 7.67865 5.63923 8.12685 5.14324L11.4884 1.42333C11.9366 0.927336 12.6633 0.927337 13.1115 1.42333L14.1368 2.558Z" fill="#2DA01D"></path><path d="M9.13308 19.0106L14.1177 24.5267L13.1115 25.6402C12.6633 26.1362 11.9366 26.1362 11.4884 25.6402L8.12685 21.9203C7.67864 21.4243 7.67864 20.6202 8.12685 20.1242L9.13308 19.0106Z" fill="#2DA01D"></path><path d="M7.36445 10.0524L5.89192 11.6819C4.95815 12.7153 4.95816 14.3906 5.89192 15.4239L7.33057 17.016L6.32077 18.1334C5.87256 18.6294 5.14587 18.6294 4.69767 18.1334L1.33615 14.4135C0.887948 13.9175 0.887949 13.1134 1.33616 12.6174L4.69767 8.89745C5.14588 8.40146 5.87256 8.40146 6.32077 8.89745L7.36445 10.0524Z" fill="#2DA01D"></path><path d="M20.4932 2.62551L15.5086 8.14157L14.4223 6.93938C13.9741 6.44339 13.9741 5.63923 14.4223 5.14324L17.7838 1.42333C18.232 0.927336 18.9587 0.927337 19.4069 1.42333L20.4932 2.62551Z" fill="#2DA01D"></path><path d="M15.4895 18.9431L20.4741 24.4592L19.4069 25.6402C18.9587 26.1362 18.232 26.1362 17.7838 25.6402L14.4222 21.9203C13.974 21.4243 13.974 20.6202 14.4223 20.1242L15.4895 18.9431Z" fill="#2DA01D"></path><path d="M13.7209 10.1199L12.3093 11.6819C11.3756 12.7153 11.3756 14.3906 12.3093 15.4239L13.687 16.9484L12.6162 18.1334C12.168 18.6294 11.4413 18.6294 10.9931 18.1334L7.63156 14.4135C7.18335 13.9175 7.18335 13.1134 7.63156 12.6174L10.9931 8.89745C11.4413 8.40146 12.168 8.40146 12.6162 8.89745L13.7209 10.1199Z" fill="#2DA01D"></path><path d="M24.3101 1.37199C24.7583 0.876003 25.485 0.876001 25.9332 1.37199L35.5879 12.0561C36.335 12.8828 36.335 14.2231 35.5879 15.0497L25.9332 25.7339C25.485 26.2299 24.7583 26.2299 24.3101 25.7339L14.1142 14.451C13.666 13.955 13.666 13.1508 14.1142 12.6549L24.3101 1.37199Z" fill="#2DA01D"></path><path d="M48.1916 21.2004V16.0733H51.8107C54.6543 16.0733 56.5716 13.5959 56.5716 10.9893C56.5716 8.49037 54.5251 5.90527 51.703 5.90527H45.2188V21.2004H48.1916ZM48.1916 8.51191H51.5091C52.5647 8.51191 53.5557 9.41669 53.5557 10.9893C53.5557 12.4973 52.7371 13.4667 51.6384 13.4667H48.1916V8.51191Z" fill="#2F363E"></path><path d="M61.5715 21.2004V16.0733H64.5013L67.7111 21.2004H71.0717L67.4741 15.4486C69.1544 14.7377 70.2315 12.9497 70.2315 10.9893C70.2315 8.49037 68.185 5.90527 65.363 5.90527H58.5986V21.2004H61.5715ZM61.5715 8.51191H65.1691C66.2247 8.51191 67.2371 9.56749 67.2371 10.9893C67.2371 12.368 66.397 13.4667 65.2983 13.4667H61.5715V8.51191Z" fill="#2F363E"></path><path d="M76.0874 18.5938V14.6084H82.5286V12.1957H76.0874V8.51191H83.5411V5.90527H73.1145V21.2004H83.735V18.5938H76.0874Z" fill="#2F363E"></path><path d="M89.0886 21.2004V16.0733H92.0184L95.2282 21.2004H98.5888L94.9912 15.4486C96.6715 14.7377 97.7487 12.9497 97.7487 10.9893C97.7487 8.49037 95.7021 5.90527 92.8801 5.90527H86.1157V21.2004H89.0886ZM89.0886 8.51191H92.6862C93.7418 8.51191 94.7543 9.56749 94.7543 10.9893C94.7543 12.368 93.9141 13.4667 92.8154 13.4667H89.0886V8.51191Z" fill="#2F363E"></path><path d="M103.605 18.5938V14.6084H110.046V12.1957H103.605V8.51191H111.058V5.90527H100.632V21.2004H111.252V18.5938H103.605Z" fill="#2F363E"></path><path d="M124.469 21.2004H126.881V5.92682H123.909V15.9441L115.938 5.90527H113.633V21.2004H116.606V11.3986L124.469 21.2004Z" fill="#2F363E"></path><path d="M135.621 21.2004C140.21 21.2004 143.161 18.1629 143.161 13.5313C143.161 9.30898 140.619 5.90527 135.621 5.90527H130.063V21.2004H135.621ZM140.167 13.5313C140.167 16.418 138.551 18.5938 135.621 18.5938H133.036V8.51191H135.621C138.508 8.51191 140.167 10.58 140.167 13.5313Z" fill="#2F363E"></path><path d="M148.499 18.5938V14.6084H154.94V12.1957H148.499V8.51191H155.952V5.90527H145.526V21.2004H156.146V18.5938H148.499Z" fill="#2F363E"></path><path d="M161.5 21.2004V16.0733H164.43L167.639 21.2004H171L167.402 15.4486C169.083 14.7377 170.16 12.9497 170.16 10.9893C170.16 8.49037 168.113 5.90527 165.291 5.90527H158.527V21.2004H161.5ZM161.5 8.51191H165.097C166.153 8.51191 167.165 9.56749 167.165 10.9893C167.165 12.368 166.325 13.4667 165.227 13.4667H161.5V8.51191Z" fill="#2F363E"></path></svg>