<svg width="256" height="58" viewBox="0 0 256 58" fill="none" xmlns="http://www.w3.org/2000/svg">
<path d="M57.2749 40.1532H62.5796V32.0728H67.039C72.8092 32.0728 76.166 28.6532 76.166 23.676C76.166 18.7231 72.8705 15.2305 67.1737 15.2305H57.2749V40.1532ZM62.5796 27.85V19.5384H66.1569C69.2197 19.5384 70.702 21.1934 70.702 23.676C70.702 26.1463 69.2197 27.85 66.1814 27.85H62.5796Z" fill="white"/>
<path d="M79.1686 40.1532H84.3875V29.5781C84.3875 27.2781 86.0781 25.6961 88.3813 25.6961C89.1041 25.6961 90.0964 25.8178 90.5865 25.976V21.376C90.1209 21.2664 89.4716 21.1934 88.9448 21.1934C86.8377 21.1934 85.1103 22.4104 84.4242 24.7225H84.2282V21.4612H79.1686V40.1532Z" fill="white"/>
<path d="M100.566 40.5183C106.275 40.5183 109.828 36.6363 109.828 30.8802C109.828 25.0876 106.275 21.2178 100.566 21.2178C94.857 21.2178 91.3043 25.0876 91.3043 30.8802C91.3043 36.6363 94.857 40.5183 100.566 40.5183ZM100.591 36.5024C97.9565 36.5024 96.6089 34.1051 96.6089 30.8437C96.6089 27.5823 97.9565 25.1728 100.591 25.1728C103.175 25.1728 104.523 27.5823 104.523 30.8437C104.523 34.1051 103.175 36.5024 100.591 36.5024Z" fill="white"/>
<path d="M119.81 40.4575C122.849 40.4575 124.429 38.7172 125.152 37.1596H125.372V40.1532H130.518V15.2305H125.311V24.6008H125.152C124.453 23.0797 122.947 21.2178 119.798 21.2178C115.67 21.2178 112.178 24.4061 112.178 30.8315C112.178 37.0866 115.522 40.4575 119.81 40.4575ZM121.464 36.3321C118.904 36.3321 117.507 34.0686 117.507 30.8072C117.507 27.5701 118.879 25.3432 121.464 25.3432C124 25.3432 125.421 27.4728 125.421 30.8072C125.421 34.1416 123.976 36.3321 121.464 36.3321Z" fill="white"/>
<path d="M146.531 32.1945C146.543 34.7014 144.816 36.0157 142.941 36.0157C140.969 36.0157 139.695 34.6405 139.683 32.4379V21.4612H134.464V33.3627C134.476 37.7315 137.049 40.3966 140.834 40.3966C143.664 40.3966 145.698 38.9485 146.543 36.758H146.739V40.1532H151.75V21.4612H146.531V32.1945Z" fill="white"/>
<path d="M164.081 40.5183C169.092 40.5183 172.241 37.5977 172.486 33.3019H167.561C167.254 35.2977 165.931 36.4172 164.143 36.4172C161.705 36.4172 160.124 34.385 160.124 30.8072C160.124 27.2781 161.717 25.258 164.143 25.258C166.054 25.258 167.279 26.5114 167.561 28.3733H172.486C172.265 24.0532 168.97 21.2178 164.057 21.2178C158.348 21.2178 154.82 25.1485 154.82 30.8802C154.82 36.5633 158.287 40.5183 164.081 40.5183Z" fill="white"/>
<path d="M185.491 21.4612H181.951V16.9828H176.732V21.4612H174.159V25.3553H176.732V35.0908C176.707 38.7537 179.219 40.567 183.004 40.4088C184.352 40.3601 185.307 40.0924 185.834 39.922L185.013 36.0643C184.756 36.113 184.205 36.2347 183.715 36.2347C182.673 36.2347 181.951 35.8453 181.951 34.4093V25.3553H185.491V21.4612Z" fill="white"/>
<path d="M194.169 15.2305H188.95V40.1532H194.169V15.2305Z" fill="white"/>
<path d="M203.371 40.5061C206.152 40.5061 207.952 39.3014 208.871 37.5612H209.018V40.1532H213.968V27.5458C213.968 23.0918 210.17 21.2178 205.98 21.2178C201.472 21.2178 198.507 23.3596 197.784 26.767L202.611 27.1564C202.966 25.9151 204.081 25.0024 205.956 25.0024C207.732 25.0024 208.749 25.8908 208.749 27.4241V27.4971C208.749 28.7019 207.462 28.8601 204.191 29.1765C200.467 29.5172 197.123 30.7585 197.123 34.9326C197.123 38.6321 199.781 40.5061 203.371 40.5061ZM204.865 36.9283C203.26 36.9283 202.109 36.186 202.109 34.7622C202.109 33.3019 203.322 32.5839 205.159 32.3283C206.299 32.1701 208.161 31.9024 208.786 31.4887V33.4723C208.786 35.4315 207.156 36.9283 204.865 36.9283Z" fill="white"/>
<path d="M222.891 29.3469C222.903 26.9373 224.348 25.5257 226.456 25.5257C228.551 25.5257 229.812 26.8887 229.8 29.1765V40.1532H235.019V28.2516C235.019 23.895 232.446 21.2178 228.526 21.2178C225.733 21.2178 223.711 22.5807 222.866 24.759H222.646V21.4612H217.672V40.1532H222.891V29.3469Z" fill="white"/>
<path d="M247.363 40.5183C252.018 40.5183 255.155 38.267 255.89 34.7987L251.063 34.4823C250.536 35.9061 249.188 36.6485 247.449 36.6485C244.839 36.6485 243.185 34.9326 243.185 32.1458V32.1336H256V30.7098C256 24.3575 252.129 21.2178 247.155 21.2178C241.617 21.2178 238.028 25.1241 238.028 30.8924C238.028 36.8188 241.568 40.5183 247.363 40.5183ZM243.185 28.9209C243.296 26.7913 244.925 25.0876 247.241 25.0876C249.507 25.0876 251.075 26.694 251.087 28.9209H243.185Z" fill="white"/>
<path fill-rule="evenodd" clip-rule="evenodd" d="M9.66126 36.544L29.9049 15.9771L32.9144 19.0412L32.5434 19.4181H33.5388V32.8526C33.5388 33.4269 33.3145 33.9777 32.9152 34.3838L20.2263 47.2893L26.252 53.4179C26.8609 54.0372 27.0431 54.9686 26.7136 55.7778C26.384 56.587 25.6076 57.1146 24.7465 57.1146H2.12917C0.953261 57.1146 0 56.1451 0 54.9491V31.9458C0 31.07 0.518755 30.2803 1.31437 29.9452C2.10999 29.61 3.02578 29.7953 3.63472 30.4146L9.66126 36.544ZM29.2805 22.7331L11.1652 41.1377C10.3336 41.9826 8.98607 41.9823 8.15489 41.1369L4.25834 37.1738V52.7836H19.6062L15.7096 48.8206C14.8781 47.9749 14.8781 46.6038 15.7096 45.7581L29.2805 31.9556V22.7331Z" fill="#16BDCA"/>
<path fill-rule="evenodd" clip-rule="evenodd" d="M14.3565 1.3368C14.6861 0.527609 15.4624 0 16.3236 0H38.9409C40.1168 0 41.07 0.969531 41.07 2.16551V25.1927C41.07 26.0691 40.5506 26.8592 39.7541 27.194C38.9577 27.5288 38.0414 27.3423 37.433 26.7215L31.4064 20.573L11.1652 41.1376C10.556 41.7564 9.64042 41.9413 8.84509 41.606C8.04976 41.2706 7.53125 40.4812 7.53125 39.6055V24.262C7.53125 23.6877 7.75557 23.1369 8.15487 22.7308L20.8438 9.82532L14.8181 3.69675C14.2091 3.07742 14.027 2.146 14.3565 1.3368ZM21.4639 4.33101L25.3604 8.29407C26.1919 9.13976 26.1919 10.5109 25.3604 11.3566L11.7896 25.159V34.3815L29.9049 15.9769C30.3046 15.5708 30.8468 15.3429 31.4118 15.3435C31.9769 15.3441 32.5185 15.5731 32.9175 15.9801L36.8117 19.9531V4.33101H21.4639Z" fill="#16BDCA"/>
</svg>
