<?xml version="1.0" encoding="UTF-8"?>
<svg width="1220px" height="470px" viewBox="0 0 1220 470" version="1.1" xmlns="http://www.w3.org/2000/svg" xmlns:xlink="http://www.w3.org/1999/xlink">
    <!-- Generator: Sketch 56.3 (81716) - https://sketch.com -->
    <title>Artboard</title>
    <desc>Created with Sketch.</desc>
    <defs>
        <linearGradient x1="87.681667%" y1="12.7303824%" x2="7.84775874%" y2="90.515709%" id="linearGradient-1">
            <stop stop-color="#62DCFF" offset="0%"></stop>
            <stop stop-color="#0464FF" offset="52.6736698%"></stop>
            <stop stop-color="#8736F9" offset="100%"></stop>
        </linearGradient>
        <polygon id="path-2" points="260.761062 132.232411 248.534592 167.295876 199.460303 149.803415 211.608183 200.384567 175.119636 209.147628 162.971757 158.611357 57.5227944 259.605263 32 233.40635 139.720132 129.158047 85.8181281 110.532334 97.9323256 75.3791064 146.916796 92.3442133 134.768917 41.7630612 171.212555 33 183.360434 83.4913897 219.231482 46.1053207 246.210552 71.8334888 206.64574 113.034463"></polygon>
    </defs>
    <g id="Page-1" stroke="none" stroke-width="1" fill="none" fill-rule="evenodd">
        <g id="Artboard" transform="translate(-255.000000, -161.000000)">
            <path d="M625.3,381 C619.899973,387.600033 612.050051,392.849981 601.75,396.75 C591.449949,400.65002 579.400069,402.6 565.6,402.6 L530.8,402.6 L530.8,486 L488.5,486 L488.5,276.6 L565.6,276.6 C589.800121,276.6 608.449934,282.64994 621.55,294.75 C634.650065,306.850061 641.2,321.099918 641.2,337.5 C641.2,353.900082 635.900053,368.399937 625.3,381 Z M530.8,370.2 L565.6,370.2 C576.200053,370.2 584.299972,367.450028 589.9,361.95 C595.500028,356.449973 598.3,349.000047 598.3,339.6 C598.3,330.199953 595.500028,322.750027 589.9,317.25 C584.299972,311.749973 576.200053,309 565.6,309 L530.8,309 L530.8,370.2 Z M702.442857,319.8 L702.442857,349.2 C713.642913,327.999894 729.842751,317.4 751.042857,317.4 L751.042857,360.6 L740.542857,360.6 C727.942794,360.6 718.442889,363.749969 712.042857,370.05 C705.642825,376.350032 702.442857,387.199923 702.442857,402.6 L702.442857,486 L660.142857,486 L660.142857,319.8 L702.442857,319.8 Z M841.985714,452.7 C853.785773,452.7 863.935672,448.350043 872.435714,439.65 C880.935757,430.949956 885.185714,418.65008 885.185714,402.75 C885.185714,386.84992 880.985756,374.600043 872.585714,366 C864.185672,357.399957 854.035774,353.1 842.135714,353.1 C830.235655,353.1 820.185755,357.399957 811.985714,366 C803.785673,374.600043 799.685714,386.89992 799.685714,402.9 C799.685714,418.90008 803.785673,431.199957 811.985714,439.8 C820.185755,448.400043 830.185655,452.7 841.985714,452.7 Z M781.085714,464.7 C764.885633,448.899921 756.785714,428.200128 756.785714,402.6 C756.785714,376.999872 764.985632,356.400078 781.385714,340.8 C797.785796,325.199922 818.135593,317.4 842.435714,317.4 C866.735836,317.4 887.085632,325.199922 903.485714,340.8 C919.885796,356.400078 928.085714,376.999872 928.085714,402.6 C928.085714,428.200128 919.835797,448.899921 903.335714,464.7 C886.835632,480.500079 866.385836,488.4 841.985714,488.4 C817.585592,488.4 797.285795,480.500079 781.085714,464.7 Z M1022.62857,452.7 C1034.42863,452.7 1044.57853,448.350043 1053.07857,439.65 C1061.57861,430.949956 1065.82857,418.65008 1065.82857,402.75 C1065.82857,386.84992 1061.62861,374.600043 1053.22857,366 C1044.82853,357.399957 1034.67863,353.1 1022.77857,353.1 C1010.87851,353.1 1000.82861,357.399957 992.628571,366 C984.42853,374.600043 980.328571,386.89992 980.328571,402.9 C980.328571,418.90008 984.42853,431.199957 992.628571,439.8 C1000.82861,448.400043 1010.82851,452.7 1022.62857,452.7 Z M961.728571,464.7 C945.52849,448.899921 937.428571,428.200128 937.428571,402.6 C937.428571,376.999872 945.628489,356.400078 962.028571,340.8 C978.428653,325.199922 998.77845,317.4 1023.07857,317.4 C1047.37869,317.4 1067.72849,325.199922 1084.12857,340.8 C1100.52865,356.400078 1108.72857,376.999872 1108.72857,402.6 C1108.72857,428.200128 1100.47865,448.899921 1083.97857,464.7 C1067.47849,480.500079 1047.02869,488.4 1022.62857,488.4 C998.228449,488.4 977.928652,480.500079 961.728571,464.7 Z M1229.67143,264 L1271.97143,264 L1271.97143,486 L1229.67143,486 L1229.67143,264 Z M1174.17143,310.5 L1174.17143,319.8 L1200.57143,319.8 L1200.57143,354.3 L1174.17143,354.3 L1174.17143,486 L1132.17143,486 L1132.17143,354.3 L1114.17143,354.3 L1114.17143,319.8 L1132.17143,319.8 L1132.17143,310.5 C1132.17143,290.4999 1137.47138,275.900046 1148.07143,266.7 C1158.67148,257.499954 1175.37131,252.9 1198.17143,252.9 L1198.17143,288.3 C1189.37138,288.3 1183.17145,289.999983 1179.57143,293.4 C1175.97141,296.800017 1174.17143,302.49996 1174.17143,310.5 Z M1348.51429,483 L1283.41429,319.8 L1330.81429,319.8 L1373.11429,438 L1417.81429,319.8 L1461.91429,319.8 L1358.11429,564.6 L1314.01429,564.6 L1348.51429,483 Z" id="Proofy" fill="#0F1C2F" fill-rule="nonzero"></path>
            <g id="Icon" transform="translate(190.000000, 181.000000)">
                <mask id="mask-3" fill="white">
                    <use href="#path-2"></use>
                </mask>
                <use id="Mask" fill="url(#linearGradient-1)" fill-rule="nonzero" transform="translate(146.380531, 146.302632) rotate(-20.000000) translate(-146.380531, -146.302632) " href="#path-2"></use>
                <rect id="Rectangle" fill-opacity="0" fill="#000000" mask="url(#mask-3)" x="66" y="22" width="190" height="270"></rect>
            </g>
        </g>
    </g>
</svg>