<svg class="logo-svg" height="42" viewBox="0 0 201 42" width="201" xmlns="http://www.w3.org/2000/svg">
<path d="M64.4717 13.125H72.1843C73.4249 13.125 74.4369 13.3114 75.2204 13.6843C76.0039 14.0571 76.6079 14.5232 77.0323 15.0824C77.4567 15.6417 77.7424 16.2518 77.8893 16.9127C78.0525 17.5737 78.1341 18.1838 78.1341 18.7431C78.1341 19.3023 78.0525 19.9124 77.8893 20.5734C77.7424 21.2174 77.4567 21.819 77.0323 22.3783C76.6079 22.9375 76.0039 23.4036 75.2204 23.7764C74.4369 24.1323 73.4249 24.3103 72.1843 24.3103H67.5323V31.2756H64.4717V13.125ZM67.5323 21.7173H72.013C72.3557 21.7173 72.7067 21.6665 73.0658 21.5648C73.4249 21.4631 73.7514 21.3021 74.0452 21.0818C74.3553 20.8445 74.6001 20.5394 74.7797 20.1666C74.9756 19.7768 75.0735 19.2938 75.0735 18.7176C75.0735 18.1244 74.9919 17.633 74.8287 17.2432C74.6655 16.8534 74.4451 16.5483 74.1676 16.3281C73.8901 16.0908 73.5718 15.9298 73.2127 15.8451C72.8536 15.7603 72.47 15.7179 72.0619 15.7179H67.5323V21.7173ZM79.6764 18.1329H82.2963V20.6751H82.3452C82.4269 20.3192 82.582 19.9718 82.8105 19.6328C83.0553 19.2938 83.341 18.9888 83.6674 18.7176C84.0102 18.4295 84.3857 18.2007 84.7937 18.0313C85.2019 17.8618 85.6181 17.7771 86.0424 17.7771C86.3689 17.7771 86.5893 17.7856 86.7035 17.8025C86.8341 17.8194 86.9647 17.8364 87.0953 17.8533V20.6496C86.8994 20.6157 86.6954 20.5903 86.4831 20.5734C86.2873 20.5394 86.0914 20.5225 85.8955 20.5225C85.4222 20.5225 84.9733 20.6242 84.5489 20.8276C84.1408 21.014 83.7817 21.3021 83.4715 21.6919C83.1614 22.0647 82.9166 22.5308 82.737 23.0901C82.5575 23.6493 82.4677 24.2934 82.4677 25.0221V31.2756H79.6764V18.1329ZM92.9223 31.6315C91.9102 31.6315 91.0043 31.4621 90.2045 31.1231C89.421 30.7672 88.7517 30.2842 88.1967 29.6741C87.6581 29.064 87.2418 28.3353 86.948 27.4879C86.6705 26.6405 86.5318 25.7084 86.5318 24.6916C86.5318 23.6916 86.6705 22.7681 86.948 21.9207C87.2418 21.0733 87.6581 20.3446 88.1967 19.7345C88.7517 19.1244 89.421 18.6499 90.2045 18.3109C91.0043 17.955 91.9102 17.7771 92.9223 17.7771C93.9342 17.7771 94.8321 17.955 95.6156 18.3109C96.4154 18.6499 97.0847 19.1244 97.6233 19.7345C98.1783 20.3446 98.5945 21.0733 98.872 21.9207C99.1659 22.7681 99.3128 23.6916 99.3128 24.6916C99.3128 25.7084 99.1659 26.6405 98.872 27.4879C98.5945 28.3353 98.1783 29.064 97.6233 29.6741C97.0847 30.2842 96.4154 30.7672 95.6156 31.1231C94.8321 31.4621 93.9342 31.6315 92.9223 31.6315ZM92.9223 29.3436C93.5425 29.3436 94.0811 29.208 94.5383 28.9369C94.9953 28.6658 95.3707 28.3099 95.6646 27.8692C95.9584 27.4285 96.1705 26.9371 96.3012 26.3948C96.4481 25.8355 96.5215 25.2678 96.5215 24.6916C96.5215 24.1323 96.4481 23.5731 96.3012 23.0138C96.1705 22.4545 95.9584 21.963 95.6646 21.5394C95.3707 21.0987 94.9953 20.7428 94.5383 20.4717C94.0811 20.2006 93.5425 20.0649 92.9223 20.0649C92.302 20.0649 91.7633 20.2006 91.3063 20.4717C90.8492 20.7428 90.4738 21.0987 90.18 21.5394C89.8862 21.963 89.6658 22.4545 89.5189 23.0138C89.3883 23.5731 89.323 24.1323 89.323 24.6916C89.323 25.2678 89.3883 25.8355 89.5189 26.3948C89.6658 26.9371 89.8862 27.4285 90.18 27.8692C90.4738 28.3099 90.8492 28.6658 91.3063 28.9369C91.7633 29.208 92.302 29.3436 92.9223 29.3436ZM104.302 24.3611L99.9193 18.1329H103.298L105.943 22.1749L108.709 18.1329H111.941L107.632 24.2086L112.48 31.2756H109.126L105.918 26.4202L102.809 31.2756H99.5276L104.302 24.3611ZM113.389 13.125H116.18V15.8705H113.389V13.125ZM113.389 18.1329H116.18V31.2756H113.389V18.1329ZM127.179 23.5476C127.146 23.0901 127.048 22.6494 126.885 22.2257C126.738 21.8021 126.525 21.4377 126.248 21.1326C125.987 20.8107 125.66 20.5565 125.269 20.37C124.893 20.1666 124.469 20.0649 123.995 20.0649C123.506 20.0649 123.057 20.1581 122.649 20.3446C122.257 20.514 121.914 20.7598 121.62 21.0818C121.343 21.3868 121.114 21.7512 120.935 22.1749C120.772 22.5985 120.682 23.0561 120.666 23.5476H127.179ZM120.666 25.4542C120.666 25.9626 120.731 26.4541 120.861 26.9286C121.008 27.4031 121.221 27.8184 121.498 28.1743C121.776 28.5302 122.126 28.8183 122.551 29.0386C122.975 29.2419 123.481 29.3436 124.069 29.3436C124.885 29.3436 125.538 29.1657 126.028 28.8098C126.534 28.437 126.91 27.8861 127.154 27.1574H129.799C129.652 27.8692 129.398 28.5047 129.04 29.064C128.68 29.6233 128.248 30.0978 127.742 30.4876C127.235 30.8604 126.665 31.14 126.028 31.3265C125.407 31.5298 124.755 31.6315 124.069 31.6315C123.073 31.6315 122.192 31.4621 121.425 31.1231C120.657 30.7841 120.004 30.3096 119.466 29.6995C118.943 29.0894 118.544 28.3607 118.266 27.5133C118.005 26.6659 117.874 25.7338 117.874 24.717C117.874 23.7849 118.013 22.9036 118.291 22.0732C118.584 21.2258 118.992 20.4886 119.515 19.8616C120.053 19.2175 120.698 18.7091 121.449 18.3363C122.2 17.9635 123.049 17.7771 123.995 17.7771C124.991 17.7771 125.881 17.9973 126.665 18.438C127.464 18.8616 128.125 19.4294 128.648 20.1412C129.17 20.853 129.545 21.675 129.774 22.6071C130.019 23.5222 130.084 24.4713 129.97 25.4542H120.666ZM143.281 31.2756H140.637V29.4962H140.588C140.212 30.2588 139.666 30.8095 138.947 31.1485C138.229 31.4705 137.47 31.6315 136.67 31.6315C135.675 31.6315 134.801 31.4536 134.051 31.0977C133.316 30.7249 132.704 30.2249 132.214 29.5978C131.725 28.9708 131.357 28.2336 131.112 27.3862C130.868 26.5219 130.745 25.5982 130.745 24.6153C130.745 23.429 130.901 22.4037 131.21 21.5394C131.52 20.6751 131.929 19.9633 132.435 19.404C132.957 18.8447 133.545 18.438 134.197 18.1838C134.867 17.9127 135.544 17.7771 136.23 17.7771C136.621 17.7771 137.022 17.8194 137.429 17.9042C137.837 17.9719 138.229 18.0906 138.605 18.2601C138.98 18.4295 139.323 18.6499 139.633 18.921C139.96 19.1752 140.229 19.4803 140.441 19.8362H140.49V13.125H143.281V31.2756ZM133.536 24.8441C133.536 25.4034 133.601 25.9541 133.732 26.4965C133.879 27.0388 134.091 27.5218 134.369 27.9455C134.663 28.3691 135.03 28.7081 135.471 28.9623C135.911 29.2165 136.434 29.3436 137.038 29.3436C137.658 29.3436 138.188 29.208 138.629 28.9369C139.086 28.6658 139.453 28.3099 139.731 27.8692C140.025 27.4285 140.237 26.9371 140.368 26.3948C140.515 25.8355 140.588 25.2678 140.588 24.6916C140.588 23.2341 140.27 22.0986 139.633 21.2852C139.012 20.4717 138.164 20.0649 137.087 20.0649C136.434 20.0649 135.878 20.209 135.422 20.4971C134.981 20.7682 134.614 21.1326 134.32 21.5902C134.042 22.0309 133.839 22.5393 133.708 23.1155C133.594 23.6747 133.536 24.2509 133.536 24.8441ZM145.933 13.125H150.242L155.066 27.3354H155.115L159.816 13.125H164.076V31.2756H161.162V17.2686H161.114L156.266 31.2756H153.744L148.896 17.2686H148.847V31.2756H145.933V13.125ZM177.217 28.3522C177.217 28.7081 177.257 28.9623 177.339 29.1148C177.437 29.2674 177.617 29.3436 177.878 29.3436C177.96 29.3436 178.058 29.3436 178.172 29.3436C178.286 29.3436 178.417 29.3267 178.564 29.2928V31.3011C178.466 31.335 178.335 31.3688 178.172 31.4027C178.025 31.4536 177.87 31.4959 177.707 31.5298C177.544 31.5638 177.38 31.5892 177.217 31.6061C177.054 31.623 176.915 31.6315 176.801 31.6315C176.229 31.6315 175.756 31.5129 175.381 31.2756C175.005 31.0383 174.76 30.6232 174.646 30.03C174.091 30.5893 173.406 30.996 172.589 31.2502C171.79 31.5044 171.014 31.6315 170.263 31.6315C169.692 31.6315 169.146 31.5468 168.623 31.3773C168.1 31.2248 167.635 30.996 167.227 30.6909C166.835 30.369 166.517 29.9706 166.272 29.4962C166.043 29.0046 165.93 28.437 165.93 27.7929C165.93 26.9795 166.068 26.3185 166.346 25.8101C166.64 25.3017 167.015 24.9035 167.472 24.6153C167.946 24.3272 168.467 24.1238 169.039 24.0052C169.627 23.8696 170.214 23.7679 170.802 23.7002C171.308 23.5985 171.79 23.5307 172.247 23.4968C172.703 23.4459 173.104 23.3697 173.446 23.268C173.805 23.1663 174.083 23.0138 174.279 22.8104C174.491 22.5901 174.597 22.2681 174.597 21.8444C174.597 21.4716 174.508 21.1666 174.328 20.9293C174.165 20.692 173.952 20.514 173.691 20.3954C173.446 20.2598 173.168 20.1751 172.859 20.1412C172.549 20.0904 172.255 20.0649 171.977 20.0649C171.194 20.0649 170.549 20.2344 170.043 20.5734C169.537 20.9124 169.251 21.4377 169.186 22.1495H166.395C166.444 21.3021 166.64 20.5988 166.982 20.0395C167.325 19.4803 167.757 19.0312 168.28 18.6922C168.819 18.3532 169.422 18.116 170.092 17.9804C170.762 17.8448 171.447 17.7771 172.149 17.7771C172.769 17.7771 173.381 17.8448 173.985 17.9804C174.589 18.116 175.127 18.3363 175.601 18.6414C176.091 18.9464 176.482 19.3446 176.776 19.8362C177.07 20.3106 177.217 20.8953 177.217 21.5902V28.3522ZM174.426 24.6916C174.001 24.9797 173.479 25.1577 172.859 25.2254C172.238 25.2763 171.618 25.361 170.998 25.4796C170.704 25.5305 170.419 25.6067 170.141 25.7084C169.863 25.7932 169.618 25.9203 169.406 26.0897C169.194 26.2423 169.023 26.4541 168.892 26.7253C168.778 26.9795 168.721 27.293 168.721 27.6658C168.721 27.9878 168.81 28.259 168.99 28.4793C169.17 28.6996 169.382 28.8775 169.627 29.0132C169.888 29.1318 170.165 29.2165 170.459 29.2674C170.769 29.3182 171.047 29.3436 171.292 29.3436C171.601 29.3436 171.937 29.3013 172.296 29.2165C172.654 29.1318 172.99 28.9877 173.299 28.7844C173.626 28.581 173.896 28.3268 174.107 28.0217C174.319 27.6998 174.426 27.3099 174.426 26.8524V24.6916ZM179.559 13.125H182.35V15.8705H179.559V13.125ZM179.559 18.1329H182.35V31.2756H179.559V18.1329ZM184.731 13.125H187.522V31.2756H184.731V13.125Z" fill="#242527"></path>
<path d="M26.7544 17.6448C26.948 15.8537 28.0394 14.5167 29.3086 14.417C34.2476 14.0289 39.1866 14.0289 44.1256 14.417C45.3947 14.5167 46.4861 15.8537 46.6797 17.6448C46.7516 18.3109 46.8022 18.9769 46.8363 19.6429H55.8407C54.9628 9.47539 46.7385 1.50504 36.7171 1.50504C26.6956 1.50504 18.4713 9.47539 17.5934 19.6429H26.5978C26.6319 18.9769 26.6825 18.3109 26.7544 17.6448Z" fill="#416AF7"></path>
<path d="M46.6797 25.2452C46.4861 27.0364 45.3947 28.3734 44.1256 28.4732C39.1866 28.8612 34.2476 28.8612 29.3086 28.4732C28.0394 28.3734 26.948 27.0364 26.7544 25.2452C26.6825 24.5793 26.6319 23.9134 26.5978 23.2474H17.5934C18.4714 33.4149 26.6957 41.3851 36.7171 41.3851C46.7384 41.3851 54.9627 33.4149 55.8407 23.2474H46.8363C46.8022 23.9134 46.7516 24.5793 46.6797 25.2452Z" fill="#416AF7"></path>
<path d="M43.6972 18.6167C43.3988 17.8654 42.7564 17.3419 42.0254 17.2945C38.4865 17.0654 34.9476 17.0654 31.4087 17.2945C30.6777 17.3419 30.0354 17.8655 29.737 18.6168L36.7171 21.1943L43.6972 18.6167Z" fill="#416AF7"></path>
<path d="M29.5787 23.6892C29.7174 24.7471 30.4994 25.5367 31.4087 25.5955C34.9476 25.8247 38.4865 25.8247 42.0254 25.5955C42.9347 25.5367 43.7168 24.747 43.8555 23.6892C44.0123 22.4927 44.0379 21.2962 43.9438 20.0997L36.9563 22.6801C36.8789 22.7087 36.798 22.7228 36.7171 22.7228C36.6363 22.7228 36.5554 22.7087 36.4779 22.6801L29.4903 20.0998C29.3962 21.2963 29.4218 22.4928 29.5787 23.6892Z" fill="#416AF7"></path>
</svg>