<?xml version="1.0" encoding="UTF-8"?>
<svg version="1.1" xmlns="http://www.w3.org/2000/svg" width="360" height="360">
<path d="M0 0 C118.8 0 237.6 0 360 0 C360 118.8 360 237.6 360 360 C241.2 360 122.4 360 0 360 C0 241.2 0 122.4 0 0 Z " fill="#FEFEFE" transform="translate(0,0)"/>
<path d="M0 0 C4.95 0 9.9 0 15 0 C18.3060753 7.22438676 21.19685379 14.56706723 24 22 C27.74770332 14.79165148 30.8616049 7.53214825 34 0 C49.51 0 65.02 0 81 0 C81 4.29 81 8.58 81 13 C74.4 13 67.8 13 61 13 C61 15.64 61 18.28 61 21 C67.6 21 74.2 21 81 21 C81 25.62 81 30.24 81 35 C74.4 35 67.8 35 61 35 C61 37.64 61 40.28 61 43 C67.6 43 74.2 43 81 43 C81 47.29 81 51.58 81 56 C64.11955218 57.35377849 64.11955218 57.35377849 59.578125 54.453125 C57.93124712 52.0270791 56.96875002 49.76840422 56 47 C55.56042969 45.97519531 55.12085938 44.95039063 54.66796875 43.89453125 C53.3146726 40.63024054 52.13659129 37.34528642 51 34 C50.67773438 33.11570313 50.35546875 32.23140625 50.0234375 31.3203125 C47.31503788 22.99261649 47.72622391 14.64929646 48 6 C47.34 6 46.68 6 46 6 C45.90074219 6.65355469 45.80148438 7.30710938 45.69921875 7.98046875 C44.78486409 11.92905059 43.31723477 15.55587949 41.8125 19.3125 C41.17489129 20.92542972 40.5381901 22.53871846 39.90234375 24.15234375 C39.4225708 25.36833252 39.4225708 25.36833252 38.93310547 26.60888672 C37.53865147 30.18222069 36.20645715 33.77782979 34.875 37.375 C32.41833624 43.98922086 29.77636357 50.51362848 27 57 C25.35 57 23.7 57 22 57 C18.66092751 49.52852928 15.59394829 42.05303497 12.9375 34.3125 C10.9803569 28.61847442 8.81208686 23.15537676 6.234375 17.70703125 C0 4.03481013 0 4.03481013 0 0 Z " fill="#5D5D60" transform="translate(155,140)"/>
<path d="M0 0 C4.89948827 2.31612173 7.85579936 5.68795341 11 10 C11.93593613 12.84280703 12.12229323 15.42030196 12.11352539 18.40136719 C12.11344986 19.2619574 12.11337433 20.12254761 12.11329651 21.00921631 C12.10813522 21.92914368 12.10297394 22.84907104 12.09765625 23.796875 C12.0962413 24.74564514 12.09482635 25.69441528 12.09336853 26.67193604 C12.08777742 29.69798962 12.07522652 32.72396883 12.0625 35.75 C12.05748385 37.80338435 12.05292115 39.85676986 12.04882812 41.91015625 C12.03781089 46.94013276 12.02055233 51.97005378 12 57 C7.38 57 2.76 57 -2 57 C-2 51.72 -2 46.44 -2 41 C-4.31 41 -6.62 41 -9 41 C-9 45.95 -9 50.9 -9 56 C-13.62 56 -18.24 56 -23 56 C-23.14891585 49.73789757 -23.25748556 43.47683767 -23.32958984 37.21337891 C-23.35966346 35.08526645 -23.40053411 32.95727693 -23.45263672 30.82958984 C-23.52586732 27.76108396 -23.55955099 24.6942238 -23.5859375 21.625 C-23.61690521 20.68197021 -23.64787292 19.73894043 -23.67977905 18.76733398 C-23.68324754 11.87660793 -21.81956921 7.92209593 -17 3 C-11.8103732 -1.08855153 -6.34080451 -0.76675489 0 0 Z " fill="#5D5D60" transform="translate(144,140)"/>
<path d="M0 0 C9 0 9 0 11.18334961 1.11401367 C11.66811768 1.62681885 12.15288574 2.13962402 12.65234375 2.66796875 C13.20083984 3.23193359 13.74933594 3.79589844 14.31445312 4.37695312 C14.85005859 4.97443359 15.38566406 5.57191406 15.9375 6.1875 C16.78151367 7.0547168 16.78151367 7.0547168 17.64257812 7.93945312 C20.61159232 11.07873337 22.73629479 13.77970145 24 18 C23.01 18 22.02 18 21 18 C22.65 19.98 24.3 21.96 26 24 C26.33 16.08 26.66 8.16 27 0 C30.96 0 34.92 0 39 0 C39 18.48 39 36.96 39 56 C31 56 31 56 28.85424805 54.31933594 C28.32871338 53.54879883 27.80317871 52.77826172 27.26171875 51.984375 C26.66939453 51.14519531 26.07707031 50.30601562 25.46679688 49.44140625 C24.87962891 48.55324219 24.29246094 47.66507813 23.6875 46.75 C23.08099609 45.87730469 22.47449219 45.00460938 21.84960938 44.10546875 C20.72042563 42.47815224 19.60217108 40.84315603 18.4987793 39.19824219 C17.06063243 37.08892888 15.53176005 35.04234674 14 33 C13.67 40.59 13.34 48.18 13 56 C8.71 56 4.42 56 0 56 C0 37.52 0 19.04 0 0 Z " fill="#5C5C5F" transform="translate(240,140)"/>
<path d="M0 0 C23.87096774 0 23.87096774 0 30 6 C34.32116428 10.38076654 35.32983158 14.40126723 35.5625 20.5 C35.38928223 25.49444565 34.61647494 29.00100775 31.77734375 33.12109375 C30.57714318 36.02208107 31.22910039 37.997939 32 41 C32.95149259 43.09539228 33.97513231 45.15928935 35.0625 47.1875 C38 52.68235294 38 52.68235294 38 56 C33.05 56 28.1 56 23 56 C19.6875 49.5625 19.6875 49.5625 18.6628418 47.53344727 C16.75417115 43.76262139 16.75417115 43.76262139 13 42 C13 46.62 13 51.24 13 56 C8.71 56 4.42 56 0 56 C0 37.52 0 19.04 0 0 Z " fill="#5B5B5E" transform="translate(78,140)"/>
<path d="M0 0 C0.85207031 -0.03738281 1.70414063 -0.07476562 2.58203125 -0.11328125 C5.1875 0.3125 5.1875 0.3125 7.57421875 2.296875 C10.92046316 4.87783481 13.00802898 4.8074439 17.1875 4.875 C22.0940665 4.96488322 25.23821496 5.25330004 29.1875 8.3125 C29.1875 8.9725 29.1875 9.6325 29.1875 10.3125 C28.26066406 10.66183594 27.33382812 11.01117188 26.37890625 11.37109375 C24.58259766 12.05365234 24.58259766 12.05365234 22.75 12.75 C21.55503906 13.20246094 20.36007813 13.65492187 19.12890625 14.12109375 C16.34304277 15.0269826 16.34304277 15.0269826 15.1875 16.3125 C14.80145414 18.71486634 14.80145414 18.71486634 15.1875 21.3125 C16.70642224 23.14378455 16.70642224 23.14378455 18.8125 24.625 C22.996437 28.01979586 26.38291307 31.69130563 29.1875 36.3125 C29.1875 36.9725 29.1875 37.6325 29.1875 38.3125 C14.0075 38.3125 -1.1725 38.3125 -16.8125 38.3125 C-17.8025 34.8475 -17.8025 34.8475 -18.8125 31.3125 C-19.1425 31.3125 -19.4725 31.3125 -19.8125 31.3125 C-20.97955314 22.97640615 -17.1015674 16.25630931 -12.8125 9.3125 C-11.16518311 7.62670564 -9.50172416 5.95629965 -7.8125 4.3125 C-7.4825 3.3225 -7.1525 2.3325 -6.8125 1.3125 C-4.39739385 0.10494692 -2.69511951 0.07677252 0 0 Z " fill="#5C5C5F" transform="translate(217.8125,97.6875)"/>
<path d="M0 0 C1.41799815 0.00094446 2.83622994 0.03453973 4.25292969 0.09521484 C5.37643829 0.10794937 5.37643829 0.10794937 6.52264404 0.12094116 C8.90817938 0.15445304 11.29029681 0.22971348 13.67480469 0.30615234 C15.29454742 0.33625548 16.91434331 0.3636307 18.53417969 0.38818359 C22.49903244 0.45423512 26.46133978 0.55772921 30.42480469 0.68115234 C31.94615397 3.33747649 33.44133269 6.00377495 34.92480469 8.68115234 C35.3540625 9.42494141 35.78332031 10.16873047 36.22558594 10.93505859 C39.08762099 16.15940828 39.91170761 19.73011659 39.42480469 25.68115234 C38.43480469 26.17615234 38.43480469 26.17615234 37.42480469 26.68115234 C37.09480469 26.35115234 36.76480469 26.02115234 36.42480469 25.68115234 C36.91980469 26.48552734 36.91980469 26.48552734 37.42480469 27.30615234 C38.65179673 30.22025844 38.56713755 32.54982943 38.42480469 35.68115234 C37.43480469 35.18615234 37.43480469 35.18615234 36.42480469 34.68115234 C36.09480469 36.99115234 35.76480469 39.30115234 35.42480469 41.68115234 C34.76480469 41.68115234 34.10480469 41.68115234 33.42480469 41.68115234 C32.76480469 43.99115234 32.10480469 46.30115234 31.42480469 48.68115234 C28.42480469 46.68115234 28.42480469 46.68115234 27.42480469 43.68115234 C26.43480469 43.35115234 25.44480469 43.02115234 24.42480469 42.68115234 C22.77660273 40.07872821 22.42480469 38.81866455 22.42480469 35.68115234 C21.10480469 35.35115234 19.78480469 35.02115234 18.42480469 34.68115234 C18.42480469 33.36115234 18.42480469 32.04115234 18.42480469 30.68115234 C17.833125 30.51099609 17.24144531 30.34083984 16.63183594 30.16552734 C13.29263493 27.91969304 12.48301688 24.55938906 11.11230469 20.93115234 C8.54937759 14.56510386 6.31969906 10.53087928 0.42480469 6.68115234 C0.14507812 7.29861328 -0.13464844 7.91607422 -0.42285156 8.55224609 C-1.95162068 11.37658225 -4.03080659 12.75734624 -6.57519531 14.68115234 C-7.59258261 15.66345733 -8.60115648 16.65584831 -9.57519531 17.68115234 C-9.24519531 16.03115234 -8.91519531 14.38115234 -8.57519531 12.68115234 C-10.88519531 14.00115234 -13.19519531 15.32115234 -15.57519531 16.68115234 C-14.91519531 15.36115234 -14.25519531 14.04115234 -13.57519531 12.68115234 C-15.55519531 13.34115234 -17.53519531 14.00115234 -19.57519531 14.68115234 C-19.40722656 12.79833984 -19.40722656 12.79833984 -18.57519531 10.68115234 C-15.88389546 9.48007638 -13.17606416 8.78232589 -10.33691406 8.00146484 C-7.29868187 6.87750648 -7.29868187 6.87750648 -5.8918457 3.63525391 C-3.57519531 0.68115234 -3.57519531 0.68115234 0 0 Z " fill="#5F5F62" transform="translate(243.5751953125,198.31884765625)"/>
<path d="M0 0 C2.97 0 5.94 0 9 0 C9 4.62 9 9.24 9 14 C2.84765625 14.09765625 2.84765625 14.09765625 1 14 C0 13 0 13 -0.09765625 10.05859375 C-0.08605469 8.86363281 -0.07445312 7.66867188 -0.0625 6.4375 C-0.05347656 5.23996094 -0.04445312 4.04242188 -0.03515625 2.80859375 C-0.02355469 1.88175781 -0.01195312 0.95492187 0 0 Z " fill="#9A9A9A" transform="translate(132,218)"/>
<path d="M0 0 C2.5 0.125 2.5 0.125 3.5 1.125 C3.57258946 3.31139453 3.58373783 5.50000389 3.5625 7.6875 C3.55347656 8.88503906 3.54445312 10.08257812 3.53515625 11.31640625 C3.52355469 12.24324219 3.51195312 13.17007813 3.5 14.125 C1.19 14.125 -1.12 14.125 -3.5 14.125 C-3.52685938 11.97923363 -3.54633088 9.83337355 -3.5625 7.6875 C-3.57410156 6.49253906 -3.58570313 5.29757813 -3.59765625 4.06640625 C-3.46840705 0.17342035 -3.46840705 0.17342035 0 0 Z " fill="#F3F3F3" transform="translate(138.5,153.875)"/>
<path d="M0 0 C5 1 5 1 7 3 C7.57690738 8.10975112 7.57690738 8.10975112 7 11 C4.625 13.5 4.625 13.5 2 15 C1.34 15 0.68 15 0 15 C0 10.05 0 5.1 0 0 Z " fill="#FAFAFA" transform="translate(92,154)"/>
<path d="M0 0 C2.33294775 -0.04241723 4.66702567 -0.04092937 7 0 C8 1 8 1 8.1875 4.4375 C8 8 8 8 6 10 C4.68 10 3.36 10 2 10 C2 10.99 2 11.98 2 13 C1.34 13 0.68 13 0 13 C0 8.71 0 4.42 0 0 Z " fill="#E2E2E2" transform="translate(209,222)"/>
<path d="M0 0 C0.125 3.375 0.125 3.375 0 7 C-0.66 7.66 -1.32 8.32 -2 9 C-2.99 9 -3.98 9 -5 9 C-5 9.99 -5 10.98 -5 12 C-5.99 12 -6.98 12 -8 12 C-8 8.04 -8 4.08 -8 0 C-4.71023192 -1.09658936 -3.28696233 -0.79953138 0 0 Z " fill="#7D7D7D" transform="translate(120,223)"/>
<path d="M0 0 C-3 3 -6 6 -9 9 C-8.67 7.35 -8.34 5.7 -8 4 C-10.31 5.32 -12.62 6.64 -15 8 C-14.34 6.68 -13.68 5.36 -13 4 C-14.98 4.66 -16.96 5.32 -19 6 C-18.4375 4.125 -18.4375 4.125 -17 2 C-11.3901461 -0.33743912 -6.00858472 -0.21761474 0 0 Z " fill="#6C6C6E" transform="translate(231,200)"/>
<path d="M0 0 C4.55555556 0.55555556 4.55555556 0.55555556 6 2 C5.71269945 4.33944736 5.38063221 6.6739143 5 9 C2.625 9.625 2.625 9.625 0 10 C-2 8 -2 8 -2.25 5 C-2 2 -2 2 0 0 Z " fill="#888888" transform="translate(186,222)"/>
<path d="M0 0 C0.99 0 1.98 0 3 0 C3.33 1.65 3.66 3.3 4 5 C5.32 4.67 6.64 4.34 8 4 C7.7215625 5.670625 7.7215625 5.670625 7.4375 7.375 C6.68319343 10.82568861 6.68319343 10.82568861 8 13 C7.4225 12.814375 6.845 12.62875 6.25 12.4375 C3.69606643 11.7761831 3.69606643 11.7761831 0 13 C0 8.71 0 4.42 0 0 Z " fill="#535353" transform="translate(152,218)"/>
<path d="M0 0 C2.97 0 5.94 0 9 0 C9 0.99 9 1.98 9 3 C8.01 3 7.02 3 6 3 C6 5.97 6 8.94 6 12 C4.68 12 3.36 12 2 12 C2 9.03 2 6.06 2 3 C1.01 3 0.02 3 -1 3 C-0.67 2.01 -0.34 1.02 0 0 Z " fill="#818181" transform="translate(93,219)"/>
<path d="M0 0 C1.99954746 -0.04254356 4.00041636 -0.04080783 6 0 C8.04698414 2.04698414 7.70045693 6.30411241 8 9 C1.25 10.125 1.25 10.125 -1 9 C-0.67 7.35 -0.34 5.7 0 4 C1.32 4 2.64 4 4 4 C4 3.34 4 2.68 4 2 C2.68 2 1.36 2 0 2 C0 1.34 0 0.68 0 0 Z " fill="#656565" transform="translate(102,222)"/>
<path d="M0 0 C0.99 0.33 1.98 0.66 3 1 C3.94921875 3.50390625 3.94921875 3.50390625 4.6875 6.5625 C5.06455078 8.08037109 5.06455078 8.08037109 5.44921875 9.62890625 C5.63097656 10.41136719 5.81273438 11.19382813 6 12 C5.34 12 4.68 12 4 12 C4 11.01 4 10.02 4 9 C2.02 9 0.04 9 -2 9 C-2 9.99 -2 10.98 -2 12 C-2.66 12 -3.32 12 -4 12 C-3.52494322 10.18641846 -3.04483958 8.37415821 -2.5625 6.5625 C-2.29566406 5.55316406 -2.02882813 4.54382813 -1.75390625 3.50390625 C-1 1 -1 1 0 0 Z " fill="#979797" transform="translate(81,220)"/>
<path d="M0 0 C1.1446875 0.3403125 1.1446875 0.3403125 2.3125 0.6875 C2.3125 1.3475 2.3125 2.0075 2.3125 2.6875 C0.6625 2.6875 -0.9875 2.6875 -2.6875 2.6875 C-2.6875 4.9975 -2.6875 7.3075 -2.6875 9.6875 C-0.7075 9.6875 1.2725 9.6875 3.3125 9.6875 C3.3125 10.3475 3.3125 11.0075 3.3125 11.6875 C-2.0875 13.0075 -2.0875 13.0075 -4.5625 11.6875 C-6.29928961 8.59987402 -6.05892345 6.1541189 -5.6875 2.6875 C-3.97907171 -0.18985291 -3.34260852 -0.38867541 0 0 Z " fill="#6B6B6B" transform="translate(127.6875,219.3125)"/>
<path d="M0 0 C0.99 0.33 1.98 0.66 3 1 C3 4.3 3 7.6 3 11 C0.69 10.67 -1.62 10.34 -4 10 C-4 7.69 -4 5.38 -4 3 C-2.35 3 -0.7 3 1 3 C0.67 2.01 0.34 1.02 0 0 Z " fill="#F7F7F7" transform="translate(129,219)"/>
<path d="M0 0 C1.81242052 -0.02687279 3.62495233 -0.04633715 5.4375 -0.0625 C6.44683594 -0.07410156 7.45617187 -0.08570313 8.49609375 -0.09765625 C11 0 11 0 12 1 C12.14115161 3.67058851 12.04247107 6.32432238 12 9 C11.67 9 11.34 9 11 9 C11 6.69 11 4.38 11 2 C10.01 2.33 9.02 2.66 8 3 C7.67 4.98 7.34 6.96 7 9 C6.67 9 6.34 9 6 9 C6 6.69 6 4.38 6 2 C5.01 2.33 4.02 2.66 3 3 C2.67 4.98 2.34 6.96 2 9 C1.34 9 0.68 9 0 9 C0 6.03 0 3.06 0 0 Z " fill="#757575" transform="translate(194,222)"/>
<path d="M0 0 C1.66611905 -0.042721 3.33382885 -0.04063832 5 0 C7.04698414 2.04698414 6.70045693 6.30411241 7 9 C1.25 10.125 1.25 10.125 -1 9 C-1 7.68 -1 6.36 -1 5 C0.98 4.67 2.96 4.34 5 4 C5 3.34 5 2.68 5 2 C3.35 2 1.7 2 0 2 C0 1.34 0 0.68 0 0 Z " fill="#7E7E7E" transform="translate(220,222)"/>
<path d="M0 0 C1.2065625 0.0309375 1.2065625 0.0309375 2.4375 0.0625 C2.4375 0.7225 2.4375 1.3825 2.4375 2.0625 C1.4475 2.3925 0.4575 2.7225 -0.5625 3.0625 C0.7575 3.7225 2.0775 4.3825 3.4375 5.0625 C3.1075 6.3825 2.7775 7.7025 2.4375 9.0625 C0.1275 9.0625 -2.1825 9.0625 -4.5625 9.0625 C-3.9025 8.4025 -3.2425 7.7425 -2.5625 7.0625 C-1.5725 7.3925 -0.5825 7.7225 0.4375 8.0625 C0.4375 7.4025 0.4375 6.7425 0.4375 6.0625 C-0.8825 5.7325 -2.2025 5.4025 -3.5625 5.0625 C-3.5625 0.08689024 -3.5625 0.08689024 0 0 Z " fill="#6C6C6C" transform="translate(165.5625,221.9375)"/>
<path d="M0 0 C0.99 0.33 1.98 0.66 3 1 C3.33 1.99 3.66 2.98 4 4 C4.99 4.33 5.98 4.66 7 5 C7 5.66 7 6.32 7 7 C5.68 7 4.36 7 3 7 C4.65 7.33 6.3 7.66 8 8 C8 8.33 8 8.66 8 9 C4.7 9 1.4 9 -2 9 C-1.34 8.34 -0.68 7.68 0 7 C-0.33 6.67 -0.66 6.34 -1 6 C-1.125 3.5 -1.125 3.5 -1 1 C-0.67 0.67 -0.34 0.34 0 0 Z " fill="#DDDDDD" transform="translate(159,223)"/>
<path d="M0 0 C0.78375 0.04125 1.5675 0.0825 2.375 0.125 C2.375 0.785 2.375 1.445 2.375 2.125 C1.055 2.125 -0.265 2.125 -1.625 2.125 C-1.625 3.775 -1.625 5.425 -1.625 7.125 C-0.305 7.455 1.015 7.785 2.375 8.125 C2.045 8.785 1.715 9.445 1.375 10.125 C-3.5 9.25 -3.5 9.25 -4.625 8.125 C-4.8125 5.1875 -4.8125 5.1875 -4.625 2.125 C-2.625 0.125 -2.625 0.125 0 0 Z " fill="#6C6C6C" transform="translate(147.625,221.875)"/>
<path d="M0 0 C0.33 0 0.66 0 1 0 C1 3.96 1 7.92 1 12 C-0.98 11.34 -2.96 10.68 -5 10 C-5 8.35 -5 6.7 -5 5 C-3.68 4.67 -2.36 4.34 -1 4 C-0.67 2.68 -0.34 1.36 0 0 Z " fill="#E6E6E6" transform="translate(151,219)"/>
<path d="M0 0 C1.32 0.33 2.64 0.66 4 1 C4.125 4.375 4.125 4.375 4 8 C3.34 8.66 2.68 9.32 2 10 C0.68 10 -0.64 10 -2 10 C-2.33 10.99 -2.66 11.98 -3 13 C-3 9.04 -3 5.08 -3 1 C-2.01 1.495 -2.01 1.495 -1 2 C-1.33 3.98 -1.66 5.96 -2 8 C-0.68 8 0.64 8 2 8 C1.34 5.36 0.68 2.72 0 0 Z " fill="#7E7E7E" transform="translate(213,222)"/>
<path d="M0 0 C2.51083114 1.25541557 2.87125446 2.50063488 4 5 C4.33 3.68 4.66 2.36 5 1 C5.66 1 6.32 1 7 1 C6.71640113 2.4391134 6.42278601 3.87625518 6.125 5.3125 C5.96257812 6.11300781 5.80015625 6.91351563 5.6328125 7.73828125 C5 10 5 10 3 13 C2.01 12.67 1.02 12.34 0 12 C0.33 11.67 0.66 11.34 1 11 C0.91015699 9.14227838 0.75388139 7.28752015 0.5625 5.4375 C0.46066406 4.42558594 0.35882813 3.41367188 0.25390625 2.37109375 C0.17011719 1.58863281 0.08632812 0.80617187 0 0 Z " fill="#888888" transform="translate(239,222)"/>
<path d="M0 0 C0 2.97 0 5.94 0 9 C-0.66 9 -1.32 9 -2 9 C-2 6.36 -2 3.72 -2 1 C-2.99 1.33 -3.98 1.66 -5 2 C-5.33 3.98 -5.66 5.96 -6 8 C-6.33 8 -6.66 8 -7 8 C-7 5.36 -7 2.72 -7 0 C-4.3333581 -1.33332095 -2.83319697 -0.67102033 0 0 Z " fill="#898989" transform="translate(237,223)"/>
<path d="M0 0 C1.65 0.33 3.3 0.66 5 1 C4.67 2.65 4.34 4.3 4 6 C2.35 5.67 0.7 5.34 -1 5 C-0.67 3.35 -0.34 1.7 0 0 Z " fill="#898989" transform="translate(102,226)"/>
<path d="M0 0 C0.33 0.99 0.66 1.98 1 3 C-1.475 4.485 -1.475 4.485 -4 6 C-3.34 4.68 -2.68 3.36 -2 2 C-3.98 2.66 -5.96 3.32 -8 4 C-7.625 2.0625 -7.625 2.0625 -7 0 C-4.3333581 -1.33332095 -2.83319697 -0.67102033 0 0 Z " fill="#818183" transform="translate(232,209)"/>
<path d="M0 0 C1.98 0 3.96 0 6 0 C5.67 1.65 5.34 3.3 5 5 C3.35 4.67 1.7 4.34 0 4 C0 2.68 0 1.36 0 0 Z " fill="#B6B6B6" transform="translate(219,227)"/>
<path d="M0 0 C2.475 0.495 2.475 0.495 5 1 C4.34 1.66 3.68 2.32 3 3 C2.60235737 4.98821313 2.26224651 6.98944339 2 9 C1.34 9 0.68 9 0 9 C0 6.03 0 3.06 0 0 Z " fill="#9C9C9C" transform="translate(194,222)"/>
<path d="M0 0 C1.32 0 2.64 0 4 0 C4 1.98 4 3.96 4 6 C2.68 6 1.36 6 0 6 C0 4.02 0 2.04 0 0 Z " fill="#F8F8F8" transform="translate(186,224)"/>
<path d="M0 0 C0.99 0 1.98 0 3 0 C3.33 1.65 3.66 3.3 4 5 C5.32 4.67 6.64 4.34 8 4 C7.34 5.98 6.68 7.96 6 10 C5.67 9.01 5.34 8.02 5 7 C4.01 7.33 3.02 7.66 2 8 C2 5.69 2 3.38 2 1 C1.34 0.67 0.68 0.34 0 0 Z " fill="#989898" transform="translate(152,218)"/>
<path d="M0 0 C1.67542976 0.28604898 3.34385343 0.61781233 5 1 C5 1.66 5 2.32 5 3 C3.35 3 1.7 3 0 3 C0 4.98 0 6.96 0 9 C-0.33 9 -0.66 9 -1 9 C-1.09765625 2.84765625 -1.09765625 2.84765625 -1 1 C-0.67 0.67 -0.34 0.34 0 0 Z " fill="#797979" transform="translate(125,219)"/>
<path d="M0 0 C0.66 0 1.32 0 2 0 C2.99 1.98 3.98 3.96 5 6 C4.38125 5.814375 3.7625 5.62875 3.125 5.4375 C0.95839822 4.76313824 0.95839822 4.76313824 -1 6 C-1.042721 4.33388095 -1.04063832 2.66617115 -1 1 C-0.67 0.67 -0.34 0.34 0 0 Z " fill="#717171" transform="translate(155,225)"/>
<path d="M0 0 C0.33 0.99 0.66 1.98 1 3 C1.66 3 2.32 3 3 3 C3 5.97 3 8.94 3 12 C1.09598862 10.09598862 0.06479561 8.66574314 -0.19921875 5.953125 C-0.1886578 3.96766727 -0.09915043 1.9830086 0 0 Z " fill="#8D8D8F" transform="translate(198,121)"/>
<path d="M0 0 C1.65 0 3.3 0 5 0 C5 0.66 5 1.32 5 2 C3.68 2 2.36 2 1 2 C1 3.65 1 5.3 1 7 C0.01 6.01 -0.98 5.02 -2 4 C-1.34 2.68 -0.68 1.36 0 0 Z " fill="#757575" transform="translate(145,222)"/>
<path d="M0 0 C0.99 0 1.98 0 3 0 C2.67 1.32 2.34 2.64 2 4 C-0.31 4 -2.62 4 -5 4 C-4.34 3.34 -3.68 2.68 -3 2 C-2.01 2.33 -1.02 2.66 0 3 C0 2.01 0 1.02 0 0 Z " fill="#636363" transform="translate(166,227)"/>
</svg>
