<?xml version="1.0" encoding="UTF-8"?>
<svg width="650px" height="650px" viewBox="0 0 650 650" version="1.1" xmlns="http://www.w3.org/2000/svg">
    <g id="render-form-logo" stroke="none" stroke-width="1" fill="none" fill-rule="evenodd">
        <rect id="Rectangle" fill="#007FFA" x="0" y="0" width="650" height="650"></rect>
        <g id="Group" transform="translate(-187.000000, 36.000000)" fill="#FFFFFF" stroke="#007FFA"
           stroke-width="18.9519651">
            <path d="M235.706539,86.5766788 L427.968797,86.6108943 C463.676707,86.6402712 492.622103,115.585667 492.65148,151.293577 L492.685695,343.555835 C492.689415,364.45783 475.748016,381.40526 454.846022,381.408979 C440.90948,381.41146 428.099245,373.754425 421.501963,361.478307 L359.502953,246.111515 C353.494995,234.932001 344.330373,225.767379 333.150859,219.759422 L217.784067,157.760411 C199.372372,147.865823 192.467893,124.919046 202.362481,106.507351 C208.959762,94.2312331 221.769997,86.5741986 235.706539,86.5766788 Z"
                  id="Rectangle"
                  transform="translate(288.994570, 290.267804) rotate(45.000000) translate(-288.994570, -290.267804) "></path>
            <path d="M301.552249,85.2006604 L491.263989,85.234422 C526.971899,85.2637989 555.917295,114.209195 555.946672,149.917105 L555.980665,340.930505 C555.984097,360.215194 540.35355,375.851305 521.068862,375.854737 C507.703018,375.857115 495.508489,368.229553 489.662161,356.210142 L433.044307,239.810025 C426.740374,226.849828 416.287983,216.366678 403.346366,210.024689 L285.944265,152.492246 C268.36109,143.875679 261.092218,122.636592 269.708784,105.053417 C275.664222,92.9006059 288.018659,85.198252 301.552249,85.2006604 Z"
                  id="Rectangle"
                  transform="translate(352.289762, 288.891332) rotate(45.000000) translate(-352.289762, -288.891332) "></path>
            <path d="M389.099769,85.2003239 L580.702848,85.234422 C616.410758,85.2637989 645.356154,114.209195 645.38553,149.917105 L645.419863,342.83828 C645.423556,363.590503 628.60355,380.416498 607.851327,380.420191 C593.996796,380.422657 581.264965,372.801042 574.72267,360.588491 L513.187806,245.720896 C507.194535,234.533213 498.041812,225.356326 486.869969,219.33358 L371.004774,156.870595 C352.474198,146.880752 345.550566,123.760384 355.540409,105.229808 C362.192686,92.8902227 375.081275,85.1978291 389.099769,85.2003239 Z"
                  id="Rectangle"
                  transform="translate(441.728621, 288.891332) rotate(45.000000) translate(-441.728621, -288.891332) "></path>
        </g>
    </g>
</svg>
