<svg version="1.1" id="Layer_1" xmlns:x="ns_extend;" xmlns:i="ns_ai;" xmlns:graph="ns_graphs;" xmlns="http://www.w3.org/2000/svg" xmlns:xlink="http://www.w3.org/1999/xlink" x="0px" y="0px" viewBox="0 0 250.6 65" style="enable-background:new 0 0 250.6 65;" xml:space="preserve">
 <style type="text/css">
  .st0{fill:#FFFFFF;}
 </style>
 <metadata>
  <sfw xmlns="ns_sfw;">
   <slices>
   </slices>
   <sliceSourceBounds bottomLeftOrigin="true" height="65" width="250.6" x="-172.8" y="0">
   </sliceSourceBounds>
  </sfw>
 </metadata>
 <g>
  <path class="st0" d="M22.8,25.4c-4.1,0-8.1,1.1-11.7,3.1v34c0,1-0.7,1.7-1.7,1.8H1.7c-1,0-1.7-0.8-1.7-1.8V18.3
		c0-0.9,0.8-1.7,1.7-1.7h7.4c0.9,0,1.7,0.8,1.7,1.7v1.8c3.5-2.6,7.7-4.1,12.1-4.1c0.9,0,1.7,0.8,1.7,1.7v6.1
		C24.5,24.7,23.7,25.4,22.8,25.4z">
  </path>
  <path class="st0" d="M67.4,44.3H39.8v0.3c0,4.9,2,10.7,10.1,10.7c5.2,0,10.4-0.3,15.5-0.9h0.3c0.9,0,1.5,0.4,1.5,1.3v5.6
		c0,1.4-0.3,2-1.8,2.2c-5.4,1.1-10.9,1.5-16.4,1.4c-8.5,0-20.5-4.6-20.5-21.2v-6.3C28.6,24.3,36,16,48.9,16c13,0,20.1,8.9,20.1,21.5
		v4.8C69.1,43.6,68.6,44.3,67.4,44.3L67.4,44.3z M57.8,36.1c0-6.6-3.7-10.4-8.9-10.4s-9.1,3.7-9.1,10.4v0.3h17.9L57.8,36.1z">
  </path>
  <path class="st0" d="M116,64.3h-7.8c-1,0-1.7-0.8-1.7-1.8V35c0-7.4-0.7-9.5-7.2-9.5c-3.4,0.3-6.7,1.3-9.6,3.1v34
		c0,1-0.7,1.7-1.7,1.8h-7.8c-1,0-1.7-0.8-1.7-1.8V18.3c0-0.9,0.8-1.7,1.7-1.7h7.4c0.9,0,1.7,0.8,1.7,1.7v1.8c4-2.8,8.8-4.3,13.7-4.1
		c12.2,0,14.6,8.2,14.6,18.9v27.6C117.7,63.5,116.9,64.2,116,64.3z">
  </path>
  <path class="st0" d="M164.2,62.8c-5.6,1.4-11.3,2.1-17,2.2c-13.6,0-20.2-8.1-20.2-21.2v-6.5C127,24,133.6,16,147.2,16
		c2.7,0,5.4,0.2,8.1,0.6V1.7c0-0.9,0.8-1.7,1.7-1.7h7.8c0.9,0,1.7,0.8,1.7,1.7v58.9C166.5,61.7,166.1,62.3,164.2,62.8L164.2,62.8z
		 M155.3,25.7c-2.7-0.4-5.4-0.6-8.1-0.6c-7.3,0-9,5.2-9,12.1v6.5c0,6.9,1.8,12.1,9,12.1c2.7,0,5.4-0.2,8.1-0.6V25.7z">
  </path>
  <path class="st0" d="M214.7,44.3h-27.6v0.3c0,4.9,2,10.7,10.1,10.7c5.2,0,10.4-0.3,15.5-0.9h0.3c0.8,0,1.5,0.4,1.5,1.3v5.6
		c0,1.4-0.3,2-1.8,2.2c-5.4,1.1-10.9,1.5-16.4,1.4C188,65,176,60.4,176,43.7v-6.3c0-13.2,7.4-21.5,20.3-21.5
		c13,0,20.1,8.9,20.1,21.5v4.8C216.4,43.6,215.9,44.3,214.7,44.3L214.7,44.3z M205.2,36.1c0-6.6-3.7-10.4-8.9-10.4
		s-9.1,3.7-9.1,10.4v0.3h17.9L205.2,36.1z">
  </path>
  <path class="st0" d="M248.8,25.4c-4.1,0-8.1,1.1-11.7,3.1v34c0,1-0.7,1.7-1.7,1.8h-7.8c-1,0-1.7-0.8-1.7-1.8V18.3
		c0-0.9,0.8-1.7,1.7-1.7h7.4c0.9,0,1.7,0.8,1.7,1.7v1.8c3.5-2.6,7.7-4.1,12.1-4.1c0.9,0,1.7,0.8,1.7,1.7v6.1
		C250.5,24.7,249.8,25.4,248.8,25.4L248.8,25.4z">
  </path>
 </g>
</svg>