<svg version="1.1" id="Layer_1" xmlns:x="ns_extend;" xmlns:i="ns_ai;" xmlns:graph="ns_graphs;" xmlns="http://www.w3.org/2000/svg" xmlns:xlink="http://www.w3.org/1999/xlink" x="0px" y="0px" viewBox="0 0 173.6 52" style="enable-background:new 0 0 173.6 52;" xml:space="preserve">
 <style type="text/css">
  .st0{fill:#F6B802;}
	.st1{fill:#005AFF;}
 </style>
 <metadata>
  <sfw xmlns="ns_sfw;">
   <slices>
   </slices>
   <sliceSourceBounds bottomLeftOrigin="true" height="52" width="173.6" x="113.4" y="-225.6">
   </sliceSourceBounds>
  </sfw>
 </metadata>
 <g>
  <path class="st0" d="M48.8,27.6c0,4.1-0.5,7.7-1.4,11.8c-1.4,5.9-5.5,10-11.4,11.3c-7.8,1.8-16,1.8-23.7,0c-5.5-1.3-10-5.9-11-11.3
		C0.5,35.3,0,31.2,0,27.6c0-4.1,0.5-7.7,1.4-11.8C2.8,10,6.8,5.9,12.8,4.5c3.7-0.9,7.8-1.3,11.9-1.3s7.8,0.5,11.9,1.3
		c5.9,1.3,10,5.4,11.4,11.3C48.4,19.4,48.8,23.5,48.8,27.6z">
  </path>
  <path class="st1" d="M39.5,24.9c6.9,0,12.5-5.6,12.5-12.5S46.4,0,39.5,0S27.1,5.6,27.1,12.5S32.7,24.9,39.5,24.9z">
  </path>
  <path d="M71.5,42.9V14.2h9.2c2.7,0,4.6,0.3,5.8,0.8c1.5,0.7,2.6,1.7,3.4,3c0.8,1.3,1.3,3,1.3,4.8c0,1.8-0.5,3.3-1.3,4.8
		c-0.8,1.4-2,2.4-3.5,3v0.1c0.3,0.3,0.6,0.7,1,1.4l5.9,10.7h-5.8l-5.6-10.7h-5v10.7H71.5z M76.7,27.7h4.7c1.4,0,2.5-0.4,3.3-1.2
		c0.8-0.8,1.2-1.9,1.2-3.3c0-1.5-0.4-2.6-1.2-3.3c-0.8-0.8-2.2-1.1-4.1-1.1h-4C76.7,18.8,76.7,27.7,76.7,27.7z M95.6,32.6
		c0-3.2,1-5.8,2.9-7.8c2-2,4.5-3,7.5-3c2.9,0,5.1,0.9,6.7,2.8c1.6,1.8,2.4,4.2,2.4,7l-0.1,2h-14.2c0.2,1.7,0.8,3.1,2,4
		c1.2,1,2.6,1.4,4.2,1.4c1,0,2-0.2,3-0.6c1-0.4,1.7-0.8,2.3-1.1l0.7-0.6l2,3.7c-0.1,0.1-0.2,0.2-0.3,0.3c-0.2,0.2-0.5,0.4-1.1,0.7
		c-0.5,0.3-1.1,0.6-1.7,0.9c-0.6,0.2-1.3,0.5-2.3,0.7c-0.9,0.2-1.8,0.3-2.8,0.3c-3.3,0-6-1-8-3.1C96.6,38.2,95.6,35.6,95.6,32.6
		L95.6,32.6z M101,30h9c0-1.3-0.4-2.4-1.2-3.2c-0.8-0.8-1.7-1.1-2.9-1.1c-1.3,0-2.4,0.4-3.3,1.1C101.8,27.7,101.3,28.7,101,30z
		 M119.4,51V22.3h4.7v1.5l-0.1,1.4h0.1c0-0.1,0.1-0.2,0.2-0.3c0.1-0.2,0.3-0.4,0.7-0.8c0.4-0.4,0.8-0.8,1.3-1
		c0.5-0.3,1.1-0.6,1.8-0.8c0.8-0.2,1.7-0.3,2.6-0.3c2.8,0,5,1,6.6,3c1.7,2,2.5,4.6,2.5,7.8s-0.9,5.8-2.7,7.8c-1.7,2-4,3-6.7,3
		c-0.8,0-1.5-0.1-2.2-0.3c-0.7-0.2-1.2-0.4-1.7-0.7c-0.4-0.3-0.8-0.6-1.2-0.8c-0.3-0.3-0.5-0.5-0.7-0.7l-0.2-0.3h-0.1
		c0,0.5,0.1,1.1,0.1,1.8V51H119.4L119.4,51z M124.4,32.7c0,1.7,0.5,3.2,1.3,4.5c0.9,1.2,2.2,1.8,3.8,1.8c1.5,0,2.7-0.6,3.7-1.7
		c1-1.2,1.5-2.7,1.5-4.7c0-1.9-0.5-3.5-1.4-4.7c-0.9-1.2-2.2-1.8-3.7-1.8c-1.5,0-2.7,0.5-3.7,1.7C124.9,28.9,124.4,30.5,124.4,32.7
		L124.4,32.7z M143.8,36.5V14.2h5.1v21.5c0,1.1,0.2,1.8,0.5,2.2c0.3,0.4,0.9,0.6,1.6,0.6l0.8,0V43c-0.5,0.1-1,0.1-1.6,0.1
		c-0.8,0-1.6-0.1-2.2-0.2c-0.7-0.2-1.3-0.5-2-0.8c-0.7-0.4-1.2-1.1-1.6-2.1C144,39,143.8,37.8,143.8,36.5z M152.8,50l1.7-3.8
		c0.8,0.6,1.5,0.8,2.3,0.8c1.6,0,2.8-0.9,3.5-2.7l0.8-1.8l-8.7-20.3h5.8l4.3,11.9l0.8,2.8h0.1c0.2-1.1,0.5-2,0.7-2.7l4-12h5.6
		L164.5,46c-0.7,1.8-1.7,3.2-3,4c-1.3,0.9-2.8,1.3-4.4,1.3c-0.7,0-1.5-0.1-2.2-0.3c-0.7-0.2-1.2-0.4-1.6-0.7L152.8,50L152.8,50z">
  </path>
 </g>
</svg>