<svg version="1.1" id="Layer_1" xmlns:x="ns_extend;" xmlns:i="ns_ai;" xmlns:graph="ns_graphs;" xmlns="http://www.w3.org/2000/svg" xmlns:xlink="http://www.w3.org/1999/xlink" x="0px" y="0px" viewBox="0 0 161.1 55" style="enable-background:new 0 0 161.1 55;" xml:space="preserve">
 <style type="text/css">
  .st0{fill-rule:evenodd;clip-rule:evenodd;fill:#FFFFFF;}
	.st1{fill:#FFFFFF;}
 </style>
 <metadata>
  <sfw xmlns="ns_sfw;">
   <slices>
   </slices>
   <sliceSourceBounds bottomLeftOrigin="true" height="55" width="161.1" x="467.2" y="156.7">
   </sliceSourceBounds>
  </sfw>
 </metadata>
 <g transform="matrix(1,0,0,1,-52.1572,-45.7084)">
  <g transform="matrix(1,0,0,1,0,-9.27277)">
   <g transform="matrix(3.24024e-17,-0.529172,0.529172,3.24024e-17,193.198,544.932)">
    <path class="st0" d="M909.6-235.5l16.3,9.4v18.8l-16.3,9.4l-16.3-9.4v-18.8L909.6-235.5z">
    </path>
   </g>
   <g transform="matrix(3.24024e-17,-0.529172,0.529172,3.24024e-17,193.198,809.48)">
    <path class="st0" d="M1373.9-235.5l16.3,9.4v18.8l-16.3,9.4l-16.3-9.4v-18.8L1373.9-235.5z">
    </path>
   </g>
   <g transform="matrix(3.24024e-17,-0.529172,0.529172,3.24024e-17,-37.2531,677.206)">
    <path class="st0" d="M1141.7,169l16.3,9.4v18.8l-16.3,9.4l-16.3-9.4v-18.8L1141.7,169z">
    </path>
   </g>
   <g transform="matrix(3.24024e-17,-0.529172,0.529172,3.24024e-17,-37.2531,941.754)">
    <path class="st0" d="M1606.1,169l16.3,9.4v18.8l-16.3,9.4l-16.3-9.4v-18.8L1606.1,169z">
    </path>
   </g>
   <g transform="matrix(3.24024e-17,-0.529172,0.529172,3.24024e-17,423.887,677.206)">
    <path class="st0" d="M1141.7-640.4l16.3,9.4v18.8l-16.3,9.4l-16.3-9.4V-631L1141.7-640.4z">
    </path>
   </g>
   <g transform="matrix(3.24024e-17,-0.529172,0.529172,3.24024e-17,423.887,941.754)">
    <path class="st0" d="M1606.1-640.4l16.3,9.4v18.8l-16.3,9.4l-16.3-9.4V-631L1606.1-640.4z">
    </path>
   </g>
   <g transform="matrix(3.24024e-17,-0.529172,0.529172,3.24024e-17,193.198,1075.03)">
    <path class="st0" d="M1840-235.5l16.3,9.4v18.8l-16.3,9.4l-16.3-9.4v-18.8L1840-235.5z">
    </path>
   </g>
  </g>
  <g transform="matrix(0.785186,0,0,0.785186,1012.51,32.6589)">
   <path class="st1" d="M-1042.7,67.2l-3,3.1l-15.4-15.1v14.6h-4.3V38h4.3v14.5l13.5-14.6l2.9,2.7l-12.4,12.9L-1042.7,67.2z">
   </path>
   <path class="st1" d="M-1036.8,69.7h-4.1V46.1h4.1V69.7z M-1038.9,42.1c-0.8,0-1.5-0.3-2-0.8c-0.6-0.6-0.8-1.2-0.8-2
			c0-0.9,0.3-1.6,0.8-2.1c0.5-0.5,1.2-0.8,2.1-0.8c0.8,0,1.5,0.3,2,0.8c0.6,0.6,0.8,1.2,0.8,2c0,0.9-0.3,1.6-0.8,2.1
			C-1037.3,41.8-1038,42.1-1038.9,42.1z">
   </path>
   <path class="st1" d="M-1030,39.6h3.1V47h6.5v3.5h-6.5v11.4c0,0.9,0.1,1.6,0.3,2.2c0.2,0.6,0.5,1.1,0.8,1.5
			c0.3,0.4,0.7,0.6,1.2,0.8c0.5,0.2,1,0.2,1.5,0.2c0.8,0,1.5-0.1,2.1-0.4s1.3-0.5,1.9-0.9l1.1,3.3c-0.6,0.4-1.4,0.7-2.4,1.1
			c-1,0.3-2.1,0.5-3.2,0.5c-2.3,0-4.1-0.7-5.4-2.2c-1.3-1.5-2-3.6-2-6.4V50.5h-4.1V47h4.2L-1030,39.6z">
   </path>
  </g>
  <g id="Rite" transform="matrix(0.785186,0,0,0.785186,185.617,23.6589)">
   <path class="st1" d="M-68.8,80.9l-3.9-8.6c-1-2.1-2.3-3.7-3.8-4.6c-1.5-0.9-3.4-1.4-5.8-1.4H-83v14h-4.3V48.7
			c1.6-0.2,3.2-0.3,4.6-0.3c1.4-0.1,3-0.1,4.7-0.1c1.9,0,3.6,0.2,5.1,0.6c1.5,0.4,2.7,1,3.6,1.7c1,0.8,1.7,1.6,2.2,2.7
			c0.5,1,0.7,2.2,0.7,3.4c0,2.2-0.7,4-2,5.3c-1.3,1.3-3.2,2.3-5.7,3c0.6,0.3,1.2,0.6,1.7,0.9s1,0.8,1.5,1.3c0.5,0.5,0.9,1.1,1.3,1.8
			c0.4,0.7,0.9,1.5,1.3,2.5l3.4,7.4L-68.8,80.9z M-78,51.9c-1,0-1.9,0-2.8,0c-0.8,0-1.6,0.1-2.2,0.1v10.7h5c2.2,0,3.9-0.5,5.3-1.5
			c1.4-1,2-2.4,2-4.2c0-1.5-0.6-2.8-1.9-3.7C-73.8,52.4-75.6,51.9-78,51.9z">
   </path>
   <path class="st1" d="M-57,80.4h-4.1V56.8h4.1V80.4z M-59.1,52.8c-0.8,0-1.5-0.3-2-0.8c-0.6-0.6-0.8-1.2-0.8-2
			c0-0.9,0.3-1.6,0.8-2.1c0.5-0.5,1.2-0.8,2.1-0.8c0.8,0,1.5,0.3,2,0.8c0.6,0.6,0.8,1.2,0.8,2c0,0.9-0.3,1.6-0.8,2.1
			C-57.5,52.5-58.2,52.8-59.1,52.8z">
   </path>
   <path class="st1" d="M-49.3,50.2h3.1v7.4h6.5v3.5h-6.5v11.4c0,0.9,0.1,1.6,0.3,2.2c0.2,0.6,0.5,1.1,0.8,1.5
			c0.3,0.4,0.7,0.6,1.2,0.8c0.5,0.2,1,0.2,1.5,0.2c0.8,0,1.5-0.1,2.1-0.4c0.7-0.2,1.3-0.5,1.9-0.9l1.1,3.3c-0.6,0.4-1.4,0.7-2.4,1.1
			c-1,0.3-2.1,0.5-3.2,0.5c-2.3,0-4.1-0.7-5.4-2.2c-1.3-1.5-2-3.6-2-6.4V61.2h-4.1v-3.5h4.2L-49.3,50.2z">
   </path>
   <path class="st1" d="M-32.8,70.3c0.3,2.2,1,3.9,2.3,5.2c1.3,1.2,2.9,1.9,5,1.9c1.4,0,2.6-0.1,3.7-0.4c1.1-0.3,2.1-0.7,3.1-1.1
			l1,3.5c-1.1,0.5-2.3,0.9-3.7,1.2c-1.4,0.3-2.9,0.5-4.6,0.5c-1.7,0-3.2-0.3-4.6-0.8c-1.4-0.6-2.5-1.4-3.5-2.4c-1-1-1.7-2.3-2.2-3.9
			c-0.5-1.5-0.8-3.3-0.8-5.2c0-1.8,0.3-3.4,0.8-4.9c0.5-1.5,1.2-2.8,2.2-3.9c0.9-1.1,2.1-2,3.4-2.6c1.3-0.6,2.8-0.9,4.4-0.9
			c1.7,0,3.2,0.3,4.4,0.9c1.3,0.6,2.3,1.4,3.2,2.4c0.8,1,1.5,2.2,1.9,3.5c0.4,1.3,0.6,2.7,0.6,4.2c0,1.1,0,2.1-0.1,3.1H-32.8z
			 M-26.4,59.8c-1.8,0-3.2,0.6-4.4,1.8s-1.8,3-2.1,5.3H-20c0-2.3-0.6-4.1-1.7-5.3C-22.8,60.4-24.4,59.8-26.4,59.8z">
   </path>
  </g>
 </g>
</svg>