<?xml version="1.0" encoding="utf-8"?>
<!-- Generator: Adobe Illustrator 25.3.1, SVG Export Plug-In . SVG Version: 6.00 Build 0)  -->
<svg version="1.1" id="Layer_1" xmlns="http://www.w3.org/2000/svg" xmlns:xlink="http://www.w3.org/1999/xlink" x="0px" y="0px"
	 viewBox="0 0 163.3 27" style="enable-background:new 0 0 163.3 27;" xml:space="preserve">
<style type="text/css">
	.st0{fill:#FFFFFF;}
	.st1{fill:#FFC91F;}
	.st2{fill:#0F0F0E;}
</style>
<g>
	<path class="st0" d="M1,8.3v10.3c0-2,0.8-3.9,2.3-5.3c1.5-1.4,3.5-2.2,5.5-2.2h7.8V8.3c0-2-0.8-3.9-2.3-5.3
		c-1.5-1.4-3.5-2.2-5.5-2.2C6.7,0.8,4.7,1.6,3.3,3C1.8,4.4,1,6.3,1,8.3L1,8.3z"/>
	<path class="st0" d="M8.8,26.1h10.8c2.1,0,4.1-0.8,5.5-2.2c1.5-1.4,2.3-3.3,2.3-5.3l0,0c0-2-0.8-3.9-2.3-5.3
		c-1.5-1.4-3.5-2.2-5.5-2.2h-2.9v7.5c0,2-0.8,3.9-2.3,5.3C12.9,25.3,10.9,26.1,8.8,26.1L8.8,26.1z"/>
	<path class="st1" d="M1,18.6c0,2,0.8,3.9,2.3,5.3c1.5,1.4,3.5,2.2,5.5,2.2l0,0c2.1,0,4.1-0.8,5.5-2.2s2.3-3.3,2.3-5.3v-7.5H8.8
		c-2.1,0-4.1,0.8-5.5,2.2C1.8,14.7,1,16.6,1,18.6L1,18.6z"/>
	<path class="st2" d="M19.6,10.2h-2V8.3c0-2.2-1-4.3-2.6-5.9C13.3,0.9,11.1,0,8.8,0C6.5,0,4.3,0.9,2.6,2.4C1,4,0,6.1,0,8.3v10.3
		c0,2.2,0.9,4.4,2.6,5.9C4.2,26.1,6.5,27,8.8,27h10.8c2.3,0,4.5-0.9,6.1-2.5c1.6-1.6,2.5-3.7,2.5-5.9s-0.9-4.3-2.5-5.9
		C24.1,11.1,21.9,10.2,19.6,10.2L19.6,10.2z M2,13.3v-5c0-1.7,0.8-3.4,2-4.6s3-1.9,4.8-1.9s3.5,0.7,4.8,1.9c1.3,1.2,2,2.8,2,4.6v1.9
		H8.8c-0.2,0-0.3,0-0.5,0l-0.2,0c-0.1,0-0.2,0-0.3,0l-0.2,0c-0.1,0-0.2,0-0.3,0l-0.2,0l-0.3,0.1l-0.2,0c-0.1,0-0.2,0-0.3,0.1l-0.2,0
		L6,10.6l-0.2,0c-0.1,0-0.2,0.1-0.4,0.1l-0.1,0C5.3,10.9,5.1,10.9,5,11l-0.1,0.1c-0.1,0-0.2,0.1-0.3,0.1l-0.2,0.1
		c-0.1,0-0.2,0.1-0.2,0.1c-0.1,0-0.1,0.1-0.2,0.1l-0.2,0.1l-0.2,0.1c-0.1,0.1-0.1,0.1-0.2,0.2L3.3,12c-0.1,0.1-0.1,0.1-0.2,0.2
		l-0.1,0.1c-0.1,0.1-0.2,0.1-0.2,0.2l-0.1,0.1c-0.1,0.1-0.2,0.2-0.3,0.3c0,0-0.1,0.1-0.1,0.1C2.1,13.1,2.1,13.2,2,13.3L2,13.3z
		 M2,18.6c0-1.7,0.7-3.4,2-4.6C5.2,12.7,7,12,8.8,12h6.8v6.5c0,0.9-0.2,1.7-0.5,2.5c-0.3,0.8-0.8,1.5-1.5,2.2
		c-0.6,0.6-1.4,1.1-2.2,1.4c-0.8,0.3-1.7,0.5-2.6,0.5S7,25.1,6.2,24.7c-0.8-0.3-1.6-0.8-2.2-1.4c-0.6-0.6-1.1-1.4-1.5-2.2
		C2.1,20.3,1.9,19.4,2,18.6L2,18.6z M19.6,25.1h-5.2l0,0c0.1-0.1,0.2-0.1,0.2-0.2c0,0,0.1-0.1,0.1-0.1c0.1-0.1,0.2-0.2,0.3-0.3
		l0.1-0.1c0.1-0.1,0.1-0.1,0.2-0.2l0.1-0.1c0.1-0.1,0.1-0.1,0.2-0.2c0.1-0.1,0.1-0.1,0.1-0.1s0.1-0.1,0.2-0.2
		c0.1-0.1,0.1-0.1,0.1-0.1c0-0.1,0.1-0.1,0.2-0.2l0.1-0.2c0-0.1,0.1-0.2,0.1-0.2c0,0,0.1-0.1,0.1-0.1c0.1-0.1,0.1-0.2,0.1-0.3
		c0,0,0-0.1,0.1-0.1c0.1-0.1,0.1-0.3,0.2-0.4c0,0,0,0,0-0.1c0-0.1,0.1-0.2,0.1-0.3c0,0,0-0.1,0.1-0.1c0-0.1,0.1-0.2,0.1-0.3
		c0-0.1,0-0.1,0-0.2c0-0.1,0.1-0.2,0.1-0.3c0-0.1,0-0.1,0-0.2c0-0.1,0-0.2,0.1-0.3c0-0.1,0-0.1,0-0.2c0-0.1,0-0.2,0-0.3
		c0-0.1,0-0.1,0-0.2c0-0.1,0-0.2,0-0.3c0-0.1,0-0.1,0-0.2c0-0.2,0-0.3,0-0.5V12h2c1.8,0,3.6,0.7,4.8,1.9c1.3,1.2,2,2.9,2,4.6
		s-0.7,3.4-2,4.6C23.1,24.4,21.4,25.1,19.6,25.1L19.6,25.1z"/>
	<path d="M50.8,9.7l-2.3,0.7c-0.1-0.6-0.4-1.1-0.9-1.6c-0.5-0.5-1.2-0.7-2.1-0.7c-0.8,0-1.4,0.2-1.9,0.6c-0.5,0.4-0.7,0.9-0.7,1.5
		c0,1,0.6,1.7,1.8,2l2.2,0.5c1.3,0.3,2.3,0.8,3.1,1.6c0.7,0.8,1.1,1.7,1.1,2.8c0,1.3-0.5,2.3-1.5,3.3c-1,0.9-2.3,1.4-3.9,1.4
		c-1.8,0-3.2-0.5-4.2-1.4c-1-0.9-1.6-2-1.7-3.3l2.4-0.7c0.1,0.9,0.4,1.6,1,2.2c0.6,0.6,1.4,0.9,2.4,0.9c0.9,0,1.6-0.2,2-0.6
		c0.5-0.4,0.7-0.9,0.7-1.5c0-0.5-0.2-0.9-0.5-1.3c-0.4-0.4-0.9-0.6-1.5-0.8l-2.1-0.5C43,14.5,42,14,41.3,13.3c-0.7-0.7-1-1.7-1-2.8
		c0-1.3,0.5-2.4,1.5-3.3c1-0.9,2.2-1.4,3.7-1.4c1.6,0,2.9,0.4,3.7,1.2C50,7.8,50.6,8.7,50.8,9.7z M57.9,12.9c-0.8,0-1.5,0.3-2,0.9
		c-0.6,0.6-0.8,1.4-0.8,2.4c0,1,0.3,1.8,0.8,2.4c0.6,0.6,1.3,0.9,2.1,0.9c0.7,0,1.3-0.2,1.7-0.6c0.4-0.4,0.7-0.9,0.9-1.4l2.2,0.8
		c-0.3,0.9-0.8,1.7-1.7,2.4c-0.8,0.7-1.9,1-3.1,1c-1.5,0-2.8-0.5-3.9-1.6c-1-1.1-1.5-2.4-1.5-4c0-1.6,0.5-2.9,1.5-4
		c1-1,2.3-1.6,3.8-1.6c1.3,0,2.4,0.3,3.2,1c0.8,0.7,1.4,1.5,1.6,2.4l-2.2,0.8c-0.1-0.5-0.4-1-0.8-1.4C59.2,13.1,58.6,12.9,57.9,12.9
		z M71.2,10.9v2.5c-0.3,0-0.6-0.1-0.8-0.1c-1.9,0-2.8,1-2.8,3.1v5H65V10.9h2.4v1.7c0.2-0.6,0.6-1,1.2-1.3c0.5-0.3,1.2-0.5,1.8-0.5
		C70.7,10.8,71,10.8,71.2,10.9z M72.7,18.5c0-0.9,0.3-1.6,0.9-2.1c0.6-0.5,1.4-0.9,2.3-1l2.7-0.4c0.5-0.1,0.8-0.3,0.8-0.8
		c0-0.5-0.2-0.9-0.5-1.1c-0.3-0.3-0.8-0.5-1.5-0.5c-0.6,0-1.1,0.2-1.5,0.5c-0.4,0.3-0.6,0.8-0.6,1.4L72.9,14
		c0.1-0.9,0.6-1.7,1.4-2.4c0.8-0.7,1.8-1,3.1-1c1.5,0,2.6,0.4,3.4,1.1c0.7,0.7,1.1,1.7,1.1,2.8v5.2c0,0.7,0,1.2,0.1,1.7h-2.3
		c-0.1-0.2-0.1-0.7-0.1-1.3c-0.7,1.1-1.8,1.7-3.2,1.7c-1.1,0-1.9-0.3-2.6-0.9C73,20.1,72.7,19.4,72.7,18.5z M76.7,19.7
		c0.8,0,1.4-0.2,1.9-0.6c0.5-0.4,0.7-1.1,0.7-2.1v-0.5L76.6,17c-0.9,0.2-1.4,0.6-1.4,1.4c0,0.4,0.1,0.7,0.4,1
		C75.9,19.6,76.2,19.7,76.7,19.7z M87.3,25.5h-2.5V10.9h2.4v1.4c0.3-0.5,0.7-0.9,1.3-1.2c0.6-0.3,1.3-0.5,2-0.5
		c1.5,0,2.7,0.5,3.5,1.5c0.9,1,1.3,2.3,1.3,3.9s-0.5,2.9-1.4,4c-0.9,1-2.1,1.5-3.6,1.5c-0.7,0-1.4-0.1-1.9-0.4c-0.6-0.3-1-0.6-1.3-1
		V25.5z M92.9,16.1c0-1-0.3-1.8-0.8-2.3c-0.5-0.6-1.2-0.9-2-0.9c-0.8,0-1.5,0.3-2,0.9c-0.5,0.6-0.8,1.4-0.8,2.3c0,1,0.3,1.8,0.8,2.4
		c0.5,0.6,1.2,0.9,2,0.9s1.5-0.3,2-0.9C92.7,17.9,92.9,17.1,92.9,16.1z M100.4,21.4h-2.5V10.9h2.5V21.4z M98,8.4
		c-0.3-0.3-0.5-0.7-0.5-1.1c0-0.4,0.2-0.8,0.5-1.1c0.3-0.3,0.7-0.5,1.1-0.5c0.5,0,0.8,0.2,1.2,0.5c0.3,0.3,0.5,0.7,0.5,1.2
		c0,0.4-0.2,0.8-0.5,1.1c-0.3,0.3-0.7,0.5-1.2,0.5C98.7,8.9,98.3,8.7,98,8.4z M106.2,15.3v6h-2.5V10.9h2.4v1.4
		c0.3-0.6,0.8-1,1.3-1.3c0.6-0.3,1.2-0.4,1.8-0.4c1.2,0,2.2,0.4,2.8,1.2c0.6,0.8,1,1.8,1,3v6.6h-2.5v-6.2c0-0.7-0.2-1.3-0.5-1.7
		c-0.3-0.4-0.9-0.6-1.6-0.6c-0.7,0-1.2,0.2-1.6,0.7C106.3,14,106.2,14.6,106.2,15.3z M115.3,22l2.3-0.6c0.1,0.7,0.4,1.2,0.8,1.6
		c0.5,0.4,1.1,0.6,1.8,0.6c2,0,3-1,3-3.1v-1.1c-0.2,0.4-0.6,0.8-1.2,1.1c-0.5,0.3-1.2,0.4-1.9,0.4c-1.4,0-2.6-0.5-3.5-1.4
		c-0.9-1-1.4-2.2-1.4-3.7c0-1.4,0.5-2.6,1.4-3.6c0.9-1,2.1-1.5,3.5-1.5c1.5,0,2.6,0.5,3.1,1.5v-1.3h2.4v9.5c0,1.5-0.4,2.8-1.3,3.8
		c-0.9,1-2.2,1.5-4.1,1.5c-1.3,0-2.5-0.4-3.4-1.1C116,24,115.5,23,115.3,22z M120.6,18.8c0.8,0,1.4-0.3,1.9-0.8
		c0.5-0.5,0.8-1.3,0.8-2.2c0-0.9-0.2-1.6-0.8-2.1c-0.5-0.5-1.1-0.8-1.9-0.8c-0.8,0-1.5,0.3-2,0.8c-0.5,0.5-0.8,1.2-0.8,2.1
		c0,0.9,0.3,1.6,0.8,2.2C119.1,18.5,119.8,18.8,120.6,18.8z M129,6.1h5.2c1.4,0,2.6,0.4,3.4,1.1c0.8,0.8,1.2,1.7,1.2,3
		c0,0.8-0.2,1.5-0.6,2.1c-0.4,0.6-1,1-1.6,1.2c0.8,0.2,1.5,0.7,2,1.3c0.5,0.7,0.8,1.4,0.8,2.3c0,1.2-0.4,2.2-1.3,3
		c-0.9,0.8-2,1.2-3.4,1.2H129V6.1z M131.6,12.6h2.3c0.7,0,1.3-0.2,1.8-0.6c0.4-0.4,0.6-0.9,0.6-1.5c0-0.7-0.2-1.2-0.7-1.5
		c-0.4-0.4-1-0.6-1.8-0.6h-2.3V12.6z M131.6,19.2h2.6c0.8,0,1.4-0.2,1.8-0.6c0.5-0.4,0.7-0.9,0.7-1.6c0-0.7-0.2-1.2-0.7-1.6
		c-0.4-0.4-1-0.6-1.8-0.6h-2.7V19.2z M143.8,15h5.1c0-0.7-0.3-1.2-0.7-1.7c-0.4-0.4-1.1-0.7-1.9-0.7c-0.7,0-1.3,0.2-1.8,0.7
		C144.1,13.8,143.8,14.4,143.8,15z M149.2,17.7l2.1,0.7c-0.3,1-0.9,1.8-1.7,2.4c-0.8,0.6-1.8,0.9-3,0.9c-1.5,0-2.8-0.5-3.8-1.5
		c-1-1-1.5-2.4-1.5-4.1c0-1.6,0.5-2.9,1.5-4c1-1,2.2-1.5,3.6-1.5c1.6,0,2.9,0.5,3.8,1.5c0.9,1,1.4,2.3,1.4,4c0,0.4,0,0.7-0.1,0.8
		h-7.6c0,0.8,0.3,1.4,0.9,2c0.6,0.5,1.2,0.8,2,0.8C147.9,19.6,148.8,18.9,149.2,17.7z M155.6,15h5.1c0-0.7-0.3-1.2-0.7-1.7
		c-0.4-0.4-1.1-0.7-1.9-0.7c-0.7,0-1.3,0.2-1.8,0.7C155.9,13.8,155.7,14.4,155.6,15z M161,17.7l2.1,0.7c-0.3,1-0.9,1.8-1.7,2.4
		c-0.8,0.6-1.8,0.9-3,0.9c-1.5,0-2.8-0.5-3.8-1.5c-1-1-1.5-2.4-1.5-4.1c0-1.6,0.5-2.9,1.5-4c1-1,2.2-1.5,3.6-1.5
		c1.6,0,2.9,0.5,3.8,1.5c0.9,1,1.4,2.3,1.4,4c0,0.4,0,0.7-0.1,0.8h-7.6c0,0.8,0.3,1.4,0.9,2c0.6,0.5,1.2,0.8,2,0.8
		C159.8,19.6,160.6,18.9,161,17.7z"/>
</g>
</svg>
