<svg version="1.1" id="Layer_1" xmlns:x="ns_extend;" xmlns:i="ns_ai;" xmlns:graph="ns_graphs;" xmlns="http://www.w3.org/2000/svg" xmlns:xlink="http://www.w3.org/1999/xlink" x="0px" y="0px" viewBox="0 0 305.5 42" style="enable-background:new 0 0 305.5 42;" xml:space="preserve">
 <style type="text/css">
  .st0{fill-rule:evenodd;clip-rule:evenodd;fill:#FFFFFF;}
	.st1{fill-rule:evenodd;clip-rule:evenodd;fill:#FF3C78;}
 </style>
 <metadata>
  <sfw xmlns="ns_sfw;">
   <slices>
   </slices>
   <sliceSourceBounds bottomLeftOrigin="true" height="42" width="305.5" x="-65.3" y="-9">
   </sliceSourceBounds>
  </sfw>
 </metadata>
 <g id="Page-1">
  <g id="Group-32">
   <g id="Branding_x2F_Wordmark" transform="translate(45.370551, 0.000000)">
    <path id="Combined-Shape" class="st0" d="M74.7,12c9.9,0,15.3,6.5,14.4,17H66.6c0.5,4.1,3.9,6.7,8.9,6.7c3.2,0,6.4-1.1,8.1-2.9
				l3.9,3.7c-2.8,3-7.3,4.9-12.1,4.9c-9.3,0-15.2-5.8-15.2-14.8C60.1,17.9,66,12,74.7,12z M245.6,12c9.9,0,15.3,6.5,14.4,17h-22.4
				c0.5,4.1,3.9,6.7,8.9,6.7c3.2,0,6.4-1.1,8.1-2.9l3.9,3.7c-2.8,3-7.3,4.9-12.1,4.9c-9.3,0-15.2-5.8-15.2-14.8
				C231,17.9,236.9,12,245.6,12z M46.8,11.9c4.3,0,8,1.1,11.1,3.2l-2.8,4.5c-2.5-1.6-5.2-2.4-8.1-2.4c-4,0-6.2,1.1-6.2,3.2
				c0,1.8,1.6,2.8,5.7,3.2c8.3,0.9,11.9,3.6,11.9,8.8c0,5.2-4.8,8.7-12.1,8.7c-4.7,0-8.9-1.4-12.7-4.1l3-4.6c2.5,2,6.2,3.1,9.9,3.1
				c3.6,0,5.6-1.1,5.6-3.2c0-2-1.8-2.9-6.1-3.4c-7.3-0.7-11.5-3.7-11.5-8.6C34.6,15.4,39.5,11.9,46.8,11.9z M152.1,0v40.6h-5.7
				l-0.1-3.7c-2.2,2.7-5.9,4.4-10.3,4.4c-8,0-13.8-5.8-13.8-14.6S128,12,136,12c4,0,7.5,1.4,9.7,3.6V0H152.1z M180.2,12
				c4.4,0,8.1,1.6,10.2,4.4l0.1-3.7h5.7v28h-5.7l-0.1-3.7c-2.2,2.7-5.9,4.4-10.2,4.4c-8.2,0-13.9-6-13.9-14.6S172,12,180.2,12z
				 M107.5,12c7.2,0,12,5.1,12,13.1v15.5h-6.4V25.5c0-4.9-2.6-7.8-6.8-7.8c-4.7,0-7.9,3.4-7.9,8.1v14.7h-6.4v-28h5.7l0.1,3.7
				C100.2,13.4,103.5,12,107.5,12z M216.3,12c7.2,0,12,5.1,12,13.1v15.5H222V25.5c0-4.9-2.6-7.8-6.8-7.8c-4.7,0-7.9,3.4-7.9,8.1
				v14.7h-6.4v-28h5.7l0.1,3.7C209,13.4,212.4,12,216.3,12z M163.2,0v40.6h-6.4V0H163.2z M137.1,17.7c-5.1,0-8.6,3.6-8.6,8.8
				s3.5,8.8,8.6,8.8c5.1,0,8.6-3.6,8.6-8.8S142.2,17.7,137.1,17.7z M181.2,17.7c-5.1,0-8.6,3.6-8.6,8.8s3.5,8.8,8.6,8.8
				c5.1,0,8.6-3.6,8.6-8.8S186.3,17.7,181.2,17.7z M74.8,17.5c-4.4,0-7.3,2.4-8.1,6.5H83C82.6,20.1,79.5,17.5,74.8,17.5z
				 M245.7,17.5c-4.4,0-7.3,2.4-8.1,6.5h16.3C253.5,20.1,250.4,17.5,245.7,17.5z">
    </path>
   </g>
   <g id="Branding_x2F_Icon" transform="translate(0.157355, -0.000040)">
    <path id="Fill-31" class="st1" d="M56.4,6c0,9.1-11.8,16.5-26.5,16.5c-8.7,0-16.3-2.6-21.2-6.6c-0.5-0.4-1.2,0.1-0.9,0.7
				c4.3,9.7,12.4,17.4,22.3,21.2c0.3,0.1,0.2,0.6-0.1,0.6H5.8c-1.3,0-2.4-1.1-2.4-2.4V6V5.9c0-0.3,0.5-0.4,0.6-0.1
				c2.5,6.7,13,11.9,25.9,11.9c12.9,0,23.3-5.1,25.9-11.9C55.9,5.5,56.4,5.6,56.4,6L56.4,6z M54,0H5.9c-3.3,0-6,2.7-6,6v30
				c0,3.3,2.7,6,6,6H54c3.3,0,6-2.7,6-6V6C60,2.7,57.3,0,54,0L54,0z">
    </path>
   </g>
  </g>
 </g>
</svg>