<svg fill="none" height="20" viewBox="0 0 117 20" width="124" xmlns="http://www.w3.org/2000/svg"><path clip-rule="evenodd" d="M116.873 17.236V0.601562H113.413V6.9073C112.579 5.65583 111.279 4.9445 109.586 4.9445C106.47 4.9445 103.992 7.74141 103.992 11.2007C103.992 14.6598 106.47 17.4814 109.586 17.4814C111.279 17.4814 112.579 16.7698 113.413 15.5186V17.236H116.873ZM113.418 11.1991C113.418 12.8918 112.093 14.1677 110.4 14.1677C108.732 14.1677 107.383 12.8674 107.383 11.1991C107.383 9.55547 108.732 8.23047 110.4 8.23047C112.093 8.23047 113.418 9.53076 113.418 11.1991ZM102.493 8.05729C102.91 8.05729 103.327 8.13082 103.744 8.22891V5.08847C103.351 5.01494 102.959 4.94141 102.591 4.94141C101.241 4.94141 100.186 5.53023 99.4749 6.56067V5.1867H96.0156V17.2329H99.4749V11.2957C99.4749 9.06302 100.824 8.05729 102.493 8.05729ZM94.5013 2.08544C94.5013 0.956765 93.5443 0 92.3913 0C91.2382 0 90.2812 0.956765 90.2812 2.08544C90.2812 3.23838 91.2382 4.19515 92.3913 4.19515C93.5443 4.19515 94.5013 3.23838 94.5013 2.08544ZM89.4262 11.2007C89.4262 7.74141 86.9482 4.9445 83.8324 4.9445C82.1641 4.9445 80.8638 5.63141 80.0297 6.88259V0.601562H76.5703V17.236H80.0297V15.5432C80.8638 16.7945 82.1641 17.4814 83.8324 17.4814C86.9482 17.4814 89.4262 14.6598 89.4262 11.2007ZM86.0343 11.1991C86.0343 12.8674 84.7093 14.1677 83.0411 14.1677C81.3481 14.1677 80.0234 12.8918 80.0234 11.1991C80.0234 9.53076 81.3481 8.23047 83.0411 8.23047C84.7093 8.23047 86.0343 9.55547 86.0343 11.1991ZM71.218 17.236H74.6773V0.601562H71.218V6.9073C70.3839 5.65583 69.0836 4.9445 67.3907 4.9445C64.2751 4.9445 61.7969 7.74141 61.7969 11.2007C61.7969 14.6598 64.2751 17.4814 67.3907 17.4814C69.0836 17.4814 70.3839 16.7698 71.218 15.5186V17.236ZM71.215 11.1991C71.215 12.8918 69.8901 14.1677 68.1973 14.1677C66.5291 14.1677 65.1797 12.8674 65.1797 11.1991C65.1797 9.55547 66.5291 8.23047 68.1973 8.23047C69.8901 8.23047 71.215 9.53076 71.215 11.1991ZM57.0704 17.2329H60.5297V10.4124C60.5297 7.00214 58.6652 4.94141 55.5738 4.94141C54.1999 4.94141 53.0714 5.60391 52.311 6.75699V5.1867H48.8516V17.2329H52.311V10.8542C52.311 9.28391 53.2432 8.25332 54.6905 8.25332C56.1135 8.25332 57.0704 9.28391 57.0704 10.8542V17.2329ZM47.5263 12.0317C47.5754 11.6392 47.5998 11.0749 47.5998 10.8051C47.5998 7.49273 44.9257 4.94141 41.6626 4.94141C38.1542 4.94141 35.4062 7.63994 35.4062 11.1485C35.4062 14.706 38.1787 17.4783 41.7361 17.4783C44.7537 17.4783 47.0355 15.7854 47.4282 13.1848H44.0424C43.8461 14.0189 42.9873 14.6079 41.6382 14.6079C40.0187 14.6079 38.8165 13.6018 38.5713 12.0317H47.5263ZM43.9923 9.82733H38.7422C39.1591 8.40454 40.1898 7.74219 41.5145 7.74219C42.7904 7.74219 43.8944 8.60086 43.9923 9.82733ZM27.3553 8.64597C27.3553 8.0817 27.9443 7.81185 28.7295 7.81185C29.8334 7.81185 30.4958 8.35155 30.5449 8.96494H34.0287C33.7343 6.29082 31.4037 4.94141 28.8031 4.94141C25.8343 4.94141 24.0187 6.65861 24.0187 8.89126C24.0187 13.3811 30.7903 11.6148 30.7903 13.6018C30.7903 14.1661 30.2014 14.5096 29.1711 14.5096C28.0178 14.5096 27.159 13.9698 27.0855 13.1601H23.7734C24.0187 15.8835 26.2023 17.4783 29.3427 17.4783C32.0659 17.4783 34.1514 15.7854 34.1514 13.5773C34.1514 8.54802 27.3553 10.5107 27.3553 8.64597ZM20 10C20 4.47706 15.5228 0 10 0H9.99677H0V5C0 7.72706 2.18426 9.94 4.89838 9.99471H0C0 15.5176 4.47721 19.9947 10 19.9947V20C15.5228 20 20 15.5228 20 10ZM90.6719 17.2337H94.1313V5.1875H90.6719V17.2337Z" fill="#0D0D0D" fill-rule="evenodd"></path></svg>