<svg fill="none" height="22" viewBox="0 0 130 22" width="130" xmlns="http://www.w3.org/2000/svg">
<path d="M15.0123 1.15527C16.9235 1.15527 18.4767 2.70847 18.4767 4.61966V21.9416L11.548 19.632H3.46439C2.82925 19.632 2.23453 19.4646 1.72642 19.1643L6.79597 15.2207L13.003 10.3936L6.79597 5.56659L1.72642 1.62297C2.23453 1.32272 2.82925 1.15527 3.46439 1.15527H15.0123ZM9.23836 10.3936L5.45641 13.3326L0.225185 17.3975C0.0808357 17.0164 0 16.6007 0 16.1676V4.61966C0 4.18661 0.0808357 3.77088 0.225185 3.3898L5.45641 7.45468L9.23836 10.3936Z" fill="#7733FF"></path>
<path d="M31.2314 10.048C33.25 10.6214 34.3961 11.9061 34.3961 13.7873C34.3961 16.0126 32.5155 17.4578 29.9461 17.4578C28.1342 17.4578 26.4136 16.7695 25.4043 15.3243L27.5147 13.5349C28.0424 14.3381 29.0286 14.7966 30.1072 14.7966C30.9092 14.7966 31.5293 14.5217 31.5293 13.9709C31.5293 13.4662 31.0703 13.2595 29.8318 12.9154L29.0286 12.6862C26.9413 12.1359 25.8858 10.7588 25.932 8.97004C25.9546 6.88217 27.7214 5.48314 30.1297 5.48314C31.8047 5.48314 33.112 6.10269 34.0526 7.11198L32.2863 9.01566C31.6442 8.4423 30.8411 8.07508 29.9923 8.07508C29.2809 8.07508 28.7763 8.3043 28.7763 8.78643C28.7763 9.19927 29.0286 9.4285 30.1528 9.74953L31.2314 10.048ZM41.0275 5.48291C44.0329 5.48291 46.671 7.41026 46.671 11.1264C46.671 11.4018 46.671 11.7223 46.6254 12.2044H38.0453C38.2289 13.7414 39.5823 14.5902 41.0968 14.5902C42.5189 14.5902 43.5513 13.925 44.056 13.145L46.3956 14.8881C45.3407 16.4252 43.4826 17.4576 41.0737 17.4576C37.6555 17.4576 34.9943 15.0948 34.9943 11.4705C34.9943 8.07485 37.5406 5.48291 41.0275 5.48291ZM38.1602 10.0709H43.5282C43.2528 8.71749 42.1061 8.07485 40.9363 8.07485C39.7659 8.07485 38.4587 8.67188 38.1602 10.0709ZM54.4034 5.48302C57.1795 5.48302 58.8309 7.50218 58.8309 10.4839V17.2053H55.6881V11.0116C55.6881 9.35967 54.9773 8.35038 53.6695 8.35038C52.2243 8.35038 51.1226 9.40586 51.1226 11.6081V17.2053H47.9804V5.73535H51.1226V7.04315C51.7197 6.12509 52.9126 5.48302 54.4034 5.48302ZM68.6746 7.02V0H71.8174V17.2053H68.6746V15.9206C68.17 16.655 66.954 17.4576 65.3714 17.4576C62.3198 17.4576 59.9802 14.7277 59.9802 11.4706C59.9802 8.2129 62.3198 5.48297 65.3714 5.48297C66.954 5.48297 68.17 6.28613 68.6746 7.02ZM66.0365 14.5903C67.7566 14.5903 68.927 13.2594 68.927 11.4706C68.927 9.68122 67.7566 8.35032 66.0365 8.35032C64.3164 8.35032 63.1461 9.68122 63.1461 11.4706C63.1461 13.2594 64.3164 14.5903 66.0365 14.5903ZM78.7934 10.048C80.812 10.6214 81.9587 11.9061 81.9587 13.7873C81.9587 16.0126 80.0781 17.4578 77.5081 17.4578C75.6962 17.4578 73.9756 16.7695 72.9663 15.3243L75.0767 13.5349C75.6044 14.3381 76.5912 14.7966 77.6692 14.7966C78.4718 14.7966 79.0913 14.5217 79.0913 13.9709C79.0913 13.4662 78.6329 13.2595 77.3938 12.9154L76.5912 12.6862C74.5033 12.1359 73.4484 10.7588 73.494 8.97004C73.5171 6.88217 75.2834 5.48314 77.6923 5.48314C79.3667 5.48314 80.6745 6.10269 81.6151 7.11198L79.8483 9.01566C79.2062 8.4423 78.403 8.07508 77.5543 8.07508C76.8435 8.07508 76.3389 8.3043 76.3389 8.78643C76.3389 9.19927 76.5912 9.4285 77.7148 9.74953L78.7934 10.048ZM89.7598 5.48297C92.8107 5.48297 95.1509 8.2129 95.1509 11.4706C95.1509 14.7277 92.8107 17.4576 89.7598 17.4576C88.1771 17.4576 86.9611 16.655 86.4334 15.9206V22H83.2906V5.73529H86.4334V7.02C86.9611 6.28613 88.1771 5.48297 89.7598 5.48297ZM89.0715 14.5903C90.7922 14.5903 91.962 13.2594 91.962 11.4706C91.962 9.68122 90.7922 8.35032 89.0715 8.35032C87.3514 8.35032 86.1811 9.68122 86.1811 11.4706C86.1811 13.2594 87.3514 14.5903 89.0715 14.5903ZM104.397 7.02V5.73529H107.54V17.2053H104.397V15.9206C103.893 16.655 102.677 17.4576 101.094 17.4576C98.0429 17.4576 95.7027 14.7277 95.7027 11.4706C95.7027 8.2129 98.0429 5.48297 101.094 5.48297C102.677 5.48297 103.893 6.28613 104.397 7.02ZM101.759 14.5903C103.48 14.5903 104.65 13.2594 104.65 11.4706C104.65 9.68122 103.48 8.35032 101.759 8.35032C100.039 8.35032 98.8686 9.68122 98.8686 11.4706C98.8686 13.2594 100.039 14.5903 101.759 14.5903ZM112.726 7.57043C113.117 6.44624 114.286 5.59747 115.572 5.59747C115.892 5.59747 116.236 5.62056 116.627 5.73546V8.92385C116.145 8.76334 115.708 8.67153 115.204 8.67153C113.713 8.67153 112.726 9.84191 112.726 11.7225V17.2055H109.584V5.73546H112.726V7.57043ZM124.046 11.2437L129.336 17.2053H125.459L120.779 11.9291V17.2053H117.636V5.7769e-05H120.779V8.53746C121.037 8.62638 121.311 8.68065 121.605 8.68065C122.912 8.68065 123.624 7.67136 123.624 6.02V5.02226H126.767V6.54717C126.767 8.85214 125.776 10.5774 124.046 11.2437Z" fill="black"></path>
</svg>