<svg class="_logo_1ia93_83" height="22" id="uuid-a2a0694a-db06-48d6-85a6-04f33b32d45c" viewBox="0 0 386.21 80" width="112" xmlns="http://www.w3.org/2000/svg" xmlns:xlink="http://www.w3.org/1999/xlink"><defs><clipPath id="uuid-2712ea53-e7bd-471e-8b1d-4dda30528c5d"><rect height="80" style="fill:none;stroke-width:0" width="386.21"></rect></clipPath><clipPath id="uuid-e8c0ce8b-32b2-4770-996e-219b1afde9c8"><rect height="80" style="fill:none;stroke-width:0" width="79.68"></rect></clipPath></defs><g style="clip-path:url(#uuid-2712ea53-e7bd-471e-8b1d-4dda30528c5d)"><g style="clip-path:url(#uuid-e8c0ce8b-32b2-4770-996e-219b1afde9c8)"><path d="m67.65,41.42l.11.04.11.04.11.05.11.06.1.06.1.06.1.07.09.07.09.08.09.08.08.09.08.09.08.1.07.1.07.1.06.1.05.11.05.11.04.11.04.11.03.12.03.11.02.12.02.11v.12s.02.12.02.12v.12s0,.12,0,.12v.12s-.02.12-.02.12l-.02.12-.02.12-.03.12-.03.11-.04.12-.04.11-.05.11-.05.11-.06.1-.07.1-.07.1-.08.09-.08.09-.08.08-.09.09-.09.08-.09.07-.1.07-.1.07-.1.06-.11.06-.11.05-.11.05-.11.04-.11.04-.11.03-.11.03-.12.02h-.11s-.12.03-.12.03h-.02.12s.22-.01.22-.01h.22s.22-.03.22-.03l.21-.03.22-.03.21-.04.21-.04.21-.05.21-.05.21-.06.21-.07.2-.07.2-.08.2-.08.2-.09.2-.09.19-.1.19-.1.19-.11.18-.12.18-.12.18-.12.18-.13.17-.13.17-.13.17-.14.16-.15.16-.15.16-.16.15-.16.14-.16.14-.17.14-.17.13-.18.13-.18.12-.18.12-.19.11-.19.11-.19.11-.19.1-.19.09-.2.09-.2.08-.2.08-.2.07-.21.06-.21.06-.21.05-.21.05-.21.04-.22.04-.21.03-.21.02-.22.02-.22.02-.22v-.22s0-.22,0-.22v-.22s0-.22,0-.22l-.02-.22-.02-.22-.02-.21-.03-.22-.04-.22-.04-.21-.05-.21-.04-.16h-7.9s-18.33,0-18.33,0l19.02,5.25.13.04Z" style="fill:#160f26;stroke-width:0"></path><path d="m79.67,43.32l-.02-.28-.02-.27-.03-.28-.03-.27-.04-.27-.04-.27-.05-.27-.05-.27-.06-.27-.07-.27-.07-.27-.08-.26-.08-.26-.09-.26-.1-.26-.1-.25-.11-.26-.11-.25-.11-.25-.12-.25-.13-.24-.13-.24-.14-.24-.14-.24-.14-.23-.15-.23-.15-.22-.16-.22-.05-.07h-2.38l.04.16.05.21.04.21.04.22.03.22.02.21.02.22.02.22v.22s0,.22,0,.22v.22s0,.22,0,.22l-.02.22-.02.22-.02.22-.03.21-.04.21-.04.22-.05.21-.05.21-.06.21-.06.21-.07.21-.08.2-.08.2-.09.2-.09.2-.1.19-.11.19-.11.19-.11.19-.12.19-.12.18-.13.18-.13.18-.14.17-.14.17-.14.16-.15.16-.16.16-.16.15-.16.15-.17.14-.17.13-.17.13-.18.13-.18.12-.18.12-.18.12-.19.11-.19.1-.19.1-.2.09-.2.09-.2.08-.2.08-.2.07-.21.07-.21.06-.21.05-.21.05-.21.04-.21.04-.22.03-.21.03-.22.02h-.22s-.22.02-.22.02h-.22s-66.83,0-66.83,0v10.32h67.11s.27,0,.27,0l.27-.02.27-.02.27-.03.27-.03.27-.04.27-.04.27-.05.27-.06.27-.06.26-.06.26-.07.26-.08.26-.08.26-.09.26-.09.26-.1.25-.1.25-.11.25-.12.25-.12.24-.12.24-.13.24-.13.24-.14.23-.14.23-.15.23-.16.22-.16.22-.17.21-.17.21-.18.21-.18.2-.18.2-.19.19-.19.19-.2.18-.2.18-.2.18-.21.17-.21.17-.21.17-.22.16-.22.15-.22.15-.23.14-.23.14-.24.14-.24.13-.24.13-.24.12-.25.11-.25.11-.25.11-.25.1-.25.1-.26.09-.26.08-.26.08-.27.07-.26.07-.27.06-.27.05-.27.05-.27.04-.27.04-.27.03-.27.03-.27.02-.28.02-.27v-.27s.01-.28.01-.28v-.28s-.01-.27-.01-.27Z" style="fill:#fa6863;stroke-width:0"></path><path d="m12.04,38.57l-.11-.04-.11-.04-.11-.05-.11-.06-.1-.06-.1-.06-.1-.07-.09-.07-.09-.08-.09-.08-.08-.09-.08-.09-.08-.1-.07-.1-.07-.1-.06-.1-.05-.11-.05-.11-.04-.11-.04-.11-.03-.12-.03-.11-.03-.12-.02-.11v-.12s-.02-.12-.02-.12v-.12s0-.12,0-.12v-.12s.02-.12.02-.12l.02-.12.03-.12.03-.12.03-.11.04-.12.04-.11.05-.11.05-.1.06-.11.07-.1.07-.1.08-.09.08-.09.08-.09.09-.08.09-.08.09-.07.1-.07.1-.07.1-.06.11-.05.11-.05.11-.05.11-.04.11-.04.11-.03.11-.03.12-.02h.11s.12-.03.12-.03h.02-.34s-.22.03-.22.03l-.22.02-.21.03-.22.03-.22.04-.21.04-.21.05-.21.05-.21.06-.21.07-.2.07-.21.07-.2.08-.2.09-.2.09-.19.1-.19.1-.18.11-.18.12-.18.12-.18.12-.18.13-.18.13-.17.14-.17.14-.16.15-.16.15-.16.15-.15.16-.14.16-.14.17-.13.17-.14.17-.12.18-.12.18-.12.18-.11.19-.11.19-.11.2-.1.19-.09.2-.09.2-.08.2-.08.2-.07.21-.06.21-.06.21-.05.21-.05.21-.04.21-.04.22-.03.21-.02.22-.02.21-.02.22v.22s0,.22,0,.22v.22s0,.22,0,.22l.02.22.02.22.02.22.03.22.04.21.04.21.05.21.04.17h7.9s18.33,0,18.33,0l-19.02-5.25-.13-.04Z" style="fill:#160f26;stroke-width:0"></path><path d="m.01,36.67v.28s.04.27.04.27l.03.27.03.27.04.27.04.27.05.27.05.27.06.27.07.27.07.27.08.26.08.26.09.26.1.26.1.25.11.26.11.25.11.25.12.24.13.24.13.24.14.24.14.23.14.23.15.23.16.23.16.22.05.07h2.38l-.04-.17-.05-.21-.04-.21-.04-.21-.03-.22-.02-.22-.02-.22-.02-.22v-.22s0-.22,0-.22v-.22s0-.22,0-.22l.02-.22.02-.21.02-.22.03-.21.04-.22.04-.21.05-.21.05-.21.06-.21.06-.21.07-.21.08-.2.08-.2.09-.2.09-.2.1-.19.11-.2.11-.19.11-.19.12-.18.12-.18.12-.18.14-.17.13-.17.14-.17.14-.16.15-.16.16-.15.16-.15.16-.15.17-.14.17-.14.18-.13.18-.13.18-.12.18-.12.18-.12.18-.11.19-.1.19-.1.2-.09.2-.09.2-.08.21-.07.2-.07.21-.07.21-.06.21-.05.21-.05.21-.04.22-.04.22-.03.21-.03.22-.02.22-.02h.22s.22-.01.22-.01h66.83v-10.32H12.58s-.27,0-.27,0l-.27.02-.27.02-.27.03-.27.03-.27.04-.27.04-.27.05-.27.05-.26.06-.26.07-.26.07-.26.08-.26.08-.26.09-.26.09-.26.1-.25.1-.25.11-.25.12-.25.12-.24.12-.24.13-.24.13-.24.14-.23.15-.23.15-.22.16-.22.16-.22.16-.21.17-.21.18-.21.18-.2.18-.2.19-.19.19-.19.2-.19.2-.18.2-.18.21-.17.21-.17.21-.17.22-.16.22-.16.22-.15.23-.14.23-.14.24-.14.24-.13.24-.13.24-.12.25-.11.25-.11.25-.11.25-.1.26-.1.26-.09.26-.08.26-.08.26-.07.27-.07.27-.06.27-.05.27-.05.27-.04.27-.04.27-.03.27-.03.27-.02.27v.27s-.03.28-.03.28v.82Z" style="fill:#f18046;stroke-width:0"></path><path d="m12.04,15.35l-.11-.04-.11-.05-.11-.05-.1-.06-.11-.06-.1-.06-.1-.07-.1-.07-.09-.08-.09-.08-.08-.09-.08-.09-.08-.1-.07-.1-.06-.1-.06-.1-.05-.11-.05-.11-.04-.11-.04-.12-.04-.11-.03-.11-.03-.12-.02-.12-.02-.12v-.12s0-.12,0-.12v-.12s0-.12,0-.12l.02-.12.02-.12.03-.12.03-.12.04-.12.04-.11.04-.11.05-.11.05-.11.06-.1.06-.1.07-.1.08-.09.08-.09.08-.09.09-.08.09-.08.1-.07.1-.07.1-.07.11-.06.1-.06.11-.05.11-.04.11-.04.11-.04.11-.03.12-.02.11-.02h.12s.12-.02.12-.02h.04-.36s-.22.03-.22.03l-.22.02-.21.03-.22.03-.22.04-.21.04-.21.05-.21.05-.21.06-.21.07-.2.07-.21.08-.2.08-.2.09-.2.09-.19.1-.19.1-.18.11-.19.12-.18.12-.18.12-.18.13-.18.13-.17.14-.16.14-.16.14-.16.15-.15.15-.15.16-.14.16-.14.17-.13.17-.14.18-.12.18-.12.18-.12.18-.11.19-.11.19-.11.2-.1.19-.09.2-.09.2-.08.2-.08.2-.07.21-.06.21-.06.21-.05.21-.05.21-.04.21-.04.22-.03.21-.03.22-.02.21-.02.22v.22s0,.22,0,.22v.22s0,.22,0,.22l.02.22.02.22.03.21.03.22.04.22.04.21.05.21.05.21.06.21.06.21.07.2.08.2.08.2.09.2.09.2.1.2.06.11h0s.27-.14.27-.14l.27-.13.27-.13.27-.12.27-.12.28-.11.28-.1.28-.11.28-.09.29-.09.29-.08.29-.08.29-.07.29-.06.29-.06.29-.06.3-.05.3-.04.3-.04.3-.03.3-.03.3-.02h.29s.31-.02.31-.02h.3s18.33,0,18.33,0l-19.02-5.25-.13-.04Z" style="fill:#160f26;stroke-width:0"></path><path d="m66.83,69.68h.44s.22-.03.22-.03l.22-.02.22-.03.22-.03.21-.04.21-.04.21-.05.21-.05.21-.06.21-.07.21-.07.2-.08.2-.08.2-.09.2-.09.19-.1.19-.1.19-.11.18-.12.18-.12.18-.12.18-.13.17-.13.17-.13.17-.14.16-.15.16-.15.15-.16.15-.16.15-.16.14-.17.14-.17.13-.18.12-.18.12-.18.12-.19.11-.19.11-.19.11-.19.1-.2.09-.2.08-.2.09-.2.07-.2.07-.21.07-.21.06-.21.06-.21.05-.21.04-.22.04-.21.03-.21.03-.22.02-.21v-.22s.02-.22.02-.22v-.66s-.02-.22-.02-.22l-.02-.22-.03-.21-.03-.22-.04-.22-.04-.21-.05-.21-.06-.21-.06-.21-.07-.21-.07-.21-.07-.2-.09-.2-.08-.2-.09-.2-.1-.2-.06-.12h0s-.27.14-.27.14l-.27.13-.27.13-.27.12-.28.12-.28.11-.28.1-.28.1-.29.1-.28.09-.28.08-.29.08-.29.07-.29.07-.29.06-.29.05-.29.05-.3.04-.3.04-.3.03-.3.03-.3.02-.3.02h-.3s-.3.01-.3.01h-18.33l19.02,5.25.13.04.11.04.11.04.11.05.11.06.1.06.1.06.1.07.09.07.09.08.09.08.08.09.08.09.08.1.07.1.07.1.06.1.05.11.05.11.04.11.04.11.03.12.03.11.02.12.02.12v.12s.02.12.02.12v.12s0,.12,0,.12v.12s-.02.12-.02.12l-.02.12-.02.12-.03.12-.03.11-.04.12-.04.11-.05.11-.05.1-.06.11-.07.1-.07.1-.08.09-.08.09-.08.09-.09.08-.09.08-.09.07-.1.07-.1.07-.1.06-.11.05-.11.05-.11.05-.11.04-.11.04-.11.03-.11.03-.12.02h-.11s-.12.03-.12.03h-.12" style="fill:#160f26;stroke-width:0"></path><path d="m79.67,66.55v-.27s-.03-.27-.03-.27l-.03-.28-.03-.27-.04-.27-.04-.27-.05-.27-.05-.27-.06-.27-.07-.26-.07-.27-.08-.27-.08-.26-.09-.26-.1-.26-.1-.25-.11-.26-.11-.25-.11-.25-.12-.25-.13-.24-.13-.24-.14-.24-.14-.24-.14-.23-.15-.23-.16-.22-.16-.22-.17-.22-.17-.21-.18-.21-.18-.2-.18-.2-.19-.2-.19-.2-.2-.19-.2-.19-.2-.18-.21-.18-.21-.18h-.01s-.3.17-.3.17l-.26.15-.27.15-.04.02.07.13.1.2.09.2.08.2.09.2.07.2.07.21.07.21.06.21.06.21.05.21.04.21.04.22.03.22.03.21.02.22v.22s.02.22.02.22v.65s-.02.22-.02.22l-.02.21-.03.22-.03.21-.04.21-.04.22-.05.21-.06.21-.06.21-.07.21-.07.21-.07.2-.09.2-.08.2-.09.2-.1.2-.11.19-.11.19-.11.19-.12.19-.12.18-.12.18-.13.18-.14.17-.14.17-.15.16-.15.16-.15.16-.16.15-.16.15-.17.14-.17.13-.17.13-.18.13-.18.12-.18.12-.18.12-.19.11-.19.1-.19.1-.2.09-.2.09-.2.08-.2.08-.21.07-.21.07-.21.06-.21.05-.21.05-.21.04-.21.04-.22.03-.22.03-.22.02h-.22s-.22.03-.22.03H0v10.32h67.11s.27,0,.27,0l.27-.02.27-.02.27-.02.27-.03.27-.04.27-.04.27-.05.27-.06.26-.06.26-.06.26-.07.26-.08.26-.08.26-.09.26-.09.25-.1.25-.1.25-.11.25-.12.24-.12.25-.12.24-.13.24-.13.23-.14.23-.15.23-.15.22-.16.22-.16.22-.16.21-.17.21-.18.21-.18.2-.18.2-.19.2-.19.19-.19.19-.2.18-.2.18-.21.18-.21.17-.21.17-.22.16-.22.16-.22.15-.23.14-.23.14-.24.14-.24.13-.24.13-.24.12-.25.11-.25.11-.25.11-.25.1-.25.1-.26.09-.26.08-.26.08-.26.07-.26.07-.27.06-.27.05-.27.05-.27.04-.27.04-.27.03-.27.03-.27.02-.28v-.27s.03-.27.03-.27v-.83Z" style="fill:#3d95fd;stroke-width:0"></path><path d="m.01,13.45v.28s.03.27.03.27l.03.28.03.27.04.27.04.27.05.27.05.27.06.27.07.27.07.26.08.27.09.26.09.26.1.26.1.25.11.26.11.25.11.25.12.24.13.24.13.24.13.24.14.24.14.23.15.23.16.23.16.22.17.22.17.21.17.21.18.2.18.2.19.2.19.2.19.19.2.19.2.18.21.18.21.17h0s.3-.17.3-.17l.26-.15.27-.15.04-.02-.07-.13-.1-.2-.09-.2-.09-.2-.08-.2-.08-.2-.07-.2-.06-.21-.06-.21-.05-.21-.05-.21-.04-.21-.04-.22-.03-.22-.03-.21-.02-.22-.02-.22v-.22s0-.22,0-.22v-.22s0-.22,0-.22l.02-.22.02-.21.03-.22.03-.21.04-.22.04-.21.05-.21.05-.21.06-.21.06-.21.07-.21.08-.2.08-.2.09-.2.09-.2.1-.19.11-.2.11-.19.11-.19.12-.18.12-.18.12-.18.14-.18.13-.17.14-.17.14-.16.15-.16.15-.15.16-.15.16-.14.16-.14.17-.14.18-.13.18-.13.18-.12.18-.12.19-.12.18-.11.19-.1.19-.1.2-.09.2-.09.2-.08.21-.08.2-.07.21-.07.21-.06.21-.05.21-.05.21-.04.22-.04.22-.03.21-.03.22-.02.22-.02h.22s.22,0,.22,0h66.83V0H12.31s-.27.03-.27.03l-.27.02-.27.02-.27.03-.27.04-.27.04-.27.05-.27.05-.26.06-.26.06-.26.07-.26.08-.26.08-.26.09-.26.09-.26.1-.25.1-.25.11-.25.12-.25.12-.24.13-.24.13-.24.13-.24.14-.23.15-.23.15-.22.16-.22.16-.22.17-.21.17-.21.18-.21.18-.2.18-.2.19-.19.19-.19.2-.19.2-.18.2-.18.21-.17.21-.17.21-.17.22-.16.22-.16.22-.15.23-.14.23-.14.23-.13.24-.13.24-.13.24-.12.25-.11.25-.11.25-.11.25-.1.25-.1.26-.09.26-.09.26-.08.26-.07.27-.07.27-.06.27-.05.27-.05.27-.04.27-.04.27-.03.27-.03.27-.02.28v.27s-.03.27-.03.27v.82Z" style="fill:#0dc09d;stroke-width:0"></path></g><path d="m115.57,65.34h-20.44v-8.07h20.44c3.17,0,5.6-.61,7.32-1.85,1.71-1.23,2.57-2.82,2.57-4.77s-.81-3.37-2.42-4.28c-1.62-.91-4.01-1.65-7.17-2.24l-3.3-.58c-3.23-.58-6.17-1.43-8.82-2.53-2.65-1.1-4.75-2.63-6.3-4.57-1.55-1.95-2.33-4.44-2.33-7.49,0-4.54,1.68-8.06,5.04-10.55,3.36-2.5,7.82-3.74,13.37-3.74h19.96v8.17h-19.96c-2.71,0-4.84.5-6.39,1.51-1.55,1-2.33,2.42-2.33,4.23,0,1.95.76,3.37,2.28,4.28,1.52.91,3.57,1.59,6.15,2.04l3.39.58c3.42.58,6.56,1.4,9.4,2.43,2.84,1.04,5.09,2.53,6.74,4.47,1.65,1.95,2.47,4.54,2.47,7.78,0,4.8-1.78,8.53-5.33,11.19-3.55,2.66-8.33,3.99-14.34,3.99h0Z" style="fill:#160f26;stroke-width:0"></path><path d="m238.44,79.99v-22.5h-1.55c-.71,1.3-1.74,2.55-3.1,3.74-1.36,1.2-3.09,2.19-5.18,2.97-2.1.78-4.7,1.17-7.8,1.17-4.01,0-7.69-.97-11.05-2.92s-6.04-4.75-8.04-8.42c-2-3.66-3-8.09-3-13.28v-1.46c0-5.19,1.02-9.61,3.05-13.28,2.03-3.66,4.73-6.47,8.09-8.42,3.36-1.95,7.01-2.92,10.95-2.92,4.65,0,8.22.84,10.71,2.53,2.49,1.69,4.34,3.6,5.57,5.74h1.55v-8.27h9.79v65.3h-9.98Zm-14.82-23.38c4.39,0,7.98-1.4,10.75-4.18s4.17-6.78,4.17-11.96v-.88c0-5.12-1.41-9.08-4.21-11.87-2.81-2.79-6.38-4.18-10.71-4.18s-7.8,1.4-10.61,4.18c-2.81,2.79-4.21,6.75-4.21,11.87v.88c0,5.19,1.4,9.18,4.21,11.96,2.81,2.79,6.35,4.18,10.61,4.18Z" style="fill:#160f26;stroke-width:0"></path><path d="m190.43,39.01c0-4.86-.97-9.11-2.91-12.74-1.94-3.63-4.64-6.47-8.09-8.51-3.46-2.04-7.48-3.07-12.06-3.07s-8.85,1.04-12.4,3.11c-1.78,1.04-3.36,2.28-4.76,3.72-.18.18-.35.36-.52.55-.51.56-.98,1.15-1.44,1.77-.6.82-1.16,1.7-1.67,2.62-2.03,3.7-3.05,8.04-3.05,13.04v1.17c0,5,1.02,9.34,3.05,13.04,2.03,3.7,4.86,6.57,8.48,8.61,3.61,2.04,7.85,3.07,12.69,3.07,4.26,0,7.82-.68,10.66-2.04,2.84-1.36,5.1-3.05,6.78-5.06.47-.56.91-1.11,1.32-1.65,1.07-1.41,1.96-2.77,2.65-4.09l-8.33-4.28c-1.03,2.21-2.51,4.15-4.41,5.84-1.91,1.69-4.73,2.53-8.48,2.53-4.01,0-7.35-1.25-10.03-3.74-.17-.16-.33-.31-.48-.48-.16-.17-.31-.33-.46-.5-.36-.41-.69-.84-.99-1.3-1.3-1.96-2.05-4.3-2.24-7.01-.02-.26-.03-.52-.04-.78h36.72v-3.8h0Zm-30.04-3.89l-5.1,5.12h-1.68c-.03-1.48,0-3.37.19-5.12.1-.67.22-1.31.39-1.93.16-.62.35-1.21.58-1.77.75-1.88,1.87-3.47,3.34-4.77,2.36-2.08,5.41-3.11,9.16-3.11s6.78,1.04,9.11,3.11c2.33,2.08,3.65,4.9,3.97,8.46h-19.96Z" style="fill:#160f26;stroke-width:0"></path><path d="m303.6,39.01c0-4.86-.97-9.11-2.91-12.74-1.94-3.63-4.64-6.47-8.09-8.51-3.46-2.04-7.48-3.07-12.06-3.07s-8.85,1.04-12.4,3.11c-1.78,1.04-3.36,2.28-4.76,3.72-.17.18-.35.36-.52.55-.51.56-.99,1.15-1.44,1.77-.6.82-1.16,1.7-1.67,2.62-2.03,3.7-3.05,8.04-3.05,13.04v1.17c0,5,1.02,9.34,3.05,13.04,2.03,3.7,4.86,6.57,8.48,8.61,3.61,2.04,7.85,3.07,12.69,3.07,4.26,0,7.81-.68,10.66-2.04,2.84-1.36,5.1-3.05,6.78-5.06.47-.56.91-1.11,1.32-1.65,1.07-1.41,1.96-2.77,2.66-4.09l-8.33-4.28c-1.03,2.21-2.51,4.15-4.41,5.84-1.91,1.69-4.73,2.53-8.48,2.53-4.01,0-7.35-1.25-10.03-3.74-.17-.16-.33-.31-.48-.48-.16-.17-.31-.33-.46-.5-.36-.41-.69-.84-.99-1.3-1.3-1.96-2.05-4.3-2.24-7.01-.02-.26-.03-.52-.04-.78h36.73v-3.8h0Zm-30.04-3.89l-5.1,5.12h-1.68c-.03-1.48,0-3.37.19-5.12.1-.67.22-1.31.39-1.93.16-.62.35-1.21.58-1.77.75-1.88,1.87-3.47,3.34-4.77,2.36-2.08,5.41-3.11,9.16-3.11s6.78,1.04,9.11,3.11c2.33,2.08,3.65,4.9,3.97,8.46h-19.96Z" style="fill:#160f26;stroke-width:0"></path><path d="m312.21,65.37V14.69h9.79v5.64h1.55c.77-2.01,2.02-3.48,3.73-4.43s3.83-1.41,6.35-1.41h5.72v9.05h-6.1c-3.23,0-5.88.89-7.95,2.68-2.07,1.79-3.1,4.52-3.1,8.22v30.93h-9.98,0Z" style="fill:#160f26;stroke-width:0"></path><path d="m386.21,32.86c0-5.86-1.78-10.39-5.35-13.58-3.57-3.19-8.47-4.79-14.7-4.79-4.09,0-7.54.65-10.36,1.96-2.82,1.31-5.09,3.03-6.81,5.18-1.72,2.15-2.97,4.5-3.75,7.03l9.34,3.03c.58-2.6,1.78-4.72,3.6-6.35,1.82-1.63,4.44-2.44,7.88-2.44s6.1.86,7.79,2.59c1.69,1.72,2.53,3.96,2.53,6.69v8.33h-1.62l-5.19-5.21h-7.79c-5.26,0-9.62,1.25-13.09,3.76-3.47,2.51-5.21,6.2-5.21,11.09,0,3.26.8,6.02,2.38,8.3,1.59,2.28,3.73,4.01,6.42,5.18,2.7,1.17,5.76,1.76,9.19,1.76s5.97-.47,7.98-1.42c2.01-.94,3.54-2.05,4.57-3.32,1.04-1.27,1.81-2.43,2.34-3.47h1.56v8.21h8.27v-32.54h0Zm-9.83,11.24c0,4.04-1.25,7.22-3.75,9.53-2.49,2.31-5.72,3.47-9.68,3.47-2.92,0-5.22-.65-6.91-1.96-1.69-1.31-2.53-3.06-2.53-5.28s.81-3.89,2.43-5.03c1.63-1.14,3.76-1.71,6.42-1.71h14.01v.98h0Z" style="fill:#160f26;stroke-width:0"></path></g></svg>