<?xml version="1.0" encoding="UTF-8"?> <svg xmlns="http://www.w3.org/2000/svg" width="232" height="30" viewBox="0 0 232 30" fill="none"><g clip-path="url(#clip0_13746_2746)"><mask id="mask0_13746_2746" style="mask-type:luminance" maskUnits="userSpaceOnUse" x="-10" y="-10" width="252" height="51"><path d="M241.154 -9.23077H-9.23071V40.4907H241.154V-9.23077Z" fill="white"></path></mask><g mask="url(#mask0_13746_2746)"><path d="M29.8018 12.4713C27.676 12.4713 25.9586 10.7539 25.9586 8.62811C25.9586 7.57123 26.391 6.61043 27.0875 5.91385L23.8929 2.71919C23.1963 3.41577 22.2355 3.84813 21.1786 3.84813C19.0529 3.84813 17.3354 2.1307 17.3354 0.00492859H15.0775H12.8197C12.8197 2.1307 11.1022 3.84813 8.97646 3.84813C7.91958 3.84813 6.95878 3.41577 6.26219 2.71919L3.06753 5.91385C3.76411 6.61043 4.19647 7.57123 4.19647 8.62811C4.19647 10.7539 2.47904 12.4713 0.353271 12.4713V14.7292V16.9871C2.47904 16.9871 4.19647 18.7045 4.19647 20.8303C4.19647 21.8872 3.76411 22.848 3.06753 23.5445L6.26219 26.7392C6.95878 26.0426 7.91958 25.6103 8.97646 25.6103C11.1022 25.6103 12.8197 27.3277 12.8197 29.4535H15.0775H17.3354C17.3354 27.3277 19.0529 25.6103 21.1786 25.6103C22.2355 25.6103 23.1963 26.0426 23.8929 26.7392L27.0875 23.5445C26.391 22.848 25.9586 21.8872 25.9586 20.8303C25.9586 18.7045 27.676 16.9871 29.8018 16.9871V14.7292V12.4713ZM22.4757 18.9927L15.0896 23.2563L7.7034 18.9927V10.4656L15.0896 6.20209L22.4757 10.4656V18.9927Z" fill="#003311"></path></g><mask id="mask1_13746_2746" style="mask-type:luminance" maskUnits="userSpaceOnUse" x="-10" y="-10" width="252" height="51"><path d="M241.154 -9.23077H-9.23071V40.4907H241.154V-9.23077Z" fill="white"></path></mask><g mask="url(#mask1_13746_2746)"><path d="M46.2674 4.86898C49.3419 4.86898 51.5037 6.64646 52.6207 8.84429L49.9665 10.4056C48.8735 8.78424 47.8527 8.05163 46.2914 8.05163C44.67 8.05163 43.6012 8.92836 43.6012 10.2495C43.6012 11.2583 44.3938 12.063 45.9551 12.6274L47.2762 13.1199C51.4197 14.5731 53.1371 16.2425 53.1371 18.8967C53.1371 20.6741 52.4525 22.0793 51.0834 23.0882C49.7142 24.097 48.1289 24.6014 46.3394 24.6014C44.67 24.6014 43.1928 24.157 41.8957 23.2803C40.6347 22.4036 39.782 21.2746 39.3496 19.8815L42.1119 18.4283C42.9646 20.3739 44.3818 21.3347 46.3274 21.3347C48.165 21.3347 49.402 20.458 49.402 18.8366C49.402 17.4915 48.6093 16.951 46.2794 16.0743L45.0784 15.6059C41.8237 14.4289 40.0342 12.9517 40.0342 10.1294C40.0342 8.54404 40.6347 7.28299 41.8117 6.32219C43.0007 5.36139 44.4899 4.86898 46.2674 4.86898Z" fill="#003311"></path></g><mask id="mask2_13746_2746" style="mask-type:luminance" maskUnits="userSpaceOnUse" x="-10" y="-10" width="252" height="51"><path d="M241.154 -9.23077H-9.23071V40.4907H241.154V-9.23077Z" fill="white"></path></mask><g mask="url(#mask2_13746_2746)"><path d="M63.6701 9.79308C65.1233 9.79308 66.3603 10.3095 67.3932 11.3784C68.4621 12.4473 68.9785 14.0086 68.9785 16.0863V24.3012H65.4475V16.3025C65.4475 13.9966 64.1264 12.8797 62.373 12.8797C61.4122 12.8797 60.5955 13.24 59.959 13.9245C59.3345 14.6091 58.9742 15.2696 58.9501 15.8942V24.3012H55.4192V4.95305H58.9501V12.8676C59.1423 12.2431 59.6587 11.5826 60.5114 10.862C61.3641 10.1534 62.409 9.79308 63.6701 9.79308Z" fill="#003311"></path></g><mask id="mask3_13746_2746" style="mask-type:luminance" maskUnits="userSpaceOnUse" x="-10" y="-10" width="252" height="51"><path d="M241.154 -9.23077H-9.23071V40.4907H241.154V-9.23077Z" fill="white"></path></mask><g mask="url(#mask3_13746_2746)"><path d="M71.7168 4.95305H75.2477V8.32786H71.7168V4.95305ZM71.7168 10.0693H75.2477V24.3132H71.7168V10.0693Z" fill="#003311"></path></g><mask id="mask4_13746_2746" style="mask-type:luminance" maskUnits="userSpaceOnUse" x="-10" y="-10" width="252" height="51"><path d="M241.154 -9.23077H-9.23071V40.4907H241.154V-9.23077Z" fill="white"></path></mask><g mask="url(#mask4_13746_2746)"><path d="M86.1048 9.79308C87.8823 9.79308 89.5036 10.4536 90.9568 11.7627C92.4101 13.0478 93.1547 14.8613 93.1547 17.1912C93.1547 19.5212 92.4101 21.3347 90.9568 22.6438C89.5036 23.9289 87.8823 24.5894 86.1048 24.5894C83.907 24.5894 82.2976 23.4124 81.7211 22.2835H81.529V29.4294H77.998V10.0693H81.529V12.099H81.7211C82.2976 10.9821 83.907 9.79308 86.1048 9.79308ZM82.682 20.3499C83.5347 21.0945 84.4955 21.4788 85.6124 21.4788C86.7293 21.4788 87.6901 21.0945 88.4948 20.3499C89.3115 19.6053 89.7318 18.5364 89.7318 17.2033C89.7318 15.8581 89.3235 14.7892 88.4948 14.0566C87.7021 13.312 86.7413 12.9277 85.6124 12.9277C84.4835 12.9277 83.5347 13.312 82.682 14.0566C81.8533 14.7892 81.4449 15.8581 81.4449 17.1912C81.4449 18.5364 81.8533 19.6053 82.682 20.3499Z" fill="#003311"></path></g><mask id="mask5_13746_2746" style="mask-type:luminance" maskUnits="userSpaceOnUse" x="-10" y="-10" width="252" height="51"><path d="M241.154 -9.23077H-9.23071V40.4907H241.154V-9.23077Z" fill="white"></path></mask><g mask="url(#mask5_13746_2746)"><path d="M101.273 4.86898C104.348 4.86898 106.51 6.64646 107.627 8.84429L104.973 10.4056C103.88 8.78424 102.859 8.05163 101.297 8.05163C99.6761 8.05163 98.6073 8.92836 98.6073 10.2495C98.6073 11.2583 99.3999 12.063 100.961 12.6274L102.282 13.1199C106.426 14.5731 108.143 16.2425 108.143 18.8967C108.143 20.6741 107.459 22.0793 106.089 23.0882C104.72 24.097 103.135 24.6014 101.346 24.6014C99.6761 24.6014 98.1989 24.157 96.9018 23.2803C95.6408 22.4036 94.7881 21.2746 94.3557 19.8815L97.118 18.4283C97.9707 20.3739 99.3879 21.3347 101.334 21.3347C103.171 21.3347 104.408 20.458 104.408 18.8366C104.408 17.4915 103.615 16.951 101.285 16.0743L100.084 15.6059C96.8298 14.4289 95.0403 12.9517 95.0403 10.1294C95.0403 8.54404 95.6408 7.28299 96.8178 6.32219C98.0188 5.36139 99.496 4.86898 101.273 4.86898Z" fill="#003311"></path></g><mask id="mask6_13746_2746" style="mask-type:luminance" maskUnits="userSpaceOnUse" x="-10" y="-10" width="252" height="51"><path d="M241.154 -9.23077H-9.23071V40.4907H241.154V-9.23077Z" fill="white"></path></mask><g mask="url(#mask6_13746_2746)"><path d="M117.559 10.0693V12.9757H114.521V20.0136C114.521 20.9143 114.989 21.3587 115.89 21.3587C116.358 21.3587 116.935 21.2506 117.559 21.0585V23.9409C116.815 24.3012 115.938 24.4933 114.905 24.4933C112.407 24.4933 111.014 23.5565 111.014 20.7942V12.9877H109.008V10.0813H111.014V6.44229H114.521V10.0813H117.559V10.0693Z" fill="#003311"></path></g><mask id="mask7_13746_2746" style="mask-type:luminance" maskUnits="userSpaceOnUse" x="-10" y="-10" width="252" height="51"><path d="M241.154 -9.23077H-9.23071V40.4907H241.154V-9.23077Z" fill="white"></path></mask><g mask="url(#mask7_13746_2746)"><path d="M125.558 24.5894C123.78 24.5894 122.135 23.9289 120.682 22.6438C119.228 21.3227 118.52 19.5212 118.52 17.1912C118.52 14.8613 119.228 13.0598 120.682 11.7627C122.135 10.4416 123.78 9.79308 125.558 9.79308C127.755 9.79308 129.365 10.9701 129.941 12.099H130.133V10.0693H133.64V24.3132H130.133V22.2835H129.941C129.365 23.4124 127.755 24.5894 125.558 24.5894ZM123.144 20.3499C123.96 21.0945 124.921 21.4788 126.05 21.4788C127.179 21.4788 128.128 21.0945 128.956 20.3499C129.809 19.6053 130.218 18.5364 130.218 17.2033C130.218 15.8581 129.809 14.7892 128.956 14.0566C128.14 13.312 127.179 12.9277 126.05 12.9277C124.921 12.9277 123.972 13.312 123.144 14.0566C122.351 14.8013 121.943 15.8701 121.943 17.2033C121.943 18.5364 122.351 19.6053 123.144 20.3499Z" fill="#003311"></path></g><mask id="mask8_13746_2746" style="mask-type:luminance" maskUnits="userSpaceOnUse" x="-10" y="-10" width="252" height="51"><path d="M241.154 -9.23077H-9.23071V40.4907H241.154V-9.23077Z" fill="white"></path></mask><g mask="url(#mask8_13746_2746)"><path d="M144.125 10.0693V12.9757H141.087V20.0136C141.087 20.9143 141.555 21.3587 142.456 21.3587C142.924 21.3587 143.501 21.2506 144.125 21.0585V23.9409C143.38 24.3012 142.504 24.4933 141.471 24.4933C138.973 24.4933 137.58 23.5565 137.58 20.7942V12.9877H135.574V10.0813H137.58V6.44229H141.087V10.0813H144.125V10.0693Z" fill="#003311"></path></g><mask id="mask9_13746_2746" style="mask-type:luminance" maskUnits="userSpaceOnUse" x="-10" y="-10" width="252" height="51"><path d="M241.154 -9.23077H-9.23071V40.4907H241.154V-9.23077Z" fill="white"></path></mask><g mask="url(#mask9_13746_2746)"><path d="M146.059 4.95305H149.59V8.32786H146.059V4.95305ZM146.059 10.0693H149.59V24.3132H146.059V10.0693Z" fill="#003311"></path></g><mask id="mask10_13746_2746" style="mask-type:luminance" maskUnits="userSpaceOnUse" x="-10" y="-10" width="252" height="51"><path d="M241.154 -9.23077H-9.23071V40.4907H241.154V-9.23077Z" fill="white"></path></mask><g mask="url(#mask10_13746_2746)"><path d="M156.484 10.2855C158.213 9.62494 159.858 9.62494 161.576 10.2855C163.305 10.91 164.867 12.0149 165.767 13.9846C166.728 15.9302 166.728 18.5003 165.767 20.446C164.867 22.3916 163.305 23.4845 161.576 24.121C159.846 24.7455 158.201 24.7455 156.484 24.121C154.754 23.4965 153.217 22.3916 152.268 20.446C151.367 18.5003 151.367 15.9302 152.268 13.9846C153.217 12.0149 154.754 10.922 156.484 10.2855ZM154.994 17.2273C154.994 18.5484 155.403 19.5812 156.231 20.3499C157.048 21.0945 157.985 21.4788 159.03 21.4788C160.099 21.4788 161.035 21.0945 161.852 20.3499C162.669 19.5812 163.089 18.5364 163.089 17.2273C163.089 15.8822 162.681 14.8493 161.852 14.0807C161.035 13.312 160.099 12.9277 159.03 12.9277C157.961 12.9277 157.024 13.312 156.207 14.0807C155.415 14.8373 154.994 15.8822 154.994 17.2273Z" fill="#003311"></path></g><mask id="mask11_13746_2746" style="mask-type:luminance" maskUnits="userSpaceOnUse" x="-10" y="-10" width="252" height="51"><path d="M241.154 -9.23077H-9.23071V40.4907H241.154V-9.23077Z" fill="white"></path></mask><g mask="url(#mask11_13746_2746)"><path d="M176.708 9.79308C178.162 9.79308 179.399 10.3095 180.431 11.3784C181.5 12.4473 182.017 14.0086 182.017 16.0863V24.3012H178.486V16.3025C178.486 13.9966 177.165 12.8797 175.423 12.8797C174.462 12.8797 173.646 13.24 173.009 13.9245C172.385 14.6091 172.024 15.2696 172 15.8942V24.3012H168.469V10.0693H172V12.8676C172.193 12.2431 172.709 11.5826 173.562 10.862C174.414 10.1534 175.447 9.79308 176.708 9.79308Z" fill="#003311"></path></g><mask id="mask12_13746_2746" style="mask-type:luminance" maskUnits="userSpaceOnUse" x="-10" y="-10" width="252" height="51"><path d="M241.154 -9.23077H-9.23071V40.4907H241.154V-9.23077Z" fill="white"></path></mask><g mask="url(#mask12_13746_2746)"><path d="M184.791 9.38474C185.187 9.38474 185.523 9.52886 185.836 9.8171C186.136 10.1053 186.292 10.4656 186.292 10.886C186.292 11.3183 186.136 11.6666 185.836 11.9549C185.535 12.2431 185.187 12.3872 184.791 12.3872C184.539 12.3872 184.298 12.3272 184.07 12.2071C183.842 12.087 183.662 11.9068 183.506 11.6787C183.362 11.4385 183.29 11.1862 183.29 10.898C183.29 10.6098 183.362 10.3455 183.506 10.1174C183.806 9.63695 184.286 9.38474 184.791 9.38474ZM184.791 12.075C185.091 12.075 185.367 11.9669 185.607 11.7387C185.848 11.5105 185.968 11.2223 185.968 10.886C185.968 10.5497 185.848 10.2615 185.607 10.0333C185.367 9.80509 185.091 9.697 184.791 9.697C184.479 9.697 184.202 9.80509 183.962 10.0333C183.722 10.2615 183.602 10.5377 183.602 10.886C183.602 11.2343 183.722 11.5105 183.962 11.7387C184.214 11.9669 184.479 12.075 184.791 12.075ZM184.238 10.0813H184.767C185.139 10.0813 185.379 10.2975 185.379 10.5737C185.379 10.8259 185.259 10.9821 185.007 11.0661L185.463 11.6666H185.175L184.755 11.0782H184.479V11.6666H184.226V10.0813H184.238ZM184.791 10.2975H184.479V10.874H184.791C185.019 10.874 185.127 10.7779 185.127 10.5857C185.127 10.4056 184.995 10.2975 184.791 10.2975Z" fill="#003311"></path></g><path d="M206.565 24.5294L198.783 5.13319H201.137L209.027 24.5294H206.565ZM190.796 24.5294L198.686 5.13319H201.064L193.282 24.5294H190.796ZM194.543 19.0168V16.915H205.316V19.0168H194.543ZM212.426 24.5294V5.13319H218.743C220.004 5.13319 221.109 5.39741 222.07 5.91384C223.055 6.43027 223.811 7.15088 224.34 8.07565C224.892 9.00042 225.169 10.0693 225.169 11.2943C225.169 12.4713 224.916 13.5282 224.424 14.453C223.932 15.3777 223.247 16.1103 222.37 16.6388C221.505 17.1552 220.497 17.4194 219.356 17.4194H214.78V24.5414H212.426V24.5294ZM214.78 15.2816H219.356C220.377 15.2816 221.205 14.9093 221.854 14.1767C222.514 13.4201 222.851 12.4593 222.851 11.2943C222.851 10.0933 222.466 9.12051 221.686 8.3879C220.905 7.64328 219.92 7.28298 218.719 7.28298H214.78V15.2816ZM229.024 24.5294V5.13319H231.378V24.5294H229.024Z" fill="#00AA55"></path></g><defs><clipPath id="clip0_13746_2746"><rect width="231.923" height="30" fill="white"></rect></clipPath></defs></svg> 