<svg id="Layer_1" data-name="Layer 1" xmlns="http://www.w3.org/2000/svg" viewBox="0 0 1000 1000"><defs><style>.cls-1{fill:#8db948;}.cls-2{fill:#5c863e;}.cls-3{fill:#fff;}</style></defs><path class="cls-1" d="M480.51,233.35c4.11,0,6.16,2.05,10.26,4.11-24.62,10.25-49.23,36.92-61.54,94.35L384.1,344.12C398.46,303.1,427.18,233.35,480.51,233.35Zm22.57,20.52a143.05,143.05,0,0,1,8.2,49.23v4.1L451.8,323.61C464.1,280.53,484.62,262.07,503.08,253.87Zm53.33,36.92L529.74,299v-6.15c0-18.46-2-32.82-6.15-45.13C538,251.81,550.26,270.28,556.41,290.79Zm133.33,32.82a4.41,4.41,0,0,0-4.1-4.1c-4.1,0-47.18-4.11-47.18-4.11s-30.77-30.77-34.87-32.82c-4.1-4.1-10.26-2.05-12.31-2.05,0,0-6.15,2.05-16.41,6.16C564.61,258,546.15,231.3,515.38,231.3h-2a36.26,36.26,0,0,0-30.77-16.41c-73.84-2-108.71,90.26-121,137.44-16.41,4.1-32.82,10.25-51.28,16.41-16.41,4.1-16.41,6.15-18.46,20.51-2.05,10.26-43.08,334.35-43.08,334.35l326.15,61.54,176.41-39S689.74,327.71,689.74,323.61Z"/><path class="cls-2" d="M683.59,319.51c-2.05,0-45.13-4.11-45.13-4.11s-30.77-30.77-34.87-32.82c-2.05-2.05-2.05-2.05-4.1-2.05L574.87,785.14l176.41-39s-61.54-418.46-61.54-422.56c0-2.05-4.1-4.1-6.15-4.1"/><path class="cls-3" d="M515.38,418l-22.56,65.64a97.24,97.24,0,0,0-43.08-10.26c-34.87,0-36.92,20.51-36.92,26.67,0,28.71,77.95,41,77.95,110.76,0,55.39-34.87,90.26-82,90.26-55.39,0-84.1-34.87-84.1-34.87L339,616.94s28.71,24.61,53.33,24.61c16.41,0,22.56-12.3,22.56-22.56,0-39-63.59-41-63.59-104.61,0-53.34,39-104.62,114.87-104.62C501,407.71,515.38,418,515.38,418"/></svg>