<svg width="161" height="26" viewBox="0 0 161 26" fill="none" xmlns="http://www.w3.org/2000/svg">
<path d="M35.1177 16.6025C35.2805 18.0947 36.7455 20.5907 40.5709 20.5907C43.9351 20.5907 45.5629 18.366 45.5629 16.3584C45.5629 14.405 44.2606 12.8857 41.7646 12.3431L39.757 11.9361C38.9431 11.7733 38.4276 11.2578 38.4276 10.5525C38.4276 9.73854 39.2144 9.03315 40.3267 9.03315C42.0902 9.03315 42.6599 10.254 42.7685 11.0137L45.4272 10.254C45.2102 8.95176 44.0165 6.56428 40.3267 6.56428C37.5865 6.56428 35.4704 8.51767 35.4704 10.8238C35.4704 12.6415 36.6912 14.1608 39.0245 14.6763L40.9778 15.1104C42.0359 15.3274 42.5243 15.87 42.5243 16.5754C42.5243 17.3893 41.846 18.0947 40.5438 18.0947C38.8617 18.0947 37.9664 17.0366 37.8578 15.8429L35.1177 16.6025Z" fill="#2D3C4A"/>
<path d="M50.5829 20.1838V6.97124H47.4629V20.1838H50.5829ZM46.9745 2.33193C46.9745 3.47141 47.897 4.36672 49.0093 4.36672C50.1488 4.36672 51.0712 3.47141 51.0712 2.33193C51.0712 1.19245 50.1488 0.27002 49.0093 0.27002C47.897 0.27002 46.9745 1.19245 46.9745 2.33193Z" fill="#2D3C4A"/>
<path d="M52.4725 20.9163C52.8252 23.5751 55.2669 25.7455 58.7667 25.7455C63.7316 25.7455 65.5493 22.4627 65.5493 18.9358V6.97124H62.5107V8.65332C61.941 7.56811 60.6659 6.72706 58.6039 6.72706C54.9685 6.72706 52.4996 9.63002 52.4996 13.157C52.4996 16.8738 55.077 19.5869 58.6039 19.5869C60.5302 19.5869 61.8596 18.6916 62.4293 17.6606V19.0443C62.4293 21.7302 61.1813 23.0053 58.6853 23.0053C56.8676 23.0053 55.5925 21.7845 55.3754 20.1566L52.4725 20.9163ZM59.1194 16.901C57.0575 16.901 55.6739 15.4631 55.6739 13.157C55.6739 10.9052 57.1118 9.44011 59.1194 9.44011C61.0728 9.44011 62.5107 10.9052 62.5107 13.157C62.5107 15.4359 61.1271 16.901 59.1194 16.901Z" fill="#2D3C4A"/>
<path d="M71.3245 12.5601C71.3245 10.8238 72.2741 9.44011 74.0647 9.44011C76.0452 9.44011 76.7777 10.7424 76.7777 12.3702V20.1838H79.9249V11.8276C79.9249 8.92463 78.3784 6.59141 75.1499 6.59141C73.6849 6.59141 72.1113 7.21541 71.2431 8.73472V6.97124H68.1774V20.1838H71.3245V12.5601Z" fill="#2D3C4A"/>
<path d="M81.7214 16.6025C81.7214 18.6916 83.4306 20.5907 86.1979 20.5907C88.3412 20.5907 89.6435 19.5055 90.2675 18.5017C90.2675 19.5598 90.376 20.1024 90.4031 20.1838H93.3332C93.3061 20.0481 93.1704 19.2613 93.1704 18.0676V11.502C93.1704 8.87037 91.624 6.56428 87.5544 6.56428C84.2988 6.56428 82.2369 8.59906 81.9927 10.878L84.8685 11.5292C85.0042 10.1998 85.9266 9.14167 87.5816 9.14167C89.3179 9.14167 90.0776 10.037 90.0776 11.1493C90.0776 11.6105 89.8605 11.9904 89.1009 12.0989L85.7096 12.6144C83.4578 12.9399 81.7214 14.2422 81.7214 16.6025ZM86.7948 18.1218C85.5468 18.1218 84.8685 17.3079 84.8685 16.4126C84.8685 15.3274 85.6553 14.7848 86.632 14.622L90.0776 14.1065V14.7034C90.0776 17.2808 88.5583 18.1218 86.7948 18.1218Z" fill="#2D3C4A"/>
<path d="M99.6892 2.9288H96.8405V4.90932C96.8405 6.07593 96.2165 6.97124 94.8057 6.97124H94.1274V9.76567H96.5692V16.4126C96.5692 18.8815 98.0885 20.3465 100.53 20.3465C101.67 20.3465 102.267 20.1295 102.456 20.0481V17.4436C102.321 17.4707 101.805 17.5521 101.371 17.5521C100.205 17.5521 99.6892 17.0638 99.6892 15.8972V9.76567H102.429V6.97124H99.6892V2.9288Z" fill="#2D3C4A"/>
<path d="M113.069 18.7187C113.069 19.2613 113.123 19.8853 113.177 20.1838H116.189C116.135 19.6954 116.053 18.8544 116.053 17.7692V6.97124H112.906V14.7848C112.906 16.5211 111.957 17.742 110.139 17.742C108.24 17.742 107.48 16.3584 107.48 14.7305V6.97124H104.333V15.3003C104.333 18.2304 106.178 20.5636 109.325 20.5636C110.871 20.5636 112.418 19.9125 113.069 18.7187Z" fill="#2D3C4A"/>
<path d="M126.638 6.88985C126.503 6.86272 126.177 6.80845 125.797 6.80845C124.061 6.80845 122.596 7.6495 121.972 9.08741V6.97124H118.906V20.1838H122.053V13.8895C122.053 11.4206 123.165 10.0098 125.607 10.0098C125.933 10.0098 126.285 10.037 126.638 10.0912V6.88985Z" fill="#2D3C4A"/>
<path d="M130.11 12.126C130.218 10.7152 131.358 9.19593 133.338 9.19593C135.509 9.19593 136.54 10.5796 136.594 12.126H130.11ZM136.946 15.5716C136.512 16.8738 135.536 17.8777 133.637 17.8777C131.683 17.8777 130.11 16.4398 130.028 14.4321H139.687C139.714 14.3778 139.768 13.9438 139.768 13.4283C139.768 9.25019 137.381 6.56428 133.311 6.56428C129.974 6.56428 126.881 9.33159 126.881 13.5097C126.881 17.9862 130.055 20.5907 133.637 20.5907C136.811 20.5907 138.9 18.7187 139.605 16.4126L136.946 15.5716Z" fill="#2D3C4A"/>
<path d="M144.702 20.1838V0.541324H141.555V20.1838H144.702Z" fill="#2D3C4A"/>
<path d="M151.556 25.5285L159.966 6.97124H156.629L153.075 15.3274L149.277 6.97124H145.723L151.366 18.6102L148.191 25.5285H151.556Z" fill="#2D3C4A"/>
<path d="M29.4627 11.0957C29.0119 9.70963 27.7302 8.77777 26.2768 8.77777V4.39427C26.2768 3.60369 25.6309 2.95776 24.8403 2.95776H6.18943C5.39885 2.95776 4.7563 3.60369 4.7563 4.39427V15.9838C3.60576 15.7281 1.86649 15.1091 1.21047 13.5986L0.830322 13.6457C1.03217 15.311 2.65706 17.1512 4.75966 17.4102V23.0452C4.75966 23.8358 5.40558 24.4817 6.19279 24.4817H24.8437C25.6343 24.4817 26.2802 23.8358 26.2802 23.0452V15.4792C26.6334 15.4792 26.9799 15.4253 27.3164 15.3143C29.0691 14.7424 30.0312 12.8484 29.4627 11.0957Z" fill="#00A3FA"/>
<path d="M26.8689 13.9518C25.863 14.2781 24.7831 13.7264 24.4534 12.7205C24.1271 11.7147 24.6788 10.6347 25.6813 10.3051C26.6872 9.97874 27.7671 10.5305 28.0968 11.5363C28.4231 12.5422 27.8748 13.6221 26.8689 13.9518Z" fill="white"/>
<path d="M21.9002 12.68C20.3224 13.6892 18.7547 14.4125 17.3316 14.4125C15.9355 14.4125 13.594 14.0223 13.594 11.4117H11.8817C11.8817 13.6119 11.0676 14.4125 10.5192 14.4125C9.67816 14.4125 9.15671 13.7094 9.15671 10.2107H7.44436C7.44436 12.643 6.53267 14.6817 5.29802 14.7153C3.39391 14.7624 2.31065 14.1972 1.81612 13.5244L1.04236 13.6186C1.7051 15.1257 3.64622 16.1249 5.30812 16.1249C6.42502 16.1249 7.37371 15.5362 8.04991 14.5202C8.48725 15.4521 9.23409 16.1249 10.5158 16.1249C11.4376 16.1249 12.3594 15.6001 12.9549 14.4731C13.8901 15.5294 15.4006 16.1249 17.3316 16.1249C19.0339 16.1249 20.7833 15.378 22.499 14.3251L21.9002 12.68Z" fill="white"/>
</svg>
