<svg fill="none" style="" viewBox="0 0 173 40" width="100%" xmlns="http://www.w3.org/2000/svg">
<path d="M32.9405 6.08556C32.4745 2.68146 28.8921 0.644825 25.7175 1.925L24.0573 2.59418C18.8731 4.689 13.4558 6.14375 7.92201 6.90021L6.11626 7.16206C2.70862 7.62758 0.640736 11.1771 1.92224 14.3485L2.67949 16.2106C4.71825 21.3021 6.14538 26.6556 6.93176 32.0963L7.19389 33.9875C7.65989 37.3916 11.2423 39.4573 14.446 38.1481L16.077 37.4789C21.3196 35.3549 26.7951 33.8711 32.3871 33.1146L34.0764 32.8819C37.484 32.4164 39.5519 28.8668 38.2413 25.6664L37.5714 24.008C35.4744 18.8291 34.0181 13.4175 33.2317 7.88944L32.9405 6.08556Z" fill="#451692"></path>
<path d="M28.8631 3.23329C27.5233 0.0619515 23.5332 -1.01456 20.7954 1.08027L19.3683 2.15678C14.9121 5.50268 10.0482 8.29579 4.8931 10.4779L3.20384 11.1762C0.0583307 12.5145 -0.990174 16.4714 1.04858 19.2063L2.24271 20.8066C5.53385 25.1999 8.30074 29.9714 10.456 35.0339L11.2133 36.7796C12.553 39.951 16.5431 40.9984 19.2809 38.9326L20.6789 37.8852C25.1642 34.4811 30.0863 31.6298 35.2706 29.4477L36.8434 28.7785C40.018 27.4402 41.0665 23.4833 38.9986 20.7484L37.921 19.3227C34.5425 14.8712 31.7465 10.0124 29.5621 4.89169L28.8631 3.23329Z" fill="#6528D7"></path>
<path d="M22.4843 7.07422L10.8633 13.7078C8.0382 15.3371 7.07707 18.9449 8.70808 21.738C10.3391 24.5602 13.9797 25.5203 16.8049 23.9201L24.9016 19.2649C25.8628 18.7121 27.0569 19.0613 27.6103 19.9923L27.6977 20.1378C28.251 21.0979 27.9307 22.2908 26.9695 22.8436L15.5525 29.3899L17.6495 32.9686L29.0665 26.4223C32.0082 24.7348 32.9984 21.0106 31.3092 18.0721L31.2218 17.9266C29.5325 14.988 25.7463 13.9988 22.8338 15.6572L14.737 20.3124C13.8923 20.807 12.8147 20.516 12.3196 19.6723C11.8245 18.8285 12.1157 17.752 12.9603 17.2865L24.5813 10.6238L22.4843 7.07422Z" fill="white"></path>
<path d="M73.0964 5.4802C73.0964 7.10951 71.9023 8.33149 70.213 8.33149C68.3781 8.33149 67.2131 7.10951 67.2131 5.4802C67.2131 3.93817 68.4073 2.62891 70.213 2.62891C71.9023 2.62891 73.0964 3.93817 73.0964 5.4802ZM72.6887 13.5977V28.9888H68.4655V14.4996L66.2811 14.9069V10.95L69.98 10.9209C71.8149 10.8918 72.6887 11.8229 72.6887 13.5977ZM112.008 5.33472V28.9888H107.639V7.05132L105.454 7.45865V2.658H109.328C111.134 2.658 112.008 3.50175 112.008 5.33472ZM58.2426 18.4856C61.1842 19.4457 64.1259 20.3767 64.1259 23.6063C64.1259 27.0976 61.4172 29.3961 57.3688 29.3961C51.4564 29.3961 49.0391 25.7302 49.0391 22.9662H53.0583C53.2622 24.45 54.8058 25.9629 56.932 25.9629C58.9416 25.9629 59.5824 25.0028 59.5824 24.0136C59.5824 23.228 59.2037 22.8207 58.0678 22.3552C57.8931 22.2679 57.6892 22.2097 57.4853 22.1224C56.466 21.7151 55.2136 21.2205 53.8447 20.6968C51.3982 19.7948 49.6216 18.4274 49.6216 15.6052C49.6216 12.9285 52.0389 10.3681 56.0291 10.3681C60.8056 10.3681 62.8735 13.0449 63.4269 15.4306L59.5241 16.158C59.1164 14.7905 58.1843 13.7431 56.3495 13.7431C54.8932 13.7431 53.7573 14.4705 53.7573 15.6634C53.7573 16.4489 54.1068 17.0017 55.3592 17.4673C55.9417 17.6709 56.5825 17.9037 57.3688 18.1655C57.6601 18.311 57.9513 18.3983 58.2426 18.4856ZM148.705 26.8649C147.977 28.2905 146.492 29.1925 144.802 29.1925C142.181 29.1925 140.201 27.1267 140.201 24.4791C140.201 21.8024 142.152 19.7658 144.802 19.7658C146.521 19.7658 147.977 20.6677 148.676 22.0933L147.045 23.0535C146.666 22.2097 145.822 21.6569 144.773 21.6569C143.23 21.6569 142.065 22.8498 142.065 24.4791C142.065 26.1084 143.23 27.3013 144.773 27.3013C145.822 27.3013 146.666 26.7485 147.074 25.9048L148.705 26.8649ZM158.608 24.45C158.608 27.0976 156.569 29.1634 154.006 29.1634C151.472 29.1634 149.404 27.0976 149.404 24.45C149.404 21.7733 151.443 19.7367 154.006 19.7367C156.569 19.7367 158.608 21.7733 158.608 24.45ZM151.297 24.45C151.297 26.0793 152.491 27.3013 154.006 27.3013C155.55 27.3013 156.715 26.1084 156.715 24.45C156.715 22.8207 155.52 21.5987 154.006 21.5987C152.491 21.6278 151.297 22.8207 151.297 24.45ZM169.588 19.7367C168.423 19.7367 167.491 20.2313 166.938 21.1623C166.442 20.2604 165.598 19.7367 164.462 19.7367C163.384 19.7367 162.54 20.1731 161.986 21.0459V19.9694H160.122V28.9597H161.986V23.9263C161.986 22.297 162.86 21.5405 163.909 21.5405C164.928 21.5405 165.54 22.2388 165.54 23.4899V28.9306H167.404V23.9263C167.404 22.297 168.19 21.5405 169.297 21.5405C170.316 21.5405 170.986 22.2388 170.986 23.4899V28.9306H172.85V23.3735C172.879 21.1332 171.568 19.7367 169.588 19.7367ZM137.317 29.1634C138.016 29.1634 138.599 28.5524 138.599 27.825C138.599 27.0976 138.016 26.4867 137.317 26.4867C136.589 26.4867 136.036 27.0686 136.036 27.825C136.007 28.5524 136.589 29.1634 137.317 29.1634ZM133.444 10.9791H129.22V13.4231C128.754 12.3466 126.92 10.7173 123.541 10.7173C118.735 10.7173 115.357 14.7905 115.357 19.8821C115.357 24.8864 118.765 29.1925 123.541 29.1925C126.89 29.1925 128.085 27.9996 129.22 26.4576V28.9888H133.444V10.9791ZM129.395 19.8821C129.395 23.1117 127.473 25.352 124.327 25.352C121.182 25.352 119.26 23.1117 119.26 19.8821C119.26 16.6526 121.182 14.4123 124.327 14.4123C127.473 14.4123 129.395 16.6526 129.395 19.8821ZM97.0081 10.5718C94.2412 10.5718 92.6102 11.7938 91.4161 14.1505C90.8627 12.463 88.4745 10.5718 85.6493 10.5718C84.0183 10.5718 81.2514 11.3574 80.2903 14.0632V10.95H76.0672V28.9888H80.2903V19.853C80.2903 16.3326 82.0087 14.616 84.4552 14.616C86.9017 14.616 88.0667 16.3035 88.0667 19.853V28.9888H92.2898V19.853C92.2898 16.3326 93.717 14.7033 96.1635 14.7033C98.61 14.7033 100.066 16.3326 100.066 19.853V28.9888H104.289V18.8638C104.289 13.4813 101.173 10.5718 97.0081 10.5718Z" fill="#1E2248"></path>
</svg>