<?xml version="1.0" encoding="UTF-8"?>
<svg viewBox="0 0 187 34" version="1.1" xmlns="http://www.w3.org/2000/svg" xmlns:xlink="http://www.w3.org/1999/xlink">
    <g id="Page-1" stroke="none" stroke-width="1" fill="none" fill-rule="evenodd">
        <g id="New-Branding-Header---Desktop" transform="translate(-40.000000, -361.000000)" fill-rule="nonzero">
            <g id="TU-Header" transform="translate(0.000000, 348.000000)">
                <g id="Group-11" transform="translate(40.000000, 13.000000)">
                    <rect id="Rectangle" fill="#09090b" x="0" y="0" width="33.1931397" height="33.1931397"></rect>
                    <path d="M24.1125197,14.6507227 C21.8746418,14.0789572 21.3213203,13.8022964 21.3213203,12.9538702 L21.3213203,12.9046861 C21.3213203,12.2898845 21.8930858,11.7734511 22.9812847,11.7734511 C24.2080693,11.8479508 25.3831472,12.2939657 26.3503976,13.0522385 L27.8259215,10.9065808 C26.4654327,9.81184571 24.764159,9.22880052 23.0181728,9.25891245 C20.3745258,9.25891245 18.4870848,10.8143606 18.4870848,13.1629028 L18.4870848,13.1997909 C18.4870848,15.7696616 20.1716413,16.4889795 22.7906962,17.1529653 C24.9547979,17.7124348 25.3974551,18.0813157 25.3974551,18.8006336 L25.3974551,18.8375217 C25.3974551,19.5937277 24.6965812,20.067125 23.5530502,20.067125 C22.1087682,20.0510425 20.7235927,19.4912647 19.673652,18.4993809 L19.5998758,18.4379007 C19.5998758,18.4379007 19.4154353,18.2780523 19.2924749,18.1550919 L19.2924749,18.1550919 L19.2924749,18.1550919 C19.2395971,18.1094557 19.1921498,18.0578826 19.1510706,18.0013915 L19.1510706,18.0013915 C18.9093228,18.8997495 18.5118774,19.7487429 17.9767995,20.5097822 L17.9767995,20.5097822 L18.3026443,20.7802949 L18.3026443,20.7802949 L18.3026443,20.7802949 C19.7706144,21.9421409 21.5887159,22.5727339 23.46083,22.569381 C26.2520293,22.569381 28.2071176,21.1245838 28.2071176,18.554713 L28.2071176,18.5178249 C28.2132465,16.279947 26.7377226,15.3638926 24.1125197,14.6507227 Z" id="Path" fill="#71717a"></path>
                    <path d="M21.1799159,24.6535451 L14.2019175,18.9912221 C12.7658185,20.2686641 10.6318186,20.3673223 9.08398091,19.2278327 C7.53614321,18.088343 6.99644865,16.02136 7.78964036,14.2706216 C8.58283207,12.5198831 10.4926653,11.5626862 12.3699618,11.974992 C14.2472583,12.3872978 15.580218,14.0567011 15.5667771,15.9786942 C15.5584563,16.7188217 15.3456857,17.442242 14.9519755,18.0690197 L16.9869689,19.7535762 C18.8900334,16.9707263 18.4223148,13.206156 15.8961259,10.9736065 C13.369937,8.74105694 9.57642298,8.7397122 7.04865189,10.9704702 C4.5208808,13.2012282 4.05049337,16.9654659 5.95158447,19.7496643 C7.85267557,22.5338626 11.5298665,23.4660736 14.5277624,21.9238259 L20.9278473,24.9609459 L21.1799159,24.6535451 Z" id="Path" fill="#71717a"></path>
                    <polygon id="Path" fill="#71717a" points="42.1200592 13.255123 38.7325023 13.255123 38.7325023 11.0110971 47.9545266 11.0110971 47.9545266 13.255123 44.5546737 13.255123 44.5546737 22.0836743 42.0954672 22.0836743"></polygon>
                    <path d="M48.8275449,16.5934958 L48.8275449,16.5566077 C48.921609,13.378982 51.5203808,10.849402 54.6993876,10.8410812 C57.8783944,10.8328014 60.49034,13.3487764 60.600996,16.5258676 L60.600996,16.5566077 C60.5087363,19.7343928 57.9112392,22.2654928 54.7321307,22.275483 C51.5530223,22.2854141 48.9397157,19.7706404 48.8275449,16.5934958 Z M58.0495693,16.5934958 L58.0495693,16.5566077 C58.0845154,15.6478527 57.7499233,14.7636865 57.1220964,14.1057425 C56.4942696,13.4477985 55.626739,13.0721757 54.7173445,13.064499 C53.812915,13.060345 52.9462195,13.4266948 52.3189967,14.0783096 C51.6917738,14.7299245 51.3587404,15.6099597 51.3974157,16.5135716 L51.3974157,16.5443117 C51.3642153,17.4499122 51.6979008,18.3305852 52.3228725,18.9868054 C52.9478441,19.6430256 53.8112022,20.0192484 54.7173445,20.0302369 C55.6221986,20.0375764 56.4906969,19.6745687 57.12119,19.0254976 C57.751683,18.3764265 58.0893235,17.4977554 58.0557173,16.5934958 L58.0495693,16.5934958 Z" id="Shape" fill="#71717a"></path>
                    <path d="M62.7773938,11.0110971 L67.3023337,11.0110971 C69.9459807,11.0110971 71.5444649,12.5726932 71.5444649,14.8351632 L71.5444649,14.8720513 C71.5444649,17.435774 69.5463597,18.7637455 67.0625611,18.7637455 L65.2181562,18.7637455 L65.2181562,22.0836743 L62.7589497,22.0836743 L62.7773938,11.0110971 Z M67.1424853,16.5934958 C68.3720885,16.5934958 69.0729624,15.8680299 69.0729624,14.9150874 L69.0729624,14.8843473 C69.0729624,13.7961484 68.3167564,13.2059389 67.0933012,13.2059389 L65.2120082,13.2059389 L65.2120082,16.5934958 L67.1424853,16.5934958 Z" id="Shape" fill="#71717a"></path>
                    <path d="M73.1613932,17.3374058 L73.1613932,11.0110971 L75.6205997,11.0110971 L75.6205997,17.2759256 C75.6205997,19.0772944 76.5182101,20.0117928 78.00603,20.0117928 C79.4938499,20.0117928 80.3976083,19.1080345 80.3976083,17.3558498 L80.3976083,11.0110971 L82.8568148,11.0110971 L82.8568148,17.2574816 C82.8568148,20.6142984 80.9693738,22.2619668 77.993734,22.2619668 C75.0180941,22.2619668 73.1613932,20.5958544 73.1613932,17.3374058 Z" id="Path" fill="#09090b"></path>
                    <polygon id="Path" fill="#09090b" points="85.3160213 11.0110971 87.5661952 11.0110971 92.7551209 17.8230991 92.7551209 11.0110971 95.1589953 11.0110971 95.1589953 22.0775263 93.0871138 22.0775263 87.7198956 15.0380477 87.7198956 22.0836743 85.3160213 22.0836743"></polygon>
                    <polygon id="Path" fill="#09090b" points="97.9317506 11.0110971 100.390957 11.0110971 100.390957 22.0775263 97.9317506 22.0775263"></polygon>
                    <polygon id="Path" fill="#09090b" points="102.192326 11.0110971 104.879009 11.0110971 107.780873 18.8129297 110.664292 11.0110971 113.289495 11.0110971 108.819887 22.1635985 106.668082 22.1635985"></polygon>
                    <polygon id="Path" fill="#09090b" points="115.017088 11.0110971 123.372242 11.0110971 123.372242 13.1751988 117.42711 13.1751988 117.42711 15.4253727 122.652924 15.4253727 122.652924 17.5894744 117.42711 17.5894744 117.42711 19.9195726 123.446018 19.9195726 123.446018 22.0836743 115.017088 22.0836743"></polygon>
                    <path d="M125.622416,11.0110971 L130.682233,11.0110971 C131.866313,10.9375788 133.030651,11.3404484 133.91609,12.130036 C134.559057,12.8129463 134.90027,13.7258018 134.862884,14.6630187 L134.862884,14.6630187 C134.936321,16.2123832 133.964647,17.6195491 132.48975,18.0997598 L135.194877,22.0529342 L132.348345,22.0529342 L129.975211,18.5116769 L128.05703,18.5116769 L128.05703,22.0529342 L125.597824,22.0529342 L125.622416,11.0110971 Z M130.540829,16.3906113 C131.727396,16.3906113 132.385234,15.7758097 132.385234,14.8228671 L132.385234,14.8228671 C132.385234,13.7777044 131.659768,13.236679 130.473201,13.236679 L128.050882,13.236679 L128.050882,16.4213514 L130.540829,16.3906113 Z" id="Shape" fill="#09090b"></path>
                    <path d="M136.307668,20.4728941 L137.746304,18.7453015 C138.649475,19.57976 139.824744,20.0581687 141.053936,20.0917171 C142.049915,20.0917171 142.652421,19.698244 142.652421,19.0465543 L142.652421,19.0158142 C142.652421,18.4010126 142.271244,18.0813157 140.420691,17.6079185 C138.188961,17.036153 136.731881,16.4213514 136.731881,14.2203616 L136.731881,14.2203616 C136.731881,12.2099602 138.342661,10.8819887 140.605131,10.8819887 C142.100351,10.8566132 143.557419,11.354626 144.724302,12.2898845 L143.457811,14.1342893 C142.627542,13.4906147 141.622909,13.1114673 140.574391,13.0460905 C139.639893,13.0460905 139.154199,13.4703036 139.154199,14.011329 L139.154199,14.0420691 C139.154199,14.767535 139.627597,15.0073076 141.53963,15.4991489 C143.789804,16.1139506 145.056295,16.8886006 145.056295,18.8190777 L145.056295,18.8559658 C145.056295,21.0508076 143.377887,22.2865589 140.986308,22.2865589 C139.256924,22.2772363 137.591484,21.6316323 136.307668,20.4728941 L136.307668,20.4728941 Z" id="Path" fill="#09090b"></path>
                    <polygon id="Path" fill="#09090b" points="147.306469 11.0110971 149.765675 11.0110971 149.765675 22.0775263 147.306469 22.0775263"></polygon>
                    <polygon id="Path" fill="#09090b" points="155.096006 13.255123 151.726893 13.255123 151.726893 11.0110971 160.905881 11.0110971 160.905881 13.255123 157.53062 13.255123 157.53062 22.0836743 155.071413 22.0836743"></polygon>
                    <polygon id="Path" fill="#09090b" points="162.885542 11.0110971 165.344749 11.0110971 165.344749 22.0775263 162.885542 22.0775263"></polygon>
                    <polygon id="Path" fill="#09090b" points="168.092912 11.0110971 176.448066 11.0110971 176.448066 13.1751988 170.51523 13.1751988 170.51523 15.4253727 175.734896 15.4253727 175.734896 17.5894744 170.51523 17.5894744 170.51523 19.9195726 176.52799 19.9195726 176.52799 22.0836743 168.092912 22.0836743"></polygon>
                    <path d="M177.935886,20.4728941 L179.38067,18.7453015 C180.283841,19.57976 181.45911,20.0581687 182.688302,20.0917171 C183.684281,20.0917171 184.286787,19.698244 184.286787,19.0465543 L184.286787,19.0158142 C184.286787,18.4010126 183.90561,18.0813157 182.055057,17.6079185 C179.823327,17.036153 178.366247,16.4213514 178.366247,14.2203616 L178.366247,14.2203616 C178.366247,12.2099602 179.977027,10.8819887 182.239497,10.8819887 C183.739325,10.8511037 185.202093,11.3495768 186.370964,12.2898845 L185.110621,14.1342893 C184.280352,13.4906147 183.275719,13.1114673 182.227201,13.0460905 C181.292703,13.0460905 180.800861,13.4703036 180.800861,14.011329 L180.800861,14.0420691 C180.800861,14.767535 181.280407,15.0073076 183.19244,15.4991489 C185.442614,16.1139506 186.702957,16.8886006 186.702957,18.8190777 L186.702957,18.8559658 C186.702957,21.0508076 185.030697,22.2865589 182.639118,22.2865589 C180.901681,22.2809684 179.227243,21.63527 177.935886,20.4728941 Z" id="Path" fill="#09090b"></path>
                </g>
            </g>
        </g>
    </g>
</svg>
