<svg width="199" height="53" viewBox="0 0 199 53" fill="none" xmlns="http://www.w3.org/2000/svg">
<g clip-path="url(#clip0_17_26300)">
<path d="M65.4794 28.7806C65.4794 30.8135 64.748 32.415 63.2853 33.5852C61.8226 34.7554 59.7872 35.3419 57.1793 35.3449C54.777 35.3449 52.6518 34.8931 50.8037 33.9895V29.5504C52.0514 30.1278 53.3423 30.6065 54.6647 30.9822C55.6055 31.2438 56.5759 31.3838 57.5522 31.3986C58.5996 31.3986 59.4028 31.1989 59.962 30.7995C60.5211 30.4001 60.8007 29.8046 60.8007 29.0128C60.8068 28.5906 60.6777 28.1776 60.4322 27.8341C60.1316 27.4417 59.7641 27.1056 59.3464 26.8412C58.8672 26.5197 57.8932 26.0095 56.4245 25.3105C55.0496 24.6635 54.0182 24.0425 53.3303 23.4474C52.6529 22.8666 52.0936 22.1608 51.6828 21.3687C51.2575 20.5093 51.0473 19.5595 51.0703 18.601C51.0703 16.6101 51.7452 15.0445 53.0951 13.9043C54.445 12.764 56.3111 12.1944 58.6934 12.1954C59.8229 12.1906 60.9483 12.3305 62.0422 12.6118C63.1803 12.9148 64.2933 13.3048 65.3716 13.7785L63.8319 17.4927C62.8639 17.0793 61.868 16.7345 60.8516 16.4608C60.0944 16.267 59.3163 16.1664 58.5347 16.1613C57.6361 16.1613 56.9432 16.3714 56.4559 16.7918C56.2201 16.995 56.0327 17.2484 55.9075 17.5335C55.7823 17.8186 55.7226 18.128 55.7325 18.4392C55.7235 18.8264 55.8248 19.2082 56.0246 19.54C56.2696 19.9032 56.5867 20.2122 56.9561 20.4476C57.3815 20.7411 58.3899 21.2673 59.9814 22.0261C62.0872 23.0326 63.5299 24.0415 64.3097 25.0529C65.0895 26.0644 65.4794 27.3069 65.4794 28.7806Z" fill="#090909"/>
<path d="M78.0183 35.3448C75.9964 35.3448 74.4104 34.6104 73.2602 33.1417H73.0131C73.1778 34.5795 73.2602 35.4112 73.2602 35.6368V42.6085H68.5635V17.822H72.3825L73.0445 20.0551H73.2602C74.3585 18.3507 75.9854 17.4985 78.1411 17.4985C80.1739 17.4985 81.7654 18.2838 82.9157 19.8544C84.0659 21.4249 84.6405 23.6065 84.6395 26.3992C84.6395 28.2373 84.3699 29.8349 83.8307 31.1917C83.2916 32.5486 82.5243 33.58 81.5288 34.2859C80.5009 35.0029 79.2712 35.3738 78.0183 35.3448ZM76.6329 21.2547C75.4727 21.2547 74.6241 21.6111 74.0869 22.324C73.5497 23.0369 73.2727 24.2151 73.2557 25.8585V26.3588C73.2557 28.2069 73.5303 29.5313 74.0794 30.3321C74.6285 31.1328 75.4987 31.5322 76.6898 31.5302C78.7936 31.5302 79.8459 29.7954 79.8469 26.3258C79.8469 24.6284 79.5873 23.3579 79.0681 22.5142C78.5489 21.6705 77.7372 21.2492 76.6329 21.2502V21.2547Z" fill="#090909"/>
<path d="M103.708 26.3933C103.708 29.196 102.969 31.3876 101.491 32.9681C100.013 34.5487 97.9551 35.3409 95.3162 35.3449C93.6628 35.3449 92.2051 34.983 90.943 34.2591C89.681 33.5363 88.6663 32.4495 88.0316 31.1409C87.3536 29.7831 87.0146 28.2005 87.0146 26.3933C87.0146 23.5807 87.7485 21.3941 89.2162 19.8335C90.6839 18.273 92.7457 17.4927 95.4016 17.4927C97.055 17.4927 98.5128 17.8521 99.7748 18.571C101.034 19.2861 102.049 20.3644 102.686 21.6652C103.367 23.0121 103.708 24.5881 103.708 26.3933ZM91.8042 26.3933C91.8042 28.0977 92.0843 29.3862 92.6444 30.2588C93.2045 31.1315 94.1156 31.5678 95.3776 31.5678C96.6297 31.5678 97.5283 31.134 98.0735 30.2663C98.6186 29.3987 98.8932 28.1077 98.8972 26.3933C98.8972 24.689 98.6201 23.411 98.066 22.5593C97.5118 21.7076 96.6032 21.2813 95.3402 21.2803C94.0882 21.2803 93.1851 21.7041 92.6309 22.5518C92.0768 23.3995 91.8022 24.68 91.8072 26.3933H91.8042Z" fill="#090909"/>
<path d="M114.091 31.6007C114.912 31.6007 115.897 31.421 117.048 31.0616V34.5571C115.878 35.0823 114.441 35.3449 112.736 35.3449C110.858 35.3449 109.49 34.8701 108.632 33.9206C107.774 32.9711 107.346 31.5468 107.347 29.6478V21.3432H105.101V19.3558L107.683 17.7847L109.038 14.1514H112.033V17.8222H116.863V21.3492H112.044V29.6493C112.044 30.3157 112.229 30.8085 112.605 31.1275C112.981 31.4465 113.476 31.6007 114.091 31.6007Z" fill="#090909"/>
<path d="M124.588 35.0321H119.89V11.0693H124.588V35.0321Z" fill="#090909"/>
<path d="M128.5 13.3667C128.5 11.8361 129.349 11.0713 131.046 11.0723C132.744 11.0733 133.596 11.8381 133.603 13.3667C133.603 14.0946 133.39 14.6617 132.963 15.0681C132.537 15.4744 131.898 15.6771 131.046 15.6761C129.343 15.6761 128.494 14.9063 128.5 13.3667ZM133.396 35.032H128.692V17.8223H133.389L133.396 35.032Z" fill="#090909"/>
<path d="M152.707 17.8228V20.204L150.011 20.896C150.505 21.668 150.762 22.5676 150.751 23.4839C150.751 25.3321 150.107 26.7718 148.818 27.8032C147.529 28.8346 145.74 29.3518 143.451 29.3548L142.605 29.3084L141.912 29.232C141.43 29.6024 141.188 30.0128 141.188 30.4631C141.188 31.142 142.051 31.481 143.775 31.48H146.701C148.589 31.48 150.029 31.8854 151.021 32.6961C152.012 33.5069 152.507 34.698 152.506 36.2696C152.506 38.2804 151.667 39.8405 149.989 40.9498C148.31 42.0591 145.9 42.6122 142.758 42.6092C140.356 42.6092 138.521 42.1909 137.254 41.3542C135.987 40.5175 135.353 39.3443 135.352 37.8346C135.323 36.874 135.672 35.9404 136.322 35.2332C136.967 34.5343 137.916 34.035 139.168 33.7355C138.667 33.5143 138.232 33.1664 137.905 32.7261C137.551 32.2809 137.36 31.7271 137.366 31.1579C137.371 30.5887 137.572 30.0388 137.935 29.6004C138.413 29.0867 138.969 28.6524 139.583 28.3139C138.686 27.9309 137.933 27.2734 137.434 26.4359C136.906 25.5732 136.641 24.5568 136.641 23.3866C136.641 21.5085 137.252 20.0558 138.473 19.0284C139.694 18.001 141.441 17.4878 143.715 17.4888C144.289 17.4955 144.863 17.539 145.431 17.6191C146.095 17.7074 146.517 17.7688 146.703 17.8123L152.707 17.8228ZM139.417 37.4722C139.417 38.1192 139.727 38.6274 140.348 38.9968C140.969 39.3662 141.839 39.551 142.959 39.551C144.642 39.551 145.961 39.3198 146.917 38.8575C147.872 38.3953 148.35 37.7637 148.349 36.963C148.349 36.3175 148.066 35.8697 147.501 35.6241C146.936 35.3785 146.065 35.2541 144.883 35.2541H142.451C141.588 35.2541 140.867 35.4568 140.287 35.8622C140.017 36.0335 139.796 36.2708 139.644 36.5514C139.492 36.8321 139.413 37.1469 139.417 37.4662V37.4722ZM141.127 23.4585C141.127 24.393 141.34 25.1324 141.765 25.6765C142.19 26.2207 142.839 26.4928 143.712 26.4928C144.594 26.4928 145.243 26.2207 145.659 25.6765C146.075 25.1324 146.28 24.393 146.274 23.4585C146.274 21.3857 145.422 20.3488 143.718 20.3478C141.99 20.3438 141.126 21.3787 141.127 23.4525V23.4585Z" fill="#090909"/>
<path d="M170.822 35.0321H166.126V24.9767C166.126 22.4916 165.202 21.2495 163.353 21.2505C162.041 21.2505 161.092 21.6968 160.508 22.5894C159.924 23.482 159.631 24.9298 159.63 26.9327V35.0321H154.934V11.0693H159.63V15.9502C159.63 16.3307 159.594 17.2238 159.522 18.6296L159.415 20.0149H159.662C160.708 18.3315 162.371 17.4899 164.65 17.4899C166.672 17.4899 168.207 18.034 169.254 19.1223C170.302 20.2106 170.824 21.7742 170.822 23.813V35.0321Z" fill="#090909"/>
<path d="M182.054 31.6007C182.874 31.6007 183.86 31.421 185.01 31.0616V34.5571C183.839 35.0813 182.401 35.3434 180.698 35.3434C178.818 35.3434 177.45 34.8686 176.595 33.9191C175.739 32.9696 175.31 31.5453 175.308 29.6463V21.3432H173.062V19.3558L175.648 17.7847L176.996 14.1514H179.999V17.8222H184.818V21.3492H180.005V29.6493C180.005 30.3152 180.192 30.808 180.566 31.1275C180.942 31.439 181.436 31.6007 182.054 31.6007Z" fill="#090909"/>
<path d="M197.414 17.493C197.946 17.4832 198.477 17.5299 199 17.6322L198.646 22.0354C198.192 21.9259 197.726 21.8756 197.259 21.8856C195.762 21.8856 194.594 22.271 193.756 23.0418C192.919 23.8126 192.5 24.8904 192.501 26.2753V35.0367H187.808V17.8224H191.365L192.058 20.7174H192.289C192.805 19.7721 193.549 18.9702 194.453 18.3841C195.33 17.8013 196.36 17.4913 197.414 17.493Z" fill="#090909"/>
<path d="M18.5022 32.0781C18.2737 32.0842 18.0476 32.1272 17.8328 32.2054L8.47233 35.7309C8.0703 35.8631 7.65086 35.9348 7.22776 35.9436C6.12398 35.9436 5.56235 35.3281 5.28079 34.6362C5.07137 34.0736 4.97814 33.4745 5.00672 32.8749C5.00672 32.8569 5.00672 32.8404 5.00672 32.827C5.0157 32.6383 5.02918 32.4436 5.04566 32.2414C5.04566 32.1755 5.05614 32.1066 5.06363 32.0377C5.07112 31.9688 5.07411 31.9358 5.0786 31.8879C5.09508 31.7142 5.11305 31.5405 5.13402 31.3562C5.13402 31.3323 5.13402 31.3068 5.14151 31.2829C5.14234 31.2764 5.14234 31.2699 5.14151 31.2634C5.16846 31.0477 5.20141 30.8276 5.23286 30.5999C5.24485 30.528 5.25683 30.4502 5.26881 30.3783C5.29127 30.2285 5.32123 30.0787 5.34669 29.929C5.36616 29.8196 5.38413 29.7118 5.4051 29.598C5.41258 29.5561 5.42307 29.5171 5.43205 29.4767C5.468 29.279 5.51293 29.0753 5.55786 28.8686C5.56834 28.8237 5.57583 28.7803 5.58631 28.7338C5.58768 28.7259 5.58768 28.7178 5.58631 28.7099C5.60229 28.643 5.61727 28.5741 5.63124 28.5032C5.67767 28.3175 5.7271 28.1213 5.78101 27.9296C5.80497 27.8247 5.82744 27.7259 5.85739 27.6211C5.87087 27.5716 5.88435 27.5192 5.89633 27.4713C5.97122 27.2032 6.0461 26.9261 6.13446 26.6476C6.15543 26.5712 6.18089 26.4978 6.20186 26.4169C6.3017 26.0964 6.40854 25.7709 6.52236 25.4405C6.53134 25.409 6.54333 25.379 6.55381 25.3491C6.56429 25.3191 6.57777 25.2832 6.58676 25.2517C6.6886 24.9597 6.79793 24.6602 6.91475 24.3531C6.9432 24.2768 6.97316 24.2034 7.00311 24.1195C7.1379 23.7691 7.28318 23.4141 7.43444 23.0517C7.43384 23.0467 7.43384 23.0417 7.43444 23.0367C7.4629 22.9708 7.49435 22.9019 7.52131 22.836C7.66059 22.5155 7.80437 22.1905 7.95713 21.858C7.98259 21.8041 8.00805 21.7472 8.03501 21.6918C8.04181 21.6723 8.04982 21.6533 8.05897 21.6349C8.23869 21.2575 8.4259 20.8711 8.62359 20.4787C8.66553 20.3963 8.70596 20.3154 8.7494 20.2331C8.92762 19.8841 9.11632 19.5321 9.31252 19.1727L9.42634 18.963C9.65099 18.5557 9.88912 18.1423 10.1362 17.723L10.298 17.4489C10.5271 17.0715 10.7623 16.6866 11.0094 16.3002C11.0498 16.2388 11.0858 16.1759 11.1247 16.1145C11.4033 15.6801 11.6938 15.2413 11.9963 14.798C12.0637 14.6962 12.1371 14.5943 12.2045 14.4985C12.4891 14.0866 12.7811 13.6733 13.0881 13.2509C13.1226 13.2015 13.157 13.1506 13.196 13.1011C13.5315 12.6518 13.8834 12.1801 14.2443 11.7113L14.5019 11.3818C14.8554 10.9325 15.2163 10.4742 15.5967 10.0174L15.6701 9.92608C16.067 9.44233 16.4864 8.95259 16.9147 8.46286L17.2247 8.10791C17.4419 7.86079 17.6605 7.61368 17.8837 7.35907L9.5851 2.54556L6.13147 0.550662C5.51063 0.188382 4.80445 -0.00186295 4.08565 -0.000480804C3.62645 0.00297387 3.17099 0.0824262 2.73775 0.234654V0.242142C2.2785 0.391308 1.85592 0.635769 1.49767 0.959526C1.34032 1.08774 1.19265 1.22741 1.05586 1.37738V1.3609C0.998949 1.4238 0.952521 1.49419 0.906093 1.56009C0.859666 1.62599 0.802754 1.68739 0.756326 1.75179C0.69967 1.83036 0.647179 1.91184 0.599071 1.99591C0.21163 2.62479 0.00439991 3.34803 2.47193e-06 4.08666V43.1324C-0.00058815 43.6693 0.104665 44.201 0.309742 44.6971C0.514819 45.1932 0.815696 45.6441 1.19516 46.0238C1.57463 46.4035 2.02524 46.7048 2.52121 46.9102C3.01719 47.1156 3.54881 47.2213 4.08565 47.2211C4.80348 47.2195 5.50853 47.0311 6.13147 46.6744L6.69459 46.3509C6.15243 50.5025 6.78146 51.9342 6.78146 51.9357C8.65205 56.1472 13.7861 46.4678 14.5274 45.0614C15.2762 43.6282 15.9487 42.147 16.5687 40.6538C16.8428 39.9963 17.036 39.4976 17.1393 39.225L17.2247 38.9974C17.4733 38.4118 17.7234 37.8142 17.9736 37.2076C17.9814 37.1857 17.9904 37.1642 18.0005 37.1432C18.014 37.1088 18.0275 37.0744 18.0424 37.0399C18.1922 36.664 18.33 36.2911 18.4738 35.9077C18.5576 35.6875 18.646 35.4689 18.7254 35.2487C18.7463 35.1948 18.7673 35.1379 18.7868 35.084C18.8901 34.7994 18.9875 34.5163 19.0863 34.2318C19.0922 34.2207 19.0972 34.2092 19.1013 34.1973C19.217 33.8397 19.2869 33.4688 19.3095 33.0935C19.305 32.5634 19.1432 32.0781 18.5022 32.0781Z" fill="url(#paint0_linear_17_26300)"/>
<path d="M39.8977 20.0689L26.209 12.1657C27.5958 5.63739 26.7002 3.47925 26.6762 3.41485C25.9274 1.67455 24.9135 1.94713 23.6989 3.13029C23.6165 3.21266 23.5341 3.29953 23.4502 3.38489C23.3664 3.47026 23.3005 3.53466 23.2301 3.62302C23.1597 3.71139 23.0803 3.77279 23.0069 3.86415C22.9968 3.87413 22.9878 3.88518 22.98 3.8971C22.9757 3.9009 22.9721 3.90547 22.9695 3.91058C22.8467 4.06034 22.7194 4.21011 22.5951 4.35988V4.35239L22.5741 4.38085C22.5561 4.40331 22.5397 4.42727 22.5232 4.44974C22.4663 4.52163 22.4049 4.59951 22.351 4.6684C22.1383 4.94247 21.9286 5.22403 21.7369 5.51159C21.6381 5.65237 21.5512 5.79165 21.4583 5.93243C21.3655 6.07321 21.2681 6.21849 21.1813 6.35627C21.1274 6.44014 21.0764 6.52551 21.0315 6.61088C20.079 8.12322 19.212 9.68774 18.4345 11.2971C17.3173 13.5855 16.5759 15.4906 16.3378 16.1226C16.2824 16.2724 16.2524 16.3487 16.2524 16.3517C16.0028 16.9368 15.7532 17.5359 15.5036 18.1489C15.4961 18.1699 15.4856 18.1909 15.4781 18.2118C15.4707 18.2328 15.4512 18.2822 15.4347 18.3152C15.2849 18.6911 15.1472 19.064 15.0034 19.4459C14.921 19.6676 14.8311 19.8862 14.7518 20.1049C14.7308 20.1603 14.7128 20.2157 14.6919 20.2726C14.587 20.5542 14.4897 20.8402 14.3923 21.1218C14.3865 21.1338 14.382 21.1463 14.3789 21.1593C14.2607 21.5158 14.1907 21.8865 14.1707 22.2615C14.1572 22.7902 14.3204 23.277 14.9599 23.277C15.1884 23.2695 15.4142 23.2266 15.6294 23.1497L24.9899 19.6196C25.3922 19.4895 25.8116 19.4194 26.2344 19.4115C27.3382 19.4115 27.8998 20.024 28.1814 20.7144C28.3888 21.2785 28.482 21.8783 28.4555 22.4787C28.4546 22.4947 28.4546 22.5107 28.4555 22.5266C28.445 22.7153 28.433 22.91 28.415 23.1107C28.415 23.1781 28.4045 23.247 28.3985 23.3129C28.3926 23.3788 28.3866 23.4147 28.3821 23.4627C28.3656 23.6379 28.3491 23.8101 28.3297 23.9958C28.3297 24.0198 28.3207 24.0453 28.3177 24.0692C28.3147 24.0932 28.3177 24.0827 28.3177 24.0887C28.2922 24.3059 28.2608 24.523 28.2278 24.7507C28.2158 24.8241 28.2039 24.9004 28.1919 24.9738C28.1694 25.1236 28.1409 25.2734 28.114 25.4231C28.0945 25.5354 28.0765 25.6448 28.0556 25.7571C28.0481 25.7975 28.0391 25.838 28.0301 25.8784C27.9927 26.0776 27.9492 26.2798 27.9028 26.485L27.8729 26.6213V26.6452C27.8579 26.7111 27.8414 26.78 27.8264 26.8504C27.7845 27.0376 27.7306 27.2323 27.6767 27.4255C27.6497 27.5288 27.6287 27.6307 27.5988 27.7355C27.5853 27.7835 27.5718 27.8359 27.5584 27.8853C27.485 28.1549 27.4086 28.4289 27.3217 28.709C27.3008 28.7854 27.2753 28.8588 27.2528 28.9412C27.154 29.2617 27.0477 29.5851 26.9353 29.9176C26.9248 29.9491 26.9129 29.979 26.9024 30.009C26.8919 30.0389 26.8799 30.0719 26.8694 30.1048C26.7676 30.4044 26.6583 30.7039 26.5414 31.0034C26.513 31.0798 26.4845 31.1532 26.4531 31.2356C26.3198 31.586 26.1745 31.9425 26.0217 32.3064V32.3199C25.9933 32.3843 25.9618 32.4532 25.9349 32.5206C25.7941 32.8411 25.6518 33.1661 25.4991 33.4971L25.4227 33.6648C25.4149 33.6838 25.4059 33.7023 25.3957 33.7202C25.2175 34.1006 25.0303 34.4855 24.8326 34.8779L24.7068 35.122C24.5271 35.4725 24.3414 35.8244 24.1452 36.1824C24.1182 36.2288 24.0942 36.2752 24.0688 36.3232C24.0688 36.3232 24.7562 35.9248 24.7577 35.9263L26.3422 35.0082L26.4381 34.9528L39.9052 27.1514C40.5252 26.7925 41.0399 26.2769 41.3978 25.6563C41.7557 25.0357 41.944 24.3318 41.944 23.6154C41.944 22.899 41.7557 22.1952 41.3978 21.5746C41.0399 20.9539 40.5252 20.4383 39.9052 20.0794L39.8977 20.0689Z" fill="url(#paint1_linear_17_26300)"/>
</g>
<defs>
<linearGradient id="paint0_linear_17_26300" x1="-7.50932" y1="9.92159" x2="22.2075" y2="39.6369" gradientUnits="userSpaceOnUse">
<stop stop-color="#F9AA1A"/>
<stop offset="0.2" stop-color="#F68F1D"/>
<stop offset="0.56" stop-color="#F16421"/>
<stop offset="0.83" stop-color="#EE4A23"/>
<stop offset="1" stop-color="#ED4024"/>
</linearGradient>
<linearGradient id="paint1_linear_17_26300" x1="16.2539" y1="10.5797" x2="36.4575" y2="30.7833" gradientUnits="userSpaceOnUse">
<stop stop-color="#F9AA1A"/>
<stop offset="0.2" stop-color="#F68F1D"/>
<stop offset="0.56" stop-color="#F16421"/>
<stop offset="0.83" stop-color="#EE4A23"/>
<stop offset="1" stop-color="#ED4024"/>
</linearGradient>
<clipPath id="clip0_17_26300">
<rect width="199" height="52.9891" fill="white"/>
</clipPath>
</defs>
</svg>
