<svg id="Layer_1" data-name="Layer 1" xmlns="http://www.w3.org/2000/svg" viewBox="0 0 280 300"><defs><style>.cls-1{fill:#1ed760;}</style></defs><path class="cls-1" d="M69.15,119.65A30.35,30.35,0,1,0,99.51,150a30.35,30.35,0,0,0-30.36-30.35Zm13.92,43.77a1.88,1.88,0,0,1-2.6.63c-7.13-4.35-16.1-5.34-26.66-2.92a1.89,1.89,0,0,1-.85-3.69c11.57-2.64,21.48-1.51,29.49,3.38A1.89,1.89,0,0,1,83.07,163.42Zm3.72-8.26a2.38,2.38,0,0,1-3.26.78c-8.16-5-20.59-6.47-30.24-3.54a2.37,2.37,0,1,1-1.38-4.53c11-3.34,24.73-1.72,34.1,4a2.37,2.37,0,0,1,.78,3.25Zm.32-8.61c-9.79-5.81-25.93-6.34-35.27-3.51a2.84,2.84,0,1,1-1.64-5.43c10.72-3.25,28.54-2.62,39.8,4.06a2.84,2.84,0,1,1-2.89,4.88Zm34.27,1.12c-5.24-1.25-6.17-2.13-6.17-4s1.63-2.92,4.07-2.92a11.89,11.89,0,0,1,7.17,2.73.36.36,0,0,0,.25.06.3.3,0,0,0,.23-.14l2.56-3.61a.33.33,0,0,0-.06-.46,15.49,15.49,0,0,0-10.07-3.49c-5.66,0-9.61,3.39-9.61,8.25,0,5.21,3.41,7.06,9.3,8.48,5,1.16,5.86,2.12,5.86,3.85,0,1.92-1.71,3.11-4.46,3.11-3.06,0-5.56-1-8.35-3.44a.38.38,0,0,0-.25-.09.37.37,0,0,0-.24.12l-2.87,3.42a.35.35,0,0,0,0,.48,17.08,17.08,0,0,0,11.55,4.43c6.1,0,10-3.34,10-8.49,0-4.35-2.6-6.77-9-8.32Zm22.78-5.17a8.24,8.24,0,0,0-6.6,3.17v-2.4a.34.34,0,0,0-.34-.34h-4.69a.34.34,0,0,0-.34.34V170a.34.34,0,0,0,.34.34h4.69a.34.34,0,0,0,.34-.34v-8.42a8.46,8.46,0,0,0,6.6,3c4.91,0,9.89-3.78,9.89-11s-5-11-9.88-11Zm4.43,11c0,3.68-2.27,6.25-5.52,6.25s-5.62-2.69-5.62-6.25,2.42-6.25,5.62-6.25,5.52,2.63,5.52,6.25Zm18.2-11a11,11,0,1,0,11.24,11,11.06,11.06,0,0,0-11.24-11Zm0,17.29a6,6,0,0,1-5.9-6.28c0-3.6,2.45-6.21,5.82-6.21a6,6,0,0,1,5.94,6.29A5.84,5.84,0,0,1,166.79,159.79Zm24.74-16.86h-5.16v-5.28a.35.35,0,0,0-.35-.34h-4.69a.34.34,0,0,0-.34.34v5.28h-2.26a.34.34,0,0,0-.34.34v4a.34.34,0,0,0,.34.34H181v10.44c0,4.21,2.1,6.35,6.24,6.35a8.52,8.52,0,0,0,4.39-1.1.31.31,0,0,0,.17-.29v-3.84a.34.34,0,0,0-.16-.29.33.33,0,0,0-.33,0,6,6,0,0,1-2.76.66c-1.5,0-2.17-.68-2.17-2.21v-9.7h5.16a.34.34,0,0,0,.34-.34v-4a.33.33,0,0,0-.34-.34Zm18,0v-.65c0-1.91.73-2.76,2.37-2.76a8,8,0,0,1,2.65.49.34.34,0,0,0,.31-.05.34.34,0,0,0,.14-.28v-3.95a.34.34,0,0,0-.25-.33,12.67,12.67,0,0,0-3.9-.56c-4.33,0-6.62,2.44-6.62,7v1H202a.34.34,0,0,0-.34.34v4.06a.35.35,0,0,0,.34.34h2.26v16.09a.34.34,0,0,0,.34.35h4.69a.34.34,0,0,0,.35-.35V147.65H214l6.71,16.09c-.76,1.69-1.51,2-2.53,2a5.39,5.39,0,0,1-2.59-.74.36.36,0,0,0-.27,0,.33.33,0,0,0-.2.18l-1.6,3.49a.35.35,0,0,0,.15.45,9.87,9.87,0,0,0,5,1.28c3.47,0,5.38-1.61,7.07-6l8.14-21a.35.35,0,0,0-.31-.47h-4.89a.35.35,0,0,0-.33.23l-5,14.29-5.48-14.3a.35.35,0,0,0-.32-.22Zm-10.43,0H194.4a.35.35,0,0,0-.35.34v20.47a.35.35,0,0,0,.35.35h4.69a.34.34,0,0,0,.34-.35V143.27a.34.34,0,0,0-.34-.34Zm-2.32-9.32a3.37,3.37,0,1,0,3.36,3.36A3.36,3.36,0,0,0,196.77,133.61Zm41.11,15.9a3.28,3.28,0,0,1-3.3-3.3,3.31,3.31,0,1,1,3.3,3.3Zm0-6.29a3,3,0,1,0,2.95,3A2.94,2.94,0,0,0,237.9,143.22Zm.73,3.31.93,1.31h-.79l-.84-1.2h-.72v1.2h-.66v-3.47h1.55c.81,0,1.33.41,1.33,1.11a1,1,0,0,1-.8,1.05Zm-.56-1.57h-.86v1.1h.86c.43,0,.69-.21.69-.55S238.5,145,238.07,145Z"/></svg>