<svg xmlns="http://www.w3.org/2000/svg" fill="none" width="243" viewBox="0 0 369.503 90.003">
	<path fill="#ffbb1b" d="M362.008 61.848h-33.963a7.497 7.497 0 0 0-7.495 7.5v6.799a7.497 7.497 0 0 0 7.495 7.499h33.963a7.497 7.497 0 0 0 7.495-7.5v-6.799a7.497 7.497 0 0 0-7.495-7.499z" class="svgWideLogo"/>
	<path fill="#2c2d3f" d="M327.997 72.693c0-.946.188-1.77.575-2.474a4.064 4.064 0 0 1 1.6-1.65c.68-.396 1.46-.594 2.34-.594 1.131 0 2.065.286 2.802.858.746.56 1.247 1.352 1.5 2.375h-2.489a1.757 1.757 0 0 0-.679-.924c-.31-.231-.689-.347-1.155-.347-.66 0-1.179.242-1.564.726-.387.473-.576 1.15-.576 2.029 0 .868.19 1.545.576 2.029.387.473.907.71 1.564.71.935 0 1.546-.418 1.832-1.254h2.488c-.255.99-.756 1.776-1.5 2.359-.745.582-1.68.874-2.802.874-.878 0-1.658-.192-2.34-.577a4.218 4.218 0 0 1-1.6-1.65c-.387-.715-.576-1.545-.576-2.49zm14.564 4.718c-.878 0-1.67-.193-2.375-.577a4.358 4.358 0 0 1-1.663-1.666c-.397-.716-.595-1.54-.595-2.475s.207-1.76.613-2.474a4.287 4.287 0 0 1 1.7-1.65c.717-.396 1.51-.594 2.39-.594.877 0 1.675.198 2.39.594a4.172 4.172 0 0 1 1.681 1.65c.416.715.624 1.54.624 2.474 0 .935-.217 1.76-.642 2.475a4.363 4.363 0 0 1-1.714 1.666c-.718.385-1.516.577-2.405.577zm0-2.013c.416 0 .803-.099 1.17-.296.377-.21.67-.517.886-.924.217-.407.331-.902.331-1.485 0-.869-.236-1.534-.698-1.996a2.212 2.212 0 0 0-1.665-.71c-.66 0-1.213.237-1.665.71-.444.462-.66 1.127-.66 1.996 0 .868.216 1.54.64 2.013.444.462.99.692 1.65.692zm17.8-7.406c1.121 0 2.02.346 2.701 1.04.69.68 1.04 1.638 1.04 2.87v5.36h-2.309v-5.047c0-.715-.179-1.26-.547-1.633-.359-.386-.859-.578-1.483-.578-.623 0-1.128.193-1.5.578-.358.374-.547.918-.547 1.633v5.047h-2.309v-5.047c0-.715-.179-1.26-.547-1.633-.359-.386-.859-.578-1.483-.578-.633 0-1.142.193-1.517.578-.359.374-.547.918-.547 1.633v5.047h-2.305v-9.138h2.305v1.105a3.15 3.15 0 0 1 1.138-.907c.472-.22.99-.33 1.55-.33.718 0 1.351.154 1.912.462a3.14 3.14 0 0 1 1.303 1.287c.292-.527.727-.951 1.287-1.27a3.704 3.704 0 0 1 1.845-.478z" class="svgWideLogo"/>
	<path fill="#fff" stroke="#2c2e3e" stroke-width="5" d="M319.46 87.503a7.362 7.362 0 0 0 7.36-7.364 7.362 7.362 0 0 0-7.36-7.365 7.362 7.362 0 0 0-7.36 7.365 7.362 7.362 0 0 0 7.36 7.364z" class="svgWideLogo"/>
	<path fill="#f9f9f9" d="M2.72 7.838c-.187.03-.364.058-.53.104a.157.157 0 0 1 .008.075c.032.3-.03.608-.086.895-.083.289-.227.56-.42.796a2.29 2.29 0 0 1-1.545.841c0 .003-.093.015-.093.017-.075.184-.056.362-.036.546l.018.216.121-.022a2.308 2.308 0 0 1 2.534 2.047c.032.3-.031.608-.086.895-.084.29-.226.56-.42.796-.184.234-.42.43-.689.575-.27.145-.555.234-.855.266-.093.016-.093.017-.12.022l.08.753.13-.023a2.308 2.308 0 0 1 2.535 2.047c.032.3-.032.608-.087.895-.084.29-.226.56-.42.796a2.29 2.29 0 0 1-1.544.841l-.13.023.08.753c.094-.016.093-.017.121-.022a2.31 2.31 0 0 1 2.535 2.047c.032.3-.03.608-.085.895-.083.29-.227.56-.42.796a2.295 2.295 0 0 1-1.544.842l-.13.022.08.753c.093-.016.093-.017.13-.024.601-.063 1.214.116 1.688.5.477.384.783.94.847 1.548.032.3-.032.608-.087.895-.084.29-.226.56-.42.796-.184.235-.42.43-.689.574-.27.146-.554.235-.855.267-.093.016-.093.02-.13.023l.08.753c.093-.016.093-.017.13-.024a2.31 2.31 0 0 1 2.536 2.048c.031.3-.032.608-.087.895-.084.29-.226.56-.42.796a2.29 2.29 0 0 1-1.544.841c-.093.016-.093.017-.13.033l.082.752c.093-.015.092-.017.12-.022.601-.064 1.215.116 1.69.5.477.384.782.94.845 1.547.032.3-.03.608-.085.895-.084.29-.226.56-.42.796a2.306 2.306 0 0 1-1.544.841c-.093.016-.093.017-.13.024l.08.752c.093-.016.093-.017.13-.033a2.31 2.31 0 0 1 1.688.5c.477.384.772.941.846 1.548.031.3-.03.608-.086.895-.083.29-.226.56-.42.795a2.308 2.308 0 0 1-1.544.842c-.093.014-.094.016-.122.02l.08.752c.093-.015.093-.019.13-.023a2.31 2.31 0 0 1 2.535 2.047c.032.3-.03.608-.086.895-.084.29-.226.561-.42.796a2.305 2.305 0 0 1-1.544.842c-.094.01-.094.008-.132.01l.081.752c.094-.013.094-.015.122-.019a2.31 2.31 0 0 1 2.535 2.047c.032.3-.03.608-.086.895-.084.29-.226.56-.42.796a2.295 2.295 0 0 1-1.544.842c-.094.01-.094.008-.132.01l.08.752c.094-.013.094-.016.131-.02.601-.064 1.214.115 1.688.5.477.383.773.94.846 1.547.033.3-.031.608-.086.895-.084.289-.226.56-.42.795a2.21 2.21 0 0 1-.69.575c-.26.145-.554.234-.854.267-.094.01-.094.008-.122.008l.079.753c.094-.013.094-.015.131-.02.601-.064 1.214.116 1.689.499.477.384.782.94.846 1.547.032.3-.03.608-.085.895-.084.29-.227.561-.42.796a2.307 2.307 0 0 1-1.545.842c-.094.01-.093.008-.131.01l.08.75c.094-.012.094-.014.122-.018a2.31 2.31 0 0 1 2.535 2.047c.032.301-.031.609-.087.896-.083.29-.225.56-.419.795a2.29 2.29 0 0 1-1.544.842c-.094.01-.095.008-.132.01l.08.752c.093-.013.094-.015.131-.02.6-.063 1.213.116 1.688.5.477.384.782.94.846 1.547.032.3-.03.609-.086.896-.083.289-.226.56-.42.795a2.312 2.312 0 0 1-1.544.842c-.094.01-.094.008-.132.009l.08.752c.094-.013.093-.015.13-.02.602-.063 1.214.117 1.69.5.477.384.782.94.846 1.547.031.3-.03.608-.086.895-.083.29-.227.56-.42.796a2.307 2.307 0 0 1-1.545.841c-.093.01-.093.008-.13.01l.018.213c.02.185.037.363.15.527 0-.002.093-.012.093-.013a2.31 2.31 0 0 1 2.535 2.047c.005.028.01.047.014.075.181.01.352.01.54-.01l.216-.023a.483.483 0 0 1-.014-.127 2.285 2.285 0 0 1 .497-1.689c.387-.475.94-.777 1.546-.842.6-.063 1.215.116 1.69.5.477.384.781.94.845 1.547a.487.487 0 0 1 .013.128l.752-.08a.441.441 0 0 1-.013-.126 2.288 2.288 0 0 1 .496-1.69 2.31 2.31 0 0 1 1.547-.841c.601-.064 1.214.116 1.688.5.477.384.783.94.846 1.547a.49.49 0 0 1 .014.128l.75-.08a.484.484 0 0 1-.013-.126 2.288 2.288 0 0 1 .497-1.69c.387-.474.94-.777 1.547-.841.6-.064 1.213.115 1.688.5.477.384.782.94.846 1.547a.446.446 0 0 1 .013.128l.751-.08a.444.444 0 0 1-.013-.126 2.289 2.289 0 0 1 .497-1.69 2.31 2.31 0 0 1 1.546-.841 2.311 2.311 0 0 1 2.535 2.047.48.48 0 0 1 .014.127l.75-.08c-.008-.036-.008-.084-.013-.126a2.289 2.289 0 0 1 .497-1.69 2.31 2.31 0 0 1 1.547-.84c.6-.064 1.213.115 1.687.5.478.383.783.94.847 1.546a.45.45 0 0 1 .013.128l.751-.08a.445.445 0 0 1-.013-.126 2.285 2.285 0 0 1 .497-1.689c.386-.475.939-.777 1.545-.842.601-.063 1.215.116 1.69.5.477.384.773.941.846 1.547.01.037.01.085.014.127l.75-.079a.447.447 0 0 1-.013-.127 2.33 2.33 0 0 1 .497-1.689c.387-.475.94-.777 1.546-.841a2.309 2.309 0 0 1 2.535 2.047.445.445 0 0 1 .013.127l.75-.08c-.008-.037-.008-.084-.012-.127a2.289 2.289 0 0 1 .496-1.689 2.301 2.301 0 0 1 3.235-.34c.477.382.782.939.846 1.546a.487.487 0 0 1 .014.128l.75-.08a.414.414 0 0 1-.013-.126 2.288 2.288 0 0 1 .497-1.69c.387-.474.94-.776 1.547-.84.6-.064 1.213.115 1.687.5.477.384.773.94.847 1.547a.42.42 0 0 1 .013.128l.752-.08a.445.445 0 0 1-.013-.127 2.284 2.284 0 0 1 .495-1.689c.387-.475.94-.777 1.547-.84a2.308 2.308 0 0 1 2.534 2.046.49.49 0 0 1 .014.128l.752-.079a.48.48 0 0 1-.014-.127 2.288 2.288 0 0 1 .496-1.689 2.307 2.307 0 0 1 1.548-.841c.6-.063 1.213.116 1.688.5.477.384.782.94.846 1.547a.483.483 0 0 1 .013.128l.751-.08a.416.416 0 0 1-.013-.126 2.29 2.29 0 0 1 .497-1.69 2.307 2.307 0 0 1 1.547-.84c.601-.064 1.214.115 1.687.5.477.383.783.94.846 1.546.01.037.017.084.014.128l.75-.08a.484.484 0 0 1-.013-.126 2.29 2.29 0 0 1 .497-1.689 2.304 2.304 0 0 1 3.236-.341c.477.384.773.94.846 1.547.009.037.009.084.013.128l.751-.08a.414.414 0 0 1-.013-.127 2.29 2.29 0 0 1 .497-1.689 2.304 2.304 0 0 1 3.234-.342c.477.384.773.941.846 1.547.01.038.01.085.014.127l.206-.022c.178-.018.364-.058.53-.103a.159.159 0 0 1-.008-.076 2.288 2.288 0 0 1 .497-1.689 2.306 2.306 0 0 1 1.546-.841l.094-.007c.076-.183.057-.362.038-.546l-.018-.217c-.094.014-.094.016-.131.021a2.306 2.306 0 0 1-1.688-.5 2.336 2.336 0 0 1-.846-1.547 2.288 2.288 0 0 1 .496-1.689c.387-.475.94-.777 1.546-.842.094-.01.094-.008.132-.01l-.081-.751c-.094.013-.093.015-.12.02a2.306 2.306 0 0 1-1.689-.5 2.296 2.296 0 0 1-.846-1.548 2.287 2.287 0 0 1 .496-1.689c.387-.475.94-.777 1.547-.842.093-.01.093-.008.121-.008l-.08-.753c-.093.013-.094.016-.122.02a2.312 2.312 0 0 1-1.687-.5 2.336 2.336 0 0 1-.847-1.547 2.29 2.29 0 0 1 .497-1.69c.387-.474.94-.776 1.546-.841.094-.01.094-.009.123-.01l-.08-.752c-.094.014-.094.016-.132.021a2.308 2.308 0 0 1-2.037-3.736c.387-.475.94-.777 1.546-.842.094-.01.094-.008.132-.01l-.081-.751c-.094.013-.093.015-.13.02a2.315 2.315 0 0 1-1.689-.5 2.286 2.286 0 0 1-.836-1.548 2.288 2.288 0 0 1 .496-1.69c.386-.474.94-.776 1.546-.84.094-.01.095-.01.133-.01l-.08-.753c-.094.013-.094.015-.132.02a2.307 2.307 0 0 1-1.687-.5 2.295 2.295 0 0 1-.847-1.547 2.287 2.287 0 0 1 .496-1.689c.387-.475.94-.777 1.547-.842.093-.01.094-.01.132-.011l-.082-.753c-.093.013-.092.016-.12.02a2.314 2.314 0 0 1-1.69-.5 2.287 2.287 0 0 1-.837-1.548 2.285 2.285 0 0 1 .497-1.69c.387-.474.94-.776 1.547-.84l.13-.024-.08-.753c-.094.016-.094.017-.122.023a2.316 2.316 0 0 1-1.689-.5 2.296 2.296 0 0 1-.35-3.236c.387-.475.94-.777 1.546-.842l.122-.022-.08-.752c-.094.015-.093.017-.12.022a2.312 2.312 0 0 1-1.69-.5 2.335 2.335 0 0 1-.846-1.547 2.287 2.287 0 0 1 .496-1.689c.386-.475.94-.777 1.546-.842.094-.015.093-.016.12-.022l-.078-.752c-.094.015-.093.019-.131.023a2.305 2.305 0 0 1-1.688-.5 2.335 2.335 0 0 1-.846-1.547 2.284 2.284 0 0 1 .497-1.69c.387-.474.94-.776 1.546-.841.094-.016.093-.02.121-.022l-.081-.753c-.094.016-.093.017-.12.023a2.312 2.312 0 0 1-1.69-.5A2.287 2.287 0 0 1 79.8 21.4a2.289 2.289 0 0 1 .497-1.689 2.306 2.306 0 0 1 1.546-.841c.093-.016.093-.017.13-.024l-.081-.752c-.093.016-.093.017-.12.022a2.313 2.313 0 0 1-1.69-.5 2.294 2.294 0 0 1-.845-1.547 2.283 2.283 0 0 1 .496-1.689c.387-.475.94-.777 1.547-.842.093-.015.093-.017.13-.023l-.08-.752c-.094.015-.094.017-.122.022a2.315 2.315 0 0 1-1.69-.5 2.286 2.286 0 0 1-.835-1.548 2.287 2.287 0 0 1 .496-1.689 2.31 2.31 0 0 1 1.546-.842c.094-.015.093-.017.13-.023l-.08-.753c-.092.016-.093.017-.12.023a2.311 2.311 0 0 1-1.69-.5 2.287 2.287 0 0 1-.837-1.548 2.289 2.289 0 0 1 .497-1.69c.387-.474.94-.777 1.547-.841.093-.016.092-.017.12-.022l-.022-.213c-.02-.184-.038-.362-.15-.526 0 .005-.094.017-.093.019a2.307 2.307 0 0 1-1.688-.5A2.287 2.287 0 0 1 77.5.085c-.006-.028-.01-.047-.014-.075a2.04 2.04 0 0 0-.54.019l-.215.019a.483.483 0 0 1 .013.126 2.33 2.33 0 0 1-.497 1.69 2.301 2.301 0 0 1-2.438.76 2.286 2.286 0 0 1-.794-.419 2.539 2.539 0 0 1-.576-.69 2.345 2.345 0 0 1-.27-.856.473.473 0 0 1-.013-.126l-.752.08c.009.037.009.085.013.127a2.289 2.289 0 0 1-.495 1.69 2.304 2.304 0 0 1-2.439.759 2.278 2.278 0 0 1-.795-.418 2.537 2.537 0 0 1-.575-.69 2.348 2.348 0 0 1-.27-.858c-.01-.037-.009-.085-.013-.126l-.752.08a.484.484 0 0 1 .013.127 2.289 2.289 0 0 1-.495 1.69 2.301 2.301 0 0 1-2.439.76 2.18 2.18 0 0 1-.793-.419 2.538 2.538 0 0 1-.576-.69 2.348 2.348 0 0 1-.27-.857c-.01-.037-.01-.084-.014-.126l-.75.08a.48.48 0 0 1 .013.127 2.29 2.29 0 0 1-.497 1.69c-.387.474-.94.778-1.547.841-.3.032-.596.006-.89-.082a2.183 2.183 0 0 1-.795-.418 2.537 2.537 0 0 1-.576-.69 2.348 2.348 0 0 1-.27-.858.476.476 0 0 1-.013-.126l-.751.08c.01.038.008.085.013.128a2.285 2.285 0 0 1-.496 1.69 2.305 2.305 0 0 1-2.438.76 2.273 2.273 0 0 1-.794-.419 2.537 2.537 0 0 1-.575-.69 2.349 2.349 0 0 1-.271-.858.406.406 0 0 1-.013-.126l-.751.08a.474.474 0 0 1 .013.127 2.29 2.29 0 0 1-.497 1.69c-.386.475-.94.777-1.546.842a2.292 2.292 0 0 1-1.685-.5 2.537 2.537 0 0 1-.576-.69 2.347 2.347 0 0 1-.27-.858.476.476 0 0 1-.013-.125l-.752.08a.444.444 0 0 1 .014.127 2.29 2.29 0 0 1-.496 1.69 2.308 2.308 0 0 1-1.548.841c-.3.032-.598.006-.892-.082a2.193 2.193 0 0 1-.793-.418 2.365 2.365 0 0 1-.576-.69 2.348 2.348 0 0 1-.27-.858.438.438 0 0 1-.014-.126l-.75.08a.48.48 0 0 1 .013.127c.031.3-.032.609-.087.896-.084.289-.226.56-.42.795a2.294 2.294 0 0 1-3.232.342 2.337 2.337 0 0 1-.846-1.548.476.476 0 0 1-.013-.126l-.752.08a.48.48 0 0 1 .014.127c.031.301-.03.609-.086.896-.083.29-.227.56-.42.795-.185.235-.42.43-.69.575a2.26 2.26 0 0 1-.855.267 2.311 2.311 0 0 1-1.688-.5 2.287 2.287 0 0 1-.837-1.548.405.405 0 0 1-.013-.126l-.75.08a.484.484 0 0 1 .013.127c.031.3-.032.608-.087.895-.083.29-.226.56-.42.796-.183.234-.419.43-.689.574a2.294 2.294 0 0 1-2.542-.233 2.296 2.296 0 0 1-.847-1.547.408.408 0 0 1-.013-.126l-.752.08a.483.483 0 0 1 .014.127c.031.3-.03.608-.086.895-.083.29-.226.56-.42.796-.183.234-.42.43-.69.575a2.29 2.29 0 0 1-2.542-.234 2.336 2.336 0 0 1-.847-1.547.408.408 0 0 1-.013-.126l-.75.08a.48.48 0 0 1 .013.127c.031.3-.032.609-.087.896-.083.29-.226.56-.42.795-.183.235-.42.43-.689.575-.26.144-.554.234-.855.267a2.307 2.307 0 0 1-1.687-.5 2.287 2.287 0 0 1-.838-1.549.472.472 0 0 1-.013-.125l-.75.08c.008.037.008.084.013.127.032.3-.031.608-.087.895-.083.289-.225.56-.419.796-.184.234-.42.43-.69.574a2.294 2.294 0 0 1-2.544-.233 2.295 2.295 0 0 1-.846-1.547.473.473 0 0 1-.013-.126l-.752.08c.01.037.017.084.014.127.032.3-.03.608-.086.895-.083.29-.227.56-.42.796a2.295 2.295 0 0 1-3.232.342 2.296 2.296 0 0 1-.847-1.548c-.008-.037-.009-.084-.013-.126z"/>
	<path fill="#f9f9f9" d="M123.483 21.397c-2.98 0-5.603.504-7.868 1.512-2.266 1.007-4.031 2.455-5.29 4.345-1.255 1.89-1.885 4.095-1.885 6.614 0 2.73.626 4.914 1.886 6.552 1.258 1.637 2.769 2.854 4.532 3.653 1.804.755 4.135 1.51 6.988 2.266 2.266.587 4.028 1.132 5.287 1.636 1.3.504 2.37 1.217 3.21 2.141.878.924 1.322 2.121 1.322 3.59 0 1.89-.692 3.446-2.076 4.664-1.386 1.176-3.316 1.76-5.792 1.76-2.392 0-4.262-.608-5.604-1.826-1.296-1.218-2.03-2.77-2.2-4.66h-7.68c0 2.52.67 4.725 2.013 6.614 1.342 1.89 3.192 3.358 5.542 4.408 2.349 1.008 4.991 1.511 7.93 1.511 3.104 0 5.79-.585 8.057-1.76 2.308-1.219 4.049-2.815 5.224-4.788 1.22-1.974 1.823-4.074 1.823-6.3 0-2.77-.65-4.976-1.95-6.613-1.26-1.68-2.812-2.918-4.658-3.716-1.805-.798-4.155-1.596-7.05-2.393-2.182-.588-3.903-1.133-5.162-1.637s-2.307-1.176-3.148-2.016c-.799-.882-1.194-1.995-1.194-3.339 0-1.973.65-3.485 1.951-4.535 1.301-1.049 2.98-1.574 5.037-1.574 2.266 0 4.089.569 5.474 1.702 1.388 1.134 2.143 2.497 2.266 4.093h7.93c-.294-3.695-1.803-6.59-4.53-8.69-2.685-2.142-6.147-3.214-10.385-3.214zm23.126 1.007v8.63h-4.09v5.857h4.09v19.21c0 3.4.861 5.856 2.581 7.368 1.72 1.512 4.197 2.269 7.428 2.269h5.663v-5.984h-4.404c-1.469 0-2.516-.274-3.148-.82-.586-.588-.876-1.532-.876-2.833V36.89h8.428v-5.856h-8.431v-8.63h-7.24zm34.377 8.063c-3.021 0-5.793.755-8.31 2.266-2.476 1.47-4.447 3.55-5.916 6.237-1.422 2.687-2.138 5.772-2.138 9.257 0 3.485.711 6.614 2.138 9.385 1.469 2.73 3.44 4.87 5.916 6.424 2.475 1.512 5.202 2.27 8.182 2.27 2.685 0 5.077-.549 7.175-1.64 2.1-1.092 3.755-2.455 4.972-4.093v5.165h7.24V31.035h-7.24v5.037c-1.217-1.596-2.852-2.918-4.91-3.968-2.012-1.092-4.381-1.637-7.11-1.637zm44.293 0c-2.057 0-4.007.4-5.854 1.197-1.803.798-3.295 1.91-4.47 3.338v-3.967h-7.175v34.703h7.176v-19.4c0-3.107.777-5.477 2.328-7.115 1.597-1.68 3.732-2.522 6.418-2.522s4.807.842 6.359 2.522c1.557 1.638 2.33 4.008 2.33 7.116v19.399h7.114V45.266c0-3.149-.613-5.835-1.83-8.06-1.216-2.225-2.912-3.906-5.096-5.04-2.14-1.134-4.573-1.699-7.3-1.699zm38.989 0c-2.057 0-4.012.4-5.857 1.197-1.804.798-3.291 1.91-4.47 3.338v-3.967h-7.172v34.703h7.173v-19.4c0-3.107.777-5.477 2.33-7.115 1.594-1.68 3.737-2.522 6.422-2.522 2.685 0 4.802.842 6.355 2.522 1.554 1.638 2.332 4.008 2.332 7.116v19.399h7.11V45.266c0-3.149-.608-5.835-1.827-8.06-1.217-2.225-2.916-3.906-5.1-5.04-2.137-1.134-4.572-1.699-7.296-1.699zm40.747 0c-2.644 0-5.015.545-7.113 1.637-2.099 1.091-3.756 2.434-4.972 4.03v-5.1h-7.175V82.24h7.175V60.698c1.298 1.596 2.978 2.941 5.034 4.033 2.056 1.05 4.407 1.574 7.05 1.574 3.023 0 5.77-.757 8.245-2.269 2.518-1.553 4.493-3.694 5.92-6.424 1.43-2.77 2.138-5.9 2.138-9.385 0-3.485-.713-6.57-2.139-9.257-1.426-2.687-3.4-4.767-5.919-6.237-2.476-1.511-5.222-2.266-8.244-2.266zm-122.52 6.234c1.846 0 3.568.463 5.161 1.387 1.595.924 2.875 2.267 3.84 4.03 1.01 1.764 1.51 3.844 1.51 6.237 0 2.394-.502 4.49-1.51 6.296-.965 1.764-2.245 3.11-3.84 4.033a10.12 10.12 0 0 1-5.161 1.384c-1.804 0-3.525-.46-5.162-1.384-1.594-.965-2.893-2.352-3.9-4.157-.966-1.806-1.449-3.906-1.449-6.3 0-2.393.484-4.45 1.45-6.171 1.006-1.763 2.305-3.086 3.899-3.968a10.129 10.129 0 0 1 5.162-1.387zm120.946 0c1.848 0 3.568.463 5.165 1.387 1.636.882 2.932 2.205 3.899 3.968 1.011 1.721 1.512 3.778 1.512 6.171 0 2.394-.505 4.494-1.512 6.3-.967 1.805-2.263 3.192-3.9 4.157a10.136 10.136 0 0 1-5.164 1.384c-1.805 0-3.525-.46-5.162-1.384-1.594-.923-2.895-2.27-3.902-4.033-.965-1.805-1.447-3.902-1.447-6.296 0-2.393.482-4.473 1.447-6.237 1.007-1.763 2.308-3.106 3.902-4.03 1.637-.923 3.357-1.387 5.162-1.387z" class="svgWideLogo"/>
	<path fill="#fcb91d" d="M6.634 13.669 74.26 6.562l7.113 67.671-67.628 7.107z"/>
	<path fill="#fff" d="M59.92 20.388c-1.361-8.621-10.303-7.84-14.38-7.197-9.154 1.445-17.324 9.125-16.048 17.208 1.803 11.47 18.923 12.002 21.207 26.474.893 5.696-.648 11.384-6.726 12.343-3.615.57-7.968-1.03-8.78-6.188-.834-5.311 1.518-8.365 7.663-9.888-1.05-2.674-3.388-3.488-6.85-2.942-5.923.935-10.7 5.634-9.559 12.87 1.744 11.085 12.801 10.68 18.956 9.71C57.788 70.821 64.682 62.553 62.97 51.7c-2.706-17.166-20.126-15.126-22.034-27.212-.663-4.234 1.867-7.158 6.098-7.826 4.078-.644 6.005 1.577 6.43 4.27.4 2.541-.534 5.608-2.417 7.167 1.182.997 2.485 1.265 3.716 1.07 4-.631 5.85-4.394 5.158-8.782z"/>
</svg>