<svg xmlns="http://www.w3.org/2000/svg" width="936.49" height="1000" viewBox="0 0 936.49 1000"><defs><style>.a{fill:#f8f4de;}</style></defs><path class="a" d="M414.32,576.52h119.9a10.16,10.16,0,0,1,10.38,10.05c0,5.69-4.69,9.71-10.38,9.71H270.65V750H527.18c95.45,0,158.08-73,158.08-163.43S622.63,422.81,527.18,422.81H459.87l58.94,69c1.68,2.34-1,4.35-2.68,2.67l-70-59.94L439.44,527c-.67,2-4,2-4.69,0l-6.69-92.43-70,59.94c-1.67,1.68-4.35-.33-2.68-2.67l59.95-69.33-91.76-7.37c-2-.67-2-4,0-4l91.76-7-59.95-70c-1.67-1.68,1-4,2.68-3l70,60.29,6.69-91.77a2.44,2.44,0,0,1,4.69,0l6.7,91.77,70-60.29c1.68-1,4.36,1.34,2.68,3l-58.94,68.65h199.6V250H414.32a163.26,163.26,0,0,0,0,326.52Z"/></svg>