<svg version="1.1" id="Layer_1" xmlns:x="ns_extend;" xmlns:i="ns_ai;" xmlns:graph="ns_graphs;" xmlns="http://www.w3.org/2000/svg" xmlns:xlink="http://www.w3.org/1999/xlink" x="0px" y="0px" viewBox="0 0 253 55" style="enable-background:new 0 0 253 55;" xml:space="preserve">
 <style type="text/css">
  .st0{clip-path:url(#SVGID_2_);fill:#FFFFFF;}
	.st1{clip-path:url(#SVGID_4_);fill:#FFFFFF;}
	.st2{clip-path:url(#SVGID_6_);fill:#00B3B0;}
	.st3{clip-path:url(#SVGID_8_);fill:#00B3B0;}
 </style>
 <metadata>
  <sfw xmlns="ns_sfw;">
   <slices>
   </slices>
   <sliceSourceBounds bottomLeftOrigin="true" height="55" width="253" x="73.8" y="-227.7">
   </sliceSourceBounds>
  </sfw>
 </metadata>
 <g>
  <g>
   <defs>
    <path id="SVGID_1_" d="M245,37.7l-5.6-8.7l-2.3,2.4v6.3h-6.5v-30h6.5v17.3l7.3-8.9h7l-7.7,9.3l8.4,12.3H245z M211.1,27
				c0,1.7,0.4,3,1.3,4c0.9,1,2.1,1.6,3.5,1.6c1.3,0,2.6-0.6,3.4-1.6c0.4-0.5,0.7-1,1-1.8c0.3-0.7,0.4-1.5,0.4-2.3
				c0-1.7-0.5-3.1-1.4-4.1c-0.9-1-2-1.6-3.4-1.6c-1.3,0-2.6,0.6-3.4,1.6c-0.4,0.5-0.8,1-1,1.8C211.2,25.4,211.1,26.1,211.1,27z
				 M215.9,38.1c-1.7,0-3.3-0.3-4.9-0.9c-2.7-1.1-4.9-3.3-5.9-6c-1.5-4.1-0.7-8.7,2.2-12c1-1,2.2-1.8,3.7-2.5c1.4-0.6,3-0.9,4.9-0.9
				c3.2-0.2,6.3,1.1,8.5,3.4c1,1,1.7,2.2,2.2,3.5c1.6,4.1,0.7,8.8-2.2,12c-1,1-2.2,1.9-3.7,2.5C219.1,37.8,217.5,38.1,215.9,38.1
				L215.9,38.1z M191.9,7.8h6.5V30c0,1.7,0.7,2.5,2.1,2.5c0.7,0,1.5-0.2,2.1-0.5l0.9,4.9c-1.8,0.8-3.8,1.2-5.8,1.3
				c-1.9,0-3.3-0.5-4.3-1.5c-1-1-1.6-2.4-1.6-4.3L191.9,7.8L191.9,7.8z M176.8,32.6c2.1,0,4-1.3,4.7-3.4c0.8-2.1,0.4-4.5-1-6.2
				c-0.8-1.1-2.1-1.7-3.5-1.7c-1,0-1.9,0.4-2.8,1c-0.8,0.7-1.5,1.6-2,2.7v4.5C173.1,31.4,174.9,32.5,176.8,32.6L176.8,32.6z
				 M178.6,38.1c-1.6,0-3.1-0.3-4.3-1c-1.2-0.7-2.2-1.7-2.9-2.9v3.6h-5.7v-30h6.6v11.9c1.4-2.5,4.1-4,7-3.9c1.4,0,2.6,0.3,3.8,0.9
				c1.2,0.5,2.1,1.4,3,2.4c2.6,3.6,3.3,8.2,1.9,12.4c-0.5,1.4-1.3,2.6-2.1,3.6C184,37,181.4,38.1,178.6,38.1z M143.3,40.9
				c0.9,0.3,1.9,0.5,2.8,0.5c0.8,0,1.4-0.3,1.9-0.8c0.4-0.5,0.8-1.6,1.2-2.9L141,16.2h6.7l5,15.9l4.3-15.9h6.1l-8.2,25
				c-1.3,4.2-5.6,6.8-9.9,5.9c-0.5-0.1-1.2-0.3-1.7-0.5V40.9z M140.4,21.8c-1.6,0-3,0.3-4.3,0.8c-1.2,0.4-2.1,1.2-2.8,2.2v12.9h-6.5
				V16.2h6v4.3c0.7-1.5,1.7-2.6,2.9-3.4c1.2-0.8,2.4-1.3,3.7-1.3h0.7l0.4,0.1V21.8L140.4,21.8z M107.3,27c0,1.7,0.4,3,1.3,4
				c0.9,1,2.1,1.6,3.5,1.6c1.3,0,2.6-0.6,3.4-1.6c0.4-0.5,0.7-1,1-1.8c0.3-0.7,0.4-1.5,0.4-2.3c0-1.7-0.5-3.1-1.4-4.1
				c-0.9-1-2-1.6-3.4-1.6c-1.3,0-2.6,0.6-3.4,1.6c-0.4,0.5-0.8,1-1,1.8C107.4,25.4,107.3,26.2,107.3,27z M112,38.1
				c-1.7,0-3.3-0.3-4.9-0.9c-2.7-1.1-4.9-3.3-5.9-6c-1-2.7-1-5.8,0-8.5c1-2.8,3.1-4.9,5.9-6c1.4-0.6,3-0.9,4.9-0.9
				c3.2-0.2,6.3,1.1,8.5,3.4c1,1,1.7,2.2,2.2,3.5c1.1,2.7,1.1,5.8,0,8.5c-1,2.7-3.1,4.9-5.8,6C115.4,37.8,113.7,38.1,112,38.1z
				 M99.8,36.6c-0.9,0.4-1.9,0.7-3.1,1c-1.2,0.3-2.3,0.5-3.5,0.5c-0.8,0-1.6-0.1-2.3-0.3c-0.7-0.2-1.4-0.6-1.9-1
				c-0.5-0.4-0.9-1-1.3-1.7c-0.3-0.7-0.5-1.6-0.5-2.7V21.1h-2.7v-4.9h2.8V9.3h6.5v6.8h4.4v5h-4.4v9c0,0.7,0.2,1.2,0.5,1.6
				c0.4,0.3,0.8,0.4,1.4,0.4s1-0.1,1.5-0.3c0.5-0.2,1-0.3,1.4-0.5L99.8,36.6L99.8,36.6z M73.9,38.1c-1.8,0-3.6-0.3-5.4-0.8
				c-1.7-0.5-3.2-1.4-4.5-2.6l2.4-4c1.3,0.9,2.6,1.6,3.8,2.1c1.2,0.5,2.4,0.7,3.6,0.7c0.8,0,1.5-0.2,2-0.5c0.5-0.3,0.7-0.7,0.7-1.3
				c0-0.5-0.3-1-0.9-1.4c-1-0.5-2-0.8-3.1-1l-3.7-1.2c-1-0.4-1.8-0.8-2.4-1.3c-0.6-0.4-1.1-1-1.4-1.6c-0.3-0.7-0.4-1.4-0.4-2.1
				c0-2.1,0.9-4,2.5-5.3c0.7-0.6,1.7-1.1,2.7-1.5c1-0.4,2.2-0.5,3.4-0.5c1.6,0,3.1,0.2,4.5,0.6c1.4,0.5,2.8,1.3,4.1,2.4l-2.6,3.9
				c-1-0.7-2.1-1.3-3.2-1.8c-1-0.4-1.9-0.6-2.8-0.6c-0.7,0-1.3,0.1-1.8,0.4c-0.5,0.3-0.7,0.7-0.7,1.4c0,0.6,0.3,1,0.8,1.4
				c0.5,0.3,1.6,0.6,3,1c1.3,0.3,2.6,0.7,3.9,1.2c1,0.4,1.9,0.9,2.6,1.4c1.3,0.9,2,2.5,1.9,4.1c0,2.1-0.8,3.8-2.4,5.1
				C78.8,37.5,76.7,38.1,73.9,38.1z">
    </path>
   </defs>
   <clipPath id="SVGID_2_">
    <use href="#SVGID_1_" style="overflow:visible;">
    </use>
   </clipPath>
   <rect x="63" y="6.8" class="st0" width="190" height="42.2">
   </rect>
  </g>
  <g>
   <defs>
    <rect id="SVGID_3_" x="7" y="7" width="33" height="33">
    </rect>
   </defs>
   <clipPath id="SVGID_4_">
    <use xlink:href="#SVGID_3_" style="overflow:visible;">
    </use>
   </clipPath>
   <rect x="6" y="6" class="st1" width="35" height="35">
   </rect>
  </g>
  <g>
   <defs>
    <path id="SVGID_5_" d="M27.5,19.5c0.4-0.3,0.6-0.9,0.6-1.8c0-0.7-0.2-1.3-0.5-1.6c-0.3-0.3-0.8-0.5-1.3-0.5h-9.5v4.4h9.3
				C26.6,20.1,27.1,19.8,27.5,19.5z M27.1,25.4H16.8v4.9h10.1c0.6,0,1.1-0.2,1.6-0.6c0.4-0.4,0.6-1,0.6-1.7c0-0.6-0.2-1.2-0.5-1.8
				C28.2,25.7,27.7,25.4,27.1,25.4z">
    </path>
   </defs>
   <clipPath id="SVGID_6_">
    <use xlink:href="#SVGID_5_" style="overflow:visible;">
    </use>
   </clipPath>
   <rect x="15.8" y="14.7" class="st2" width="14.4" height="16.7">
   </rect>
  </g>
  <g>
   <defs>
    <path id="SVGID_7_" d="M37.2,33.9c-0.5,0.9-1.3,1.7-2.2,2.3c-1,0.6-2.1,1.2-3.3,1.4c-1.2,0.3-2.6,0.6-4,0.6H9.3V9.3h20.8
				c1,0,1.9,0.2,2.7,0.7c0.8,0.4,1.5,1,2.1,1.7c1.2,1.4,1.8,3.2,1.8,5c0,1.3-0.4,2.6-1,3.9c-0.7,1.2-1.8,2.2-3.1,2.8
				c1.7,0.5,3,1.3,3.9,2.5c0.9,1.2,1.4,2.8,1.4,4.9C37.9,31.9,37.6,33,37.2,33.9L37.2,33.9z M44,1H3.3C2,1,1,2,1,3.3v40.6
				c0,1.2,1,2,2.3,2h6V54l7.5-8.1H44c1.2,0,2-0.8,2-2.1V3.3C46,2.1,45.2,1.1,44,1L44,1z">
    </path>
   </defs>
   <clipPath id="SVGID_8_">
    <use xlink:href="#SVGID_7_" style="overflow:visible;">
    </use>
   </clipPath>
   <rect class="st3" width="47" height="55">
   </rect>
  </g>
 </g>
</svg>