<svg height="294px" version="1.1" viewBox="0 0 1474 294" width="1474px" xmlns="http://www.w3.org/2000/svg" xmlns:xlink="http://www.w3.org/1999/xlink">
<!-- Generator: Sketch 62 (91390) - https://sketch.com -->
<title>logo-new-1</title>
<desc>Created with Sketch.</desc>
<defs>
<linearGradient id="linearGradient-1" x1="75.9220676%" x2="0%" y1="27.6088003%" y2="100%">
<stop offset="0%" stop-color="#8A24FF"></stop>
<stop offset="100%" stop-color="#5D39FA"></stop>
</linearGradient>
</defs>
<g fill="none" fill-rule="evenodd" id="Page-7" stroke="none" stroke-width="1">
<g id="Artboard-3-Copy" transform="translate(-254.000000, -155.000000)">
<g id="logo-new-1" transform="translate(254.000000, 155.000000)">
<g fill="#000000" id="logo-colored-4" transform="translate(362.000000, 68.000000)">
<g id="logo-rocket-1">
<path d="M0,128.08642 L16.1522634,114.403292 C18.4842366,118.244189 22.1193169,121.416311 27.0576132,123.919753 C31.9959095,126.423195 37.7228755,127.674897 44.2386831,127.674897 C50.8916656,127.674897 55.7098616,126.543221 58.6934156,124.279835 C61.6769697,122.01645 63.1687243,119.272993 63.1687243,116.049383 C63.1687243,114.814809 62.9458184,113.683133 62.5,112.654321 C62.0541816,111.625509 61.299731,110.682446 60.2366255,109.825103 C59.1735201,108.96776 58.0761373,108.213309 56.9444444,107.561728 C55.8127515,106.910148 54.2867037,106.207137 52.3662551,105.452675 C50.4458066,104.698213 48.6968529,104.063789 47.1193416,103.549383 C45.5418302,103.034977 43.4327978,102.349113 40.7921811,101.49177 C38.1515643,100.634426 35.9053591,99.8628292 34.0534979,99.1769547 C25.5486543,96.0905195 19.0672377,92.24968 14.6090535,87.654321 C10.1508693,83.0589619 7.9218107,76.9204774 7.9218107,69.2386831 C7.9218107,62.6542881 9.6536178,56.9101754 13.117284,52.0061728 C16.5809501,47.1021703 21.1248004,43.4499434 26.7489712,41.0493827 C32.373142,38.648822 38.6145062,37.4485597 45.473251,37.4485597 C60.3567274,37.4485597 71.8106595,42.6611276 79.8353909,53.0864198 L65.7407407,68.0041152 C61.0767942,62.1055947 54.1838591,59.1563786 45.0617284,59.1563786 C41.0836564,59.1563786 37.9458277,60.0137088 35.6481481,61.7283951 C33.3504686,63.4430813 32.2016461,65.7407263 32.2016461,68.6213992 C32.2016461,69.7873858 32.3559655,70.7990355 32.6646091,71.6563786 C32.9732526,72.5137217 33.5562371,73.3367587 34.4135802,74.1255144 C35.2709234,74.9142701 36.1454002,75.565841 37.037037,76.0802469 C37.9286739,76.5946528 39.2489624,77.2119306 40.9979424,77.9320988 C42.7469223,78.652267 44.32441,79.2523981 45.7304527,79.7325103 C47.1364954,80.2126224 49.1769414,80.8984866 51.8518519,81.7901235 C54.5267623,82.6817603 56.8929938,83.5047973 58.9506173,84.2592593 C68.8272099,87.8258066 76.0459306,92.0781646 80.6069959,97.0164609 C85.1680612,101.954757 87.4485597,108.230415 87.4485597,115.843621 C87.4485597,125.651627 83.7791862,133.727677 76.4403292,140.072016 C69.1014722,146.416355 58.2305247,149.588477 43.8271605,149.588477 C33.1275185,149.588477 23.9883781,147.650911 16.409465,143.77572 C8.83055195,139.900529 3.36078498,134.670815 0,128.08642 Z M96.399177,60.5802469 L96.399177,43.6378601 C96.399177,41.9810058 97.7423227,40.6378601 99.399177,40.6378601 L110.082305,40.6378601 L110.082305,40.6378601 L110.082305,3 C110.082305,1.34314575 111.42545,-1.39730022e-16 113.082305,0 L132.390947,0 C134.047801,-7.48448398e-16 135.390947,1.34314575 135.390947,3 L135.390947,40.6378601 L135.390947,40.6378601 L155.333333,40.6378601 C156.990188,40.6378601 158.333333,41.9810058 158.333333,43.6378601 L158.333333,60.5802469 C158.333333,62.2371012 156.990188,63.5802469 155.333333,63.5802469 L135.390947,63.5802469 L135.390947,63.5802469 L135.390947,143.8107 C135.390947,145.467554 134.047801,146.8107 132.390947,146.8107 L113.082305,146.8107 C111.42545,146.8107 110.082305,145.467554 110.082305,143.8107 L110.082305,63.5802469 L110.082305,63.5802469 L99.399177,63.5802469 C97.7423227,63.5802469 96.399177,62.2371012 96.399177,60.5802469 Z M176.748971,122.325103 C171.604913,113.683084 169.032922,104.149572 169.032922,93.7242798 C169.032922,83.2989877 171.622059,73.7654753 176.800412,65.1234568 C181.978764,56.4814383 189.008872,49.7085293 197.890947,44.8045267 C206.773021,39.9005242 216.495146,37.4485597 227.057613,37.4485597 C237.62008,37.4485597 247.325059,39.9005242 256.17284,44.8045267 C265.02062,49.7085293 272.033582,56.4814383 277.211934,65.1234568 C282.390287,73.7654753 284.979424,83.2989877 284.979424,93.7242798 C284.979424,104.149572 282.390287,113.683084 277.211934,122.325103 C272.033582,130.967121 265.02062,137.74003 256.17284,142.644033 C247.325059,147.548035 237.62008,150 227.057613,150 C216.495146,150 206.773021,147.548035 197.890947,142.644033 C189.008872,137.74003 181.961617,130.967121 176.748971,122.325103 Z M203.600823,70.0617284 C197.290778,76.4403611 194.135802,84.3277994 194.135802,93.7242798 C194.135802,103.12076 197.290778,111.008199 203.600823,117.386831 C209.910868,123.765464 217.72972,126.954733 227.057613,126.954733 C236.316919,126.954733 244.101477,123.765464 250.411523,117.386831 C256.721568,111.008199 259.876543,103.12076 259.876543,93.7242798 C259.876543,84.3277994 256.721568,76.4232145 250.411523,70.0102881 C244.101477,63.5973616 236.316919,60.3909465 227.057613,60.3909465 C217.72972,60.3909465 209.910868,63.6145082 203.600823,70.0617284 Z M302.674897,143.8107 L302.674897,43.6378601 C302.674897,41.9810058 304.018043,40.6378601 305.674897,40.6378601 L324.674897,40.6378601 C326.331751,40.6378601 327.674897,41.9810058 327.674897,43.6378601 L327.674897,56.3786008 L327.674897,56.3786008 C330.212633,50.8230175 334.242085,46.4506332 339.763374,43.2613169 C345.284664,40.0720005 351.783227,38.4773663 359.259259,38.4773663 C362.277107,38.4773663 364.814805,38.6831255 366.872428,39.0946502 L366.872428,63.5802469 C363.58023,62.8943724 360.082323,62.5514403 356.378601,62.5514403 C347.599407,62.5514403 340.620739,65.1062845 335.442387,70.2160494 C330.264034,75.3258143 327.674897,82.2358961 327.674897,90.9465021 L327.674897,143.8107 C327.674897,145.467554 326.331751,146.8107 324.674897,146.8107 L305.674897,146.8107 C304.018043,146.8107 302.674897,145.467554 302.674897,143.8107 Z M380.041152,94.5473251 L380.041152,93.7242798 C380.041152,76.9203549 385.288013,63.374537 395.781893,53.0864198 C406.275773,42.7983025 419.581538,37.654321 435.699588,37.654321 C443.44997,37.654321 450.617251,39.043196 457.201646,41.8209877 C463.786041,44.5987793 469.324395,48.4053256 473.816872,53.2407407 C478.30935,58.0761559 481.824404,63.7516821 484.36214,70.2674897 C486.899876,76.7832973 488.168724,83.7448189 488.168724,91.1522634 C488.168724,94.2386986 488.031551,97.1879146 487.757202,100 L405.144033,100 C405.555558,108.436256 408.659093,115.192019 414.454733,120.26749 C420.250372,125.342961 427.812025,127.880658 437.139918,127.880658 C443.312788,127.880658 448.576796,126.903302 452.932099,124.94856 C457.287402,122.993817 461.5912,119.890282 465.843621,115.63786 L480.967078,130.349794 C474.451271,137.208539 467.524042,142.095322 460.185185,145.010288 C452.846328,147.925255 444.890303,149.382716 436.316872,149.382716 C419.512948,149.382716 405.932836,144.393054 395.576132,134.41358 C385.219427,124.434106 380.041152,111.145488 380.041152,94.5473251 Z M405.761317,82.3045267 L462.44856,82.3045267 C462.44856,75.9944815 459.825129,70.5590077 454.578189,65.9979424 C449.331249,61.4368771 443.038445,59.1563786 435.699588,59.1563786 C427.812032,59.1563786 420.987683,61.4025838 415.226337,65.8950617 C409.464992,70.3875396 406.310016,75.8573066 405.761317,82.3045267 Z M505.041152,143.8107 L505.041152,43.6378601 C505.041152,41.9810058 506.384298,40.6378601 508.041152,40.6378601 L527.041152,40.6378601 C528.698007,40.6378601 530.041152,41.9810058 530.041152,43.6378601 L530.041152,56.3786008 L530.041152,56.3786008 C532.578888,50.8230175 536.60834,46.4506332 542.12963,43.2613169 C547.650919,40.0720005 554.149483,38.4773663 561.625514,38.4773663 C564.643362,38.4773663 567.18106,38.6831255 569.238683,39.0946502 L569.238683,63.5802469 C565.946486,62.8943724 562.448578,62.5514403 558.744856,62.5514403 C549.965663,62.5514403 542.986994,65.1062845 537.808642,70.2160494 C532.63029,75.3258143 530.041152,82.2358961 530.041152,90.9465021 L530.041152,143.8107 C530.041152,145.467554 528.698007,146.8107 527.041152,146.8107 L508.041152,146.8107 C506.384298,146.8107 505.041152,145.467554 505.041152,143.8107 Z M590.123457,122.325103 C584.979398,113.683084 582.407407,104.149572 582.407407,93.7242798 C582.407407,83.2989877 584.996545,73.7654753 590.174897,65.1234568 C595.353249,56.4814383 602.383358,49.7085293 611.265432,44.8045267 C620.147507,39.9005242 629.869632,37.4485597 640.432099,37.4485597 C650.994566,37.4485597 660.699544,39.9005242 669.547325,44.8045267 C678.395106,49.7085293 685.408067,56.4814383 690.58642,65.1234568 C695.764772,73.7654753 698.353909,83.2989877 698.353909,93.7242798 C698.353909,104.149572 695.764772,113.683084 690.58642,122.325103 C685.408067,130.967121 678.395106,137.74003 669.547325,142.644033 C660.699544,147.548035 650.994566,150 640.432099,150 C629.869632,150 620.147507,147.548035 611.265432,142.644033 C602.383358,137.74003 595.336103,130.967121 590.123457,122.325103 Z M616.975309,70.0617284 C610.665263,76.4403611 607.510288,84.3277994 607.510288,93.7242798 C607.510288,103.12076 610.665263,111.008199 616.975309,117.386831 C623.285354,123.765464 631.104206,126.954733 640.432099,126.954733 C649.691404,126.954733 657.475963,123.765464 663.786008,117.386831 C670.096053,111.008199 673.251029,103.12076 673.251029,93.7242798 C673.251029,84.3277994 670.096053,76.4232145 663.786008,70.0102881 C657.475963,63.5973616 649.691404,60.3909465 640.432099,60.3909465 C631.104206,60.3909465 623.285354,63.6145082 616.975309,70.0617284 Z M719.032922,122.325103 C713.888863,113.683084 711.316872,104.080986 711.316872,93.5185185 C711.316872,82.9560514 713.90601,73.3539527 719.084362,64.7119342 C724.262715,56.0699156 731.258529,49.3312999 740.072016,44.4958848 C748.885504,39.6604697 758.573335,37.2427984 769.135802,37.2427984 C786.008315,37.2427984 800.17141,43.3469897 811.625514,55.5555556 L796.090535,71.8106996 C788.545916,64.0603179 779.561095,60.1851852 769.135802,60.1851852 C759.876497,60.1851852 752.109085,63.3573071 745.833333,69.7016461 C739.557582,76.0459851 736.419753,83.9848632 736.419753,93.5185185 C736.419753,103.052174 739.540435,110.973905 745.781893,117.283951 C752.023351,123.593996 759.807909,126.748971 769.135802,126.748971 C779.629682,126.748971 788.614503,122.908132 796.090535,115.226337 L811.625514,131.378601 C800.102823,143.655754 785.939727,149.794239 769.135802,149.794239 C758.573335,149.794239 748.885504,147.376567 740.072016,142.541152 C731.258529,137.705737 724.245568,130.967121 719.032922,122.325103 Z M827.057613,143.8107 L827.057613,3 C827.057613,1.34314575 828.400759,7.48448398e-16 830.057613,0 L849.057613,0 C850.714467,-3.04359188e-16 852.057613,1.34314575 852.057613,3 L852.057613,85.6995885 L852.057613,85.6995885 L890.358246,41.6689401 C890.928013,41.0139323 891.753587,40.6378601 892.621728,40.6378601 L913.752319,40.6378601 C915.409173,40.6378601 916.752319,41.9810058 916.752319,43.6378601 C916.752319,44.3653222 916.48799,45.0680025 916.008532,45.6151058 L878.806584,88.0658436 L878.806584,88.0658436 L920.998058,141.96144 C922.019376,143.266077 921.789701,145.151635 920.485065,146.172953 C919.957211,146.586176 919.306165,146.8107 918.635805,146.8107 L897.553774,146.8107 C896.630278,146.8107 895.758246,146.385369 895.189701,145.657632 L862.654321,104.012346 L862.654321,104.012346 L852.057613,115.843621 L852.057613,143.8107 C852.057613,145.467554 850.714467,146.8107 849.057613,146.8107 L830.057613,146.8107 C828.400759,146.8107 827.057613,145.467554 827.057613,143.8107 Z M930.967078,94.5473251 L930.967078,93.7242798 C930.967078,76.9203549 936.213939,63.374537 946.707819,53.0864198 C957.201699,42.7983025 970.507464,37.654321 986.625514,37.654321 C994.375896,37.654321 1001.54318,39.043196 1008.12757,41.8209877 C1014.71197,44.5987793 1020.25032,48.4053256 1024.7428,53.2407407 C1029.23528,58.0761559 1032.75033,63.7516821 1035.28807,70.2674897 C1037.8258,76.7832973 1039.09465,83.7448189 1039.09465,91.1522634 C1039.09465,94.2386986 1038.95748,97.1879146 1038.68313,100 L956.069959,100 C956.481484,108.436256 959.585019,115.192019 965.380658,120.26749 C971.176298,125.342961 978.737951,127.880658 988.065844,127.880658 C994.238714,127.880658 999.502722,126.903302 1003.85802,124.94856 C1008.21333,122.993817 1012.51713,119.890282 1016.76955,115.63786 L1031.893,130.349794 C1025.3772,137.208539 1018.44997,142.095322 1011.11111,145.010288 C1003.77225,147.925255 995.816229,149.382716 987.242798,149.382716 C970.438873,149.382716 956.858762,144.393054 946.502058,134.41358 C936.145353,124.434106 930.967078,111.145488 930.967078,94.5473251 Z M956.687243,82.3045267 L1013.37449,82.3045267 C1013.37449,75.9944815 1010.75106,70.5590077 1005.50412,65.9979424 C1000.25718,61.4368771 993.964371,59.1563786 986.625514,59.1563786 C978.737958,59.1563786 971.913609,61.4025838 966.152263,65.8950617 C960.390918,70.3875396 957.235942,75.8573066 956.687243,82.3045267 Z M1049.38272,61.5802469 L1049.38272,42.6378601 C1049.38272,41.5332906 1050.27815,40.6378601 1051.38272,40.6378601 L1063.06584,40.6378601 L1063.06584,40.6378601 L1063.06584,2 C1063.06584,0.8954305 1063.96127,1.18396092e-15 1065.06584,0 L1086.37449,0 C1087.47906,-2.02906125e-16 1088.37449,0.8954305 1088.37449,2 L1088.37449,40.6378601 L1088.37449,40.6378601 L1109.31687,40.6378601 C1110.42144,40.6378601 1111.31687,41.5332906 1111.31687,42.6378601 L1111.31687,61.5802469 C1111.31687,62.6848164 1110.42144,63.5802469 1109.31687,63.5802469 L1088.37449,63.5802469 L1088.37449,63.5802469 L1088.37449,144.8107 C1088.37449,145.915269 1087.47906,146.8107 1086.37449,146.8107 L1065.06584,146.8107 C1063.96127,146.8107 1063.06584,145.915269 1063.06584,144.8107 L1063.06584,63.5802469 L1063.06584,63.5802469 L1051.38272,63.5802469 C1050.27815,63.5802469 1049.38272,62.6848164 1049.38272,61.5802469 Z" id="storerocket"></path>
</g>
</g>
<g id="Group">
<circle cx="147" cy="147" fill="url(#linearGradient-1)" id="Oval" r="147"></circle>
<path d="M293.5,147 C293.5,187.454858 277.102429,224.079858 250.591143,250.591143 C224.079858,277.102429 187.454858,293.5 147,293.5 L0.5,293.5 L0.5,147 C0.5,106.545142 16.897571,69.9201421 43.4088566,43.4088566 C69.9201421,16.897571 106.545142,0.5 147,0.5 C187.454858,0.5 224.079858,16.897571 250.591143,43.4088566 C277.102429,69.9201421 293.5,106.545142 293.5,147 Z" fill="url(#linearGradient-1)" id="Rectangle" stroke="#979797"></path>
<path d="M76.6546459,222.968723 C66.4497875,206.837513 63.2827624,194.945161 67.0362736,172.808901 C69.2649208,159.150358 77.0065376,144.549847 82.2849126,136.543114 C77.9449154,168.099059 106.213546,192.825732 125.098399,191.883763 C95.7740933,157.030929 98.1200378,119.352189 119.820024,87.7962451 C130.96326,71.5472887 141.989199,60.1259207 155.126488,52.943411 C145.742711,62.8340801 143.983252,79.7895129 145.390819,92.9770718 C147.267574,110.167997 157.355136,123.355556 167.090805,134.541431 C186.562144,156.324453 204.743214,189.175604 190.315655,219.907326 C181.870255,237.686981 160.639458,257.703811 134.36488,255.819874 C107.503816,254.289176 87.5632877,240.041902 76.6546459,222.968723 Z" fill="#FFFFFF" fill-rule="nonzero" id="Shape" transform="translate(130.511753, 154.443411) scale(1, -1) rotate(-49.000000) translate(-130.511753, -154.443411) "></path>
</g>
</g>
</g>
</g>
</svg>