<?xml version="1.0" encoding="UTF-8"?> <svg xmlns="http://www.w3.org/2000/svg" xmlns:xlink="http://www.w3.org/1999/xlink" width="1040px" height="146px" viewBox="0 0 1040 146" version="1.1"><title>stormglass - logo blue horisontal</title><g id="stormglass---logo-blue-horisontal" stroke="none" stroke-width="1" fill="none" fill-rule="evenodd"><g id="Group" transform="translate(1.000000, 0.000000)" fill="#32435A" fill-rule="nonzero"><g transform="translate(0.000000, 7.000000)" id="Stormglass-logo-Copy"><path d="M58.3931638,0 C62.8114418,0 66.3931638,3.54590478 66.3931638,7.92 L66.393,52.434 L104.982261,30.1656623 C108.78501,27.9711702 113.631581,29.244043 115.805676,33.0096866 C117.979771,36.7753301 116.660867,41.6061778 112.858118,43.80067 L74.178,66.121 L112.858118,88.4433606 C116.660867,90.6378528 117.979771,95.4687005 115.805676,99.2343441 C113.631581,102.999988 108.78501,104.27286 104.982261,102.078368 L66.393,79.809 L66.3931638,124.08 C66.3931638,128.454095 62.8114418,132 58.3931638,132 C53.9748858,132 50.3931638,128.454095 50.3931638,124.08 L50.393,79.847 L11.8709809,102.078368 C8.06823162,104.27286 3.22166118,102.999988 1.04756585,99.2343441 C-1.12652947,95.4687005 0.192375077,90.6378528 3.99512424,88.4433606 L42.674,66.122 L3.99512424,43.80067 C0.192375077,41.6061778 -1.12652947,36.7753301 1.04756585,33.0096866 C3.22166118,29.244043 8.06823162,27.9711702 11.8709809,30.1656623 L50.393,52.396 L50.3931638,7.92 C50.3931638,3.54590478 53.9748858,0 58.3931638,0 Z"></path></g><g transform="translate(158.000000, 0.000000)" id="stormglass.io"><path d="M27.7,113.1 C42.7,113.1 54.85,103.95 54.85,90.45 C54.85,66.45 23.65,67.5 23.65,55.65 C23.65,51.15 26.35,48.15 32.65,48.15 C37.9,48.15 42.55,49.5 47.65,51.75 L52.45,38.4 C45.4,35.25 38.8,33.45 31.45,33.45 C17.95,33.45 6.25,41.85 6.25,55.65 C6.25,80.55 37.45,77.7 37.45,90.15 C37.45,94.95 33.4,98.4 27.1,98.4 C20.65,98.4 14.65,96.15 8.05,93.15 L4,107.1 C12.1,111.3 19.75,113.1 27.7,113.1 Z M97.45,113.1 C102.1,113.1 106.75,112.35 111.4,110.85 L108.4,96.6 C104.95,97.65 101.5,98.25 98.2,98.25 C91.3,98.25 88.75,94.65 88.75,87.3 L88.75,46.95 L106.15,46.95 L106.15,35.4 L88.75,35.4 L88.75,14.1 L71.95,18 L71.95,35.4 L61.9,35.4 L61.9,46.95 L71.95,46.95 L71.95,88.65 C71.95,105.3 82.3,113.1 97.45,113.1 Z M158.5,113.1 C181.9,113.1 197.5,94.8 197.5,73.35 C197.5,51.9 181.6,33.45 158.5,33.45 C135.4,33.45 119.5,51.9 119.5,73.35 C119.5,94.8 135.1,113.1 158.5,113.1 Z M158.5,98.25 C146.5,98.25 136.9,88.05 136.9,73.35 C136.9,58.5 146.65,48.3 158.5,48.3 C170.35,48.3 180.1,58.5 180.1,73.35 C180.1,88.05 170.65,98.25 158.5,98.25 Z M229.6,111.15 L229.6,77.55 C229.6,60.3 238,48.3 253.3,48.3 L253.3,33.45 C241.6,33.45 233.95,38.55 229,46.2 L227.2,35.4 L212.8,36.9 L212.8,111.15 L229.6,111.15 Z M280.75,111.15 L280.75,74.55 C280.75,57 288.1,48.3 296.8,48.3 C305.05,48.3 308.35,55.05 308.35,64.5 L308.35,111.15 L325.15,111.15 L325.15,75.6 C325.15,57.15 332.35,48.3 341.2,48.3 C349.45,48.3 352.75,55.05 352.75,64.5 L352.75,111.15 L369.55,111.15 L369.55,62.25 C369.55,44.4 359.95,33.45 344.8,33.45 C335.2,33.45 326.95,37.5 321.7,46.5 C317.8,38.25 310.3,33.45 300.4,33.45 C291.85,33.45 284.65,36.75 279.55,43.95 L278.35,35.4 L263.95,36.9 L263.95,111.15 L280.75,111.15 Z M420.7,145.95 C443.05,145.95 458.65,131.25 458.65,110.25 L458.65,36.9 L443.35,35.4 L442.45,43.8 C437.05,37.35 429.25,33.45 419.5,33.45 C397.75,33.45 384.1,51.75 384.1,72.3 C384.1,92.85 397.6,111.15 419.5,111.15 C428.95,111.15 436.45,107.55 441.85,101.4 L441.85,108.45 C441.85,121.65 434.8,131.1 420.7,131.1 C412.9,131.1 405.55,129.45 398.05,126 L392.95,139.35 C402.4,144.15 411.25,145.95 420.7,145.95 Z M421.45,96.3 C408.7,96.3 401.5,85.8 401.5,72.3 C401.5,58.65 409,48.3 421.45,48.3 C433.45,48.3 442.9,57.75 442.9,72.3 C442.9,87.75 432.7,96.3 421.45,96.3 Z M498.55,112.95 L500.2,98.4 C495.85,98.4 494.2,96.45 494.2,91.8 L494.2,0 L477.4,3.6 L477.4,93.9 C477.4,108.3 485.8,112.95 498.55,112.95 Z M545.8,113.1 C555.7,113.1 563.5,108.9 568.9,102.15 L570.4,111.15 L584.95,111.15 L584.95,36.9 L568.15,35.4 L568.15,43.35 C562.6,37.2 555.1,33.45 545.8,33.45 C524.5,33.45 510.4,52.2 510.4,73.2 C510.4,93.9 523.9,113.1 545.8,113.1 Z M547.75,98.25 C535,98.25 527.8,86.55 527.8,73.2 C527.8,59.25 535.6,48.3 547.75,48.3 C559.75,48.3 569.2,58.2 569.2,73.05 C569.2,88.95 559,98.25 547.75,98.25 Z M622,113.1 C637,113.1 649.15,103.95 649.15,90.45 C649.15,66.45 617.95,67.5 617.95,55.65 C617.95,51.15 620.65,48.15 626.95,48.15 C632.2,48.15 636.85,49.5 641.95,51.75 L646.75,38.4 C639.7,35.25 633.1,33.45 625.75,33.45 C612.25,33.45 600.55,41.85 600.55,55.65 C600.55,80.55 631.75,77.7 631.75,90.15 C631.75,94.95 627.7,98.4 621.4,98.4 C614.95,98.4 608.95,96.15 602.35,93.15 L598.3,107.1 C606.4,111.3 614.05,113.1 622,113.1 Z M681.55,113.1 C696.55,113.1 708.7,103.95 708.7,90.45 C708.7,66.45 677.5,67.5 677.5,55.65 C677.5,51.15 680.2,48.15 686.5,48.15 C691.75,48.15 696.4,49.5 701.5,51.75 L706.3,38.4 C699.25,35.25 692.65,33.45 685.3,33.45 C671.8,33.45 660.1,41.85 660.1,55.65 C660.1,80.55 691.3,77.7 691.3,90.15 C691.3,94.95 687.25,98.4 680.95,98.4 C674.5,98.4 668.5,96.15 661.9,93.15 L657.85,107.1 C665.95,111.3 673.6,113.1 681.55,113.1 Z M734.2,112.95 C740.35,112.95 745.3,108 745.3,102 C745.3,95.85 740.35,91.05 734.2,91.05 C728.05,91.05 723.25,95.85 723.25,102 C723.25,108 728.05,112.95 734.2,112.95 Z M772.9,22.2 C778.45,22.2 783.25,17.85 783.25,12.15 C783.25,6.45 778.15,2.4 772.9,2.4 C767.5,2.4 762.85,6.45 762.85,12.15 C762.85,17.85 767.05,22.2 772.9,22.2 Z M781.3,111.15 L781.3,35.4 L764.5,35.4 L764.5,111.15 L781.3,111.15 Z M835.6,113.1 C859,113.1 874.6,94.8 874.6,73.35 C874.6,51.9 858.7,33.45 835.6,33.45 C812.5,33.45 796.6,51.9 796.6,73.35 C796.6,94.8 812.2,113.1 835.6,113.1 Z M835.6,98.25 C823.6,98.25 814,88.05 814,73.35 C814,58.5 823.75,48.3 835.6,48.3 C847.45,48.3 857.2,58.5 857.2,73.35 C857.2,88.05 847.75,98.25 835.6,98.25 Z"></path></g></g></g></svg> 