<svg xmlns="http://www.w3.org/2000/svg" xmlns:xlink="http://www.w3.org/1999/xlink" viewBox="0 0 600 600" width="600" height="600" preserveAspectRatio="xMidYMid meet" style="width: 100%; height: 100%; transform: translate3d(0px, 0px, 0px); content-visibility: visible;"><defs><clipPath id="__lottie_element_224"><rect width="600" height="600" x="0" y="0"></rect></clipPath><clipPath id="__lottie_element_226"><path d="M0,0 L1920,0 L1920,1920 L0,1920z"></path></clipPath><clipPath id="__lottie_element_232"><path d="M0,0 L145,0 L145,193 L0,193z"></path></clipPath><clipPath id="__lottie_element_237"><path d="M0,0 L138,0 L138,191 L0,191z"></path></clipPath><clipPath id="__lottie_element_245"><path d="M0,0 L153,0 L153,303 L0,303z"></path></clipPath><clipPath id="__lottie_element_249"><path d="M0,0 L145,0 L145,193 L0,193z"></path></clipPath><g id="__lottie_element_252"><g transform="matrix(1,0,0,1,473,-325)" opacity="1" style="display: block;"><g opacity="1" transform="matrix(0.6039899587631226,0,0,0.6039899587631226,-455.2288513183594,375.05596923828125)"><g opacity="1" transform="matrix(1,0,0,1,90.49299621582031,78.4020004272461)"><path fill="rgb(0,0,0)" fill-opacity="1" d=" M0,-78.1520004272461 C0,-78.1520004272461 -90.24299621582031,78.1520004272461 -90.24299621582031,78.1520004272461 C-90.24299621582031,78.1520004272461 90.24299621582031,78.1520004272461 90.24299621582031,78.1520004272461 C90.24299621582031,78.1520004272461 0,-78.1520004272461 0,-78.1520004272461 C0,-78.1520004272461 0,-78.1520004272461 0,-78.1520004272461z"></path></g></g></g></g><mask id="__lottie_element_252_1" mask-type="alpha"><use xlink:href="#__lottie_element_252"></use></mask><clipPath id="__lottie_element_262"><path d="M0,0 L138,0 L138,191 L0,191z"></path></clipPath><g id="__lottie_element_265"><g transform="matrix(1,0,0,1,576,-327)" opacity="1" style="display: block;"><g opacity="1" transform="matrix(0,0,0,0,-506.91400146484375,465.7770080566406)"><g opacity="1" transform="matrix(1,0,0,1,80.80699920654297,80.80699920654297)"><path fill="rgb(0,0,0)" fill-opacity="1" d=" M34.946998596191406,8.687999725341797 C34.946998596191406,8.687999725341797 79.03500366210938,8.649999618530273 79.03500366210938,8.649999618530273 C79.8759994506836,8.64900016784668 80.55599975585938,7.9670000076293945 80.55599975585938,7.125999927520752 C80.55599975585938,7.125999927520752 80.55599975585938,-7.125999927520752 80.55599975585938,-7.125999927520752 C80.55599975585938,-7.9670000076293945 79.8759994506836,-8.64900016784668 79.03500366210938,-8.649999618530273 C79.03500366210938,-8.649999618530273 34.96699905395508,-8.687000274658203 34.96699905395508,-8.687000274658203 C34.65299987792969,-8.687000274658203 34.44599914550781,-8.687999725341797 34.310001373291016,-9.194000244140625 C34.17499923706055,-9.697999954223633 34.354000091552734,-9.802000045776367 34.625999450683594,-9.960000038146973 C34.625999450683594,-9.960000038146973 72.77100372314453,-32.0260009765625 72.77100372314453,-32.0260009765625 C73.4990005493164,-32.446998596191406 73.74800109863281,-33.37900161743164 73.3270034790039,-34.106998443603516 C73.3270034790039,-34.106998443603516 66.20099639892578,-46.45000076293945 66.20099639892578,-46.45000076293945 C65.78099822998047,-47.178001403808594 64.8499984741211,-47.428001403808594 64.12100219726562,-47.007999420166016 C64.12100219726562,-47.007999420166016 25.92099952697754,-24.996999740600586 25.92099952697754,-24.996999740600586 C25.639999389648438,-24.834999084472656 25.469999313354492,-24.738000869750977 25.104000091552734,-25.104999542236328 C24.738000869750977,-25.47100067138672 24.834999084472656,-25.641000747680664 24.996999740600586,-25.92099952697754 C24.996999740600586,-25.92099952697754 47.007999420166016,-64.12000274658203 47.007999420166016,-64.12000274658203 C47.428001403808594,-64.8489990234375 47.178001403808594,-65.77999877929688 46.44900131225586,-66.20099639892578 C46.44900131225586,-66.20099639892578 34.106998443603516,-73.3270034790039 34.106998443603516,-73.3270034790039 C33.37900161743164,-73.74700164794922 32.446998596191406,-73.49800109863281 32.0260009765625,-72.7699966430664 C32.0260009765625,-72.7699966430664 9.960000038146973,-34.625999450683594 9.960000038146973,-34.625999450683594 C9.803000450134277,-34.35300064086914 9.697999954223633,-34.172000885009766 9.194000244140625,-34.308998107910156 C8.689000129699707,-34.44499969482422 8.689000129699707,-34.652000427246094 8.687999725341797,-34.96799850463867 C8.687999725341797,-34.96799850463867 8.649999618530273,-79.03399658203125 8.649999618530273,-79.03399658203125 C8.649999618530273,-79.875 7.9670000076293945,-80.55699920654297 7.125999927520752,-80.55699920654297 C7.125999927520752,-80.55699920654297 -7.125999927520752,-80.55699920654297 -7.125999927520752,-80.55699920654297 C-7.9670000076293945,-80.55699920654297 -8.64900016784668,-79.875 -8.649999618530273,-79.03399658203125 C-8.649999618530273,-79.03399658203125 -8.689000129699707,-34.94599914550781 -8.689000129699707,-34.94599914550781 C-8.689000129699707,-34.62300109863281 -8.687999725341797,-34.428001403808594 -9.189000129699707,-34.292999267578125 C-9.690999984741211,-34.15999984741211 -9.786999702453613,-34.32899856567383 -9.949000358581543,-34.608001708984375 C-9.949000358581543,-34.608001708984375 -32.0260009765625,-72.7699966430664 -32.0260009765625,-72.7699966430664 C-32.446998596191406,-73.49800109863281 -33.37900161743164,-73.74700164794922 -34.108001708984375,-73.3270034790039 C-34.108001708984375,-73.3270034790039 -46.45100021362305,-66.20099639892578 -46.45100021362305,-66.20099639892578 C-47.17900085449219,-65.77999877929688 -47.42900085449219,-64.8489990234375 -47.00899887084961,-64.12000274658203 C-47.00899887084961,-64.12000274658203 -25.007999420166016,-25.93899917602539 -25.007999420166016,-25.93899917602539 C-24.85099983215332,-25.666000366210938 -24.746000289916992,-25.486000061035156 -25.115999221801758,-25.115999221801758 C-25.485000610351562,-24.746000289916992 -25.666000366210938,-24.850000381469727 -25.93899917602539,-25.007999420166016 C-25.93899917602539,-25.007999420166016 -65.4209976196289,-47.757999420166016 -65.4209976196289,-47.757999420166016 C-65.4209976196289,-47.757999420166016 -65.44000244140625,-47.768001556396484 -65.44000244140625,-47.768001556396484 C-65.44000244140625,-47.768001556396484 -73.3270034790039,-34.106998443603516 -73.3270034790039,-34.106998443603516 C-73.74700164794922,-33.37900161743164 -73.4990005493164,-32.446998596191406 -72.77100372314453,-32.0260009765625 C-72.77100372314453,-32.0260009765625 -34.608001708984375,-9.949000358581543 -34.608001708984375,-9.949000358581543 C-34.32899856567383,-9.786999702453613 -34.15999984741211,-9.6899995803833 -34.29399871826172,-9.189000129699707 C-34.428001403808594,-8.687999725341797 -34.624000549316406,-8.687000274658203 -34.946998596191406,-8.687000274658203 C-34.946998596191406,-8.687000274658203 -79.03500366210938,-8.649999618530273 -79.03500366210938,-8.649999618530273 C-79.8759994506836,-8.64900016784668 -80.55599975585938,-7.9670000076293945 -80.55599975585938,-7.125999927520752 C-80.55599975585938,-7.125999927520752 -80.55599975585938,7.125999927520752 -80.55599975585938,7.125999927520752 C-80.55599975585938,7.9670000076293945 -79.8759994506836,8.64900016784668 -79.03500366210938,8.649999618530273 C-79.03500366210938,8.649999618530273 -34.96900177001953,8.687999725341797 -34.96900177001953,8.687999725341797 C-34.65399932861328,8.687999725341797 -34.44499969482422,8.689000129699707 -34.308998107910156,9.192999839782715 C-34.17399978637695,9.699000358581543 -34.354000091552734,9.803000450134277 -34.625999450683594,9.961000442504883 C-34.625999450683594,9.961000442504883 -74.06999969482422,32.77899932861328 -74.06999969482422,32.77899932861328 C-74.06999969482422,32.77899932861328 -74.08899688720703,32.78900146484375 -74.08899688720703,32.78900146484375 C-74.08899688720703,32.78900146484375 -66.2020034790039,46.45000076293945 -66.2020034790039,46.45000076293945 C-65.78099822998047,47.17900085449219 -64.8499984741211,47.42900085449219 -64.12100219726562,47.00899887084961 C-64.12100219726562,47.00899887084961 -25.922000885009766,24.996999740600586 -25.922000885009766,24.996999740600586 C-25.642000198364258,24.836000442504883 -25.472000122070312,24.73699951171875 -25.104999542236328,25.104999542236328 C-24.738000869750977,25.472000122070312 -24.836000442504883,25.639999389648438 -24.996999740600586,25.92099952697754 C-24.996999740600586,25.92099952697754 -47.75400161743164,65.41300201416016 -47.75400161743164,65.41300201416016 C-47.75400161743164,65.41300201416016 -47.768001556396484,65.44000244140625 -47.768001556396484,65.44000244140625 C-47.768001556396484,65.44000244140625 -34.108001708984375,73.3270034790039 -34.108001708984375,73.3270034790039 C-33.37900161743164,73.74800109863281 -32.446998596191406,73.4990005493164 -32.0260009765625,72.77100372314453 C-32.0260009765625,72.77100372314453 -9.960000038146973,34.62699890136719 -9.960000038146973,34.62699890136719 C-9.803000450134277,34.35499954223633 -9.696999549865723,34.17499923706055 -9.194000244140625,34.310001373291016 C-8.689000129699707,34.44499969482422 -8.689000129699707,34.65299987792969 -8.687999725341797,34.96799850463867 C-8.687999725341797,34.96799850463867 -8.649999618530273,79.03500366210938 -8.649999618530273,79.03500366210938 C-8.64900016784668,79.8759994506836 -7.9670000076293945,80.55699920654297 -7.125999927520752,80.55699920654297 C-7.125999927520752,80.55699920654297 7.125999927520752,80.55699920654297 7.125999927520752,80.55699920654297 C7.9670000076293945,80.55699920654297 8.649999618530273,79.8759994506836 8.649999618530273,79.03500366210938 C8.649999618530273,79.03500366210938 8.687999725341797,34.94599914550781 8.687999725341797,34.94599914550781 C8.689000129699707,34.62300109863281 8.689000129699707,34.428001403808594 9.189000129699707,34.29399871826172 C9.6899995803833,34.1619987487793 9.786999702453613,34.32899856567383 9.949000358581543,34.60900115966797 C9.949000358581543,34.60900115966797 32.0260009765625,72.77100372314453 32.0260009765625,72.77100372314453 C32.446998596191406,73.4990005493164 33.37900161743164,73.74800109863281 34.106998443603516,73.3270034790039 C34.106998443603516,73.3270034790039 46.44900131225586,66.20099639892578 46.44900131225586,66.20099639892578 C47.178001403808594,65.78099822998047 47.428001403808594,64.8489990234375 47.00899887084961,64.12100219726562 C47.00899887084961,64.12100219726562 25.007999420166016,25.93899917602539 25.007999420166016,25.93899917602539 C24.85099983215332,25.666000366210938 24.746999740600586,25.486000061035156 25.117000579833984,25.117000579833984 C25.486000061035156,24.746999740600586 25.66699981689453,24.850000381469727 25.93899917602539,25.007999420166016 C25.93899917602539,25.007999420166016 64.12100219726562,47.00899887084961 64.12100219726562,47.00899887084961 C64.8499984741211,47.42900085449219 65.78099822998047,47.17900085449219 66.20099639892578,46.45000076293945 C66.20099639892578,46.45000076293945 73.3270034790039,34.108001708984375 73.3270034790039,34.108001708984375 C73.74800109863281,33.37900161743164 73.4990005493164,32.448001861572266 72.77100372314453,32.027000427246094 C72.77100372314453,32.027000427246094 34.608001708984375,9.949000358581543 34.608001708984375,9.949000358581543 C34.327999114990234,9.788000106811523 34.159000396728516,9.6899995803833 34.29399871826172,9.189000129699707 C34.428001403808594,8.689000129699707 34.624000549316406,8.687999725341797 34.946998596191406,8.687999725341797 C34.946998596191406,8.687999725341797 34.946998596191406,8.687999725341797 34.946998596191406,8.687999725341797z"></path></g></g></g></g><mask id="__lottie_element_265_1" mask-type="alpha"><use xlink:href="#__lottie_element_265"></use></mask><clipPath id="__lottie_element_275"><path d="M0,0 L153,0 L153,303 L0,303z"></path></clipPath><g id="__lottie_element_278"><g transform="matrix(1,0,0,1,587,-182)" opacity="1" style="display: block;"><g opacity="1" transform="matrix(0.75,0,0,0.75,-561.2890014648438,336.61376953125)"><g opacity="1" transform="matrix(1,0,0,1,72.10800170898438,89.5510025024414)"><path fill="rgb(0,0,0)" fill-opacity="1" d=" M-33.04499816894531,83.23100280761719 C-42.67900085449219,79.18399810791016 -50.650001525878906,73.51699829101562 -56.9640007019043,66.23300170898438 C-63.277000427246094,58.948001861572266 -68.1760025024414,50.24800109863281 -71.65499877929688,40.12799835205078 C-71.81800079345703,39.7239990234375 -71.85800170898438,39.380001068115234 -71.7760009765625,39.09600067138672 C-71.69599914550781,38.8129997253418 -71.55500030517578,38.57099914550781 -71.35199737548828,38.36800003051758 C-71.1500015258789,38.16699981689453 -70.84700012207031,38.02399826049805 -70.44100189208984,37.94300079345703 C-70.44100189208984,37.94300079345703 -38.87300109863281,28.472000122070312 -38.87300109863281,28.472000122070312 C-38.54999923706055,28.392000198364258 -38.22600173950195,28.35099983215332 -37.9010009765625,28.35099983215332 C-37.57899856567383,28.35099983215332 -37.275001525878906,28.45400047302246 -36.99100112915039,28.655000686645508 C-36.70800018310547,28.85700035095215 -36.5260009765625,29.160999298095703 -36.444000244140625,29.565000534057617 C-33.69300079345703,38.22700119018555 -28.99799919128418,45.10599899291992 -22.360000610351562,50.20600128173828 C-15.723999977111816,55.30500030517578 -7.75,57.85499954223633 1.559000015258789,57.85499954223633 C7.304999828338623,57.85499954223633 12.526000022888184,57.08599853515625 17.222000122070312,55.54800033569336 C21.915000915527344,54.01100158691406 25.65999984741211,51.64400100708008 28.45199966430664,48.44499969482422 C31.2450008392334,45.249000549316406 32.64099884033203,41.42300033569336 32.64099884033203,36.97100067138672 C32.64099884033203,32.599998474121094 31.284000396728516,29.040000915527344 28.572999954223633,26.28700065612793 C25.860000610351562,23.535999298095703 21.915000915527344,21.51099967956543 16.735000610351562,20.215999603271484 C16.735000610351562,20.215999603271484 -24.788000106811523,10.137999534606934 -24.788000106811523,10.137999534606934 C-34.18000030517578,7.874000072479248 -42.111000061035156,4.372000217437744 -48.58599853515625,-0.36399999260902405 C-55.0629997253418,-5.098999977111816 -59.89899826049805,-10.684000015258789 -63.095001220703125,-17.1200008392334 C-66.29399871826172,-23.554000854492188 -67.89099884033203,-30.415000915527344 -67.89099884033203,-37.70000076293945 C-67.89099884033203,-47.81700134277344 -64.95800018310547,-56.78099822998047 -59.0880012512207,-64.59300231933594 C-53.22100067138672,-72.40299987792969 -45.207000732421875,-78.4739990234375 -35.04800033569336,-82.80500030517578 C-24.891000747680664,-87.13400268554688 -13.57800006866455,-89.3010025024414 -1.1119999885559082,-89.3010025024414 C10.461999893188477,-89.3010025024414 20.924999237060547,-87.43800354003906 30.273000717163086,-83.71499633789062 C39.62200164794922,-79.99199676513672 47.472999572753906,-74.79100036621094 53.827999114990234,-68.11399841308594 C60.18199920654297,-61.43600082397461 64.8949966430664,-53.683998107910156 67.9729995727539,-44.862998962402344 C68.13500213623047,-44.457000732421875 68.17400360107422,-44.11399841308594 68.09500122070312,-43.83100128173828 C68.01300048828125,-43.54600143432617 67.85099792480469,-43.28499984741211 67.60800170898438,-43.04100036621094 C67.36599731445312,-42.79800033569336 67.08100128173828,-42.6349983215332 66.75900268554688,-42.555999755859375 C66.75900268554688,-42.555999755859375 36.5260009765625,-32.356998443603516 36.5260009765625,-32.356998443603516 C36.20199966430664,-32.194000244140625 35.87799835205078,-32.15399932861328 35.55500030517578,-32.236000061035156 C35.22999954223633,-32.314998626708984 34.948001861572266,-32.457000732421875 34.70500183105469,-32.6609992980957 C34.46200180053711,-32.86199951171875 34.29899978637695,-33.125 34.220001220703125,-33.45000076293945 C32.76300048828125,-37.73899841308594 30.59600067138672,-41.74599838256836 27.724000930786133,-45.470001220703125 C24.850000381469727,-49.19200134277344 21.024999618530273,-52.22700119018555 16.25,-54.57600021362305 C11.472999572753906,-56.922000885009766 5.8480000495910645,-58.09700012207031 -0.6269999742507935,-58.09700012207031 C-5.889999866485596,-58.09700012207031 -10.644000053405762,-57.26599884033203 -14.894000053405762,-55.608001708984375 C-19.14299964904785,-53.948001861572266 -22.48200035095215,-51.680999755859375 -24.90999984741211,-48.808998107910156 C-27.33799934387207,-45.935001373291016 -28.55299949645996,-42.71699905395508 -28.55299949645996,-39.15700149536133 C-28.55299949645996,-35.108001708984375 -27.076000213623047,-31.729000091552734 -24.121000289916992,-29.01799964904785 C-21.16699981689453,-26.30500030517578 -17.423999786376953,-24.382999420166016 -12.890000343322754,-23.25 C-12.890000343322754,-23.25 28.027000427246094,-13.538000106811523 28.027000427246094,-13.538000106811523 C36.930999755859375,-11.432000160217285 44.64099884033203,-8.274999618530273 51.15700149536133,-4.066999912261963 C57.672000885009766,0.1420000046491623 62.75199890136719,5.464000225067139 66.39399719238281,11.89900016784668 C70.03700256347656,18.334999084472656 71.85800170898438,25.76099967956543 71.85800170898438,34.17900085449219 C71.85800170898438,45.3489990234375 68.74099731445312,55.104000091552734 62.5099983215332,63.439998626708984 C56.275001525878906,71.77799987792969 47.757999420166016,78.1729965209961 36.95100021362305,82.6240005493164 C26.145000457763672,87.0739974975586 14.064000129699707,89.3010025024414 0.7089999914169312,89.3010025024414 C-12.16100025177002,89.3010025024414 -23.413000106811523,87.2770004272461 -33.04499816894531,83.23100280761719 C-33.04499816894531,83.23100280761719 -33.04499816894531,83.23100280761719 -33.04499816894531,83.23100280761719z"></path></g></g></g></g><mask id="__lottie_element_278_1" mask-type="alpha"><use xlink:href="#__lottie_element_278"></use></mask></defs><g clip-path="url(#__lottie_element_224)"><g clip-path="url(#__lottie_element_226)" transform="matrix(1,0,0,1,-664.1076049804688,-649.7556762695312)" opacity="1" style="display: block;"><g clip-path="url(#__lottie_element_232)" transform="matrix(1.7999999523162842,0,0,1.7999999523162842,922.3024291992188,903.1023559570312)" opacity="1" style="display: block;"><g mask="url(#__lottie_element_252_1)" style="display: block;"><g clip-path="url(#__lottie_element_249)" transform="matrix(1,0,0,1,0,0)" opacity="1"><g transform="matrix(1,0,0,1,473,-325)" opacity="1" style="display: block;"><path fill="rgb(0,0,0)" fill-opacity="0" d=" M-328,325 C-328,325 -328,518 -328,518 C-328,518 -473,518 -473,518 C-473,518 -473,325 -473,325 C-473,325 -328,325 -328,325z"></path></g><g transform="matrix(1,0,0,1,473,-325)" opacity="1" style="display: block;"><g opacity="1" transform="matrix(1,0,0,1,-400.5719909667969,433.7904052734375)"><path fill="rgb(255,222,59)" fill-opacity="1" d=" M72.10420227050781,-108.72380065917969 C72.10420227050781,-108.72380065917969 72.10420227050781,108.72380065917969 72.10420227050781,108.72380065917969 C72.10420227050781,108.72380065917969 -72.10420227050781,108.72380065917969 -72.10420227050781,108.72380065917969 C-72.10420227050781,108.72380065917969 -72.10420227050781,-108.72380065917969 -72.10420227050781,-108.72380065917969 C-72.10420227050781,-108.72380065917969 72.10420227050781,-108.72380065917969 72.10420227050781,-108.72380065917969z"></path></g></g></g></g></g><g clip-path="url(#__lottie_element_237)" transform="matrix(1.7999999523162842,0,0,1.7999999523162842,736.9024047851562,906.702392578125)" opacity="1" style="display: block;"><g mask="url(#__lottie_element_265_1)" style="display: block;"><g clip-path="url(#__lottie_element_262)" transform="matrix(1,0,0,1,0,0)" opacity="1"><g transform="matrix(1,0,0,1,576,-327)" opacity="1" style="display: block;"><path fill="rgb(0,0,0)" fill-opacity="0" d=" M-438,327 C-438,327 -438,518 -438,518 C-438,518 -576,518 -576,518 C-576,518 -576,327 -576,327 C-576,327 -438,327 -438,327z"></path></g><g transform="matrix(1,0,0,1,576,-327)" opacity="1" style="display: block;"><g opacity="1" transform="matrix(1,0,0,1,-506.91400146484375,430.87713623046875)"><path fill="rgb(252,136,255)" fill-opacity="1" d=" M68.80901336669922,-103.70887756347656 C68.80901336669922,-103.70887756347656 68.80901336669922,103.70887756347656 68.80901336669922,103.70887756347656 C68.80901336669922,103.70887756347656 -68.80901336669922,103.70887756347656 -68.80901336669922,103.70887756347656 C-68.80901336669922,103.70887756347656 -68.80901336669922,-103.70887756347656 -68.80901336669922,-103.70887756347656 C-68.80901336669922,-103.70887756347656 68.80901336669922,-103.70887756347656 68.80901336669922,-103.70887756347656z"></path></g></g></g></g></g><g transform="matrix(1.7999999523162842,0,0,1.7999999523162842,1773.702392578125,318.1023864746094)" opacity="1" style="display: block;"><g opacity="1" transform="matrix(0.7407662272453308,0.11732584983110428,-0.11732584983110428,0.7407662272453308,-442.5782775878906,237.15716552734375)"><g opacity="1" transform="matrix(1,0,0,1,72.67400360107422,85.84700012207031)"><path fill="rgb(0,0,0)" fill-opacity="1" d=" M-71.87899780273438,-85.0510025024414 C-71.51499938964844,-85.41500091552734 -71.08999633789062,-85.5979995727539 -70.6050033569336,-85.5979995727539 C-70.6050033569336,-85.5979995727539 70.60199737548828,-85.5979995727539 70.60199737548828,-85.5979995727539 C71.08799743652344,-85.5979995727539 71.51399993896484,-85.41500091552734 71.87799835205078,-85.0510025024414 C72.24199676513672,-84.68699645996094 72.42400360107422,-84.26200103759766 72.42400360107422,-83.7760009765625 C72.42400360107422,-83.7760009765625 72.42400360107422,-54.757999420166016 72.42400360107422,-54.757999420166016 C72.42400360107422,-54.27199935913086 72.24199676513672,-53.84700012207031 71.87799835205078,-53.483001708984375 C71.51399993896484,-53.11800003051758 71.08799743652344,-52.9370002746582 70.60199737548828,-52.9370002746582 C70.60199737548828,-52.9370002746582 56.395999908447266,-52.9370002746582 56.395999908447266,-52.9370002746582 C49.354000091552734,-52.9370002746582 43.04100036621094,-51.35900115966797 37.45600128173828,-48.20199966430664 C31.871000289916992,-45.04499816894531 27.479000091552734,-40.67300033569336 24.283000946044922,-35.0880012512207 C21.084999084472656,-29.503000259399414 19.486000061035156,-23.190000534057617 19.486000061035156,-16.148000717163086 C19.486000061035156,-16.148000717163086 19.486000061035156,83.7770004272461 19.486000061035156,83.7770004272461 C19.486000061035156,84.10099792480469 19.40399932861328,84.40499877929688 19.243000030517578,84.68800354003906 C19.079999923706055,84.97200012207031 18.857999801635742,85.19300079345703 18.576000213623047,85.3550033569336 C18.291000366210938,85.51799774169922 17.98699951171875,85.5979995727539 17.665000915527344,85.5979995727539 C17.665000915527344,85.5979995727539 -17.788000106811523,85.5979995727539 -17.788000106811523,85.5979995727539 C-18.11199951171875,85.5979995727539 -18.416000366210938,85.51799774169922 -18.698999404907227,85.3550033569336 C-18.982999801635742,85.19300079345703 -19.204999923706055,84.97200012207031 -19.365999221801758,84.68800354003906 C-19.530000686645508,84.40499877929688 -19.608999252319336,84.10099792480469 -19.608999252319336,83.7770004272461 C-19.608999252319336,83.7770004272461 -19.608999252319336,-16.148000717163086 -19.608999252319336,-16.148000717163086 C-19.608999252319336,-23.190000534057617 -21.187999725341797,-29.503000259399414 -24.344999313354492,-35.0880012512207 C-27.50200080871582,-40.67300033569336 -31.871999740600586,-45.04499816894531 -37.45800018310547,-48.20199966430664 C-43.042999267578125,-51.35900115966797 -49.35599899291992,-52.9370002746582 -56.39799880981445,-52.9370002746582 C-56.39799880981445,-52.9370002746582 -70.6050033569336,-52.9370002746582 -70.6050033569336,-52.9370002746582 C-71.08999633789062,-52.9370002746582 -71.51499938964844,-53.11800003051758 -71.87899780273438,-53.483001708984375 C-72.24299621582031,-53.84700012207031 -72.42400360107422,-54.27199935913086 -72.42400360107422,-54.757999420166016 C-72.42400360107422,-54.757999420166016 -72.42400360107422,-83.7760009765625 -72.42400360107422,-83.7760009765625 C-72.42400360107422,-84.26200103759766 -72.24299621582031,-84.68699645996094 -71.87899780273438,-85.0510025024414 C-71.87899780273438,-85.0510025024414 -71.87899780273438,-85.0510025024414 -71.87899780273438,-85.0510025024414z"></path></g></g></g><g clip-path="url(#__lottie_element_245)" transform="matrix(1.7999999523162842,0,0,1.7999999523162842,717.1024169921875,645.702392578125)" opacity="1" style="display: block;"><g mask="url(#__lottie_element_278_1)" style="display: block;"><g clip-path="url(#__lottie_element_275)" transform="matrix(1,0,0,1,0,0)" opacity="1"><g transform="matrix(1,0,0,1,587,-182)" opacity="1" style="display: block;"><path fill="rgb(0,0,0)" fill-opacity="0" d=" M-434,182 C-434,182 -434,485 -434,485 C-434,485 -587,485 -587,485 C-587,485 -587,182 -587,182 C-587,182 -434,182 -434,182z"></path></g><g transform="matrix(1,0,0,1,587,-182)" opacity="1" style="display: block;"><g opacity="1" transform="matrix(1,0,0,1,-510.3383483886719,304.33251953125)"><path fill="rgb(0,0,0)" fill-opacity="1" d=" M75.89280700683594,-180.31732177734375 C75.89280700683594,-180.31732177734375 75.89280700683594,180.31732177734375 75.89280700683594,180.31732177734375 C75.89280700683594,180.31732177734375 -75.89280700683594,180.31732177734375 -75.89280700683594,180.31732177734375 C-75.89280700683594,180.31732177734375 -75.89280700683594,-180.31732177734375 -75.89280700683594,-180.31732177734375 C-75.89280700683594,-180.31732177734375 75.89280700683594,-180.31732177734375 75.89280700683594,-180.31732177734375z"></path></g></g></g></g></g></g></g></svg>