<?xml version="1.0" encoding="UTF-8"?>
<svg width="254px" height="70px" viewBox="0 0 254 70" version="1.1" xmlns="http://www.w3.org/2000/svg" xmlns:xlink="http://www.w3.org/1999/xlink">
    <!-- Generator: Sketch 48.2 (47327) - http://www.bohemiancoding.com/sketch -->
    <title>SupportBee</title>
    <desc>Created with Sketch.</desc>
    <defs></defs>
    <g id="Page-1" stroke="none" stroke-width="1" fill="none" fill-rule="evenodd">
        <g id="SupportBee" fill="#1A1919">
            <path d="M88.2755,40.5973 C88.2058,38.9212 87.7551,37.4676 86.9302,36.2235 C86.1047,34.9859 84.9493,34.021 83.464,33.3355 C81.9849,32.6498 80.2203,32.3071 78.1825,32.2941 C76.6209,32.3009 75.2563,32.4973 74.0884,32.8783 C72.9202,33.259 71.9488,33.7925 71.1746,34.4717 C70.3999,35.1574 69.816,35.9505 69.4288,36.8582 C69.0416,37.7596 68.8511,38.7435 68.8511,39.7974 C68.8511,40.8831 68.9906,41.8159 69.27,42.6094 C69.5493,43.4031 69.975,44.0822 70.5524,44.6534 C71.1301,45.2249 71.8603,45.7201 72.7425,46.1391 C73.6249,46.5577 74.6723,46.9325 75.8782,47.269 C77.0906,47.6054 78.4682,47.9289 80.0105,48.2529 C80.8173,48.4241 81.4772,48.6146 81.9914,48.8368 C82.5056,49.0525 82.9053,49.3 83.1848,49.573 C83.4705,49.8525 83.6669,50.1569 83.7749,50.4999 C83.8892,50.8426 83.9399,51.2236 83.9337,51.6425 C83.9337,52.3342 83.7372,52.9312 83.3497,53.4329 C82.9563,53.9406 82.3848,54.3337 81.6297,54.6132 C80.8674,54.8862 79.9346,55.0262 78.8302,55.0325 C77.7955,55.0262 76.8683,54.8547 76.0559,54.512 C75.2435,54.169 74.6026,53.6866 74.1261,53.0644 C73.6501,52.4359 73.4027,51.6995 73.3834,50.8426 L68.2799,50.8426 C68.3751,53.6293 69.3591,55.7307 71.2254,57.1525 C73.0977,58.5809 75.8595,59.2915 79.5159,59.2978 C80.8297,59.2978 82.0611,59.1266 83.21,58.7901 C84.3591,58.4471 85.3745,57.9525 86.251,57.3047 C87.1331,56.6511 87.8186,55.8511 88.3138,54.912 C88.8155,53.9658 89.0692,52.8929 89.0754,51.6805 C89.0754,50.6773 88.9737,49.8142 88.7772,49.0908 C88.5805,48.3609 88.3075,47.7511 87.9521,47.2497 C87.5963,46.7485 87.1776,46.323 86.6949,45.9866 C86.219,45.6501 85.6923,45.3644 85.1146,45.1294 C84.4603,44.8502 83.7559,44.5965 83.007,44.3552 C82.2643,44.1137 81.4457,43.879 80.5568,43.644 C79.6678,43.4155 78.6839,43.1746 77.611,42.9206 C76.2467,42.5969 75.2497,42.1845 74.6213,41.6765 C73.9929,41.1685 73.6822,40.5528 73.6884,39.8357 C73.6946,38.807 74.0753,38.0328 74.8373,37.5186 C75.599,37.0044 76.7101,36.7502 78.1825,36.7502 C79.7951,36.7502 81.0075,37.0679 81.8323,37.7026 C82.6516,38.3373 83.1213,39.3022 83.2483,40.5973 L88.2755,40.5973 Z M107.167,58.4222 L107.167,39.6832 L102.2537,39.6832 L102.2537,50.4999 C102.2537,51.3316 102.1074,52.068 101.8155,52.7089 C101.5238,53.3436 101.0918,53.8453 100.5206,54.207 C99.9491,54.5753 99.2447,54.7595 98.4065,54.7657 C97.3594,54.7657 96.5722,54.48 96.039,53.9023 C95.5123,53.3187 95.2456,52.4422 95.2456,51.2618 L95.2456,39.6832 L90.294,39.6832 L90.294,52.0235 C90.3071,53.4009 90.5798,54.607 91.1133,55.6416 C91.6527,56.6698 92.3954,57.4697 93.3475,58.0409 C94.2994,58.6186 95.4043,58.9111 96.655,58.9174 C97.9496,58.9174 99.086,58.6631 100.0571,58.1554 C101.0283,57.6412 101.8345,56.8543 102.4822,55.7942 L102.4822,58.4222 L107.167,58.4222 Z M117.9834,54.6898 C116.6123,54.6898 115.5777,54.1818 114.8795,53.1724 C114.181,52.1565 113.8318,50.6334 113.8318,48.5956 C113.8383,47.5354 114.0288,46.6022 114.3905,45.7961 C114.759,44.9964 115.2602,44.368 115.8886,43.9173 C116.5171,43.46 117.2283,43.2316 118.0217,43.2253 C118.8531,43.2316 119.5833,43.4728 120.218,43.949 C120.8527,44.425 121.3479,45.0917 121.7033,45.9355 C122.0588,46.7862 122.2431,47.7769 122.2496,48.9 C122.2558,50.8236 121.9066,52.2707 121.2019,53.2359 C120.5037,54.207 119.4308,54.6898 117.9834,54.6898 Z M114.0226,67.2963 L114.0226,55.9844 C114.727,56.9748 115.5397,57.7112 116.4598,58.1934 C117.3808,58.6759 118.4217,58.9174 119.5833,58.9174 C120.7957,58.9111 121.8748,58.6759 122.827,58.2062 C123.7794,57.7365 124.5856,57.0697 125.2455,56.2066 C125.9057,55.3497 126.4074,54.3275 126.7564,53.1472 C127.0994,51.9725 127.2771,50.6649 127.2771,49.243 C127.2706,47.6559 127.0736,46.2468 126.6736,45.0027 C126.2739,43.7648 125.7152,42.7111 124.9918,41.8415 C124.2678,40.9783 123.4109,40.3244 122.427,39.8671 C121.4372,39.4164 120.3515,39.1879 119.1643,39.1879 C118.0217,39.1817 117.0123,39.4102 116.1429,39.8609 C115.267,40.3178 114.5368,41.016 113.946,41.9685 L113.9083,39.6832 L109.1473,39.6832 L109.1473,67.2963 L114.0226,67.2963 Z M137.7129,54.6898 C136.3417,54.6898 135.3071,54.1818 134.6089,53.1724 C133.9105,52.1565 133.5612,50.6334 133.5612,48.5956 C133.5677,47.5354 133.7582,46.6022 134.1199,45.7961 C134.4884,44.9964 134.9896,44.368 135.618,43.9173 C136.2465,43.46 136.9577,43.2316 137.7511,43.2253 C138.5825,43.2316 139.3127,43.4728 139.9474,43.949 C140.5821,44.425 141.0773,45.0917 141.4328,45.9355 C141.7882,46.7862 141.9725,47.7769 141.979,48.9 C141.9852,50.8236 141.636,52.2707 140.9313,53.2359 C140.2331,54.207 139.1602,54.6898 137.7129,54.6898 Z M133.752,67.2963 L133.752,55.9844 C134.4564,56.9748 135.2691,57.7112 136.1892,58.1934 C137.1102,58.6759 138.1511,58.9174 139.3127,58.9174 C140.5251,58.9111 141.6043,58.6759 142.5564,58.2062 C143.5089,57.7365 144.315,57.0697 144.9749,56.2066 C145.6351,55.3497 146.1369,54.3275 146.4858,53.1472 C146.8288,51.9725 147.0065,50.6649 147.0065,49.243 C147,47.6559 146.803,46.2468 146.403,45.0027 C146.0033,43.7648 145.4446,42.7111 144.7212,41.8415 C143.9973,40.9783 143.1403,40.3244 142.1564,39.8671 C141.1666,39.4164 140.0809,39.1879 138.8938,39.1879 C137.7511,39.1817 136.7417,39.4102 135.8723,39.8609 C134.9964,40.3178 134.2662,41.016 133.6755,41.9685 L133.6378,39.6832 L128.8767,39.6832 L128.8767,67.2963 L133.752,67.2963 Z M157.8235,54.7657 C156.3186,54.7657 155.189,54.2898 154.4271,53.3374 C153.6719,52.3852 153.2906,50.9568 153.2906,49.0525 C153.2906,47.1485 153.6719,45.7263 154.4271,44.7867 C155.189,43.8475 156.3186,43.3778 157.8235,43.3778 C159.3276,43.3778 160.4578,43.8475 161.2194,44.7867 C161.9746,45.7263 162.3556,47.1485 162.3556,49.0525 C162.3556,50.9568 161.9746,52.3852 161.2194,53.3374 C160.4578,54.2898 159.3276,54.7657 157.8235,54.7657 Z M157.8235,58.9174 C159.2831,58.9111 160.5972,58.6759 161.7716,58.2124 C162.9395,57.7427 163.9427,57.0828 164.7678,56.2128 C165.5995,55.3432 166.2342,54.3085 166.6787,53.1027 C167.1169,51.8903 167.3386,50.5444 167.3454,49.0525 C167.3386,47.5547 167.1231,46.196 166.6849,44.9902 C166.2467,43.7778 165.612,42.7426 164.7871,41.8794 C163.9554,41.016 162.9588,40.3499 161.7844,39.8861 C160.6165,39.4227 159.2961,39.1942 157.8235,39.1879 C156.3317,39.1942 154.9982,39.4289 153.8114,39.8929 C152.6245,40.3561 151.6151,41.0225 150.7769,41.8925 C149.9395,42.7556 149.298,43.7965 148.8601,45.0027 C148.4156,46.215 148.1937,47.5609 148.1871,49.0525 C148.1937,50.5124 148.4094,51.8458 148.8408,53.0516 C149.2728,54.2578 149.9075,55.2924 150.7329,56.1689 C151.5643,57.0445 152.5738,57.7175 153.7609,58.1934 C154.9543,58.6693 156.3061,58.9111 157.8235,58.9174 Z M173.896,58.4222 L173.896,48.6715 C173.896,47.1672 174.2707,46.0373 175.0196,45.2756 C175.7688,44.5205 176.9049,44.1395 178.4283,44.1395 C178.8852,44.1395 179.3425,44.1775 179.7994,44.2537 L179.7994,39.1879 L179.152,39.1879 C178.6443,39.1817 178.1494,39.2069 177.6604,39.2639 C177.1714,39.3147 176.6955,39.4357 176.2258,39.6134 C175.7626,39.7974 175.3054,40.0707 174.8671,40.4386 C174.4292,40.8133 174.004,41.308 173.5915,41.9302 L173.5915,39.6832 L168.9447,39.6832 L168.9447,58.4222 L173.896,58.4222 Z M191.5683,50.9568 C191.5751,52.125 191.3398,53.0267 190.8639,53.6551 C190.3942,54.2898 189.664,54.607 188.6741,54.6132 C187.6709,54.607 186.9407,54.2768 186.4903,53.6356 C186.0328,52.9884 185.8111,52.068 185.8174,50.8809 L185.8174,43.1871 L196.1769,43.1871 L196.1769,39.6832 L185.8174,39.6832 L185.8174,34.6174 L180.942,34.6174 L180.942,51.3761 C180.942,52.3914 181.0818,53.3564 181.3675,54.2578 C181.6533,55.1592 182.104,55.9654 182.7131,56.6573 C183.3226,57.3555 184.116,57.9079 185.0874,58.3079 C186.0586,58.7076 187.233,58.9111 188.5976,58.9174 C189.9182,58.9111 191.0609,58.7014 192.0128,58.3014 C192.9714,57.9014 193.7586,57.3492 194.3743,56.6511 C194.9897,55.9529 195.4407,55.153 195.7389,54.2578 C196.0311,53.3626 196.1769,52.4107 196.1769,51.4138 L196.1769,46.0818 L191.5683,46.0818 L191.5683,50.9568 Z M208.2128,58.4222 C210.2248,58.4156 211.8816,58.1237 213.1768,57.54 C214.4714,56.9617 215.4238,56.1431 216.0457,55.0895 C216.6679,54.0293 216.9789,52.7787 216.9727,51.3378 C216.9661,50.1827 216.8012,49.1985 216.484,48.3986 C216.1665,47.5924 215.7538,46.9387 215.2333,46.431 C214.7191,45.9231 214.1604,45.5359 213.551,45.2694 C212.9418,45.0027 212.3448,44.8312 211.7546,44.749 C212.3134,44.7045 212.859,44.5519 213.3922,44.3045 C213.9195,44.0502 214.4016,43.7013 214.8336,43.2378 C215.2586,42.7809 215.6013,42.2159 215.8555,41.543 C216.1155,40.8641 216.2425,40.0831 216.2493,39.1879 C216.2555,37.9946 216.014,36.9472 215.5318,36.0457 C215.0491,35.1378 214.2874,34.4272 213.2465,33.913 C212.2119,33.3987 210.8595,33.1382 209.2029,33.132 L198.2719,33.132 L198.2719,58.4222 L208.2128,58.4222 Z M199.8333,57.089 L199.8333,45.5489 L209.4314,45.5489 C210.6185,45.5421 211.6594,45.7329 212.5483,46.1133 C213.4367,46.4942 214.1287,47.104 214.6176,47.9416 C215.1129,48.7733 215.3666,49.8714 215.3728,51.2236 C215.3793,52.3982 215.1318,53.4264 214.6301,54.3023 C214.1287,55.1782 213.3608,55.8574 212.3199,56.3463 C211.2784,56.835 209.9518,57.0828 208.327,57.089 L199.8333,57.089 Z M199.8333,44.1775 L199.8333,34.5414 L208.9741,34.5414 C210.3518,34.5476 211.4627,34.7444 212.3003,35.1378 C213.1385,35.5315 213.748,36.0778 214.1287,36.7759 C214.5096,37.4741 214.6936,38.2928 214.6874,39.2262 C214.6874,40.8641 214.2367,42.1017 213.3418,42.9271 C212.4466,43.7582 211.1327,44.1775 209.3931,44.1775 L199.8333,44.1775 Z M233.0457,52.8991 C232.7475,53.9275 232.3155,54.7975 231.7378,55.5022 C231.1603,56.2128 230.4746,56.7463 229.6685,57.1142 C228.8626,57.4759 227.9736,57.6605 226.9897,57.6605 C224.6982,57.6542 222.9586,56.9493 221.759,55.5467 C220.5659,54.1435 219.9502,52.068 219.9057,49.3193 L234.912,49.3193 C234.912,47.7832 234.7343,46.3928 234.3916,45.1489 C234.0423,43.9045 233.5284,42.8444 232.8427,41.9557 C232.157,41.067 231.3129,40.3813 230.3034,39.9054 C229.2937,39.4357 228.1261,39.1942 226.7995,39.1879 C225.0157,39.2004 223.4986,39.5942 222.2479,40.3689 C220.9973,41.1498 220.0386,42.2477 219.3787,43.6698 C218.7185,45.0917 218.3883,46.7675 218.382,48.7098 C218.382,52.1187 219.1057,54.6702 220.5528,56.3716 C222.0005,58.0667 224.1715,58.9174 227.0657,58.9174 C228.3039,58.9111 229.4275,58.6759 230.4432,58.2124 C231.4586,57.7427 232.3285,57.0635 233.0457,56.1689 C233.7631,55.2734 234.296,54.1818 234.6453,52.8991 L233.0457,52.8991 Z M219.9437,48.2529 C219.9626,46.6595 220.2421,45.2819 220.7813,44.1205 C221.3213,42.9648 222.0954,42.0702 223.1049,41.4418 C224.1143,40.8068 225.3329,40.4893 226.7613,40.4831 C228.1386,40.4893 229.3068,40.8133 230.2844,41.448 C231.2556,42.0827 231.9983,42.9779 232.5252,44.1395 C233.0457,45.3009 233.3249,46.672 233.3501,48.2529 L219.9437,48.2529 Z M251.5559,52.8991 C251.2577,53.9275 250.8257,54.7975 250.2483,55.5022 C249.6706,56.2128 248.9852,56.7463 248.179,57.1142 C247.3728,57.4759 246.4839,57.6605 245.5,57.6605 C243.2084,57.6542 241.4691,56.9493 240.2692,55.5467 C239.0764,54.1435 238.4604,52.068 238.4159,49.3193 L253.4222,49.3193 C253.4222,47.7832 253.2445,46.3928 252.9018,45.1489 C252.5529,43.9045 252.0386,42.8444 251.3529,41.9557 C250.6675,41.067 249.8231,40.3813 248.8137,39.9054 C247.8043,39.4357 246.6364,39.1942 245.3098,39.1879 C243.5262,39.2004 242.0088,39.5942 240.7582,40.3689 C239.5075,41.1498 238.5491,42.2477 237.8892,43.6698 C237.2288,45.0917 236.8985,46.7675 236.8923,48.7098 C236.8923,52.1187 237.616,54.6702 239.0633,56.3716 C240.5107,58.0667 242.6818,58.9174 245.5762,58.9174 C246.8141,58.9111 247.9378,58.6759 248.9534,58.2124 C249.9688,57.7427 250.8387,57.0635 251.5559,56.1689 C252.2734,55.2734 252.8066,54.1818 253.1555,52.8991 L251.5559,52.8991 Z M238.4542,48.2529 C238.4729,46.6595 238.7524,45.2819 239.2918,44.1205 C239.8315,42.9648 240.6057,42.0702 241.6151,41.4418 C242.6245,40.8068 243.8434,40.4893 245.2715,40.4831 C246.6489,40.4893 247.8173,40.8133 248.7947,41.448 C249.7661,42.0827 250.5088,42.9779 251.0355,44.1395 C251.5559,45.3009 251.8354,46.672 251.8603,48.2529 L238.4542,48.2529 Z" id="Fill-37"></path>
        </g>
    </g>
</svg>