<svg xmlns="http://www.w3.org/2000/svg" aria-hidden="true" focusable="false" height="16.49" viewBox="0 0 100 16.49" width="100">
<path d="M5.1,3.28H0V.27h13.9v3.01h-5.1v12.94h-3.69V3.28h0Z" fill="#fff"></path>
<path d="M25.58,12.8h-7.4l-1.41,3.42h-3.78L20.09.27h3.64l7.13,15.94h-3.87l-1.41-3.42h0ZM24.42,10l-2.53-6.1-2.53,6.1h5.06Z" fill="#fff"></path>
<path d="M43.08,8h3.37v6.47c-1.75,1.32-4.17,2.03-6.45,2.03-5.01,0-8.7-3.44-8.7-8.25S34.99,0,40.07,0c2.8,0,5.13.96,6.67,2.76l-2.37,2.19c-1.16-1.23-2.51-1.8-4.12-1.8-3.1,0-5.22,2.07-5.22,5.1s2.12,5.1,5.17,5.1c1,0,1.94-.18,2.87-.68v-4.67h0Z" fill="#fff"></path>
<path d="M60.64,8h3.37v6.47c-1.75,1.32-4.17,2.03-6.45,2.03-5.01,0-8.7-3.44-8.7-8.25S52.55,0,57.63,0c2.8,0,5.13.96,6.67,2.76l-2.37,2.19c-1.16-1.23-2.51-1.8-4.12-1.8-3.1,0-5.22,2.07-5.22,5.1s2.12,5.1,5.17,5.1c1,0,1.94-.18,2.87-.68v-4.67h0Z" fill="#fff"></path>
<path d="M67.29,9.2V.27h3.69v8.79c0,3.03,1.32,4.28,3.55,4.28s3.55-1.25,3.55-4.28V.27h3.64v8.93c0,4.69-2.69,7.29-7.22,7.29s-7.22-2.6-7.22-7.29h0Z" fill="#fff"></path>
<path d="M100,.27v15.94h-3.03l-7.95-9.68v9.68h-3.64V.27h3.05l7.93,9.68V.27h3.64Z" fill="#fff"></path>
</svg>