<svg width="293" height="132" viewBox="0 0 293 132" fill="none" xmlns="http://www.w3.org/2000/svg"><path d="M65 0H.2v15.4h23.5V80h18V15.4H65V0ZM178.2 0h-15.5v15.4h15.5v39c0 7.3-3.6 10.4-10.2 10.4-1.7 0-3.4-.2-5-.6v15.4c1.9.5 6.8.9 9.2.9 13.9 0 23.1-8.2 23.1-25.5V0h-17.1Z" fill="#1A1A1A"/><path d="M74.4 21.5c-9.8 0-18.4 4.6-22.5 12.3-1.1 1.9-1.8 4-2.1 6.2v.2c-.1.9-.2 1.8-.1 2.7h14.7c.6-5.6 4.6-8.9 10-8.9 6.2 0 10 3.4 10 9.1v.3l-10.4 1c-16.5 1.7-24.8 7.9-24.8 19.3 0 9.6 7.9 17.1 19 17.1 6.4 0 12.9-3.2 16.2-8.2v7.3h16.2V45.8c-.1-16.2-10.6-24.3-26.2-24.3Zm10 34.1v.5c-.1 6.7-4.6 12.8-12.1 12.8-4.7 0-7.2-2.5-7.2-5.7 0-3.3 2.8-6.2 8.5-6.7l10.7-1.3.1.4ZM223.9 21.5c-9.8 0-18.4 4.6-22.5 12.3-1.1 1.9-1.8 4-2.1 6.2v.2c-.1.9-.2 1.8-.1 2.7h14.7c.6-5.6 4.6-8.9 10-8.9 6.2 0 10 3.4 10 9.1v.3l-10.4 1c-16.5 1.7-24.8 7.9-24.8 19.3 0 9.6 7.9 17.1 19 17.1 6.4 0 12.9-3.2 16.2-8.2v7.3h16.2V45.8c0-16.2-10.6-24.3-26.2-24.3Zm10 34.1v.5c-.1 6.7-4.6 12.8-12.1 12.8-4.7 0-7.2-2.5-7.2-5.7 0-3.3 2.8-6.2 8.5-6.7l10.7-1.3.1.4ZM288.5 21.5c-6.8 0-14.2 4.7-16.8 10.9v-9.9H255V80h16.7V59.2c0-16.3 7.2-22 14.7-22 2.1 0 4.1.3 6.1.9l.4-16.1c-1.6-.4-3-.5-4.4-.5ZM142.3 22.4l-10.7 15.7-10.7-15.7H103l19.6 28.9L103 80h18.2l10.4-15.3L142 80h18.2l-19.6-28.7 19.6-28.9h-17.9Z" fill="#1A1A1A"/><path fill-rule="evenodd" clip-rule="evenodd" d="M119.8 116.3c0-5.1-2.5-9.1-7.2-9.1-4.8 0-7.6 4-7.6 9 0 6 3.4 9 8.3 9 2.4 0 4.2-.5 5.5-1.3v-4c-1.4.7-2.9 1.1-4.9 1.1-1.9 0-3.7-.7-3.9-3h9.8v-1.7Zm-9.8-1.9c0-2.2 1.4-3.2 2.6-3.2 1.2 0 2.5.9 2.5 3.2H110ZM97.3 107.2c-2 0-3.2.9-3.9 1.5l-.3-1.2h-4.4v23.1l5-1.1v-5.6c.7.5 1.8 1.2 3.5 1.2 3.6 0 6.8-2.9 6.8-9.1.1-5.6-3.2-8.8-6.7-8.8Zm-1.2 13.7c-1.2 0-1.9-.4-2.4-.9v-7.4c.5-.6 1.2-1 2.4-1 1.8 0 3.1 2 3.1 4.6 0 2.7-1.3 4.7-3.1 4.7ZM81.9 106.1l5-1.1v-4l-5 1.1v4Z" fill="#1A1A1A"/><path d="M86.9 107.6h-5v17.3h5v-17.3Z" fill="#1A1A1A"/><path fill-rule="evenodd" clip-rule="evenodd" d="m76.5 109-.3-1.5h-4.3v17.4h5v-11.8c1.2-1.5 3.2-1.2 3.8-1v-4.6c-.7-.2-3-.6-4.2 1.5ZM66.5 103.3l-4.9 1v15.9a5 5 0 0 0 5.2 5.1c1.6 0 2.8-.3 3.5-.7v-4c-.6.3-3.8 1.2-3.8-1.8v-7h3.8v-4.2h-3.8v-4.3ZM53 112.6c0-.8.6-1.1 1.7-1.1 1.5 0 3.4.5 5 1.3v-4.7c-1.7-.7-3.3-.9-5-.9-4.1 0-6.8 2.1-6.8 5.6 0 5.5 7.6 4.6 7.6 7 0 .9-.8 1.2-1.9 1.2-1.7 0-3.8-.7-5.5-1.6v4.7c1.9.8 3.7 1.1 5.5 1.1 4.2 0 7-2 7-5.6 0-5.8-7.6-4.8-7.6-7Z" fill="#1A1A1A"/><path d="M38 113.8V125h-2.9v-3c-1 2-3.3 3.3-5.8 3.3-3.5 0-5.9-2.1-5.9-5.2 0-3.4 2.7-5.2 8.3-5.7l3.4-.4v-.3c0-2.4-1.7-3.9-4.3-3.9-2.4 0-4.1 1.4-4.3 3.8l-2.7-.5c.5-3.5 3.4-5.7 7.1-5.7 4.2-.2 7.1 2.3 7.1 6.4Zm-2.9 3.3v-.8l-3.4.4c-3.5.4-5.4 1.6-5.4 3.4 0 1.6 1.4 2.8 3.4 2.8 3.5-.1 5.4-2.3 5.4-5.8ZM128.1 116.2c0-5.4 3.5-9 8.7-9 4.1 0 7 2.2 7.7 5.7l-2.9.6c-.4-2.1-2.2-3.6-4.7-3.6-3.4 0-5.6 2.5-5.6 6.4 0 3.8 2.2 6.4 5.6 6.4 2.5 0 4.3-1.3 4.7-3.7l2.9.6c-.8 3.6-3.7 5.7-7.7 5.7-5.2-.1-8.7-3.7-8.7-9.1ZM147.1 116.2c0-5.2 3.7-9 8.9-9s8.9 3.8 8.9 9-3.7 9-8.9 9a8.6 8.6 0 0 1-8.9-9Zm14.7 0c0-3.7-2.4-6.4-5.9-6.4-3.5 0-5.9 2.6-5.9 6.4 0 3.7 2.4 6.4 5.9 6.4 3.6 0 5.9-2.6 5.9-6.4ZM168.6 125v-17.4h2.9v3.3a5.5 5.5 0 0 1 5.3-3.6c2.8 0 5.1 1.3 5.7 3.7a6 6 0 0 1 5.6-3.7c3.7 0 6.1 2.4 6.1 6V125h-2.9v-11.1c0-2.4-1.3-4-3.8-4-3 0-4.6 2.7-4.6 6.4v8.8H180v-11.2c0-2.4-1.3-4-3.8-4-3 0-4.6 2.7-4.6 6.4v8.8h-3v-.1ZM199 131.3v-23.8h2.9v2.5c.9-1.6 3.2-2.8 5.7-2.8 5.4 0 8.3 3.9 8.3 9s-3 9-8.4 9a7.4 7.4 0 0 1-5.7-2.7v8.7H199v.1Zm14.1-15.1c0-3.8-2.3-6.4-5.7-6.4-3.4 0-5.6 2.5-5.6 6.4 0 3.8 2.3 6.4 5.6 6.4 3.4 0 5.7-2.5 5.7-6.4ZM233.3 113.8V125h-2.9v-3c-1 2-3.3 3.3-5.8 3.3-3.5 0-5.9-2.1-5.9-5.2 0-3.4 2.7-5.2 8.3-5.7l3.4-.4v-.3c0-2.4-1.7-3.9-4.3-3.9-2.4 0-4.1 1.4-4.3 3.8l-2.7-.5c.5-3.5 3.4-5.7 7.1-5.7 4.2-.2 7.1 2.3 7.1 6.4Zm-2.9 3.3v-.8l-3.4.4c-3.5.4-5.4 1.6-5.4 3.4 0 1.6 1.4 2.8 3.4 2.8 3.5-.1 5.4-2.3 5.4-5.8ZM238.1 125v-17.4h2.9v3.3a6.8 6.8 0 0 1 6-3.6 6 6 0 0 1 6.2 6.2v11.6h-2.9v-11c0-2.4-1.5-4.1-3.9-4.1-3.3 0-5.3 2.8-5.3 7.4v7.7h-3v-.1ZM269 107.5h3l-9.1 23.8h-3l2.5-6.5-6.8-17.2h3.2l5.1 13.4 5.1-13.5Z" fill="#1A1A1A"/></svg>