<?xml version="1.0" encoding="UTF-8"?>
<svg version="1.1" xmlns="http://www.w3.org/2000/svg" width="292" height="284">
<path d="M0 0 C22.873125 -0.391875 45.74625 -0.78375 69.3125 -1.1875 C76.50071533 -1.36047607 83.68893066 -1.53345215 91.0949707 -1.71166992 C99.95935059 -1.79748535 99.95935059 -1.79748535 104.12590027 -1.81343079 C107.00213778 -1.83095389 109.87153353 -1.90130511 112.74589539 -2.00593567 C139.42357783 -2.93584411 139.42357783 -2.93584411 150.00915051 6.92758465 C153.61951291 10.75707363 156.94018401 14.71782854 160 19 C160.92683594 18.505 161.85367188 18.01 162.80859375 17.5 C166.59800109 15.71893217 168.06551847 15.66060203 172 17 C172.845625 17.86625 173.69125 18.7325 174.5625 19.625 C175.366875 20.40875 176.17125 21.1925 177 22 C179.59889783 22.08024658 179.59889783 22.08024658 182 21 C182.70125 20.75121094 183.4025 20.50242187 184.125 20.24609375 C185.053125 19.62927734 185.053125 19.62927734 186 19 C186.51634112 16.70761216 186.51634112 16.70761216 186.4375 14.125 C186.6880439 10.65747247 186.7965244 9.2946888 188.8125 6.375 C193.73884679 4.24990923 198.71922778 4.22052431 204 5 C206.8125 6.18359375 206.8125 6.18359375 209 8 C209.75 10.59375 209.75 10.59375 210 13.5 C210.52846874 17.90591461 210.52846874 17.90591461 213.3125 21.25 C216.53408826 22.14904789 217.87602749 22.21911122 221 21 C221.969375 20.13375 222.93875 19.2675 223.9375 18.375 C227 16 227 16 229.88671875 16.09375 C235.32545891 17.67692154 238.66305232 21.55553089 242 26 C242.875 29.75 242.875 29.75 242 33 C241.154375 33.804375 240.30875 34.60875 239.4375 35.4375 C236.81988844 37.65726009 236.81988844 37.65726009 236.8203125 40.015625 C237.20087232 43.42838724 237.53302712 45.53302712 240 48 C242.24196455 48.30296818 244.4508927 48.37779204 246.7109375 48.4609375 C249.9398162 49.2213219 251.06695784 50.31017399 253 53 C253.56640625 56.53125 253.56640625 56.53125 253.5625 60.5 C253.58441406 61.8096875 253.60632813 63.119375 253.62890625 64.46875 C253 68 253 68 250.7578125 70.4375 C247.29019316 72.40215685 244.8809706 72.47891132 240.98828125 72.53125 C238.82158083 72.80207842 238.82158083 72.80207842 237.7578125 74.8828125 C236.78951467 77.58805696 236.52315182 79.13891092 237 82 C237.825 82.969375 238.65 83.93875 239.5 84.9375 C242 88 242 88 242.4375 91.0625 C242.00129891 93.99127873 241.14068111 96.28343817 240 99 C240.59563122 99.43525372 241.19126244 99.87050743 241.80494308 100.31895065 C250.89569269 107.26305087 259.76597483 114.48455456 261.78771973 126.22229004 C262.49480635 133.94821651 262.32510464 141.65082445 262.02560425 149.39474487 C261.90982613 152.88246936 261.90625142 156.36726377 261.89208984 159.85693359 C261.78803442 169.98968203 261.5088034 180.12002275 261.25 190.25 C260.8375 212.9375 260.425 235.625 260 259 C174.2 259 88.4 259 0 259 C0 173.53 0 88.06 0 0 Z M190.75 42 C189.85796875 42.37125 188.9659375 42.7425 188.046875 43.125 C187.03367188 43.558125 187.03367188 43.558125 186 44 C187.62156024 48.10108886 190.5767703 50.83148167 193.6640625 53.859375 C194.21613373 54.40861633 194.76820496 54.95785767 195.33700562 55.52374268 C197.09501815 57.27059293 198.8598689 59.01034601 200.625 60.75 C201.8207708 61.93573591 203.01608865 63.1219288 204.2109375 64.30859375 C207.13540253 67.21105085 210.06601874 70.1071641 213 73 C217.11588108 68.08749678 218.37596549 64.72197405 218.2734375 58.40625 C217.62372447 52.68877534 214.84134041 48.48882003 210.6875 44.625 C204.45224233 39.70101969 197.98437777 38.9539462 190.75 42 Z " fill="#E63E40" transform="translate(17,15)"/>
<path d="M0 0 C7.875 6.75 7.875 6.75 10.52734375 9.4296875 C11.09130859 9.996875 11.65527344 10.5640625 12.23632812 11.1484375 C12.79771484 11.71820313 13.35910156 12.28796875 13.9375 12.875 C14.52595703 13.46796875 15.11441406 14.0609375 15.72070312 14.671875 C17.14947674 16.11226466 18.57508132 17.5557967 20 19 C20.92683594 18.505 21.85367188 18.01 22.80859375 17.5 C26.59800109 15.71893217 28.06551847 15.66060203 32 17 C33.2684375 18.299375 33.2684375 18.299375 34.5625 19.625 C35.366875 20.40875 36.17125 21.1925 37 22 C39.59889783 22.08024658 39.59889783 22.08024658 42 21 C42.70125 20.75121094 43.4025 20.50242187 44.125 20.24609375 C44.74375 19.83488281 45.3625 19.42367187 46 19 C46.51634112 16.70761216 46.51634112 16.70761216 46.4375 14.125 C46.6880439 10.65747247 46.7965244 9.2946888 48.8125 6.375 C53.73884679 4.24990923 58.71922778 4.22052431 64 5 C66.8125 6.18359375 66.8125 6.18359375 69 8 C69.75 10.59375 69.75 10.59375 70 13.5 C70.52846874 17.90591461 70.52846874 17.90591461 73.3125 21.25 C76.53408826 22.14904789 77.87602749 22.21911122 81 21 C81.969375 20.13375 82.93875 19.2675 83.9375 18.375 C87 16 87 16 89.88671875 16.09375 C95.32545891 17.67692154 98.66305232 21.55553089 102 26 C102.875 29.75 102.875 29.75 102 33 C101.154375 33.804375 100.30875 34.60875 99.4375 35.4375 C96.81988844 37.65726009 96.81988844 37.65726009 96.8203125 40.015625 C97.20087232 43.42838724 97.53302712 45.53302712 100 48 C102.24196455 48.30296818 104.4508927 48.37779204 106.7109375 48.4609375 C109.9398162 49.2213219 111.06695784 50.31017399 113 53 C113.56640625 56.53125 113.56640625 56.53125 113.5625 60.5 C113.58441406 61.8096875 113.60632813 63.119375 113.62890625 64.46875 C113 68 113 68 110.7578125 70.4375 C107.29019316 72.40215685 104.8809706 72.47891132 100.98828125 72.53125 C98.82158083 72.80207842 98.82158083 72.80207842 97.7578125 74.8828125 C96.78951467 77.58805696 96.52315182 79.13891092 97 82 C97.825 82.969375 98.65 83.93875 99.5 84.9375 C102 88 102 88 102.4375 91.0625 C102.00129891 93.99127873 101.14068111 96.28343817 100 99 C100.60585938 99.60062256 101.21171875 100.20124512 101.8359375 100.82006836 C104.07425562 103.04138387 106.31034378 105.26491289 108.54492188 107.48999023 C109.51407921 108.45410665 110.48413048 109.41732529 111.45507812 110.37963867 C112.84737912 111.75986359 114.2362462 113.14354978 115.625 114.52734375 C116.46289062 115.35999756 117.30078125 116.19265137 118.1640625 117.05053711 C120 119 120 119 120 120 C80.4 120 40.8 120 0 120 C0 80.4 0 40.8 0 0 Z M50.75 42 C49.85796875 42.37125 48.9659375 42.7425 48.046875 43.125 C47.03367188 43.558125 47.03367188 43.558125 46 44 C47.62156024 48.10108886 50.5767703 50.83148167 53.6640625 53.859375 C54.21613373 54.40861633 54.76820496 54.95785767 55.33700562 55.52374268 C57.09501815 57.27059293 58.8598689 59.01034601 60.625 60.75 C61.8207708 61.93573591 63.01608865 63.1219288 64.2109375 64.30859375 C67.13540253 67.21105085 70.06601874 70.1071641 73 73 C77.11588108 68.08749678 78.37596549 64.72197405 78.2734375 58.40625 C77.62372447 52.68877534 74.84134041 48.48882003 70.6875 44.625 C64.45224233 39.70101969 57.98437777 38.9539462 50.75 42 Z " fill="#FEFEFE" transform="translate(157,15)"/>
<path d="M0 0 C2.8125 1.18359375 2.8125 1.18359375 5 3 C5.75 5.59375 5.75 5.59375 6 8.5 C6.52846874 12.90591461 6.52846874 12.90591461 9.3125 16.25 C12.53408826 17.14904789 13.87602749 17.21911122 17 16 C17.969375 15.13375 18.93875 14.2675 19.9375 13.375 C23 11 23 11 25.88671875 11.09375 C31.32545891 12.67692154 34.66305232 16.55553089 38 21 C38.875 24.75 38.875 24.75 38 28 C37.154375 28.804375 36.30875 29.60875 35.4375 30.4375 C32.81988844 32.65726009 32.81988844 32.65726009 32.8203125 35.015625 C33.20087232 38.42838724 33.53302712 40.53302712 36 43 C38.24196455 43.30296818 40.4508927 43.37779204 42.7109375 43.4609375 C45.9398162 44.2213219 47.06695784 45.31017399 49 48 C49.56640625 51.53125 49.56640625 51.53125 49.5625 55.5 C49.58441406 56.8096875 49.60632813 58.119375 49.62890625 59.46875 C49 63 49 63 46.7578125 65.4375 C43.29019316 67.40215685 40.8809706 67.47891132 36.98828125 67.53125 C34.82158083 67.80207842 34.82158083 67.80207842 33.7578125 69.8828125 C32.78951467 72.58805696 32.52315182 74.13891092 33 77 C33.825 77.969375 34.65 78.93875 35.5 79.9375 C38 83 38 83 38.5 86.125 C37.9583607 89.23942595 37.12331115 90.69974626 35 93 C31.13671373 91.4152642 28.71123077 88.94043113 25.796875 85.9921875 C25.3142218 85.50670441 24.8315686 85.02122131 24.33428955 84.52102661 C22.80141438 82.97700134 21.27565996 81.42615176 19.75 79.875 C18.70879639 78.82375991 17.66713459 77.77297343 16.625 76.72265625 C14.07800536 74.15366996 11.53734823 71.57851839 9 69 C9.28294922 68.40324463 9.56589844 67.80648926 9.85742188 67.19165039 C10.4075293 66.00043579 10.4075293 66.00043579 10.96875 64.78515625 C11.51692383 63.61158569 11.51692383 63.61158569 12.07617188 62.41430664 C13.8407054 57.80292398 13.80595324 53.51294408 12.3046875 48.83203125 C9.56859011 42.70455264 5.90607182 39.18395519 -0.375 36.625 C-5.99607261 35.65584955 -10.16720809 36.04835805 -15.25 38.6875 C-18 40 -18 40 -19.84667969 39.39501953 C-22.66953559 37.56624418 -24.83814441 35.38466787 -27.203125 32.9921875 C-27.6857782 32.50670441 -28.1684314 32.02122131 -28.66571045 31.52102661 C-30.19858562 29.97700134 -31.72434004 28.42615176 -33.25 26.875 C-34.29120361 25.82375991 -35.33286541 24.77297343 -36.375 23.72265625 C-38.92199464 21.15366996 -41.46265177 18.57851839 -44 16 C-41.359375 12.1171875 -41.359375 12.1171875 -38.125 11.0625 C-34.3815352 10.9876307 -32.95401837 11.76452664 -30 14 C-29.505 14.5775 -29.01 15.155 -28.5 15.75 C-27.01145664 17.28580235 -27.01145664 17.28580235 -24.5625 16.8125 C-21.12243058 15.73530195 -21.12243058 15.73530195 -18 14 C-17.48365888 11.70761216 -17.48365888 11.70761216 -17.5625 9.125 C-17.3119561 5.65747247 -17.2034756 4.2946888 -15.1875 1.375 C-10.26115321 -0.75009077 -5.28077222 -0.77947569 0 0 Z " fill="#404041" transform="translate(221,20)"/>
<path d="M0 0 C28.71 0 57.42 0 87 0 C83.94571424 2.03619051 81.31631173 3.04813514 77.85546875 4.2421875 C76.00211914 4.88220703 76.00211914 4.88220703 74.11132812 5.53515625 C73.46494385 5.75574707 72.81855957 5.97633789 72.15258789 6.20361328 C70.23049328 6.86031103 68.31141441 7.52525732 66.39257812 8.19140625 C60.30112425 10.29139906 54.19830036 12.26412135 47.98828125 13.9921875 C39.87693242 16.25744189 31.98944755 19.08195663 24.07373047 21.94726562 C22.19795443 22.62416575 20.3177676 23.28880333 18.4375 23.953125 C17.34308594 24.34661133 16.24867188 24.74009766 15.12109375 25.14550781 C11.93268778 26.01842872 9.28825581 26.16194042 6 26 C4.99402985 22.23073331 3.99625198 18.45934588 3 14.6875 C2.71382812 13.61564453 2.42765625 12.54378906 2.1328125 11.43945312 C1.86210937 10.41142578 1.59140625 9.38339844 1.3125 8.32421875 C1.06113281 7.37635498 0.80976563 6.42849121 0.55078125 5.4519043 C0 3 0 3 0 0 Z " fill="#C42B3B" transform="translate(172,136)"/>
</svg>
