<?xml version="1.0" encoding="utf-8"?>
<!-- Generator: $$$/GeneralStr/196=Adobe Illustrator 27.6.0, SVG Export Plug-In . SVG Version: 6.00 Build 0)  -->
<svg version="1.1" id="Ebene_1" xmlns="http://www.w3.org/2000/svg" xmlns:xlink="http://www.w3.org/1999/xlink" x="0px" y="0px"
	 viewBox="0 0 600 120" style="enable-background:new 0 0 600 120;" xml:space="preserve">
<style type="text/css">
	.st0{fill:#343432;}
	.st1{fill:#CFD470;}
	.st2{fill:#AFD7E7;}
	.st3{fill:#F29657;}
	.st4{fill:#EC78A7;}
</style>
<path class="st0" d="M163.6,102.8c-6.6,0-11.6-1.5-15-4.5c-3.4-3-5.1-7.4-5.1-13.2V21.8l15-0.8v19.7h17.9v15.4h-17.9v25.8
	c0,2.9,0.7,5.1,2,6.3s3.5,1.9,6.7,1.9c1.7,0,3.2-0.1,4.5-0.4s2.7-0.6,4.2-1.1v12.4c-1.7,0.6-3.7,1-6,1.3
	C167.5,102.7,165.4,102.9,163.6,102.8L163.6,102.8z"/>
<path class="st0" d="M192.2,34.3c-2.5,0-4.5-0.9-6.3-2.6c-1.7-1.7-2.6-3.8-2.6-6.1s0.9-4.5,2.6-6.2s3.8-2.5,6.3-2.5s4.4,0.8,6.1,2.5
	c1.7,1.7,2.6,3.7,2.6,6.2s-0.9,4.4-2.6,6.1S194.6,34.3,192.2,34.3z M184.6,101.9V40.7h15.1v61.2H184.6z"/>
<path class="st0" d="M212,101.9V40.7h15.1v4.6c4.5-4.2,9.9-6.3,16.4-6.3c4,0,7.7,0.9,10.9,2.6c3.2,1.7,5.8,4,7.8,7
	c2.5-3.1,5.5-5.5,9-7.1c3.5-1.6,7.3-2.4,11.5-2.4c4.6,0,8.7,1,12.1,3.1s6.3,4.9,8.3,8.6c2,3.7,3,8,3,12.8v38.4h-15V65.8
	c0-4.2-1.1-7.6-3.4-10c-2.3-2.5-5.3-3.7-9-3.7c-2.6,0-5,0.6-7.1,1.7c-2.1,1.1-3.9,2.8-5.4,5c0.1,0.8,0.2,1.6,0.2,2.3
	c0.1,0.8,0.1,1.6,0.1,2.4v38.4h-15.1V65.8c0-4.2-1.1-7.6-3.3-10c-2.2-2.5-5.2-3.7-8.9-3.7c-2.5,0-4.9,0.5-6.9,1.6
	c-2.1,1-3.8,2.6-5.2,4.6v43.6L212,101.9L212,101.9z"/>
<path class="st0" d="M347.4,103.1c-6.2,0-11.8-1.4-16.7-4.3s-8.9-6.7-11.8-11.5c-2.9-4.8-4.4-10.2-4.4-16.3s1.4-11.3,4.2-16.1
	s6.5-8.6,11.3-11.4c4.8-2.8,10.1-4.2,16-4.2s11.1,1.4,15.6,4.3s8.1,6.8,10.8,11.7s4,10.6,4,16.9V76h-46.6c0.7,2.8,1.9,5.2,3.6,7.4
	s3.8,3.8,6.4,5.1c2.5,1.2,5.3,1.9,8.3,1.9c2.8,0,5.4-0.5,7.9-1.4c2.5-0.9,4.5-2.2,6.2-3.8l9.9,9.2c-3.7,2.9-7.6,5.1-11.5,6.6
	C356.6,102.4,352.3,103.1,347.4,103.1L347.4,103.1z M329.6,65.2h31.8c-0.6-2.7-1.6-5-3.2-7c-1.5-2-3.4-3.6-5.5-4.7
	c-2.1-1.1-4.5-1.7-7.1-1.7s-5,0.6-7.2,1.7c-2.2,1.1-4,2.7-5.5,4.6C331.4,60,330.3,62.4,329.6,65.2L329.6,65.2z"/>
<path class="st0" d="M384.6,101.9v-84h15.1v84H384.6z"/>
<path class="st0" d="M412.1,101.9V40.7h15.1v61.2H412.1z"/>
<path class="st0" d="M439.6,101.9V40.7h15.1v4.9c4.8-4.4,10.6-6.6,17.6-6.6c4.8,0,9,1,12.6,3.1s6.5,4.9,8.6,8.6
	c2.1,3.7,3.1,8,3.1,12.8v38.4h-15V65.8c0-4.2-1.2-7.6-3.6-10c-2.4-2.5-5.7-3.7-10-3.7c-2.9,0-5.4,0.6-7.7,1.7
	c-2.3,1.1-4.2,2.8-5.7,4.9v43.1L439.6,101.9L439.6,101.9z"/>
<path class="st0" d="M568.4,40.7l-29.4,28l31.7,33.2h-19.5l-27-28.4v28.4H509v-84h15.1v48.5l27-25.7H568.4L568.4,40.7z"/>
<path class="st0" d="M419.8,34.3c-2.5,0-4.5-0.9-6.3-2.6c-1.7-1.7-2.6-3.8-2.6-6.1s0.9-4.5,2.6-6.2c1.7-1.7,3.8-2.5,6.3-2.5
	s4.4,0.8,6.1,2.5s2.6,3.7,2.6,6.2s-0.8,4.4-2.6,6.1S422.2,34.3,419.8,34.3z"/>
<path class="st1" d="M81.7,17.9h29.3c4.3,0,7.7,3.5,7.7,7.7l0,0c0,4.3-3.5,7.7-7.7,7.7H81.7c-4.3,0-7.7-3.5-7.7-7.7l0,0
	C74,21.3,77.5,17.9,81.7,17.9z"/>
<path class="st2" d="M37,40.6h48.2c4.3,0,7.7,3.5,7.7,7.7l0,0c0,4.3-3.5,7.7-7.7,7.7H37c-4.3,0-7.7-3.5-7.7-7.7l0,0
	C29.3,44.1,32.7,40.6,37,40.6z"/>
<path class="st3" d="M59.4,63.6h51.7c4.3,0,7.7,3.5,7.7,7.7l0,0c0,4.3-3.5,7.7-7.7,7.7H59.4c-4.3,0-7.7-3.5-7.7-7.7l0,0
	C51.6,67,55.1,63.6,59.4,63.6z"/>
<path class="st4" d="M37,86.5h22.6c4.3,0,7.7,3.5,7.7,7.7l0,0c0,4.3-3.5,7.7-7.7,7.7H37c-4.3,0-7.7-3.5-7.7-7.7l0,0
	C29.3,89.9,32.7,86.5,37,86.5z"/>
</svg>
