<?xml version="1.0" encoding="UTF-8"?>
<svg version="1.1" xmlns="http://www.w3.org/2000/svg" width="160" height="160">
<path d="M0 0 C52.8 0 105.6 0 160 0 C160 52.8 160 105.6 160 160 C107.2 160 54.4 160 0 160 C0 107.2 0 54.4 0 0 Z " fill="#2D5AEB" transform="translate(0,0)"/>
<path d="M0 0 C0.93328125 -0.03738281 1.8665625 -0.07476562 2.828125 -0.11328125 C8.96988572 0.78170795 13.44399236 5.61465192 18 9.5625 C22.01421713 13.00194245 26.05039386 16.3953399 30.1875 19.6875 C30.98027344 20.31914063 31.77304688 20.95078125 32.58984375 21.6015625 C33.93179052 22.66444258 35.27747822 23.72263899 36.62890625 24.7734375 C40.66806074 27.98529529 42.35210363 30.07433293 43.25 35.125 C42.2845337 41.27984768 37.17546993 45.14434721 32.39453125 48.77734375 C30.79018075 49.94364859 29.17927544 51.100981 27.5625 52.25 C26.30481812 53.15915161 26.30481812 53.15915161 25.02172852 54.08666992 C23.36041322 55.28683834 21.69666388 56.48364605 20.03027344 57.67675781 C18.05559268 59.09328469 16.09079644 60.5214755 14.1328125 61.9609375 C6.83646459 67.32191461 2.97648451 69.19793454 -6.25 68.3125 C-11.62577485 66.08804144 -15.33073631 62.57172435 -19.5859375 58.66015625 C-23.31704729 55.37218413 -27.24461898 52.35591066 -31.20141602 49.34545898 C-42.15976214 40.90577128 -42.15976214 40.90577128 -43.5 35.375 C-43.63721506 31.91195333 -43.14654004 31.14633703 -41.1875 28 C-35.77608202 22.50150173 -29.39336198 17.95332887 -23.25 13.3125 C-22.53231445 12.7673877 -21.81462891 12.22227539 -21.07519531 11.66064453 C-5.91661798 0.15357342 -5.91661798 0.15357342 0 0 Z " fill="#F9FCFD" transform="translate(79.25,32.6875)"/>
<path d="M0 0 C4.97512665 1.20609131 8.37521573 4.8593103 12.06298828 8.25146484 C14.18470098 10.17488663 16.38109988 12.00327681 18.57836914 13.83935547 C23.97984995 18.35530919 29.30633803 22.95843329 34.578125 27.625 C34.24755808 30.70504416 33.98568468 32.2277801 31.73046875 34.42578125 C30.99957031 34.92464844 30.26867187 35.42351562 29.515625 35.9375 C28.78214844 36.44925781 28.04867187 36.96101563 27.29296875 37.48828125 C26.72707031 37.86339844 26.16117187 38.23851562 25.578125 38.625 C22.66609484 37.29369499 20.45165407 35.80267392 18.08203125 33.65625 C17.44072266 33.08519531 16.79941406 32.51414062 16.13867188 31.92578125 C14.80879463 30.72720176 13.4806611 29.52668465 12.15429688 28.32421875 C7.64439343 24.31642091 4.30615805 21.873003 -1.859375 21.3125 C-9.52121679 21.98459138 -14.64749815 27.03925532 -20.296875 31.8125 C-21.4725 32.79379883 -21.4725 32.79379883 -22.671875 33.79492188 C-24.59299401 35.39975909 -26.50943211 37.00984288 -28.421875 38.625 C-31.38882879 37.19546772 -33.69984466 35.68679607 -36.171875 33.5 C-36.78546875 32.96117187 -37.3990625 32.42234375 -38.03125 31.8671875 C-38.49015625 31.45726563 -38.9490625 31.04734375 -39.421875 30.625 C-39.36172038 27.91302913 -38.92045872 26.15886756 -37.04882812 24.15478516 C-35.13349042 22.51828253 -33.17216838 20.96904979 -31.171875 19.4375 C-30.45620361 18.87377686 -29.74053223 18.31005371 -29.00317383 17.72924805 C-26.81936065 16.01458795 -24.62204945 14.31859138 -22.421875 12.625 C-21.1388286 11.62563431 -19.85624634 10.62567233 -18.57421875 9.625 C-5.99082013 -0.15460181 -5.99082013 -0.15460181 0 0 Z " fill="#2956DC" transform="translate(81.421875,38.375)"/>
<path d="M0 0 C6.22065308 4.58615004 12.22026433 9.39708518 18.17578125 14.3203125 C26.70722705 21.6134734 26.70722705 21.6134734 37.3125 24.25 C38.42044922 24.28867188 38.42044922 24.28867188 39.55078125 24.328125 C46.94703495 23.33723934 52.8601913 17.48267961 58.5625 13.0625 C59.49513672 12.34642578 60.42777344 11.63035156 61.38867188 10.89257812 C66.57341622 6.91560513 66.57341622 6.91560513 71.61694336 2.76342773 C74 1 74 1 77 1 C79.06285921 4.09428882 79.7554006 6.12295711 79.59375 9.84765625 C78.27156092 14.64059167 73.81991835 17.16741983 70 20 C68.93773193 20.80244141 68.93773193 20.80244141 67.85400391 21.62109375 C62.28857437 25.82072438 56.6859533 29.96480733 51 34 C50.19498047 34.57363281 49.38996094 35.14726563 48.56054688 35.73828125 C47.77744141 36.28097656 46.99433594 36.82367188 46.1875 37.3828125 C45.49011719 37.8689502 44.79273438 38.35508789 44.07421875 38.85595703 C40.3534919 40.90813759 37.07854273 41.06898547 33 40 C26.66959235 36.56361846 21.0664633 31.79486124 15.5625 27.1875 C14.83039307 26.57511475 14.09828613 25.96272949 13.34399414 25.33178711 C11.89308398 24.11444513 10.4440426 22.8948716 8.99707031 21.67285156 C7.24233445 20.20299213 5.46796024 18.76455762 3.6796875 17.3359375 C-2.79341814 11.96934564 -2.79341814 11.96934564 -3.8125 7.1875 C-2.99838206 3.9936527 -2.02439178 2.51548413 0 0 Z " fill="#F4FAFC" transform="translate(41,85)"/>
<path d="M0 0 C0.93328125 -0.03738281 1.8665625 -0.07476562 2.828125 -0.11328125 C8.96988572 0.78170795 13.44399236 5.61465192 18 9.5625 C22.01421713 13.00194245 26.05039386 16.3953399 30.1875 19.6875 C30.98027344 20.31914063 31.77304688 20.95078125 32.58984375 21.6015625 C33.93179052 22.66444258 35.27747822 23.72263899 36.62890625 24.7734375 C40.66806074 27.98529529 42.35210363 30.07433293 43.25 35.125 C42.37524852 40.70154071 38.76814102 43.8194038 34.34765625 47.08984375 C32.17545974 48.54826953 29.98671183 49.95556149 27.75 51.3125 C28.08 49.3325 28.41 47.3525 28.75 45.3125 C28.09 44.9825 27.43 44.6525 26.75 44.3125 C29.72 42.0025 32.69 39.6925 35.75 37.3125 C34.68056383 31.96531916 34.27266419 31.38227707 30.375 28.0625 C29.47136719 27.28648438 28.56773438 26.51046875 27.63671875 25.7109375 C26.68410156 24.91945313 25.73148437 24.12796875 24.75 23.3125 C23.82832031 22.54164062 22.90664062 21.77078125 21.95703125 20.9765625 C20.11994299 19.45817926 18.27098845 17.95403295 16.41015625 16.46484375 C14.6980141 15.07954225 13.01493956 13.65710129 11.37109375 12.19140625 C10.62988281 11.55074219 9.88867188 10.91007812 9.125 10.25 C8.49335937 9.68152344 7.86171875 9.11304688 7.2109375 8.52734375 C3.36475348 6.62867196 -0.05566863 6.49264363 -4.25 7.3125 C-7.3248382 8.8588826 -9.82018805 10.90591397 -12.4375 13.125 C-13.15929443 13.70725342 -13.88108887 14.28950684 -14.62475586 14.8894043 C-16.11120551 16.08967857 -17.59080922 17.29848007 -19.06347656 18.515625 C-21.81693452 20.7784042 -24.62131323 22.97103488 -27.43286133 25.16088867 C-30.04881698 27.1985411 -32.64909716 29.2556846 -35.25 31.3125 C-36.57 30.6525 -37.89 29.9925 -39.25 29.3125 C-40.83272601 30.89522601 -40.59735747 32.69284003 -40.8125 34.875 C-40.89628906 35.70128906 -40.98007812 36.52757812 -41.06640625 37.37890625 C-41.12699219 38.01699219 -41.18757813 38.65507813 -41.25 39.3125 C-43.27780728 36.27078908 -43.82587095 34.88769629 -43.140625 31.3125 C-41.00604366 26.51905418 -36.28630169 23.47544322 -32.25 20.3125 C-31.58709961 19.79284668 -30.92419922 19.27319336 -30.24121094 18.73779297 C-25.96987448 15.40994384 -21.66594598 12.12721745 -17.33496094 8.87744141 C-15.89270379 7.79490413 -14.45343822 6.7083739 -13.01660156 5.61865234 C-11.94490723 4.80775146 -11.94490723 4.80775146 -10.8515625 3.98046875 C-10.20783691 3.49215576 -9.56411133 3.00384277 -8.90087891 2.50073242 C-5.85605957 0.30920096 -3.72058325 0.09657252 0 0 Z " fill="#EDF8FC" transform="translate(79.25,32.6875)"/>
<path d="M0 0 C1.3921875 1.2065625 1.3921875 1.2065625 2.8125 2.4375 C7.80188975 6.71411978 12.90641138 10.848657 18 15 C19.95857459 16.6038721 21.91691441 18.20803094 23.875 19.8125 C25.58138378 21.21071596 27.28963089 22.60666193 29 24 C29.86882812 24.72574219 30.73765625 25.45148438 31.6328125 26.19921875 C35.85216646 29.40899132 39.95804559 29.46031005 45.09375 29.40625 C50.04306181 28.71441071 53.20324366 26.08695709 57 23 C57.84433594 22.35417969 58.68867187 21.70835938 59.55859375 21.04296875 C61.72439424 19.38398585 63.86874888 17.70298553 66 16 C66.66 16.33 67.32 16.66 68 17 C66.625 18.5 66.625 18.5 65 20 C64.34 20 63.68 20 63 20 C63.495 21.485 63.495 21.485 64 23 C63.34 23.99 62.68 24.98 62 26 C62.433125 25.525625 62.86625 25.05125 63.3125 24.5625 C65 23 65 23 68 22 C68.495 20.515 68.495 20.515 69 19 C70.98 18.67 72.96 18.34 75 18 C70.70025153 22.55114505 65.93894222 26.35100024 61 30.1875 C60.2059375 30.81591797 59.411875 31.44433594 58.59375 32.09179688 C57.43359375 32.99575195 57.43359375 32.99575195 56.25 33.91796875 C55.55390625 34.46219482 54.8578125 35.0064209 54.140625 35.56713867 C48.95202422 39.04021098 44.10019228 39.79968907 38 39 C32.06960046 37.20840702 27.84099467 33.31156995 23.3828125 29.1640625 C20.05610867 26.14276099 16.51979989 23.41503016 12.96875 20.6640625 C11 19 11 19 10 17 C10.66 16.67 11.32 16.34 12 16 C10.60546858 11.47178015 8.47117237 9.32980132 4.875 6.3125 C3.21602064 4.91435167 1.58150706 3.48521604 0 2 C0 1.34 0 0.68 0 0 Z " fill="#234EC6" transform="translate(36,71)"/>
<path d="M0 0 C0.99 0.33 1.98 0.66 3 1 C2.63843056 3.82398199 2.12481245 4.87991153 0.0390625 6.88671875 C-0.75757812 7.48097656 -1.55421875 8.07523438 -2.375 8.6875 C-3.16648437 9.28949219 -3.95796875 9.89148438 -4.7734375 10.51171875 C-8.52138798 13.01692776 -11.59387141 13.16050166 -16 13.1875 C-17.051875 13.20167969 -18.10375 13.21585938 -19.1875 13.23046875 C-22 13 -22 13 -25 11 C-25 10.34 -25 9.68 -25 9 C-24.01 9 -23.02 9 -22 9 C-22 8.34 -22 7.68 -22 7 C-21.35933594 7.03480469 -20.71867187 7.06960937 -20.05859375 7.10546875 C-12.71324472 7.335353 -8.08388558 6.52317911 -2.25 1.75 C-1.5075 1.1725 -0.765 0.595 0 0 Z " fill="#2E5CE8" transform="translate(94,95)"/>
<path d="M0 0 C0.66 0.33 1.32 0.66 2 1 C0.625 2.5 0.625 2.5 -1 4 C-1.66 4 -2.32 4 -3 4 C-2.67 4.99 -2.34 5.98 -2 7 C-2.99 8.485 -2.99 8.485 -4 10 C-3.566875 9.525625 -3.13375 9.05125 -2.6875 8.5625 C-1 7 -1 7 2 6 C2.33 5.01 2.66 4.02 3 3 C4.98 2.67 6.96 2.34 9 2 C5.16771102 6.00814928 1.07477678 9.42828753 -3.3125 12.8125 C-3.95767578 13.31458984 -4.60285156 13.81667969 -5.26757812 14.33398438 C-6.84267125 15.55905681 -8.42100316 16.7799632 -10 18 C-10.66 17.67 -11.32 17.34 -12 17 C-10.4375 15.79557292 -8.875 14.59114583 -7.3125 13.38671875 C-5.65629795 11.95508863 -5.65629795 11.95508863 -6 9 C-8.99536702 10.02698298 -11.07651402 11.06158445 -13.5625 13.0625 C-17.82650145 16.45183449 -21.62686826 16.28279641 -27 16 C-29.9375 15 -29.9375 15 -32 14 C-28.84922478 12.94974159 -27.13831266 13.07542173 -23.875 13.3125 C-17.34570925 13.36404703 -13.93929924 11.01590291 -9 7 C-8.15566406 6.35417969 -7.31132813 5.70835938 -6.44140625 5.04296875 C-4.27560576 3.38398585 -2.13125112 1.70298553 0 0 Z " fill="#1D43AA" transform="translate(102,87)"/>
<path d="M0 0 C1.3921875 1.2065625 1.3921875 1.2065625 2.8125 2.4375 C8.81343224 7.5811562 14.95740734 12.55613413 21.1171875 17.5078125 C22.10976563 18.30960938 23.10234375 19.11140625 24.125 19.9375 C25.03507812 20.66839844 25.94515625 21.39929688 26.8828125 22.15234375 C29 24 29 24 30 26 C29.401875 25.690625 28.80375 25.38125 28.1875 25.0625 C25.91043228 23.89790296 25.91043228 23.89790296 23 23 C22.360625 22.319375 21.72125 21.63875 21.0625 20.9375 C18.98573593 18.54354969 18.98573593 18.54354969 15 19 C16.98 21.31 18.96 23.62 21 26 C17.80107719 24.4005386 15.84646265 23.17187081 13.25 20.875 C12.63640625 20.33617188 12.0228125 19.79734375 11.390625 19.2421875 C10.93171875 18.83226563 10.4728125 18.42234375 10 18 C10.66 17.34 11.32 16.68 12 16 C10.60546858 11.47178015 8.47117237 9.32980132 4.875 6.3125 C3.21602064 4.91435167 1.58150706 3.48521604 0 2 C0 1.34 0 0.68 0 0 Z " fill="#1B44AA" transform="translate(36,71)"/>
<path d="M0 0 C4.36327274 1.94669092 7.3410116 4.0115174 10 8 C7.77566716 6.92902493 5.88600091 5.91018254 3.9375 4.375 C-0.67594272 2.21551617 -5.00742491 2.12016095 -10 3 C-12.62147454 4.35390527 -14.81722385 5.85485423 -17.125 7.6875 C-19 9 -19 9 -22 9 C-20.02 6.36 -18.04 3.72 -16 1 C-15.67 1.66 -15.34 2.32 -15 3 C-14.195625 2.505 -13.39125 2.01 -12.5625 1.5 C-8.1518258 -0.35712598 -4.71631122 -0.86691049 0 0 Z " fill="#2043A4" transform="translate(84,31)"/>
<path d="M0 0 C0.66 0.33 1.32 0.66 2 1 C1.525625 1.7425 1.05125 2.485 0.5625 3.25 C-0.77869327 5.61050015 -1.512312 7.36648477 -2 10 C-2.99 9.67 -3.98 9.34 -5 9 C-5.33 10.32 -5.66 11.64 -6 13 C-6.99 13 -7.98 13 -9 13 C-9.33 13.99 -9.66 14.98 -10 16 C-10.66 16 -11.32 16 -12 16 C-11.73563583 12.21078026 -11.31150951 10.36491115 -8.8125 7.4375 C-5.90439153 4.91713932 -2.98459201 2.42931908 0 0 Z " fill="#234ECD" transform="translate(110,81)"/>
<path d="M0 0 C0.66 0.33 1.32 0.66 2 1 C-1.34949975 6.38832569 -5.12937161 7.56130982 -11 9 C-11.721875 9.20238281 -12.44375 9.40476562 -13.1875 9.61328125 C-15.25 10.0625 -15.25 10.0625 -19 10 C-21.25768665 8.20261839 -22.39301754 6.46069189 -24 4 C-22.7934375 4.495 -22.7934375 4.495 -21.5625 5 C-16.14880058 6.51963492 -11.57043152 7.33974006 -6.421875 4.65625 C-4.20779702 3.18019802 -2.08312826 1.65468344 0 0 Z " fill="#1543A8" transform="translate(92,118)"/>
<path d="M0 0 C2.5 1 2.5 1 5 3 C5.46837899 5.79374292 5.23424505 8.14221036 5 11 C3.68388323 10.04663979 2.37221039 9.08714226 1.0625 8.125 C0.33160156 7.59132813 -0.39929687 7.05765625 -1.15234375 6.5078125 C-3 5 -3 5 -4 3 C-3.01 2.67 -2.02 2.34 -1 2 C-0.67 1.34 -0.34 0.68 0 0 Z " fill="#EAF7FB" transform="translate(45,72)"/>
<path d="M0 0 C2.86724686 0.57344937 3.8614515 0.8614515 6 3 C6.39764263 4.98821313 6.73775349 6.98944339 7 9 C1.25 7.375 1.25 7.375 -1 4 C-0.625 1.8125 -0.625 1.8125 0 0 Z " fill="#2756DA" transform="translate(42,80)"/>
<path d="M0 0 C0.33 0 0.66 0 1 0 C2.13283741 5.141339 2.13283741 5.141339 2 8 C-0.25 10.8125 -0.25 10.8125 -3 13 C-3.515625 13.61875 -4.03125 14.2375 -4.5625 14.875 C-5.2740625 15.431875 -5.2740625 15.431875 -6 16 C-8.08984375 15.5703125 -8.08984375 15.5703125 -10 15 C-9.16855469 14.38125 -9.16855469 14.38125 -8.3203125 13.75 C-2.99207388 9.50257847 -0.9506872 6.77364629 0 0 Z " fill="#143FAA" transform="translate(122,65)"/>
<path d="M0 0 C3.67230705 3.07999946 4.56802365 5.2482602 5 10 C4.01 9.67 3.02 9.34 2 9 C1.79375 9.556875 1.5875 10.11375 1.375 10.6875 C-0.55000774 13.92501302 -3.03850902 15.68231141 -6 18 C-6.66 17.67 -7.32 17.34 -8 17 C-7.13375 16.41605469 -7.13375 16.41605469 -6.25 15.8203125 C-1.60593813 12.42906911 -1.60593813 12.42906911 0.53125 7.30859375 C0.50302957 4.82872307 0.3554109 2.45332249 0 0 Z " fill="#1844AE" transform="translate(119,87)"/>
<path d="M0 0 C1.32 0.66 2.64 1.32 4 2 C4 2.66 4 3.32 4 4 C4.66 4 5.32 4 6 4 C6 4.99 6 5.98 6 7 C3.625 7.625 3.625 7.625 1 8 C0.34 7.34 -0.32 6.68 -1 6 C-0.625 2.875 -0.625 2.875 0 0 Z " fill="#2554D6" transform="translate(66,97)"/>
<path d="M0 0 C0.33 0.66 0.66 1.32 1 2 C4.3 2 7.6 2 11 2 C10.67 2.66 10.34 3.32 10 4 C8.700625 3.87625 7.40125 3.7525 6.0625 3.625 C0.15280089 3.56871715 -3.51218289 6.43520911 -8 10 C-8 9.01 -8 8.02 -8 7 C-6.34467377 5.98133771 -4.67739862 4.98189187 -3 4 C-2.67 3.01 -2.34 2.02 -2 1 C-1.34 0.67 -0.68 0.34 0 0 Z " fill="#D5E9FA" transform="translate(74,36)"/>
<path d="M0 0 C0.66 0.33 1.32 0.66 2 1 C0.92807816 2.3218362 -0.15802695 3.63217927 -1.25 4.9375 C-1.85328125 5.66839844 -2.4565625 6.39929687 -3.078125 7.15234375 C-5.15445931 9.14849442 -6.24733876 9.45970492 -9 10 C-9.66 10.66 -10.32 11.32 -11 12 C-10.67567593 8.93617261 -10.01098513 8.01029035 -7.71484375 5.859375 C-6.79832031 5.16328125 -5.88179687 4.4671875 -4.9375 3.75 C-4.01839844 3.04359375 -3.09929688 2.3371875 -2.15234375 1.609375 C-1.44207031 1.07828125 -0.73179688 0.5471875 0 0 Z " fill="#1D43AE" transform="translate(54,55)"/>
<path d="M0 0 C0.66 0.33 1.32 0.66 2 1 C0.41856529 2.43958847 -1.16522779 3.87658645 -2.75 5.3125 C-3.63171875 6.11300781 -4.5134375 6.91351563 -5.421875 7.73828125 C-7.55449328 9.60916911 -9.70187943 11.34084286 -12 13 C-12.66 12.34 -13.32 11.68 -14 11 C-13.07316406 10.28972656 -12.14632812 9.57945313 -11.19140625 8.84765625 C-9.98174158 7.91930895 -8.77210776 6.99092145 -7.5625 6.0625 C-6.95083984 5.59392578 -6.33917969 5.12535156 -5.70898438 4.64257812 C-2.75031115 2.44328176 -2.75031115 2.44328176 0 0 Z " fill="#DFF3FC" transform="translate(66,38)"/>
<path d="M0 0 C0.99 0.33 1.98 0.66 3 1 C4.1875 4.0625 4.1875 4.0625 5 7 C4.34 7 3.68 7 3 7 C3 6.34 3 5.68 3 5 C1.35 5 -0.3 5 -2 5 C-2 3.68 -2 2.36 -2 1 C-1.34 0.67 -0.68 0.34 0 0 Z " fill="#F8FBFC" transform="translate(113,57)"/>
<path d="M0 0 C3.94139078 1.66751148 6.7892812 4.22710649 10 7 C6.78452708 7 5.76646037 6.46459666 3 5 C1.33859237 4.32033324 -0.32700041 3.65061095 -2 3 C-1.34 2.01 -0.68 1.02 0 0 Z " fill="#1743B0" transform="translate(52,109)"/>
<path d="M0 0 C0.99 0.99 1.98 1.98 3 3 C2.360625 3.391875 1.72125 3.78375 1.0625 4.1875 C-1.43778819 6.38472296 -1.64950425 7.75791433 -2 11 C-2.33 11 -2.66 11 -3 11 C-3.36923077 4.6 -3.36923077 4.6 -1.5 1.5625 C-1.005 1.046875 -0.51 0.53125 0 0 Z " fill="#E2F2FC" transform="translate(41,85)"/>
<path d="M0 0 C0.33 0 0.66 0 1 0 C2.14507772 5.19689119 2.14507772 5.19689119 2 8 C-0.4375 11 -0.4375 11 -3 13 C-2.01 8.71 -1.02 4.42 0 0 Z " fill="#1B48C1" transform="translate(122,65)"/>
<path d="M0 0 C0 0.33 0 0.66 0 1 C-3.07617188 1.29296875 -3.07617188 1.29296875 -6.15234375 1.5859375 C-6.76207031 1.72257812 -7.37179688 1.85921875 -8 2 C-8.33 2.66 -8.66 3.32 -9 4 C-11.5625 4.625 -11.5625 4.625 -14 5 C-9.74404706 -0.49155218 -6.48540926 -0.63582444 0 0 Z " fill="#0E3A99" transform="translate(84,39)"/>
<path d="M0 0 C2 1 2 1 4 4 C0.375 7 0.375 7 -3 7 C-3 6.34 -3 5.68 -3 5 C-2.01 4.34 -1.02 3.68 0 3 C0 2.01 0 1.02 0 0 Z " fill="#2A57DD" transform="translate(87,100)"/>
<path d="M0 0 C1.32 0 2.64 0 4 0 C4.33 0.99 4.66 1.98 5 3 C4.01 3 3.02 3 2 3 C1.67 3.99 1.34 4.98 1 6 C0.34 6 -0.32 6 -1 6 C-0.67 4.02 -0.34 2.04 0 0 Z " fill="#2E5EED" transform="translate(99,91)"/>
<path d="M0 0 C0.66 0.99 1.32 1.98 2 3 C-3.94 2.01 -3.94 2.01 -10 1 C-10 0.67 -10 0.34 -10 0 C-3.23076923 -1.38461538 -3.23076923 -1.38461538 0 0 Z " fill="#133CA8" transform="translate(86,58)"/>
<path d="M0 0 C2.6875 -0.3125 2.6875 -0.3125 5 0 C2.6875 2.5 2.6875 2.5 0 5 C-0.99 5 -1.98 5 -3 5 C-1.8125 2.5 -1.8125 2.5 0 0 Z " fill="#1C46AC" transform="translate(47,49)"/>
<path d="M0 0 C-0.99 1.485 -0.99 1.485 -2 3 C-2.66 3 -3.32 3 -4 3 C-4.33 3.66 -4.66 4.32 -5 5 C-5.33 3.35 -5.66 1.7 -6 0 C-3.50907189 -1.24546405 -2.58919267 -0.7767578 0 0 Z " fill="#E6EEFA" transform="translate(95,40)"/>
<path d="M0 0 C1.32 1.32 2.64 2.64 4 4 C2.1875 5.5625 2.1875 5.5625 0 7 C-0.99 6.67 -1.98 6.34 -3 6 C-2.01 5.67 -1.02 5.34 0 5 C0 3.35 0 1.7 0 0 Z " fill="#D7E8F9" transform="translate(110,53)"/>
<path d="M0 0 C0.33 1.32 0.66 2.64 1 4 C-1.4375 6.75 -1.4375 6.75 -4 9 C-4.66 8.67 -5.32 8.34 -6 8 C-4.02 5.36 -2.04 2.72 0 0 Z " fill="#1E4AB8" transform="translate(68,32)"/>
</svg>
