<svg id="Layer_1" data-name="Layer 1" xmlns="http://www.w3.org/2000/svg" viewBox="0 0 280 300"><defs><style>.cls-1{fill:#e44532;}.cls-2{fill:#fff;}</style></defs><title>todoist logo</title><path class="cls-1" d="M127.47,153.29a7.81,7.81,0,0,1,.64-3.13,6.56,6.56,0,0,1,1.69-2.41,6.93,6.93,0,0,1,2.57-1.53,9,9,0,0,1,6.26,0,9.22,9.22,0,0,1,2.57,1.53,6.45,6.45,0,0,1,1.69,2.41,8.1,8.1,0,0,1,.64,3.13,7.85,7.85,0,0,1-.64,3.14,6.53,6.53,0,0,1-1.69,2.41,6.78,6.78,0,0,1-2.57,1.52,9,9,0,0,1-6.26,0,9,9,0,0,1-2.57-1.52,6.64,6.64,0,0,1-1.69-2.41,7.57,7.57,0,0,1-.64-3.14m3.69,0a4.87,4.87,0,0,0,1.21,3.14,4.18,4.18,0,0,0,1.36,1,4.45,4.45,0,0,0,1.77.4,4.12,4.12,0,0,0,1.77-.4,4.18,4.18,0,0,0,1.36-1,4.36,4.36,0,0,0,.89-1.45,5.7,5.7,0,0,0,.32-1.69,4.18,4.18,0,0,0-.32-1.68,3,3,0,0,0-.89-1.37,4.18,4.18,0,0,0-1.36-1,4.41,4.41,0,0,0-1.77-.4,4.46,4.46,0,0,0-3.13,1.36,4.86,4.86,0,0,0-.88,1.37,4,4,0,0,0-.33,1.68"/><path class="cls-1" d="M157.43,158.43a4.91,4.91,0,0,1-2.17,1.93,6.92,6.92,0,0,1-2.89.65,7.41,7.41,0,0,1-3.05-.57,6.83,6.83,0,0,1-3.7-4,9.44,9.44,0,0,1-.48-3.06,9.78,9.78,0,0,1,.48-3.05,6.08,6.08,0,0,1,1.45-2.41,6.49,6.49,0,0,1,2.25-1.61,6.9,6.9,0,0,1,2.89-.56,6.49,6.49,0,0,1,1.85.24,5,5,0,0,1,1.36.57,11.93,11.93,0,0,1,1.05.72,6.11,6.11,0,0,1,.72.72h.08V139.8a.81.81,0,0,1,.8-.81h2.09a.82.82,0,0,1,.81.81v20.08a.81.81,0,0,1-.81.8h-1.84a.8.8,0,0,1-.81-.8v-1.45Zm-8.67-5.14a4.19,4.19,0,0,0,.32,1.69,4,4,0,0,0,.88,1.45,4.12,4.12,0,0,0,1.37,1,4.36,4.36,0,0,0,1.76.4,4.08,4.08,0,0,0,1.77-.4,5.48,5.48,0,0,0,1.37-1,4.51,4.51,0,0,0,.88-1.45,5.7,5.7,0,0,0,.32-1.69,4.18,4.18,0,0,0-.32-1.68,3.06,3.06,0,0,0-.88-1.37,4.51,4.51,0,0,0-3.14-1.36,4.07,4.07,0,0,0-1.76.4,4.12,4.12,0,0,0-1.37,1,4.86,4.86,0,0,0-.88,1.37,6.87,6.87,0,0,0-.32,1.68"/><path class="cls-1" d="M163.38,153.29a7.81,7.81,0,0,1,.64-3.13,6.45,6.45,0,0,1,1.69-2.41,6.93,6.93,0,0,1,2.57-1.53,9,9,0,0,1,6.26,0,9.22,9.22,0,0,1,2.57,1.53,6.45,6.45,0,0,1,1.69,2.41,8.1,8.1,0,0,1,.64,3.13,7.85,7.85,0,0,1-.64,3.14,6.53,6.53,0,0,1-1.69,2.41,6.78,6.78,0,0,1-2.57,1.52,9,9,0,0,1-6.26,0,9,9,0,0,1-2.57-1.52,6.53,6.53,0,0,1-1.69-2.41,7.57,7.57,0,0,1-.64-3.14m3.69,0a4.19,4.19,0,0,0,.32,1.69,3.91,3.91,0,0,0,.89,1.45,4.18,4.18,0,0,0,1.36,1,4.41,4.41,0,0,0,1.77.4,4.15,4.15,0,0,0,1.77-.4,5.26,5.26,0,0,0,1.36-1,4.71,4.71,0,0,0,.89-1.45,5.7,5.7,0,0,0,.32-1.69,4.18,4.18,0,0,0-.32-1.68,3.17,3.17,0,0,0-.89-1.37,4.18,4.18,0,0,0-1.36-1,4.45,4.45,0,0,0-1.77-.4,4.12,4.12,0,0,0-1.77.4,4.18,4.18,0,0,0-1.36,1,4.68,4.68,0,0,0-.89,1.37,4.18,4.18,0,0,0-.32,1.68"/><path class="cls-1" d="M181.13,141a2.19,2.19,0,0,1,.64-1.52,2.32,2.32,0,0,1,1.69-.65,2.64,2.64,0,0,1,1.69.65,2,2,0,0,1,.72,1.6,2.14,2.14,0,0,1-.72,1.61,2.55,2.55,0,0,1-3.38,0,2.76,2.76,0,0,1-.64-1.69"/><path class="cls-1" d="M196.31,150.08c-.4,0-.64-.24-.64-.4a2.19,2.19,0,0,0-2.09-1.13c-1.21,0-2.17.57-2.17,1.53s1,1.12,1.53,1.29l2.49.64a9.68,9.68,0,0,1,1.93.72,3.88,3.88,0,0,1,2.24,3.54c0,3.53-3.53,4.74-5.94,4.74-1.85,0-5.38-.33-6.19-3.86a.82.82,0,0,1,.81-.88h2a.85.85,0,0,1,.72.48c.24.72,1.12,1.28,2.49,1.28,1.53,0,2.41-.56,2.41-1.36a1.65,1.65,0,0,0-.64-1.21c-1.13-.8-3.94-.88-5.47-1.68a3.54,3.54,0,0,1-2-3.46c0-3.29,3-4.74,5.7-4.74,3.94,0,5.38,2.49,5.54,3.38a.83.83,0,0,1-.8,1h-1.93Z"/><path class="cls-1" d="M199.85,148.23v-1.52a.8.8,0,0,1,.8-.81h1.93v-3.69a.73.73,0,0,1,.48-.72,21.67,21.67,0,0,1,2.09-.89.8.8,0,0,1,1.12.72V146h3.22a.81.81,0,0,1,.8.81v1.52a.87.87,0,0,1-.8.81h-3.22v6.42a3.94,3.94,0,0,0,.24,1.77c.24.4.65.56,1.37.56a1.19,1.19,0,0,0,.56-.08.79.79,0,0,1,1,.32c.25.49.49,1,.73,1.37a.81.81,0,0,1-.32,1.12,5.7,5.7,0,0,1-2.65.57,5.42,5.42,0,0,1-2.17-.33,3.15,3.15,0,0,1-1.53-1.12,3.52,3.52,0,0,1-.64-1.69,10.26,10.26,0,0,1-.16-2.33v-6.5h-1.93a1,1,0,0,1-.88-1"/><path class="cls-1" d="M116,148.23v-1.52a.8.8,0,0,1,.8-.81H119v-3.69a.72.72,0,0,1,.49-.72,22.31,22.31,0,0,1,2.08-.89.8.8,0,0,1,1.13.72V146h3.21a.82.82,0,0,1,.81.81v1.52a.88.88,0,0,1-.81.81h-3.21v6.42a3.94,3.94,0,0,0,.24,1.77c.24.4.64.56,1.37.56a1.19,1.19,0,0,0,.56-.08.79.79,0,0,1,1,.32c.24.49.48,1,.72,1.37a.79.79,0,0,1-.32,1.12,5.64,5.64,0,0,1-2.65.57,5.48,5.48,0,0,1-2.17-.33,3.17,3.17,0,0,1-1.52-1.12,3.63,3.63,0,0,1-.65-1.69,10.26,10.26,0,0,1-.16-2.33v-6.5h-2.24a1,1,0,0,1-.89-1"/><path class="cls-1" d="M182.41,160.68h2.09a.81.81,0,0,0,.81-.8V146.71a.81.81,0,0,0-.81-.81h-2.09a.8.8,0,0,0-.8.81v13.17a.93.93,0,0,0,.8.8"/><path class="cls-1" d="M100.64,132.33H74.13a4.46,4.46,0,0,0-4.42,4.42v26.5a4.46,4.46,0,0,0,4.42,4.42h26.51a4.46,4.46,0,0,0,4.42-4.42v-26.5A4.41,4.41,0,0,0,100.64,132.33Z"/><path class="cls-2" d="M77.26,148.88c.65-.33,14-8,14.3-8.2a.52.52,0,0,0,0-.88c-.32-.16-1-.56-1.2-.72a1.08,1.08,0,0,0-1.13,0c-.16.08-11.57,6.66-12,6.9a1.53,1.53,0,0,1-1.44,0c-.32-.24-6-3.53-6-3.53v3c1.45.88,5.14,3,6,3.46A1.2,1.2,0,0,0,77.26,148.88Z"/><path class="cls-2" d="M77.26,154.82c.65-.32,14-8,14.3-8.19a.53.53,0,0,0,0-.89c-.32-.16-1-.56-1.2-.72a1.13,1.13,0,0,0-1.13,0c-.16.08-11.57,6.67-12,6.91a1.53,1.53,0,0,1-1.44,0l-6.11-3.54v3c1.45.88,5.14,3,6,3.45A1.32,1.32,0,0,0,77.26,154.82Z"/><path class="cls-2" d="M77.26,160.76c.65-.32,14-8,14.3-8.19a.52.52,0,0,0,0-.88c-.32-.16-1-.57-1.2-.73a1.13,1.13,0,0,0-1.13,0c-.16.08-11.57,6.67-12,6.91a1.53,1.53,0,0,1-1.44,0c-.32-.24-6-3.53-6-3.53v3c1.45.88,5.14,3,6,3.45A1.17,1.17,0,0,0,77.26,160.76Z"/></svg>