<svg width="568" height="216" viewBox="0 0 568 216" fill="none" xmlns="http://www.w3.org/2000/svg" xmlns:xlink="http://www.w3.org/1999/xlink">
 <path d="M361.075 159.064C353.033 151.606 341.407 148.186 330.602 148.186H282.377C277.626 148.186 273.405 144.612 273.405 140.199C273.409 138.437 273.994 136.725 275.071 135.33C276.148 133.935 277.655 132.935 279.359 132.485C279.359 132.485 280.17 132.275 281.064 131.993C289.846 136.059 299.425 138.112 309.102 138.002C323.955 138.002 338.845 133.634 349.75 123.413C360.364 113.501 365.324 99.6237 365.324 85.4269C365.324 71.2301 360.364 57.3615 349.75 47.4411C346.659 44.5745 343.215 42.114 339.502 40.1193C349.732 42.49 360.291 39.554 367.558 27.0167L347.088 12.291L330.01 36.0618C323.246 33.9338 316.192 32.8725 309.102 32.916C294.24 32.916 279.35 37.2745 268.454 47.5049C257.831 57.4254 252.88 71.2939 252.88 85.4907C252.88 99.6875 257.831 113.556 268.454 123.477C269.366 124.388 270.323 125.163 271.308 125.938L269.311 126.996C264.322 129.866 259.791 133.468 255.871 137.682C249.142 144.84 242.413 155.572 242.413 169.851C242.413 169.851 241.501 200.305 276.459 200.305H301.808C307.643 200.305 313.579 204.016 313.579 209.843C313.584 211.879 312.995 213.872 311.883 215.578H360.345C367.652 207.25 371.584 196.492 371.369 185.415C371.05 175.878 368.223 165.748 361.075 159.064ZM300.577 76.09C302.665 73.761 305.503 72.2369 308.598 71.7824C311.692 71.3278 314.849 71.9715 317.518 73.6017C320.188 75.2319 322.203 77.7456 323.212 80.7063C324.221 83.6671 324.162 86.8878 323.044 89.8093C321.926 92.7307 319.82 95.1684 317.092 96.699C314.364 98.2296 311.186 98.7565 308.11 98.1881C305.034 97.6197 302.255 95.9919 300.254 93.5875C298.253 91.183 297.157 88.1538 297.157 85.0257C297.102 83.3845 297.371 81.7485 297.95 80.2119C298.529 78.6752 299.406 77.2682 300.531 76.0718L300.577 76.09Z" fill="#FFDE91">
 </path>
 <path d="M499.013 159.064C490.98 151.606 479.345 148.186 468.54 148.186L412.619 147.776C409.091 147.776 406.401 145.56 406.401 142.305C406.401 139.57 407.741 135.594 411.115 134.929C417.803 137.01 424.772 138.05 431.776 138.011C446.63 138.011 461.529 133.643 472.425 123.422C483.038 113.511 487.998 99.6328 487.998 85.436C487.998 71.2392 483.038 57.3707 472.425 47.4502C469.327 44.5764 465.874 42.1126 462.149 40.1193C472.379 42.49 482.938 39.554 490.214 27.0167L469.744 12.291L452.657 36.0618C445.902 33.9359 438.858 32.8746 431.776 32.916C416.923 32.916 402.033 37.2745 391.128 47.5049C380.515 57.4254 375.554 71.2939 375.554 85.4907C375.554 99.6876 380.515 113.556 391.128 123.477C394.239 126.378 397.711 128.867 401.459 130.88C398.757 132.937 396.229 135.212 393.9 137.682C387.162 144.84 380.433 155.572 380.433 169.851C380.433 169.851 379.521 200.305 414.479 200.305H439.818C445.654 200.305 451.59 204.016 451.59 209.843C451.593 211.877 451.008 213.869 449.903 215.578H498.365C505.678 207.253 509.614 196.494 509.398 185.415C509.034 175.878 506.216 165.748 499.013 159.064ZM423.524 76.09C425.612 73.7703 428.446 72.2547 431.534 71.8061C434.622 71.3575 437.77 72.0042 440.431 73.6341C443.092 75.264 445.099 77.7742 446.102 80.729C447.106 83.6838 447.043 86.8967 445.926 89.8103C444.808 92.7238 442.705 95.154 439.983 96.6792C437.26 98.2043 434.09 98.7282 431.021 98.1598C427.953 97.5914 425.18 95.9667 423.184 93.5676C421.189 91.1684 420.096 88.1463 420.096 85.0257C420.046 83.3806 420.324 81.7419 420.912 80.2048C421.501 78.6677 422.389 77.2629 423.524 76.0718V76.09Z" fill="#FFDE91">
 </path>
 <path d="M553.931 111.012V0H502.159V119.31C502.159 134.127 504.365 146.482 509.708 154.259C517.915 166.113 529.029 173.836 551.123 173.927C555.207 173.754 562.009 172.942 568 169.824V124.361C557.56 125.683 553.931 118.325 553.931 111.012Z" fill="#FFDE91">
 </path>
 <path d="M175.067 173.927C193.303 173.927 211.539 168.091 224.906 154.451C237.917 141.166 243.999 122.592 243.999 103.599C243.999 84.6064 237.917 66.0239 224.906 52.7389C211.539 39.0982 193.303 33.2627 175.067 33.2627C156.831 33.2627 138.594 39.1074 125.218 52.7389C112.152 66.0239 106.107 84.5882 106.107 103.599C106.107 122.61 112.189 141.166 125.2 154.451C138.594 168.082 156.831 173.927 175.067 173.927ZM163.213 91.445C165.907 88.4401 169.568 86.473 173.56 85.8848C177.553 85.2966 181.625 86.1244 185.071 88.2247C188.517 90.325 191.119 93.5652 192.426 97.3834C193.733 101.201 193.662 105.357 192.226 109.128C190.79 112.899 188.079 116.049 184.564 118.031C181.048 120.013 176.95 120.701 172.98 119.978C169.009 119.254 165.418 117.163 162.828 114.068C160.238 110.973 158.813 107.07 158.8 103.034C158.731 100.906 159.085 98.7858 159.843 96.7963C160.6 94.8067 161.746 92.9877 163.213 91.445V91.445Z" fill="#FFDE91">
 </path>
 <path d="M19.3941 120.358C19.3941 135.148 22.0657 146.545 27.3997 154.305C35.606 166.158 44.7696 173.936 67.0724 173.936C80.0018 173.936 90.8249 170.964 97.9279 167.006V122.802C94.5613 124.003 91.0071 124.593 87.433 124.544C78.8256 124.544 75.2969 121.899 72.1147 117.86C70.054 115.216 69.0237 111.341 69.0237 106.307V82.7737H97.9279V40.5936H69.0237V0H32.0955V15.1724C32.0955 31.9861 19.2847 45.5903 3.4831 45.5903C2.31879 45.5942 1.15542 45.5242 0 45.3806L0 82.7646H19.3941V120.358Z" fill="#FFDE91">
 </path>
</svg>