<svg version="1.1" id="Layer_1" xmlns:x="ns_extend;" xmlns:i="ns_ai;" xmlns:graph="ns_graphs;" xmlns="http://www.w3.org/2000/svg" xmlns:xlink="http://www.w3.org/1999/xlink" x="0px" y="0px" viewBox="0 0 250 48" style="enable-background:new 0 0 250 48;" xml:space="preserve">
 <style type="text/css">
  .st0{fill:#FFFFFF;}
	.st1{fill:#DF1B12;}
 </style>
 <metadata>
  <sfw xmlns="ns_sfw;">
   <slices>
   </slices>
   <sliceSourceBounds bottomLeftOrigin="true" height="48" width="250" x="12.3" y="-212.2">
   </sliceSourceBounds>
  </sfw>
 </metadata>
 <g>
  <path class="st0" d="M242.9,44.3h7.1l0-18.1c0-1.1-0.1-2.2-0.4-3.2c-1.4-5.2-6.4-8.7-12-8.5c-2.6,0.1-5,1.1-7.2,2.8l-0.3,0.2
		l-0.3-0.2c-2.2-1.8-4.6-2.7-7.2-2.8c-5.5-0.2-10.6,3.3-12,8.5c-0.3,1-0.4,2.1-0.4,3.2v18.1h7.1V26.5c-0.1-2.5,1.9-4.6,4.4-4.7
		c2.5-0.1,4.6,1.9,4.7,4.4c0,0.1,0,0.2,0,0.3v17.8h7.1l0-17.8c0-2.5,2.1-4.6,4.6-4.6c1.2,0,2.4,0.5,3.2,1.4c0.9,0.9,1.3,2,1.3,3.2
		L242.9,44.3L242.9,44.3z M190.3,37.2c-4.3,0-7.8-3.5-7.8-7.8c0-4.3,3.5-7.8,7.8-7.8c2.1,0,4,0.8,5.5,2.3c1.5,1.5,2.3,3.4,2.3,5.5
		C198.1,33.7,194.6,37.2,190.3,37.2 M190.3,14.5c-8.2,0-14.9,6.7-14.9,14.9c0,8.2,6.7,14.9,14.9,14.9s14.9-6.7,14.9-14.9
		S198.6,14.5,190.3,14.5z M165.8,44.3h9.2l-4.1-7.1l-4.9,0c-2.3,0-4.3-1.7-4.5-3.7c0-0.3,0-0.6-0.1-1V21.8h9.4l3.7-6.4h-13V3.7
		l-7.1,4.9V15h-4.5v7.1h4.5l0,9.7c0,0,0,0.5,0,0.6l0,0.5c0.2,4.7,2.6,8.2,6.9,10.3c1.2,0.6,2.4,0.9,4,1L165.8,44.3
		C165.8,44.3,165.8,44.3,165.8,44.3z M137.7,44.3h7.1V26.2c0-1.1-0.1-2.2-0.4-3.2c-1.4-5.2-6.4-8.7-12-8.5c-2.6,0.1-5,1.1-7.2,2.8
		l-0.3,0.2l-0.3-0.2c-2.2-1.8-4.6-2.7-7.2-2.8c-5.5-0.2-10.6,3.3-12,8.5c-0.3,1-0.4,2.1-0.4,3.2v18.1h7.1V26.5
		c0.1-2.5,2.1-4.5,4.7-4.5c2.5,0.1,4.4,2,4.5,4.5v17.8h7.1V26.4c0.1-2.5,2.2-4.5,4.7-4.5c2.5,0.1,4.4,2,4.5,4.5L137.7,44.3
		C137.7,44.3,137.7,44.3,137.7,44.3z M85.2,37.2c-4.3,0-7.8-3.5-7.8-7.8c0-4.3,3.5-7.8,7.8-7.8c2.1,0,4,0.8,5.5,2.3
		c1.5,1.5,2.3,3.4,2.3,5.5C93,33.7,89.5,37.2,85.2,37.2 M85.2,14.5c-8.2,0-14.9,6.7-14.9,14.9c0,8.2,6.7,14.9,14.9,14.9
		c8.2,0,14.9-6.7,14.9-14.9S93.4,14.5,85.2,14.5z M60.7,44.3h9.2l-4.1-7.1l-4.9,0c-2.3,0-4.3-1.7-4.5-3.7c0-0.3,0-0.6-0.1-1V21.8
		h9.4l3.7-6.4h-13V3.7l-7.1,4.9V15h-4.5v7.1h4.5l0,9.7c0,0,0,0.5,0,0.6l0,0.5c0.2,4.7,2.6,8.2,6.9,10.3c1.2,0.6,2.4,0.9,4,1
		L60.7,44.3L60.7,44.3C60.7,44.3,60.7,44.3,60.7,44.3z">
  </path>
  <path class="st1" d="M16.6,48l6.4-11H10.2L16.6,48z M16.6,25.2c-4.8,0-8.7-3.9-8.7-8.6c0-4.8,3.9-8.6,8.7-8.6
		c4.8,0,8.7,3.9,8.7,8.6C25.2,21.3,21.4,25.2,16.6,25.2 M16.6,0C7.4,0,0,7.4,0,16.5s7.4,16.5,16.6,16.5s16.6-7.4,16.6-16.5
		S25.7,0,16.6,0z">
  </path>
 </g>
</svg>