<?xml version="1.0" encoding="utf-8"?>
<!-- Generator: Adobe Illustrator 24.2.0, SVG Export Plug-In . SVG Version: 6.00 Build 0)  -->
<svg version="1.1" id="Layer_1" xmlns="http://www.w3.org/2000/svg" xmlns:xlink="http://www.w3.org/1999/xlink" x="0px" y="0px"
	 viewBox="0 0 1000 1000" style="enable-background:new 0 0 1000 1000;" xml:space="preserve">
<style type="text/css">
	.st0{fill-rule:evenodd;clip-rule:evenodd;fill:url(#SVGID_1_);}
	.st1{fill:#293856;}
</style>
<g>
	
		<linearGradient id="SVGID_1_" gradientUnits="userSpaceOnUse" x1="202.8024" y1="913.4004" x2="202.8024" y2="915.9506" gradientTransform="matrix(62.4202 0 0 -62.38 -12476.0908 57556.1055)">
		<stop  offset="0" style="stop-color:#325BA9"/>
		<stop  offset="1" style="stop-color:#4B7BBE"/>
	</linearGradient>
	<path class="st0" d="M243.6,419.1H122.2c-10.4,0-18.9,8.5-18.9,18.9v121.2c0,5,2,9.9,5.5,13.4c3.6,3.6,8.4,5.6,13.4,5.6h121.4
		c5,0,9.8-2,13.4-5.6c3.5-3.6,5.5-8.4,5.5-13.4V438C262.5,427.6,254,419.1,243.6,419.1z M171.9,533.7c0,1.7-0.7,3.3-1.9,4.5
		c-1.2,1.2-2.8,1.8-4.5,1.8H139c-3.5,0-6.3-2.8-6.3-6.3v-78.9c0-3.5,2.8-6.3,6.3-6.3h26.5c3.5,0,6.3,2.8,6.3,6.3L171.9,533.7z
		 M233.1,497.4c0,1.7-0.7,3.3-1.9,4.5s-2.8,1.8-4.5,1.8h-26.5c-3.5,0-6.3-2.8-6.3-6.3v-42.7c0-3.5,2.8-6.3,6.3-6.3h26.5
		c3.5,0,6.3,2.8,6.3,6.3L233.1,497.4z"/>
	<g transform="translate(87)">
		<path class="st1" d="M346.1,430.8v30.8h-36.4v116.7h-35.1V461.5h-36.4v-30.8H346.1z"/>
		<path class="st1" d="M390.9,578.2h-32.5V463.4h32.5v22c6.2-15.5,16-24.7,33.6-23.6v34c-23-1.8-33.6,3.8-33.6,22.2V578.2z"/>
		<path class="st1" d="M602,579.1c-21.3,0-34.7-10.2-34.7-34.3V419.1H600v121.2c0,7,4.6,9.4,10.2,9.4c1.6,0,3.2,0,4.8-0.2v28.3
			C610.8,578.8,606.4,579.2,602,579.1L602,579.1z"/>
		<path class="st1" d="M670.2,579.1c-21.3,0-34.7-10.2-34.7-34.3V419.1h32.7v121.2c0,7,4.6,9.4,10.3,9.4c1.6,0,3.2,0,4.8-0.2v28.3
			C679.1,578.8,674.6,579.3,670.2,579.1z"/>
		<path class="st1" d="M699.1,520.8c0-35.4,20.4-59.7,55.5-59.7c35.1,0,55.1,24.2,55.1,59.7s-20.2,60.1-55.1,60.1
			C719.7,580.9,699.1,556,699.1,520.8z M730.9,520.8c0,17.3,7.2,31,23.7,31s23.3-13.7,23.3-31c0-17.3-7-30.6-23.3-30.6
			S730.9,503.5,730.9,520.8z"/>
		<path class="st1" d="M468.3,531.1c9.1,1,18.2,1.5,27.4,1.6c24.9,0,45.9-6.7,45.9-30.8c0-23.4-21.6-41-47.6-41
			c-35,0-57.4,25.4-57.4,60.8c0,36.8,19.3,58.7,63,58.7c13,0.1,25.8-2.2,37.9-6.8v-27.5c-11.2,3.6-23.8,7.2-36.8,7.2
			C483.4,553.4,471.3,547.7,468.3,531.1z M493.4,486.1c9.2,0,16.6,6.2,16.6,14.8c0,11-11.6,14.4-25,14.4c-5.7,0-11.4-0.5-17-1.4
			c0.4-5.4,2-10.6,4.5-15.3C476.7,491,484.7,486.2,493.4,486.1L493.4,486.1z"/>
	</g>
</g>
</svg>
