<?xml version="1.0" encoding="UTF-8" standalone="no"?>
<!-- Created with Inkscape (http://www.inkscape.org/) -->

<svg
   xmlns:dc="http://purl.org/dc/elements/1.1/"
   xmlns:cc="http://creativecommons.org/ns#"
   xmlns:rdf="http://www.w3.org/1999/02/22-rdf-syntax-ns#"
   xmlns:svg="http://www.w3.org/2000/svg"
   xmlns="http://www.w3.org/2000/svg"
   xmlns:sodipodi="http://sodipodi.sourceforge.net/DTD/sodipodi-0.dtd"
   xmlns:inkscape="http://www.inkscape.org/namespaces/inkscape"
   version="1.1"
   id="svg2"
   xml:space="preserve"
   width="1649.4133"
   height="376.52667"
   viewBox="0 0 1649.4133 376.52667"
   sodipodi:docname="turbot-icon-wordmark.svg"
   inkscape:version="0.92.2 5c3e80d, 2017-08-06"><metadata
     id="metadata8"><rdf:RDF><cc:Work
         rdf:about=""><dc:format>image/svg+xml</dc:format><dc:type
           rdf:resource="http://purl.org/dc/dcmitype/StillImage" /><dc:title></dc:title></cc:Work></rdf:RDF></metadata><defs
     id="defs6"><clipPath
       clipPathUnits="userSpaceOnUse"
       id="clipPath26"><path
         d="M 0,282.395 H 1237.061 V 0 H 0 Z"
         id="path24"
         inkscape:connector-curvature="0" /></clipPath></defs><sodipodi:namedview
     pagecolor="#ffffff"
     bordercolor="#666666"
     borderopacity="1"
     objecttolerance="10"
     gridtolerance="10"
     guidetolerance="10"
     inkscape:pageopacity="0"
     inkscape:pageshadow="2"
     inkscape:window-width="640"
     inkscape:window-height="480"
     id="namedview4"
     showgrid="false"
     inkscape:zoom="0.24493557"
     inkscape:cx="824.70667"
     inkscape:cy="188.26334"
     inkscape:window-x="0"
     inkscape:window-y="0"
     inkscape:window-maximized="0"
     inkscape:current-layer="g10" /><g
     id="g10"
     inkscape:groupmode="layer"
     inkscape:label="turbot-icon-wordmark"
     transform="matrix(1.3333333,0,0,-1.3333333,0,376.52667)"><g
       id="g12"
       transform="translate(252.2424,169.6524)"><path
         d="m 0,0 h 51.628 v -102.841 h 38.69 V 0 h 51.627 V 38.015 H 0 Z"
         style="fill:#222017;fill-opacity:1;fill-rule:nonzero;stroke:none"
         id="path14"
         inkscape:connector-curvature="0" /></g><g
       id="g16"
       transform="translate(1094.8406,169.6524)"><path
         d="m 0,0 h 51.628 v -102.841 h 38.69 V 0 h 51.628 V 38.015 H 0 Z"
         style="fill:#222017;fill-opacity:1;fill-rule:nonzero;stroke:none"
         id="path18"
         inkscape:connector-curvature="0" /></g><g
       id="g20"><g
         id="g22"
         clip-path="url(#clipPath26)"><g
           id="g28"
           transform="translate(535.2164,129.0866)"><path
             d="m 0,0 c 0,-5.624 -0.386,-10.204 -1.147,-13.604 -0.697,-3.104 -1.872,-5.51 -3.496,-7.163 -1.615,-1.64 -3.953,-2.79 -6.953,-3.424 -3.324,-0.717 -7.581,-1.075 -12.649,-1.075 H -58.53 c -4.776,0 -8.844,0.358 -12.096,1.068 -2.94,0.641 -5.294,1.804 -6.99,3.463 -1.703,1.665 -2.988,4.103 -3.817,7.226 -0.889,3.355 -1.342,7.904 -1.342,13.509 v 78.832 h -37.817 V -1.005 c 0,-11.034 0.949,-20.478 2.818,-28.081 1.929,-7.848 5.285,-14.314 9.972,-19.221 4.697,-4.92 10.993,-8.527 18.719,-10.732 7.505,-2.143 16.977,-3.236 28.153,-3.236 h 38.646 c 11.316,0 20.895,1.093 28.473,3.236 7.801,2.199 14.141,5.812 18.838,10.732 4.687,4.907 8.043,11.373 9.972,19.221 1.869,7.615 2.818,17.066 2.818,28.081 V 78.832 H 0 Z"
             style="fill:#222017;fill-opacity:1;fill-rule:nonzero;stroke:none"
             id="path30"
             inkscape:connector-curvature="0" /></g><g
           id="g32"
           transform="translate(625.3208,204.538)"><path
             d="m 0,0 c -7.402,-2.293 -13.56,-5.932 -18.3,-10.826 -4.735,-4.883 -8.229,-11.197 -10.384,-18.769 -2.102,-7.37 -3.167,-16.387 -3.167,-26.793 v -81.339 H 5.963 v 81.088 c 0,5.134 0.383,9.413 1.144,12.724 0.697,3.054 1.819,5.448 3.342,7.119 1.499,1.653 3.5,2.796 6.114,3.513 2.843,0.773 6.453,1.162 10.726,1.162 H 88.114 V 3.381 H 26.412 C 16.114,3.381 7.229,2.243 0,0"
             style="fill:#222017;fill-opacity:1;fill-rule:nonzero;stroke:none"
             id="path34"
             inkscape:connector-curvature="0" /></g><g
           id="g36"
           transform="translate(772.7311,115.8789)"><path
             d="m 0,0 c -0.691,3.374 -1.043,7.785 -1.043,13.113 v 41.666 h 62.325 c 4.892,0 8.986,-0.358 12.156,-1.062 2.837,-0.635 5.055,-1.778 6.588,-3.387 1.549,-1.627 2.654,-4.059 3.289,-7.226 0.698,-3.5 1.05,-8.118 1.05,-13.742 V 13.358 C 84.365,7.898 84.013,3.405 83.321,0 82.68,-3.11 81.562,-5.555 79.988,-7.276 c -1.542,-1.697 -3.764,-2.91 -6.607,-3.607 -3.138,-0.785 -7.21,-1.175 -12.099,-1.175 H 21.816 c -4.885,0 -8.916,0.39 -11.979,1.169 -2.778,0.703 -4.964,1.916 -6.51,3.613 C 1.753,-5.555 0.635,-3.104 0,0 m 109.407,77.845 c -4.69,4.908 -10.98,8.508 -18.693,10.714 -7.506,2.142 -17.041,3.229 -28.335,3.229 H -1.043 v 44.148 H -38.86 V 12.202 c 0,-11.04 0.949,-20.484 2.815,-28.08 1.926,-7.842 5.275,-14.308 9.956,-19.221 4.688,-4.92 10.98,-8.527 18.693,-10.733 7.5,-2.142 16.956,-3.235 28.116,-3.235 h 41.659 c 11.294,0 20.829,1.087 28.335,3.229 7.722,2.206 14.012,5.812 18.696,10.713 4.672,4.902 8.021,11.355 9.956,19.19 1.867,7.597 2.812,17.028 2.812,28.03 v 18.279 c 0,11.002 -0.945,20.471 -2.812,28.15 -1.932,7.923 -5.281,14.42 -9.959,19.321"
             style="fill:#222017;fill-opacity:1;fill-rule:nonzero;stroke:none"
             id="path38"
             inkscape:connector-curvature="0" /></g><g
           id="g40"
           transform="translate(954.3034,115.929)"><path
             d="m 0,0 c -0.757,3.381 -1.144,7.854 -1.144,13.308 v 16.004 c 0,5.448 0.387,9.972 1.147,13.447 0.688,3.148 1.926,5.617 3.676,7.339 1.744,1.709 4.257,2.909 7.471,3.556 3.556,0.717 8.219,1.075 13.855,1.075 h 30.918 c 5.639,0 10.339,-0.358 13.968,-1.075 3.286,-0.653 5.834,-1.847 7.574,-3.556 1.75,-1.722 2.988,-4.191 3.679,-7.339 0.761,-3.488 1.147,-8.011 1.147,-13.447 V 13.308 C 82.291,7.867 81.905,3.393 81.148,0 c -0.692,-3.073 -1.929,-5.504 -3.679,-7.226 -1.76,-1.728 -4.327,-2.972 -7.629,-3.695 -3.594,-0.791 -8.278,-1.187 -13.917,-1.187 H 25.005 c -5.636,0 -10.28,0.396 -13.802,1.187 C 7.971,-10.204 5.438,-8.96 3.679,-7.226 1.926,-5.504 0.688,-3.073 0,0 m 107.349,77.651 c -4.687,5.001 -10.983,8.652 -18.709,10.857 -7.505,2.143 -17.037,3.23 -28.332,3.23 H 20.622 c -11.153,0 -20.613,-1.087 -28.115,-3.23 -7.713,-2.199 -14.003,-5.805 -18.693,-10.713 -4.684,-4.907 -8.033,-11.404 -9.959,-19.321 -1.866,-7.666 -2.812,-17.135 -2.812,-28.15 V 12.045 c 0,-11.014 0.946,-20.446 2.812,-28.03 1.926,-7.829 5.275,-14.288 9.959,-19.19 4.681,-4.907 10.974,-8.508 18.693,-10.713 7.502,-2.142 16.962,-3.23 28.115,-3.23 h 39.686 c 11.295,0 20.827,1.088 28.332,3.23 7.723,2.205 14.013,5.812 18.694,10.713 4.678,4.902 8.03,11.354 9.959,19.19 1.866,7.597 2.812,17.028 2.812,28.03 v 18.028 c 0,11.002 -0.946,20.471 -2.812,28.149 -1.929,7.924 -5.272,14.458 -9.944,19.429"
             style="fill:#222017;fill-opacity:1;fill-rule:nonzero;stroke:none"
             id="path42"
             inkscape:connector-curvature="0" /></g><g
           id="g44"
           transform="translate(87.9191,48.3525)"><path
             d="m 0,0 c 0.61,-3.768 0.989,-7.536 1.283,-11.304 0.161,-1.884 0.241,-3.768 0.365,-5.652 0.1,-1.884 0.146,-3.768 0.221,-5.652 l 0.085,-2.109 -2.349,0.281 c -0.274,0.033 -0.722,0.073 -1.105,0.087 -0.397,0.03 -0.802,0.029 -1.206,0.027 -0.81,-0.014 -1.619,-0.094 -2.417,-0.225 -0.798,-0.136 -1.575,-0.347 -2.342,-0.582 -0.755,-0.267 -1.511,-0.533 -2.221,-0.904 -0.373,-0.152 -0.707,-0.374 -1.05,-0.582 -0.337,-0.215 -0.701,-0.392 -1.006,-0.657 -0.651,-0.476 -1.274,-0.986 -1.859,-1.558 -0.635,-0.514 -1.12,-1.194 -1.681,-1.803 -0.287,-0.3 -0.487,-0.677 -0.737,-1.011 l -0.726,-1.033 -1.02,-1.452 -1.24,0.808 c -0.175,0.114 -0.491,0.279 -0.759,0.405 -0.285,0.131 -0.574,0.255 -0.873,0.361 -0.593,0.225 -1.207,0.377 -1.827,0.502 -0.621,0.095 -1.244,0.171 -1.875,0.173 -0.315,0.005 -0.621,-0.046 -0.939,-0.063 -0.322,-0.003 -0.613,-0.123 -0.928,-0.177 -0.319,-0.048 -0.611,-0.172 -0.913,-0.282 -0.301,-0.113 -0.623,-0.197 -0.899,-0.376 l -0.874,-0.477 -0.806,-0.614 c -0.588,-0.371 -1.008,-0.935 -1.538,-1.41 -0.471,-0.526 -0.91,-1.095 -1.378,-1.659 0.271,0.665 0.511,1.367 0.829,2.038 0.4,0.615 0.699,1.329 1.214,1.893 l 0.745,0.881 0.882,0.769 c 0.286,0.278 0.635,0.467 0.971,0.683 0.335,0.221 0.684,0.423 1.063,0.56 0.376,0.139 0.742,0.342 1.137,0.424 0.391,0.095 0.785,0.222 1.184,0.286 0.802,0.132 1.616,0.197 2.426,0.153 0.804,-0.056 1.607,-0.157 2.39,-0.348 0.393,-0.087 0.782,-0.198 1.169,-0.323 0.4,-0.135 0.745,-0.253 1.208,-0.47 l -2.26,-0.643 0.736,1.267 c 0.261,0.414 0.469,0.861 0.779,1.249 0.607,0.781 1.14,1.623 1.865,2.325 0.35,0.358 0.674,0.745 1.053,1.077 l 1.178,0.954 c 0.38,0.335 0.827,0.583 1.249,0.863 0.428,0.274 0.85,0.558 1.313,0.769 0.895,0.488 1.839,0.865 2.797,1.206 0.976,0.279 1.959,0.516 2.958,0.661 0.999,0.14 2.003,0.213 3.01,0.206 0.504,-0.009 1.008,-0.022 1.515,-0.071 0.523,-0.049 0.979,-0.121 1.597,-0.252 l -2.264,-1.827 c 0.076,1.884 0.122,3.768 0.222,5.652 0.124,1.884 0.204,3.768 0.365,5.652 C -0.989,-7.536 -0.61,-3.768 0,0"
             style="fill:#232118;fill-opacity:1;fill-rule:nonzero;stroke:none"
             id="path46"
             inkscape:connector-curvature="0" /></g><g
           id="g48"
           transform="translate(75.2254,48.3525)"><path
             d="m 0,0 c 0.444,-2.643 0.792,-5.287 1.086,-7.93 0.305,-2.643 0.554,-5.286 0.759,-7.93 l 0.173,-2.218 -2.65,0.484 c -0.24,0.044 -0.627,0.119 -0.96,0.16 -0.347,0.048 -0.697,0.08 -1.05,0.101 -0.7,0.066 -1.403,0.069 -2.097,0.049 -0.694,-0.043 -1.376,-0.12 -2.041,-0.251 -0.336,-0.047 -0.654,-0.164 -0.979,-0.239 -0.329,-0.068 -0.635,-0.197 -0.944,-0.311 -0.627,-0.206 -1.202,-0.514 -1.786,-0.787 l -0.824,-0.507 c -0.287,-0.146 -0.519,-0.386 -0.777,-0.577 -0.245,-0.213 -0.527,-0.368 -0.741,-0.624 l -0.686,-0.697 c -0.456,-0.465 -0.82,-1.042 -1.242,-1.543 l -1.223,-1.457 -1.916,0.447 c -0.485,0.113 -1.149,0.276 -1.746,0.393 -0.62,0.1 -1.235,0.238 -1.862,0.298 -1.246,0.16 -2.504,0.27 -3.734,0.247 -0.618,0.005 -1.234,0.002 -1.832,-0.073 -0.602,-0.063 -1.216,-0.064 -1.789,-0.193 -0.571,-0.123 -1.192,-0.138 -1.726,-0.338 -0.542,-0.177 -1.118,-0.297 -1.64,-0.504 l -1.535,-0.668 -1.379,-0.889 c -0.491,-0.262 -0.809,-0.724 -1.243,-1.061 -0.2,-0.186 -0.419,-0.356 -0.613,-0.553 l -0.495,-0.677 c -0.309,-0.469 -0.735,-0.854 -0.975,-1.389 l -0.777,-1.577 c -0.316,-0.498 -0.401,-1.13 -0.611,-1.701 l -0.584,-1.756 -0.829,-2.489 -1.985,0.568 c -0.195,0.056 -0.668,0.142 -1.04,0.165 -0.397,0.048 -0.803,0.036 -1.212,0.044 -0.81,-0.043 -1.63,-0.141 -2.419,-0.356 -0.401,-0.093 -0.804,-0.196 -1.18,-0.366 -0.391,-0.142 -0.781,-0.294 -1.137,-0.518 -0.365,-0.205 -0.756,-0.384 -1.081,-0.664 -0.331,-0.269 -0.715,-0.486 -1.019,-0.801 l -0.966,-0.914 c -0.309,-0.324 -0.569,-0.699 -0.863,-1.05 -0.299,-0.349 -0.575,-0.721 -0.797,-1.133 l -0.745,-1.202 c -0.246,-0.407 -0.423,-0.853 -0.64,-1.283 l -0.621,-1.317 -1.059,-2.766 c 0.025,0.991 0.102,1.988 0.156,3.003 l 0.269,1.492 c 0.104,0.498 0.167,1.012 0.309,1.506 0.331,0.972 0.574,1.999 1.09,2.929 0.242,0.471 0.453,0.966 0.731,1.427 l 0.919,1.351 c 0.314,0.45 0.735,0.82 1.107,1.235 0.366,0.426 0.82,0.759 1.261,1.115 0.43,0.374 0.91,0.675 1.405,0.962 0.482,0.317 0.999,0.559 1.528,0.786 1.049,0.482 2.178,0.739 3.312,0.946 0.573,0.068 1.146,0.148 1.733,0.158 0.61,0.022 1.118,0.02 1.893,-0.077 l -2.812,-1.92 0.436,2.25 c 0.172,0.751 0.267,1.509 0.608,2.238 l 0.894,2.206 c 0.29,0.74 0.819,1.395 1.232,2.095 l 0.67,1.03 c 0.261,0.318 0.556,0.613 0.836,0.919 0.592,0.576 1.094,1.277 1.798,1.722 0.676,0.48 1.35,0.979 2.049,1.422 l 2.214,1.074 c 0.751,0.312 1.529,0.501 2.296,0.748 0.769,0.271 1.546,0.324 2.32,0.489 0.778,0.166 1.546,0.206 2.318,0.252 0.775,0.069 1.537,0.058 2.297,0.034 1.526,-0.014 3.022,-0.181 4.502,-0.409 0.744,-0.095 1.474,-0.27 2.21,-0.411 0.749,-0.181 1.43,-0.323 2.266,-0.606 l -3.139,-1.01 c 0.633,0.685 1.202,1.41 1.901,2.036 l 1.061,0.924 c 0.338,0.322 0.764,0.554 1.145,0.829 0.398,0.255 0.766,0.55 1.199,0.75 l 1.262,0.644 c 0.876,0.344 1.745,0.726 2.666,0.898 0.454,0.107 0.906,0.221 1.366,0.267 0.458,0.052 0.913,0.142 1.37,0.156 0.914,0.063 1.819,0.053 2.716,-0.006 0.894,-0.082 1.778,-0.197 2.645,-0.392 0.433,-0.101 0.863,-0.218 1.29,-0.354 0.441,-0.139 0.822,-0.272 1.334,-0.481 l -2.476,-1.734 c 0.205,2.644 0.454,5.287 0.76,7.93 C -0.792,-5.287 -0.444,-2.643 0,0"
             style="fill:#232118;fill-opacity:1;fill-rule:nonzero;stroke:none"
             id="path50"
             inkscape:connector-curvature="0" /></g><g
           id="g52"
           transform="translate(158.6449)"><path
             d="m 0,0 c -0.377,0.924 -0.706,1.859 -1.061,2.788 l -0.62,1.311 C -1.898,4.526 -2.07,4.962 -2.315,5.368 L -3.061,6.57 C -3.282,6.982 -3.558,7.354 -3.857,7.703 -4.15,8.055 -4.41,8.43 -4.72,8.755 l -0.966,0.914 c -0.304,0.315 -0.689,0.532 -1.019,0.802 -0.325,0.281 -0.716,0.46 -1.082,0.666 -0.355,0.223 -0.746,0.376 -1.137,0.518 -0.377,0.171 -0.779,0.274 -1.18,0.368 -0.792,0.211 -1.611,0.313 -2.423,0.355 -0.408,-0.008 -0.815,0.004 -1.212,-0.043 -0.373,-0.023 -0.846,-0.11 -1.042,-0.165 l -1.979,-0.564 -0.823,2.477 -0.585,1.757 c -0.217,0.569 -0.296,1.204 -0.614,1.701 l -0.776,1.578 c -0.241,0.536 -0.667,0.92 -0.976,1.39 l -0.495,0.677 c -0.194,0.197 -0.413,0.368 -0.614,0.554 -0.431,0.341 -0.757,0.794 -1.243,1.062 l -1.373,0.901 -1.533,0.682 c -0.524,0.207 -1.103,0.321 -1.647,0.495 -0.536,0.197 -1.159,0.207 -1.731,0.326 -0.573,0.127 -1.189,0.122 -1.79,0.176 -0.598,0.07 -1.214,0.069 -1.832,0.06 -1.23,0.02 -2.483,-0.114 -3.73,-0.256 -0.627,-0.056 -1.243,-0.19 -1.863,-0.285 -0.597,-0.116 -1.264,-0.264 -1.747,-0.387 l -1.894,-0.48 -1.254,1.493 c -0.421,0.501 -0.785,1.078 -1.24,1.543 l -0.686,0.697 c -0.214,0.255 -0.496,0.411 -0.74,0.624 -0.258,0.191 -0.49,0.43 -0.776,0.576 l -0.824,0.508 c -0.583,0.276 -1.16,0.576 -1.786,0.783 -0.308,0.115 -0.615,0.243 -0.943,0.312 -0.325,0.074 -0.642,0.191 -0.978,0.239 -0.665,0.131 -1.347,0.208 -2.04,0.251 -0.694,0.021 -1.396,0.019 -2.096,-0.049 -0.352,-0.024 -0.703,-0.053 -1.049,-0.102 -0.332,-0.04 -0.719,-0.115 -0.959,-0.158 l -2.665,-0.484 0.176,2.226 c 0.208,2.643 0.454,5.286 0.763,7.93 0.294,2.643 0.645,5.286 1.091,7.93 0.446,-2.644 0.797,-5.287 1.091,-7.93 0.308,-2.644 0.554,-5.287 0.763,-7.93 l -2.488,1.742 c 0.513,0.209 0.893,0.343 1.335,0.482 0.427,0.135 0.857,0.255 1.29,0.353 0.869,0.193 1.752,0.31 2.647,0.391 0.897,0.06 1.803,0.071 2.717,0.007 0.457,-0.013 0.912,-0.103 1.371,-0.155 0.46,-0.046 0.912,-0.16 1.367,-0.267 0.921,-0.171 1.788,-0.56 2.665,-0.901 l 1.263,-0.645 c 0.433,-0.2 0.802,-0.495 1.2,-0.749 0.381,-0.276 0.808,-0.507 1.146,-0.83 l 1.062,-0.924 c 0.699,-0.626 1.268,-1.351 1.901,-2.036 l -3.147,1.013 c 0.838,0.274 1.516,0.429 2.265,0.612 0.735,0.145 1.465,0.325 2.208,0.425 1.48,0.244 2.98,0.388 4.506,0.398 0.761,0.02 1.523,0.027 2.298,-0.046 0.772,-0.054 1.539,-0.101 2.316,-0.27 0.773,-0.169 1.549,-0.226 2.316,-0.499 0.765,-0.251 1.54,-0.445 2.289,-0.758 l 2.217,-1.06 c 0.699,-0.439 1.375,-0.934 2.053,-1.41 0.709,-0.439 1.203,-1.149 1.798,-1.721 0.28,-0.306 0.575,-0.601 0.836,-0.918 l 0.67,-1.03 c 0.413,-0.7 0.942,-1.355 1.232,-2.094 l 0.894,-2.205 c 0.339,-0.729 0.44,-1.485 0.604,-2.238 l 0.437,-2.249 -2.802,1.913 c 0.774,0.096 1.283,0.099 1.892,0.077 0.586,-0.01 1.16,-0.09 1.732,-0.158 1.133,-0.207 2.263,-0.46 3.31,-0.946 0.529,-0.227 1.046,-0.469 1.527,-0.785 0.495,-0.287 0.975,-0.588 1.405,-0.961 0.44,-0.356 0.894,-0.688 1.26,-1.114 0.372,-0.414 0.793,-0.784 1.108,-1.233 l 0.917,-1.352 C -2.283,9.891 -2.071,9.397 -1.829,8.926 -1.312,7.997 -1.07,6.97 -0.739,5.998 -0.596,5.503 -0.528,4.979 -0.424,4.479 -0.333,3.974 -0.226,3.475 -0.154,2.981 -0.104,1.987 -0.028,0.999 0,0"
             style="fill:#232118;fill-opacity:1;fill-rule:nonzero;stroke:none"
             id="path54"
             inkscape:connector-curvature="0" /></g><g
           id="g56"
           transform="translate(100.6128,24.1763)"><path
             d="m 0,0 c 1.389,-0.016 2.764,-0.364 4.092,-0.844 1.323,-0.507 2.571,-1.244 3.694,-2.167 1.094,-0.95 2.072,-2.078 2.772,-3.374 0.721,-1.283 1.191,-2.694 1.439,-4.123 l -1.494,0.627 c 0.353,0.215 0.633,0.361 0.951,0.507 0.308,0.152 0.625,0.267 0.941,0.385 0.638,0.215 1.282,0.405 1.936,0.531 1.305,0.275 2.642,0.34 3.953,0.252 1.306,-0.134 2.604,-0.341 3.814,-0.81 1.219,-0.429 2.373,-0.993 3.441,-1.673 -1.228,0.334 -2.416,0.703 -3.645,0.856 -1.216,0.2 -2.436,0.242 -3.634,0.21 -1.202,-0.038 -2.38,-0.257 -3.521,-0.551 -0.571,-0.147 -1.124,-0.351 -1.664,-0.571 -0.263,-0.123 -0.534,-0.233 -0.787,-0.363 -0.253,-0.118 -0.524,-0.275 -0.705,-0.389 l -1.195,-0.75 -0.3,1.377 C 9.817,-9.626 9.406,-8.429 8.843,-7.308 8.249,-6.205 7.535,-5.157 6.633,-4.251 4.853,-2.426 2.569,-0.975 0,0"
             style="fill:#232118;fill-opacity:1;fill-rule:nonzero;stroke:none"
             id="path58"
             inkscape:connector-curvature="0" /></g><g
           id="g60"
           transform="translate(99.5018,62.1478)"><path
             d="m 0,0 v 24.53 c 0,1.814 -1.472,3.307 -3.285,3.307 h -16.574 c -1.813,0 -3.306,-1.493 -3.306,-3.307 V 0 c 0,-1.813 1.493,-3.306 3.306,-3.306 H -3.285 C -1.472,-3.306 0,-1.813 0,0 M 6.613,24.53 V 0 c 0,-5.461 -4.437,-9.919 -9.898,-9.919 h -16.574 c -5.461,0 -9.919,4.458 -9.919,9.919 v 24.53 c 0,5.461 4.458,9.919 9.919,9.919 h 16.574 c 5.461,0 9.898,-4.458 9.898,-9.919"
             style="fill:#232118;fill-opacity:1;fill-rule:nonzero;stroke:none"
             id="path62"
             inkscape:connector-curvature="0" /></g><g
           id="g64"
           transform="translate(99.5018,86.6783)"><path
             d="m 0,0 v -24.53 c 0,-1.814 -1.472,-3.307 -3.285,-3.307 h -16.574 c -1.813,0 -3.306,1.493 -3.306,3.307 V 0 c 0,1.813 1.493,3.306 3.306,3.306 H -3.285 C -1.472,3.306 0,1.813 0,0"
             style="fill:#fcc119;fill-opacity:1;fill-rule:nonzero;stroke:none"
             id="path66"
             inkscape:connector-curvature="0" /></g><g
           id="g68"
           transform="translate(96.2168,89.9846)"><path
             d="m 0,0 h -5.155 c 1.813,0 3.285,-1.493 3.285,-3.306 v -24.531 c 0,-1.813 -1.472,-3.306 -3.285,-3.306 H 0 c 1.813,0 3.285,1.493 3.285,3.306 V -3.306 C 3.285,-1.493 1.813,0 0,0"
             style="fill:#e9a722;fill-opacity:1;fill-rule:nonzero;stroke:none"
             id="path70"
             inkscape:connector-curvature="0" /></g><g
           id="g72"
           transform="translate(155.2015,128.9494)"><path
             d="M 0,0 C 2.536,0.828 8.537,-4.662 11.855,-14.821 15.172,-24.98 13.573,-32.974 11.037,-33.802 8.523,-34.623 2.493,-29.12 -0.824,-18.961 -4.141,-8.802 -2.515,-0.821 0,0"
             style="fill:#fcc119;fill-opacity:1;fill-rule:nonzero;stroke:none"
             id="path74"
             inkscape:connector-curvature="0" /></g><g
           id="g76"
           transform="translate(153.215,135.0325)"><path
             d="m 0,0 c 7.227,2.36 15.903,-5.735 20.18,-18.834 4.277,-13.099 2.057,-24.775 -5.17,-27.134 -7.226,-2.36 -15.909,5.755 -20.187,18.854 C -9.454,-14.015 -7.227,-2.36 0,0 m 13.024,-39.885 c 2.535,0.828 4.134,8.822 0.817,18.981 -3.317,10.159 -9.319,15.649 -11.855,14.821 -2.514,-0.821 -4.141,-8.802 -0.823,-18.961 3.317,-10.159 9.346,-15.662 11.861,-14.841"
             style="fill:#232118;fill-opacity:1;fill-rule:nonzero;stroke:none"
             id="path78"
             inkscape:connector-curvature="0" /></g><g
           id="g80"
           transform="translate(167.0561,114.1284)"><path
             d="m 0,0 c -3.317,10.159 -9.319,15.649 -11.855,14.821 -0.383,-0.125 -0.742,-0.436 -1.07,-0.877 2.941,-1.23 7.384,-6.391 10.07,-14.615 2.81,-8.607 2.087,-15.642 0.26,-18.099 0.691,-0.291 1.299,-0.367 1.778,-0.211 C 1.718,-18.153 3.317,-10.159 0,0"
             style="fill:#e9a722;fill-opacity:1;fill-rule:nonzero;stroke:none"
             id="path82"
             inkscape:connector-curvature="0" /></g><g
           id="g84"
           transform="translate(9.6041,95.148)"><path
             d="M 0,0 C 2.536,-0.828 8.537,4.662 11.855,14.821 15.172,24.98 13.573,32.974 11.037,33.802 8.523,34.623 2.493,29.12 -0.824,18.961 -4.141,8.802 -2.515,0.821 0,0"
             style="fill:#fcc119;fill-opacity:1;fill-rule:nonzero;stroke:none"
             id="path86"
             inkscape:connector-curvature="0" /></g><g
           id="g88"
           transform="translate(2.4412,116.1788)"><path
             d="M 0,0 C 4.277,13.099 12.96,21.214 20.187,18.855 27.413,16.495 29.634,4.819 25.357,-8.28 21.079,-21.379 12.403,-29.474 5.177,-27.114 -2.05,-24.754 -4.277,-13.099 0,0 M 6.339,-2.07 C 3.022,-12.229 4.648,-20.21 7.163,-21.031 9.699,-21.859 15.7,-16.369 19.017,-6.21 22.335,3.949 20.736,11.943 18.2,12.771 15.686,13.592 9.656,8.089 6.339,-2.07"
             style="fill:#232118;fill-opacity:1;fill-rule:nonzero;stroke:none"
             id="path90"
             inkscape:connector-curvature="0" /></g><g
           id="g92"
           transform="translate(21.4588,109.969)"><path
             d="m 0,0 c -3.317,-10.159 -9.319,-15.649 -11.855,-14.821 -0.383,0.125 -0.742,0.436 -1.07,0.877 2.941,1.23 7.384,6.391 10.07,14.615 2.81,8.607 2.087,15.642 0.26,18.099 0.691,0.291 1.299,0.368 1.778,0.211 C 1.718,18.153 3.317,10.159 0,0"
             style="fill:#e9a722;fill-opacity:1;fill-rule:nonzero;stroke:none"
             id="path94"
             inkscape:connector-curvature="0" /></g><g
           id="g96"
           transform="translate(137.449,108.841)"><path
             d="m 0,0 c 1.857,-9.258 0.217,-17.918 -4.622,-24.381 -4.84,-6.485 -12.326,-10.047 -21.096,-10.047 h -47.624 c -8.77,0 -16.256,3.562 -21.096,10.047 -4.839,6.463 -6.479,15.123 -4.622,24.381 l 5.709,28.37 c 4.009,19.987 22.695,36.241 41.619,36.241 h 4.404 c 18.943,0 37.61,-16.254 41.62,-36.241 z"
             style="fill:#fcc119;fill-opacity:1;fill-rule:nonzero;stroke:none"
             id="path98"
             inkscape:connector-curvature="0" /></g><g
           id="g100"
           transform="translate(132.8267,84.4599)"><path
             d="m 0,0 c 4.839,6.463 6.479,15.124 4.622,24.381 l -5.708,28.37 c -4.01,19.987 -22.677,36.241 -41.619,36.241 h -4.405 c -18.923,0 -37.61,-16.254 -41.619,-36.241 l -5.709,-28.37 C -96.295,15.124 -94.655,6.463 -89.816,0 c 4.84,-6.485 12.326,-10.047 21.096,-10.047 h 47.624 C -12.326,-10.047 -4.839,-6.485 0,0 M 12.346,26.194 C 14.716,14.377 12.523,3.157 6.163,-5.354 -0.217,-13.886 -9.896,-18.579 -21.096,-18.579 H -68.72 c -11.199,0 -20.878,4.693 -27.239,13.204 -6.38,8.532 -8.572,19.752 -6.202,31.569 l 5.708,28.37 c 4.761,23.699 26.904,42.961 49.343,42.961 h 4.405 c 22.458,0 44.582,-19.262 49.342,-42.961 z"
             style="fill:#232118;fill-opacity:1;fill-rule:nonzero;stroke:none"
             id="path102"
             inkscape:connector-curvature="0" /></g><g
           id="g104"
           transform="translate(132.7099,84.4599)"><path
             d="m 0,0 c -4.84,-6.485 -12.326,-10.047 -21.096,-10.047 h -6.431 c 8.77,0 16.256,3.562 21.096,10.047 4.839,6.463 6.479,15.123 4.622,24.381 l -5.709,28.37 c -3.938,19.63 -22.034,35.621 -40.606,36.188 0.338,0.01 0.675,0.053 1.014,0.053 h 4.405 c 18.923,0 37.609,-16.254 41.619,-36.241 L 4.622,24.381 C 6.479,15.123 4.839,6.463 0,0"
             style="fill:#e9a722;fill-opacity:1;fill-rule:nonzero;stroke:none"
             id="path106"
             inkscape:connector-curvature="0" /></g><g
           id="g108"
           transform="translate(46.6654,102.4185)"><path
             d="m 0,0 c 0,-1.622 -1.314,-2.936 -2.936,-2.936 -1.621,0 -2.936,1.314 -2.936,2.936 0,1.622 1.315,2.936 2.936,2.936 C -1.314,2.936 0,1.622 0,0"
             style="fill:#232118;fill-opacity:1;fill-rule:nonzero;stroke:none"
             id="path110"
             inkscape:connector-curvature="0" /></g><g
           id="g112"
           transform="translate(49.6015,90.4169)"><path
             d="m 0,0 c 0,-1.622 -1.315,-2.936 -2.936,-2.936 -1.622,0 -2.936,1.314 -2.936,2.936 0,1.622 1.314,2.936 2.936,2.936 C -1.315,2.936 0,1.622 0,0"
             style="fill:#232118;fill-opacity:1;fill-rule:nonzero;stroke:none"
             id="path114"
             inkscape:connector-curvature="0" /></g><g
           id="g116"
           transform="translate(56.5807,83.5466)"><path
             d="m 0,0 c 0,-1.622 -1.314,-2.936 -2.936,-2.936 -1.621,0 -2.936,1.314 -2.936,2.936 0,1.622 1.315,2.936 2.936,2.936 C -1.314,2.936 0,1.622 0,0"
             style="fill:#232118;fill-opacity:1;fill-rule:nonzero;stroke:none"
             id="path118"
             inkscape:connector-curvature="0" /></g><g
           id="g120"
           transform="translate(46.513,250.9446)"><path
             d="M 0,0 -12.17,22.649 -7.196,25.322 4.975,2.673 Z"
             style="fill:#232118;fill-opacity:1;fill-rule:nonzero;stroke:none"
             id="path122"
             inkscape:connector-curvature="0" /></g><g
           id="g124"
           transform="translate(44.2946,274.9303)"><path
             d="m 0,0 c 0,-4.123 -3.342,-7.465 -7.465,-7.465 -4.122,0 -7.464,3.342 -7.464,7.465 0,4.122 3.342,7.465 7.464,7.465 C -3.342,7.465 0,4.122 0,0"
             style="fill:#232118;fill-opacity:1;fill-rule:nonzero;stroke:none"
             id="path126"
             inkscape:connector-curvature="0" /></g><g
           id="g128"
           transform="translate(129.3251,250.9446)"><path
             d="M 0,0 12.17,22.649 7.196,25.322 -4.974,2.673 Z"
             style="fill:#232118;fill-opacity:1;fill-rule:nonzero;stroke:none"
             id="path130"
             inkscape:connector-curvature="0" /></g><g
           id="g132"
           transform="translate(131.5435,274.9303)"><path
             d="m 0,0 c 0,-4.123 3.342,-7.465 7.465,-7.465 4.122,0 7.464,3.342 7.464,7.465 0,4.122 -3.342,7.465 -7.464,7.465 C 3.342,7.465 0,4.122 0,0"
             style="fill:#232118;fill-opacity:1;fill-rule:nonzero;stroke:none"
             id="path134"
             inkscape:connector-curvature="0" /></g><g
           id="g136"
           transform="translate(87.9191,259.4831)"><path
             d="m 0,0 c 49.018,0 78.305,-36.668 78.305,-72.098 0,-34.77 -31.462,-58.127 -78.305,-58.127 -46.843,0 -78.306,23.357 -78.306,58.127 C -78.306,-36.668 -49.018,0 0,0"
             style="fill:#c3dfef;fill-opacity:1;fill-rule:nonzero;stroke:none"
             id="path138"
             inkscape:connector-curvature="0" /></g><g
           id="g140"
           transform="translate(166.2246,187.3849)"><path
             d="m 0,0 c 0,35.43 -29.287,72.098 -78.305,72.098 -49.019,0 -78.306,-36.668 -78.306,-72.098 0,-34.769 31.463,-58.127 78.306,-58.127 C -31.463,-58.127 0,-34.769 0,0 m -78.305,80.631 c 54.35,0 86.837,-40.998 86.837,-80.631 0,-39.249 -35.707,-66.659 -86.837,-66.659 -51.131,0 -86.838,27.41 -86.838,66.659 0,39.633 32.487,80.631 86.838,80.631"
             style="fill:#232118;fill-opacity:1;fill-rule:nonzero;stroke:none"
             id="path142"
             inkscape:connector-curvature="0" /></g><g
           id="g144"
           transform="translate(84.3196,259.3988)"><path
             d="m 0,0 c -46.843,-1.75 -74.706,-37.462 -74.706,-72.014 0,-33.869 29.862,-56.9 74.706,-58.07 44.844,1.17 74.706,24.201 74.706,58.07 C 74.706,-37.462 46.843,-1.75 0,0"
             style="fill:#fcc119;fill-opacity:1;fill-rule:nonzero;stroke:none"
             id="path146"
             inkscape:connector-curvature="0" /></g><g
           id="g148"
           transform="translate(25.1702,168.2796)"><path
             d="m 0,0 c 0,-2.233 -1.81,-4.043 -4.043,-4.043 -2.233,0 -4.044,1.81 -4.044,4.043 0,2.233 1.811,4.043 4.044,4.043 C -1.81,4.043 0,2.233 0,0"
             style="fill:#232118;fill-opacity:1;fill-rule:nonzero;stroke:none"
             id="path150"
             inkscape:connector-curvature="0" /></g><g
           id="g152"
           transform="translate(34.7691,156.281)"><path
             d="m 0,0 c 0,-2.233 -1.81,-4.043 -4.043,-4.043 -2.233,0 -4.044,1.81 -4.044,4.043 0,2.233 1.811,4.043 4.044,4.043 C -1.81,4.043 0,2.233 0,0"
             style="fill:#232118;fill-opacity:1;fill-rule:nonzero;stroke:none"
             id="path154"
             inkscape:connector-curvature="0" /></g><g
           id="g156"
           transform="translate(47.1676,148.1944)"><path
             d="m 0,0 c 0,-2.233 -1.81,-4.043 -4.043,-4.043 -2.233,0 -4.044,1.81 -4.044,4.043 0,2.233 1.811,4.043 4.044,4.043 C -1.81,4.043 0,2.233 0,0"
             style="fill:#232118;fill-opacity:1;fill-rule:nonzero;stroke:none"
             id="path158"
             inkscape:connector-curvature="0" /></g><g
           id="g160"
           transform="translate(63.8954,190.0567)"><path
             d="m 0,0 c 0,-7.466 -3.541,-13.518 -7.908,-13.518 -4.368,0 -7.908,6.052 -7.908,13.518 0,7.466 3.54,13.518 7.908,13.518 C -3.541,13.518 0,7.466 0,0"
             style="fill:#232118;fill-opacity:1;fill-rule:nonzero;stroke:none"
             id="path162"
             inkscape:connector-curvature="0" /></g><g
           id="g164"
           transform="translate(127.759,190.0567)"><path
             d="m 0,0 c 0,-7.466 -3.541,-13.518 -7.908,-13.518 -4.368,0 -7.908,6.052 -7.908,13.518 0,7.466 3.54,13.518 7.908,13.518 C -3.541,13.518 0,7.466 0,0"
             style="fill:#232118;fill-opacity:1;fill-rule:nonzero;stroke:none"
             id="path166"
             inkscape:connector-curvature="0" /></g><g
           id="g168"
           transform="translate(87.9631,259.4831)"><path
             d="m 0,0 c -3.36,0 -6.617,-0.188 -9.789,-0.52 43.098,-4.516 68.517,-38.576 68.517,-71.578 0,-32.286 -27.137,-54.718 -68.517,-57.76 3.184,-0.234 6.442,-0.367 9.789,-0.367 46.843,0 78.306,23.357 78.306,58.127 C 78.306,-36.668 49.018,0 0,0"
             style="fill:#e9a722;fill-opacity:1;fill-rule:nonzero;stroke:none"
             id="path170"
             inkscape:connector-curvature="0" /></g><g
           id="g172"
           transform="translate(90.071,165.7468)"><path
             d="m 0,0 c -6.093,0 -10.669,1.789 -10.955,1.903 -0.838,0.335 -1.245,1.285 -0.912,2.123 0.335,0.839 1.286,1.249 2.124,0.915 C -9.65,4.904 -0.201,1.244 9.042,4.94 9.879,5.275 10.832,4.869 11.167,4.029 11.503,3.19 11.095,2.238 10.256,1.903 6.689,0.476 3.142,0 0,0"
             style="fill:#232118;fill-opacity:1;fill-rule:nonzero;stroke:none"
             id="path174"
             inkscape:connector-curvature="0" /></g></g></g></g></svg>