<?xml version="1.0" standalone="no"?>
<!DOCTYPE svg PUBLIC "-//W3C//DTD SVG 20010904//EN"
 "http://www.w3.org/TR/2001/REC-SVG-20010904/DTD/svg10.dtd">
<svg version="1.0" xmlns="http://www.w3.org/2000/svg"
 width="680.000000pt" height="680.000000pt" viewBox="0 0 680.000000 680.000000"
 preserveAspectRatio="xMidYMid meet">
<metadata>
Created by potrace 1.14, written by Peter Selinger 2001-2017
</metadata>
<g transform="translate(0.000000,680.000000) scale(0.100000,-0.100000)"
fill="#000000" stroke="none">
<path d="M1470 4906 c-160 -45 -284 -175 -344 -361 -44 -141 -46 -178 -46
-1145 0 -777 2 -931 15 -1006 20 -113 39 -172 83 -258 87 -167 235 -256 427
-256 142 0 241 37 332 123 100 94 160 227 188 414 22 143 22 1822 0 1963 -27
180 -81 306 -171 400 -62 65 -125 103 -209 125 -70 18 -212 18 -275 1z"/>
<path d="M3320 4913 c-427 -43 -668 -190 -760 -463 -52 -154 -53 -161 -57
-985 -5 -830 -1 -931 44 -1085 86 -299 320 -450 758 -491 80 -7 375 -9 890 -7
848 4 854 5 1050 69 254 85 399 242 457 499 21 92 22 120 26 875 2 524 0 815
-8 887 -13 127 -49 259 -93 343 -39 72 -142 178 -220 224 -106 63 -272 109
-469 130 -89 10 -1527 14 -1618 4z"/>
</g>
</svg>
