<svg xmlns="http://www.w3.org/2000/svg" id="Layer_1" data-name="Layer 1" viewBox="0 0 106 106"><defs><style>      .cls-1 {        fill: #23a698;      }      .cls-1, .cls-2 {        stroke-width: 0px;      }      .cls-2 {        fill: #fff;      }    </style></defs><path class="cls-1" d="m95.87,0H10.13C4.54,0,0,4.46,0,9.96v86.09c0,5.5,4.54,9.96,10.13,9.96h85.74c5.59,0,10.13-4.46,10.13-9.96V9.96c0-5.5-4.54-9.96-10.13-9.96Z"></path><path class="cls-2" d="m80.72,91.33H25.94c-6.22,0-11.28-5.02-11.28-11.18V25.85c0-6.16,5.06-11.18,11.28-11.18h54.78c6.22,0,11.28,5.02,11.28,11.18v54.31c0,6.17-5.06,11.18-11.28,11.18ZM25.96,18.67c-3.85,0-7.29,3.39-7.29,7.2v54.27c0,3.82,3.45,7.2,7.29,7.2h54.74c3.85,0,7.3-3.39,7.3-7.2V25.87c-.01-3.81-3.45-7.2-7.3-7.2H25.96Z"></path><path class="cls-2" d="m68,72.14c-3,.53-5.9.79-8.7.79-4.89,0-8.22-.88-9.98-2.63-1.77-1.75-2.65-5.08-2.65-9.97v-15.66h-8l-.04-4.67h8.04v-6.67h6v6.67h14.67v4.67h-14.67v16.77c0,1.87.12,3.16.35,3.86.23.7.74,1.32,1.51,1.84,1.38.9,3.39,1.36,6.03,1.36,2.5,0,4.98-.28,7.44-.84v4.49Z"></path></svg>