<svg width="183" height="41" viewBox="0 0 183 41" fill="none" xmlns="http://www.w3.org/2000/svg">
<path d="M13.1298 18.3289V15.3462L7.33008 9.04932L71.2932 17.9975L13.1298 18.3289Z" fill="white" stroke="#564E55" stroke-width="0.828538" stroke-miterlimit="10"/>
<path d="M99.2972 10.7065V23.3003C99.2972 27.443 96.1488 30.26 91.509 30.26C86.8691 30.26 83.7207 27.443 83.7207 23.3003V10.7065H87.2006V22.9689C87.2006 25.2888 89.189 27.2773 91.509 27.2773C93.8289 27.2773 95.8174 25.2888 95.8174 22.9689V10.7065H99.2972Z" fill="black"/>
<path d="M118.851 29.9286H115.703L106.589 16.8377H106.423V29.9286H102.943V10.7065H106.092L115.04 23.7974H115.371V10.7065H118.851V29.9286Z" fill="black"/>
<path d="M126.142 29.9286H122.662V10.7065H126.142V29.9286Z" fill="black"/>
<path d="M138.24 30.0949C133.268 30.0949 129.457 26.4493 129.457 20.1524C129.457 13.8555 133.268 10.21 138.24 10.21C143.211 10.21 147.022 13.8555 147.022 20.1524C147.022 26.4493 143.211 30.0949 138.24 30.0949ZM138.24 13.5241C135.091 13.5241 132.937 15.844 132.937 20.3181C132.937 24.7922 135.091 27.1121 138.24 27.1121C141.388 27.1121 143.542 24.7922 143.542 20.3181C143.542 15.844 141.388 13.5241 138.24 13.5241Z" fill="black"/>
<path d="M166.242 29.9286H163.093L153.98 16.8377H153.814V29.9286H150.334V10.7065H153.482L162.596 23.7974H162.762V10.7065H166.242V29.9286Z" fill="black"/>
<path d="M170.055 10.7065H182.483V13.6893H173.535V18.8262H181.82V21.809H173.535V27.1116H182.648V30.0943H170.055V10.7065Z" fill="black"/>
<path d="M13.627 15.1812V18.1639L71.2932 17.9982L20.2553 15.5126L13.627 15.1812Z" fill="#D4E6FF"/>
<path d="M71.291 17.6665C71.291 17.6665 71.6224 17.8322 71.6224 17.9979C71.6224 18.495 71.291 18.495 71.291 18.495L71.1253 18.3293C70.9596 17.9979 71.1253 17.8322 71.291 17.6665Z" fill="#564E55"/>
<path d="M46.6026 5.23827C46.4369 4.24402 45.4427 3.7469 44.6141 3.91261L38.1515 5.07256L37.1573 2.25553C36.8259 1.5927 36.1631 1.26129 35.5002 1.42699L29.5348 2.58695C28.8719 2.75265 28.3748 3.24978 28.3748 4.07831V7.06105L22.4093 8.22101C21.4151 8.38671 20.7522 9.38096 20.918 10.3752L22.0779 16.5064L47.5969 11.7009L46.6026 5.23827ZM29.7005 3.7469L35.6659 2.75265L36.6602 5.40398L29.8662 6.72964L29.7005 3.7469Z" fill="#FFC476" stroke="#564E55" stroke-width="0.828538" stroke-miterlimit="10"/>
<path d="M21.7441 13.6888L47.2631 8.8833L48.5888 16.3401C48.7545 17.3344 48.0916 18.3286 47.0974 18.4943L23.2355 22.9684L21.7441 13.6888Z" fill="#FF9C24" stroke="#564E55" stroke-width="0.828538" stroke-miterlimit="10"/>
<path d="M1.19727 33.4087L13.1282 18.1636H70.7945L1.19727 33.4087Z" fill="white" stroke="#564E55" stroke-width="0.828538" stroke-miterlimit="10"/>
<path d="M13.1309 30.7574V40.2027L71.1285 18.1636L13.1309 30.7574Z" fill="white" stroke="#564E55" stroke-width="0.828538" stroke-miterlimit="10"/>
<path d="M35.1688 14.1868H35.0031C34.506 14.3525 33.8431 13.8554 33.8431 13.3583L33.5117 11.5355L35.8316 11.2041L36.163 13.0269C35.9973 13.524 35.6659 14.0211 35.1688 14.1868Z" fill="white" stroke="#564E55" stroke-width="0.828538" stroke-miterlimit="10"/>
</svg>
