<?xml version="1.0" encoding="utf-8"?>
<!-- Generator: Adobe Illustrator 27.3.1, SVG Export Plug-In . SVG Version: 6.00 Build 0)  -->
<svg version="1.1" id="Layer_1" xmlns="http://www.w3.org/2000/svg" xmlns:xlink="http://www.w3.org/1999/xlink" x="0px" y="0px"
	 viewBox="0 0 1226.77 225.68" style="enable-background:new 0 0 1226.77 225.68;" xml:space="preserve">
<style type="text/css">
	.st0{fill:#0E131D;}
	.st1{fill:#F9BB30;}
</style>
<g>
	<g>
		<path class="st0" d="M347.05,60.06h22.11l-40.64,113.79h-26.82L261.05,60.06H283l33,95.26h-1.63L347.05,60.06z"/>
		<path class="st0" d="M383.7,169.87c-7.21-4.17-12.87-9.81-16.99-16.91c-4.12-7.1-6.18-14.98-6.18-23.65
			c0-8.56,2.06-16.42,6.18-23.57c4.12-7.15,9.78-12.81,16.99-16.99c7.21-4.17,15.14-6.26,23.82-6.26c8.23,0,15.82,2.09,22.76,6.26
			c6.93,4.17,12.38,9.83,16.34,16.99c3.96,7.15,5.93,15.01,5.93,23.57c0,2.82-0.27,5.58-0.81,8.29l-19.18-8.13
			c0-5.31-1.08-10.08-3.25-14.31c-2.17-4.23-5.2-7.56-9.1-10c-3.9-2.44-8.13-3.66-12.68-3.66c-4.99,0-9.51,1.22-13.57,3.66
			c-4.06,2.44-7.29,5.77-9.67,10c-2.39,4.23-3.58,9-3.58,14.31c0,5.2,1.19,9.89,3.58,14.06c2.38,4.17,5.61,7.48,9.67,9.92
			c4.06,2.44,8.59,3.66,13.57,3.66c4.33,0,8.37-1.06,12.11-3.17c3.74-2.11,6.53-4.96,8.37-8.53h22.11
			c-2.49,9.21-7.64,16.64-15.44,22.27c-7.8,5.64-16.85,8.45-27.15,8.45C398.85,176.13,390.91,174.04,383.7,169.87z M378.91,120.86
			h57.87l14.96,16.74h-72.5L378.91,120.86z"/>
		<path class="st0" d="M462.47,84.77h20v27.8l-7.8,7.15c0.43-7.26,2.09-11.4,4.96-16.99c2.87-5.58,6.64-9.97,11.3-13.17
			c4.66-3.19,9.97-4.8,15.93-4.8c2.06,0,4.44,0.27,7.15,0.81v19.02c-2.6,0-5.2,0-7.8,0c-4.55,0-8.59,0.89-12.11,2.68
			c-3.52,1.79-6.32,4.58-8.37,8.37c-2.06,3.79-3.09,8.51-3.09,14.14v44.05h-20.16V84.77z"/>
		<path class="st0" d="M520.18,53.23h20.48v19.34h-20.48V53.23z M520.34,84.77h20.16v89.08h-20.16V84.77z"/>
		<path class="st0" d="M560.41,67.78c2.76-4.61,6.61-8.18,11.54-10.73c4.93-2.54,10.65-3.82,17.15-3.82h12.52v19.51h-12.03
			c-4.23,0-7.45,1.06-9.67,3.17c-2.22,2.11-3.33,4.69-3.33,7.72v1.95h25.04v19.35h-25.04v68.93h-20.32V83.3
			C556.26,77.56,557.64,72.39,560.41,67.78z"/>
		<path class="st0" d="M609.58,53.23h20.48v19.34h-20.48V53.23z M609.75,84.77h20.16v89.08h-20.16V84.77z"/>
		<path class="st0" d="M663.31,169.87c-7.21-4.17-12.87-9.81-16.99-16.91c-4.12-7.1-6.18-14.98-6.18-23.65
			c0-8.56,2.06-16.42,6.18-23.57c4.12-7.15,9.78-12.81,16.99-16.99c7.21-4.17,15.14-6.26,23.82-6.26c8.23,0,15.82,2.09,22.76,6.26
			c6.93,4.17,12.38,9.83,16.34,16.99c3.96,7.15,5.93,15.01,5.93,23.57c0,2.82-0.27,5.58-0.81,8.29l-19.18-8.13
			c0-5.31-1.08-10.08-3.25-14.31c-2.17-4.23-5.2-7.56-9.1-10c-3.9-2.44-8.13-3.66-12.68-3.66c-4.99,0-9.51,1.22-13.57,3.66
			c-4.06,2.44-7.29,5.77-9.67,10c-2.39,4.23-3.58,9-3.58,14.31c0,5.2,1.19,9.89,3.58,14.06c2.38,4.17,5.61,7.48,9.67,9.92
			c4.06,2.44,8.59,3.66,13.57,3.66c4.33,0,8.37-1.06,12.11-3.17c3.74-2.11,6.53-4.96,8.37-8.53h22.11
			c-2.49,9.21-7.64,16.64-15.44,22.27c-7.8,5.64-16.85,8.45-27.15,8.45C678.45,176.13,670.51,174.04,663.31,169.87z M658.51,120.86
			h57.87l14.96,16.74h-72.5L658.51,120.86z"/>
		<path class="st0" d="M759.14,169.95c-6.83-4.12-12.17-9.75-16.01-16.91c-3.85-7.15-5.77-15.06-5.77-23.73
			c0-8.67,1.92-16.58,5.77-23.73c3.85-7.15,9.18-12.79,16.01-16.91c6.83-4.12,14.52-6.18,23.08-6.18c8.34,0,15.71,2.01,22.11,6.01
			c6.39,4.01,11.32,9.54,14.79,16.58c3.47,7.05,5.2,15.12,5.2,24.22c0,9.11-1.74,17.18-5.2,24.22c-3.47,7.05-8.4,12.57-14.79,16.58
			c-6.4,4.01-13.82,6.01-22.27,6.01S765.97,174.07,759.14,169.95z M797.83,153.21c4.01-2.38,7.18-5.66,9.51-9.84
			c2.33-4.17,3.49-8.86,3.49-14.06c0-5.2-1.17-9.89-3.49-14.06c-2.33-4.17-5.5-7.45-9.51-9.84c-4.01-2.38-8.51-3.58-13.49-3.58
			c-4.88,0-9.38,1.19-13.49,3.58c-4.12,2.39-7.34,5.67-9.67,9.84c-2.33,4.17-3.49,8.86-3.49,14.06c0,5.2,1.16,9.89,3.49,14.06
			c2.33,4.17,5.55,7.45,9.67,9.84c4.12,2.39,8.62,3.58,13.49,3.58C789.32,156.78,793.82,155.59,797.83,153.21z M811,53.23h20v120.62
			h-20V53.23z"/>
		<path class="st0" d="M846.92,53.15h69.85v19.67h-48.87v81.36h50.5v19.67h-71.47V53.15z M866.59,105.06h49.2v19.02h-49.2V105.06z"
			/>
		<path class="st0" d="M927.98,84.77h20.16v19.51v69.58h-20.16V84.77z M975.94,106.31c-3.04-3.09-6.72-4.63-11.05-4.63
			c-3.15,0-5.99,0.71-8.54,2.11c-2.55,1.41-4.55,3.36-6.02,5.85c-1.46,2.49-2.19,5.36-2.19,8.61l-7.15-8.78
			c0.87-5.31,2.65-10,5.36-14.06c2.71-4.06,6.1-7.21,10.16-9.43c4.06-2.22,8.48-3.33,13.25-3.33c5.85,0,11.11,1.52,15.77,4.55
			c4.66,3.04,8.34,7.23,11.05,12.6c2.71,5.37,4.06,11.52,4.06,18.45v55.6h-20.16v-55.6C980.49,113.38,978.97,109.4,975.94,106.31z
			 M1028.45,106.31c-2.93-3.09-6.61-4.63-11.05-4.63c-3.15,0-5.99,0.71-8.54,2.11c-2.55,1.41-4.55,3.36-6.01,5.85
			c-1.46,2.49-2.19,5.36-2.19,8.61l-12.68-12.35c1.08-4.55,3.3-8.59,6.67-12.11c3.36-3.52,7.4-6.26,12.11-8.21s9.62-2.93,14.71-2.93
			c6.07,0,11.51,1.49,16.34,4.47c4.82,2.98,8.56,7.13,11.22,12.44c2.65,5.31,3.98,11.49,3.98,18.53v55.76h-20.16v-55.6
			C1032.84,113.38,1031.38,109.4,1028.45,106.31z"/>
		<path class="st0" d="M1083.07,169.95c-6.83-4.12-12.17-9.75-16.01-16.91c-3.85-7.15-5.77-15.06-5.77-23.73
			c0-8.67,1.92-16.58,5.77-23.73c3.85-7.15,9.18-12.79,16.01-16.91c6.83-4.12,14.52-6.18,23.08-6.18c8.34,0,15.71,2.01,22.11,6.01
			c6.39,4.01,11.32,9.54,14.79,16.58c3.47,7.05,5.2,15.12,5.2,24.22c0,9.11-1.74,17.18-5.2,24.22c-3.47,7.05-8.4,12.57-14.79,16.58
			c-6.4,4.01-13.82,6.01-22.27,6.01S1089.9,174.07,1083.07,169.95z M1121.76,153.21c4.01-2.38,7.18-5.66,9.51-9.84
			c2.33-4.17,3.49-8.86,3.49-14.06c0-5.2-1.17-9.89-3.49-14.06c-2.33-4.17-5.5-7.45-9.51-9.84c-4.01-2.38-8.51-3.58-13.49-3.58
			c-4.88,0-9.38,1.19-13.49,3.58c-4.12,2.39-7.34,5.67-9.67,9.84c-2.33,4.17-3.49,8.86-3.49,14.06c0,5.2,1.16,9.89,3.49,14.06
			c2.33,4.17,5.55,7.45,9.67,9.84c4.12,2.39,8.62,3.58,13.49,3.58C1113.25,156.78,1117.75,155.59,1121.76,153.21z M1134.93,84.77
			h20.16v89.08h-20.16V84.77z"/>
		<path class="st0" d="M1170.69,53.23h20.48v19.34h-20.48V53.23z M1170.85,84.77h20.16v89.08h-20.16V84.77z"/>
		<path class="st0" d="M1206.61,53.23h20.16v120.62h-20.16V53.23z"/>
	</g>
</g>
<polygon class="st0" points="514,91.77 514,84.77 506.85,84.77 512.48,90.4 "/>
<g>
	<polygon class="st1" points="225.68,95.57 154.52,95.57 204.84,45.26 180.42,20.84 130.11,71.16 130.11,0 95.57,0 95.57,71.16 
		45.26,20.84 20.84,45.26 180.42,204.84 204.84,180.42 154.52,130.11 225.68,130.11 	"/>
	<path class="st1" d="M0,95.57v34.53c52.7,0,95.57,42.87,95.57,95.57l34.53,0C130.11,153.94,71.74,95.57,0,95.57z"/>
</g>
</svg>
