<?xml version="1.0" encoding="UTF-8"?> <svg xmlns="http://www.w3.org/2000/svg" xmlns:xlink="http://www.w3.org/1999/xlink" width="191px" height="36px" viewBox="0 0 191 36" version="1.1"><title>Group</title><g id="Page-1" stroke="none" stroke-width="1" fill="none" fill-rule="evenodd"><g id="Tighter-Copy-4" transform="translate(-176.000000, -182.000000)" fill-rule="nonzero"><g id="Group" transform="translate(176.827900, 182.987830)"><g id="winston" fill="#000000"><polygon id="Path" points="24.5448 26.3175699 28.8791 9.66216987 34.9666 9.66216987 27.6616 34.0121699 21.8663 34.0121699 17.4833 18.4768699 12.8081 34.0121699 7.0615 34.0121699 0 9.66216987 6.0875 9.66216987 10.3244 26.3175699 14.8535 9.66216987 20.0644 9.66216987"></polygon><path d="M38.1298912,0 L43.920232,0 L43.920232,5.88765745 L38.1298912,5.88765745 L38.1298912,0 Z M38.1298912,9.68300687 L43.920232,9.68300687 L43.920232,34.0121699 L38.1298912,34.0121699 L38.1298912,9.68300687 Z" id="Shape"></path><path d="M48.797156,34.0121699 L48.797156,9.68300687 L54.6848135,9.68300687 L54.6848135,12.5538481 C55.2038356,11.8077538 55.8363939,11.1751955 56.5824882,10.6561734 C58.1395546,9.52081245 60.0047905,8.95313198 62.1781957,8.95313198 C63.5081899,8.95313198 64.7489772,9.2288625 65.9005576,9.78032353 C67.052138,10.3317846 67.9360976,11.0292206 68.5524364,11.8726315 C69.0390197,12.5214092 69.3958474,13.2999424 69.6229196,14.2082312 C69.8499918,15.1165199 69.9797473,15.9193823 70.0121862,16.6168183 C70.0446251,17.3142543 70.0608445,18.3441889 70.0608445,19.706622 L70.0608445,34.0121699 L64.2705037,34.0121699 L64.2705037,21.6042967 C64.2705037,19.5930859 64.2056259,18.3604083 64.0758704,17.906264 C63.5244094,15.7328587 62.1944151,14.6461561 60.0858877,14.6461561 C59.14516,14.6461561 58.2693102,14.8975575 57.4583381,15.4003602 C56.647366,15.9031629 56.0310272,16.5600503 55.6093217,17.3710224 C54.9929829,18.5712611 54.6848135,20.5986913 54.6848135,23.4533131 L54.6848135,34.0121699 L48.797156,34.0121699 Z" id="Path"></path><path d="M73.4181439,30.4114537 L77.7487349,26.8107376 C79.4355569,28.8868262 81.7711565,29.9248705 84.7555338,29.9248705 C86.2801614,29.9248705 87.4641807,29.6248108 88.3075916,29.0246915 C89.1510026,28.4245721 89.5727081,27.7676847 89.5727081,27.0540293 C89.5727081,25.9835461 88.7292971,25.2861101 87.0424752,24.9617212 C86.8478419,24.9292824 85.9314434,24.7508685 84.2932797,24.4264797 C82.6551161,24.1020908 81.6738399,23.8912381 81.349451,23.7939214 C78.7543403,23.1775826 76.962092,22.2287453 75.972706,20.9474093 C74.98332,19.6660734 74.4886271,18.31175 74.4886271,16.8844391 C74.4886271,14.7110339 75.4293547,12.8457981 77.31081,11.2887316 C79.1922652,9.7316652 81.7224982,8.95313198 84.9015088,8.95313198 C88.0480806,8.95313198 90.7242885,9.7316652 92.9301326,11.2887316 C93.8708602,11.9050704 94.6980518,12.6349453 95.4117072,13.4783563 L91.2757495,17.3223641 C90.010633,14.8570089 87.8047889,13.6243313 84.6582172,13.6243313 C83.3606618,13.6243313 82.3631661,13.8676229 81.6657301,14.3542062 C80.9682941,14.8407894 80.6195761,15.4246893 80.6195761,16.1059059 C80.6195761,16.916878 81.000733,17.5088876 81.7630468,17.8819348 C82.5253606,18.254982 83.7823673,18.5874805 85.5340671,18.8794305 C88.3238111,19.3984526 90.1809372,19.7796095 91.1054454,20.0229011 C92.0299536,20.2661928 92.8490354,20.6797885 93.5626908,21.2636885 C95.2170739,22.5288049 96.0442655,24.2480658 96.0442655,26.421471 C96.0442655,28.5624374 95.0954281,30.4844412 93.1977534,32.1874826 C91.3000787,33.8905241 88.5995416,34.7420448 85.0961421,34.7420448 C80.2951873,34.7420448 76.4025212,33.2985144 73.4181439,30.4114537 Z" id="Path"></path><path d="M111.76078,13.8676229 L106.554339,13.8676229 L106.554339,24.8644046 C106.554339,25.8051322 106.570558,26.4701293 106.602997,26.859396 C106.635436,27.2486626 106.732753,27.6622583 106.894947,28.1001833 C107.057141,28.5381082 107.332872,28.8300582 107.722139,28.9760331 C108.111405,29.1220081 108.646647,29.1949956 109.327863,29.1949956 C110.30103,29.1949956 111.112002,29.0976789 111.76078,28.9030456 L111.76078,33.8175366 C110.203713,34.0770476 108.792622,34.2068032 107.527505,34.2068032 C103.991667,34.2068032 101.850701,33.2174172 101.104606,31.2386453 C100.845095,30.5898676 100.71534,28.9354845 100.71534,26.275496 L100.71534,13.8676229 L97.1632819,13.8676229 L97.1632819,9.68300687 L100.71534,9.68300687 L100.71534,1.07048317 L106.554339,1.07048317 L106.554339,9.68300687 L111.76078,9.68300687 L111.76078,13.8676229 Z" id="Path"></path><path d="M138.852126,21.7502717 C138.852126,25.5456211 137.708655,28.659754 135.421714,31.0926703 C133.134772,33.5255866 130.158505,34.7420448 126.492911,34.7420448 C122.73,34.7420448 119.680745,33.5174769 117.345145,31.0683412 C115.009546,28.6192054 113.841746,25.5131823 113.841746,21.7502717 C113.841746,18.0198001 115.001436,14.9543255 117.320816,12.5538481 C119.640197,10.1533707 122.616464,8.95313198 126.249619,8.95313198 C129.785457,8.95313198 132.761725,10.1128221 135.178422,12.4322023 C137.595119,14.7515825 138.819687,17.8576056 138.852126,21.7502717 Z M132.721176,21.6529551 C132.656299,19.5444276 132.04807,17.7765084 130.896489,16.3491975 C129.744909,14.9218866 128.179733,14.2082312 126.200961,14.2082312 C124.351944,14.2082312 122.843536,14.8894478 121.675736,16.2518809 C120.507937,17.614314 119.924037,19.3984526 119.924037,21.6042967 C119.924037,24.0047742 120.556595,25.9024489 121.821711,27.2973209 C123.086828,28.6921929 124.643894,29.3896289 126.492911,29.3896289 C128.504122,29.3896289 130.061188,28.6354249 131.16411,27.1270167 C132.267032,25.6186086 132.786054,23.7939214 132.721176,21.6529551 Z" id="Shape"></path><path d="M142.841983,34.0121699 L142.841983,9.68300687 L148.729641,9.68300687 L148.729641,12.5538481 C149.248663,11.8077538 149.881221,11.1751955 150.627315,10.6561734 C152.184382,9.52081245 154.049618,8.95313198 156.223023,8.95313198 C157.553017,8.95313198 158.793804,9.2288625 159.945385,9.78032353 C161.096965,10.3317846 161.980925,11.0292206 162.597264,11.8726315 C163.083847,12.5214092 163.440675,13.2999424 163.667747,14.2082312 C163.894819,15.1165199 164.024574,15.9193823 164.057013,16.6168183 C164.089452,17.3142543 164.105672,18.3441889 164.105672,19.706622 L164.105672,34.0121699 L158.315331,34.0121699 L158.315331,21.6042967 C158.315331,19.5930859 158.250453,18.3604083 158.120698,17.906264 C157.569237,15.7328587 156.239242,14.6461561 154.130715,14.6461561 C153.189987,14.6461561 152.314137,14.8975575 151.503165,15.4003602 C150.692193,15.9031629 150.075854,16.5600503 149.654149,17.3710224 C149.03781,18.5712611 148.729641,20.5986913 148.729641,23.4533131 L148.729641,34.0121699 L142.841983,34.0121699 Z" id="Path"></path></g><g id="ai" transform="translate(168.970300, 3.552870)" fill="#3452FE"><path d="M4.4822,10.8371 L0.7061,10.6222 C0.787966667,9.7012 0.992633333,8.9337 1.3201,8.3197 C2.3025,6.5391 4.33893333,5.6488 7.4294,5.6488 C9.3942,5.6488 10.9292,5.97626667 12.0344,6.6312 C12.8530667,7.1224 13.3647333,7.68523333 13.5694,8.3197 C13.7740667,8.95416667 13.8764,9.7933 13.8764,10.8371 L13.8764,18.9726 C13.8764,19.6275333 13.9122167,20.0982667 13.98385,20.3848 C14.0554833,20.6713333 14.2448,21.0295 14.5518,21.4593 L10.1924,21.4593 C10.131,20.7225 10.1003,20.3234 10.1003,20.262 C8.8723,21.3058 7.35776667,21.8277 5.5567,21.8277 C3.87843333,21.8277 2.53275,21.3723167 1.51965,20.46155 C0.50655,19.5507833 -5.68434189e-14,18.4097667 -5.68434189e-14,17.0385 C-5.68434189e-14,16.3017 0.163733333,15.6058333 0.4912,14.9509 C0.757266667,14.4392333 1.08985,13.9940833 1.48895,13.61545 C1.88805,13.2368167 2.34343333,12.94005 2.8551,12.72515 C3.36676667,12.51025 3.79656667,12.35675 4.1445,12.26465 C4.49243333,12.17255 4.92223333,12.0753333 5.4339,11.973 C7.6443,11.5227333 9.23046667,11.1441 10.1924,10.8371 C10.1924,10.5710333 10.1719333,10.3356667 10.131,10.131 C10.0900667,9.92633333 9.99796667,9.68073333 9.8547,9.3942 C9.71143333,9.10766667 9.44536667,8.88765 9.0565,8.73415 C8.66763333,8.58065 8.17643333,8.5039 7.5829,8.5039 C6.25256667,8.5039 5.3418,8.83136667 4.8506,9.4863 C4.605,9.7933 4.4822,10.2435667 4.4822,10.8371 Z M10.1924,15.5035 L10.1924,13.815 C9.41466667,14.2038667 8.34016667,14.5108667 6.9689,14.736 C6.37536667,14.8178667 5.89951667,14.90485 5.54135,14.99695 C5.18318333,15.08905 4.8199,15.2937167 4.4515,15.61095 C4.0831,15.9281833 3.8989,16.3426333 3.8989,16.8543 C3.8989,17.4478333 4.12403333,17.8981 4.5743,18.2051 C5.02456667,18.5121 5.62833333,18.6656 6.3856,18.6656 C7.26566667,18.6656 8.03316667,18.4916333 8.6881,18.1437 C9.34303333,17.7957667 9.77283333,17.3762 9.9775,16.885 C10.1207667,16.578 10.1924,16.1175 10.1924,15.5035 Z" id="Shape"></path><path d="M16.9541538,0 L20.6074538,0 L20.6074538,3.7147 L16.9541538,3.7147 L16.9541538,0 Z M16.9541538,6.1093 L20.6074538,6.1093 L20.6074538,21.4593 L16.9541538,21.4593 L16.9541538,6.1093 Z" id="Shape"></path></g></g></g></g></svg> 