<?xml version="1.0" encoding="UTF-8"?>
<svg version="1.1" xmlns="http://www.w3.org/2000/svg" width="256" height="196">
<path d="M0 0 C4.50509929 3.40629459 8.44898726 7.63432812 10.5625 12.9375 C11.3386635 19.25510988 11.35531716 25.61079305 8 31.1796875 C4.23414265 35.78467611 0.27888598 38.60282565 -5.703125 39.33984375 C-10.09321467 39.38494741 -14.22543208 39.18052497 -18.53515625 38.31640625 C-26.10029514 37.32876362 -33.40494517 42.83409445 -39.22265625 47.14453125 C-42.27315338 49.61398131 -44.41513484 51.54281562 -46.4375 54.9375 C-46.14101562 55.81535156 -45.84453125 56.69320312 -45.5390625 57.59765625 C-44.1866535 61.69804525 -44.37592885 65.0515164 -44.5625 69.3125 C-44.70785337 75.9845046 -44.34021635 80.30024304 -40.4375 85.9375 C-39.633125 87.236875 -39.633125 87.236875 -38.8125 88.5625 C-33.89826004 93.47673996 -26.41664066 98.45617995 -19.4375 98.9375 C-8.94285072 95.11739086 -1.41133774 89.66065829 3.45703125 79.5234375 C4.97448411 74.60109926 4.74567833 70.19636183 4.5324707 65.10131836 C4.31517866 57.73586736 6.23740985 52.55041117 11.27734375 47.07421875 C16.92621313 41.89505842 22.92481909 39.87688348 30.5625 39.9375 C38.96634564 41.14734155 44.78054857 45.07651723 49.9453125 51.71484375 C53.52505695 57.63519035 53.12244812 64.22730206 52.5625 70.9375 C52.2325 71.9275 51.9025 72.9175 51.5625 73.9375 C50.56424033 95.52776737 52.90638311 118.34292363 62.5625 137.9375 C63.00335938 138.83210937 63.44421875 139.72671875 63.8984375 140.6484375 C66.95679128 146.27513257 70.3180943 149.63930469 75.5078125 153.34375 C79.2085427 156.21427837 81.08185901 159.49557702 82.5625 163.9375 C83.37788684 172.45261574 83.48715271 179.67362523 78.41796875 186.91015625 C74.12243472 191.60359238 68.90813253 194.63647908 62.5234375 195.2109375 C54.64920519 195.43395497 48.71849135 195.17072468 42.5625 189.9375 C37.3015237 184.5060817 34.95065962 179.12962385 34.25 171.5625 C34.73271827 165.9629681 36.37541293 161.03322162 39.14453125 156.14453125 C40.80608541 152.38658093 41.01646804 149.21762496 40.9375 145.1875 C40.92879883 144.42743652 40.92009766 143.66737305 40.91113281 142.88427734 C40.73900083 135.7464439 40.07375291 128.65871873 39.3125 121.5625 C39.20341309 120.49418945 39.09432617 119.42587891 38.98193359 118.32519531 C37.83352051 108.58099305 35.58586638 97.90960256 29.5625 89.9375 C26.87298824 88.33483222 26.87298824 88.33483222 23.5625 88.9375 C14.1094611 93.58051204 8.24427665 101.10428798 4.87109375 110.95703125 C3.60823676 115.71703067 3.55108949 120.08397522 3.6875 125 C3.77121569 132.07017066 2.76602098 136.39335148 -1.98046875 141.64453125 C-7.1229597 146.48106164 -12.75716578 148.98993774 -19.8125 149.375 C-27.63907644 149.02475734 -33.60238736 146.28351591 -38.9375 140.5625 C-43.77637456 134.95019877 -44.66586196 130.04001095 -44.3125 122.75 C-44.18601814 111.99904211 -47.26643524 103.91936353 -54.4375 95.9375 C-55.11425781 95.12732422 -55.11425781 95.12732422 -55.8046875 94.30078125 C-57.90787889 92.13223646 -59.9013582 91.03246876 -62.86328125 90.5078125 C-65.77340797 90.4991899 -67.76024075 90.78690531 -70.4375 91.9375 C-79.96203938 102.25198933 -79.48326961 123.55359618 -80.4375 136.9375 C-80.49099609 137.65566895 -80.54449219 138.37383789 -80.59960938 139.11376953 C-81.13822389 147.29251381 -80.54806016 153.39911064 -76.62890625 160.66796875 C-73.80201938 166.05295652 -73.6156849 172.16272218 -74.8984375 178.0546875 C-77.05595519 184.5780057 -81.05011437 189.78205588 -86.9375 193.375 C-93.34339288 196.22069472 -101.16929705 196.03366769 -107.87109375 194.3125 C-113.92039501 191.6710897 -118.67615041 186.45430838 -121.60546875 180.60546875 C-123.71996589 173.8251798 -123.73426388 165.49568894 -120.5625 159.0625 C-118.38075277 155.68171889 -115.85585825 153.61464972 -112.625 151.25 C-99.15036575 141.06381816 -95.29927194 122.74892343 -93.03051758 106.90429688 C-92.45260942 102.58720815 -91.92246912 98.26598532 -91.4375 93.9375 C-98.66323357 98.13204568 -105.54987882 102.68512968 -112.375 107.5 C-118.24761465 111.63288253 -124.1172653 115.75441338 -130.12109375 119.6953125 C-131.43702515 120.56627563 -131.43702515 120.56627563 -132.77954102 121.45483398 C-134.4322571 122.54459116 -136.09264467 123.62282734 -137.76147461 124.68774414 C-142.00073979 127.38813925 -142.00073979 127.38813925 -144.48046875 131.58984375 C-144.49140055 134.12164654 -144.49140055 134.12164654 -143.875 137.3125 C-143.36478724 141.53997718 -143.83453408 144.0029473 -145.4375 147.9375 C-148.37590441 151.51123509 -150.93799371 153.75905788 -155.4375 154.9375 C-160.68415744 155.41446886 -163.99594889 154.79983294 -168.4375 151.9375 C-173.10803735 146.7620397 -173.79038022 143.54381056 -173.71875 136.703125 C-173.32564794 132.8376214 -172.05657755 130.76893519 -169.4375 127.9375 C-164.81345764 124.63574373 -161.20367887 124.55109668 -155.66796875 124.44140625 C-147.3846112 123.14932267 -140.08701804 117.38034426 -133.125 113 C-132.07699219 112.34193359 -131.02898437 111.68386719 -129.94921875 111.00585938 C-123.21076875 106.7493506 -116.53188956 102.41409003 -109.9375 97.9375 C-109.19201904 97.43484619 -108.44653809 96.93219238 -107.6784668 96.41430664 C-98.37577111 90.47421285 -98.37577111 90.47421285 -92.3125 81.8125 C-92.44574339 78.74790213 -93.24188607 76.73354201 -94.4375 73.9375 C-100.29619252 74.37574865 -106.12342216 74.96165934 -111.9375 75.8125 C-113.40703125 76.02519531 -113.40703125 76.02519531 -114.90625 76.2421875 C-117.69169248 77.00732448 -118.64453659 77.72869869 -120.4375 79.9375 C-123.25792744 83.30634389 -124.53277197 84.79209728 -128.9375 85.5 C-133.06257614 84.83704133 -134.69418103 84.08424823 -137.4375 80.9375 C-138.58638518 76.98820721 -138.86879396 74.90791141 -137.1875 71.125 C-135.4375 68.9375 -135.4375 68.9375 -132.4375 66.9375 C-126.11491935 66.4858871 -126.11491935 66.4858871 -122.4375 68.9375 C-113.68328705 70.17253419 -104.13790764 68.0679474 -95.4375 66.9375 C-95.46714844 65.88433594 -95.49679688 64.83117187 -95.52734375 63.74609375 C-95.37644772 57.34941441 -93.58753562 52.22815757 -89.16796875 47.51953125 C-86.97933847 45.5721673 -84.76386077 43.71706657 -82.4375 41.9375 C-85.38770596 31.4389211 -85.38770596 31.4389211 -91.8359375 23.24609375 C-94.20141531 22.50871534 -94.20141531 22.50871534 -96.51953125 22.2890625 C-97.46892578 22.11503906 -97.46892578 22.11503906 -98.4375 21.9375 C-100.89969772 18.24420342 -101.22948683 15.2225656 -100.4375 10.9375 C-98.44163103 7.94369655 -97.05490829 6.29941512 -93.46484375 5.49609375 C-90.09766103 5.30098597 -87.8396831 5.67969032 -85 7.5 C-82.95945028 10.68325756 -82.63863545 13.18297161 -82.4375 16.9375 C-82.62820068 17.58638184 -82.81890137 18.23526367 -83.01538086 18.90380859 C-83.54588197 21.45966415 -83.04672523 22.60608438 -82.00390625 24.9765625 C-81.5253418 26.09417969 -81.5253418 26.09417969 -81.03710938 27.234375 C-80.69486328 28.00265625 -80.35261719 28.7709375 -80 29.5625 C-79.33172095 31.09508662 -78.66621709 32.62888727 -78.00390625 34.1640625 C-77.70427979 34.84033691 -77.40465332 35.51661133 -77.09594727 36.21337891 C-76.4375 37.9375 -76.4375 37.9375 -76.4375 39.9375 C-75.75945312 39.89109375 -75.08140625 39.8446875 -74.3828125 39.796875 C-68.03954844 39.55087584 -63.4020203 40.31130368 -57.62890625 42.96484375 C-53.53796437 44.82218936 -53.53796437 44.82218936 -49.2109375 44.2578125 C-41.87900895 40.60378948 -33.60732309 35.78190864 -30.14453125 28.05078125 C-29.38465411 24.70480293 -29.40580729 21.97859766 -29.625 18.5625 C-29.70337514 12.30673906 -28.80826934 8.47967206 -24.4375 3.9375 C-17.68662017 -2.55862965 -8.64915942 -2.67337655 0 0 Z " fill="#FFFFFF" transform="translate(173.4375,1.0625)"/>
</svg>
