<?xml version="1.0" encoding="utf-8"?>
<!-- Generator: Adobe Illustrator 24.2.0, SVG Export Plug-In . SVG Version: 6.00 Build 0)  -->
<svg version="1.1" id="Layer_1" xmlns="http://www.w3.org/2000/svg" xmlns:xlink="http://www.w3.org/1999/xlink" x="0px" y="0px"
	 viewBox="0 0 1000 1000" style="enable-background:new 0 0 1000 1000;" xml:space="preserve">
<style type="text/css">
	.st0{fill:#04363D;}
</style>
<g>
	<path class="st0" d="M481.3,286.2v270.6H257.2L481.3,286.2z M481.3,189.1c0,61.8-50.1,111.9-111.9,111.9S257.2,251,257.2,189.1
		H481.3z M518.2,556.8c0-61.8,50.1-111.9,111.9-111.9S742.1,495,742.1,556.8H518.2L518.2,556.8z M518.2,459.7V189.1h224.1
		L518.2,459.7z M643.6,788.1c11.5,0.2,22.8-4.1,31.2-12l15.3,16.5c-10.1,10.5-24.2,18.2-46.3,18.2c-37.6,0-61.8-24.9-61.8-58.7
		c-0.7-31.9,24.7-58,56.3-58.7h1.9c37.4,0,58.5,28.3,56.6,67.8h-88C611.9,777.8,623.4,788.3,643.6,788.1 M670.4,742.8
		c-2.4-15.3-11.5-26.6-29.7-26.6c-17,0-28.8,9.6-31.9,26.6H670.4z M64.7,786.9l67.8-69H66.4v-21.6H164v22.1l-67.8,69h68.8v21.6H64.7
		V786.9z M241.1,788.1c11.5,0.2,22.8-4.1,30.9-12l15.3,16.5c-10.1,10.5-24.2,18.2-46.3,18.2c-37.6,0-61.8-24.9-61.8-58.7
		c-0.7-31.9,24.7-58,56.3-58.7h1.9c37.4,0,58.5,28.3,56.6,67.8h-87.7C209.5,777.8,221,788.3,241.1,788.1 M268,742.8
		c-2.4-15.3-11.5-26.6-29.7-26.6c-17,0-28.8,9.6-31.9,26.6H268z M441,752.4c0-36,26.8-58.5,56.6-58.5c14.4-0.2,28,6,37.6,16.8v-66.4
		h24v164.4h-24v-15.6c-9.3,11.3-23.2,18-37.9,17.7C468.6,810.9,441,788.1,441,752.4 M536.4,752.1c-0.5-19.7-17-35.2-36.7-34.8
		s-35.2,17-34.8,36.7c0.5,19.4,16.3,34.8,35.7,34.8C521.3,788.8,536.4,772.5,536.4,752.1 M712.6,784.7l21.8-11.3
		c5.8,10.5,17,16.8,29,16.5c13.7,0,20.6-7,20.6-14.9c0-9.1-13.2-11-27.3-13.9c-19.2-4.1-39.1-10.3-39.1-33.6c0-17.7,17-34.3,43.6-34
		c21.1,0,36.7,8.4,45.5,21.8l-20.1,11c-5.8-8.4-15.3-13.2-25.4-12.9c-12.9,0-19.4,6.2-19.4,13.4c0,8.1,10.3,10.3,26.6,13.9
		c18.5,4.1,39.5,10.1,39.5,33.6c0,15.6-13.7,36.4-45.8,36.2C738.7,810.9,722.2,801.5,712.6,784.7 M872.9,758.6L854,779.5v29.2h-24
		V644.3h24v107.6l50.8-55.8h29.2L890,744.2l45.3,64.5h-27.1L872.9,758.6z M368.7,693.7c-28.5,0-52.5,18.5-52.5,49.1v65.9h24.4v-62.8
		c0-18.5,10.5-29.5,28.8-29.5s27.1,11,27.1,29.5v62.8h24.2v-65.9C420.9,712.1,396.9,693.7,368.7,693.7"/>
</g>
</svg>
