<svg version="1.1" id="Layer_1" xmlns:x="ns_extend;" xmlns:i="ns_ai;" xmlns:graph="ns_graphs;" xmlns="http://www.w3.org/2000/svg" xmlns:xlink="http://www.w3.org/1999/xlink" x="0px" y="0px" viewBox="0 0 181.5 78" style="enable-background:new 0 0 181.5 78;" xml:space="preserve">
 <style type="text/css">
  .st0{fill:#089949;}
	.st1{fill:#F9B21D;}
	.st2{fill:#E42527;}
	.st3{fill:#226DB4;}
	.st4{fill:#FFFFFF;}
 </style>
 <metadata>
  <sfw xmlns="ns_sfw;">
   <slices>
   </slices>
   <sliceSourceBounds bottomLeftOrigin="true" height="78" width="181.5" x="835.3" y="8.1">
   </sliceSourceBounds>
  </sfw>
 </metadata>
 <g>
  <g>
   <g>
    <path class="st0" d="M81.1,62c-1.4,0-2.8-0.3-4.1-0.9l0,0L48.2,48.3C43,46,40.7,40,43,34.8L55.8,6.1c2.3-5.1,8.3-7.5,13.5-5.2
				l28.8,12.8c5.1,2.3,7.5,8.3,5.2,13.5L90.4,56C88.7,59.8,85,62,81.1,62z M79.3,55.7c2.2,1,4.7,0,5.7-2.2l12.8-28.8
				c1-2.2,0-4.7-2.2-5.7L66.9,6.3c-2.2-1-4.7,0-5.7,2.2L48.4,37.2c-1,2.2,0,4.7,2.2,5.7L79.3,55.7z">
    </path>
   </g>
   <g>
    <path class="st1" d="M171.3,62h-31.5c-5.6,0-10.2-4.6-10.2-10.2V20.3c0-5.6,4.6-10.2,10.2-10.2h31.5c5.6,0,10.2,4.6,10.2,10.2
				v31.5C181.5,57.4,176.9,62,171.3,62z M139.8,16c-2.4,0-4.3,1.9-4.3,4.3v31.5c0,2.4,1.9,4.3,4.3,4.3h31.5c2.4,0,4.3-1.9,4.3-4.3
				V20.3c0-2.4-1.9-4.3-4.3-4.3H139.8z">
    </path>
   </g>
   <path class="st2" d="M53.3,26.1l-4.2,9.5c-0.1,0.1-0.1,0.2-0.2,0.3l1.7,10.2c0.4,2.4-1.2,4.6-3.6,4.9l-31.1,5
			c-1.1,0.2-2.3-0.1-3.2-0.8c-0.9-0.7-1.5-1.7-1.7-2.8l-5-31.1c-0.2-1.1,0.1-2.3,0.8-3.2c0.7-0.9,1.7-1.5,2.8-1.7l31.1-5
			c0.2,0,0.5-0.1,0.7-0.1c2.1,0,3.9,1.5,4.3,3.6l1.7,10.3l4.4-9.8l-0.2-1.4c-0.9-5.6-6.1-9.4-11.7-8.5l-31.1,5
			c-2.7,0.4-5.1,1.9-6.6,4.1c-1.6,2.2-2.2,4.9-1.8,7.6l5,31.1c0.4,2.7,1.9,5.1,4.1,6.7c1.7,1.3,3.8,1.9,6,1.9c0.5,0,1.1,0,1.7-0.1
			l31.1-5c5.6-0.9,9.4-6.1,8.5-11.7L53.3,26.1z">
   </path>
   <g>
    <path class="st3" d="M90.6,40.9l4.6-10.2l-1.3-9.5c-0.2-1.1,0.1-2.3,0.8-3.2c0.7-0.9,1.7-1.5,2.9-1.7l31.2-4.2c0.2,0,0.4,0,0.6,0
				c0.9,0,1.8,0.3,2.6,0.9c0.1,0.1,0.3,0.2,0.4,0.3c1.4-1.5,3.2-2.5,5.2-2.9c-0.6-0.8-1.3-1.5-2.1-2.1c-2.2-1.7-4.9-2.4-7.6-2
				l-31.3,4.2c-2.7,0.4-5.1,1.8-6.7,3.9c-1.7,2.2-2.4,4.9-2,7.6L90.6,40.9z">
    </path>
    <path class="st3" d="M143.8,46.2L139.7,16c-2.3,0.1-4.2,2-4.2,4.3v8.9l2.4,17.8c0.2,1.1-0.1,2.3-0.8,3.2s-1.7,1.5-2.9,1.7
				L103,56.1c-1.1,0.2-2.3-0.1-3.2-0.8c-0.9-0.7-1.5-1.7-1.7-2.9l-1.4-10.6L92.2,52l0.2,1.2c0.4,2.7,1.8,5.1,3.9,6.7
				c1.8,1.4,3.9,2.1,6.2,2.1c0.5,0,0.9,0,1.4-0.1l31.2-4.2c2.7-0.4,5.1-1.8,6.7-3.9C143.4,51.6,144.1,48.9,143.8,46.2z">
    </path>
   </g>
  </g>
  <g>
   <path class="st4" d="M55.7,77l4.5-6.6h-3.7c-0.2,0-0.4-0.2-0.4-0.4v-0.9c0-0.2,0.2-0.4,0.4-0.4h6c0.2,0,0.4,0.2,0.4,0.4v0.3
			c0,0.1,0,0.1-0.1,0.2l-4.4,6.6h3.9c0.2,0,0.4,0.2,0.4,0.4v0.9c0,0.2-0.2,0.4-0.4,0.4H56c-0.2,0-0.4-0.2-0.4-0.4v-0.3
			C55.6,77.1,55.7,77,55.7,77z">
   </path>
   <path class="st4" d="M74.5,73.3c0-2.7,2-4.6,4.7-4.6c2.8,0,4.7,1.9,4.7,4.7c0,2.8-1.9,4.7-4.7,4.7C76.3,78,74.5,76.1,74.5,73.3z
			 M81.7,73.3c0-1.6-0.8-3-2.6-3c-1.8,0-2.5,1.5-2.5,3.1c0,1.6,0.8,3,2.6,3C81,76.4,81.7,74.8,81.7,73.3z">
   </path>
   <path class="st4" d="M96.6,68.8h1.3c0.2,0,0.4,0.2,0.4,0.4v3.3h3.8v-3.3c0-0.2,0.2-0.4,0.4-0.4h1.3c0.2,0,0.4,0.2,0.4,0.4v8.4
			c0,0.2-0.2,0.4-0.4,0.4h-1.3c-0.2,0-0.4-0.2-0.4-0.4v-3.4h-3.8v3.4c0,0.2-0.2,0.4-0.4,0.4h-1.3c-0.2,0-0.4-0.2-0.4-0.4v-8.4
			C96.2,68.9,96.4,68.8,96.6,68.8z">
   </path>
   <path class="st4" d="M116.5,73.3c0-2.7,2-4.6,4.7-4.6c2.8,0,4.7,1.9,4.7,4.7c0,2.8-1.9,4.7-4.7,4.7
			C118.4,78,116.5,76.1,116.5,73.3z M123.7,73.3c0-1.6-0.8-3-2.6-3c-1.8,0-2.5,1.5-2.5,3.1c0,1.6,0.8,3,2.6,3
			C123,76.4,123.7,74.8,123.7,73.3z">
   </path>
  </g>
 </g>
</svg>