<?xml version="1.0" encoding="utf-8"?>
<!-- Generator: Adobe Illustrator 14.0.0, SVG Export Plug-In . SVG Version: 6.00 Build 43363)  -->
<!DOCTYPE svg PUBLIC "-//W3C//DTD SVG 1.1//EN" "http://www.w3.org/Graphics/SVG/1.1/DTD/svg11.dtd">
<svg version="1.1" id="Layer_1" xmlns="http://www.w3.org/2000/svg" xmlns:xlink="http://www.w3.org/1999/xlink" x="0px" y="0px"
	 width="155px" height="46px" viewBox="0 0 155 46" enable-background="new 0 0 155 46" xml:space="preserve">
<g>
	<path fill="#FFFFFF" d="M682.9-70.7C761-148.8,800-243.1,800-353.5c0-110.5-39-204.8-117.1-282.9
		C604.8-714.5,510.5-753.5,400-753.5c-110.4,0-204.7,39-282.8,117.1C39.1-558.3,0-464,0-353.5C0-243.1,39.1-148.8,117.2-70.7
		C195.3,7.4,289.6,46.5,400,46.5C510.5,46.5,604.8,7.4,682.9-70.7z"/>
</g>
<g>
	<g>
		<path fill="#F9AA8F" d="M740-416c0-45.9-16.2-85-48.6-117.5C660-564.9,622.3-581.1,578.3-582h-8.5c-44,0.9-81.7,17.1-113.1,48.5
			c-31.2,31.3-47.4,68.7-48.601,112.3L408-416c0,0.5,0,1,0.1,1.5V-250h170.2c44-1,81.7-17.2,113.101-48.7
			C723.8-331.1,740-370.2,740-416z"/>
		<path fill="#76B4CF" d="M392.1-416l-0.1-5.2c-1.2-43.6-17.4-81-48.6-112.3c-31.4-31.4-69.101-47.6-113-48.5H221.8
			c-44,0.9-81.7,17.1-113.1,48.5C76.3-501,60.1-461.9,60.1-416c0,45.8,16.2,84.9,48.6,117.3C140.1-267.2,177.8-251,221.8-250h170.3
			v-164.5C392.1-415,392.1-415.5,392.1-416z"/>
		<path fill="#7DB2B0" d="M286.9-234c-27.101,0.6-50.4,10.6-69.801,30c-20,20-30,44.2-30,72.5s10,52.4,30,72.5
			c19.4,19.4,42.7,29.4,69.801,30h5.3c27.2-0.6,50.5-10.6,69.8-30c19.3-19.3,29.3-42.3,30.1-69.3v-3.2c0-0.4,0-0.7,0-1V-234H286.9z"
			/>
		<path fill="#FFCE7B" d="M583.1-204c-19.5-19.4-42.699-29.4-69.899-30H408.1v101.5c0,0.3,0,0.6,0,1v3.2c0.801,27,10.801,50,30,69.3
			c19.4,19.4,42.7,29.4,69.801,30h5.3c27.2-0.6,50.399-10.6,69.899-30c20-20.1,30-44.2,30-72.5S603.1-184,583.1-204z"/>
	</g>
</g>
<g>
	<path fill="#FFFFFF" d="M682.9-70.7C761-148.8,800-243.1,800-353.5c0-110.5-39-204.8-117.1-282.9
		C604.8-714.5,510.5-753.5,400-753.5c-110.4,0-204.7,39-282.8,117.1C39.1-558.3,0-464,0-353.5C0-243.1,39.1-148.8,117.2-70.7
		C195.3,7.4,289.6,46.5,400,46.5C510.5,46.5,604.8,7.4,682.9-70.7z"/>
</g>
<g>
	<g>
		<path fill="#F9AA8F" d="M740-416c0-45.9-16.2-85-48.6-117.5C660-564.9,622.3-581.1,578.3-582h-8.5c-44,0.9-81.7,17.1-113.1,48.5
			c-31.2,31.3-47.4,68.7-48.601,112.3L408-416c0,0.5,0,1,0.1,1.5V-250h170.2c44-1,81.7-17.2,113.101-48.7
			C723.8-331.1,740-370.2,740-416z"/>
		<path fill="#76B4CF" d="M392.1-416l-0.1-5.2c-1.2-43.6-17.4-81-48.6-112.3c-31.4-31.4-69.101-47.6-113-48.5H221.8
			c-44,0.9-81.7,17.1-113.1,48.5C76.3-501,60.1-461.9,60.1-416c0,45.8,16.2,84.9,48.6,117.3C140.1-267.2,177.8-251,221.8-250h170.3
			v-164.5C392.1-415,392.1-415.5,392.1-416z"/>
		<path fill="#7DB2B0" d="M286.9-234c-27.101,0.6-50.4,10.6-69.801,30c-20,20-30,44.2-30,72.5s10,52.4,30,72.5
			c19.4,19.4,42.7,29.4,69.801,30h5.3c27.2-0.6,50.5-10.6,69.8-30c19.3-19.3,29.3-42.3,30.1-69.3v-3.2c0-0.4,0-0.7,0-1V-234H286.9z"
			/>
		<path fill="#FFCE7B" d="M583.1-204c-19.5-19.4-42.699-29.4-69.899-30H408.1v101.5c0,0.3,0,0.6,0,1v3.2c0.801,27,10.801,50,30,69.3
			c19.4,19.4,42.7,29.4,69.801,30h5.3c27.2-0.6,50.399-10.6,69.899-30c20-20.1,30-44.2,30-72.5S603.1-184,583.1-204z"/>
	</g>
</g>
<g>
	<path fill="#B1C2DF" d="M57.305,34.615L68.86,17.949v-0.108H58.349v-4.535h17.602v3.167L64.648,32.887v0.145h11.483v4.535H57.305
		V34.615z"/>
	<path fill="#B1C2DF" d="M81.496,19.965l2.629,8.639c0.287,1.044,0.648,2.34,0.863,3.275h0.107c0.252-0.936,0.541-2.268,0.793-3.275
		l2.16-8.639h5.867l-4.104,11.59c-2.52,6.983-4.213,9.755-6.191,11.519c-1.873,1.656-3.889,2.269-5.291,2.412l-1.153-4.607
		c0.685-0.144,1.547-0.468,2.375-0.936c0.828-0.433,1.764-1.332,2.268-2.196c0.18-0.287,0.289-0.539,0.289-0.791
		c0-0.181-0.037-0.469-0.217-0.9l-6.479-16.09H81.496z"/>
	<path fill="#B1C2DF" d="M94.781,12.01h5.471v25.557h-5.471V12.01z"/>
	<path fill="#B1C2DF" d="M107.273,19.965l2.375,8.171c0.432,1.476,0.719,2.88,1.008,4.283h0.107c0.289-1.44,0.576-2.771,0.973-4.283
		l2.268-8.171h5.76l-6.553,17.602h-5.471l-6.406-17.602H107.273z"/>
	<path fill="#B1C2DF" d="M123.545,17.661c-1.836,0-3.023-1.296-3.023-2.916c0-1.656,1.223-2.916,3.096-2.916
		c1.871,0,3.023,1.26,3.059,2.916c0,1.62-1.188,2.916-3.096,2.916H123.545z M120.844,37.566V19.965h5.473v17.602H120.844z"/>
	<path fill="#B1C2DF" d="M133.48,30.475c0.18,2.305,2.412,3.385,4.967,3.385c1.871,0,3.383-0.252,4.859-0.756l0.721,3.707
		c-1.801,0.756-3.996,1.115-6.371,1.115c-5.977,0-9.396-3.455-9.396-8.998c0-4.464,2.809-9.395,8.893-9.395
		c5.686,0,7.846,4.427,7.846,8.783c0,0.937-0.107,1.764-0.18,2.196L133.48,30.475z M139.924,26.732c0-1.297-0.576-3.564-3.061-3.564
		c-2.34,0-3.275,2.124-3.42,3.564H139.924z"/>
</g>
<g>
	<g>
		<path fill="#FFFFFF" d="M39.267,39.262C43.758,34.771,46,29.349,46,23c0-6.353-2.242-11.776-6.733-16.267
			C34.776,2.242,29.354,0,23,0C16.652,0,11.229,2.242,6.739,6.733C2.249,11.224,0,16.647,0,23c0,6.349,2.249,11.771,6.739,16.262
			C11.229,43.752,16.652,46,23,46C29.354,46,34.776,43.752,39.267,39.262z"/>
	</g>
	<g>
		<g>
			<path fill="#F9AA8F" d="M42.55,19.406c0-2.639-0.931-4.887-2.794-6.756c-1.806-1.806-3.973-2.736-6.503-2.788h-0.49
				c-2.53,0.052-4.698,0.982-6.503,2.788c-1.794,1.8-2.726,3.95-2.795,6.457l-0.005,0.299c0,0.029,0,0.057,0.005,0.086v9.46h9.788
				c2.53-0.059,4.697-0.989,6.503-2.8C41.619,24.288,42.55,22.041,42.55,19.406z"/>
			<path fill="#76B4CF" d="M22.545,19.406l-0.006-0.299c-0.068-2.507-1-4.657-2.794-6.457c-1.806-1.806-3.973-2.736-6.498-2.788
				h-0.495c-2.53,0.052-4.698,0.982-6.503,2.788c-1.863,1.87-2.795,4.117-2.795,6.756c0,2.634,0.932,4.882,2.795,6.746
				c1.805,1.811,3.973,2.741,6.503,2.8h9.792v-9.46C22.545,19.463,22.545,19.435,22.545,19.406z"/>
			<path fill="#7DB2B0" d="M16.497,29.872c-1.559,0.034-2.898,0.609-4.014,1.725c-1.15,1.15-1.725,2.542-1.725,4.169
				s0.575,3.013,1.725,4.169c1.116,1.114,2.456,1.689,4.014,1.725h0.305c1.563-0.035,2.904-0.61,4.013-1.725
				c1.11-1.11,1.685-2.434,1.73-3.985v-0.184c0-0.023,0-0.04,0-0.058v-5.836H16.497z"/>
			<path fill="#FFCE7B" d="M33.528,31.597c-1.121-1.115-2.455-1.69-4.019-1.725h-6.043v5.836c0,0.018,0,0.034,0,0.058v0.184
				c0.046,1.552,0.622,2.875,1.725,3.985c1.116,1.114,2.456,1.689,4.014,1.725h0.305c1.564-0.035,2.898-0.61,4.019-1.725
				c1.15-1.156,1.725-2.542,1.725-4.169S34.678,32.747,33.528,31.597z"/>
		</g>
	</g>
</g>
</svg>
