<svg color="currentColor" fill="none" height="32" viewBox="0 0 192 83" width="74" xmlns="http://www.w3.org/2000/svg"><path d="M113.082 0v13.728h-9.734v11.11h9.734V45.69c0 12.994 7.536 19.912 18.845 19.912 1.882 0 4.502-.211 6.281-.63V54.177c-1.153.316-2.512.42-3.769.42-5.654 0-9.63-2.62-9.63-9.118V24.838h13.399v-11.11h-13.399V0h-11.727Z" fill="#B02CCE"></path><path clip-rule="evenodd" d="M166.982 12.678c13.817 0 25.018 10.587 25.018 25.573 0 1.36-.108 3.984-.315 4.926h-39.258c1.467 7.548 6.699 12.263 14.969 12.263 6.285 0 11.206-2.934 12.25-7.337h11.724c-1.882 10.794-11.62 17.92-24.181 17.92-14.969 0-26.589-12.052-26.589-26.934 0-14.882 11.62-26.41 26.382-26.41Zm-.63 10.587c-6.911 0-11.935 3.668-13.61 9.956h26.589c-1.044-5.868-6.069-9.956-12.979-9.956Z" fill="#B02CCE" fill-rule="evenodd"></path><path d="m60.865 13.728 13.713 34.898 13.713-34.898h12.561L71.962 83H59.397l9.216-20.75-20.31-48.522h12.562ZM31.419 24.942H0V13.728h45.746v11.214L14.24 53.763h31.506v11.214H0V53.763l31.419-28.821Z" fill="#B02CCE"></path></svg>